<svg t="1693385566962" class="icon" viewBox="0 0 1024 1024" version="1.1" xmlns="http://www.w3.org/2000/svg" p-id="17816" width="200" height="200"><path d="M883.2 64v388.9152a312.6272 312.6272 0 0 0-39.8848-5.2224V103.936H103.936v739.328h417.3824c3.7888 13.7216 8.4992 27.0848 14.08 39.936H64v-819.2h819.2zM264.8064 186.1632V705.536h129.7408v53.504H264.8064l-61.44 0.4096V186.1632h61.44z m214.272 406.6304c6.9632 39.0144 18.8928 67.1232 35.6864 84.3776 1.5872 1.5872 3.2256 3.1744 4.864 4.608a311.7056 311.7056 0 0 0-9.472 64.6656 143.616 143.616 0 0 1-42.752-30.464c-28.7744-29.3376-45.2096-67.328-49.2544-114.0224z m94.4128-406.016c27.136 0 52.0192 6.5024 74.8544 19.6608 22.784 13.1584 40.192 31.0784 52.2752 53.76 12.0832 22.7328 18.1248 46.848 18.1248 72.3456 0 24.2176-5.7856 46.2848-17.2544 66.2016a122.5216 122.5216 0 0 1-51.1488 47.4624c19.3024 5.0176 35.7888 13.6192 49.408 25.7536-19.2 8.192-37.376 18.2272-54.3232 29.9008-17.3056-16.6912-38.7072-25.088-64.1536-25.088-11.4688 0-25.8048 2.56-43.008 7.68l6.8096-60.416c4.096 0.512 7.3216 0.7168 9.8304 0.7168 25.9584 0 49.3056-7.68 70.0416-22.9376 20.7872-15.36 31.1808-38.912 31.1808-70.8096 0-25.2416-7.5776-46.1824-22.6816-62.7712-15.1552-16.5888-34.6624-24.8832-58.5728-24.8832a77.824 77.824 0 0 0-59.2384 25.2928c-15.8208 16.7936-25.9584 42.0864-30.464 75.776l-60.928-12.288c7.424-46.1824 24.3712-81.92 50.7392-107.3152 26.4192-25.3952 59.2384-38.0928 98.5088-38.0928z" p-id="17817"></path><path d="M978.8416 633.5488h-114.688v-54.3232c0-8.5504-6.4-15.4112-14.336-15.4112H667.136v-19.2512c0-2.0992-1.5872-3.84-3.584-3.84h-25.088c-1.9456 0-3.584 1.7408-3.584 3.84v377.1392c0 2.0992 1.6384 3.84 3.584 3.84h25.088c1.9968 0 3.584-1.7408 3.584-3.84v-126.976h111.104v54.3232c0 8.4992 6.3488 15.36 14.336 15.36h186.2656c7.8848 0 14.336-6.8608 14.336-15.36v-200.0896c0-8.4992-6.4512-15.36-14.336-15.36z" p-id="17818"></path></svg>
