<svg t="1694142238498" class="icon" viewBox="0 0 1024 1024" version="1.1" xmlns="http://www.w3.org/2000/svg" p-id="6775" width="200" height="200"><path d="M947.182933 528.384c-29.354667 0-37.137067-21.367467-37.137066-47.786667V91.204267c0-10.581333-9.557333-19.114667-21.230934-19.114667H134.877867c-11.741867 0-21.230933 8.533333-21.230934 19.114667v774.144c0 5.051733 2.184533 9.966933 6.144 13.5168a22.528 22.528 0 0 0 15.018667 5.597866h323.925333c29.354667 0 53.111467 7.031467 53.111467 33.450667s-23.7568 38.229333-53.111467 38.229333H140.1344c-58.641067 0-106.154667-42.8032-106.154667-95.573333v-764.586667c0-52.770133 47.5136-95.573333 106.222934-95.573333h743.287466c58.641067 0 106.154667 42.8032 106.154667 95.573333V480.597333c0 26.4192-13.1072 47.786667-42.461867 47.786667z" p-id="6776"></path><path d="M477.713067 546.133333h34.474666a34.133333 34.133333 0 1 1 0 68.266667h-137.216a33.860267 33.860267 0 0 1-33.792-34.133333 34.133333 34.133333 0 0 1 33.792-34.133334H409.4464V273.066667H307.0464v33.792a34.133333 34.133333 0 1 1-68.266667 0v-67.584A34.133333 34.133333 0 0 1 272.913067 204.8h341.265066A33.9968 33.9968 0 0 1 648.379733 238.933333v67.925334a34.133333 34.133333 0 0 1-68.266666 0V273.066667H477.713067v273.066666z" p-id="6777"></path><path d="M766.754133 726.084267V622.592a39.799467 39.799467 0 1 1 79.6672 0v103.492267h103.492267a39.799467 39.799467 0 1 1 0 79.6672h-103.492267v108.885333a39.799467 39.799467 0 1 1-79.6672 0v-108.885333H657.937067a39.799467 39.799467 0 1 1 0-79.6672h108.817066z" p-id="6778"></path></svg>