<svg t="1693019605618" class="icon" viewBox="0 0 1024 1024" version="1.1" xmlns="http://www.w3.org/2000/svg" p-id="6303" width="200" height="200"><path d="M800 32h-576a128 128 0 0 0-128 128v704a128 128 0 0 0 128 128h576a128 128 0 0 0 128-128v-704a128 128 0 0 0-128-128z m64 832a64 64 0 0 1-64 64h-576a64 64 0 0 1-64-64v-704a64 64 0 0 1 64-64h576a64 64 0 0 1 64 64v704z" p-id="6304"></path><path d="M288 736h448a32 32 0 1 1 0 64h-448a32 32 0 1 1 0-64z m0-160h448a32 32 0 1 1 0 64h-448a32 32 0 0 1 0-64z m382.4-382.4a32 32 0 0 1 0 45.248L444.096 465.152l-90.496 45.248 45.312-90.496 226.24-226.24a32 32 0 0 1 45.248-0.064z" p-id="6305"></path></svg>