<?xml version="1.0" standalone="no"?><!DOCTYPE svg PUBLIC "-//W3C//DTD SVG 1.1//EN" "http://www.w3.org/Graphics/SVG/1.1/DTD/svg11.dtd"><svg class="icon" width="200px" height="200.00px" viewBox="0 0 1024 1024" version="1.1" xmlns="http://www.w3.org/2000/svg"><path d="M946.834286 462.262857a28.379429 28.379429 0 0 1-27.794286-27.501714V308.150857a45.494857 45.494857 0 0 0-24.137143-40.374857L538.697143 62.171429a45.714286 45.714286 0 0 0-48.274286 0L132.534857 265.947429a47.762286 47.762286 0 0 0-24.137143 40.374857v69.705143c0 14.628571-13.019429 27.501714-27.794285 27.501714a28.379429 28.379429 0 0 1-27.794286-27.501714v-69.705143a102.4 102.4 0 0 1 51.931428-88.137143L462.555429 14.482286c31.524571-18.285714 72.411429-18.285714 103.862857 0l358.034285 203.702857c31.597714 18.358857 51.931429 51.419429 51.931429 88.137143v126.537143c-1.828571 16.603429-12.946286 29.403429-29.622857 29.403428z m-432.274286 561.590857c-18.505143 0-35.254857-3.657143-51.931429-12.873143l-358.034285-205.531428a102.4 102.4 0 0 1-51.931429-88.064V599.917714c0-14.628571 13.019429-27.501714 27.794286-27.501714 14.848 0 27.794286 12.8 27.794286 27.501714v117.467429c0 16.457143 9.362286 32.987429 24.137142 40.374857l358.107429 203.702857a45.714286 45.714286 0 0 0 48.201143 0l358.034286-203.702857a47.762286 47.762286 0 0 0 24.137142-40.374857V640.292571c0-14.628571 12.946286-27.501714 27.794286-27.501714s25.965714 10.971429 25.965714 27.501714v77.092572a102.4 102.4 0 0 1-51.931428 88.064l-356.205714 203.702857c-16.676571 9.142857-35.181714 14.628571-51.931429 14.628571z"  /><path d="M603.648 654.994286h-79.725714L497.810286 577.828571h-124.342857l-25.892572 77.092572h-79.725714L392.045714 317.293714h85.357715l126.171428 337.700572zM483.035429 520.996571l-38.912-117.467428a285.257143 285.257143 0 0 1-5.632-29.330286H436.662857c0 9.142857-3.657143 20.187429-5.558857 29.330286l-38.985143 117.467428h90.916572z m237.421714-205.531428V653.165714h-72.338286V315.465143h72.411429zM0.731429 546.669714c0 41.545143 34.011429 75.264 76.068571 75.264 41.984 0 76.068571-33.645714 76.068571-75.264 0-41.545143-34.084571-75.190857-76.068571-75.190857-42.057143 0-76.068571 33.645714-76.068571 75.190857zM868.937143 464.091429c0 41.545143 34.011429 75.264 76.068571 75.264 41.984 0 76.068571-33.645714 76.068572-75.264 0-41.545143-34.084571-75.190857-76.068572-75.190858-42.057143 0-76.068571 33.645714-76.068571 75.190858z"  /></svg>