<svg t="1693966096417" class="icon" viewBox="0 0 1024 1024" version="1.1" xmlns="http://www.w3.org/2000/svg" p-id="12154" width="200" height="200"><path d="M520.484571 133.12c-179.736381 0-329.142857 124.68419-369.030095 292.132571h52.955429c38.863238-138.776381 165.156571-241.42019 316.074666-241.42019 181.833143 0 329.776762 147.894857 329.776762 329.630476s-147.992381 329.630476-329.776762 329.630476c-141.214476 0-261.022476-89.819429-307.882666-214.991238H159.695238c48.810667 153.84381 190.854095 265.654857 360.838095 265.654857a380.099048 380.099048 0 0 0 380.391619-380.245333c0-210.310095-170.179048-380.391619-380.440381-380.391619z" p-id="12155"></path><path d="M936.667429 894.293333l-143.750096-143.750095a12.288 12.288 0 0 0-17.993143 0l-17.94438 17.944381c-5.266286 5.36381-5.266286 12.824381 0 17.944381l143.750095 143.847619a12.385524 12.385524 0 0 0 17.944381 0l17.993143-17.944381a12.336762 12.336762 0 0 0 0-18.041905zM140.190476 526.140952c0-7.41181 6.339048-12.678095 14.823619-12.678095h147.894857c8.484571 0 14.823619 5.266286 14.823619 12.678095v25.356191c0 7.363048-6.339048 12.678095-14.823619 12.678095H155.014095c-8.484571 0-14.823619-5.315048-14.823619-12.678095v-25.356191z" p-id="12156"></path><path d="M284.769524 548.864c-6.339048-3.169524-8.43581-11.654095-5.217524-16.920381l43.885714-73.776762c9.654857 9.947429 20.041143-9.849905 26.380191-6.631619l19.504762 0.146286c6.339048 3.169524 8.43581 11.605333 5.266285 16.871619l-50.712381 88.795428a14.628571 14.628571 0 0 1-17.944381 4.193524l-21.113904-12.678095z m340.796952 42.910476c-6.436571-3.169524-8.43581-11.702857-5.266286-16.920381l50.614858-88.746666a14.677333 14.677333 0 0 1 18.041904-4.193524l21.065143 12.678095c6.339048 3.169524 8.484571 11.605333 5.266286 16.871619l-50.614857 88.795429a14.628571 14.628571 0 0 1-17.993143 4.193523l-21.113905-12.678095z" p-id="12157"></path><path d="M549.156571 347.818667c6.436571-3.218286 13.848381 0 16.920381 6.339047l96.158477 207.043048c3.120762 6.339048 1.024 13.750857-5.266286 16.920381l-23.210667 10.532571c-6.38781 3.218286-13.799619 0-16.920381-6.339047l-96.158476-207.043048a12.336762 12.336762 0 0 1 5.266286-16.920381l23.210666-10.532571z m-196.998095 92.16c6.339048-3.218286 13.750857 0 16.920381 6.339047l75.093333 160.572953c3.120762 6.339048 0 13.702095-6.339047 16.920381l-22.235429 10.532571c-6.339048 3.169524-13.750857 0-16.920381-6.339048L323.681524 467.431619c-3.218286-6.339048 0-13.750857 6.339047-16.871619l22.186667-10.581333z" p-id="12158"></path><path d="M405.991619 635.026286c-6.436571-2.145524-8.533333-10.581333-6.436571-16.920381l118.345142-252.537905c3.218286-6.339048 10.532571-8.43581 16.822858-6.339048l23.356952 11.654096c6.339048 2.096762 8.43581 10.532571 6.339048 16.871619l-118.393905 252.586666c-3.120762 6.290286-10.532571 8.387048-16.969143 6.290286l-23.064381-11.605333z" p-id="12159"></path></svg>