<?xml version="1.0" standalone="no"?><!DOCTYPE svg PUBLIC "-//W3C//DTD SVG 1.1//EN" "http://www.w3.org/Graphics/SVG/1.1/DTD/svg11.dtd"><svg class="icon" width="64px" height="64.00px" viewBox="0 0 1024 1024" version="1.1" xmlns="http://www.w3.org/2000/svg"><path d="M401.92 353.28c0.85504 0 1.71008 0.00512 2.56 0.02048V491.52h138.21952c0.01536 0.84992 0.02048 1.70496 0.02048 2.56 0 77.76256-63.03744 140.8-140.8 140.8S261.12 571.84256 261.12 494.08 324.15744 353.28 401.92 353.28zM435.2 322.58048c75.7248 1.35168 136.86784 62.4896 138.21952 138.21952H435.2zM542.72 993.28h481.28v30.72h-481.28zM993.28 721.92v302.08h-179.2v-302.08h179.2z m-29.86496 29.17888h-119.47008v243.6352h119.47008V751.104zM844.8 573.44v450.56h-271.36v-450.56h271.36z m-30.15168 29.92128H603.5968v390.75328h211.05664v-390.7584zM634.88 655.36h60.416v28.44672H634.88V655.36z m0 85.33504h60.416v28.4416H634.88v-28.4416z m241.664 56.88832H936.96v28.4416h-60.416v-28.4416z m0 85.33504H936.96V911.36h-60.416v-28.4416zM634.88 826.02496h60.416v28.44672H634.88v-28.44672zM725.504 655.36h60.416v28.44672h-60.416V655.36z m0 85.33504h60.416v28.4416h-60.416v-28.4416z m0 85.32992h60.416v28.44672h-60.416v-28.44672zM426.0864 81.92a40.96 40.96 0 0 1 25.69728 9.0624l130.24256 104.91904a40.96 40.96 0 0 0 25.69728 9.0624H911.36a40.96 40.96 0 0 1 40.96 40.96V491.52h-51.2V256.16384h-293.39648a92.16 92.16 0 0 1-56.04352-18.9952l-1.77152-1.39264L422.4768 133.12H71.68v712.96h419.84v51.2H61.44a40.96 40.96 0 0 1-40.96-40.96V122.88a40.96 40.96 0 0 1 40.96-40.96h364.6464z" /></svg>