<?xml version="1.0" standalone="no"?><!DOCTYPE svg PUBLIC "-//W3C//DTD SVG 1.1//EN" "http://www.w3.org/Graphics/SVG/1.1/DTD/svg11.dtd"><svg class="icon" width="64px" height="64.00px" viewBox="0 0 1024 1024" version="1.1" xmlns="http://www.w3.org/2000/svg"><path d="M401.92 353.28c0.85504 0 1.71008 0.00512 2.56 0.02048V491.52h138.21952c0.01536 0.84992 0.02048 1.70496 0.02048 2.56 0 77.76256-63.03744 140.8-140.8 140.8S261.12 571.84256 261.12 494.08 324.15744 353.28 401.92 353.28zM435.2 322.58048c75.7248 1.35168 136.86784 62.4896 138.21952 138.21952H435.2zM426.0864 81.92a40.96 40.96 0 0 1 25.69728 9.0624l130.24256 104.91904a40.96 40.96 0 0 0 25.69728 9.0624H911.36a40.96 40.96 0 0 1 40.96 40.96V491.52h-51.2V256.16384h-293.39648a92.16 92.16 0 0 1-56.04352-18.9952l-1.77152-1.39264L422.4768 133.12H71.68v712.96h419.84v51.2H61.44a40.96 40.96 0 0 1-40.96-40.96V122.88a40.96 40.96 0 0 1 40.96-40.96h364.6464zM646.41024 602.5216v214.46656h104.448V860.16h-155.97568v-257.6384h51.52768z m150.75328 194.27328c6.00064 5.8624 12.53376 11.19232 19.6608 15.50336a124.23168 124.23168 0 0 0-25.04704 33.47456 102.27712 102.27712 0 0 1-18.6368-16.59904z m60.928-199.14752c49.78688 0 83.5584 24.3712 83.5584 68.58752 0 27.8528-15.6672 48.04608-43.17184 58.83904v1.7408c28.55424 7.81824 50.46784 28.57984 51.49184 60.98944a123.55072 123.55072 0 0 0-52.25472-9.48736c-3.63008-20.0192-21.22752-32.00512-70.26176-32.00512v-36.90496c47.34976 0 62.6688-16.36352 62.6688-39.34208 0-20.19328-12.53376-32.03072-34.46784-32.37888-18.45248 0.34816-33.42336 9.05216-48.7424 22.97856l-26.112-31.3344c22.28224-19.49696 47.0016-31.68256 77.29152-31.68256zM801.00864 874.10688l92.16 46.08a5.12 5.12 0 0 1 2.83136 4.57728v90.95168a5.12 5.12 0 0 1-7.40864 4.57728l-92.16-46.08a5.12 5.12 0 0 1-2.83136-4.57728v-90.95168a5.12 5.12 0 0 1 7.40864-4.57728zM1011.47136 874.10688l-92.16 46.08a5.12 5.12 0 0 0-2.83136 4.57728v90.95168a5.12 5.12 0 0 0 7.40864 4.57728l92.16-46.08a5.12 5.12 0 0 0 2.83136-4.57728v-90.95168a5.12 5.12 0 0 0-7.40864-4.57728zM908.93824 793.84064l97.51552 52.88448a5.12 5.12 0 0 1-0.15872 9.08288l-97.51552 48.55296a5.12 5.12 0 0 1-4.56192 0l-97.51552-48.55296a5.12 5.12 0 0 1-0.15872-9.08288l97.51552-52.88448a5.12 5.12 0 0 1 4.87936 0z" /></svg>