<?xml version="1.0" standalone="no"?><!DOCTYPE svg PUBLIC "-//W3C//DTD SVG 1.1//EN" "http://www.w3.org/Graphics/SVG/1.1/DTD/svg11.dtd"><svg class="icon" width="64px" height="64.00px" viewBox="0 0 1024 1024" version="1.1" xmlns="http://www.w3.org/2000/svg"><path d="M347.527529 332.769882c41.366588-23.883294 96.195765-6.927059 122.051765 37.872942l47.721412 82.657882a69.571765 69.571765 0 0 1 17.091765-13.974588c19.576471-11.294118 43.535059-12.559059 65.987764-3.794824a73.336471 73.336471 0 0 1 28.129883-30.418823 72.086588 72.086588 0 0 1 46.531764-8.643765 90.051765 90.051765 0 0 1 35.885177 13.402353 72.402824 72.402824 0 0 1 17.091765-13.839059c38.550588-22.256941 90.940235-3.870118 116.796235 40.914824l124.822588 216.199529c27.602824 47.826824 36.984471 112.880941 23.913412 165.827765-7.273412 29.500235-20.841412 51.335529-38.415059 61.485176l-213.609412 123.331765c-40.056471 23.115294-75.158588 3.794824-103.454117-11.670588l-0.798118-0.451765c-1.069176-0.617412-2.695529-1.28-4.111059-1.852235l-0.542118-0.301177c-0.752941-0.346353-1.611294-0.707765-2.273882-1.114353l-3.764706-1.776941-0.391529-0.135529-188.837647-96.195765a95.518118 95.518118 0 0 1-47.164236-54.196706 93.229176 93.229176 0 0 1 3.297883-71.047529 88.606118 88.606118 0 0 1 74.435765-50.507295L319.397647 457.276235c-25.946353-44.664471-13.296941-100.592941 28.129882-124.506353z m19.576471 41.306353c-16.263529 9.381647-20.630588 32.180706-9.848471 50.883765l141.552942 242.778353c0.496941 0.692706 0.948706 1.430588 1.385411 2.183529l55.747765 96.557177c6.972235 12.544 4.005647 28.144941-6.987294 36.592941a27.919059 27.919059 0 0 1-36.818824-2.891294l-24.816941-22.061177c-9.035294-4.698353-19.576471-5.571765-29.259294-2.394353a36.848941 36.848941 0 0 0-21.699765 19.350589c-9.035294 19.154824-0.843294 42.541176 18.251295 52.299294l194.544941 98.906353 0.587294 0.240941 2.394353 1.204706 2.981647 1.536c1.897412 1.024 3.809882 1.912471 5.421176 2.56l1.174589 0.466823 1.129411 0.813177c31.352471 17.242353 40.854588 19.410824 53.037177 12.363294l220.596706-127.352471c6.415059-3.870118 16.263529-23.988706 18.236235-57.072941 2.017882-35.644235-6.144-72.207059-22.317177-100.21647l-128.391529-222.373647c-10.496-18.176-30.810353-27.482353-43.595294-20.10353-2.831059 1.656471-5.195294 3.975529-6.896941 6.761412l44.905412 77.763765c6.535529 13.613176 1.912471 29.771294-10.691765 37.12-12.649412 7.303529-29.123765 3.072-37.421177-9.306353l-39.002353-67.493647-12.393411-18.115765c-10.992941-16.158118-29.756235-23.702588-41.818353-16.715294-5.360941 3.072-9.125647 9.216-10.616471 16.685176l48.564706 84.10353c7.905882 13.778824 3.538824 31.126588-9.743059 38.851764-13.327059 7.619765-30.494118 2.710588-38.475294-10.992941l-42.721882-74.014117-6.79153-7.604706c-11.294118-12.679529-27.527529-17.724235-37.692235-11.851294-6.927059 4.005647-11.038118 12.920471-11.113412 23.627294l47.390118 83.877647 18.115765 31.382588c7.032471 12.167529 3.162353 27.738353-8.613647 34.544941l-5.210353 3.011765c-11.836235 6.821647-27.226353 2.364235-34.258824-9.788235L421.345882 399.721412l-5.255529-8.764236c-10.812235-18.718118-32.722824-26.292706-48.986353-16.896zM234.782118 490.345412a28.611765 28.611765 0 0 1-10.465883 39.077647l-128.828235 74.390588a28.611765 28.611765 0 1 1-28.611765-49.558588l128.828236-74.390588a28.611765 28.611765 0 0 1 39.077647 10.480941zM730.277647 204.272941a28.611765 28.611765 0 0 1-10.465882 39.077647l-128.828236 74.390588a28.611765 28.611765 0 1 1-28.611764-49.543529l128.828235-74.390588a28.611765 28.611765 0 0 1 39.077647 10.465882zM515.463529 10.917647a28.611765 28.611765 0 0 1 20.224 35.011765l-45.417411 169.59247a28.611765 28.611765 0 1 1-55.265883-14.802823l45.432471-169.562353A28.611765 28.611765 0 0 1 515.463529 10.902588zM16.173176 299.188706a28.611765 28.611765 0 0 1 35.041883-20.239059l169.562353 45.432471a28.611765 28.611765 0 0 1-14.802824 55.265882L36.397176 334.215529a28.611765 28.611765 0 0 1-20.224-35.011764zM214.437647 66.063059a28.611765 28.611765 0 0 1 39.092706 10.465882l74.375529 128.828235a28.611765 28.611765 0 0 1-49.543529 28.611765l-74.390588-128.828235a28.611765 28.611765 0 0 1 10.480941-39.077647z" /></svg>