<?xml version="1.0" standalone="no"?><!DOCTYPE svg PUBLIC "-//W3C//DTD SVG 1.1//EN" "http://www.w3.org/Graphics/SVG/1.1/DTD/svg11.dtd"><svg class="icon" width="64px" height="64.00px" viewBox="0 0 1024 1024" version="1.1" xmlns="http://www.w3.org/2000/svg"><path d="M402.025136 351.891787c0.85168 0 1.70336 0.0051 2.549941 0.020399V489.588573h137.676386c0.0153 0.84658 0.0204 1.69826 0.0204 2.549941 0 77.456992-62.789734 140.246727-140.246727 140.246726S261.778409 569.595506 261.778409 492.138514 324.568144 351.891787 402.025136 351.891787zM435.174362 321.312901c75.42724 1.346369 136.330018 62.244047 137.676387 137.676386H435.174362zM1010.497034 871.804252h-62.050251v-28.334938c0-4.436896-3.467919-8.022113-7.751819-8.022113h-98.891792v-10.031466a1.978754 1.978754 0 0 0-1.937955-2.004253h-13.575883c-1.065875 0-1.937955 0.902679-1.937955 2.004253v196.580012c0 1.101574 0.87208 2.004253 1.937955 2.004253h13.575883c1.065875 0 1.937955-0.902679 1.937955-2.004253v-66.196455h60.107197v28.334938c0 4.436896 3.467919 8.022113 7.756919 8.022113h100.829746c4.289 0 7.756919-3.585216 7.756919-8.022113v-104.307865c0-4.436896-3.467919-8.022113-7.751819-8.022113zM426.096574 81.598096a40.799048 40.799048 0 0 1 25.596303 9.026789l129.730772 104.506761a40.799048 40.799048 0 0 0 25.596303 9.026789H909.463293a40.799048 40.799048 0 0 1 40.799047 40.799048V489.588573h-50.998809V255.157245h-292.243579a91.797857 91.797857 0 0 1-55.823298-18.920559l-1.764558-1.387167L422.501158 132.596905H73.082814v710.158425h418.190239v50.99881H62.883052a40.799048 40.799048 0 0 1-40.799048-40.799048V122.397143a40.799048 40.799048 0 0 1 40.799048-40.799047h363.213522zM645.554652 600.153992v213.623815h104.037572V856.780003h-155.362774v-256.626011h51.325202z m150.160895 193.509884c5.97706 5.839364 12.484509 11.14834 19.583543 15.44244a123.743512 123.743512 0 0 0-24.948617 33.343021 101.875222 101.875222 0 0 1-18.563567-16.533814z m60.688584-198.36497c49.591243 0 83.230057 24.275433 83.230057 68.318005 0 27.743352-15.605636 47.857283-43.002196 58.607832v1.73396c28.442036 7.787518 50.269527 28.467536 51.289503 60.749782a123.065228 123.065228 0 0 0-52.049385-9.450079c-3.615816-19.940535-21.144106-31.879356-69.985667-31.879356v-36.759942c47.163699 0 62.422543-16.29922 62.422543-39.187486 0-20.113931-12.484509-31.904855-34.332398-32.251647-18.379971 0.346792-33.292023 9.01659-48.550867 22.888266l-26.009393-31.211272c22.194682-19.420347 46.816907-31.558063 76.987803-31.558063z" /></svg>