<?xml version="1.0" standalone="no"?><!DOCTYPE svg PUBLIC "-//W3C//DTD SVG 1.1//EN" "http://www.w3.org/Graphics/SVG/1.1/DTD/svg11.dtd"><svg t="1693643127907" class="icon" viewBox="0 0 1024 1024" version="1.1" xmlns="http://www.w3.org/2000/svg" p-id="6574" xmlns:xlink="http://www.w3.org/1999/xlink" width="200" height="200"><path d="M465.92 97.28v460.8h460.8c0 254.49472-206.30528 460.8-460.8 460.8S5.12 812.57472 5.12 558.08c0-251.95008 202.20416-456.66816 453.18144-460.73856L465.92 97.28zM404.48 163.42528l-2.8416 0.4352C211.46624 194.61632 66.56 359.61344 66.56 558.08c0 220.55936 178.80064 399.36 399.36 399.36 198.5024 0 363.18208-144.82944 394.1376-334.58176l0.512-3.33824H404.48V163.42528z" p-id="6575"></path><path d="M568.32 5.12c246.3488 0 446.52032 197.7088 450.49856 443.1104L1018.88 455.68h-450.56V5.12z m61.44 66.26816V394.24h322.85184l-0.1792-1.19296c-26.6752-164.93056-156.9792-294.92224-321.67424-321.50016l-0.9984-0.15872z" p-id="6576"></path></svg>