<?xml version="1.0" standalone="no"?><!DOCTYPE svg PUBLIC "-//W3C//DTD SVG 1.1//EN" "http://www.w3.org/Graphics/SVG/1.1/DTD/svg11.dtd"><svg class="icon" width="64px" height="64.00px" viewBox="0 0 1024 1024" version="1.1" xmlns="http://www.w3.org/2000/svg"><path d="M401.92 353.28c0.85504 0 1.71008 0.00512 2.56 0.02048V491.52h138.21952c0.01536 0.84992 0.02048 1.70496 0.02048 2.56 0 77.76256-63.03744 140.8-140.8 140.8S261.12 571.84256 261.12 494.08 324.15744 353.28 401.92 353.28zM435.2 322.58048c75.7248 1.35168 136.86784 62.4896 138.21952 138.21952H435.2zM426.0864 81.92a40.96 40.96 0 0 1 25.69728 9.0624l130.24256 104.91904a40.96 40.96 0 0 0 25.69728 9.0624H911.36a40.96 40.96 0 0 1 40.96 40.96V491.52h-51.2V256.16384h-293.39648a92.16 92.16 0 0 1-56.04352-18.9952l-1.77152-1.39264L422.4768 133.12H71.68v712.96h419.84v51.2H61.44a40.96 40.96 0 0 1-40.96-40.96V122.88a40.96 40.96 0 0 1 40.96-40.96h364.6464zM812.29824 911.36v-43.17184h-104.448V653.7216h-51.52768V911.36h155.97568z m196.7104 0v-41.43104h-48.39424V653.7216h-37.94944c-16.36352 10.09664-34.11968 16.71168-59.88352 21.58592v31.68256h46.65344v162.93888h-55.35744V911.36h154.9312z" /></svg>