<?xml version="1.0" standalone="no"?><!DOCTYPE svg PUBLIC "-//W3C//DTD SVG 1.1//EN" "http://www.w3.org/Graphics/SVG/1.1/DTD/svg11.dtd"><svg class="icon" width="64px" height="64.00px" viewBox="0 0 1024 1024" version="1.1" xmlns="http://www.w3.org/2000/svg"><path d="M938.666667 0a85.333333 85.333333 0 0 1 85.333333 85.333333v853.333334a85.333333 85.333333 0 0 1-85.333333 85.333333H85.333333a85.333333 85.333333 0 0 1-85.333333-85.333333V85.333333a85.333333 85.333333 0 0 1 85.333333-85.333333h853.333334zM692.992 266.666667h-53.546667l-2.922666 5.930666c-9.130667 18.453333-24.96 37.824-47.552 58.026667-22.741333 20.330667-49.365333 37.674667-79.914667 52.053333l-6.122667 2.88v76.437334l14.357334-5.290667c18.133333-6.698667 38.442667-16.661333 60.928-29.866667 12.586667-7.402667 23.850667-14.826667 33.813333-22.272l3.370667-2.602666V757.333333h77.589333v-490.666666z m-290.389333 0.341333h-71.594667v489.984h71.594667l-0.021334-0.341333h106.069334v-65.066667h-106.069334V267.008z" /></svg>