<?xml version="1.0" standalone="no"?><!DOCTYPE svg PUBLIC "-//W3C//DTD SVG 1.1//EN" "http://www.w3.org/Graphics/SVG/1.1/DTD/svg11.dtd"><svg class="icon" width="64px" height="64.00px" viewBox="0 0 1024 1024" version="1.1" xmlns="http://www.w3.org/2000/svg"><path d="M938.666667 0a85.333333 85.333333 0 0 1 85.333333 85.333333v853.333334a85.333333 85.333333 0 0 1-85.333333 85.333333H85.333333a85.333333 85.333333 0 0 1-85.333333-85.333333V85.333333a85.333333 85.333333 0 0 1 85.333333-85.333333h853.333334zM359.402667 271.978667H288v488.106666h71.402667l-0.021334-0.32h105.664v-64.896h-105.664V271.978667z m274.474666-2.56c-43.477333 0-79.381333 16.96-105.856 50.197333-26.304 32.32-39.68 75.882667-39.68 129.109333v10.666667h66.901334l0.149333-10.517333c0.490667-35.733333 7.296-63.210667 19.754667-81.792l2.56-3.584c12.672-18.986667 30.293333-27.861333 54.506666-27.861334 22.976 0 40.704 6.698667 52.970667 19.733334 12.544 13.333333 18.816 31.936 18.816 57.450666 0 26.666667-9.493333 51.968-28.288 75.392-9.6 11.626667-29.098667 29.376-60.864 55.509334-41.024 32.277333-71.04 60.8-88.106667 83.2-27.861333 35.413333-41.728 75.477333-41.728 119.957333v10.666667h286.570667v-68.138667l-204.757333-0.021333 0.853333-1.962667c10.837333-23.232 34.432-49.685333 70.762667-78.613333l20.608-16.213334c32.96-26.325333 57.024-48.448 70.485333-64.576 27.52-34.410667 41.493333-72.725333 41.493333-114.56 0-42.197333-13.12-77.653333-38.613333-104.213333-26.154667-26.581333-59.029333-39.829333-98.56-39.829333z" /></svg>