<?xml version="1.0" standalone="no"?><!DOCTYPE svg PUBLIC "-//W3C//DTD SVG 1.1//EN" "http://www.w3.org/Graphics/SVG/1.1/DTD/svg11.dtd"><svg class="icon" width="64px" height="64.00px" viewBox="0 0 1024 1024" version="1.1" xmlns="http://www.w3.org/2000/svg"><path d="M938.666667 0a85.333333 85.333333 0 0 1 85.333333 85.333333v853.333334a85.333333 85.333333 0 0 1-85.333333 85.333333H85.333333a85.333333 85.333333 0 0 1-85.333333-85.333333V85.333333a85.333333 85.333333 0 0 1 85.333333-85.333333h853.333334zM512.085333 234.666667a87.253333 87.253333 0 0 0-86.101333 73.066666l-0.618667 4.352a87.274667 87.274667 0 0 0 50.56 89.258667l0.874667 0.384v32.426667l-87.637333 50.474666-2.837334 1.792a40.746667 40.746667 0 0 0-17.557333 33.493334v97.472l-24.597333 14.272-1.109334-0.853334a86.570667 86.570667 0 0 0-93.525333-4.245333 87.338667 87.338667 0 0 0-31.914667 119.082667 86.656 86.656 0 0 0 118.634667 31.936l3.797333-2.346667a87.253333 87.253333 0 0 0 39.253334-81.408l-0.128-1.130667 21.674666-12.608 90.773334 52.330667 3.221333 1.664a40.96 40.96 0 0 0 37.482667-1.642667l90.709333-52.288 21.738667 12.629334-0.128 1.045333a87.338667 87.338667 0 0 0 43.029333 83.818667 86.613333 86.613333 0 0 0 118.677333-31.957334 87.317333 87.317333 0 0 0-31.744-119.04l-4.074666-2.218666a86.592 86.592 0 0 0-89.429334 6.464l-1.152 0.832-24.618666-14.272v-97.514667l-0.128-3.349333a40.746667 40.746667 0 0 0-20.224-31.957334l-87.637334-50.453333v-32.448l0.896-0.384A87.274667 87.274667 0 0 0 512.085333 234.666667z m190.848 451.072a32.64 32.64 0 0 1 44.544-12.010667 32.832 32.832 0 0 1-7.829333 60.053333 32.64 32.64 0 0 1-24.768-3.242666 32.853333 32.853333 0 0 1-11.946667-44.8z m-426.346666-12.074667a32.533333 32.533333 0 0 1 44.586666 12.032 32.832 32.832 0 0 1-11.946666 44.778667 32.533333 32.533333 0 0 1-44.586667-12.053334 32.832 32.832 0 0 1 11.946667-44.757333zM512 482.922667l83.413333 48.064v95.978666L512 674.986667l-83.413333-48.042667v-96L512 482.944z m-16.64-190.293334a32.832 32.832 0 1 1 33.386667 56.533334 32.832 32.832 0 0 1-33.386667-56.533334z" /></svg>