<?xml version="1.0" standalone="no"?><!DOCTYPE svg PUBLIC "-//W3C//DTD SVG 1.1//EN" "http://www.w3.org/Graphics/SVG/1.1/DTD/svg11.dtd"><svg class="icon" width="64px" height="64.00px" viewBox="0 0 1024 1024" version="1.1" xmlns="http://www.w3.org/2000/svg"><path d="M938.666667 0a85.333333 85.333333 0 0 1 85.333333 85.333333v853.333334a85.333333 85.333333 0 0 1-85.333333 85.333333H85.333333a85.333333 85.333333 0 0 1-85.333333-85.333333V85.333333a85.333333 85.333333 0 0 1 85.333333-85.333333h853.333334z m-67.2 649.088l-0.469334 0.64a8.021333 8.021333 0 0 1-2.730666 1.898667l-146.133334 74.24v184.746666a7.936 7.936 0 0 1-6.442666 7.893334h1.6l150.976-77.376a1.6 1.6 0 0 0 1.6-1.578667c1.28-1.258667 1.557333-1.493333 1.6-2.346667v-188.117333z m-319.594667-5.354667v189.504l0.256 0.938667 1.109333 1.28a1.728 1.728 0 0 1 0.234667 0.938667c0.896 0 1.621333 0.704 1.621333 1.578666h1.6l149.226667 76.48-1.194667-0.938666a7.893333 7.893333 0 0 1-1.877333-2.88v-184.789334l-146.154667-74.218666a7.893333 7.893333 0 0 1-4.821333-7.893334zM331.754667 266.666667h-71.317334v487.338666h71.317334l-0.021334-0.32h105.472v-64.810666l-105.472-0.021334V266.666667z m172.16 329.109333l-69.696 10.496 0.853333 9.984c3.52 40.32 17.877333 73.557333 43.072 99.242667a126.506667 126.506667 0 0 0 42.133333 28.778666c2.858667-24.32 9.130667-47.573333 18.325334-69.290666a65.194667 65.194667 0 0 1-6.698667-5.973334c-11.946667-12.245333-20.821333-33.216-26.154667-63.04l-1.834666-10.197333z m213.376-37.333333h-9.621334l-150.976 77.397333h9.642667l146.133333 74.24 146.154667-74.24h9.642667l-150.976-77.397333z m-145.28-291.306667c-34.624 0-63.957333 11.349333-87.466667 33.92-23.253333 22.357333-37.994667 53.546667-44.394667 93.248l-1.642666 10.133333 70.762666 14.229334 1.493334-11.285334c3.413333-25.344 10.837333-43.84 21.973333-55.722666 10.816-11.52 24.042667-17.152 40.384-17.152 16.490667 0 29.482667 5.525333 39.722667 16.746666 10.453333 11.434667 15.658667 25.877333 15.658666 43.818667 0 22.72-7.04 38.677333-20.992 48.96a82.965333 82.965333 0 0 1-50.624 16.597333c-1.130667 0-2.666667-0.106667-4.608-0.298666l-12.778666-1.6-8.490667 75.904 15.445333-4.586667c13.013333-3.882667 23.701333-5.781333 31.893334-5.781333 19.904 0 35.904 7.061333 48.725333 21.461333 3.626667 4.053333 6.72 8.448 9.301333 13.141333 20.48-13.162667 42.922667-23.488 66.858667-30.442666a113.344 113.344 0 0 0-4.330667-6.933334l-3.221333-4.565333a101.12 101.12 0 0 0-37.397333-30.826667l2.944-2.282666c9.770667-8.106667 17.792-17.557333 24.042666-28.330667a116.202667 116.202667 0 0 0 15.466667-59.157333c0-22.506667-5.333333-43.818667-15.978667-63.808a119.04 119.04 0 0 0-46.592-47.957334 130.282667 130.282667 0 0 0-66.133333-17.429333z" /></svg>