<?xml version="1.0" standalone="no"?><!DOCTYPE svg PUBLIC "-//W3C//DTD SVG 1.1//EN" "http://www.w3.org/Graphics/SVG/1.1/DTD/svg11.dtd"><svg class="icon" width="64px" height="64.00px" viewBox="0 0 1024 1024" version="1.1" xmlns="http://www.w3.org/2000/svg"><path d="M401.92 353.28c0.85504 0 1.71008 0.00512 2.56 0.02048V491.52h138.21952c0.01536 0.84992 0.02048 1.70496 0.02048 2.56 0 77.76256-63.03744 140.8-140.8 140.8S261.12 571.84256 261.12 494.08 324.15744 353.28 401.92 353.28zM435.2 322.58048c75.7248 1.35168 136.86784 62.4896 138.21952 138.21952H435.2zM426.0864 81.92a40.96 40.96 0 0 1 25.69728 9.0624l130.24256 104.91904a40.96 40.96 0 0 0 25.69728 9.0624H911.36a40.96 40.96 0 0 1 40.96 40.96V491.52h-51.2V256.16384h-293.39648a92.16 92.16 0 0 1-56.04352-18.9952l-1.77152-1.39264L422.4768 133.12H71.68v712.96h419.84v51.2H61.44a40.96 40.96 0 0 1-40.96-40.96V122.88a40.96 40.96 0 0 1 40.96-40.96h364.6464zM990.11072 891.10016a59.02336 59.02336 0 0 0-69.04832 6.89664l-28.33408-16.5376v-81.61792c0-8.46336-4.47488-16.2816-11.75552-20.51072l-72.6784-42.1376v-36.11136c27.75552-9.48224 44.6208-37.80096 39.84896-66.9184-4.77184-29.12256-29.77792-50.4832-59.08992-50.4832-29.312 0-54.31808 21.36064-59.0848 50.4832-4.77696 29.11744 12.0832 57.43616 39.84384 66.9184v36.10624l-72.704 42.1376a23.70048 23.70048 0 0 0-11.75552 20.51584v81.5616l-28.3136 16.5376a59.02848 59.02848 0 0 0-69.0688-6.89664c-28.5696 16.67584-38.36416 53.4784-21.90336 82.29888a59.47904 59.47904 0 0 0 36.1216 28.04736c15.26784 4.14208 31.54432 1.98144 45.22496-5.99552 22.14912-12.94848 33.664-38.64576 28.6464-63.93344l26.03008-15.232 75.14624 43.60704c7.28064 4.1984 16.22528 4.1984 23.50592 0l75.09504-43.55072 26.05056 15.22688c-4.87936 24.58624 5.96992 50.688 28.6464 63.93344a59.01824 59.01824 0 0 0 45.23008 6.02112 59.42784 59.42784 0 0 0 36.11648-28.07296c16.4864-28.78976 6.7584-65.57696-21.77024-82.29376z m-359.66464 74.48576a25.27744 25.27744 0 0 1-19.38432 2.56 25.45664 25.45664 0 0 1-15.4624-12.04736c-7.0656-12.33408-2.88256-28.09344 9.33888-35.24096a25.27744 25.27744 0 0 1 19.38432-2.56512 25.45664 25.45664 0 0 1 15.4624 12.04736c7.0656 12.33408 2.88256 28.09344-9.33888 35.24608z m132.93056-321.61792a25.8816 25.8816 0 0 1 12.5952-23.05024 25.51296 25.51296 0 0 1 26.13248 0.01024 25.8816 25.8816 0 0 1 12.57472 23.0656c-0.44032 13.94688-11.79648 25.02144-25.6512 25.02144s-25.21088-11.07456-25.6512-25.02144v-0.0256z m90.84416 240.128l-65.2288 37.83168-65.21344-37.83168v-75.55584l65.20832-37.8368 65.20832 37.8368v75.55584h0.0256z m128.23552 72.08448a25.53344 25.53344 0 0 1-15.47776 12.00128 25.35424 25.35424 0 0 1-19.36896-2.54464c-12.22656-7.168-16.40448-22.93248-9.33888-35.27168a25.41056 25.41056 0 0 1 34.816-9.45664c12.25728 7.1424 16.4352 22.93248 9.344 35.27168h0.0256z" /></svg>