<?xml version="1.0" standalone="no"?><!DOCTYPE svg PUBLIC "-//W3C//DTD SVG 1.1//EN" "http://www.w3.org/Graphics/SVG/1.1/DTD/svg11.dtd"><svg t="1717395310014" class="icon" viewBox="0 0 1024 1024" version="1.1" xmlns="http://www.w3.org/2000/svg" p-id="56332" xmlns:xlink="http://www.w3.org/1999/xlink" width="64" height="64"><path d="M920.130783 22.26087C965.186783 22.26087 1001.73913 58.768696 1001.73913 103.869217v816.261566c0 45.056-36.507826 81.608348-81.608347 81.608347H103.869217A81.608348 81.608348 0 0 1 22.26087 920.130783V103.869217C22.26087 58.813217 58.768696 22.26087 103.869217 22.26087h816.261566zM385.958957 233.73913H333.690435a8.726261 8.726261 0 0 0-8.637218 8.726261L325.008696 482.615652l-1.513739 0.445218a113.085217 113.085217 0 0 0-5.565218 212.190608l7.123478 2.537739v83.70087c0 4.808348 3.873391 8.726261 8.68174 8.726261H386.003478a8.681739 8.681739 0 0 0 8.637218-8.726261v-83.70087a113.085217 113.085217 0 0 0 1.513739-214.683826l-1.558261-0.534261V242.465391a8.726261 8.726261 0 0 0-8.592696-8.726261z m304.439652 90.067479a114.732522 114.732522 0 0 0-60.994783 2.359652l0.311652-0.133565-1.825391 0.578782a113.085217 113.085217 0 0 0-5.565217 212.190609l7.123478 2.537739v240.194783c0 4.808348 3.873391 8.726261 8.592695 8.726261h52.268522a8.681739 8.681739 0 0 0 8.637218-8.726261V541.384348a113.085217 113.085217 0 0 0 1.55826-214.728348l-2.31513-0.712348z m-331.019131 227.461565c0.890435 0 1.602783 0 2.493218 0.089043h0.667826c0.667826 0 1.29113 0.133565 1.958956 0.222609 0.222609 0 0.311652 0 0.534261 0.089044 0.801391 0.133565 1.647304 0.222609 2.359652 0.445217l0.534261 0.089043 1.914435 0.445218 0.623304 0.178087c0.801391 0.26713 1.558261 0.489739 2.270609 0.801391 0.801391 0.222609 1.424696 0.534261 2.226087 0.890435l0.623304 0.311652a13.089391 13.089391 0 0 1 1.78087 0.890435l0.400696 0.178087a20.21287 20.21287 0 0 1 2.092521 1.202087l0.445218 0.311652a7.524174 7.524174 0 0 1 1.469217 1.068522l0.534261 0.356174c0.667826 0.445217 1.335652 0.979478 1.869913 1.424695l1.78087 1.513739 0.400695 0.445218 1.335652 1.29113 0.311653 0.356174 1.513739 1.691826 0.311652 0.445218c0.445217 0.489739 0.75687 1.024 1.068522 1.55826l0.356173 0.534261 1.291131 1.958957c7.034435 11.798261 7.43513 26.267826 1.157565 38.333217-0.26713 0.667826-0.712348 1.335652-1.068522 1.958957l-1.335652 2.048-0.445217 0.534261-1.024 1.602782-0.311652 0.445218-1.558261 1.691826-2.003478 2.092521-1.78087 1.51374a20.925217 20.925217 0 0 1-1.825391 1.335652l-0.534261 0.445217c-0.578783 0.26713-1.068522 0.712348-1.558261 1.024l-0.445217 0.311652c-0.623304 0.445217-1.246609 0.801391-2.048 1.202087l-2.181566 1.113044-0.623304 0.311652-1.113044 0.445217-1.113043 0.445218-2.226087 0.756869-0.667826 0.222609a11.353043 11.353043 0 0 1-1.825391 0.445217l-0.534261 0.089044-2.448696 0.445217-0.534261 0.044522-1.958956 0.222609h-0.667826c-0.845913 0-1.558261 0.178087-2.493218 0.178087-0.845913 0-1.558261 0-2.448695-0.178087H356.173913a11.976348 11.976348 0 0 1-1.958956-0.222609c-0.178087 0-0.311652 0-0.48974-0.089044-0.801391-0.089043-1.647304-0.222609-2.404174-0.445217l-0.53426-0.089043-1.869913-0.445218-0.667827-0.178087a16.473043 16.473043 0 0 1-2.226086-0.801391c-0.801391-0.222609-1.469217-0.534261-2.226087-0.845913l-0.667827-0.311652a13.000348 13.000348 0 0 1-1.736347-0.890435l-0.445218-0.222609a20.21287 20.21287 0 0 1-2.092521-1.202087l-0.356174-0.311652c-0.534261-0.311652-1.113043-0.623304-1.558261-1.068522a1.335652 1.335652 0 0 0-0.534261-0.356174l-1.869913-1.335652a21.726609 21.726609 0 0 1-1.736348-1.602782l-0.445217-0.400696-1.291131-1.335652-0.311652-0.311652a21.726609 21.726609 0 0 1-1.513739-1.736348l-0.356174-0.445218a7.702261 7.702261 0 0 1-1.024-1.469217 1.335652 1.335652 0 0 0-0.400696-0.534261l-1.246608-2.003478a39.535304 39.535304 0 0 1-1.068522-38.377739c0.26713-0.623304 0.75687-1.335652 1.024-1.958957l1.335652-2.048 0.356174-0.534261 1.024-1.602782 0.356174-0.400696a16.250435 16.250435 0 0 1 1.558261-1.691826l0.26713-0.356174 1.335652-1.29113 0.445218-0.445218c0.489739-0.534261 1.068522-0.979478 1.691826-1.513739a20.925217 20.925217 0 0 1 1.869913-1.424695l0.534261-0.311653 1.558261-1.113043 0.445217-0.311652 2.048-1.202087 0.445217-0.222609c0.489739-0.311652 1.024-0.489739 1.691826-0.845913l0.667827-0.356174c0.75687-0.311652 1.424696-0.623304 2.226087-0.845913 0.712348-0.311652 1.469217-0.534261 2.226086-0.801391l0.667827-0.178087a11.353043 11.353043 0 0 1 1.825391-0.445218l0.534261-0.089043c0.801391-0.222609 1.647304-0.311652 2.448695-0.445217 0.178087 0 0.311652 0 0.48974-0.089044l1.958956-0.222609h0.712348l2.448696-0.089043z m306.843826-156.40487h0.667826a11.664696 11.664696 0 0 1 2.448696 0.311653c0.801391 0.089043 1.691826 0.222609 2.448696 0.445217l0.534261 0.089043 1.825391 0.445218 0.712348 0.178087a18.69913 18.69913 0 0 1 2.226087 0.801391c0.75687 0.222609 1.469217 0.534261 2.226087 0.845913l0.578782 0.311652c0.534261 0.26713 1.246609 0.534261 1.78087 0.890435 0.089043 0.089043 0.356174 0.089043 0.445217 0.222609a20.21287 20.21287 0 0 1 2.048 1.202087l0.445218 0.311652c0.534261 0.311652 1.068522 0.623304 1.513739 1.068522l0.534261 0.356174 1.869913 1.335652c0.489739 0.534261 1.202087 1.024 1.736347 1.602782l0.445218 0.400696 1.29113 1.335652 1.869913 2.048 0.267131 0.445218c0.445217 0.445217 0.75687 0.979478 1.068522 1.469217l0.356173 0.534261 1.335653 2.003478c6.945391 11.842783 7.346087 26.267826 1.068521 38.377739l-1.068521 1.958957-1.335653 2.048-0.311652 0.534261c-0.311652 0.534261-0.801391 0.979478-1.024 1.602782-0.178087 0-0.26713 0.222609-0.400695 0.400696-0.534261 0.623304-0.934957 1.157565-1.51374 1.691826l-0.311652 0.356174-1.335652 1.29113-0.445217 0.445218a17.185391 17.185391 0 0 1-1.691826 1.513739 20.925217 20.925217 0 0 1-1.869913 1.424695l-0.534261 0.311653-1.513739 1.113043-0.445218 0.311652-2.092522 1.202087c-0.044522 0.089043-0.311652 0.089043-0.445217 0.222609-0.489739 0.311652-1.024 0.489739-1.736348 0.845913l-0.623304 0.356174c-0.712348 0.311652-1.424696 0.623304-2.137044 0.845913l-2.270608 0.801391-0.712348 0.178087a11.353043 11.353043 0 0 1-1.825391 0.445218l-0.534261 0.089043c-0.75687 0.222609-1.647304 0.311652-2.359652 0.445217-0.26713 0-0.400696 0-0.534261 0.089044l-2.003479 0.222609h-0.667826l-2.448695 0.089043c-0.890435 0-1.647304 0-2.537739-0.089043h-0.623305a11.664696 11.664696 0 0 1-1.958956-0.222609c-0.222609 0-0.311652 0-0.534261-0.089044-0.801391-0.133565-1.691826-0.222609-2.448696-0.445217l-0.489739-0.089043-1.869913-0.445218-0.667826-0.178087-2.270609-0.801391c-0.75687-0.222609-1.424696-0.534261-2.181565-0.890435l-0.623304-0.311652a13.000348 13.000348 0 0 1-1.78087-0.890435c-0.089043-0.089043-0.356174-0.089043-0.445217-0.178087a20.21287 20.21287 0 0 1-2.048-1.202087l-0.445218-0.311652a9.839304 9.839304 0 0 1-1.513739-1.068522l-0.534261-0.356174a21.726609 21.726609 0 0 1-3.561739-2.982956l-0.445217-0.445217-1.335652-1.246609-0.311653-0.356174a21.726609 21.726609 0 0 1-1.55826-1.691826l-0.267131-0.445218a7.702261 7.702261 0 0 1-1.068522-1.55826l-0.356174-0.534261-1.335652-1.958957a39.535304 39.535304 0 0 1-1.068521-38.333217l1.068521-1.958957 1.335652-2.048 0.311653-0.534261c0.311652-0.534261 0.801391-1.068522 1.068521-1.602782 0.133565-0.044522 0.26713-0.311652 0.356174-0.445218 0.534261-0.623304 0.934957-1.113043 1.513739-1.691826l2.092522-2.092521 1.736348-1.51374a20.925217 20.925217 0 0 1 1.825391-1.335652l0.534261-0.445217 1.513739-1.024 0.445218-0.311652c0.667826-0.445217 1.335652-0.801391 2.092521-1.202087l2.181566-1.113044 0.623304-0.311652 2.181565-0.890435a18.69913 18.69913 0 0 1 2.226087-0.756869l0.712348-0.222609a11.353043 11.353043 0 0 1 1.869913-0.445217l0.489739-0.089044 2.404174-0.445217 0.534261-0.044522 2.003478-0.222609h0.623305c0.890435 0 1.647304-0.178087 2.537739-0.178087 0.845913 0 1.558261 0 2.448695 0.178087z m24.041739-161.124174H637.996522a8.726261 8.726261 0 0 0-8.637218 8.726261v83.70087l0.311653-0.133565 5.12-1.513739c7.034435-1.914435 14.336-3.116522 21.815652-3.606261l7.568695-0.267131c10.061913 0 19.945739 1.335652 29.339826 3.873392l4.630261 1.380173 0.75687 0.267131v-83.70087a8.726261 8.726261 0 0 0-8.681739-8.726261z" p-id="56333"></path></svg>