<?xml version="1.0" standalone="no"?><!DOCTYPE svg PUBLIC "-//W3C//DTD SVG 1.1//EN" "http://www.w3.org/Graphics/SVG/1.1/DTD/svg11.dtd"><svg class="icon" width="64px" height="64.00px" viewBox="0 0 1024 1024" version="1.1" xmlns="http://www.w3.org/2000/svg"><path d="M401.92 353.28c0.85504 0 1.71008 0.00512 2.56 0.02048V491.52h138.21952c0.01536 0.84992 0.02048 1.70496 0.02048 2.56 0 77.76256-63.03744 140.8-140.8 140.8S261.12 571.84256 261.12 494.08 324.15744 353.28 401.92 353.28zM435.2 322.58048c75.7248 1.35168 136.86784 62.4896 138.21952 138.21952H435.2zM426.0864 81.92a40.96 40.96 0 0 1 25.69728 9.0624l130.24256 104.91904a40.96 40.96 0 0 0 25.69728 9.0624H911.36a40.96 40.96 0 0 1 40.96 40.96V491.52h-51.2V256.16384h-293.39648a92.16 92.16 0 0 1-56.04352-18.9952l-1.77152-1.39264L422.4768 133.12H71.68v712.96h419.84v51.2H61.44a40.96 40.96 0 0 1-40.96-40.96V122.88a40.96 40.96 0 0 1 40.96-40.96h364.6464zM908.8 573.44c41.00096 0 74.24 33.23904 74.24 74.24s-33.23904 74.24-74.24 74.24a74.09664 74.09664 0 0 1-57.55392-27.3408l-126.1056 61.50144c1.24416 5.4784 1.89952 11.18208 1.89952 17.03936 0 9.12896-1.59232 17.88416-4.51584 26.0096l113.664 55.43936C852.04992 833.11616 877.5168 819.2 906.24 819.2c48.07168 0 87.04 38.96832 87.04 87.04s-38.96832 87.04-87.04 87.04-87.04-38.96832-87.04-87.04c0-6.54848 0.72192-12.928 2.09408-19.06176L702.6176 829.2864A76.52864 76.52864 0 0 1 650.24 849.92c-42.41408 0-76.8-34.38592-76.8-76.8 0-42.41408 34.38592-76.8 76.8-76.8 23.71584 0 44.91776 10.752 59.008 27.63776l126.72-61.80352c-0.9216-4.67968-1.408-9.5232-1.408-14.47424 0-41.00096 33.23904-74.24 74.24-74.24z m-2.56 281.6c-28.27776 0-51.2 22.92224-51.2 51.2s22.92224 51.2 51.2 51.2 51.2-22.92224 51.2-51.2-22.92224-51.2-51.2-51.2z m-256-122.88a40.96 40.96 0 1 0 0 81.92 40.96 40.96 0 0 0 0-81.92z m258.56-122.88a38.4 38.4 0 1 0 0 76.8 38.4 38.4 0 0 0 0-76.8z" /></svg>