<svg t="1694151303449" class="icon" viewBox="0 0 1024 1024" version="1.1" xmlns="http://www.w3.org/2000/svg" p-id="48366" width="200" height="200"><path d="M864.814545 128.465455H159.185455a30.626909 30.626909 0 0 0-30.72 30.72v705.62909c0 16.989091 13.730909 30.72 30.72 30.72h705.62909c16.989091 0 30.72-13.730909 30.72-30.72V159.185455a30.626909 30.626909 0 0 0-30.72-30.72z m-38.353454 697.995636H197.538909V197.538909h628.922182v628.922182z" p-id="48367"></path><path d="M347.089455 675.933091v73.821091c0 4.235636 3.444364 7.68 7.68 7.68h46.033454c4.189091 0 7.633455-3.444364 7.633455-7.68v-73.821091a101.189818 101.189818 0 0 1-61.346909 0z m61.346909-189.812364V274.245818a7.68 7.68 0 0 0-7.633455-7.68h-46.08a7.68 7.68 0 0 0-7.633454 7.68v211.874909a101.189818 101.189818 0 0 1 61.346909 0z" p-id="48368"></path><path d="M347.089455 675.933091a101.189818 101.189818 0 0 0 61.346909 0 99.746909 99.746909 0 1 0-61.346909 0z m0.09309-110.917818c0.279273-0.558545 0.698182-1.163636 0.93091-1.722182V563.2l1.163636-1.722182 0.325818-0.465454c0.279273-0.465455 0.651636-0.884364 0.930909-1.396364l0.279273-0.372364c0.465455-0.558545 0.884364-1.024 1.396364-1.489454l0.232727-0.325818 1.163636-1.117091 0.372364-0.418909c0.465455-0.465455 0.977455-0.837818 1.536-1.303273a18.432 18.432 0 0 1 1.629091-1.256727l0.465454-0.279273 1.396364-0.977455 0.372364-0.279272 1.815272-1.070546 0.372364-0.186182c0.465455-0.279273 0.930909-0.465455 1.536-0.744727l0.558545-0.325818c0.698182-0.279273 1.256727-0.558545 1.954909-0.744727 0.651636-0.279273 1.303273-0.465455 2.001455-0.698182l0.558545-0.186182a10.007273 10.007273 0 0 1 1.629091-0.372364l0.465455-0.093091c0.698182-0.186182 1.442909-0.279273 2.141091-0.372363 0.186182 0 0.279273 0 0.465454-0.093091l1.722182-0.186182h0.605091l2.187636-0.093091c0.744727 0 1.396364 0 2.187637 0.093091h0.605091c0.558545 0 1.117091 0.093091 1.722182 0.186182 0.186182 0 0.279273 0 0.465454 0.093091 0.698182 0.093091 1.442909 0.186182 2.094546 0.372363l0.465454 0.093091 1.675636 0.372364 0.558546 0.186182c0.698182 0.232727 1.349818 0.418909 2.001454 0.698182 0.698182 0.186182 1.256727 0.465455 1.95491 0.744727l0.558545 0.325818c0.465455 0.186182 1.070545 0.465455 1.536 0.744727l0.372364 0.186182a17.826909 17.826909 0 0 1 1.861818 1.070546l0.372363 0.279272c0.465455 0.279273 0.930909 0.558545 1.303273 0.930909l0.465455 0.325819c0.605091 0.372364 1.163636 0.837818 1.675636 1.256727l1.536 1.303273 0.372364 0.418909 1.163636 1.117091 0.279273 0.325818 1.349818 1.489454 0.279273 0.418909a6.795636 6.795636 0 0 1 0.930909 1.349819l0.325818 0.465454 1.117091 1.722182s0 0.093091 0.093091 0.093091a34.676364 34.676364 0 0 1 0.930909 33.745454c-0.232727 0.558545-0.605091 1.163636-0.930909 1.722182 0 0 0 0.093091-0.093091 0.093091l-1.117091 1.722182-0.325818 0.465455-0.930909 1.396363-0.279273 0.372364-1.396364 1.536-0.232727 0.279273-1.163636 1.163636-0.372364 0.372364-1.536 1.349818a18.432 18.432 0 0 1-1.629091 1.210182l-0.465454 0.325818c-0.512 0.279273-0.930909 0.651636-1.396364 0.930909l-0.372364 0.279273c-0.558545 0.418909-1.117091 0.698182-1.815272 1.070545l-0.372364 0.186182-1.536 0.791273-0.558545 0.279272c-0.698182 0.279273-1.256727 0.558545-1.95491 0.744728-0.651636 0.279273-1.303273 0.465455-2.001454 0.698181l-0.558546 0.186182a10.007273 10.007273 0 0 1-1.62909 0.372364l-0.465455 0.093091c-0.698182 0.186182-1.442909 0.279273-2.141091 0.372363-0.186182 0-0.279273 0-0.465454 0.093091l-1.722182 0.186182h-0.605091c-0.744727 0-1.396364 0.139636-2.187637 0.139636-0.744727 0-1.396364 0-2.187636-0.139636h-0.605091a10.565818 10.565818 0 0 1-1.722182-0.186182c-0.186182 0-0.279273 0-0.465454-0.093091-0.698182-0.093091-1.442909-0.186182-2.094546-0.372363l-0.465454-0.093091-1.675637-0.372364-0.558545-0.186182c-0.698182-0.186182-1.349818-0.418909-2.001455-0.698181-0.698182-0.186182-1.256727-0.465455-1.954909-0.744728l-0.558545-0.279272a11.450182 11.450182 0 0 1-1.536-0.791273l-0.372364-0.186182a17.826909 17.826909 0 0 1-1.861818-1.070545l-0.325818-0.279273c-0.465455-0.279273-0.977455-0.558545-1.396364-0.930909-0.139636-0.139636-0.232727-0.232727-0.465454-0.325818l-1.629091-1.210182a19.176727 19.176727 0 0 1-1.536-1.396364l-0.372364-0.325818-1.163636-1.163636-0.279273-0.279273a19.176727 19.176727 0 0 1-1.349818-1.536l-0.279273-0.418909a6.795636 6.795636 0 0 1-0.930909-1.303273c-0.093091-0.232727-0.186182-0.325818-0.325818-0.465455l-1.117091-1.768727v-0.093091a34.676364 34.676364 0 0 1-0.930909-33.745454zM615.563636 537.879273v211.874909c0 4.235636 3.444364 7.68 7.633455 7.68h46.08c4.189091 0 7.633455-3.444364 7.633454-7.68v-211.874909a101.189818 101.189818 0 0 1-61.346909 0z m61.346909-189.812364V274.245818a7.68 7.68 0 0 0-7.68-7.68h-46.033454a7.68 7.68 0 0 0-7.633455 7.68v73.821091a101.189818 101.189818 0 0 1 61.346909 0z" p-id="48369"></path><path d="M615.563636 537.879273a101.189818 101.189818 0 0 0 61.346909 0 99.746909 99.746909 0 1 0-61.346909 0z m0.093091-110.917818l0.930909-1.722182v-0.093091l1.163637-1.722182 0.279272-0.465455c0.279273-0.465455 0.698182-0.930909 0.93091-1.396363 0.139636-0.046545 0.232727-0.279273 0.325818-0.372364 0.465455-0.558545 0.837818-1.024 1.349818-1.536l0.279273-0.279273 1.163636-1.163636 0.372364-0.372364 1.536-1.349818a18.432 18.432 0 0 1 1.629091-1.210182l0.465454-0.325818 1.349818-0.930909 0.372364-0.279273c0.605091-0.418909 1.163636-0.698182 1.861818-1.070545 0.046545-0.093091 0.279273-0.093091 0.372364-0.186182l1.536-0.791273 0.558545-0.279272c0.651636-0.279273 1.256727-0.558545 1.908364-0.744728a16.523636 16.523636 0 0 1 2.001454-0.698181l0.605091-0.186182a10.007273 10.007273 0 0 1 1.629091-0.372364l0.465455-0.093091c0.651636-0.186182 1.442909-0.279273 2.094545-0.372363 0.232727 0 0.325818 0 0.465455-0.093091l1.768727-0.186182h0.558545c0.791273 0 1.442909-0.139636 2.234182-0.139636 0.744727 0 1.396364 0 2.187637 0.139636h0.558545c0.605091 0 1.163636 0.093091 1.722182 0.186182 0.186182 0 0.279273 0 0.465454 0.093091 0.698182 0.093091 1.489455 0.186182 2.141091 0.372363l0.465455 0.093091 1.629091 0.372364 0.605091 0.186182a16.523636 16.523636 0 0 1 2.001454 0.698181c0.651636 0.186182 1.256727 0.465455 1.908364 0.744728l0.558545 0.279272c0.465455 0.232727 1.070545 0.465455 1.536 0.791273 0.093091 0.093091 0.325818 0.093091 0.418909 0.186182a17.826909 17.826909 0 0 1 1.815273 1.070545l0.372364 0.279273c0.465455 0.279273 0.930909 0.558545 1.349818 0.930909l0.465455 0.325818 1.62909 1.210182c0.465455 0.418909 1.070545 0.884364 1.536 1.396364l0.372364 0.325818 1.163636 1.163636 0.279273 0.279273 1.396364 1.536 0.232727 0.418909a6.795636 6.795636 0 0 1 0.930909 1.303273l0.325818 0.465455 1.163637 1.768727v0.093091a34.676364 34.676364 0 0 1 0.930909 33.745454l-0.930909 1.722182V460.8l-1.163637 1.722182-0.279272 0.465454c-0.279273 0.465455-0.698182 0.884364-0.930909 1.396364-0.139636 0.046545-0.232727 0.232727-0.325819 0.372364-0.465455 0.558545-0.837818 1.024-1.349818 1.489454l-0.279273 0.325818-1.163636 1.117091-0.372364 0.418909c-0.465455 0.465455-0.930909 0.837818-1.536 1.303273a18.432 18.432 0 0 1-1.62909 1.256727l-0.465455 0.279273c-0.465455 0.325818-0.884364 0.698182-1.349818 0.977455l-0.372364 0.279272-1.861818 1.070546c-0.046545 0.093091-0.279273 0.093091-0.372364 0.186182-0.465455 0.279273-0.930909 0.465455-1.536 0.744727l-0.558545 0.325818c-0.651636 0.279273-1.256727 0.558545-1.908364 0.744727l-2.001454 0.698182-0.605091 0.186182a10.007273 10.007273 0 0 1-1.629091 0.372364l-0.465455 0.093091c-0.651636 0.186182-1.442909 0.279273-2.094545 0.372363-0.232727 0-0.325818 0-0.465455 0.093091l-1.768727 0.186182h-0.558545l-2.187637 0.093091c-0.791273 0-1.442909 0-2.234182-0.093091h-0.558545c-0.605091 0-1.163636-0.093091-1.722182-0.186182-0.186182 0-0.279273 0-0.465454-0.093091-0.698182-0.093091-1.489455-0.186182-2.141091-0.372363l-0.465455-0.093091-1.629091-0.372364-0.605091-0.186182-2.001454-0.698182c-0.651636-0.186182-1.256727-0.465455-1.908364-0.744727l-0.558545-0.325818a11.450182 11.450182 0 0 1-1.536-0.744727c-0.093091-0.093091-0.325818-0.093091-0.418909-0.186182a17.826909 17.826909 0 0 1-1.815273-1.070546l-0.372364-0.279272c-0.465455-0.279273-0.930909-0.558545-1.349818-0.930909l-0.465454-0.325819a19.176727 19.176727 0 0 1-3.165091-2.606545l-0.372364-0.372364-1.163636-1.117091-0.279273-0.325818a19.176727 19.176727 0 0 1-1.396364-1.489454l-0.232727-0.418909a6.795636 6.795636 0 0 1-0.930909-1.349819l-0.325818-0.465454-1.163637-1.722182v-0.093091a34.676364 34.676364 0 0 1-0.930909-33.745454z" p-id="48370"></path></svg>