<?xml version="1.0" standalone="no"?><!DOCTYPE svg PUBLIC "-//W3C//DTD SVG 1.1//EN" "http://www.w3.org/Graphics/SVG/1.1/DTD/svg11.dtd"><svg t="1672798156760" class="icon" viewBox="0 0 1024 1024" version="1.1" xmlns="http://www.w3.org/2000/svg" p-id="2179" xmlns:xlink="http://www.w3.org/1999/xlink" width="200" height="200"><path d="M519.872 62.144c135.36 0 245.504 108.928 245.504 242.816S655.36 547.84 519.808 547.84a246.464 246.464 0 0 1-100.48-21.12 243.2 243.2 0 0 1-145.024-221.696c0-133.888 110.08-242.816 245.504-242.816m0-61.952c-170.24 0-308.224 136.448-308.224 304.768 0 123.84 74.752 230.528 182.016 278.208 39.68 17.6 82.752 26.624 126.208 26.56 170.368 0 308.288-136.448 308.288-304.768 0-168.32-137.92-304.768-308.288-304.768z" p-id="2180"></path><path d="M512 610.688c242.24 0 439.488 182.912 448.768 411.968H1024c-9.28-262.4-234.88-472.32-512-472.32s-502.656 209.92-512 472.32h63.232C72.512 793.6 269.824 610.688 512 610.688z" p-id="2181"></path></svg>