<svg t="1671585442750" class="icon" viewBox="0 0 1024 1024" version="1.1" xmlns="http://www.w3.org/2000/svg" p-id="2697" width="200" height="200"><path d="M125.18528 348.48h533.12v78.208H124.73728L269.44128 581.44c9.216 9.92 12.8 24.32 9.472 37.76a37.952 37.952 0 0 1-25.856 27.712 35.008 35.008 0 0 1-35.328-10.176L10.75328 415.488A40.384 40.384 0 0 1 0.00128 387.84c0-10.368 3.84-20.288 10.752-27.648l206.976-221.184a34.88 34.88 0 0 1 51.264 0.448c14.08 15.104 14.336 39.488 0.448 54.848L125.18528 348.48zM1024.00128 739.52c0-215.936-163.712-391.04-365.696-391.04v78.208c161.6 0 292.544 140.096 292.544 312.896H1024.00128z m0 0h-73.152v117.376c0 21.568 16.384 39.104 36.608 39.104 20.16 0 36.544-17.536 36.544-39.104v-117.312z" p-id="2698"></path></svg>