<svg t="1689151645456" class="icon" viewBox="0 0 1024 1024" version="1.1" xmlns="http://www.w3.org/2000/svg" p-id="10180" width="200" height="200"><path d="M67.452148 765.583218a30.137242 30.137242 0 0 1 52.322075-29.864197l1.262829 2.218483a30.103111 30.103111 0 1 1-52.151422 30.103111l-1.433482-2.457397z m76.315825 101.777187a30.103111 30.103111 0 1 1 43.34575-41.809877 451.683194 451.683194 0 1 0-113.210908-204.441766 30.103111 30.103111 0 0 1-58.499697 14.437206 511.923548 511.923548 0 1 1 128.330724 231.882698v-0.068261z m368.575398-190.00456l-177.819967 93.449342a6.00697 6.00697 0 0 1-8.771542-6.314145l33.95986-198.02523-143.928369-140.310534a6.00697 6.00697 0 0 1 3.378921-10.239154l198.878492-28.908543 88.875853-180.140842a6.00697 6.00697 0 0 1 10.853503 0l88.875853 180.140842 198.878493 28.908543a6.00697 6.00697 0 0 1 3.310659 10.239154l-143.894238 140.310534 33.95986 198.02523a6.00697 6.00697 0 0 1-8.703281 6.314145l-177.854097-93.449342z" p-id="10181"></path></svg>