<?xml version="1.0" standalone="no"?><!DOCTYPE svg PUBLIC "-//W3C//DTD SVG 1.1//EN" "http://www.w3.org/Graphics/SVG/1.1/DTD/svg11.dtd"><svg class="icon" width="200px" height="200.00px" viewBox="0 0 1024 1024" version="1.1" xmlns="http://www.w3.org/2000/svg"><path d="M446.72 630.0672H288.768a39.5264 39.5264 0 0 0-39.424 39.3216c0 21.6064 17.7664 39.3216 39.424 39.3216h157.952c21.7088 0 39.424-17.7152 39.424-39.3216a39.424 39.424 0 0 0-39.424-39.3216z m128.4096-196.8128H288.768a39.5264 39.5264 0 0 0-39.424 39.3216c0 21.6064 17.7664 39.3216 39.424 39.3216h286.3616c21.7088 0 39.424-17.7152 39.424-39.3216a39.5264 39.5264 0 0 0-39.424-39.3216z m0-196.8128H288.768a39.5264 39.5264 0 0 0-39.424 39.3216c0 21.6064 17.7664 39.3216 39.424 39.3216h286.3616c21.7088 0 39.424-17.7152 39.424-39.3216a39.5264 39.5264 0 0 0-39.424-39.3216z"  /><path d="M812.1344 197.0176V157.696A158.208 158.208 0 0 0 654.1312 0.2048h-444.416A158.208 158.208 0 0 0 51.8144 157.696v708.608a158.208 158.208 0 0 0 158.0032 157.4912H812.032a158.208 158.208 0 0 0 157.952-157.4912V354.5088a158.0032 158.0032 0 0 0-157.8496-157.4912z m79.0016 669.2864c0 43.3152-35.5328 78.7456-79.0016 78.7456H209.7664a79.104 79.104 0 0 1-79.0016-78.7456V157.696c0-43.3152 35.5328-78.7456 79.0016-78.7456h444.416c43.4176 0 78.9504 35.4304 78.9504 78.7456v590.5408c0 21.6064 17.7664 39.3216 39.424 39.3216 21.7088 0 39.424-17.7152 39.424-39.3216V275.7632c43.52 0 79.0528 35.4304 79.0528 78.7456v511.7952h0.1024z"  /></svg>