<?xml version="1.0" standalone="no"?><!DOCTYPE svg PUBLIC "-//W3C//DTD SVG 1.1//EN" "http://www.w3.org/Graphics/SVG/1.1/DTD/svg11.dtd"><svg t="1672710658533" class="icon" viewBox="0 0 1024 1024" version="1.1" xmlns="http://www.w3.org/2000/svg" p-id="2382" xmlns:xlink="http://www.w3.org/1999/xlink" width="200" height="200"><path d="M973.76064 301.312l-411.52 151.68a120.384 120.384 0 0 1-81.728 0.512L53.31264 301.696a75.456 75.456 0 0 1 0-142.976L480.51264 6.912a120.32 120.32 0 0 1 81.728 0.512l411.52 151.68a75.456 75.456 0 0 1 0 142.208z m-26.88-72.832L535.55264 76.8a42.944 42.944 0 0 0-28.992-0.192L79.23264 228.48a1.408 1.408 0 0 0-1.28 1.728 1.408 1.408 0 0 0 1.28 1.728l427.2 151.808a42.624 42.624 0 0 0 28.992-0.192l411.456-151.616a1.408 1.408 0 0 0 1.28-1.6 1.408 1.408 0 0 0-1.28-1.92zM53.24864 780.16l452.032 163.776a46.72 46.72 0 0 0 32.192-0.192l435.456-163.52a37.76 37.76 0 1 1 26.816 70.72l-435.456 163.52a123.52 123.52 0 0 1-84.928 0.448L27.26464 851.264a37.76 37.76 0 1 1 25.92-71.04zM521.21664 741.12a122.88 122.88 0 0 1-41.856-7.36L27.39264 570.112a37.888 37.888 0 1 1 25.856-71.104l452.032 163.712a46.912 46.912 0 0 0 32.192-0.192l435.456-163.52a37.76 37.76 0 1 1 26.816 70.72l-435.456 163.52c-13.76 5.12-28.352 7.808-43.008 7.808z" p-id="2383"></path></svg>