<?xml version="1.0" encoding="UTF-8"?>
<svg width="16px" height="16px" viewBox="0 0 16 16" version="1.1" xmlns="http://www.w3.org/2000/svg" xmlns:xlink="http://www.w3.org/1999/xlink">
    <g id="跳转备份-4" stroke="none" stroke-width="1" >
        <g id="编组-48" >
            <rect id="矩形" opacity="0" x="0" y="0" width="16" height="16"></rect>
            <path d="M11.9360284,1.20223066 C12.9717991,1.20223066 13.7977693,2.08573627 13.7977693,3.16130465 L13.7971204,9.08523066 L14.9138796,9.08612035 L14.9138796,13 C14.9138796,14.0573016 14.0573016,14.9138796 13,14.9138796 L3,14.9138796 C1.94269837,14.9138796 1.08612035,14.0573016 1.08612035,13 L1.08612035,9.08612035 L2.20212035,9.08523066 L2.20223066,5.26666562 C2.20223066,4.17580474 3.04709474,3.28298675 4.11825919,3.20741252 L4.26567167,3.20223066 L5.18312035,3.20123066 L5.1837136,3.16130465 C5.1837136,2.13695884 5.93290349,1.28681004 6.89898259,1.20816627 L7.04545459,1.20223066 L11.9360284,1.20223066 Z M4.18269567,10.2470838 L2.24713689,10.2470838 L2.24713689,13 C2.24713689,13.4016958 2.56113521,13.7294592 2.95725462,13.751586 L3,13.7527766 L13,13.7527766 C13.4160421,13.7527766 13.7527766,13.4160421 13.7527766,13 L13.7527766,10.2470838 L11.8239148,10.2470838 L11.8127913,10.2822653 C11.5625315,11.0198375 10.8749136,11.555174 10.0585281,11.5796744 L10,11.5805515 L6,11.5805515 C5.78335447,11.5805515 5.57261898,11.5436955 5.37492564,11.4745471 L5.1837136,11.4725986 L5.18257585,11.3951542 C4.94803459,11.2829087 4.73741532,11.1228867 4.56451232,10.9239148 L4.45901104,10.7927171 L4.37112035,10.6612307 L4.2827766,10.5144433 L4.28255053,10.4974176 L4.25890257,10.4491003 L4.22640744,10.3787336 C4.2097812,10.3399477 4.19823325,10.30499 4.18819743,10.2677286 L4.18269567,10.2470838 Z M11.9360284,2.13111309 L7.04545459,2.13111309 C6.53720196,2.13111309 6.11259603,2.58529251 6.11259603,3.16130465 L6.11212035,10.4192307 L10,10.4194485 C10.0323135,10.4194485 10.0641485,10.417417 10.0953847,10.4134748 C10.2022984,10.3619164 10.3192102,10.3009276 10.4320626,10.2378196 C10.4785505,10.2118232 10.5234614,10.1859678 10.5662456,10.1605895 C10.6827504,10.0296209 10.7527766,9.8563906 10.7527766,9.66667187 L10.7527766,9.08612035 L12.8291204,9.08523066 L12.8686754,9.08319406 L12.8688869,3.16130465 C12.8688869,2.60274081 12.469634,2.15875059 11.9819941,2.13235501 L11.9360284,2.13111309 Z M5.00034444,4.13108956 L4.26567167,4.13108956 C3.63878302,4.13108956 3.13111309,4.63909859 3.13111309,5.26666562 L3.13012035,9.08523066 L5.00012035,9.08523066 L5.00034444,4.13108956 Z" id="形状结合"></path>
            <path d="M7.83332812,3.66667187 L11.5,3.66667187 C11.7766719,3.66667187 12,3.89 12,4.16667187 C12,4.44334375 11.7766719,4.66667187 11.5,4.66667187 L7.83332812,4.66667187 C7.55667187,4.66667187 7.33332812,4.44332812 7.33332812,4.16667187 C7.33332812,3.89001562 7.55667187,3.66667187 7.83332812,3.66667187 Z" id="路径"></path>
            <path d="M7.33332812,6.16667187 C7.33332812,5.89 7.55667187,5.66667187 7.83332812,5.66667187 L11.5,5.66667187 C11.7766719,5.66667187 12,5.89 12,6.16667187 C12,6.44334375 11.7766719,6.66667187 11.5,6.66667187 L7.83332812,6.66667187 C7.55667187,6.66667187 7.33332812,6.44332812 7.33332812,6.16667187 Z" id="路径"></path>
        </g>
    </g>
</svg>