<?xml version="1.0" standalone="no"?><!DOCTYPE svg PUBLIC "-//W3C//DTD SVG 1.1//EN" "http://www.w3.org/Graphics/SVG/1.1/DTD/svg11.dtd"><svg t="1680055093840" class="icon" viewBox="0 0 1024 1024" version="1.1" xmlns="http://www.w3.org/2000/svg" p-id="4364" xmlns:xlink="http://www.w3.org/1999/xlink" width="200" height="200"><path d="M767.491637 596.296264c23.516989 0 42.560638 19.107554 42.560638 42.624543v127.809723h127.809723a42.624543 42.624543 0 1 1 0 85.18518h-127.809723v127.809724a42.624543 42.624543 0 1 1-85.185181 0v-127.809724h-127.809723a42.624543 42.624543 0 1 1 0-85.18518h127.809723v-127.809723c0-23.516989 19.043649-42.624543 42.624543-42.624543zM298.941191 340.740722h127.809724c28.373759 0 42.560638 14.186879 42.560637 42.624543 0 28.373759-14.186879 42.560638-42.624542 42.560638h-127.809724C270.567433 425.925903 256.380553 411.739024 256.380553 383.42917c0-28.437663 14.186879-42.624543 42.624543-42.624543z m0 170.370361H596.993466c28.437663 0 42.624543 14.250784 42.624543 42.624543 0 28.373759-14.186879 42.560638-42.624543 42.560638H298.941191c-28.437663 0-42.624543-14.186879-42.624542-42.560638 0-28.373759 14.186879-42.624543 42.624542-42.624543z m0 170.434266h127.809724c28.373759 0 42.560638 14.186879 42.560637 42.560638 0 28.373759-14.186879 42.624543-42.624542 42.624543h-127.809724c-28.373759 0-42.560638-14.250784-42.560637-42.624543 0-28.373759 14.186879-42.560638 42.624542-42.560638z" p-id="4365"></path><path d="M639.681914 0c9.33011 0 18.468505 3.067433 25.881469 8.754966l4.281625 3.706482 206.732228 206.732227a63.904862 63.904862 0 0 1 18.4046 38.918061l0.255619 6.262677v246.73667a42.624543 42.624543 0 0 1-84.865656 4.98458l-0.319524-4.98458V340.740722h-191.714585a63.904862 63.904862 0 0 1-63.521433-57.769995l-0.319524-6.134866V85.185181H128.57083v851.851805h384.962887c21.599843 0 39.812729 16.16793 42.305018 37.703869l0.25562 4.920674a42.624543 42.624543 0 0 1-37.576059 42.305018l-4.984579 0.319525H107.226606a63.904862 63.904862 0 0 1-63.585337-57.769995l-0.255619-6.134867V63.904862A63.904862 63.904862 0 0 1 101.09174 0.319524L107.226606 0h532.455308z m152.732619 255.619447l-152.732619-152.73262V255.619447h152.732619z" p-id="4366"></path></svg>