<?xml version="1.0" standalone="no"?><!DOCTYPE svg PUBLIC "-//W3C//DTD SVG 1.1//EN" "http://www.w3.org/Graphics/SVG/1.1/DTD/svg11.dtd"><svg t="1691372814129" class="icon" viewBox="0 0 1024 1024" version="1.1" xmlns="http://www.w3.org/2000/svg" p-id="11067" xmlns:xlink="http://www.w3.org/1999/xlink" width="200" height="200"><path d="M632 888h-240A8 8 0 0 0 384 896v32a32 32 0 0 0 32 32h192a32 32 0 0 0 32-32V896a8 8 0 0 0-8-8zM512 64a328.064 328.064 0 0 0-164.032 612.096v115.904a32 32 0 0 0 32 32h264a32 32 0 0 0 32-32v-115.84A328.064 328.064 0 0 0 512 64z m127.872 549.76l-35.84 20.864v117.376H419.968V634.624l-35.84-20.8a256 256 0 1 1 255.808 0z" p-id="11068"></path></svg>