<svg t="1699861873900" class="icon" viewBox="0 0 1024 1024" version="1.1" xmlns="http://www.w3.org/2000/svg" p-id="8305" width="200" height="200"><path d="M284.551392 901.122714a27.903093 27.903093 0 0 1-13.951546-3.71188l-171.834416-99.196776A82.749311 82.749311 0 0 1 57.614768 726.728381a27.903093 27.903093 0 1 1 55.806186 0c0 9.53569 5.119834 18.431401 13.375565 23.167247l122.236027 70.589706a696.29737 696.29737 0 0 1-3.263893-67.709799c0-143.931322 43.902573-281.782842 127.035871-398.707042A691.497526 691.497526 0 0 1 644.219703 128.027839L525.439563 59.422069a26.815129 26.815129 0 0 0-26.75113 0L328.965949 157.338886a27.903093 27.903093 0 1 1-27.903094-48.318429l169.594489-97.916818c25.53517-14.719522 57.150143-14.719522 82.557317 0l167.930542 96.892851a27.903093 27.903093 0 0 1-4.351859 50.366363 635.563344 635.563344 0 0 0-298.486299 228.088587 628.459575 628.459575 0 0 0-116.796204 366.324095c0 38.78274 3.519886 77.629477 10.495659 115.452248a27.903093 27.903093 0 0 1-27.455108 32.958928zM85.453863 451.857315a27.903093 27.903093 0 0 1-27.903093-27.903094v-126.715881c0-29.375045 15.807486-56.766155 41.21466-71.421679l113.596308-65.597868a27.903093 27.903093 0 1 1 27.967091 48.31843L126.732521 274.135091a26.815129 26.815129 0 0 0-13.439563 23.167247v126.651883c0 15.359501-12.415596 27.903093-27.839095 27.903094z" p-id="8306"></path><path d="M734.712762 903.874624a27.903093 27.903093 0 0 1-13.951547-52.030309l176.506264-101.948687a26.815129 26.815129 0 0 0 13.439563-23.167247V582.925055c-17.663426 12.415596-35.838835 24.063218-54.526228 34.878866a683.817776 683.817776 0 0 1-410.482659 89.085105 691.305533 691.305533 0 0 1-332.341199-123.707979v143.547334c0 9.53569 5.119834 18.431401 13.375565 23.167247l171.770418 99.196776a27.903093 27.903093 0 1 1-27.903093 48.31843l-171.834416-99.196776A82.749311 82.749311 0 0 1 57.614768 726.728381V526.350894a27.903093 27.903093 0 0 1 45.886508-21.311308 635.499346 635.499346 0 0 0 347.7007 146.363243 628.459575 628.459575 0 0 0 377.139743-81.917337 638.699242 638.699242 0 0 0 92.285001-64.765895 27.903093 27.903093 0 0 1 45.886508 21.375305v200.633479c0 29.439043-15.807486 56.830153-41.278658 71.485677l-176.506264 101.948687a27.775097 27.775097 0 0 1-13.951546 3.711879z" p-id="8307"></path><path d="M512 1023.99872a82.557317 82.557317 0 0 1-41.278658-11.007642L359.044971 948.481174a27.903093 27.903093 0 1 1 27.903093-48.318429l111.676371 64.509903a26.815129 26.815129 0 0 0 26.75113 0l106.684533-61.629997a27.903093 27.903093 0 1 1 27.967091 48.31843l-106.748531 61.629997A82.685313 82.685313 0 0 1 512 1023.99872z m222.712762-120.124096a27.839095 27.839095 0 0 1-27.39111-33.086925 635.563344 635.563344 0 0 0-44.734546-377.587728 628.139585 628.139585 0 0 0-260.727526-288.438626 639.08323 639.08323 0 0 0-96.508864-45.438523 27.903093 27.903093 0 0 1-4.223863-50.366363l169.594489-97.916818c25.471172-14.719522 57.086145-14.719522 82.557316 0l167.866545 96.956849a27.903093 27.903093 0 1 1-27.903093 48.31843L525.375565 59.422069a26.815129 26.815129 0 0 0-26.75113 0l-120.956069 69.757733c17.727424 8.383728 35.134858 17.471432 52.094307 27.263114a683.625782 683.625782 0 0 1 283.766777 313.909798 691.817516 691.817516 0 0 1 57.086145 352.628539l126.715882-73.085625a26.815129 26.815129 0 0 0 13.311567-23.103249 27.903093 27.903093 0 1 1 55.806186 0c0 29.375045-15.807486 56.766155-41.21466 71.421679l-176.570262 101.948687a27.903093 27.903093 0 0 1-13.951546 3.711879z m203.833375-452.209303a27.903093 27.903093 0 0 1-27.903093-27.903093V297.302338a26.815129 26.815129 0 0 0-13.375565-23.167247l-115.06826-66.429841a27.903093 27.903093 0 1 1 27.903093-48.31843l115.132258 66.429841c25.407174 14.719522 41.214661 42.046633 41.21466 71.485677V423.69823c0 15.423499-12.479594 27.903093-27.903093 27.903093z" p-id="8308"></path></svg>