<svg t="1699861688731" class="icon" viewBox="0 0 1024 1024" version="1.1" xmlns="http://www.w3.org/2000/svg" p-id="7262" width="200" height="200"><path d="M54.4 317.312v389.376c0 43.776 23.296 84.288 61.056 106.176l335.424 194.688c37.76 21.952 84.416 21.952 122.176 0l335.488-194.688c37.76-22.016 61.056-62.464 60.992-106.24V317.376c0-43.712-23.168-84.16-60.992-106.176L572.992 16.448a121.664 121.664 0 0 0-122.112 0L115.52 211.2c-37.824 21.952-61.12 62.4-61.056 106.112z m57.6 6.976c0-27.52 14.592-53.056 38.272-66.752L473.792 69.76a76.16 76.16 0 0 1 76.48 0l323.456 187.776c23.68 13.696 38.272 39.168 38.272 66.752v375.424c0 27.52-14.592 53.056-38.272 66.752L550.208 954.24a76.16 76.16 0 0 1-76.48 0l-323.392-187.776a77.12 77.12 0 0 1-38.4-66.752V324.288z" p-id="7263"></path><path d="M216.768 361.344l250.624 146.24c11.712 8.832 27.392 8.832 43.072 8.832 15.68 0 31.36-4.416 43.072-8.832l250.624-146.24c23.488-13.248 23.488-35.456 0-48.704L553.536 166.4a126.336 126.336 0 0 0-43.072-8.832c-15.68 0-31.36 4.416-43.072 8.832L216.768 312.64c-23.488 13.248-23.488 35.456 0 48.704zM487.04 219.584c7.808-4.48 15.68-4.48 23.488-4.48s19.584 4.48 23.488 4.48l207.552 119.68-207.552 119.552c-3.904 4.48-11.776 4.48-23.488 4.48-7.808 0-19.584-4.48-23.488-4.48L279.424 339.2 487.04 219.52z" p-id="7264"></path><path d="M208.96 523.008l246.656 141.76c15.68 8.832 35.264 13.312 54.848 13.312 19.584 0 39.168-4.48 54.784-13.312l246.72-141.76c7.808-4.48 15.68-22.208 7.808-35.456-7.808-13.312-19.584-22.144-31.36-13.312L541.824 616c-19.584 8.896-50.88 8.896-66.56 0L228.544 474.24c-7.872-8.832-15.68-8.832-23.488 0-3.968 8.832-7.872 17.728-7.872 26.56 0 13.312 3.904 17.728 11.776 22.208z" p-id="7265"></path><path d="M823.68 660.352c-7.808-13.312-19.52-22.208-31.296-13.312l-246.656 141.76c-19.584 8.896-50.944 8.896-66.56 0L232.384 647.04c-7.872-4.48-23.488 4.48-31.36 13.312-7.808 8.832-3.84 26.56 7.872 35.392l246.656 141.824c15.68 8.832 35.264 13.248 54.848 13.248 19.584 0 39.168-4.416 58.752-13.248l246.656-141.824c7.872-4.416 15.68-22.144 7.872-35.392z" p-id="7266"></path></svg>