<?xml version="1.0" standalone="no"?><!DOCTYPE svg PUBLIC "-//W3C//DTD SVG 1.1//EN" "http://www.w3.org/Graphics/SVG/1.1/DTD/svg11.dtd"><svg t="1720001352891" class="icon" viewBox="0 0 1024 1024" version="1.1" xmlns="http://www.w3.org/2000/svg" p-id="98349" xmlns:xlink="http://www.w3.org/1999/xlink" width="16" height="16"><path d="M102.4 0h819.2c68.2496 0 102.4 34.1504 102.4 102.4v819.2c0 68.2496-34.1504 102.4-102.4 102.4H102.4c-68.2496 0-102.4-34.1504-102.4-102.4V102.4C0 34.1504 34.1504 0 102.4 0z" p-id="98350"></path><path d="M716.8 256v145.5104h-106.0864V361.984H415.3856l101.9392 137.728-101.888 137.5744h195.2768v-39.5264H716.8v145.6128H204.8L385.2288 499.712 204.8 256z" fill="#FFFFFF" p-id="98351"></path><path d="M610.6624 547.8912c-11.776 0-19.8144-5.1712-20.48-13.2608H563.2c0.4096 21.4016 18.176 34.6624 46.2336 34.6624 29.184 0 46.848-14.0288 46.848-37.2224 0-17.6128-9.8816-27.5456-31.7952-31.744l-14.336-2.7648c-11.776-2.3552-16.64-5.888-16.64-11.9296 0-7.424 6.5536-12.0832 16.4352-12.0832s17.408 5.4784 18.0224 13.312h26.112c-0.4096-20.5824-18.432-34.6624-44.4928-34.6624-26.7776 0-44.1856 14.2336-44.1856 35.9936 0 17.4592 10.4448 28.5696 30.8224 32.4096l14.592 2.9184c12.7488 2.56 17.5616 5.8368 17.5616 11.9808 0 7.2704-7.168 12.3904-17.7152 12.3904zM870.4 542.976h-47.2064V455.168h-28.2624v111.104H870.4v-23.296z m-147.1488 26.3168c6.9632 0 13.4144-1.024 19.3024-2.8672l6.5536 9.984h26.2656l-13.6704-21.504c10.3936-9.8304 16.2816-25.1392 16.2816-44.2368 0-36.096-21.3504-58.5216-54.6816-58.5216-33.28 0-54.784 22.3232-54.784 58.5216 0 36.352 21.1968 58.624 54.784 58.624z m0-93.6448c15.5648 0 26.0096 13.6704 26.0096 35.0208a36.864 36.864 0 0 1-4.9664 19.968l-2.56-3.3792h-24.064l11.5712 17.8176a26.7776 26.7776 0 0 1-6.0416 0.7168c-15.616 0-26.0096-13.568-26.0096-35.1232 0.0512-21.504 10.4448-35.0208 26.112-35.0208z" fill="#FFFFFF" p-id="98352"></path></svg>