<?xml version="1.0" standalone="no"?><!DOCTYPE svg PUBLIC "-//W3C//DTD SVG 1.1//EN" "http://www.w3.org/Graphics/SVG/1.1/DTD/svg11.dtd"><svg t="1682662311706" class="icon" viewBox="0 0 1024 1024" version="1.1" xmlns="http://www.w3.org/2000/svg" p-id="5566" xmlns:xlink="http://www.w3.org/1999/xlink" width="200" height="200"><path d="M377.463 374.893a26.488 26.488 0 0 0 19.604 8.64c6.408 0 12.943-2.38 17.97-7.013 10.932-10.016 11.56-26.92 1.633-37.687l-107.066-116.57c-10.053-11.018-29.28-11.018-39.333 0l-107.193 116.57c-10.053 10.893-9.299 27.796 1.634 37.687 10.933 10.017 27.772 9.266 37.825-1.627l60.822-66.11v410.933l-60.822-66.11c-10.053-10.893-26.892-11.519-37.825-1.627-10.933 10.016-11.561 26.92-1.634 37.687l107.193 116.57 0.377 0.375c0.754 0.751 1.759 1.503 2.639 2.254l1.508 1.252c1.005 0.751 2.136 1.252 3.392 1.878 0.377 0.25 0.754 0.5 1.257 0.751 1.382 0.626 2.89 1.002 4.398 1.378l0.754 0.25c1.76 0.376 3.519 0.626 5.404 0.626 1.885 0 3.77-0.25 5.404-0.626l0.754-0.25c1.508-0.376 3.016-0.752 4.398-1.378 0.377-0.125 0.754-0.5 1.257-0.626 1.13-0.626 2.261-1.127 3.392-1.878 0.503-0.376 1.006-0.751 1.508-1.252l2.64-2.254 0.376-0.375 107.193-116.57c10.053-10.892 9.299-27.796-1.634-37.687-10.933-10.017-27.772-9.265-37.825 1.628l-60.822 66.11v-411.06l60.822 66.11zM832.75 349h-337.5C478 349 464 335.112 464 318c0-17.112 14-31 31.25-31h337.5C850 287 864 300.888 864 318c0 17.112-14 31-31.25 31z m3 195h-337.5C481 544 467 530.112 467 513c0-17.112 14-31 31.25-31h337.5C853 482 867 495.888 867 513c0 17.112-14 31-31.25 31z m0 192h-337.5C481 736 467 722.112 467 705c0-17.112 14-31 31.25-31h337.5C853 674 867 687.888 867 705c0 17.112-14 31-31.25 31z" p-id="5567"></path></svg>