<svg t="1694072234127" class="icon" viewBox="0 0 1024 1024" version="1.1" xmlns="http://www.w3.org/2000/svg" p-id="6631" width="200" height="200"><path d="M875.793067 670.9248a22.391467 22.391467 0 0 1 31.197866 0.750933l57.1392 58.504534a21.7088 21.7088 0 0 1-15.9744 37.000533h-26.897066a251.221333 251.221333 0 0 1-77.824 120.2176 258.730667 258.730667 0 0 1-274.705067 38.7072 254.1568 254.1568 0 0 1-108.612267-94.0032 32.3584 32.3584 0 0 1 10.513067-44.919467 33.792 33.792 0 0 1 45.738667 9.898667c18.568533 28.8768 44.8512 52.224 76.049066 67.447467a191.146667 191.146667 0 0 0 196.061867-17.544534c27.921067-20.48 49.5616-48.059733 62.464-79.872h-22.9376a22.459733 22.459733 0 0 1-20.548267-13.7216 21.572267 21.572267 0 0 1 5.3248-23.893333l63.010134-58.5728zM819.473067 473.9072c34.269867 16.1792 64.512 39.594667 88.337066 68.676267a32.631467 32.631467 0 0 1-16.247466 52.087466 33.792 33.792 0 0 1-35.293867-10.717866 187.733333 187.733333 0 0 0-72.157867-53.6576 191.146667 191.146667 0 0 0-175.035733 13.585066 187.1872 187.1872 0 0 0-62.6688 64.1024h24.9856c8.533333 0 16.384 4.778667 20.138667 12.4928a21.572267 21.572267 0 0 1-2.935467 23.278934l-1.979733 2.048-63.010134 58.436266a22.3232 22.3232 0 0 1-29.149866 1.024l-2.048-1.774933-57.207467-58.436267a21.7088 21.7088 0 0 1 13.448533-36.932266l2.525867-0.136534h21.230933A252.177067 252.177067 0 0 1 566.408533 492.885333a258.525867 258.525867 0 0 1 253.064534-18.909866z" p-id="6632"></path><path d="M496.503467 930.952533H132.437333c-39.7312 0-66.218667-26.555733-66.218666-66.423466V132.983467c0-39.867733 26.487467-66.491733 66.218666-66.491734h595.831467c39.7312 0 66.218667 26.624 66.218667 66.491734v232.789333c0 19.8656 13.243733 33.245867 33.041066 33.245867 19.933867 0 33.109333-13.380267 33.109334-33.245867v-232.789333A133.12 133.12 0 0 0 728.200533 0H132.437333A133.12 133.12 0 0 0 0 132.983467v731.5456a133.12 133.12 0 0 0 132.437333 132.983466h364.066134c19.797333 0 33.1776-13.312 33.1776-33.314133 0-19.8656-13.312-33.245867-33.1776-33.245867z" p-id="6633"></path><path d="M231.697067 266.0352c-19.797333 0-33.109333 13.243733-33.109334 33.245867 0 19.933867 13.312 33.1776 33.109334 33.1776h397.312c19.797333 0 33.041067-13.243733 33.041066-33.1776 0-20.002133-13.243733-33.245867-33.109333-33.245867H231.697067z m198.656 199.4752h-198.656c-19.797333 0-33.109333 13.312-33.109334 33.245867s13.312 33.245867 33.109334 33.245866h198.656c19.797333 0 33.041067-13.312 33.041066-33.245866s-13.175467-33.245867-33.109333-33.245867z" p-id="6634"></path></svg>