<?xml version="1.0" standalone="no"?><!DOCTYPE svg PUBLIC "-//W3C//DTD SVG 1.1//EN" "http://www.w3.org/Graphics/SVG/1.1/DTD/svg11.dtd"><svg t="1679629215753" class="icon" viewBox="0 0 1024 1024" version="1.1" xmlns="http://www.w3.org/2000/svg" p-id="8036" xmlns:xlink="http://www.w3.org/1999/xlink" width="200" height="200"><path d="M459 854C241.155 854 64 676.845 64 459S241.155 64 459 64s395 177.255 395 395c0 102.474-39.19 199.65-110.272 273.63l-39.99-38.39c61.185-63.583 94.776-147.162 94.776-235.24 0-187.253-152.361-339.514-339.514-339.514-187.153 0-339.614 152.261-339.614 339.514 0 187.253 152.361 339.514 339.514 339.514 65.983 0 130.067-18.995 185.253-55.086l30.292 46.388C610.362 831.906 535.781 854 459 854z m348.816 71c-18.482 0-35.865-7.209-48.953-20.324L616 761.506l28.573-18.723c21.579-14.117 41.56-30.737 59.443-49.359L723.596 673 856.77 806.459c26.975 27.032 26.975 71.085 0 98.117C843.782 917.79 826.4 925 807.816 925zM703 769.946l95.5 96.044c3.488 3.509 7.575 4.01 9.768 4.01 2.193 0 6.28-0.501 9.77-4.01 5.283-5.314 5.283-14.337 0-19.65L724.232 752c-6.878 6.216-13.956 12.231-21.233 17.946zM570.828 560c-8.394 0-16.388-3.8-21.584-10.4l-41.57-52H471.1c-12.591 0-23.583-8.4-26.78-20.6l-23.084-86.7-23.083 86.7c-3.198 12.1-14.19 20.6-26.781 20.6H221.68c-15.289 0-27.68-12.4-27.68-27.7 0-15.3 12.391-27.7 27.68-27.7h128.307l44.368-166.6c3.198-12.1 14.19-20.6 26.781-20.6 12.59 0 23.583 8.4 26.78 20.6l44.369 166.6h28.579c8.394 0 16.388 3.8 21.584 10.4l28.28 35.3 28.28-35.3c5.296-6.6 13.19-10.4 21.584-10.4h99.728c15.289 0 27.68 12.4 27.68 27.7 0 15.3-12.391 27.7-27.68 27.7h-86.438l-41.57 52c-5.096 6.6-13.09 10.4-21.484 10.4z" p-id="8037"></path></svg>