<?xml version="1.0" standalone="no"?><!DOCTYPE svg PUBLIC "-//W3C//DTD SVG 1.1//EN" "http://www.w3.org/Graphics/SVG/1.1/DTD/svg11.dtd"><svg t="1687656952290" class="icon" viewBox="0 0 1024 1024" version="1.1" xmlns="http://www.w3.org/2000/svg" p-id="4666" xmlns:xlink="http://www.w3.org/1999/xlink" width="200" height="200"><path d="M434.112 250.432l339.456 339.456-173.632 246.848a42.688 42.688 0 0 1-65.088 5.632l-61.312-61.376v-130.88H342.656L181.632 489.152a42.688 42.688 0 0 1 5.632-65.088l246.848-173.632z m38.4-27.008l66.112-46.528a42.688 42.688 0 0 1 54.72 4.736l89.152 89.152 93.76-93.76c8.32-8.32 21.824-8.32 30.144 0l35.2 35.2a21.312 21.312 0 0 1 0 30.144l-93.76 93.76 94.528 94.528c14.656 14.72 16.64 37.76 4.736 54.72l-46.528 66.112-328.128-328.064z" p-id="4667"></path></svg>