<svg t="1694312109510" class="icon" viewBox="0 0 1024 1024" version="1.1" xmlns="http://www.w3.org/2000/svg" p-id="12660" width="200" height="200"><path d="M10.816 548.864a35.968 35.968 0 0 1 0-51.2v-0.064l256-255.808a36.224 36.224 0 1 1 51.2 51.2l-230.4 230.272 230.4 230.208a36.16 36.16 0 1 1-51.2 51.2l-256-255.744zM582.4 92.16a36.48 36.48 0 1 1 70.528 18.88l-226.688 846.08a36.48 36.48 0 1 1-70.528-18.88L582.464 92.16z m429.184 456.704l-256 255.808a36.16 36.16 0 1 1-51.2-51.2l230.4-230.208-230.4-230.272a36.224 36.224 0 0 1 51.2-51.2l256 255.808a35.968 35.968 0 0 1 0 51.2v0.064z" p-id="12661"></path></svg>