<svg t="1693979994609" class="icon" viewBox="0 0 1024 1024" version="1.1" xmlns="http://www.w3.org/2000/svg" p-id="41807" width="200" height="200"><path d="M877.649716 0H146.274953C65.823729 0 0 65.823729 0 146.274953v585.09981c0 80.451224 65.823729 146.274953 146.274953 146.274953h146.274952l150.955751 137.64473A42.639149 42.639149 0 0 0 511.962334 981.066107V877.649716h365.687382c80.451224 0 146.274953-65.823729 146.274952-146.274953V146.274953c0-80.451224-65.823729-146.274953-146.274952-146.274953z m73.137476 731.374763a73.137476 73.137476 0 0 1-73.137476 73.137476H511.962334a72.918064 72.918064 0 0 0-73.137476 73.137477v34.374614l-96.980294-88.423209A73.283751 73.283751 0 0 0 292.549905 804.512239H146.274953a73.137476 73.137476 0 0 1-73.137477-73.137476V146.274953a73.137476 73.137476 0 0 1 73.137477-73.137477h731.374763a73.137476 73.137476 0 0 1 73.137476 73.137477v585.09981zM477.002621 529.661603c0 22.745755 12.213959 34.155201 36.568738 34.155202 24.427917 0 36.568738-11.409446 36.568738-34.155202V214.000256c0-22.745755-12.140821-34.155201-36.568738-34.155202-24.35478 0-36.568738 11.409446-36.568738 34.155202v315.661347z m0 131.428045c1.901574 20.478493 14.115533 30.71774 36.568738 30.71774 22.526343 0 34.740301-10.239247 36.568738-30.71774-1.828437-20.478493-14.042395-31.59539-36.568738-33.277551-22.453205 1.682162-34.667164 12.799058-36.568738 33.277551z" p-id="41808"></path></svg>