<?xml version="1.0" standalone="no"?><!DOCTYPE svg PUBLIC "-//W3C//DTD SVG 1.1//EN" "http://www.w3.org/Graphics/SVG/1.1/DTD/svg11.dtd"><svg t="1703037520997" class="icon" viewBox="0 0 1024 1024" version="1.1" xmlns="http://www.w3.org/2000/svg" p-id="15109" xmlns:xlink="http://www.w3.org/1999/xlink" width="200" height="200"><path d="M378.88 138.24c68.7616 0 127.62624 42.35776 151.93088 102.4H1024v122.88h-493.18912C506.50112 423.57248 447.63648 465.92 378.88 465.92c-68.7616 0-127.62112-42.35264-151.93088-102.4H0V240.64h226.94912C251.25376 180.59776 310.1184 138.24 378.88 138.24zM645.12 558.08c68.7616 0 127.62624 42.35776 151.93088 102.4H1024v122.88h-226.94912c-24.30976 60.04736-83.1744 102.4-151.93088 102.4-68.7616 0-127.62112-42.35264-151.93088-102.4H0v-122.88h493.18912c24.30464-60.04224 83.16928-102.4 151.93088-102.4z" p-id="15110"></path></svg>