<?xml version="1.0" standalone="no"?><!DOCTYPE svg PUBLIC "-//W3C//DTD SVG 1.1//EN" "http://www.w3.org/Graphics/SVG/1.1/DTD/svg11.dtd"><svg t="1693638875070" class="icon" viewBox="0 0 1024 1024" version="1.1" xmlns="http://www.w3.org/2000/svg" p-id="24388" xmlns:xlink="http://www.w3.org/1999/xlink" width="200" height="200"><path d="M1019.392 301.568h-480.768c-14.848-75.264-81.408-132.096-160.768-132.096S231.936 226.816 217.088 301.568H5.632v64h211.456c14.848 75.264 81.408 132.096 160.768 132.096s145.92-56.832 160.768-132.096h480.768V301.568zM377.856 436.224c-56.32 0-102.4-46.08-102.4-102.4s46.08-102.4 102.4-102.4 102.4 46.08 102.4 102.4-46.08 102.4-102.4 102.4zM1019.392 720.384h-211.456c-14.848-75.264-81.408-131.584-160.768-131.584S501.76 645.632 486.912 720.384h-481.28v64H486.4c14.848 75.264 81.408 132.096 160.768 132.096s145.92-56.832 160.768-132.096h211.456v-64zM647.168 855.04c-56.32 0-102.4-46.08-102.4-102.4s46.08-102.4 102.4-102.4 102.4 46.08 102.4 102.4-45.568 102.4-102.4 102.4z" p-id="24389"></path></svg>