<svg t="1673507939206" class="icon" viewBox="0 0 1024 1024" version="1.1" xmlns="http://www.w3.org/2000/svg" p-id="2498" width="200" height="200"><path d="M860.524983 0.682212L1023.317788 112.863424 852.764823 213.873418l2.558295-70.608928c-84.935376-1.620253-154.776815 30.102598-211.698868 95.637575a304.778148 304.778148 0 0 0-16.671552 20.978015c-35.688208 49.247169-47.669554 90.691539-55.344437 181.08461l-5.116589 69.287142-2.643571 32.362425-1.407062 14.710193-2.984677 27.16056c-1.108594 8.655563-2.259827 16.97002-3.496335 25.156562l-4.13591 24.218521c-0.72485 4.007995-1.534977 8.058628-2.345103 12.109261l-5.457695 24.986009c-0.98068 4.263824-2.003997 8.655563-3.112591 13.132578-36.157229 148.295803-149.105929 219.373751-329.678881 211.4004a106.595603 106.595603 0 1 1-4.60493-57.561625l-5.542972-0.341106c162.792805 10.65956 254.209194-44.343771 284.098601-167.013991l5.628248-24.261159 4.647568-23.024651 2.003998-11.427048 3.581612-23.28048 1.577615-12.151899 2.856762-26.009327 2.643571-29.164557 2.558295-33.471019 1.279147-18.67555c8.399734-123.352432 20.764823-176.863424 68.519653-242.782145a361.998668 361.998668 0 0 1 19.784144-24.900733c68.519654-78.880746 154.947368-117.553631 257.151233-115.37908L860.524983 0.682212zM106.595603 821.468354a53.297801 53.297801 0 1 0 0 106.595603 53.297801 53.297801 0 0 0 0-106.595603z" p-id="2499"></path></svg>