<?xml version="1.0" standalone="no"?><!DOCTYPE svg PUBLIC "-//W3C//DTD SVG 1.1//EN" "http://www.w3.org/Graphics/SVG/1.1/DTD/svg11.dtd"><svg class="icon" width="200px" height="200.00px" viewBox="0 0 1024 1024" version="1.1" xmlns="http://www.w3.org/2000/svg"><path d="M808.96 74.496h-52.352c0-41.472-33.856-74.368-76.48-74.368H352.64c-42.624 0-76.48 32.896-76.48 74.368h-61.184a152.32 152.32 0 0 0-107.008 42.56 148.928 148.928 0 0 0-43.648 104.064v653.44c0 39.296 16.32 76.416 44.736 104.064a151.68 151.68 0 0 0 105.92 42.496h595.008c81.92-1.024 149.632-66.944 149.632-147.648V221.12c0.128-80.768-67.52-146.56-150.592-146.56z m-467.328 0c0-6.4 4.352-10.624 10.944-10.624h327.552c6.592 0 10.88 4.224 10.88 10.624v106.304c0 6.4-4.288 10.624-10.88 10.624H352.64c-6.592 0-10.88-4.224-10.88-10.624v-106.24z m552.512 798.976c0 45.76-38.208 82.88-85.12 82.88H215.04c-46.976 0-85.12-37.12-85.12-82.88V221.12c0-45.696 38.144-82.816 85.12-82.816h61.184v42.496c0 41.472 33.856 74.368 76.48 74.368h327.552c42.624 0 76.48-32.896 76.48-74.368v-42.496h51.328c48 0 85.12 37.12 85.12 82.816v652.352h0.96z"  /><path d="M700.928 403.84a31.872 31.872 0 0 0-22.912 9.6L453.12 631.296 353.728 534.528a30.72 30.72 0 0 0-22.912-8.448 36.16 36.16 0 0 0-22.848 8.448 30.976 30.976 0 0 0-1.088 44.544l123.328 120a30.72 30.72 0 0 0 22.912 8.448c8.704 0 16.32-3.2 22.912-8.448l1.024-1.024 246.784-240.128a30.08 30.08 0 0 0 0-44.544 33.536 33.536 0 0 0-22.912-9.472z"  /></svg>