<?xml version="1.0" standalone="no"?><!DOCTYPE svg PUBLIC "-//W3C//DTD SVG 1.1//EN" "http://www.w3.org/Graphics/SVG/1.1/DTD/svg11.dtd"><svg t="1682390354715" class="icon" viewBox="0 0 1024 1024" version="1.1" xmlns="http://www.w3.org/2000/svg" p-id="5574" xmlns:xlink="http://www.w3.org/1999/xlink" width="200" height="200"><path d="M831 65H191c-17.7 0-32 14.244-32 31.875V320h704V96.875C863 79.245 848.7 65 831 65zM289.5 233c-21.824 0-39.5-17.676-39.5-39.5s17.676-39.5 39.5-39.5 39.5 17.676 39.5 39.5-17.676 39.5-39.5 39.5zM159 930.875c0 17.77 14.3 32.125 32 32.125h640c17.7 0 32-14.356 32-32.125V706H159v224.875zM289.5 793c21.824 0 39.5 17.676 39.5 39.5S311.324 872 289.5 872 250 854.324 250 832.5s17.676-39.5 39.5-39.5zM159 640h704V383H159v257z m130.5-166c21.824 0 39.5 17.676 39.5 39.5S311.324 553 289.5 553 250 535.324 250 513.5s17.676-39.5 39.5-39.5z" p-id="5575"></path></svg>