<?xml version="1.0" standalone="no"?><!DOCTYPE svg PUBLIC "-//W3C//DTD SVG 1.1//EN" "http://www.w3.org/Graphics/SVG/1.1/DTD/svg11.dtd"><svg t="1699322526403" class="icon" viewBox="0 0 1024 1024" version="1.1" xmlns="http://www.w3.org/2000/svg" p-id="25907" xmlns:xlink="http://www.w3.org/1999/xlink" width="64" height="64"><path d="M961.92 60.544v150.272H60.608V60.544h901.44m30.08-60.096H30.464a30.08 30.08 0 0 0-30.08 30.08v210.304a30.08 30.08 0 0 0 30.08 30.08H992a30.08 30.08 0 0 0 30.08-30.08V30.528a30.08 30.08 0 0 0-30.08-30.08z" p-id="25908"></path><path d="M961.92 421.12v150.272H60.608V421.12h901.44m30.08-60.096H30.464a30.08 30.08 0 0 0-30.08 30.08v210.304a30.08 30.08 0 0 0 30.08 30.08H992a30.08 30.08 0 0 0 30.08-30.08V391.104a30.08 30.08 0 0 0-30.08-30.08z" p-id="25909"></path><path d="M961.92 781.696v150.208H60.608v-150.208h901.44m30.08-60.16H30.464a30.08 30.08 0 0 0-30.08 30.08v210.368a30.08 30.08 0 0 0 30.08 30.08H992a30.08 30.08 0 0 0 30.08-30.08v-210.368a30.08 30.08 0 0 0-30.08-30.08zM270.912 120.64H180.736a30.08 30.08 0 0 0 0 60.16h90.176a30.08 30.08 0 0 0 0-60.16zM270.912 481.28H180.736a30.08 30.08 0 0 0 0 60.032h90.176a30.08 30.08 0 0 0 0-60.096z" p-id="25910"></path><path d="M270.912 841.792H180.736a30.08 30.08 0 1 0 0 60.096h90.176a30.08 30.08 0 1 0 0-60.16z" p-id="25911"></path></svg>