<?xml version="1.0" standalone="no"?><!DOCTYPE svg PUBLIC "-//W3C//DTD SVG 1.1//EN" "http://www.w3.org/Graphics/SVG/1.1/DTD/svg11.dtd"><svg t="1687238381756" class="icon" viewBox="0 0 1024 1024" version="1.1" xmlns="http://www.w3.org/2000/svg" p-id="13609" xmlns:xlink="http://www.w3.org/1999/xlink" width="200" height="200"><path d="M512 102.08c156.224 0 292.288 41.792 363.008 103.616 33.088 28.928 51.84 62.08 51.84 97.408v455.808C926.848 869.952 741.12 960 512 960s-414.848-90.048-414.848-201.088V303.104c0-35.328 18.752-68.48 51.84-97.408C219.712 143.872 355.776 102.016 512 102.016zM148.992 410.88v355.392c0 48.704 162.56 144.704 363.008 144.704 200.512 0 363.008-96 363.008-144.704V425.6c0-63.36-93.248 70.592-363.008 70.592S148.992 362.24 148.992 410.88zM512 155.648c-52.672 0-103.552 4.992-151.36 14.72a513.344 513.344 0 0 0-119.936 39.04c-31.36 15.232-56.384 32.96-72.448 51.328-12.8 14.72-19.264 28.928-19.264 42.368 0 13.504 6.464 27.776 19.264 42.24 16 18.368 41.088 36.096 72.448 51.264a513.28 513.28 0 0 0 119.936 39.04c47.808 9.856 98.752 14.72 151.36 14.72 52.608 0 103.552-4.864 151.36-14.72a509.44 509.44 0 0 0 119.936-39.04c31.36-15.168 56.384-32.896 72.448-51.2 12.8-14.656 19.264-28.864 19.264-42.368 0-13.44-6.464-27.648-19.264-42.304-16-18.368-41.088-36.096-72.448-51.264a513.344 513.344 0 0 0-119.936-39.04A755.392 755.392 0 0 0 512 155.712z" p-id="13610"></path></svg>