<?xml version="1.0" standalone="no"?><!DOCTYPE svg PUBLIC "-//W3C//DTD SVG 1.1//EN" "http://www.w3.org/Graphics/SVG/1.1/DTD/svg11.dtd"><svg t="1683942194579" class="icon" viewBox="0 0 1024 1024" version="1.1" xmlns="http://www.w3.org/2000/svg" p-id="6373" xmlns:xlink="http://www.w3.org/1999/xlink" width="200" height="200"><path d="M1023.872043 511.82939q0 12.582473-0.639787 25.122293-0.597134 12.53982-1.834055 25.036987-1.279573 12.497168-3.070977 24.951683-1.876708 12.411863-4.307897 24.738421-2.473842 12.326558-5.544819 24.525158-2.985671 12.155948-6.653782 24.183939t-7.890703 23.885371q-4.265245 11.814728-9.042319 23.458847-4.819727 11.558814-10.193935 22.947018-5.374209 11.345551-11.302899 22.435188t-12.369211 21.838054q-6.483172 10.79107-13.435521 21.24092-6.995002 10.44985-14.501833 20.515828-7.464179 10.10863-15.440186 19.833389-7.976008 9.682106-16.421193 19.022992-8.445185 9.298234-17.316895 18.169944-8.871709 8.914362-18.212595 17.316894-9.298234 8.445185-19.022993 16.421193-9.682106 7.976008-19.790736 15.482839-10.10863 7.464179-20.558481 14.45918-10.44985 6.952349-21.198267 13.435522-10.79107 6.44052-21.880706 12.36921-11.089637 5.92869-22.435189 11.302899t-22.98967 10.193935q-11.601466 4.777074-23.458847 9.04232-11.814728 4.222592-23.842719 7.84805-12.027991 3.668111-24.183939 6.696435-12.1986 3.070976-24.525158 5.544818-12.36921 2.43119-24.73842 4.265245-12.454515 1.834055-24.951683 3.070976-12.53982 1.279573-25.07964 1.834056-12.53982 0.639787-25.122293 0.639786-12.53982 0-25.122292-0.639786-12.53982-0.597134-25.036988-1.834056-12.497168-1.236921-24.951683-3.070976-12.411863-1.834055-24.73842-4.265245-12.36921-2.473842-24.525159-5.544818-12.1986-3.028324-24.226591-6.696435-12.027991-3.625458-23.885371-7.84805-11.814728-4.265245-23.416195-9.04232-11.601466-4.819727-22.947018-10.236588-11.388204-5.331556-22.47784-11.260246t-21.838054-12.36921q-10.79107-6.483172-21.24092-13.435522-10.44985-6.995002-20.515828-14.501833-10.10863-7.464179-19.833389-15.440186-9.724758-7.976008-19.022992-16.421193-9.298234-8.402532-18.212596-17.316894-8.871709-8.871709-17.316894-18.169944-8.445185-9.340886-16.421193-19.022992-7.976008-9.724758-15.440187-19.833389-7.506831-10.065978-14.501833-20.515828-6.952349-10.44985-13.392869-21.24092-6.483172-10.748417-12.36921-21.838054-5.971343-11.089637-11.345552-22.435188-5.374209-11.388204-10.151282-22.98967-4.819727-11.601466-9.04232-23.458847-4.265245-11.814728-7.890703-23.842719-3.668111-12.027991-6.696434-24.183939-3.070976-12.1986-5.544819-24.525158-2.43119-12.326558-4.265245-24.738421-1.834055-12.454515-3.070976-24.951683-1.279573-12.497168-1.876708-25.036987Q0 524.411863 0 511.82939t0.597134-25.122292q0.639787-12.53982 1.876708-25.036988 1.236921-12.497168 3.070976-24.951683 1.834055-12.411863 4.265245-24.73842 2.473842-12.326558 5.544819-24.525159 3.028324-12.1986 6.696434-24.183938 3.625458-12.027991 7.890703-23.885372 4.222592-11.814728 9.04232-23.458847 4.777074-11.558814 10.151282-22.947018 5.374209-11.345551 11.302899-22.435188 5.971343-11.089637 12.369211-21.838054 6.483172-10.79107 13.478174-21.24092 6.952349-10.44985 14.45918-20.515828 7.464179-10.10863 15.440187-19.833388 7.976008-9.682106 16.421193-19.022993 8.445185-9.298234 17.316894-18.169943 8.914362-8.914362 18.212596-17.316894 9.298234-8.445185 19.022992-16.421193t19.833389-15.440187q10.065978-7.506831 20.515828-14.501833 10.44985-6.952349 21.24092-13.435521 10.79107-6.44052 21.838054-12.369211 11.089637-5.92869 22.47784-11.302899 11.345551-5.374209 22.947018-10.193935 11.601466-4.777074 23.458847-9.042319 11.814728-4.222592 23.885372-7.848051Q375.341553 18.340553 387.497501 15.354882q12.1986-3.070976 24.525158-5.544819 12.326558-2.43119 24.738421-4.265245 12.454515-1.834055 24.951682-3.070976 12.497168-1.279573 25.036988-1.876708 12.582473-0.597134 25.164945-0.597134 12.53982 0 25.07964 0.597134 12.53982 0.639787 25.07964 1.876708 12.497168 1.236921 24.909031 3.070976 12.454515 1.834055 24.73842 4.265245 12.36921 2.473842 24.567811 5.544819 12.155948 3.028324 24.183939 6.696434 12.027991 3.625458 23.885371 7.848051 11.814728 4.265245 23.458847 9.042319 11.601466 4.819727 22.947018 10.236588 11.345551 5.331556 22.435188 11.260246t21.880707 12.369211q10.748417 6.483172 21.198267 13.435521 10.44985 6.995002 20.55848 14.501833 10.10863 7.464179 19.790737 15.440187 9.724758 7.976008 19.022992 16.421193 9.340886 8.402532 18.212596 17.316894 8.871709 8.871709 17.316894 18.169943 8.445185 9.340886 16.421193 19.022993 7.976008 9.724758 15.482839 19.833388 7.464179 10.065978 14.459181 20.515828 6.952349 10.44985 13.435521 21.24092 6.44052 10.748417 12.36921 21.838054 5.971343 11.089637 11.302899 22.435188 5.374209 11.388204 10.193936 22.989671 4.819727 11.601466 9.042319 23.458847 4.265245 11.814728 7.890703 23.842719 3.625458 11.985338 6.696434 24.183938 3.028324 12.1986 5.502166 24.525159 2.43119 12.326558 4.265245 24.73842 1.876708 12.454515 3.113629 24.951683 1.236921 12.497168 1.834055 25.036988 0.639787 12.53982 0.639787 25.122292z" fill="#126EE3" fill-opacity=".2" p-id="6374"></path><path d="M814.832389 473.740753q0 8.274575-0.426524 16.591803-0.383872 8.274575-1.194269 16.54915-0.810397 8.274575-2.047317 16.463845-1.194269 8.231923-2.815062 16.378541-1.620793 8.146618-3.625458 16.207931-2.047318 8.061313-4.435855 15.994668-2.43119 7.933356-5.203599 15.781406-2.815062 7.805398-5.971343 15.482839-3.198934 7.677441-6.739087 15.184272-3.582806 7.506831-7.464178 14.843053-3.924025 7.293569-8.18927 14.416527t-8.914362 14.075309q-4.606465 6.867044-9.554149 13.520826-4.947684 6.696435-10.236588 13.094302-5.246251 6.397867-10.833722 12.582472-5.544818 6.141953-11.430856 12.027991-5.886038 5.886038-12.027991 11.473509-6.141953 5.544818-12.582472 10.833722-6.397867 5.246251-13.094302 10.236588-6.653782 4.905032-13.563479 9.511496-6.909697 4.649117-14.075308 8.914362-7.080307 4.265245-14.416528 8.18927-7.336221 3.881373-14.843053 7.464179-7.506831 3.540153-15.184271 6.696434-7.677441 3.198934-15.48284 5.971343-7.805398 2.815062-15.781406 5.246251-7.933356 2.388537-15.994668 4.393203-8.061313 2.047318-16.207931 3.66811-8.146618 1.620793-16.37854 2.815062-8.18927 1.236921-16.463846 2.047317t-16.54915 1.236922q-8.317228 0.426524-16.634455 0.426524-8.274575 0-16.591803-0.426524-8.274575-0.426524-16.54915-1.279574-8.274575-0.767744-16.506498-2.004665-8.18927-1.194269-16.335888-2.815062-8.146618-1.620793-16.207931-3.66811-8.061313-2.004665-15.994668-4.393203-7.976008-2.43119-15.781406-5.203598-7.805398-2.815062-15.482839-5.971343-7.677441-3.198934-15.184272-6.739087-7.506831-3.582806-14.843053-7.464179-7.336221-3.924025-14.45918-8.18927-7.122959-4.265245-14.032656-8.914362-6.909697-4.606465-13.563479-9.554149-6.696435-4.947684-13.094301-10.236587-6.397867-5.246251-12.582473-10.79107-6.141953-5.587471-12.027991-11.473509-5.886038-5.886038-11.430856-12.027991-5.587471-6.141953-10.876375-12.582472-5.246251-6.397867-10.236587-13.094302-4.905032-6.653782-9.554149-13.563479-4.606465-6.909697-8.871709-14.032656-4.265245-7.122959-8.189271-14.416527-3.924025-7.336221-7.464178-14.843053-3.540153-7.506831-6.739087-15.184272-3.156281-7.677441-5.971343-15.482839-2.772409-7.848051-5.203599-15.781406-2.388537-7.933356-4.435855-15.994668-2.004665-8.061313-3.625458-16.207931-1.620793-8.146618-2.857714-16.378541-1.194269-8.18927-2.004665-16.463845-0.853049-8.274575-1.236921-16.54915-0.426524-8.317228-0.426525-16.634455 0-8.274575 0.426525-16.591803 0.426524-8.274575 1.236921-16.54915 0.810397-8.274575 2.004665-16.463846 1.236921-8.231923 2.857714-16.37854 1.620793-8.103965 3.625458-16.207931 2.047318-8.01866 4.435855-15.994668 2.43119-7.933356 5.203599-15.781407 2.815062-7.805398 5.971343-15.482839 3.198934-7.677441 6.739087-15.184272t7.464178-14.800399q3.924025-7.336221 8.189271-14.459181 4.265245-7.122959 8.871709-14.032655 4.649117-6.909697 9.596801-13.563479 4.947684-6.696435 10.236588-13.094302 5.246251-6.397867 10.833722-12.582473 5.544818-6.141953 11.430856-12.02799 5.886038-5.843386 12.027991-11.430857 6.141953-5.587471 12.582473-10.876374 6.397867-5.246251 13.094301-10.193936 6.653782-4.947684 13.563479-9.554148t14.075309-8.87171q7.080307-4.265245 14.416527-8.18927 7.336221-3.924025 14.843053-7.464179 7.506831-3.582806 15.184272-6.739087 7.677441-3.198934 15.482839-5.971342 7.805398-2.815062 15.781406-5.203599 7.933356-2.43119 15.994668-4.435855 8.061313-2.004665 16.207931-3.625458 8.103965-1.620793 16.335888-2.857714 8.231923-1.236921 16.506498-2.047318t16.54915-1.194268q8.317228-0.426524 16.634455-0.426525 8.274575 0 16.591803 0.426525 8.274575 0.426524 16.54915 1.194268 8.274575 0.853049 16.463846 2.047318 8.231923 1.236921 16.37854 2.857714 8.146618 1.620793 16.207931 3.625458 8.061313 2.004665 15.994668 4.435855 7.976008 2.388537 15.781406 5.203599 7.805398 2.772409 15.48284 5.971342 7.677441 3.156281 15.184271 6.739087 7.506831 3.540153 14.843053 7.464179 7.336221 3.881373 14.45918 8.18927 7.122959 4.265245 14.032656 8.87171 6.909697 4.606465 13.563479 9.554148t13.094302 10.236588q6.397867 5.246251 12.582472 10.833722 6.141953 5.544818 12.027991 11.430857 5.886038 5.886038 11.430856 12.02799 5.587471 6.141953 10.876375 12.582473 5.246251 6.397867 10.236587 13.094302 4.905032 6.653782 9.511497 13.563479 4.649117 6.909697 8.914362 14.032655 4.265245 7.122959 8.18927 14.459181 3.881373 7.293569 7.464178 14.800399 3.540153 7.506831 6.696435 15.184272 3.198934 7.677441 5.971343 15.525492 2.815062 7.805398 5.246251 15.781406 2.388537 7.933356 4.435855 15.952016 2.004665 8.103965 3.625458 16.207931 1.620793 8.146618 2.815062 16.37854 1.236921 8.18927 2.047317 16.463846 0.853049 8.274575 1.236921 16.54915 0.426524 8.317228 0.426525 16.634455z" fill="#126EE3" fill-opacity=".3" p-id="6375"></path><path d="M811.548151 521.127624q0 7.165611-0.383872 14.288571-0.426524 7.122959-1.194269 14.245918-0.853049 7.122959-2.047318 14.160613-1.194269 7.080307-2.772409 14.075308-1.620793 7.037654-3.625458 13.947351-2.004665 6.952349-4.393202 13.776741-2.388537 6.824392-5.118294 13.563479-2.815062 6.739087-5.971343 13.307564-3.113629 6.61113-6.653782 13.051649-3.497501 6.483172-7.378874 12.795735-3.881373 6.26991-8.103965 12.411863-4.265245 6.141953-8.829057 12.070643-4.563812 5.971343-9.468844 11.686771-4.862379 5.715428-10.10863 11.260247-5.203599 5.544818-10.748417 10.791069-5.544818 5.288904-11.345552 10.364545-5.800733 5.032989-11.900033 9.810064-6.0993 4.819727-12.454515 9.383539-6.355215 4.52116-12.966345 8.786404-6.61113 4.265245-13.435521 8.18927-6.824392 4.00933-13.904699 7.677441-7.037654 3.668111-14.28857 7.037654-7.250916 3.369543-14.715095 6.397868-7.421526 3.070976-15.013662 5.800733-7.592136 2.729757-15.354882 5.118294-7.762746 2.43119-15.610797 4.521159-7.890703 2.047318-15.866711 3.796068-7.976008 1.706098-16.037321 3.113629-8.103965 1.407531-16.20793 2.473842-8.103965 1.023659-16.335888 1.706098-8.18927 0.725092-16.378541 1.066311-8.231923 0.34122-16.463845 0.34122-8.18927 0-16.421193-0.34122t-16.421193-1.023658q-8.18927-0.725092-16.293236-1.748751-8.146618-1.066311-16.20793-2.473842-8.103965-1.364878-16.037321-3.113629-8.01866-1.706098-15.866711-3.83872-7.890703-2.047318-15.610797-4.435855-7.762746-2.43119-15.354881-5.118294-7.592136-2.772409-15.056315-5.843385-7.421526-3.028324-14.672442-6.397868-7.250916-3.412196-14.288571-7.037654-7.080307-3.668111-13.904698-7.677441-6.824392-3.966678-13.435522-8.18927-6.61113-4.265245-12.966344-8.786404-6.397867-4.563812-12.454516-9.383539-6.0993-4.777074-11.942685-9.810064-5.800733-5.075641-11.345552-10.364545t-10.705765-10.791069q-5.246251-5.544818-10.151283-11.260247-4.905032-5.758081-9.468843-11.686771-4.563812-5.971343-8.786405-12.070643-4.265245-6.141953-8.103965-12.411863-3.881373-6.312562-7.378874-12.795735-3.540153-6.44052-6.696434-13.051649-3.156281-6.568477-5.886038-13.307564-2.772409-6.739087-5.160947-13.563479-2.388537-6.824392-4.393202-13.776741-2.004665-6.909697-3.625458-13.947351-1.578141-6.995002-2.815062-14.075308-1.194269-7.037654-2.004665-14.160613t-1.194268-14.245918q-0.426524-7.122959-0.426525-14.288571 0-7.122959 0.426525-14.28857 0.426524-7.122959 1.194268-14.245918 0.810397-7.080307 2.004665-14.160614 1.236921-7.080307 2.815062-14.075308 1.620793-6.995002 3.625458-13.947351 2.004665-6.909697 4.393202-13.776741 2.388537-6.824392 5.118294-13.563479 2.772409-6.696435 5.971343-13.307564 3.113629-6.61113 6.653782-13.051649 3.497501-6.483172 7.378874-12.795735 3.83872-6.26991 8.103965-12.36921 4.265245-6.184605 8.786405-12.113296 4.563812-5.971343 9.468843-11.686771T217.527491 336.527824q5.203599-5.544818 10.705765-10.79107 5.544818-5.288904 11.345551-10.364545 5.843386-5.032989 11.942686-9.810063 6.056648-4.819727 12.454515-9.383539 6.355215-4.52116 12.966345-8.786404 6.568477-4.265245 13.435521-8.189271 6.824392-3.966678 13.904698-7.67744 7.037654-3.668111 14.288571-7.037655 7.250916-3.369543 14.672442-6.397867 7.464179-3.070976 15.056315-5.800733 7.592136-2.729757 15.354882-5.118294 7.720093-2.43119 15.610796-4.52116 7.848051-2.047318 15.866711-3.796068 7.976008-1.706098 16.037321-3.113628 8.061313-1.407531 16.207931-2.43119 8.103965-1.066311 16.293235-1.74875 8.18927-0.725092 16.421193-1.066312t16.421193-0.341219q8.231923 0 16.463846 0.341219 8.18927 0.34122 16.37854 1.066312 8.18927 0.682439 16.335888 1.706098 8.103965 1.066311 16.207931 2.473842 8.103965 1.364878 16.037321 3.113628 7.976008 1.706098 15.866711 3.838721 7.848051 2.047318 15.610796 4.478507 7.762746 2.388537 15.354882 5.118294t15.013662 5.800733q7.464179 3.028324 14.715095 6.397867 7.250916 3.412196 14.288571 7.037655 7.080307 3.710763 13.904698 7.67744t13.435521 8.189271q6.61113 4.265245 12.966345 8.829057 6.397867 4.52116 12.454515 9.298234 6.0993 4.819727 11.942686 9.852715 5.800733 5.075641 11.302899 10.364545 5.544818 5.288904 10.748417 10.79107 5.246251 5.544818 10.108631 11.260247 4.905032 5.758081 9.468843 11.686771 4.606465 5.971343 8.829057 12.070643 4.222592 6.141953 8.103966 12.454515 3.83872 6.26991 7.378873 12.753082 3.540153 6.44052 6.653782 13.05165 3.156281 6.61113 5.971343 13.307564 2.729757 6.739087 5.118294 13.563479 2.388537 6.824392 4.393203 13.776741 2.004665 6.952349 3.625458 13.947351 1.578141 6.995002 2.772409 14.075308 1.236921 7.080307 2.047317 14.160613 0.810397 7.122959 1.194269 14.245918 0.426524 7.165611 0.426525 14.288571z" fill="#126EE3" fill-opacity=".4" p-id="6376"></path><path d="M801.311563 568.557148q0 5.971343-0.383872 11.942685t-1.151616 11.942686q-0.810397 5.971343-1.962013 11.857381-1.194269 5.886038-2.729757 11.772076-1.535488 5.843386-3.497501 11.644119-1.91936 5.800733-4.265245 11.516161-2.303232 5.715428-4.990336 11.345551t-5.715428 11.174942q-3.070976 5.544818-6.483173 10.919027-3.412196 5.416861-7.165611 10.663112-3.753416 5.288904-7.848051 10.407198t-8.530489 10.10863q-4.435855 4.990337-9.170277 9.810064-4.777074 4.777074-9.810063 9.383539-5.075641 4.606465-10.44985 9.042319-5.331556 4.435855-10.96168 8.658447-5.672776 4.265245-11.558814 8.231923-5.92869 4.051983-12.070643 7.84805-6.184605 3.753416-12.582472 7.336222-6.397867 3.540153-13.008997 6.867044-6.653782 3.326891-13.478174 6.397867t-13.862046 5.886038q-7.037654 2.815062-14.245918 5.374209-7.250916 2.559147-14.587138 4.862379-7.378874 2.303232-14.885705 4.265245-7.506831 2.047318-15.141619 3.796068-7.634788 1.706098-15.354882 3.156281-7.720093 1.492836-15.568144 2.644452-7.805398 1.151616-15.696101 2.047318-7.890703 0.853049-15.824059 1.450183-7.933356 0.597134-15.909363 0.853049-7.976008 0.34122-15.952016 0.341219t-15.909364-0.298567q-7.976008-0.298567-15.909363-0.895701-7.933356-0.597134-15.824059-1.450183-7.890703-0.853049-15.696101-2.047318-7.848051-1.151616-15.568144-2.644452-7.720093-1.450183-15.354882-3.156281-7.677441-1.74875-15.141619-3.753416-7.506831-2.004665-14.928358-4.307897-7.336221-2.303232-14.501832-4.862379-7.250916-2.559147-14.288571-5.374209t-13.862046-5.886038q-6.824392-3.070976-13.478174-6.397867-6.61113-3.326891-13.008997-6.867044-6.397867-3.582806-12.582472-7.336222-6.184605-3.83872-12.070643-7.84805-5.92869-4.00933-11.516162-8.231923-5.672776-4.222592-11.046984-8.658447-5.331556-4.435855-10.407198-9.042319-5.032989-4.606465-9.810063-9.383539-4.734422-4.819727-9.170276-9.810064t-8.53049-10.10863q-4.094635-5.118294-7.848051-10.407198-3.753416-5.246251-7.165611-10.663112-3.412196-5.416861-6.483173-10.919027-3.028324-5.544818-5.715428-11.174942-2.687104-5.630123-5.032989-11.345551-2.303232-5.715428-4.265245-11.516161-1.91936-5.800733-3.454848-11.644119-1.578141-5.886038-2.729757-11.772076-1.194269-5.92869-1.962013-11.857381-0.767744-5.971343-1.151616-11.942686-0.426524-5.971343-0.426524-11.942685t0.426524-11.942686q0.383872-5.971343 1.151616-11.942686 0.767744-5.971343 1.962013-11.857381 1.151616-5.886038 2.729757-11.772076 1.535488-5.843386 3.497501-11.644118 1.91936-5.800733 4.265245-11.516162 2.303232-5.758081 4.990336-11.388204t5.715428-11.132289q3.070976-5.544818 6.483173-10.919027 3.412196-5.416861 7.165611-10.663112 3.753416-5.288904 7.848051-10.407198t8.53049-10.10863q4.435855-4.990337 9.170276-9.810064 4.777074-4.777074 9.810063-9.383538 5.075641-4.649117 10.407198-9.04232 5.374209-4.435855 11.004332-8.658447 5.630123-4.265245 11.516161-8.274575 5.971343-4.00933 12.113296-7.805398 6.141953-3.796068 12.582472-7.336221 6.397867-3.582806 13.008997-6.867045 6.653782-3.326891 13.478174-6.397867t13.862046-5.886038q7.037654-2.857714 14.245918-5.374209 7.250916-2.559147 14.587138-4.862379 7.378874-2.303232 14.885705-4.265245 7.506831-2.047318 15.141619-3.796068 7.634788-1.706098 15.354882-3.198933 7.720093-1.450183 15.568144-2.6018 7.805398-1.151616 15.696101-2.047317 7.890703-0.853049 15.781406-1.450184 7.976008-0.597134 15.952016-0.853049 7.933356-0.34122 15.909364-0.341219t15.952016 0.298567q7.976008 0.298567 15.909363 0.853049 7.933356 0.639787 15.781407 1.492836 7.933356 0.853049 15.781406 2.047317 7.805398 1.151616 15.525491 2.6018t15.354882 3.198933q7.677441 1.706098 15.141619 3.753416 7.506831 2.004665 14.885705 4.265245 7.378874 2.345885 14.587138 4.905031 7.208264 2.559147 14.245918 5.374209 6.995002 2.815062 13.862046 5.886038 6.824392 3.070976 13.478174 6.397867 6.61113 3.284239 13.008997 6.824392 6.397867 3.582806 12.582472 7.378874 6.141953 3.83872 12.070643 7.805398 5.886038 4.051983 11.516162 8.274575 5.672776 4.222592 11.004332 8.658447 5.374209 4.393202 10.44985 9.04232 5.032989 4.606465 9.810063 9.383538 4.734422 4.819727 9.170277 9.810064 4.435855 4.947684 8.530489 10.10863 4.094635 5.118294 7.848051 10.364545 3.753416 5.288904 7.165611 10.663113 3.412196 5.416861 6.483173 10.961679 3.028324 5.544818 5.715428 11.132289 2.687104 5.630123 4.990336 11.388204 2.345885 5.715428 4.265245 11.516162 1.962013 5.800733 3.497501 11.644118 1.535488 5.886038 2.729757 11.772076 1.151616 5.92869 1.962013 11.857381 0.767744 5.971343 1.151616 11.942686 0.426524 5.971343 0.426524 11.942686z" fill="#126EE3" fill-opacity=".6" p-id="6377"></path><path d="M783.525492 615.901366q0 4.862379-0.34122 9.682106-0.383872 4.777074-1.108964 9.596801-0.725092 4.777074-1.834055 9.554149-1.108964 4.734422-2.559147 9.468844-1.492836 4.691769-3.326891 9.383538t-4.00933 9.298234q-2.217927 4.606465-4.734422 9.127624-2.559147 4.52116-5.416861 8.957015-2.900367 4.478507-6.141953 8.829057-3.198934 4.35055-6.781739 8.615794-3.540153 4.265245-7.421526 8.359881-3.83872 4.137288-8.061313 8.103965-4.17994 4.051983-8.658448 7.890703-4.478507 3.881373-9.298233 7.592136-4.777074 3.753416-9.810064 7.293569-5.118294 3.582806-10.407197 6.995001-5.331556 3.412196-10.919027 6.61113-5.544818 3.241586-11.430857 6.312563-5.800733 3.028324-11.857381 5.92869-6.056648 2.857714-12.326557 5.544818-6.26991 2.644452-12.71043 5.118294-6.483172 2.473842-13.136955 4.777075-6.653782 2.26058-13.478174 4.307897-6.824392 2.047318-13.776741 3.881373-6.952349 1.876708-14.075308 3.497501-7.080307 1.620793-14.28857 2.985671-7.208264 1.407531-14.501833 2.559147-7.336221 1.194269-14.715095 2.132622-7.378874 0.938354-14.843052 1.663446-7.464179 0.682439-14.97101 1.151616t-15.013662 0.725092q-7.549484 0.255915-15.098967 0.255914-7.506831 0-15.056315-0.255914-7.506831-0.255915-15.013662-0.725092-7.506831-0.426524-14.928357-1.151616-7.506831-0.725092-14.928357-1.663446-7.336221-0.938354-14.672443-2.132622-7.293569-1.151616-14.501833-2.559147-7.250916-1.364878-14.331222-2.985671-7.080307-1.620793-14.075309-3.497501-6.952349-1.834055-13.776741-3.881373t-13.435521-4.307897q-6.653782-2.303232-13.136955-4.777075-6.44052-2.473842-12.710429-5.118294-6.26991-2.687104-12.369211-5.544818-6.013995-2.900367-11.857381-5.971343-5.800733-2.985671-11.388204-6.26991-5.587471-3.241586-10.919027-6.61113-5.331556-3.412196-10.407197-6.995001-5.075641-3.540153-9.810063-7.250917-4.819727-3.753416-9.298234-7.634788-4.478507-3.83872-8.658448-7.848051-4.222592-4.00933-8.103965-8.103965-3.83872-4.17994-7.421526-8.402533-3.540153-4.265245-6.781739-8.615794-3.198934-4.35055-6.099301-8.786405-2.857714-4.478507-5.416861-8.957014-2.559147-4.563812-4.691769-9.170277-2.217927-4.606465-4.051983-9.298234-1.834055-4.691769-3.284238-9.383538-1.492836-4.691769-2.559147-9.468844-1.151616-4.777074-1.876708-9.554149-0.725092-4.819727-1.108964-9.596801-0.383872-4.819727-0.383872-9.639453t0.383872-9.639454q0.383872-4.819727 1.108964-9.596801t1.834055-9.554149q1.108964-4.777074 2.559147-9.468843 1.492836-4.734422 3.326891-9.383539 1.834055-4.691769 4.00933-9.298234 2.217927-4.606465 4.734422-9.127624 2.559147-4.563812 5.416861-8.999667 2.900367-4.435855 6.099301-8.786404 3.241586-4.35055 6.824391-8.615795 3.540153-4.265245 7.378874-8.35988 3.881373-4.137288 8.103965-8.146618 4.17994-4.00933 8.658448-7.890703 4.478507-3.83872 9.255581-7.549484 4.777074-3.753416 9.852716-7.293568 5.075641-3.582806 10.407197-6.995002t10.919027-6.653782q5.544818-3.198934 11.388204-6.26991t11.900034-5.928691q6.056648-2.857714 12.326558-5.544818 6.26991-2.644452 12.710429-5.118294 6.483172-2.516495 13.136955-4.777074 6.653782-2.26058 13.435521-4.307898 6.824392-2.08997 13.776741-3.924025 6.995002-1.834055 14.075309-3.454848 7.080307-1.620793 14.331222-2.985672 7.208264-1.450183 14.501833-2.601799 7.336221-1.151616 14.715095-2.132623 7.378874-0.895701 14.843052-1.620793 7.464179-0.725092 14.928358-1.194268 7.549484-0.426524 15.056314-0.682439 7.549484-0.255915 15.056315-0.255915 7.549484 0 15.098967 0.255915 7.506831 0.213262 15.013662 0.682439t14.928357 1.194268q7.506831 0.725092 14.885705 1.663446t14.715095 2.08997q7.293569 1.151616 14.501833 2.559147 7.250916 1.407531 14.331223 3.028324 7.080307 1.620793 14.075308 3.454848 6.952349 1.834055 13.734088 3.924025 6.824392 2.047318 13.478174 4.307898 6.653782 2.26058 13.136955 4.734422 6.44052 2.516495 12.71043 5.160946 6.26991 2.687104 12.326557 5.544818t11.857381 5.971343q5.843386 2.985671 11.430857 6.227258 5.587471 3.241586 10.919027 6.653782t10.407197 6.995002q5.032989 3.540153 9.810064 7.250916 4.819727 3.753416 9.298233 7.592136 4.478507 3.881373 8.658448 7.890703 4.17994 4.00933 8.103965 8.103965 3.83872 4.17994 7.378874 8.402533 3.582806 4.265245 6.824392 8.615795 3.198934 4.35055 6.0993 8.786404 2.857714 4.435855 5.416861 8.957014 2.559147 4.563812 4.691769 9.170277 2.217927 4.606465 4.051983 9.255581 1.834055 4.691769 3.284239 9.383539 1.492836 4.734422 2.559146 9.511496 1.151616 4.777074 1.876708 9.554149 0.725092 4.777074 1.108964 9.596801 0.383872 4.819727 0.383872 9.639454z" fill="#126EE3" fill-opacity=".7" p-id="6378"></path><path d="M258.729757 508.929024a35.188271 35.188271 0 0 1-35.188271-35.188271c0-139.473509 113.455515-252.971676 253.014329-252.971676a35.188271 35.188271 0 1 1 0 70.376541c-100.65978 0-182.552483 81.892702-182.552483 182.552483 0 19.449517-15.781406 35.230923-35.273575 35.230923z" fill="#FFFFFF" p-id="6379"></path><path d="M824.215928 778.833722l-88.162612-88.11996c7.293569-8.786405 14.28857-17.914029 20.686437-27.382872a338.063312 338.063312 0 0 0-280.226591-148.686438A338.063312 338.063312 0 0 0 196.201266 663.33089a338.063312 338.063312 0 0 0 280.269244 148.686438 336.954349 336.954349 0 0 0 189.888704-58.263246l91.489503 91.489503c8.786405 8.829057 20.72909 13.776741 33.226258 13.734089a46.875042 46.875042 0 0 0 33.140953-80.101299z" fill="#126EE3" p-id="6380"></path></svg>