<?xml version="1.0" standalone="no"?><!DOCTYPE svg PUBLIC "-//W3C//DTD SVG 1.1//EN" "http://www.w3.org/Graphics/SVG/1.1/DTD/svg11.dtd"><svg t="1706580927991" class="icon" viewBox="0 0 1024 1024" version="1.1" xmlns="http://www.w3.org/2000/svg" p-id="9742" xmlns:xlink="http://www.w3.org/1999/xlink" width="200" height="200"><path d="M287.256908 597.729557v233.08454H72.892195C47.167654 830.78227 26.320951 809.058249 26.291892 782.252973V597.729557h260.965016z m260.965016 0v233.08454H324.538811v-233.08454h223.684497z m-260.965016-233.084541v194.236195H26.291892V364.645016h260.965016z m260.965016 0v194.236195H324.538811V364.645016h223.684497z m298.246919 0v88.941319H585.503827v-88.941319h260.965016zM799.868541 92.713514c25.724541 0.030443 46.571243 21.753081 46.600302 48.558356V325.798054H26.291892V141.270486C26.319568 114.466595 47.167654 92.742573 72.892195 92.713514H799.868541zM791.333362 506.091243c67.743135 0 127.851935 15.704562 165.638919 39.927698 26.0096 16.703654 41.408346 37.465946 41.408346 59.892929v226.262487c0 55.10227-92.717665 99.820627-207.047265 99.820627-114.328216 0-207.047265-44.719741-207.047265-99.820627V605.779027c0.063654-22.426984 15.463784-43.122854 41.408346-59.760086 37.786984-24.223135 97.895784-39.927697 165.638919-39.927698z m165.638919 309.912216c-37.786984 24.223135-97.895784 39.927697-165.638919 39.927698s-127.851935-15.705946-165.638919-39.927698v16.170898c0 5.522681 10.029665 19.098984 36.816952 32.008302 15.722551 7.587286 35.197924 13.841989 56.29094 18.169082 22.839351 4.657816 47.29773 7.053146 72.531027 7.053145s49.626638-2.39533 72.531027-7.054529c21.093016-4.257903 40.568389-10.580411 56.292325-18.167698 26.785903-12.910703 36.814184-26.485622 36.814183-32.008302V816.003459z m0-76.063827c-37.786984 24.223135-97.895784 39.927697-165.638919 39.927698s-127.851935-15.705946-165.638919-39.927698v16.170898c0 5.522681 10.029665 19.098984 36.816952 32.008302 15.722551 7.587286 35.197924 13.841989 56.29094 18.169082 22.839351 4.657816 47.29773 7.053146 72.531027 7.053145s49.626638-2.39533 72.531027-7.054529c21.093016-4.259286 40.568389-10.580411 56.292325-18.167698 26.785903-12.910703 36.814184-26.485622 36.814183-32.008302v-16.170898z m0-74.06841c-37.786984 24.223135-97.895784 39.929081-165.638919 39.929081s-127.851935-15.705946-165.638919-39.929081v14.241902c0 5.522681 10.029665 19.098984 36.816952 32.008303 15.722551 7.587286 35.197924 13.841989 56.29094 18.169081 22.839351 4.657816 47.29773 7.053146 72.531027 7.053146s49.626638-2.39533 72.531027-7.05453c21.093016-4.259286 40.568389-10.580411 56.292325-18.167697 26.785903-12.910703 36.814184-26.485622 36.814183-32.008303v-14.241902z" fill="#14ceaa" p-id="9743"></path></svg>