<svg t="1687230455101" class="icon" viewBox="0 0 1024 1024" version="1.1" xmlns="http://www.w3.org/2000/svg" p-id="13192" width="200" height="200"><path d="M422.4 600.2176c-95.1296-5.8368-176.4352-30.0032-224-63.7952v65.1264c0 44.4416 96.8704 81.3056 224 88.3712v44.6976c-95.1296-5.8368-176.4352-29.952-224-63.7952v65.1264H153.6V310.3744C153.6 223.7952 293.9904 153.6 467.2 153.6c173.1584 0 313.5488 70.1952 313.5488 156.7744v141.4656h-44.8V391.2192c-54.8864 45.5168-154.7264 75.9808-268.8 75.9808-114.0224 0-213.8624-30.464-268.7488-75.9808v75.9808c0 44.3904 96.8704 81.2544 224 88.32v44.6976zM467.2 870.4C293.9904 870.4 153.6 810.1888 153.6 735.9488h44.8c0 49.5104 120.32 89.6 268.8 89.6V870.4z m0-448c148.48 0 268.8-50.176 268.8-111.9744 0-61.7984-120.32-111.9744-268.8-111.9744s-268.8 50.176-268.8 111.9744c0 61.8496 120.32 112.0256 268.8 112.0256z m389.7856 293.888l-31.1808-18.1248c1.792-9.5232 2.8672-19.2512 2.8672-29.3376a162.1504 162.1504 0 0 0-2.8672-29.3376l31.232-18.176a27.0336 27.0336 0 0 0 9.728-36.7616l-26.624-46.5408a26.5216 26.5216 0 0 0-36.4544-9.8304l-31.5392 18.3296a159.488 159.488 0 0 0-50.0736-29.5424V494.08a26.7776 26.7776 0 0 0-26.624-26.88H642.048a26.7776 26.7776 0 0 0-26.624 26.88v22.8352c-18.3808 6.656-35.328 16.6912-50.0736 29.5424l-31.5392-18.3296a26.5216 26.5216 0 0 0-36.4544 9.8304l-26.624 46.592a27.0336 27.0336 0 0 0 9.728 36.7104l31.232 18.176c-1.8944 9.6768-2.816 19.456-2.9184 29.3376 0 10.0864 1.1264 19.8144 2.8672 29.3376l-31.1808 18.176a27.0336 27.0336 0 0 0-9.728 36.7616l26.624 46.5408a26.5216 26.5216 0 0 0 36.4544 9.8304l31.5392-18.3808c14.6944 12.6464 31.4368 22.9376 50.0736 29.5936v22.8352c0 14.848 11.8784 26.88 26.624 26.88h53.2992a26.7776 26.7776 0 0 0 26.6752-26.88v-22.8352c18.3808-6.7072 35.328-16.7424 50.0736-29.5936l31.5392 18.432a26.5728 26.5728 0 0 0 36.4544-9.8816l26.624-46.592a27.0336 27.0336 0 0 0-9.728-36.7616z m-33.0752 26.4704l-12.288 20.9408a12.3904 12.3904 0 0 1-16.7936 4.4032l-34.1504-19.3536a123.1872 123.1872 0 0 1-67.328 38.2464v26.5728c0 6.656-5.4784 12.032-12.288 12.032h-24.576a12.1856 12.1856 0 0 1-12.288-12.0832v-26.5216a123.1872 123.1872 0 0 1-67.328-38.2464L542.72 768a12.3904 12.3904 0 0 1-16.7936-4.4032l-12.288-20.9408a11.9296 11.9296 0 0 1 4.4544-16.384l34.304-19.456a117.76 117.76 0 0 1-6.5024-38.0928c0-13.312 2.4064-26.112 6.5536-38.0928l-34.304-19.456a11.9296 11.9296 0 0 1-4.5056-16.384l12.288-20.992a12.3904 12.3904 0 0 1 16.7936-4.352l34.1504 19.3536a123.1872 123.1872 0 0 1 67.328-38.2464v-26.624c0-6.656 5.4784-11.9808 12.288-11.9808h24.576c6.8096 0 12.288 5.376 12.288 12.0832v26.5216c26.0096 5.1712 49.6128 18.5856 67.328 38.2464l34.1504-19.3536a12.3904 12.3904 0 0 1 16.7936 4.4032l12.288 20.8896a11.9296 11.9296 0 0 1-4.5056 16.4352l-34.2528 19.456c4.0448 12.032 6.5024 24.7296 6.5024 38.0928 0 13.312-2.4064 26.112-6.5024 38.0928l34.304 19.456a11.9296 11.9296 0 0 1 4.4544 16.384z m-155.136-141.1584a67.1744 67.1744 0 1 0 0 134.4 67.1744 67.1744 0 0 0 0-134.4z m0 89.6a22.3744 22.3744 0 1 1 0-44.8 22.3744 22.3744 0 0 1 0 44.8z" p-id="13193"></path></svg>