<?xml version="1.0" standalone="no"?><!DOCTYPE svg PUBLIC "-//W3C//DTD SVG 1.1//EN" "http://www.w3.org/Graphics/SVG/1.1/DTD/svg11.dtd"><svg t="1680161308640" class="icon" viewBox="0 0 1024 1024" version="1.1" xmlns="http://www.w3.org/2000/svg" p-id="4832" xmlns:xlink="http://www.w3.org/1999/xlink" width="200" height="200"><path d="M327.5968 297.7024m195.7888 0l0 0q195.7888 0 195.7888 195.7888l0 20.6336q0 195.7888-195.7888 195.7888l0 0q-195.7888 0-195.7888-195.7888l0-20.6336q0-195.7888 195.7888-195.7888Z" fill="#E9F1FF" p-id="4833"></path><path d="M969.9776 694.2464c-5.8112-23.1424-20.352-43.392-43.648-54.9632-5.8112-2.8928-14.5408-5.7856-23.2704-8.704v-240.0768c8.7296-2.8928 14.5408-5.7856 23.296-8.6784 43.6224-23.1424 58.1888-78.08 34.8928-121.472-11.6224-20.2496-32-34.7136-55.296-43.392-20.352-5.7856-37.8112-2.8928-58.1632 2.8928l-247.296-141.7472C594.6304 34.7136 556.7936 0 513.1712 0c-43.648 0-84.3776 34.7136-90.2144 78.08L172.7936 222.72c-40.7296-14.4384-87.296 0-110.5664 40.5248-23.296 43.3664-8.704 98.3296 34.9184 121.472 8.7296 2.8928 14.5408 5.7856 23.296 8.704v240.0768c-8.7552 2.8928-14.5664 5.7856-23.296 8.6784-43.648 23.1424-58.1888 78.08-34.9184 121.472 17.4592 28.928 46.5664 46.2848 78.5664 46.2848 11.6224 0 20.352-2.8928 32-5.7856l250.2144 141.7472c5.8368 43.392 43.648 78.1056 87.296 78.1056s81.4592-34.7136 87.296-78.08l250.2144-147.5584c11.6224 2.8928 20.352 5.7856 32 5.7856 8.704 0 17.4592 0 23.296-2.8928 23.2448-5.7856 43.6224-20.224 55.2704-43.3664 14.5408-17.3568 17.4336-40.4992 11.6224-63.6416z m-439.3472 153.2928v-118.5792c66.9184-5.7856 125.1328-40.4992 160.0256-92.5696l104.7552 57.856c-8.7296 28.928 0 57.856 17.4592 80.9728l-218.2144 127.2832c-8.7296-26.0352-34.9184-49.152-64-54.9632z m-101.8112 54.9632l-218.2144-127.2576a68.864 68.864 0 0 0 17.4336-31.8464c5.8368-17.3312 2.9184-31.7952 0-49.152L332.7936 636.3904c37.8112 52.0704 96 86.784 160.0256 92.5696v118.5792a83.3536 83.3536 0 0 0-64 54.9632z m-264.7808-512c17.4592-5.7856 32-14.464 40.7296-26.0352l101.8368 57.856c-11.648 26.0352-17.4592 57.856-17.4592 86.784 0 31.8208 5.8112 63.6416 20.3776 89.6768l-101.8368 57.856c-11.648-14.464-29.1072-23.1424-46.5664-26.0352v-237.2096q2.9184 0 2.9184-2.8928z m325.888-214.0416v115.712c-66.944 5.76-128.0512 43.3664-162.944 95.4368l-101.8368-57.856c5.8112-14.464 5.8112-31.8208 0-49.152a68.8384 68.8384 0 0 0-17.4592-31.8208l218.2144-127.2832c11.6224 26.0352 34.9184 49.152 64 54.9632z m104.704-54.9632l218.24 127.2832c-17.4592 23.1168-26.1888 52.0448-17.4592 80.9728l-101.8368 57.856c-34.9184-52.0704-96-89.6768-162.9184-95.4624v-115.712c29.0816-5.76 55.2704-28.928 64-54.9376z m-84.352 569.856c-98.9184 0-180.4032-80.9984-180.4032-179.3536s81.4848-179.3536 180.4032-179.3536 180.3776 80.9984 180.3776 179.3536c2.9184 98.3552-78.5408 179.3536-180.3776 179.3536z m305.5104-34.7136l-101.8368-57.856c11.6224-28.928 20.352-57.856 20.352-89.6768 0-31.8208-5.8112-60.7488-17.4592-86.784l101.8368-57.856a122.112 122.112 0 0 0 40.7296 26.0352h5.8368v237.2096h-5.8368c-17.4336 8.6784-32 17.3568-43.6224 28.928z m81.4592-396.288c11.648 2.8928 23.296 11.5456 29.0816 23.1168 14.5664 23.1424 5.8368 52.0704-20.352 66.56-11.648 5.76-26.1888 8.6528-37.8368 5.76a46.1824 46.1824 0 0 1-29.0816-23.1424c-14.5664-23.1424-5.8112-52.0704 20.352-66.5088 8.7296-2.9184 14.5664-5.8112 23.296-5.8112 5.8112-2.8928 8.704-2.8928 14.5408 0zM510.2784 40.4992c26.1888 0 49.4592 23.1424 49.4592 49.152a48.896 48.896 0 0 1-49.4592 49.2032C484.0896 138.8544 460.7936 115.712 460.7936 89.6768s23.2704-49.1776 49.4592-49.1776zM97.12 283.4688c8.7296-17.3568 26.1888-26.0352 43.648-26.0352 8.704 0 17.4592 2.9184 23.2704 5.8112 11.648 5.7856 20.3776 17.3568 23.296 28.928 2.8928 14.4384 2.8928 26.0096-2.9184 37.5808-5.8368 11.5712-17.4592 20.2496-29.1072 23.1424-11.648 2.8928-26.1888 2.8928-37.8112-5.7856-23.296-11.5712-32-40.4992-20.3776-63.6416z m0 457.0624c-5.8112-11.5712-8.7296-23.1424-2.9184-37.632 2.9184-11.5456 11.648-23.1168 23.296-28.928 8.704-2.8672 14.5408-5.76 23.2704-5.76 5.8112 0 8.704 0 14.5408 2.8928 11.648 2.8928 23.296 11.5712 29.1072 23.1424 5.8112 11.5712 8.704 23.1424 2.8928 37.6064a46.0032 46.0032 0 0 1-23.2704 28.928c-23.296 11.5456-52.3776 5.7856-66.9184-20.2496z m413.1584 242.9696c-26.1888 0-49.4592-23.1424-49.4592-49.152 0-26.0608 23.2704-49.2032 49.4592-49.2032s49.4592 23.1424 49.4592 49.1776a48.896 48.896 0 0 1-49.4592 49.1776z m416.0512-242.9696c-5.8112 11.5456-17.4336 20.224-29.0816 23.1424-11.648 2.8928-26.1888 2.8928-37.8368-5.7856a46.0032 46.0032 0 0 1-23.2704-28.928c-2.8928-11.5712-2.8928-26.0352 2.9184-37.632a46.1824 46.1824 0 0 1 29.0816-23.1168c5.8368 0 8.7296-2.8928 14.5664-2.8928 8.704 0 17.4336 2.8928 23.2704 5.7856 23.296 17.3568 32 46.2848 20.352 69.4272z" fill="#126EE3" p-id="4834"></path></svg>