<?xml version="1.0" standalone="no"?><!DOCTYPE svg PUBLIC "-//W3C//DTD SVG 1.1//EN" "http://www.w3.org/Graphics/SVG/1.1/DTD/svg11.dtd"><svg t="1672794714766" class="icon" viewBox="0 0 1024 1024" version="1.1" xmlns="http://www.w3.org/2000/svg" p-id="2295" xmlns:xlink="http://www.w3.org/1999/xlink" width="200" height="200"><path d="M889.088 1023.317333H131.584c-72.533333 0-131.413333-58.88-131.413333-131.413333V229.034667c0-72.533333 58.88-131.498667 131.413333-131.498667h757.504c72.533333 0 131.413333 58.88 131.413333 131.413333v662.784c0 72.533333-58.965333 131.498667-131.413333 131.498667zM131.584 171.264a58.026667 58.026667 0 0 0-57.941333 57.941333v662.784a58.026667 58.026667 0 0 0 58.026666 57.856h757.418667a58.026667 58.026667 0 0 0 57.941333-57.856V229.12a58.026667 58.026667 0 0 0-58.026666-58.026667H131.669333v0.170667z" p-id="2296"></path><path d="M709.12 413.184H311.466667a36.864 36.864 0 0 0-36.693334 36.778667c0 20.309333 16.469333 36.778667 36.693334 36.778666h397.653333a36.864 36.864 0 0 0 36.864-36.693333 36.864 36.864 0 0 0-36.778667-36.864z m0 238.421333H311.466667a36.864 36.864 0 0 0-36.693334 36.778667c0 20.224 16.469333 36.778667 36.693334 36.778667h397.653333a36.864 36.864 0 0 0 36.864-36.693334 36.864 36.864 0 0 0-36.778667-36.864zM297.130667 0.341333a36.864 36.864 0 0 0-36.778667 36.778667v162.133333c0 20.138667 16.554667 36.693333 36.778667 36.693334a36.864 36.864 0 0 0 36.778666-36.693334v-162.133333a36.864 36.864 0 0 0-36.778666-36.778667z m426.410666 0a36.864 36.864 0 0 0-36.693333 36.778667v162.133333c0 20.138667 16.469333 36.693333 36.693333 36.693334a36.864 36.864 0 0 0 36.778667-36.693334v-162.133333a36.864 36.864 0 0 0-36.693333-36.778667z" p-id="2297"></path></svg>
