<svg t="1708926546186" class="icon" viewBox="0 0 1024 1024" version="1.1" xmlns="http://www.w3.org/2000/svg" p-id="17101" width="200" height="200"><path d="M446.8736 524.9024l-249.1392-134.656a32.6144 32.6144 0 0 0-15.7184-3.9424c-17.9712 0-34.816 15.7184-34.816 37.5808v263.2192c0 27.4944 14.0288 52.224 37.0176 64.512l249.1904 134.7072a33.4848 33.4848 0 0 0 15.7184 4.5056c17.9712 0 34.816-16.2816 34.816-38.144v-263.2192c0-26.9312-14.0288-52.224-37.0688-64.512z m-19.0464 294.656l-217.1904-117.2992a17.92 17.92 0 0 1-7.3216-15.1552V457.0112l217.1904 117.248c4.5056 2.8672 7.3216 9.0112 7.3216 15.2064v230.0928z m414.208-433.2544a32.6144 32.6144 0 0 0-15.7696 3.8912l-249.1392 135.2704c-23.04 12.3392-37.0688 37.632-37.0688 65.1264v262.0928c0 21.8624 16.8448 38.144 34.816 38.144a32.6144 32.6144 0 0 0 15.7184-3.9424l249.1904-135.2192c22.4256-12.3904 37.0176-37.0688 37.0176-64.5632V423.8848c0-21.8624-16.8448-37.5808-34.816-37.5808z m-21.3504 300.2368c0 7.8336-3.9424 13.4656-7.3216 15.1552l-217.1904 117.8624v-228.9664c0-7.8848 3.9424-13.4656 7.3216-15.1552l217.1904-118.4256v229.5296z m-17.408-358.0416c11.776-6.1952 17.408-16.896 16.2816-26.9824 1.1264-10.6496-4.5056-20.736-16.2816-26.9312l-253.696-132.4544A77.568 77.568 0 0 0 512 133.1712c-13.4656 0-26.368 2.816-38.144 8.96L219.5968 274.0224a28.672 28.672 0 0 0-16.2816 27.4944 28.4672 28.4672 0 0 0 16.2816 26.9824l253.696 131.8912c11.2128 6.144 24.6784 8.96 38.144 8.96h1.1264c13.4656 0 26.368-2.816 38.144-8.96l252.5696-131.8912z m-291.84 84.736a28.5696 28.5696 0 0 1-12.3392-2.816l-209.92-108.9024 209.92-109.4144a29.2864 29.2864 0 0 1 25.2416 0l209.92 109.4144-210.432 108.9024a25.088 25.088 0 0 1-12.3904 2.816z" p-id="17102"></path></svg>