<?xml version="1.0" standalone="no"?><!DOCTYPE svg PUBLIC "-//W3C//DTD SVG 1.1//EN" "http://www.w3.org/Graphics/SVG/1.1/DTD/svg11.dtd"><svg t="1684461552070" class="icon" viewBox="0 0 1024 1024" version="1.1" xmlns="http://www.w3.org/2000/svg" p-id="6312" xmlns:xlink="http://www.w3.org/1999/xlink" width="200" height="200"><path d="M797.482667 325.930667a26.624 26.624 0 0 1 7.850666 18.816v513.92c0 14.762667-11.946667 26.666667-26.666666 26.666666H245.333333a26.624 26.624 0 0 1-26.666666-26.666666V165.333333c0-14.762667 11.946667-26.666667 26.666666-26.666666h353.92c7.082667 0 13.909333 2.816 18.901334 7.850666l179.328 179.413334z m-53.632 31.061333l-156.842667-156.842667v156.842667h156.842667zM352 486.997333a6.656 6.656 0 0 0-6.656 6.656v40.021334c0 3.669333 2.986667 6.656 6.656 6.656h320c3.669333 0 6.656-2.986667 6.656-6.656v-40.021334a6.656 6.656 0 0 0-6.656-6.656h-320z m0 113.322667a6.656 6.656 0 0 0-6.656 6.698667v39.978666c0 3.669333 2.986667 6.656 6.656 6.656h153.344c3.669333 0 6.656-2.986667 6.656-6.656v-39.978666a6.656 6.656 0 0 0-6.656-6.698667H352z" p-id="6313"></path></svg>