<?xml version="1.0" standalone="no"?><!DOCTYPE svg PUBLIC "-//W3C//DTD SVG 1.1//EN" "http://www.w3.org/Graphics/SVG/1.1/DTD/svg11.dtd"><svg t="1720001338158" class="icon" viewBox="0 0 1024 1024" version="1.1" xmlns="http://www.w3.org/2000/svg" p-id="98056" xmlns:xlink="http://www.w3.org/1999/xlink" width="16" height="16"><path d="M102.4 0h819.2c68.2496 0 102.4 34.1504 102.4 102.4v819.2c0 68.2496-34.1504 102.4-102.4 102.4H102.4c-68.2496 0-102.4-34.1504-102.4-102.4V102.4C0 34.1504 34.1504 0 102.4 0z" p-id="98057"></path><path d="M797.3376 312.832l-265.5232-153.2928a41.1648 41.1648 0 0 0-40.96 0L225.28 312.832a41.3184 41.3184 0 0 0-20.48 35.4304v306.5344c0 14.592 7.936 28.16 20.48 35.4304l265.472 153.2416a39.5776 39.5776 0 0 0 20.48 5.632 39.5776 39.5776 0 0 0 20.5312-5.632l265.5232-153.2416a41.3184 41.3184 0 0 0 20.48-35.4304v-306.176a42.3424 42.3424 0 0 0-20.48-35.84z m-53.1456 54.528v269.0048l-232.8576 134.5024-232.8576-134.5024V367.36L511.3344 232.96l232.8576 134.4512z" fill="#FFFFFF" p-id="98058"></path><path d="M509.2352 390.656l-57.344 57.344a76.288 76.288 0 0 0-86.528 18.432 75.264 75.264 0 0 0 5.5808 106.3424 75.6224 75.6224 0 0 0 102.5024-1.7408l86.1696 45.8752a58.368 58.368 0 0 0 53.1968 54.2208c1.7408 0 3.072 0.3584 4.864 0.3584 13.8752 0 27.136-4.864 37.5296-13.9264a58.368 58.368 0 0 0 20.48-39.6288 58.2656 58.2656 0 0 0-91.7504-52.1216l-87.1936-46.2336a74.4448 74.4448 0 0 0-5.5808-31.232L548.864 430.592a39.6288 39.6288 0 0 0 9.0112 0.6656 49.4592 49.4592 0 0 0 35.1232-14.592 49.664 49.664 0 0 0-35.1232-84.7872 50.176 50.176 0 0 0-48.64 58.7264z" fill="#FFFFFF" p-id="98059"></path></svg>