<?xml version="1.0" standalone="no"?><!DOCTYPE svg PUBLIC "-//W3C//DTD SVG 1.1//EN" "http://www.w3.org/Graphics/SVG/1.1/DTD/svg11.dtd"><svg t="1666927221117" class="icon" viewBox="0 0 1024 1024" version="1.1" xmlns="http://www.w3.org/2000/svg" p-id="1295" xmlns:xlink="http://www.w3.org/1999/xlink" width="200" height="200"><path d="M834.37568 1012.04992H194.74432c-64.09216 0-116.23424-52.5824-116.23424-117.21728V129.16224c0-64.63488 52.14208-117.21728 116.23424-117.21728h639.63136c31.0272 0 60.23168 12.26752 82.24256 34.5344 21.91872 22.17472 33.9968 51.54304 33.99168 82.69312v765.66528c0 64.62976-52.1472 117.21216-116.23424 117.21216zM194.74432 73.38496c-30.21312 0-54.79424 25.02144-54.79424 55.77728v765.6704c0 30.75584 24.58112 55.77728 54.79424 55.77728h639.63136c30.21312 0 54.79424-25.02144 54.79424-55.77728V129.16736c0-14.8736-5.76512-28.89728-16.24064-39.49568-10.38336-10.50112-24.07424-16.28672-38.5536-16.28672H194.74432z" fill="#505050" p-id="1296"></path><path d="M716.8 757.76c0 8.448-6.912 15.36-15.36 15.36H322.56c-8.448 0-15.36-6.912-15.36-15.36v-30.72c0-8.448 6.912-15.36 15.36-15.36h378.88c8.448 0 15.36 6.912 15.36 15.36v30.72zM716.8 552.96c0 8.448-6.912 15.36-15.36 15.36H322.56c-8.448 0-15.36-6.912-15.36-15.36v-30.72c0-8.448 6.912-15.36 15.36-15.36h378.88c8.448 0 15.36 6.912 15.36 15.36v30.72zM716.8 348.16c0 8.448-6.912 15.36-15.36 15.36H322.56c-8.448 0-15.36-6.912-15.36-15.36v-30.72c0-8.448 6.912-15.36 15.36-15.36h378.88c8.448 0 15.36 6.912 15.36 15.36v30.72z" fill="#505050" p-id="1297"></path></svg>