<?xml version="1.0" standalone="no"?><!DOCTYPE svg PUBLIC "-//W3C//DTD SVG 1.1//EN" "http://www.w3.org/Graphics/SVG/1.1/DTD/svg11.dtd"><svg t="1708939939044" class="icon" viewBox="0 0 1024 1024" version="1.1" xmlns="http://www.w3.org/2000/svg" p-id="17020" xmlns:xlink="http://www.w3.org/1999/xlink" width="200" height="200"><path d="M947.2 896l-178.688-178.688c25.088-30.208 45.568-63.488 60.416-99.328a399.1552 399.1552 0 0 0 0-309.248c-19.968-47.104-48.64-89.6-84.992-125.952a396.3904 396.3904 0 0 0-125.952-84.992 399.1552 399.1552 0 0 0-309.248 0c-47.104 19.968-89.6 48.64-125.952 84.992S117.76 261.632 97.792 308.736c-20.992 49.152-31.232 101.376-31.232 154.624s10.24 105.472 31.232 154.624c19.968 47.104 48.64 89.6 84.992 125.952s78.848 65.024 125.952 84.992a399.1552 399.1552 0 0 0 309.248 0c36.352-15.36 69.632-35.84 99.84-60.928l178.688 178.688c7.168 7.168 16.384 10.24 25.6 10.24s18.432-3.584 25.6-10.24c13.312-13.824 13.312-36.864-0.512-50.688z m-483.84-107.52c-179.2 0-325.12-145.92-325.12-325.12 0-179.2 145.92-325.12 325.12-325.12 179.2 0 325.12 145.92 325.12 325.12 0 179.2-145.92 325.12-325.12 325.12z m220.672-434.176a30.5152 30.5152 0 0 0-42.496 2.56l-125.44 142.848-90.112-139.264a29.184 29.184 0 0 0-22.528-13.312 29.696 29.696 0 0 0-24.576 9.728l-157.184 172.032a30.0032 30.0032 0 0 0 22.016 50.176c8.192 0 16.384-3.072 22.016-9.728l131.072-143.872 91.136 139.776a30.1568 30.1568 0 0 0 47.616 3.072l151.04-172.544c11.264-11.776 9.728-30.208-2.56-41.472z" p-id="17021"></path></svg>