<?xml version="1.0" standalone="no"?><!DOCTYPE svg PUBLIC "-//W3C//DTD SVG 1.1//EN" "http://www.w3.org/Graphics/SVG/1.1/DTD/svg11.dtd"><svg class="icon" width="64px" height="64.00px" viewBox="0 0 1024 1024" version="1.1" xmlns="http://www.w3.org/2000/svg"><path d="M501.632 405.568c32 12.672 60.8 31.616 83.2 60.032 64 75.904 51.2 189.632-19.2 259.2l-169.6 167.488c-70.4 69.568-179.2 79.04-256 22.144-92.8-72.704-99.2-205.44-19.2-284.48l112-110.592c12.8-12.672 12.8-31.616 0-44.224a31.232 31.232 0 0 0-44.8 0l-108.8 107.456c-89.6 88.448-105.6 230.72-32 331.84 96 126.4 278.4 139.072 387.2 31.616l172.8-170.688c96-94.848 108.8-246.528 22.4-347.648a235.776 235.776 0 0 0-105.6-72.704c-22.4-6.336-44.8 6.336-44.8 28.48 0 6.272 9.6 18.944 22.4 22.08zM520.832 614.144c-32-12.608-60.8-31.552-83.2-60.032-64-75.84-51.2-189.632 19.2-259.2l169.6-167.424c70.4-69.568 179.2-79.04 256-22.144 92.8 72.704 99.2 205.44 19.2 284.416l-112 110.656c-12.8 12.608-12.8 31.616 0 44.224 12.8 12.672 32 12.672 44.8 0l108.8-107.456c89.6-88.512 105.6-230.72 32-331.84-96-126.4-278.4-139.072-387.2-31.616l-172.8 170.688c-96 94.784-108.8 246.528-22.4 347.648 28.8 34.752 67.2 60.032 105.6 72.704 22.4 6.272 44.8-6.4 44.8-28.48 0-6.336-9.6-18.944-22.4-22.144z" /></svg>