<?xml version="1.0" standalone="no"?><!DOCTYPE svg PUBLIC "-//W3C//DTD SVG 1.1//EN" "http://www.w3.org/Graphics/SVG/1.1/DTD/svg11.dtd"><svg t="1677051784033" class="icon" viewBox="0 0 1024 1024" version="1.1" xmlns="http://www.w3.org/2000/svg" p-id="9485" xmlns:xlink="http://www.w3.org/1999/xlink" width="200" height="200"><path d="M492.203 69.019a35 35 0 0 1 38.803-0.273l0.41 0.273 420.82 284.574c16.013 10.828 20.215 32.587 9.387 48.6a35 35 0 0 1-8.257 8.59l-0.541 0.39-154.64 109.245 154.051 104.175c15.853 10.72 20.13 32.153 9.707 48.117l-0.32 0.482a35 35 0 0 1-8.257 8.59l-0.54 0.39-420.822 297.296a35 35 0 0 1-39.99 0.278l-0.4-0.278-420.82-297.296c-15.788-11.153-19.545-32.993-8.391-48.781a35 35 0 0 1 8.43-8.42l0.55-0.378 154.049-104.175L70.794 411.172c-15.63-11.042-19.468-32.558-8.721-48.306l0.33-0.475a35 35 0 0 1 8.43-8.42l0.55-0.378 420.82-284.574z m402.26 580.965l-145.08-98.108-218.138 154.109-0.569 0.388-0.159 0.106a33.954 33.954 0 0 1-37.908-0.332l-0.391-0.272-217.985-153.999-145.079 98.108L511.81 920.317l382.655-270.333zM511.81 405.773L338.235 523.149 511.81 645.773l173.573-122.624-173.573-117.376z m0-277.456L129.154 387.082 276.941 491.49l216.013-146.074 0.602-0.393 0.169-0.106a33.954 33.954 0 0 1 36.71 0.347l0.395 0.263L746.676 491.49l147.788-104.407-382.655-258.764z" p-id="9486"></path></svg>