<?xml version="1.0" standalone="no"?><!DOCTYPE svg PUBLIC "-//W3C//DTD SVG 1.1//EN" "http://www.w3.org/Graphics/SVG/1.1/DTD/svg11.dtd"><svg t="1677051792745" class="icon" viewBox="0 0 1024 1024" version="1.1" xmlns="http://www.w3.org/2000/svg" p-id="9781" xmlns:xlink="http://www.w3.org/1999/xlink" width="200" height="200"><path d="M808.267 591.51v-94.589c0-30.389-24.667-55.713-49.334-55.713H541.6v-52.701c76.667-11.773 133.333-77.752 133.333-160.295 0-91.304-69.2-162.212-158-162.212s-158 71.045-158 162.212c0 82.543 56.667 148.522 133.334 160.295v52.701H274.933c-29.6 0-49.333 25.324-49.333 55.713v92.81C160.933 599.45 112 655.985 112 725.113 112 801.222 171.2 862 245.333 862c74.134 0 133.334-60.778 133.334-136.887 0-65.706-44-119.914-103.734-133.602v-99.654h484v97.874c-64.666 9.719-113.6 66.254-113.6 135.382 0 76.109 59.2 136.887 133.334 136.887C852.8 862 912 801.222 912 725.113c0-65.706-44-119.914-103.733-133.602zM334.763 728.799c0 52.812-36.982 89.923-89.956 89.923-47.692 0-89.957-42.392-89.957-89.923 0-47.674 37.125-89.924 89.957-89.924 47.69 0 89.956 37.111 89.956 89.924z m71.745-501.067c0-60.516 50.449-111.083 111.123-111.083 60.674 0 111.123 50.43 111.123 111.083 0 60.516-50.449 111.082-111.123 111.082-60.674 0-111.123-50.43-111.123-111.082z m372.753 589.635c-47.69 0-89.956-42.393-89.956-89.924 0-47.674 42.408-89.924 89.956-89.924 47.691 0 89.957 37.111 89.957 89.924 0 52.812-42.266 89.924-89.957 89.924z" p-id="9782"></path></svg>