<?xml version="1.0" standalone="no"?><!DOCTYPE svg PUBLIC "-//W3C//DTD SVG 1.1//EN" "http://www.w3.org/Graphics/SVG/1.1/DTD/svg11.dtd"><svg t="1712155663419" class="icon" viewBox="0 0 1044 1024" version="1.1" xmlns="http://www.w3.org/2000/svg" p-id="9541" xmlns:xlink="http://www.w3.org/1999/xlink" width="203.90625" height="200"><path d="M565.963755 683.608816V43.608816c0-26.122449-17.392327-43.587918-43.514775-43.587918s-43.514776 17.465469-43.514776 43.587918v626.938776L313.469388 505.077551a42.093714 42.093714 0 0 0-60.975021 0 42.093714 42.093714 0 0 0 0 60.980245l213.378613 213.305469a84.187429 84.187429 0 0 0 121.882122 0l213.310694-213.305469a42.093714 42.093714 0 0 0 0-60.980245 42.093714 42.093714 0 0 0-60.907102 0l-174.194939 178.531265z m391.836735-8.756245c0-26.122449 17.460245-43.582694 43.582694-43.582693S1044.897959 648.724898 1044.897959 674.847347v217.641796c0 74.036245-56.576 130.612245-130.612245 130.612245H130.612245c-74.036245 0-130.612245-56.576-130.612245-130.612245V674.847347c0-26.122449 17.392327-43.582694 43.514776-43.582694s43.582694 17.460245 43.582693 43.582694v217.641796c0 26.122449 17.392327 43.582694 43.514776 43.582694h783.673469c26.122449 0 43.514776-17.460245 43.514776-43.582694V674.847347z" p-id="9542"></path></svg>