<?xml version="1.0" standalone="no"?><!DOCTYPE svg PUBLIC "-//W3C//DTD SVG 1.1//EN" "http://www.w3.org/Graphics/SVG/1.1/DTD/svg11.dtd"><svg t="1702539939206" class="icon" viewBox="0 0 1024 1024" version="1.1" xmlns="http://www.w3.org/2000/svg" p-id="21006" xmlns:xlink="http://www.w3.org/1999/xlink" width="200" height="200"><path d="M512 819.2c260.1472 0 471.04-55.0144 471.04-122.88v163.84c0 67.8656-210.8928 122.88-471.04 122.88-257.54624 0-466.816-53.91872-470.97856-120.84736L40.96 860.16v-163.84c0 67.8656 210.8928 122.88 471.04 122.88z" p-id="21007"></path><path d="M512 537.6c260.1472 0 471.04-55.0144 471.04-122.88v163.84c0 67.8656-210.8928 122.88-471.04 122.88-257.54624 0-466.816-53.91872-470.97856-120.84736L40.96 578.56V414.72c0 67.8656 210.8928 122.88 471.04 122.88zM40.96 163.84l0.06144-2.03264C45.184 94.87872 254.45376 40.96 512 40.96c260.1472 0 471.04 55.0144 471.04 122.88v122.88c0 67.8656-210.8928 122.88-471.04 122.88S40.96 354.5856 40.96 286.72V163.84z"  p-id="21008"></path></svg>