<?xml version="1.0" standalone="no"?><!DOCTYPE svg PUBLIC "-//W3C//DTD SVG 1.1//EN" "http://www.w3.org/Graphics/SVG/1.1/DTD/svg11.dtd"><svg t="1666072638798" class="icon" viewBox="0 0 1024 1024" version="1.1" xmlns="http://www.w3.org/2000/svg" p-id="2744" xmlns:xlink="http://www.w3.org/1999/xlink" width="200" height="200"><path d="M1019.099429 120.246857l-398.701715 371.565714a16.530286 16.530286 0 0 1-22.820571 0l-22.820572-21.284571c-6.582857-6.144-6.582857-15.725714 0-21.284571l398.701715-371.565715a16.530286 16.530286 0 0 1 22.820571 0l22.820572 21.211429c6.582857 5.632 6.582857 15.286857 0 21.357714z" p-id="2745"></path><path d="M1004.982857 558.592h-32.621714c-9.216 0-16.237714 6.582857-16.237714 15.140571v255.634286c0 33.426286-29.330286 60.708571-65.243429 60.708572H130.340571c-35.84 0-65.097143-27.282286-65.097142-60.708572V264.045714c0-33.426286 29.257143-60.708571 65.097142-60.708571h387.876572c9.289143 0 16.310857-6.582857 16.310857-15.213714v-30.354286c0-8.630857-7.021714-15.213714-16.310857-15.213714H130.340571C58.660571 142.482286 0 197.193143 0 264.045714v565.394286C0 896.219429 58.660571 950.857143 130.340571 950.857143H890.88c71.68 0 130.413714-54.637714 130.413714-121.417143V573.659429c0-8.557714-7.094857-15.140571-16.310857-15.140572z" p-id="2746"></path></svg>