<svg t="1711692672397" class="icon" viewBox="0 0 1024 1024" version="1.1" xmlns="http://www.w3.org/2000/svg" p-id="34701" width="200" height="200"><path d="M430.592 535.552l-219.8016 235.6224-2.048-213.1456c0-16.0256-12.2368-29.184-27.1872-29.184-15.0016 0-27.2384 13.1584-27.2384 29.184l2.048 277.1968a30.208 30.208 0 0 0 8.8576 21.6064 26.4704 26.4704 0 0 0 20.1216 9.5232h268.288c14.9504 0 27.136-13.1584 27.136-29.184 0-16.0256-12.1856-29.184-27.136-29.184H253.2864l215.7568-231.168a30.6688 30.6688 0 0 0 0-41.216 26.112 26.112 0 0 0-38.4512 0z m121.4464-50.3808l219.8528-235.5712 2.048 213.0944c0 16.0256 12.2368 29.184 27.1872 29.184 14.9504 0 27.2384-13.1584 27.2384-29.184l-2.048-277.1968a30.208 30.208 0 0 0-8.8576-21.5552 26.4704 26.4704 0 0 0-20.1216-9.5232h-268.288c-14.9504 0-27.1872 13.1072-27.1872 29.184 0 16.0256 12.288 29.1328 27.2384 29.1328h200.2432l-215.7568 231.2192a30.6688 30.6688 0 0 0 0 41.216 25.9584 25.9584 0 0 0 38.4512 0z" p-id="34702"></path></svg>