<svg t="1678868133776" class="icon" viewBox="0 0 1024 1024" version="1.1" xmlns="http://www.w3.org/2000/svg" p-id="4089" width="200" height="200"><path d="M406.6304 258.8672a18.5344 18.5344 0 0 1 17.2032-11.4688h367.3088a18.5344 18.5344 0 0 1 18.432 18.5344v367.3088a18.5344 18.5344 0 0 1-31.6416 13.1072L410.7264 279.1424a18.5344 18.5344 0 0 1-4.096-20.2752z m247.1936 499.3024L286.5152 390.8608a18.5344 18.5344 0 0 0-31.744 13.1072v367.3088a18.5344 18.5344 0 0 0 18.6368 18.5344h367.3088a18.5344 18.5344 0 0 0 13.1072-31.6416z" p-id="4090"></path></svg>