<?xml version="1.0" standalone="no"?><!DOCTYPE svg PUBLIC "-//W3C//DTD SVG 1.1//EN" "http://www.w3.org/Graphics/SVG/1.1/DTD/svg11.dtd"><svg t="1685416449587" class="icon" viewBox="0 0 1024 1024" version="1.1" xmlns="http://www.w3.org/2000/svg" p-id="8199" xmlns:xlink="http://www.w3.org/1999/xlink" width="200" height="200"><path d="M863.808 78.528c20.8 0 40.448 8.192 55.36 23.104 14.976 14.976 23.168 34.56 23.168 55.424v706.752c0 20.8-8.192 40.448-23.168 55.36-14.912 14.976-34.56 23.168-55.36 23.168H157.056c-20.8 0-40.448-8.192-55.424-23.168a77.952 77.952 0 0 1-23.104-55.36V157.056c0-20.8 8.192-40.448 23.104-55.424 14.976-14.912 34.56-23.104 55.424-23.104h706.752m0-78.528H157.056A157.504 157.504 0 0 0 0 157.056v706.752a157.504 157.504 0 0 0 157.056 157.056h706.752a157.504 157.504 0 0 0 157.056-157.056V157.056A157.504 157.504 0 0 0 863.808 0z" p-id="8200"></path><path d="M785.28 824.512H235.52a39.36 39.36 0 0 1-39.296-39.232c0-21.568 17.728-39.296 39.296-39.296h549.696c21.568 0 39.232 17.728 39.232 39.296a39.36 39.36 0 0 1-39.232 39.232zM628.224 273.6h157.056a39.36 39.36 0 0 0 39.232-39.232 39.36 39.36 0 0 0-39.232-39.296H628.224a39.36 39.36 0 0 0-39.296 39.296c0 21.568 17.728 39.232 39.296 39.232z m0 276.096h157.056a39.36 39.36 0 0 0 39.232-39.296 39.36 39.36 0 0 0-39.232-39.232H628.224a39.36 39.36 0 0 0-39.296 39.232c0 21.632 17.728 39.296 39.296 39.296zM471.168 196.288H235.584a39.36 39.36 0 0 0-39.296 39.296c0 21.568 17.728 39.232 39.296 39.232h78.528V549.76c0 21.568 17.664 39.232 39.232 39.232a39.36 39.36 0 0 0 39.296-39.232V274.816h78.528a39.36 39.36 0 0 0 39.232-39.232 39.36 39.36 0 0 0-39.232-39.296z" p-id="8201"></path></svg>