<?xml version="1.0" standalone="no"?><!DOCTYPE svg PUBLIC "-//W3C//DTD SVG 1.1//EN" "http://www.w3.org/Graphics/SVG/1.1/DTD/svg11.dtd"><svg class="icon" width="200px" height="200.00px" viewBox="0 0 1024 1024" version="1.1" xmlns="http://www.w3.org/2000/svg"><path d="M765.866667 0c14.592 0 28.757333 5.205333 40.362666 14.848 29.184 24.064 34.645333 69.12 12.373334 100.608L540.672 506.88v458.752c0 8.533333-1.877333 16.810667-5.376 24.405333l-0.597333 1.28c-13.141333 26.538667-43.776 36.608-68.266667 22.442667l-123.477333-71.253333a101.888 101.888 0 0 1-49.237334-88.576V508.501333L13.824 115.541333A75.434667 75.434667 0 0 1 0 73.216V71.68C0 32.170667 29.781333 0 66.474667 0h699.392z m222.890666 866.901333c19.029333 0 34.56 16.725333 34.56 37.290667 0 20.309333-15.104 36.864-33.792 37.290667H659.285333c-19.2 0-34.645333-16.64-34.645333-37.290667 0-20.309333 15.018667-36.778667 33.792-37.290667H988.672z m0-200.96c19.029333 0 34.56 16.725333 34.56 37.376 0 20.309333-15.104 36.778667-33.792 37.290667H659.285333c-19.2 0-34.645333-16.725333-34.645333-37.290667 0-20.394667 15.018667-36.864 33.792-37.376H988.672z m0-200.874666c19.029333 0 34.56 16.64 34.56 37.290666 0 20.309333-15.104 36.864-33.792 37.290667H659.285333c-19.2 0-34.645333-16.725333-34.645333-37.290667 0-20.309333 15.018667-36.864 33.792-37.290666H988.672z" /></svg>