<?xml version="1.0" standalone="no"?><!DOCTYPE svg PUBLIC "-//W3C//DTD SVG 1.1//EN" "http://www.w3.org/Graphics/SVG/1.1/DTD/svg11.dtd"><svg t="1672710650260" class="icon" viewBox="0 0 1024 1024" version="1.1" xmlns="http://www.w3.org/2000/svg" p-id="2235" xmlns:xlink="http://www.w3.org/1999/xlink" width="200" height="200"><path d="M564.60672 1000.128c-16.896 0-32.448-3.84-47.36-11.648l-129.152-71.744a96.704 96.704 0 0 1-51.328-86.016V421.952c0-5.76-3.2-12.288-7.744-15.488L30.46272 167.68l-3.2-3.84C-0.76928 136.128-7.23328 94.72 8.31872 58.496 23.99872 22.272 58.36672 0.256 98.04672 0.256h805.376c38.976 0 73.984 22.656 90.24 58.24a96 96 0 0 1-17.536 105.408l-3.904 3.84-302.464 241.28a20.608 20.608 0 0 0-7.104 15.488v477.312c0.64 55.04-43.52 98.304-97.984 98.304zM81.72672 109.568L379.00672 346.304c23.36 18.752 36.992 46.528 36.992 76.288v408.768c0 7.04 3.2 14.208 9.728 17.472l129.152 70.464c5.76 3.2 13.632 3.2 20.096 0a20.352 20.352 0 0 0 9.728-17.472V425.216c0-29.76 12.992-57.6 36.352-76.352l297.856-239.296a19.84 19.84 0 0 0 1.92-20.672 19.52 19.52 0 0 0-17.472-11.008H98.04672a18.496 18.496 0 0 0-17.536 11.008 19.712 19.712 0 0 0 1.28 20.672z" fill="#000000" opacity=".45" p-id="2236"></path><path d="M962.43072 515.712h-221.312a39.04 39.04 0 0 1-38.912-38.784 39.04 39.04 0 0 1 38.912-38.784h221.312a39.04 39.04 0 0 1 38.912 38.784 38.144 38.144 0 0 1-38.912 38.784z m0 146.176h-221.312a39.04 39.04 0 0 1-38.912-38.784 39.04 39.04 0 0 1 38.912-38.848h221.312a39.04 39.04 0 0 1 38.912 38.848 38.144 38.144 0 0 1-38.912 38.784z m0 145.536h-221.312a39.04 39.04 0 0 1-38.912-38.848 39.04 39.04 0 0 1 38.912-38.784h221.312a39.04 39.04 0 0 1 38.912 38.784 38.592 38.592 0 0 1-38.912 38.848z" fill="#000000" opacity=".45" p-id="2237"></path></svg>