<?xml version="1.0" standalone="no"?><!DOCTYPE svg PUBLIC "-//W3C//DTD SVG 1.1//EN" "http://www.w3.org/Graphics/SVG/1.1/DTD/svg11.dtd"><svg class="icon" width="200px" height="200.00px" viewBox="0 0 1024 1024" version="1.1" xmlns="http://www.w3.org/2000/svg"><path d="M165.1712 0A165.9904 165.9904 0 0 0 0 165.1712C0 236.3392 46.3872 296.96 110.08 320v230.5024h110.1312V319.9488c63.6928-22.8864 110.08-83.6096 110.08-154.7776A165.9904 165.9904 0 0 0 165.2224 0z m660.6336 0a165.1712 165.1712 0 0 0-155.4944 110.08h-229.888v110.1312h229.7856a165.1712 165.1712 0 0 0 272.384 61.696A165.1712 165.1712 0 0 0 825.8048 0zM165.1712 110.08A54.272 54.272 0 0 1 220.16 165.2224 54.272 54.272 0 0 1 165.1712 220.16 54.272 54.272 0 0 1 110.08 165.1712 54.272 54.272 0 0 1 165.1712 110.08z m605.5936 330.3424v220.2112l-126.2592 126.2592c-21.504 21.504-21.504 56.32 0 77.824l142.336 142.336a54.9888 54.9888 0 0 0 77.8752 0l142.336-142.336a54.9888 54.9888 0 0 0 0-77.824l-126.208-126.2592v-220.16h-110.08zM55.04 660.6336c-30.4128 0-55.04 24.6784-55.04 55.04v220.2624c0 30.3616 24.6272 55.04 55.04 55.04h220.2112c30.4128 0 55.0912-24.6784 55.0912-55.04v-220.2624c0-30.3616-24.6784-55.04-55.0912-55.04h-220.16z" fill="#126ee3" /></svg>