<svg t="1709519277939" class="icon" viewBox="0 0 1024 1024" version="1.1" xmlns="http://www.w3.org/2000/svg" p-id="8883" width="200" height="200"><path d="M881.664 18.944H137.728c-67.584 0-122.88 55.296-122.88 122.88V885.76c0 67.584 55.296 122.88 122.88 122.88h743.936c67.584 0 122.88-55.296 122.88-122.88V141.824c0-68.096-55.296-122.88-122.88-122.88z m61.44 122.88v340.992H540.16V80.384h341.504c33.792 0 61.44 27.648 61.44 61.44zM76.288 342.528V141.824c0-33.792 27.648-61.44 61.44-61.44H478.72v402.432H76.288V342.528z m0 543.232V544.256H478.72V947.2H137.728c-33.792 0-61.44-27.648-61.44-61.44z m805.376 61.44H540.16V544.256h402.944V885.76c0 33.792-27.648 61.44-61.44 61.44z" p-id="8884"></path></svg>