<svg t="1684569842797" class="icon" viewBox="0 0 1024 1024" version="1.1" xmlns="http://www.w3.org/2000/svg" p-id="6633" width="200" height="200"><path d="M918.869333 766.488381H80.749714a7.655619 7.655619 0 0 0-7.606857 7.606857v53.345524c0 4.193524 3.413333 7.606857 7.606857 7.606857h838.119619c4.193524 0 7.606857-3.413333 7.606857-7.606857v-53.345524a7.655619 7.655619 0 0 0-7.606857-7.606857z m0-601.916952H80.749714a7.655619 7.655619 0 0 0-7.606857 7.606857v53.345524c0 4.193524 3.413333 7.606857 7.606857 7.606857h838.119619c4.193524 0 7.606857-3.413333 7.606857-7.606857V172.178286a7.655619 7.655619 0 0 0-7.606857-7.606857z m-22.869333 476.208761c8.387048 0 15.262476-6.875429 15.262476-15.262476V374.101333a15.262476 15.262476 0 0 0-15.262476-15.262476h-487.619048a15.262476 15.262476 0 0 0-15.262476 15.262476v251.416381c0 8.387048 6.875429 15.262476 15.262476 15.262476h487.619048zM461.726476 427.446857h380.928v144.725333H461.775238V427.446857z m-373.321143 199.972572c0 4.193524 3.413333 7.606857 7.606857 7.606857h213.333334c4.193524 0 7.606857-3.413333 7.606857-7.606857v-53.345524a7.655619 7.655619 0 0 0-7.606857-7.606857H96.01219a7.655619 7.655619 0 0 0-7.655619 7.606857v53.345524z m7.606857-194.267429h213.333334c4.193524 0 7.606857-3.413333 7.606857-7.606857V372.199619a7.655619 7.655619 0 0 0-7.606857-7.606857H96.01219a7.655619 7.655619 0 0 0-7.655619 7.606857v53.345524c0 4.144762 3.413333 7.606857 7.655619 7.606857z" p-id="6634"></path></svg>