<svg t="1709521488853" class="icon" viewBox="0 0 1024 1024" version="1.1" xmlns="http://www.w3.org/2000/svg" p-id="42435" width="200" height="200"><path d="M25.6 93.184a61.44 61.44 0 1 0 122.88 0 61.44 61.44 0 1 0-122.88 0zM25.6 534.016a61.44 61.44 0 1 0 122.88 0 61.44 61.44 0 1 0-122.88 0zM25.6 947.712a61.44 61.44 0 1 0 122.88 0 61.44 61.44 0 1 0-122.88 0zM982.528 61.44H307.2a9.178 9.178 0 0 0-9.216 9.216v45.568a9.178 9.178 0 0 0 9.216 9.216h674.816a9.178 9.178 0 0 0 9.216-9.216V70.656c1.024-5.12-3.584-9.216-8.704-9.216z m0 437.248H307.2a9.178 9.178 0 0 0-9.216 9.216v45.568a9.178 9.178 0 0 0 9.216 9.216h674.816a9.178 9.178 0 0 0 9.216-9.216v-45.568c1.024-5.12-3.584-9.216-8.704-9.216z m0 416.768H307.2a9.178 9.178 0 0 0-9.216 9.216v45.568a9.178 9.178 0 0 0 9.216 9.216h674.816a9.178 9.178 0 0 0 9.216-9.216v-45.568c1.024-5.12-3.584-9.216-8.704-9.216z" p-id="42436"></path></svg>