<?xml version="1.0" standalone="no"?><!DOCTYPE svg PUBLIC "-//W3C//DTD SVG 1.1//EN" "http://www.w3.org/Graphics/SVG/1.1/DTD/svg11.dtd"><svg t="1678867670640" class="icon" viewBox="0 0 1194 1024" version="1.1" xmlns="http://www.w3.org/2000/svg" p-id="3663" xmlns:xlink="http://www.w3.org/1999/xlink" width="233.203125" height="200"><path d="M1189.205333 571.989333V276.992l0.170667-0.938667-0.170667-1.024V42.410667A42.410667 42.410667 0 0 0 1146.794667 0H43.776a42.410667 42.410667 0 0 0-42.410667 42.410667v232.618666l-0.256 1.024c0 0.256 0.256 0.597333 0.256 0.938667v294.997333l-0.256 1.024c0 0.341333 0.256 0.597333 0.256 1.024v359.253334c0 23.466667 18.944 42.496 42.410667 42.496h1103.018667a42.410667 42.410667 0 0 0 42.410666-42.496v-359.253334l0.170667-1.024-0.170667-1.024z m-742.4-41.472V318.464h275.712v212.053333H446.805333z m275.712 84.906667v275.456H446.805333V615.424h275.712zM86.186667 318.464H361.813333v212.053333H86.186667V318.464z m721.237333 0h296.96v212.053333h-296.96V318.464z m296.96-233.642667v148.736H86.186667V84.821333h1018.197333zM86.186667 615.424H361.813333v275.456H86.186667V615.424z m721.237333 275.456V615.424h296.96v275.456h-296.96z" p-id="3664"></path></svg>