<svg t="1686100319129" class="icon" viewBox="0 0 1242 1024" version="1.1" xmlns="http://www.w3.org/2000/svg" p-id="8089" width="200" height="200"><path d="M880.387435 786.287133l-88.572466-88.636004c22.111347-33.167021 38.758396-71.988955 38.758396-116.275189 0-105.155976-88.572466-193.79198-193.79198-193.79198s-193.79198 88.636004-193.79198 193.79198c0 105.219514 88.572466 193.79198 193.79198 193.791981 44.286233 0 83.044629-16.58351 116.275188-38.758396l88.572466 88.636004a26.749647 26.749647 0 0 0 38.758396 0 26.749647 26.749647 0 0 0 0-38.758396z m-243.60605-66.461119a137.05223 137.05223 0 0 1-138.450073-138.450074c0-77.516792 60.933282-138.386535 138.450073-138.386535 77.516792 0 138.386535 60.869743 138.386536 138.386535s-60.869743 138.450074-138.386536 138.450074z" p-id="8090"></path><path d="M415.286683 775.167921H110.747351c-33.230559 0-55.405445-22.111347-55.405445-55.341907V110.747351c0-33.230559 22.174886-55.405445 55.405445-55.405445h498.331312c33.230559 0 55.405445 22.174886 55.405445 55.405445v193.79198c0 16.58351 11.055674 27.702722 27.639184 27.702723 16.647049 0 27.702722-11.119212 27.702722-27.702723v-193.79198c0-60.933282-49.81407-110.747351-110.747351-110.747351H110.747351C49.81407 0 0 49.81407 0 110.747351v609.078663c0 60.933282 49.81407 110.747351 110.747351 110.747351h304.539332c16.58351 0 27.702722-11.055674 27.702722-27.702722 0-16.58351-11.119212-27.702722-27.702722-27.702722z" p-id="8091"></path><path d="M193.79198 221.494703c-16.58351 0-27.702722 11.055674-27.702722 27.702722 0 16.58351 11.119212 27.639184 27.702722 27.639184h332.242054c16.58351 0 27.702722-11.055674 27.702722-27.639184 0-16.647049-11.119212-27.702722-27.702722-27.702722H193.79198zM359.881238 387.58396H193.79198c-16.58351 0-27.702722 11.119212-27.702722 27.702723s11.119212 27.702722 27.702722 27.702722h166.089258c16.647049 0 27.702722-11.119212 27.702722-27.702722S376.528287 387.58396 359.881238 387.58396z" p-id="8092"></path></svg>