<?xml version="1.0" standalone="no"?><!DOCTYPE svg PUBLIC "-//W3C//DTD SVG 1.1//EN" "http://www.w3.org/Graphics/SVG/1.1/DTD/svg11.dtd"><svg t="1710838569613" class="icon" viewBox="0 0 1024 1024" version="1.1" xmlns="http://www.w3.org/2000/svg" p-id="8385" xmlns:xlink="http://www.w3.org/1999/xlink" width="200" height="200"><path d="M480.18944 542.66368l0.00512 0.0512v-0.09728zM733.12256 516.63872c-1.62304 0-3.21024 0.16896-4.78208 0.4352v-0.4352h-190.82752V240.54784c0-15.85664-12.82048-28.71808-28.65152-28.71808a28.69248 28.69248 0 0 0-28.65664 28.71808V545.33632c0-0.72704 0.05632-1.41824 0.10752-2.14016 1.1008 16.53248 14.23872 29.7216 30.71488 30.79168-0.7168 0.06144-1.42336 0.11264-2.16576 0.11264h219.4944v-0.42496c1.57184 0.25088 3.1488 0.42496 4.78208 0.42496a28.68224 28.68224 0 0 0 28.66688-28.71296c-0.0256-15.88224-12.84608-28.7488-28.68224-28.7488z" p-id="8386"></path><path d="M511.99488 66.56C757.61664 66.56 957.44 266.38336 957.44 511.99488 957.44 757.61664 757.61664 957.44 511.99488 957.44 266.38336 957.44 66.56 757.61664 66.56 511.99488 66.56 266.38336 266.38336 66.56 511.99488 66.56m0-61.44C232.04864 5.12 5.12 232.05376 5.12 511.99488 5.12 791.94112 232.04864 1018.88 511.99488 1018.88 791.94112 1018.88 1018.88 791.94112 1018.88 511.99488 1018.88 232.05376 791.94112 5.12 511.99488 5.12z" p-id="8387"></path></svg>