<svg t="1687332367084" class="icon" viewBox="0 0 1024 1024" version="1.1" xmlns="http://www.w3.org/2000/svg" p-id="9015" width="200" height="200"><path d="M655.658667 383.445333c-16.853333-13.098667-31.829333-59.904-57.429334-69.888-23.68-1.877333-32.426667-9.386667-63.658666-3.114666 11.264-5.632 21.845333-13.098667 33.706666-16.853334 8.106667-1.877333 15.616 0 23.722667 1.28 1.877333-0.64 3.114667-1.92 2.517333-3.797333-31.232-19.328-95.488-19.328-139.178666-30.549333 50.517333 1.834667 106.069333-1.28 144.170666 11.221333 30.592 26.837333 40.533333 77.994667 56.149334 111.701333z m92.373333-226.56c6.869333 0.64 44.330667 59.946667 46.208 69.930667 3.114667 21.845333 10.624 45.568 13.098667 68.650667a787.2 787.2 0 0 0-21.205334-64.938667c-2.517333-6.229333-8.746667-19.328-26.24-38.698667-8.106667-13.696-9.984-24.32-11.861333-34.944z m127.36 323.925334h-16.213333l17.450666 7.338666-1.28-7.338666z m-109.866667-15.573334c-16.213333-1.877333-32.426667-2.517333-48.682666 1.237334-6.869333 8.746667-6.869333 18.090667-9.984 26.197333 19.328-21.845333 27.477333-23.04 58.666666-27.434667z m220.928 111.701334c-8.704 6.869333-9.984 13.738667-36.821333 21.845333-19.328 4.394667-30.549333-3.114667-39.296-13.738667 13.738667 3.754667 16.213333 14.378667 53.034667 2.517334l23.082666-10.624z m-80.512 4.394666c-6.229333 18.090667-13.696 35.584-20.565333 52.394667-16.853333 20.010667-9.386667 8.746667-34.986667 38.698667 8.106667-12.458667 18.773333-24.32 23.722667-37.418667 3.754667-8.746667 8.746667-17.493333 10.624-24.96-6.826667-3.157333-19.968-3.754667-21.845333-2.517333-22.485333 13.098667-26.197333 26.88-39.338667 40.533333 9.386667-14.933333 17.493333-31.786667 28.714667-45.525333 1.28-1.877333 9.386667-1.877333 14.378666-3.114667-8.106667-1.28-22.485333-4.352-23.722666-3.754667-14.378667 3.754667-22.485333 16.213333-33.706667 24.32 8.106667-11.221333 14.976-23.04 24.96-33.066666 1.28-1.237333 28.074667 1.28 41.813333 6.869333v5.632l8.106667 3.114667 6.272-14.976 15.573333-6.229334z m-176.64 107.349334c-3.712-1.28-35.541333-5.632-35.541333-4.394667-12.501333 8.746667-13.738667 16.853333-13.738667 24.32 19.968-19.925333 19.328-19.925333 49.28-19.925333z m-24.32-143.573334s23.082667-3.114667 22.485334-1.237333c-1.877333 8.106667 3.114667 27.477333 3.114666 24.32l-13.098666 10.666667c26.837333-13.781333 55.509333-10.666667 84.224-13.141334 0 0-24.32-6.826667-22.442667-6.826666 5.589333-0.682667-1.28-25.002667-3.114667-25.6 4.352-1.28 9.386667-2.56 13.696-3.754667-34.944-8.746667-54.912-3.754667-84.864 15.573333z" p-id="9016"></path><path d="M902.826667 562.602667l-4.992 2.474666c-0.597333-14.933333-16.853333-13.696-29.952-13.696l-11.221334-2.517333c3.114667 3.114667 13.738667 3.114667 9.386667 9.386667-3.797333 1.834667-5.034667 9.941333-6.912 16.810666h-6.229333c10.624 4.394667 20.608 7.509333 31.829333 12.501334l6.826667 1.28 16.256-8.789334-4.992-17.493333zM360.448 875.306667l7.509333 0.597333c44.928 21.845333 119.210667 54.954667 227.157334 37.461333l16.853333 26.88c-47.402667 23.04-98.602667 17.450667-146.048 19.328l-105.472-84.266666z m-64.896-175.36l22.442667 94.848c60.586667 38.058667 164.181333 81.109333 250.282666 77.397333l-19.328-43.690667c-179.754667-37.461333-194.730667-86.186667-253.44-128.597333z m56.149333-194.133334c11.221333 73.642667 25.6 129.194667 89.898667 176 39.296 28.074667 77.994667 56.149333 125.44 79.274667 0 0-4.352 21.845333-7.466667 21.205333-141.098667-15.616-244.053333-132.309333-256.554666-186.026666 11.861333-40.533333 29.354667-66.133333 48.682666-90.453334z m67.413334-41.813333c18.730667 81.749333 63.658667 164.138667 107.946666 239.018667 16.256 20.608 20.650667 29.952 45.610667 42.453333 33.706667 10.624 58.026667 8.106667 82.346667 6.229333-6.826667-12.458667-12.458667-25.6-20.565334-37.418666-54.912-43.690667-29.952-83.626667-14.976-108.629334-30.592-7.466667-71.168-24.32-76.8-46.165333-8.704-69.930667-3.712-91.733333 5.034667-128-41.216 8.789333-83.626667 17.493333-128.597333 32.512z" p-id="9017"></path><path d="M225.621333 66.986667c-23.722667 24.362667-39.296 48.085333-63.018666 65.578666-4.992 4.352-18.090667 10.581333-34.986667 11.861334-8.106667 0.597333-13.098667 1.877333-27.434667 0-13.098667-6.869333-24.96-2.517333-36.821333 11.861333C50.261333 174.933333 33.408 210.56 26.538667 233.685333c-3.968 15.701333-8.405333 7.765333-1.408 44.970667 6.997333 37.205333 32.938667 69.290667 58.197333 95.445333 31.189333 29.952 48.64 49.322667 61.141333 76.8 9.386667 18.090667 16.853333 42.410667 24.362667 59.904 2.517333 5.589333 2.517333 5.589333 9.984 6.826667 16.213333 3.754667 38.698667 3.754667 58.666667 5.034667 8.746667 0 20.608 0 31.829333-1.28 15.616-3.114667 16.170667-3.754667 32.085333-5.802667 15.957333-2.048 12.586667-1.834667 25.088 0 4.693333 3.370667-3.498667 13.952-7.850666 20.778667-40.576 58.026667-44.714667 91.136-37.248 172.288 3.754667 36.181333 15.189333 68.352 27.690666 102.698666 5.589333 15.616 20.181333 47.701333 31.402667 63.957334 34.986667 49.28 99.84 105.770667 207.829333 130.133333 18.773333 2.474667 65.408 1.450667 86.016-4.138667 53.077333-16.213333 159.274667-61.738667 159.274667-61.738666s-96.725333 8.106667-140.416 3.754666c-9.984-1.877333-21.248-1.877333-28.714667-9.386666-1.28-1.194667-5.632-9.941333-2.517333-10.581334 3.754667 0 14.976-4.352 31.829333-6.229333-36.181333-3.754667-35.541333-3.754667-38.058666-10.624a381.482667 381.482667 0 0 0-16.853334-36.181333c15.616 1.237333 51.2 3.114667 63.061334-8.746667 0 0-20.608 2.474667-39.338667 0a98.389333 98.389333 0 0 1-19.968-5.632c-8.106667-3.114667-14.976-4.352-16.853333-6.229333-3.114667-7.509333-4.992-9.984-8.106667-19.370667-4.992-13.098667-4.992-27.434667-6.272-40.533333 11.861333 14.933333 27.477333 27.434667 47.445333 33.706666 0-0.64 26.24 11.221333 45.568 4.992l3.754667-1.28c0 0.64-12.501333 1.28-17.493333-1.237333-38.698667-16.213333-44.288-30.592-50.56-38.058667l-16.853334-24.96c4.992-9.984 8.106667-10.666667 14.378667-10.666666 19.968 2.56 29.312 3.797333 41.173333 1.28 8.106667 17.493333 10.624 34.346667 29.354667 46.805333 63.018667 18.773333 76.8-5.589333 92.373333-26.837333 45.568 33.706667 119.850667 43.690667 171.008 0.64 65.536-75.52 86.144-194.730667 80.512-201.6-8.106667-13.738667-18.730667-28.074667-28.074666-26.24-33.066667 8.746667-44.928 25.6-77.397334 21.845333 3.754667 0 10.624 0 10.624-0.597333 2.474667-27.477333 0-40.576-1.28-43.093334-9.984-21.845333-23.04-44.928-31.829333-61.781333-2.474667-3.754667-9.386667-30.592-20.565333-41.173333a3060.906667 3060.906667 0 0 1-16.853334-14.976l-1.28 11.861333s4.992 0.597333 6.272 8.106667c6.826667 27.434667 41.173333 93.013333 43.690667 96.128 12.458667 19.968 1.237333 44.288 10.581333 58.026666 0.64 1.877333 18.773333 0 33.109334 0.64 23.082667-4.992 24.96-6.869333 44.928-8.746666 13.738667-1.28 3.114667 34.858667 2.474666 36.736-2.474667 28.117333-10.325333 44.8-22.784 74.752-26.88 51.797333-43.946667 83.242667-87.04 89.472-52.437333 9.386667-84.266667-1.877333-112.341333-16.213334l-10.624 9.386667c-36.821333 36.778667-80.512 33.066667-98.005333-14.378667-8.704-18.730667-20.565333-29.952-30.549334-45.568l-52.48 38.058667c-4.352 8.746667-9.941333 23.125333-16.213333 38.698667-4.352 11.264-8.106667 29.994667-8.106667 45.568-6.826667 11.264 23.082667 58.026667 42.453334 86.144 5.632 8.106667 16.213333 23.082667 16.213333 23.722666 3.754667 9.984 11.861333 18.730667 12.501333 19.328 35.584 46.208-44.330667 35.584-61.184 32.469334-32.426667-4.992-64.256-18.730667-94.250666-36.821334-1.877333-1.28-3.712-1.877333-4.992-3.114666-35.584-22.485333-68.010667-51.2-96.085334-79.274667-16.853333-18.730667-32.469333-57.429333-44.373333-84.266667-17.450667-65.536-42.410667-179.114667 25.6-265.258666 4.394667-4.992 8.746667-13.098667 13.141333-14.976a184.746667 184.746667 0 0 1 65.536-28.074667l-2.517333-14.976c-11.861333 2.474667-51.797333 8.618667-63.018667 14.208-25.6 7.509333-36.224 6.4-68.693333 14.506667-10.581333 1.237333-21.802667 5.589333-32.426667 4.352-23.082667-3.114667-66.048-5.930667-68.565333-7.765334-15.573333-21.845333-10.666667-45.909333-25.045333-67.157333-8.746667-11.221333-24.96-26.197333-34.986667-35.541333-34.304-34.346667-65.493333-56.192-73.6-91.733334-1.877333-10.666667-3.114667-18.773333 0-49.322666 8.106667-28.714667 11.136-43.093333 34.218667-66.176 23.722667 0.597333 37.546667-5.632 56.234666-1.877334 8.746667 1.28 36.352 7.509333 54.485334 14.336 46.165333 16.853333 105.941333 33.109333 105.941333 33.109334-45.568-24.96-96.725333-57.429333-128.554667-64.298667-4.992-0.64 4.352-12.501333 2.474667-16.213333C227.498667 115.712 229.717333 96.981333 261.546667 66.986667c14.336-6.272 14.634667-7.168 27.136-8.405334 114.218667 18.090667 182.272 72.277333 244.650666 92.842667 25.002667 8.277333 41.216 20.992 61.184 32.853333 17.493333 5.589333 62.848 44.8 78.464 66.602667 15.616 33.109333 23.253333 64.938667 33.877334 99.84 7.466667 35.626667 14.037333 45.226667 14.037333 45.226667s7.808-24.405333 8.405333-29.994667c6.869333 2.474667 22.485333 7.466667 28.714667 6.826667 0 0-29.312-14.933333-33.066667-28.074667-12.458667-42.410667-24.32-109.226667-28.074666-112.341333-9.386667-11.861333-48.085333-41.173333-71.765334-54.912-8.746667-4.992-8.746667-3.413333-9.386666-5.248 7.509333-7.466667 21.845333-21.589333 30.592-27.818667 8.106667-6.272 15.445333-12.501333 26.666666-16.853333 49.28-22.485333 54.357333-2.517333 62.933334 0 8.576 2.474667 12.757333 2.474667 17.749333 4.992 4.992 2.474667 22.186667 9.984 24.021333 11.861333 18.090667 14.336 44.032 46.165333 72.106667 101.12 6.826667 13.098667 8.106667 23.637333 4.992 39.850667a235.946667 235.946667 0 0 1-9.386667 36.608c-3.114667 6.826667-23.936 54.613333-23.936 61.44-3.754667 26.88 24.576 59.306667 24.576 59.306666 0-9.386667-0.64-14.336 0-20.608l1.28-11.861333s-0.64-3.114667-0.64-4.352c0.597333-8.106667 2.474667-14.976 3.114667-19.328 5.589333-34.986667 15.616-49.237333 26.837333-80.426667 3.114667-7.509333 7.466667-23.210667 7.466667-29.44 0-10.624-9.386667-24.32-16.213333-38.698666-7.509333-15.616-16.213333-31.189333-25.6-46.208-24.32-35.541333-45.568-63.018667-83.626667-80.512-10.624-4.992-53.674667-15.872-68.010667-13.397334-17.493333 3.754667-32.469333 14.037333-44.373333 21.546667-19.328 12.458667-34.304 31.189333-51.754667 42.410667-38.698667-19.328-57.429333-34.304-61.184-36.181334-23.082667-12.501333-51.2-26.88-80.512-40.576C437.205333 69.504 348.586667 37.077333 266.794667 30.805333c-13.696 8.746667-26.794667 21.845333-41.173334 36.224z m539.306667 690.346666c-23.765333-18.730667-44.373333-38.058667-57.472-58.026666-4.352 23.04-19.968 39.936-32.426667 56.149333-2.517333 3.754667-4.394667 9.386667 7.466667 25.6 3.114667 4.352 14.976 4.992 22.485333 4.992-8.106667-6.229333-19.968-12.501333-21.845333-18.090667 14.336 9.344 26.837333 12.458667 38.698667 10.581334 2.474667 0 6.229333-3.114667 8.746666-7.466667 4.992-11.264 9.386667-13.738667 13.738667-16.853333l9.344 11.861333 11.221333-8.746667z" p-id="9018"></path></svg>