<?xml version="1.0" standalone="no"?><!DOCTYPE svg PUBLIC "-//W3C//DTD SVG 1.1//EN" "http://www.w3.org/Graphics/SVG/1.1/DTD/svg11.dtd"><svg t="1693639203234" class="icon" viewBox="0 0 1024 1024" version="1.1" xmlns="http://www.w3.org/2000/svg" p-id="24658" xmlns:xlink="http://www.w3.org/1999/xlink" width="200" height="200"><path d="M833.024 1003.52h-262.144v-209.92H446.976v209.92H184.32c-40.96 0-74.24-33.28-74.24-74.752v-340.992H66.56c-16.384 0-32.256-6.656-44.032-17.92-23.552-23.552-23.552-62.464 0.512-86.528L468.992 44.032c2.048-2.56 4.608-5.12 7.168-6.656 14.336-11.776 31.744-17.408 50.176-16.896 19.968 1.024 38.4 9.216 52.224 24.064l423.936 465.408c10.24 11.264 16.384 26.112 16.384 41.472 0 33.792-27.648 61.44-61.44 61.44h-49.664v315.904c0 40.96-33.28 74.752-74.752 74.752z m-200.192-61.44h200.704c7.168 0 12.8-6.144 12.8-13.312v-377.344H957.44l-423.936-465.408c-3.072-3.584-7.168-4.096-9.216-4.096-2.048 0-5.632 0-8.704 3.072l-0.512 0.512-448.512 440.32h104.448v402.432c0 7.168 6.144 13.312 12.8 13.312h201.216v-157.184c0-29.184 23.552-52.736 52.736-52.736h141.312c29.184 0 52.736 23.552 52.736 52.736V942.08z" p-id="24659"></path></svg>