<?xml version="1.0" standalone="no"?><!DOCTYPE svg PUBLIC "-//W3C//DTD SVG 1.1//EN" "http://www.w3.org/Graphics/SVG/1.1/DTD/svg11.dtd"><svg class="icon" width="200px" height="200.00px" viewBox="0 0 1024 1024" version="1.1" xmlns="http://www.w3.org/2000/svg"><path d="M274.659556 708.152889a39.708444 39.708444 0 0 0-39.424 39.879111 39.651556 39.651556 0 0 0 39.651555 39.651556 39.708444 39.708444 0 0 0 39.537778-39.822223 39.651556 39.651556 0 0 0-39.765333-39.708444z m0-471.552a39.708444 39.708444 0 0 0-39.424 39.936 39.651556 39.651556 0 0 0 39.651555 39.651555 39.651556 39.651556 0 0 0 39.537778-39.822222 40.220444 40.220444 0 0 0-39.765333-39.936v0.170667z m0 235.292444a39.708444 39.708444 0 0 0-39.480889 39.879111 39.708444 39.708444 0 0 0 39.708444 39.708445 39.708444 39.708444 0 0 0 39.537778-39.822222 39.651556 39.651556 0 0 0-39.765333-40.106667v0.341333zM863.800889 0.341333H157.582222A156.785778 156.785778 0 0 0 0.967111 157.184V864.142222a156.785778 156.785778 0 0 0 156.672 156.842667h706.161778a156.785778 156.785778 0 0 0 156.672-156.842667V156.842667A158.264889 158.264889 0 0 0 863.914667 0l-0.113778 0.341333z m78.279111 865.052445c0 20.821333-8.305778 40.789333-22.983111 55.523555a77.937778 77.937778 0 0 1-55.296 22.926223H157.582222a77.937778 77.937778 0 0 1-55.352889-22.926223 78.734222 78.734222 0 0 1-22.983111-55.523555V158.037333c0-20.878222 8.305778-40.846222 22.983111-55.523555a77.937778 77.937778 0 0 1 55.352889-22.926222h706.161778c20.707556 0 40.618667 8.192 55.296 22.926222 14.677333 14.677333 22.983111 34.702222 22.983111 55.523555v707.356445zM745.699556 236.885333H431.445333a39.708444 39.708444 0 0 0-39.594666 39.822223c0 21.902222 17.749333 39.765333 39.594666 39.765333h314.538667a39.253333 39.253333 0 0 0 39.708444-39.822222 40.163556 40.163556 0 0 0-39.822222-40.220445l-0.170666 0.455111z m0 235.235556H431.445333a39.594667 39.594667 0 0 0-35.271111 19.569778 39.992889 39.992889 0 0 0 0 40.504889c7.395556 12.515556 20.878222 19.911111 35.271111 19.512888h314.538667a39.594667 39.594667 0 0 0 35.271111-19.512888 39.992889 39.992889 0 0 0 0-40.504889 39.594667 39.594667 0 0 0-35.271111-19.569778h-0.284444z m0 236.430222H431.445333a39.708444 39.708444 0 0 0-39.594666 39.822222c0 21.959111 17.749333 39.822222 39.594666 39.822223h314.538667a39.708444 39.708444 0 0 0 39.594667-39.822223c0-22.016-17.749333-39.822222-39.594667-39.822222h-0.284444z" /></svg>