<?xml version="1.0" standalone="no"?><!DOCTYPE svg PUBLIC "-//W3C//DTD SVG 1.1//EN" "http://www.w3.org/Graphics/SVG/1.1/DTD/svg11.dtd"><svg t="1666072390455" class="icon" viewBox="0 0 1027 1024" version="1.1" xmlns="http://www.w3.org/2000/svg" p-id="1253" xmlns:xlink="http://www.w3.org/1999/xlink" width="200.5859375" height="200"><path d="M79.460206 498.468571v358.326858c0 50.468571 40.96 91.355429 91.428571 91.355428h689.517714a91.355429 91.355429 0 0 0 91.428572-91.355428V167.204571a91.355429 91.355429 0 0 0-91.428572-91.355428H530.971063A37.961143 37.961143 0 0 1 530.971063 0h329.435428A167.204571 167.204571 0 0 1 1027.611063 167.204571v689.590858A167.204571 167.204571 0 0 1 860.406491 1024H170.815634A167.204571 167.204571 0 0 1 3.611063 856.795429V498.468571a37.961143 37.961143 0 1 1 75.849143 0z" p-id="1254"></path><path d="M39.524206 123.245714l17.554285 0.877715A491.227429 491.227429 0 0 1 516.269349 539.794286a37.961143 37.961143 0 0 0 74.971428-11.629715A567.076571 567.076571 0 0 0 61.174491 48.420571L43.620206 47.469714A37.961143 37.961143 0 1 0 39.451063 123.245714z" p-id="1255"></path><path d="M551.524206 527.725714L389.366491 439.076571a37.961143 37.961143 0 0 0-36.352 66.56l173.714286 94.939429a61.659429 61.659429 0 0 0 81.334857-20.626286l108.544-167.789714a37.961143 37.961143 0 1 0-63.707428-41.252571L551.451063 527.725714z" p-id="1256"></path></svg>