<svg t="1686100114627" class="icon" viewBox="0 0 1024 1024" version="1.1" xmlns="http://www.w3.org/2000/svg" p-id="7804" width="200" height="200"><path d="M739.584 108.16c-65.792 20.48-122.368 52.48-168.192 95.36a398.272 398.272 0 0 0-92.096 130.752 449.152 449.152 0 0 0-36.8 145.536h-53.696c-1.28 0-2.88 0-4.224 0.192-16.32-87.808-96.64-151.872-190.464-151.872-106.688 0.192-193.28 82.304-193.28 183.68 0 101.44 86.528 183.68 193.28 183.68 93.312-0.192 173.248-63.488 190.208-150.656 1.6 0.256 2.944 0.256 4.48 0.256h53.696c1.984 27.072 9.216 83.584 36.8 145.92a397.056 397.056 0 0 0 92.096 130.752c45.824 43.072 102.592 75.072 168.384 95.552 14.144 62.08 71.872 106.496 138.56 106.496 78.144 0 141.44-60.416 141.696-134.656 0-74.24-63.552-134.4-141.696-134.592-63.552 0-117.44 39.872-135.36 94.528-93.248-33.28-160.128-94.336-199.232-181.376a390.976 390.976 0 0 1-32.064-122.88h229.248c15.808 59.904 72.448 101.888 137.408 102.016 78.144 0 141.44-60.416 141.696-134.656 0-74.24-63.552-134.592-141.696-134.592-64.96 0-121.6 42.048-137.408 101.952H511.68c1.984-23.68 8.96-69.504 31.168-120.064 39.04-88.576 106.688-150.208 200.768-183.68 19.072 55.424 73.408 92.992 134.72 93.184 78.144 0 141.44-60.352 141.696-134.592 0.256-74.048-63.36-134.4-141.44-134.4-67.584 0-125.568 45.44-139.008 108.16z m139.008 712.128c40.192 0 72.96 31.104 72.96 69.312s-32.768 69.312-72.96 69.312c-40.192 0-72.768-30.912-72.96-69.312 0-38.4 32.768-69.312 72.96-69.312zM194.112 630.208c-68.736 0-124.416-53.12-124.608-118.4 0-65.28 55.872-118.4 124.608-118.4s124.608 53.12 124.608 118.4-55.872 118.4-124.608 118.4z m684.48-186.88c40.192 0 72.96 31.104 72.96 69.312s-32.768 69.312-72.96 69.312c-40.192 0-72.768-30.912-72.96-69.312 0-38.4 32.768-69.312 72.96-69.312z m72.768-308.736c0 38.208-32.832 69.376-72.96 69.376-40.256 0-72.768-30.976-73.024-69.376 0-38.144 32.768-69.312 72.96-69.312 40.448 0 72.96 31.168 72.96 69.312z" p-id="7805"></path></svg>