<?xml version="1.0" standalone="no"?><!DOCTYPE svg PUBLIC "-//W3C//DTD SVG 1.1//EN" "http://www.w3.org/Graphics/SVG/1.1/DTD/svg11.dtd"><svg t="1690185122942" class="icon" viewBox="0 0 1024 1024" version="1.1" xmlns="http://www.w3.org/2000/svg" p-id="10555" xmlns:xlink="http://www.w3.org/1999/xlink" width="200" height="200"><path d="M453.34016 775.168c3.584 29.696 24.064 48.64 48.128 34.304 57.344-34.304 130.56-78.336 118.272-96.256-12.288-17.92-68.608 34.816-82.432 18.944-13.824-15.872 78.848-289.792 57.856-311.808-20.992-22.016-59.904-37.376-204.288 93.696-11.776 10.752-10.24 29.696 18.944 18.432 29.184-12.288 107.008-63.488 111.104-28.672 0 0-72.192 242.176-67.584 271.36z m188.928-508.928c0 30.9504-29.7984 56.32-61.11744 56.32-31.31392 0-51.52256-25.3696-51.52256-56.32s29.80352-56.32 61.12256-56.32c31.31392 0 51.51744 25.3696 51.51744 56.32z" fill="#505050" p-id="10556"></path><path d="M511.744 1003.52c-63.232 0-126.976-12.3392-187.12576-37.53984-121.3184-49.87904-215.9104-144.50176-266.2912-265.34912-50.3808-120.84736-50.3808-254.55104-0.512-375.9104 49.8688-121.36448 144.45568-215.98208 265.2672-266.37824 121.3184-50.39616 254.976-50.39616 376.29952-0.512 121.3184 49.87904 215.9104 144.49664 266.2912 265.344 50.3808 121.36448 50.3808 254.55104 0.512 375.9104-49.8688 121.36448-144.45568 215.9872-265.2672 266.38336C639.75424 990.66368 575.488 1003.52 511.744 1003.52z m0.01024-911.36c-54.59968 0-109.19424 10.92096-160.8192 32.27136-103.7312 42.69056-184.13568 123.61216-226.82112 227.36896-42.68544 103.76192-42.68544 217.4464 0.49664 321.2032 43.17696 103.7568 123.58656 184.18176 227.32288 226.87744 103.7312 42.69568 217.3952 42.69568 321.1264-0.49664 103.23968-43.19232 184.1408-123.61728 226.82624-227.37408 42.68544-103.7568 42.68544-217.4464-0.49664-321.2032-43.17696-103.26016-123.58656-184.18176-227.32288-226.87232A419.61472 419.61472 0 0 0 511.75424 92.16z" fill="#505050" p-id="10557"></path></svg>