<?xml version="1.0" encoding="UTF-8"?>
<svg width="32px" height="32px" viewBox="0 0 32 32" version="1.1" xmlns="http://www.w3.org/2000/svg" xmlns:xlink="http://www.w3.org/1999/xlink">
    <g id="信息系统" stroke="none" stroke-width="1" fill="none" fill-rule="evenodd">
        <g id="1216" transform="translate(-264.000000, -182.000000)" fill="#126EE3" fill-rule="nonzero">
            <g id="1备份-13" transform="translate(244.000000, 162.000000)">
                <g id="icon" transform="translate(20.000000, 20.000000)">
                    <rect id="矩形" fill-opacity="0.0599999987" x="0" y="0" width="32" height="32"></rect>
                    <g id="信息系统-面性" transform="translate(8.303625, 8.231507)">
                        <rect id="矩形" opacity="0" x="1.06619634e-07" y="8.72310851e-16" width="15.3461107" height="14.5738159"></rect>
                        <path d="M0,10.2172554 C0,10.5320247 0.127087419,10.8339471 0.35366411,11.0565693 C0.580240801,11.2791915 0.887601847,11.4042672 1.20809695,11.4042671 L7.15850425,11.4042671 L7.15850425,13.2827808 L3.29371888,13.2827808 C3.00985224,13.2827808 2.77973286,13.5087889 2.77973286,13.7875842 C2.77973286,14.0663794 3.00985224,14.2923876 3.29371888,14.2923876 L12.0502473,14.2923876 C12.334258,14.2923876 12.5644942,14.0662647 12.5644942,13.787328 C12.5644942,13.5083913 12.334258,13.2822684 12.0502473,13.2822684 L8.18596911,13.2822684 L8.18596911,11.4042671 L14.1358692,11.4042671 C14.4563618,11.4042634 14.7637191,11.279186 14.9902927,11.0565642 C15.2168663,10.8339424 15.3439517,10.5320222 15.3439517,10.2172554 L15.3439517,9.57650567 L0,9.57650567 L0,10.2172412 L0,10.2172554 Z M14.1358692,8.72310851e-16 L1.20757526,8.72310851e-16 C0.540565543,0.00028288263 1.06619634e-07,0.531420252 1.06619634e-07,1.18651356 L1.06619634e-07,8.56688465 L15.3439516,8.56688465 L15.3439516,1.18651356 C15.3439516,0.531225773 14.803077,8.72310851e-16 14.1358692,8.72310851e-16 Z" id="形状"></path>
                    </g>
                </g>
            </g>
        </g>
    </g>
</svg>