<svg t="1673505612195" class="icon" viewBox="0 0 1024 1024" version="1.1" xmlns="http://www.w3.org/2000/svg" p-id="2125" width="200" height="200"><path d="M512 1024c-282.368 0-512-229.632-512-512s229.632-512 512-512 512 229.632 512 512-229.632 512-512 512zM512 62.08A450.24 450.24 0 0 0 62.08 512 450.24 450.24 0 0 0 512 961.92 450.24 450.24 0 0 0 961.92 512 450.24 450.24 0 0 0 512 62.08z" p-id="2126"></path><path d="M475.776 403.392h73.152v331.008H475.776V403.392z m0-134.464h73.152v67.2H475.776v-67.2z" p-id="2127"></path></svg>