<svg t="1711680748048" class="icon" viewBox="0 0 1024 1024" version="1.1" xmlns="http://www.w3.org/2000/svg" p-id="8451" width="200" height="200"><path d="M809 13c55.228 0 100 46.222 100 103.239V523H113V116.239C113 59.222 157.772 13 213 13h596z m0 83H213c-10.93 0-19.813 9.058-20 20.303V441h636V116.659c0-11.29-8.769-20.466-19.656-20.659H809z" p-id="8452"></path><path d="M356 182m40 0l0 0q40 0 40 40l0 245q0 40-40 40l0 0q-40 0-40-40l0-245q0-40 40-40Z" p-id="8453"></path><path d="M576 182m40 0l0 0q40 0 40 40l0 245q0 40-40 40l0 0q-40 0-40-40l0-245q0-40 40-40Z" p-id="8454"></path><path d="M965 442c18.225 0 33 14.775 33 33v222.125L783.282 826H225L25 698.228V475c0-18.225 14.775-33 33-33h907z m-47 80H105v132.405L248.373 746h512.741L918 651.836V522z" p-id="8455"></path><path d="M298.5 746v189.5h412V746h73v198.172c0 35.436-28.877 63.757-64.163 64.32l-1.071 0.008H290.734c-35.413 0-64.644-27.967-65.225-63.257l-0.009-1.071V746h73z" p-id="8456"></path></svg>