<?xml version="1.0" standalone="no"?><!DOCTYPE svg PUBLIC "-//W3C//DTD SVG 1.1//EN" "http://www.w3.org/Graphics/SVG/1.1/DTD/svg11.dtd"><svg t="1751621791440" class="icon" viewBox="0 0 1024 1024" version="1.1" xmlns="http://www.w3.org/2000/svg" p-id="51405" xmlns:xlink="http://www.w3.org/1999/xlink" width="200" height="200"><path d="M512 106.51648c111.9744-111.9744 293.51424-111.9744 405.48352 0 111.9744 111.9744 111.9744 293.51424 0 405.48352l-115.85024 115.85024-43.44832-43.4432 115.85536-115.85024c87.0912-87.10144 87.96672-227.76832 2.6112-315.93984l-2.6112-2.65728c-87.97696-87.97696-230.62016-87.97696-318.59712 0L439.59296 265.81504l-43.4432-43.44832zM222.36672 396.14976l43.4432 43.43808-115.85024 115.85536c-87.0912 87.10144-87.96672 227.76832-2.6112 315.93984l2.6112 2.65728c87.97696 87.97696 230.62016 87.97696 318.59712 0l115.84512-115.85536 43.44832 43.4432L512 917.48352c-110.848 110.848-289.88928 111.95904-402.10432 3.328l-3.3792-3.328c-111.9744-111.9744-111.9744-293.51424 0-405.48352l115.85024-115.85024z" p-id="51406"></path><path d="M362.250758 10.748067m10.506858 28.867357l336.219482 923.755434q10.506859 28.867357-18.360498 39.374216l0 0q-28.867357 10.506859-39.374216-18.360498l-336.219482-923.755434q-10.506859-28.867357 18.360498-39.374216l0 0q28.867357-10.506859 39.374216 18.360498Z" p-id="51407"></path></svg>