<?xml version="1.0" standalone="no"?><!DOCTYPE svg PUBLIC "-//W3C//DTD SVG 1.1//EN" "http://www.w3.org/Graphics/SVG/1.1/DTD/svg11.dtd"><svg t="1687656967098" class="icon" viewBox="0 0 1024 1024" version="1.1" xmlns="http://www.w3.org/2000/svg" p-id="9241" xmlns:xlink="http://www.w3.org/1999/xlink" width="200" height="200"><path d="M155.704889 806.4h-6.371556c-8.533333-2.104889-14.961778-12.8-14.961777-21.333333 0-4.266667 27.761778-362.666667 420.295111-396.8V177.095111c0-8.533333 4.266667-17.066667 12.8-19.228444 8.533333-4.266667 17.066667-2.161778 23.438222 4.266666l305.095111 302.933334c8.533333 8.533333 8.533333 21.333333 0 29.866666l-305.095111 305.095111c-6.371556 6.371556-14.904889 8.533333-23.438222 4.266667-8.533333-4.266667-12.8-10.695111-12.8-19.228444v-206.961778c-70.371556 8.533333-290.133333 51.2-381.895111 215.495111-2.104889 8.533333-10.638222 12.8-17.066667 12.8z m420.295111-273.066667a19.342222 19.342222 0 0 1 14.904889 6.371556 23.04 23.04 0 0 1 6.428444 14.961778v179.2l251.733334-251.733334L597.333333 228.295111v177.038222c0 10.695111-8.533333 21.333333-19.228444 21.333334-249.571556 14.961778-345.6 164.238222-379.733333 266.638222C337.066667 550.4 563.2 533.333333 576 533.333333z" p-id="9242"></path></svg>