<svg t="1693385421905" class="icon" viewBox="0 0 1024 1024" version="1.1" xmlns="http://www.w3.org/2000/svg" p-id="17519" width="200" height="200"><path d="M921.6 102.4v819.2H102.4V102.4h819.2z m-39.936 39.936H142.336v739.328h739.328V142.336zM303.2064 224.5632V743.936h129.7408v53.504H303.2064v0.4096h-61.44V224.5632h61.44z m480.0512 570.1632v-57.4976h-256.6656c8.9088-37.7856 44.544-81.1008 106.8032-129.1776 50.6368-39.3728 84.1728-70.0416 101.2736-90.5216 31.488-39.424 47.9232-83.456 47.9232-132.3008 0-48.8448-15.104-88.9856-43.8272-118.9376-29.44-29.9008-66.3552-44.8512-111.5648-44.8512-49.2544 0-89.6 18.8928-119.7568 56.6784-30.1056 37.0176-45.824 87.3984-45.824 150.4256h56.1152c0.6656-49.664 10.9056-87.3984 30.1056-112.64 17.7664-26.7776 43.776-39.3728 77.312-39.3728 31.488 0 56.832 9.472 74.5984 28.3648 17.8176 18.944 26.6752 44.9024 26.6752 79.5136 0 36.2496-13.0048 70.144-37.632 100.864-13.0048 15.7184-38.2976 38.5536-76.6464 70.0416-52.0192 40.96-86.8864 74.8032-106.0864 99.9936a219.136 219.136 0 0 0-48.5888 139.4176h325.7856z" p-id="17520"></path></svg>