<?xml version="1.0" standalone="no"?><!DOCTYPE svg PUBLIC "-//W3C//DTD SVG 1.1//EN" "http://www.w3.org/Graphics/SVG/1.1/DTD/svg11.dtd"><svg t="1719628348238" class="icon" viewBox="0 0 1024 1024" version="1.1" xmlns="http://www.w3.org/2000/svg" p-id="8994" xmlns:xlink="http://www.w3.org/1999/xlink" width="200" height="200"><path d="M895.3856 464.128l-26.624-281.344a30.6176 30.6176 0 0 0-27.5456-27.5456l-281.344-26.624h-0.3584a9.216 9.216 0 0 0-6.8096 2.56l-421.4784 421.5296a8.96 8.96 0 0 0 0 12.6464l327.424 327.424a8.9088 8.9088 0 0 0 6.3488 2.6112 8.9088 8.9088 0 0 0 6.4-2.56l421.4784-421.5296a9.472 9.472 0 0 0 2.56-7.168z m-430.4384 338.2784L221.5936 559.104l359.7312-359.7312 222.2592 21.0944 21.0944 222.2592-359.7312 359.7312zM663.1936 281.6a79.36 79.36 0 0 0-79.2064 79.2064 79.36 79.36 0 0 0 79.2064 79.2064A79.36 79.36 0 0 0 742.4 360.8064 79.36 79.36 0 0 0 663.1936 281.6z m0 108.032a28.7744 28.7744 0 1 1-0.0512-57.5488 28.7744 28.7744 0 0 1 0.0512 57.4976z" p-id="8995"></path></svg>