<svg t="1671585690966" class="icon" viewBox="0 0 1024 1024" version="1.1" xmlns="http://www.w3.org/2000/svg" p-id="3541" width="200" height="200"><path d="M1003.958857 478.354286H546.596571V15.725714A15.798857 15.798857 0 0 0 530.870857 0h-36.790857a15.798857 15.798857 0 0 0-15.725714 15.725714V478.354286H15.725714A15.798857 15.798857 0 0 0 0 494.08v36.790857c0 8.630857 7.094857 15.725714 15.725714 15.725714H478.354286v457.362286c0 8.630857 7.094857 15.725714 15.725714 15.725714h36.790857a15.798857 15.798857 0 0 0 15.725714-15.725714V546.596571h457.362286a15.798857 15.798857 0 0 0 15.725714-15.725714v-36.790857a15.798857 15.798857 0 0 0-15.725714-15.725714z" p-id="3542"></path></svg>