<?xml version="1.0" standalone="no"?><!DOCTYPE svg PUBLIC "-//W3C//DTD SVG 1.1//EN" "http://www.w3.org/Graphics/SVG/1.1/DTD/svg11.dtd"><svg t="1681175557215" class="icon" viewBox="0 0 1024 1024" version="1.1" xmlns="http://www.w3.org/2000/svg" p-id="5055" xmlns:xlink="http://www.w3.org/1999/xlink" width="200" height="200"><path d="M512 909c165.475 0 333-44.114 333-128.387V241.387C845 157.114 677.475 113 512 113s-333 44.114-333 128.387v539.226C179 864.886 346.525 909 512 909z m1-745c183.101 0 283 51.506 283 78s-99.899 78-283 78-283-51.506-283-78 99.899-78 283-78zM230 313c62.414 37.628 173.016 57.138 283 57.138 109.984 0 220.586-19.51 283-57.138v108.683C796 447.945 696.101 499 513 499s-283-51.055-283-77.317V313z m0 180c62.414 37.628 173.016 57.138 283 57.138 109.984 0 220.586-19.51 283-57.138v108.683C796 627.945 696.101 679 513 679s-283-51.055-283-77.317V493z m0 179c62.414 37.628 173.016 57.138 283 57.138 109.984 0 220.586-19.51 283-57.138v108.683C796 806.945 696.101 858 513 858s-283-51.055-283-77.317V672z" p-id="5056"></path></svg>