<?xml version="1.0" standalone="no"?><!DOCTYPE svg PUBLIC "-//W3C//DTD SVG 1.1//EN" "http://www.w3.org/Graphics/SVG/1.1/DTD/svg11.dtd"><svg t="1710127412909" class="icon" viewBox="0 0 1024 1024" version="1.1" xmlns="http://www.w3.org/2000/svg" p-id="17480" xmlns:xlink="http://www.w3.org/1999/xlink" width="200" height="200"><path d="M987.36128 416.9728a112.50176 112.50176 0 0 0-86.12864-39.92064h-242.9952c10.19392-44.77952 24.87296-116.74112 24.71936-151.61344v-1.9712c-0.256-49.83296-0.6656-142.5152-49.7408-191.1296-43.1104-42.80832-114.71872-28.50816-147.79392-2.2272-33.0752 26.27584-36.28544 65.69984-40.46336 108.40064-3.31264 33.5104-7.08608 71.45984-24.41216 110.12096-48.46592 108.20096-174.55104 126.75072-187.7504 128.41984H76.4928C39.90016 377.05216 10.24 406.46656 10.24 442.752v510.42816C10.24 989.4656 39.90016 1018.88 76.4928 1018.88h785.70496c32.07168 0.1024 59.61216-22.58944 65.3824-53.87264l84.44928-456.9088a110.52032 110.52032 0 0 0-24.66816-91.12064z m-915.968 536.20736V442.752c0-2.79552 2.28352-5.05856 5.09952-5.05856h127.40608v520.54016H76.4928a5.07392 5.07392 0 0 1-5.0944-5.05344z m880.19456-455.95136l-84.39808 456.8576a5.08928 5.08928 0 0 1-5.0944 4.1472H265.05728V432.9472c51.52256-11.06944 160.99328-47.2576 211.39456-159.80032 21.35552-47.65696 25.84064-92.68736 29.40928-128.8704 3.15904-32.04096 5.6576-57.31328 17.83808-67.01568 13.34784-10.61376 49.6896-18.64704 66.2528-2.22208 31.23712 30.976 31.6416 113.3568 31.7952 148.5312v1.8688c0 36.03456-22.83008 138.27072-31.744 174.65856l-8.97024 37.59616h320.3072a51.13856 51.13856 0 0 1 39.2448 18.06336 50.23232 50.23232 0 0 1 11.10528 41.472h-0.1024z" p-id="17481"></path></svg>