<?xml version="1.0" standalone="no"?><!DOCTYPE svg PUBLIC "-//W3C//DTD SVG 1.1//EN" "http://www.w3.org/Graphics/SVG/1.1/DTD/svg11.dtd"><svg t="1685416431317" class="icon" viewBox="0 0 1170 1024" version="1.1" xmlns="http://www.w3.org/2000/svg" p-id="7791" xmlns:xlink="http://www.w3.org/1999/xlink" width="228.515625" height="200"><path d="M829.805714 456.338286H340.333714a40.813714 40.813714 0 1 0 0 81.773714h489.618286a40.96 40.96 0 0 0-0.146286-81.773714z m0 221.330285H340.333714a40.813714 40.813714 0 1 0 0 81.773715h489.618286a40.96 40.96 0 0 0-0.146286-81.773715zM1076.370286 73.142857h-150.528V40.886857a40.813714 40.813714 0 0 0-81.554286 0v32.182857H325.851429V40.96a40.813714 40.813714 0 0 0-81.554286 0v32.182857H93.842286C41.910857 73.142857 0 115.273143 0 167.204571v741.814858c0 51.931429 41.910857 94.061714 93.769143 94.061714h982.747428c51.858286 0 93.769143-42.057143 93.769143-94.061714V167.131429A94.134857 94.134857 0 0 0 1076.370286 73.142857zM93.769143 167.131429h150.674286v21.211428a40.813714 40.813714 0 0 0 81.554285 0v-21.211428h518.436572v21.211428a40.813714 40.813714 0 0 0 81.554285 0v-21.211428h150.674286v128.146285H93.769143V167.131429z m982.601143 741.814857H93.769143V376.685714h982.747428v532.333715h-0.146285z" p-id="7792"></path></svg>