<?xml version="1.0" standalone="no"?><!DOCTYPE svg PUBLIC "-//W3C//DTD SVG 1.1//EN" "http://www.w3.org/Graphics/SVG/1.1/DTD/svg11.dtd"><svg t="1685416424299" class="icon" viewBox="0 0 1024 1024" version="1.1" xmlns="http://www.w3.org/2000/svg" p-id="7655" xmlns:xlink="http://www.w3.org/1999/xlink" width="200" height="200"><path d="M512 106.667h-4.053A405.333 405.333 0 0 0 151.04 328.32l-1.707 1.493a31.787 31.787 0 0 0-2.986 7.04A405.333 405.333 0 1 0 512 106.667z m0 746.666a341.333 341.333 0 0 1-290.773-163.626l29.013-16.854a32 32 0 1 0-32-55.466L192 632.107a335.573 335.573 0 0 1 0-240.214l23.893 13.867a32 32 0 1 0 32-55.467l-27.733-16a341.333 341.333 0 0 1 256-161.92v30.507a32 32 0 0 0 34.133 31.787 32 32 0 0 0 31.787-32.214V172.16a341.333 341.333 0 0 1 260.693 161.92l-29.013 16.853a32 32 0 1 0 32 55.467L832 391.893a335.573 335.573 0 0 1 0 240.427l-26.24-13.653a32 32 0 0 0-32 55.466l29.013 16.854A341.333 341.333 0 0 1 512 853.333z" p-id="7656"></path><path d="M512 416a95.147 95.147 0 0 0-41.173 9.6l-69.974-69.973a32 32 0 1 0-45.226 45.226l69.973 69.974A95.787 95.787 0 1 0 512 416z m0 128a32 32 0 1 1 32-32 32 32 0 0 1-32 32z" p-id="7657"></path></svg>