<?xml version="1.0" standalone="no"?><!DOCTYPE svg PUBLIC "-//W3C//DTD SVG 1.1//EN" "http://www.w3.org/Graphics/SVG/1.1/DTD/svg11.dtd"><svg t="1675482211882" class="icon" viewBox="0 0 1030 1024" version="1.1" xmlns="http://www.w3.org/2000/svg" p-id="2218" xmlns:xlink="http://www.w3.org/1999/xlink" width="201.171875" height="200"><path d="M915.456 114.688c-90.112-90.112-236.544-90.112-326.656 0l-95.232 94.72-0.512 0.512c-11.776 11.776-11.776 31.232 0 43.52 11.776 11.776 31.232 11.776 43.52 0l0.512-0.512 95.232-95.232c66.048-66.048 174.08-66.048 240.128 0s66.048 174.08 0 240.128L704.512 565.76c-66.048 66.048-174.08 66.048-240.128 0-11.776-11.776-31.232-11.776-43.52 0s-11.776 31.232 0 43.52c90.112 90.112 236.544 90.112 326.656 0l167.936-167.936c90.112-90.112 90.112-236.544 0-326.656z" p-id="2219"></path><path d="M108.544 909.312c90.112 90.112 236.544 90.112 326.656 0l95.232-95.232 0.512-0.512c11.776-11.776 11.776-31.232 0-43.52s-31.232-11.776-43.52 0l-0.512 0.512-95.232 95.232c-66.048 66.048-174.08 66.048-240.128 0s-66.048-174.08 0-240.128l167.936-167.936c66.048-66.048 174.08-66.048 240.128 0 11.776 11.776 31.232 11.776 43.52 0s11.776-31.232 0-43.52c-90.112-89.6-236.544-89.6-326.656 0.512L108.544 582.656c-90.112 89.6-90.112 236.544 0 326.656z" p-id="2220"></path></svg>