<svg t="1671585812851" class="icon" viewBox="0 0 1024 1024" version="1.1" xmlns="http://www.w3.org/2000/svg" p-id="3964" width="200" height="200"><path d="M425.664 510.656a85.12 85.12 0 1 0 170.24 0 85.12 85.12 0 0 0-170.24 0z" p-id="3965"></path><path d="M987.392 476.608h-35.84A442.624 442.624 0 0 0 544.832 69.76v-35.84a34.048 34.048 0 0 0-68.096 0v35.84A442.624 442.624 0 0 0 69.888 476.608h-35.84a34.048 34.048 0 1 0 0 68.096h35.84a442.624 442.624 0 0 0 406.784 406.72v35.84a34.048 34.048 0 1 0 68.096 0v-35.84a442.624 442.624 0 0 0 406.72-406.72h35.84a34.048 34.048 0 1 0 0-68.096zM544.768 883.392v-66.368a34.048 34.048 0 0 0-68.096 0v66.368A374.784 374.784 0 0 1 138.048 544.64H204.288a34.048 34.048 0 1 0 0-68.096H138.048a374.784 374.784 0 0 1 338.688-338.688V204.16a34.048 34.048 0 1 0 68.096 0V137.92a374.848 374.848 0 0 1 338.688 338.688h-66.368a34.048 34.048 0 0 0 0 68.096h66.368a374.784 374.784 0 0 1-338.688 338.688z" p-id="3966"></path></svg>