<svg t="1687330801137" class="icon" viewBox="0 0 1024 1024" version="1.1" xmlns="http://www.w3.org/2000/svg" p-id="8727" width="200" height="200"><path d="M949.333333 440.021333s-2.218667 0 0 0c-51.370667-4.437333-88.234667 9.514667-111.701333 39.68-4.48 6.698667-11.733333 13.952-16.213333 23.466667-4.437333 9.472-9.472 18.432-13.952 30.165333-2.218667 4.437333-9.472 23.466667-11.733334 25.685334a71.338667 71.338667 0 0 1-13.952 23.466666l-7.253333 6.698667c-21.248 21.205333-37.418667 30.165333-62.549333 32.384-39.68 4.48-55.893333 7.253333-81.578667 13.952-27.904 9.514667-53.589333 23.466667-74.24 44.117333a185.173333 185.173333 0 0 0-27.946667 34.645334c-4.48 7.253333-11.733333 23.466667-13.994666 23.466666-4.437333 6.698667-4.437333 6.698667-13.952 6.698667-27.904 0-49.152 23.466667-53.632 51.370667-4.437333 32.426667 16.213333 55.893333 53.632 53.632 30.165333-2.218667 53.632-11.733333 81.536-30.165334 4.48-2.218667 21.248-13.952 23.466666-16.213333 6.698667-4.437333 11.733333-7.253333 13.952-7.253333 13.994667-4.437333 77.098667-11.733333 102.229334-13.952v2.218666c-2.218667 13.994667-9.472 23.466667-16.213334 30.165334-9.472 9.514667-13.952 21.248-4.437333 32.426666 4.437333 6.698667 13.952 9.472 23.466667 9.472 11.690667 0 27.904-4.48 44.117333-11.733333 30.165333-13.952 55.850667-34.602667 69.802667-65.322667 13.952 11.733333 27.946667 16.213333 41.898666 13.952 21.205333-2.218667 34.645333-11.733333 37.418667-27.946666a18.048 18.048 0 0 0-4.48-18.432c-13.952-11.733333-18.432-25.685333-16.213333-44.117334 0-4.48 2.261333-11.733333 4.48-16.213333 0 0 7.253333-11.690667 9.514666-18.389333 9.472-18.432 16.213333-39.68 18.432-72.106667v-4.437333c2.218667-30.165333 9.472-46.336 18.432-51.370667 18.432-9.514667 32.426667-32.426667 34.645334-58.112 6.698667-16.725333-2.816-41.898667-32.981334-41.898667z" p-id="8728"></path><path d="M470.101333 730.453333l-44.117333-74.24-62.549333 104.96H183.594667l-90.496-149.12L181.333333 462.933333h144.128L248.917333 335.018667l88.277334-149.12h181.504l88.234666 149.12-77.056 127.914666h137.386667l74.282667 123.434667c6.698667-4.437333 11.733333-9.472 21.248-16.213333l7.253333-7.253334s2.218667-4.437333 6.698667-11.690666L698.026667 416.597333h-81.536L665.6 335.018667l-116.181333-195.456H312.021333L195.882667 335.018667l48.554666 81.578666H155.648L39.466667 612.053333l116.181333 195.498667h235.136l34.645333-58.069333 11.733334 18.432c9.472-16.213333 18.986667-27.946667 32.938666-37.418667z" p-id="8729"></path></svg>