<?xml version="1.0" standalone="no"?><!DOCTYPE svg PUBLIC "-//W3C//DTD SVG 1.1//EN" "http://www.w3.org/Graphics/SVG/1.1/DTD/svg11.dtd"><svg t="1702539441440" class="icon" viewBox="0 0 1024 1024" version="1.1" xmlns="http://www.w3.org/2000/svg" p-id="35229" xmlns:xlink="http://www.w3.org/1999/xlink" width="200" height="200"><path d="M20.48 20.48m61.44 0l122.88 0q61.44 0 61.44 61.44l0 122.88q0 61.44-61.44 61.44l-122.88 0q-61.44 0-61.44-61.44l0-122.88q0-61.44 61.44-61.44Z" p-id="35230"></path><path d="M20.48 389.12m61.44 0l122.88 0q61.44 0 61.44 61.44l0 122.88q0 61.44-61.44 61.44l-122.88 0q-61.44 0-61.44-61.44l0-122.88q0-61.44 61.44-61.44Z" p-id="35231"></path><path d="M20.48 757.76m61.44 0l122.88 0q61.44 0 61.44 61.44l0 122.88q0 61.44-61.44 61.44l-122.88 0q-61.44 0-61.44-61.44l0-122.88q0-61.44 61.44-61.44Z" p-id="35232"></path><path d="M389.12 20.48m61.44 0l122.88 0q61.44 0 61.44 61.44l0 122.88q0 61.44-61.44 61.44l-122.88 0q-61.44 0-61.44-61.44l0-122.88q0-61.44 61.44-61.44Z" p-id="35233"></path><path d="M389.12 389.12m61.44 0l122.88 0q61.44 0 61.44 61.44l0 122.88q0 61.44-61.44 61.44l-122.88 0q-61.44 0-61.44-61.44l0-122.88q0-61.44 61.44-61.44Z" p-id="35234"></path><path d="M389.12 757.76m61.44 0l122.88 0q61.44 0 61.44 61.44l0 122.88q0 61.44-61.44 61.44l-122.88 0q-61.44 0-61.44-61.44l0-122.88q0-61.44 61.44-61.44Z" p-id="35235"></path><path d="M757.76 20.48m61.44 0l122.88 0q61.44 0 61.44 61.44l0 122.88q0 61.44-61.44 61.44l-122.88 0q-61.44 0-61.44-61.44l0-122.88q0-61.44 61.44-61.44Z" p-id="35236"></path><path d="M757.76 389.12m61.44 0l122.88 0q61.44 0 61.44 61.44l0 122.88q0 61.44-61.44 61.44l-122.88 0q-61.44 0-61.44-61.44l0-122.88q0-61.44 61.44-61.44Z" p-id="35237"></path><path d="M757.76 757.76m61.44 0l122.88 0q61.44 0 61.44 61.44l0 122.88q0 61.44-61.44 61.44l-122.88 0q-61.44 0-61.44-61.44l0-122.88q0-61.44 61.44-61.44Z" p-id="35238"></path></svg>