<?xml version="1.0" standalone="no"?><!DOCTYPE svg PUBLIC "-//W3C//DTD SVG 1.1//EN" "http://www.w3.org/Graphics/SVG/1.1/DTD/svg11.dtd"><svg t="1666072406946" class="icon" viewBox="0 0 1024 1024" version="1.1" xmlns="http://www.w3.org/2000/svg" p-id="1525" xmlns:xlink="http://www.w3.org/1999/xlink" width="200" height="200"><path d="M967.753143 220.379429L564.297143 13.019429a119.222857 119.222857 0 0 0-107.008 0L54.272 220.379429c-32.694857 16.896-53.174857 48.64-53.174857 82.944v414.72c0 34.377143 20.48 65.536 53.248 82.432l402.944 207.36a116.809143 116.809143 0 0 0 106.496 0l402.944-207.36c32.768-16.822857 53.248-48.64 53.248-82.432v-414.72c1.024-34.304-19.456-66.048-52.224-82.944z m-14.336 497.152a35.328 35.328 0 0 1-19.968 30.72l-403.017143 207.36a44.544 44.544 0 0 1-39.350857 0L88.137143 748.251429a34.742857 34.742857 0 0 1-19.968-30.72V302.811429c0-12.8 7.68-24.064 19.968-30.72L491.154286 64.731429a43.958857 43.958857 0 0 1 39.350857 0L934.034286 272.091429a34.742857 34.742857 0 0 1 19.968 30.72v414.72h-0.512z m-94.208-411.648L534.601143 463.579429c-3.072 1.536-6.144 3.072-9.216 5.12a43.885714 43.885714 0 0 1-29.257143-0.512c-2.486857-1.536-5.12-3.072-8.118857-4.608L173.641143 305.883429c-15.872-8.192-36.864-3.072-46.08 11.264a26.843429 26.843429 0 0 0 5.12 35.328c2.048 2.048 5.12 4.096 8.192 5.632l32.768 16.384 285.184 144.384c0.512 0.512 1.536 0.512 2.048 1.024 9.216 6.582857 14.848 16.896 14.848 27.648l1.536 323.072v3.072c0 0.512 0 1.024 0.512 1.536v1.536c0 0.512 0.512 1.024 0.512 1.536 0 0.512 0 1.024 0.512 1.536 0 0.512 0.512 1.024 0.512 1.024 0 0.512 0.512 1.024 0.512 1.536 0 0.512 0.512 0.512 0.512 1.024 0.512 0.512 0.512 1.024 1.024 2.048v0.512c5.12 8.192 14.848 14.336 26.112 15.36h3.657143a34.377143 34.377143 0 0 0 26.038857-11.264 28.818286 28.818286 0 0 0 7.68-19.456v-20.48l1.024-302.08c0-10.24 5.12-19.456 13.312-26.112 1.024-0.512 2.56-1.024 3.657143-1.462858l328.630857-160.841142c16.384-8.192 22.528-26.112 13.312-40.96a34.816 34.816 0 0 0-45.568-12.8z" p-id="1526"></path></svg>