<?xml version="1.0" standalone="no"?><!DOCTYPE svg PUBLIC "-//W3C//DTD SVG 1.1//EN" "http://www.w3.org/Graphics/SVG/1.1/DTD/svg11.dtd"><svg t="1678239932156" class="icon" viewBox="0 0 1024 1024" version="1.1" xmlns="http://www.w3.org/2000/svg" p-id="3496" xmlns:xlink="http://www.w3.org/1999/xlink" width="200" height="200"><path d="M485.209051 465.671537a69.172431 69.172431 0 0 1-28.897693-7.50885L90.8238 286.141773a60.924074 60.924074 0 0 1 0-111.267496L438.164972 10.475983a110.357333 110.357333 0 0 1 93.803732 0l347.398057 164.398294a60.924074 60.924074 0 0 1 0 111.267496L513.936089 458.048917c-8.874095 4.664588-18.772124 7.281309-28.727038 7.62262zM390.779581 1024a56.885223 56.885223 0 0 1-26.90671-6.826227L33.711037 862.445967a62.744401 62.744401 0 0 1-33.676052-56.316371V411.346149c0.11377-22.185237 11.945897-42.607032 30.945561-53.927192 17.634419-10.011799 39.250804-10.011799 56.885223 0L417.458751 512.032993c19.852943 10.694422 32.538348 31.286873 33.448511 53.927192v395.352299a63.882105 63.882105 0 0 1-30.718021 53.870306 61.777352 61.777352 0 0 1-29.40966 8.760325z m188.688285 0c-10.23934 0-20.36491-2.730491-29.409661-7.793276a63.882105 63.882105 0 0 1-30.71802-53.927191V565.846414c0.511967-22.412778 12.85606-42.891458 32.367692-53.870306L883.462497 356.167483c17.520649-9.215406 38.738837-8.760324 55.747518 1.365245 19.17032 11.263274 30.888676 31.741954 31.002447 53.927191v394.555907c0.511967 23.322941-11.945897 45.053097-32.310807 56.31637l-331.413309 154.955348a56.2026 56.2026 0 0 1-27.02048 6.655571z" p-id="3497"></path></svg>