<?xml version="1.0" standalone="no"?><!DOCTYPE svg PUBLIC "-//W3C//DTD SVG 1.1//EN" "http://www.w3.org/Graphics/SVG/1.1/DTD/svg11.dtd"><svg class="icon" width="200px" height="200.00px" viewBox="0 0 1024 1024" version="1.1" xmlns="http://www.w3.org/2000/svg"><path d="M512 791.272727c51.2 0 93.090909 41.890909 93.090909 93.090909s-41.890909 93.090909-93.090909 93.090909-93.090909-41.890909-93.090909-93.090909 41.890909-93.090909 93.090909-93.090909z m-93.090909-279.272727c0 51.2 41.890909 93.090909 93.090909 93.090909s93.090909-41.890909 93.090909-93.090909-41.890909-93.090909-93.090909-93.090909-93.090909 41.890909-93.090909 93.090909z m0-372.363636c0 51.2 41.890909 93.090909 93.090909 93.090909s93.090909-41.890909 93.090909-93.090909-41.890909-93.090909-93.090909-93.090909-93.090909 41.890909-93.090909 93.090909z" /></svg>