<?xml version="1.0" standalone="no"?><!DOCTYPE svg PUBLIC "-//W3C//DTD SVG 1.1//EN" "http://www.w3.org/Graphics/SVG/1.1/DTD/svg11.dtd"><svg t="1693643203178" class="icon" viewBox="0 0 1024 1024" version="1.1" xmlns="http://www.w3.org/2000/svg" p-id="6845" xmlns:xlink="http://www.w3.org/1999/xlink" width="200" height="200"><path d="M512 15.36c138.55744 0 250.88 112.32256 250.88 250.88s-112.32256 250.88-250.88 250.88-250.88-112.32256-250.88-250.88S373.44256 15.36 512 15.36z m0 61.44c-104.6272 0-189.44 84.8128-189.44 189.44s84.8128 189.44 189.44 189.44 189.44-84.8128 189.44-189.44-84.8128-189.44-189.44-189.44zM512 599.04c274.34496 0 497.25952 108.67712 501.69344 243.56864l0.06656 4.096V1008.64H10.24v-161.93536l0.06656-4.096C14.7456 707.71712 237.65504 599.04 512 599.04z m0 61.44c-124.65664 0-240.78336 23.97696-325.20192 65.01888-73.856 35.90144-112.8448 79.36-115.0208 117.69344l-0.0512 1.1264-0.04608 2.7648V947.2h880.64v-99.80416l-0.0512-3.07712-0.0512-1.1264c-2.14528-37.85216-40.192-80.70656-112.26112-116.34688l-2.75456-1.34656C752.78336 684.45696 636.65664 660.48 512 660.48z" p-id="6846"></path></svg>