<?xml version="1.0" standalone="no"?><!DOCTYPE svg PUBLIC "-//W3C//DTD SVG 1.1//EN" "http://www.w3.org/Graphics/SVG/1.1/DTD/svg11.dtd"><svg t="1681175577918" class="icon" viewBox="0 0 1024 1024" version="1.1" xmlns="http://www.w3.org/2000/svg" p-id="5461" xmlns:xlink="http://www.w3.org/1999/xlink" width="200" height="200"><path d="M856.09 168H577.507c-13.254 0-23.998 10.744-23.998 23.998 0 13.254 10.744 23.998 23.998 23.998h278.581c25.348 0.027 45.89 20.569 45.916 45.917v557.174c-0.027 25.348-20.568 45.89-45.916 45.917H602.514a1524.436 1524.436 0 0 1-68.298-57.324 24 24 0 1 0-32.093 35.693c8.303 7.456 16.703 14.751 24.782 21.63H298.91c-25.348-0.026-45.89-20.568-45.916-45.916V777.33c0-13.254-10.744-23.998-23.997-23.998-13.254 0-23.998 10.744-23.998 23.998v41.757c0.062 51.841 42.07 93.851 93.91 93.913h557.18c51.84-0.062 93.848-42.072 93.91-93.913V261.881c-0.088-51.825-42.087-93.81-93.91-93.881z" p-id="5462"></path><path d="M297.606 796.656a23.968 23.968 0 0 0 22.867 2.463 24.01 24.01 0 0 0 14.429-17.93 897.173 897.173 0 0 1 26.644-102.786 1103.355 1103.355 0 0 0 41.182 57.125 23.978 23.978 0 0 0 41.182-5.545 24.037 24.037 0 0 0-3.198-23.802 1078.934 1078.934 0 0 1-65.572-95.422 23.981 23.981 0 0 0-22.86-11.33 23.994 23.994 0 0 0-20.13 15.685c-1.023 2.818-20.262 56.036-34.464 112.073-27.076-39.658-57.48-121.087-6.541-260.153a24.034 24.034 0 0 0-6.014-25.713 342.111 342.111 0 0 1-78.766-120.414 233.439 233.439 0 0 0-42.27-76.113c-41.037-49.344-46.923-78.21-40.878-85.56 10.172-12.375 70.498 15.195 119.517 54.58a23.969 23.969 0 0 0 25.988 2.642c1.008-0.497 102.612-50.641 231.084 62.904A664.638 664.638 0 0 1 644.08 474.16c4.498 9.798 14.944 15.42 25.589 13.769 0.88-0.144 77.71-10.807 151.598 77.634-110.096 19.212-115.15 37-118.349 48.031a24.034 24.034 0 0 0 5.742 23.183c32.274 33.814 119.276 136.232 133.926 203.332C844.99 851.128 854.732 858.989 866 859a24.51 24.51 0 0 0 5.133-0.544 23.99 23.99 0 0 0 15.073-10.5 24.037 24.037 0 0 0 3.24-18.095c-15.466-70.798-87.85-160.472-124.666-202.547a919.906 919.906 0 0 1 102.675-20.461 23.993 23.993 0 0 0 18.452-13.926 24.038 24.038 0 0 0-1.851-23.058c-75.583-114.89-165.416-129.684-203.448-130.325A699.88 699.88 0 0 0 531.617 243.37c-124.379-109.943-231.5-88.81-269.836-75.713-117.82-90.426-163.96-52.994-175.508-38.97-26.788 32.502-12.986 81.91 41.023 146.848a185.922 185.922 0 0 1 33.585 60.535 377.908 377.908 0 0 0 80.11 128.852c-79.118 233.88 50.921 327.764 56.615 331.735z" p-id="5463"></path><path d="M289.92 280.765A24.74 24.74 0 0 0 283 297.84a24.207 24.207 0 0 0 6.92 17.075c9.447 9.447 24.73 9.447 34.177 0A24.303 24.303 0 0 0 331 297.84a24.723 24.723 0 0 0-6.903-17.075c-9.62-9.02-24.559-9.02-34.178 0z" p-id="5464"></path><path d="M477.854 755.354a15.973 15.973 0 0 0-2.896-3.539c-9.5-9.087-24.418-9.087-33.918 0a16.593 16.593 0 0 0-3.04 3.54 37.166 37.166 0 0 0-2.24 4.182 47.392 47.392 0 0 0-1.264 4.505 24.73 24.73 0 0 0-0.496 4.826c0.012 3.14 0.609 6.251 1.76 9.17a26.49 26.49 0 0 0 5.28 7.883 22.391 22.391 0 0 0 7.68 5.148 22.9 22.9 0 0 0 9.279 1.931 24.188 24.188 0 0 0 16.96-7.079 22.84 22.84 0 0 0 5.119-7.883 22.435 22.435 0 0 0 1.92-9.17 22.145 22.145 0 0 0-1.92-9.33 20.953 20.953 0 0 0-2.224-4.184z" p-id="5465"></path></svg>