<svg t="1671585340557" class="icon" viewBox="0 0 1024 1024" version="1.1" xmlns="http://www.w3.org/2000/svg" p-id="2557" width="200" height="200"><path d="M898.816 348.48h-533.12v78.208h533.568L754.56 581.44a40.96 40.96 0 0 0-9.472 37.76c3.392 13.504 13.248 24.064 25.856 27.712a35.008 35.008 0 0 0 35.328-10.176l206.976-221.248A40.384 40.384 0 0 0 1024 387.84a40.384 40.384 0 0 0-10.752-27.648l-206.976-221.184a34.88 34.88 0 0 0-51.264 0.448 41.088 41.088 0 0 0-0.448 54.848l144.256 154.176zM0 739.52c0-215.936 163.712-391.04 365.696-391.04v78.208c-161.6 0-292.544 140.096-292.544 312.896H0z m0 0h73.152v117.376c0 21.568-16.384 39.104-36.608 39.104C16.384 896 0 878.464 0 856.896v-117.312z" p-id="2558"></path></svg>