<svg t="1693385544511" class="icon" viewBox="0 0 1029 1024" version="1.1" xmlns="http://www.w3.org/2000/svg" p-id="17667" width="200" height="200"><path d="M915.9168 98.8672v424.3456a315.5968 315.5968 0 0 0-39.936-5.12V138.8544H136.6528v739.328h406.9376c1.9968 13.6192 4.8128 26.9312 8.448 39.936H96.7168v-819.2h819.2zM297.472 221.0304v519.424h129.7408v53.4528H297.472l-61.4912 0.4096V221.0304h61.44z m214.2208 406.6304c7.0144 39.0144 18.944 67.1744 35.7376 84.3776 3.9936 4.096 8.192 7.68 12.5952 10.8544-7.0656 18.8928-12.3392 38.7072-15.6672 59.1872a144.1792 144.1792 0 0 1-44.3392-31.232c-28.7744-29.2864-45.1584-67.328-49.2544-114.0224z m94.464-406.016c27.0848 0 52.0192 6.5536 74.8032 19.6608 22.784 13.1584 40.2432 31.0784 52.3264 53.76 12.032 22.7328 18.0736 46.848 18.0736 72.3456 0 24.2688-5.7344 46.336-17.2544 66.2016a122.5216 122.5216 0 0 1-51.0976 47.4624 114.2272 114.2272 0 0 1 71.68 52.8896c-20.48 6.912-39.936 15.872-58.2144 26.5728l-1.9456-3.5328a104.192 104.192 0 0 0-10.8544-14.4896 89.2416 89.2416 0 0 0-69.7344-30.8224c-11.52 0-25.856 2.56-43.008 7.68l6.8096-60.4672c4.0448 0.512 7.3216 0.768 9.7792 0.768 25.9584 0 49.3056-7.68 70.0928-22.9888 20.736-15.3088 31.1296-38.912 31.1296-70.8096 0-25.2416-7.5776-46.1824-22.6816-62.72-15.104-16.5888-34.6112-24.8832-58.5728-24.8832a77.824 77.824 0 0 0-59.2384 25.2416c-15.7696 16.8448-25.9072 42.0864-30.464 75.776l-60.928-12.288c7.4752-46.1312 24.3712-81.92 50.7904-107.3152s59.2384-38.0928 98.5088-38.0928z" p-id="17668"></path><path d="M651.6736 662.0672l179.8144 91.2896 179.8144-91.2896h11.8272l-185.7024-95.232h-11.8784l-185.7024 95.232h11.8272z m377.344 9.728a9.728 9.728 0 0 1-5.888 9.728l-179.8144 91.2896v227.328a9.728 9.728 0 0 1-7.8848 9.728h1.9968l185.7024-95.232a1.9456 1.9456 0 0 0 1.9968-1.9456c1.9456-1.9456 1.9456-1.9456 1.9456-3.8912v-237.056h1.9968z m-209.408 328.3456v-227.328l-179.7632-91.2896a9.728 9.728 0 0 1-5.9392-9.728v233.1136c0 1.9456 1.9968 1.9456 1.9968 3.8912 1.024 0 1.9456 0.8704 1.9456 1.9456h1.9968l185.7024 95.232a9.7792 9.7792 0 0 1-5.9392-5.8368z" p-id="17669"></path></svg>