<?xml version="1.0" standalone="no"?><!DOCTYPE svg PUBLIC "-//W3C//DTD SVG 1.1//EN" "http://www.w3.org/Graphics/SVG/1.1/DTD/svg11.dtd"><svg t="1703122678175" class="icon" viewBox="0 0 1024 1024" version="1.1" xmlns="http://www.w3.org/2000/svg" p-id="15105" xmlns:xlink="http://www.w3.org/1999/xlink" width="200" height="200"><path d="M1008.1792 414.56128a81.92 81.92 0 0 1-22.03648 22.1696l-427.80672 290.49856a81.92 81.92 0 0 1-92.03712 0L38.48704 436.736C1.05984 411.3152-8.6784 360.36608 16.7424 322.93888A81.92 81.92 0 0 1 38.912 300.9024L466.7136 14.21824a81.92 81.92 0 0 1 91.20768 0l427.80672 286.68416c37.5808 25.1904 47.63648 76.07296 22.4512 113.65888z m-51.0464-34.2016a20.48 20.48 0 0 0-4.74624-27.80672l-0.86016-0.60928-427.80672-286.68928a20.48 20.48 0 0 0-21.89312-0.57344l-0.91136 0.57344L73.1136 351.9488a20.48 20.48 0 0 0-0.93696 33.36192l0.83456 0.59392 427.80672 290.50368a20.48 20.48 0 0 0 22.12864 0.5632l0.88064-0.5632 427.80672-290.50368a20.48 20.48 0 0 0 4.74624-4.47488l0.76288-1.06496z" p-id="15106"></path><path d="M1008.1792 692.64896a81.92 81.92 0 0 1-22.03648 22.1696L558.336 1005.312a81.92 81.92 0 0 1-92.03712 0L38.48704 714.81344c-37.4272-25.41568-47.16544-76.35968-21.74976-113.792a81.92 81.92 0 0 1 22.1696-22.03136L466.7136 292.3008a81.92 81.92 0 0 1 91.20768 0l427.80672 286.68928c37.5808 25.1904 47.63648 76.07296 22.4512 113.65888z m-51.0464-34.2016a20.48 20.48 0 0 0-4.74624-27.80672l-0.86016-0.6144-427.80672-286.68416a20.48 20.48 0 0 0-21.89312-0.57856l-0.91136 0.57856-427.80672 286.68928a20.48 20.48 0 0 0-0.93696 33.36192l0.83456 0.59392 427.80672 290.50368a20.48 20.48 0 0 0 22.12864 0.5632l0.88064-0.5632 427.80672-290.5088a20.48 20.48 0 0 0 4.74624-4.46976l0.76288-1.07008z" p-id="15107"></path></svg>