<?xml version="1.0" standalone="no"?><!DOCTYPE svg PUBLIC "-//W3C//DTD SVG 1.1//EN" "http://www.w3.org/Graphics/SVG/1.1/DTD/svg11.dtd"><svg t="1688970308795" class="icon" viewBox="0 0 1024 1024" version="1.1" xmlns="http://www.w3.org/2000/svg" p-id="6160" xmlns:xlink="http://www.w3.org/1999/xlink" width="200" height="200"><path d="M509.805714 1.097143A510.317714 510.317714 0 0 0 0 510.902857a510.317714 510.317714 0 0 0 509.805714 509.659429 510.317714 510.317714 0 0 0 509.659429-509.732572A510.317714 510.317714 0 0 0 509.805714 1.097143z m0 946.322286A437.101714 437.101714 0 0 1 73.142857 510.829714a437.101714 437.101714 0 0 1 436.662857-436.589714 437.101714 437.101714 0 0 1 436.516572 436.662857 437.101714 437.101714 0 0 1-436.589715 436.516572z" p-id="6161"></path><path d="M369.371429 655.798857c0 40.228571 28.525714 56.685714 63.268571 36.571429l250.953143-144.822857c34.889143-20.187429 34.889143-53.101714 0-73.142858l-250.88-145.042285c-34.962286-20.114286-63.414857-3.657143-63.414857 36.571428v289.865143z" p-id="6162"></path></svg>