<svg t="1688191875236" class="icon" viewBox="0 0 1024 1024" version="1.1" xmlns="http://www.w3.org/2000/svg" p-id="4885" width="200" height="200"><path d="M696.149333 402.346667a120.064 120.064 0 0 0-120.362666-119.808h-132.821334A120.064 120.064 0 0 0 322.56 402.304a120.064 120.064 0 0 0 120.32 119.808h132.864a120.064 120.064 0 0 0 120.32-119.808zM246.912 639.402667a55.722667 55.722667 0 0 0-39.338667-16.213334H146.304a55.893333 55.893333 0 0 0-56.064 55.466667c0 30.634667 25.301333 55.466667 56.064 55.466667h61.269333c14.762667 0 28.885333-5.845333 39.338667-16.256a55.296 55.296 0 0 0 0-78.464z m-39.253333 6.186666a33.493333 33.493333 0 1 1 0 66.901334h-61.44a33.706667 33.706667 0 0 1-33.834667-33.365334c0-18.602667 15.317333-33.536 33.834667-33.536h61.44z m368.213333-315.52c19.2 0 37.589333 7.594667 51.2 21.12 13.525333 13.482667 21.162667 31.829333 21.12 50.944v0.682667c0 19.114667-7.594667 37.461333-21.162667 50.944-13.568 13.525333-31.957333 21.12-51.114666 21.12h-132.693334a72.405333 72.405333 0 0 1-72.618666-72.106667v-0.64c0-39.808 32.64-72.064 72.618666-72.064h132.693334zM399.786667 660.565333a37.034667 37.034667 0 0 0-36.992-36.949333h-0.426667v0.384H271.488v110.165333h22.144V646.4h69.12a14.378667 14.378667 0 1 1 0 28.714667H299.349333l66.005334 59.008h30.634666l-44.373333-36.608h11.178667c20.48 0 36.992-16.64 36.992-36.992z m158.634666 73.6l-66.005333-103.253333a15.786667 15.786667 0 0 0-26.624-0.085333L399.786667 734.165333h26.24l53.034666-82.901333 28.16 44.373333h-54.272l12.544 18.048h53.418667l13.226667 20.48h26.24z m104.106667-87.722666l14.933333-22.826667h-76.501333c-30.72 0-55.765333 25.002667-55.765333 55.594667 0 30.549333 25.088 54.954667 55.765333 54.954666h61.568l14.933333-22.442666H598.613333a32.725333 32.725333 0 0 1-32.853333-32.469334v-0.085333c0-18.005333 14.805333-32.725333 32.853333-32.725333h63.914667z m46.506667-22.826667h-22.485334v110.506667h104.874667l13.653333-20.821334h-96v-89.685333z m201.898666 67.242667l13.952-22.784H820.906667a32.341333 32.341333 0 0 1 30.848-21.632h63.616l13.781333-22.826667H854.186667c-30.72 0-55.893333 25.002667-55.893334 55.594667a55.466667 55.466667 0 0 0 55.893334 54.954666h61.226666l13.781334-22.442666h-77.397334a32.853333 32.853333 0 0 1-30.634666-20.864h89.770666z m54.314667-438.613334V800.426667c0 20.266667-14.762667 36.693333-32.981333 36.693333H91.52c-18.176 0-32.938667-16.426667-32.938667-36.693333V252.245333c0-20.266667 14.762667-36.693333 32.938667-36.693333H932.266667c18.218667 0 32.981333 16.426667 32.981333 36.693333z m-32.981333-75.52H91.52c-37.461333 0-67.84 33.792-67.84 75.52V800.426667c0 20.053333 7.168 39.253333 19.882667 53.418666 12.714667 14.165333 29.994667 22.144 47.957333 22.144H932.266667c18.005333 0 35.242667-7.978667 48-22.186666 12.714667-14.122667 19.84-33.365333 19.84-53.376V252.245333c0-41.728-30.378667-75.52-67.84-75.52z" p-id="4886"></path></svg>