<svg xmlns="http://www.w3.org/2000/svg" xmlns:xlink="http://www.w3.org/1999/xlink" t="1702630106585" class="icon" viewBox="0 0 1024 1024" version="1.1" p-id="14570" width="64" height="64"><path d="M0 926.72h1024v64H0z" p-id="14571"/><path d="M960 350.72v640H576v-640h384z m-64 61.819H640v516.178h256V412.539z" p-id="14572"/><path d="M640 30.72v960H64v-960h576z m-64 63.75H128v832.573h448V94.469z" p-id="14573"/><path d="M192 211.425h128v60.242H192z m0 180.706h128v60.236H192z m512 120.473h128v60.232H704z m0 180.705h128v60.232H704zM192 572.836h128v60.237H192z m192-361.41h128v60.241H384z m0 180.705h128v60.236H384z m0 180.705h128v60.237H384z" p-id="14574"/></svg>