<?xml version="1.0" standalone="no"?><!DOCTYPE svg PUBLIC "-//W3C//DTD SVG 1.1//EN" "http://www.w3.org/Graphics/SVG/1.1/DTD/svg11.dtd"><svg t="1681175583326" class="icon" viewBox="0 0 1024 1024" version="1.1" xmlns="http://www.w3.org/2000/svg" p-id="5599" xmlns:xlink="http://www.w3.org/1999/xlink" width="200" height="200"><path d="M205.64 142.056c63.63-22.78 163.126 8.887 193.36 19.604a181.325 181.325 0 0 0-43.361 36.721c-40.73-11.647-99.352-23.294-133.807-11.021-40.312 14.406-86.032 30.753-64.19 187.344l-0.147-1.067c25.321 101.255 79.63 259.4 89.586 264.211 8.256 4.066 15.531 1.302 26.5-3.519l2.924-1.285a631.45 631.45 0 0 0 72.787-36.572 163.428 163.428 0 0 0 33.15 18.623A96.33 96.33 0 0 0 399 620.141a478.734 478.734 0 0 1-103.463 57.172l-2.377 1.044A92.111 92.111 0 0 1 255.048 688a65.566 65.566 0 0 1-29.119-6.814c-36.345-17.74-92.63-205.332-115.437-296.746a24.883 24.883 0 0 1-0.352-1.91l-0.052-0.33a24.14 24.14 0 0 1-0.109-0.839C84.8 201.061 143.44 164.26 205.64 142.056zM650.286 141.325a361.19 361.19 0 0 1 46.729 26.803c47.975 0.83 101.772 14.83 129.95 60.591 26.523 40.106 34.07 89.793 20.645 135.93a212.026 212.026 0 0 1-64.863 97.52A667.356 667.356 0 0 1 761.414 534c63.382-32.093 111.079-88.348 132.268-156.005 17.05-59.092 7.626-122.648-25.843-174.293-58.002-94.315-184.721-91.3-250.496-74.623-0.463 0.112-0.88 0.335-1.343 0.479a132.525 132.525 0 0 1 31.424 10.3l2.862 1.467z" p-id="5600"></path><path d="M541.437 458.019c-3.735-55.085-18.962-130.404-107.468-148.318a118.717 118.717 0 0 0-81.85 15.673 350.68 350.68 0 0 0-2.937 21.85l-0.24 2.258c-1.484 14.52-2.809 28.095-3.942 40.997 9.242-9.316 43.83-40.997 79.504-33.617 45.873 9.269 64.628 37.604 69.177 104.486 3.032 44.616-9.37 64.034-31.923 99.124-3.943 6.131-8.109 12.807-12.418 19.707A57.653 57.653 0 0 1 489.722 606c4.04-6.552 8.136-13.067 12.29-19.546 24.358-37.908 43.56-67.956 39.425-128.435zM341.787 727.967a415.494 415.494 0 0 0 109.15-69.176l-0.462-12.291a566.5 566.5 0 0 0-0.67-15.321 7.086 7.086 0 0 0-0.432-2.28 82.22 82.22 0 0 0-25.543-5.325l-4.518-0.574a404.098 404.098 0 0 1-108.688 66.8c-33.67 15.736-50.576 23.643-50.624 43.731 0.43 15.711 10.809 29.414 25.83 34.102a147.86 147.86 0 0 0 54.28 8.274A277.211 277.211 0 0 0 459 749.617a689.248 689.248 0 0 1-5.859-52.93c-25.32 20.933-75.353 30.451-111.354 31.28zM634.293 294.089c-19.288 10.767-43.156 34.057-48.22 83.8-5.609 55.574-4.821 114.726 68.664 173.383 9.242 7.364 16.893 13.866 23.628 19.728a221.493 221.493 0 0 1 25.476-18.354c2.41-5.927 4.548-11.613 6.718-17.332-7.2-6.278-15.575-13.418-25.717-21.421-50.42-40.223-56.577-74.36-50.87-131.228-0.42-18.587 8.529-36.154 23.852-46.82 24.463-13.737 64.999-3.482 88.176 5.144a198.444 198.444 0 0 0-12.746-54.088 139.014 139.014 0 0 0-98.961 7.188zM912.87 594.048c-9.145-18.857-29.554-17.827-55.46-16.512a382.344 382.344 0 0 1-43.415 0.46A152.633 152.633 0 0 1 750.887 566c-1.593 3.882-2.931 7.638-4.572 11.584a23.935 23.935 0 0 1-9.942 11.393 212.188 212.188 0 0 0-18.736 12.503c21.54 14.467 44.18 20.901 93.395 23.96 11.009 0.712 21.556 0.633 31.179 0.332-33.044 26.939-82.465 49.123-141.048 17.938A866.347 866.347 0 0 1 700 695.511 160.7 160.7 0 0 0 758.694 707c69.162 0 120.958-47.539 144.043-73.574 11.134-9.844 15.143-25.425 10.133-39.378zM795.999 324c0.062-2.727-1.969-5.434-5.999-8 2.066 2.656 4.266 5.221 5.999 8z" p-id="5601"></path><path d="M701.34 644.126a895.519 895.519 0 0 0-0.353-22.409c0-1.984-0.112-3.681-0.144-5.01a93.36 93.36 0 0 1 17.063-15.254 213.309 213.309 0 0 1 18.841-12.629 24.144 24.144 0 0 0 9.998-11.508c1.602-3.986 3.044-7.78 4.598-11.701a804.8 804.8 0 0 0 11.391-30.268 670.943 670.943 0 0 0 21.373-72.11 382.108 382.108 0 0 0 9.132-140.44c-0.416-2.865-0.945-5.602-1.442-8.387-9.583-59.63-43.462-112.63-93.582-146.395a361.677 361.677 0 0 0-46.767-26.891l-2.867-1.425a132.586 132.586 0 0 0-31.483-10.34 373.835 373.835 0 0 0-166.063 9.108 256.123 256.123 0 0 0-50.933 23.37 181 181 0 0 0-43.258 36.638c-26.227 30.524-46.767 75.054-53.672 142.553l-0.24 2.225c-11.392 111.357-20.636 202.13 48.064 252.47a163.094 163.094 0 0 0 33.1 18.551 96.197 96.197 0 0 0 16.519 5.026c6.553 1.457 13.074 2.45 19.338 3.202l4.534 0.576a82.482 82.482 0 0 1 25.635 5.346c0.268 0.734 0.415 1.508 0.432 2.289 0.24 3.505 0.433 8.772 0.673 15.382l0.465 12.341c0.448 11.109 1.057 24.01 2.114 38.048a692.29 692.29 0 0 0 5.88 53.14c11.616 75.727 40.054 156.368 113.914 156.368a95.724 95.724 0 0 0 70.927-30.076c32.732-33.614 51.077-92.694 55.675-179.48a905.866 905.866 0 0 0 1.138-52.31z m-0.513-25.93l-24.032-3.689 24.032 3.688z m-90.762 224.25a48.086 48.086 0 0 1-36.497 15.543c-44.156 0-69.181-71.87-74.34-213.622-0.273-7.331-0.481-13.158-0.77-17.063a53.327 53.327 0 0 0-6.408-22.73 57.891 57.891 0 0 0-40.535-25.818 214.668 214.668 0 0 0-21.34-3.345 113.254 113.254 0 0 1-27.381-5.362c-60.882-25.77-65.128-78.816-56.076-180.873 1.138-12.901 2.468-26.475 3.958-40.993l0.24-2.257a349.352 349.352 0 0 1 2.948-21.848c18.04-107.692 79.018-128.612 112.728-140.153a309.49 309.49 0 0 1 90.345-12.037 176.389 176.389 0 0 1 70.11 10.805l2.933 1.456c29.671 14.758 80.268 40.016 104.684 101.353A199.715 199.715 0 0 1 747.37 339.7c4.807 48.147-3.78 111.309-35.391 194.718-2.163 5.73-4.294 11.429-6.697 17.367a220.818 220.818 0 0 0-25.394 18.392 64.388 64.388 0 0 0-27.109 42.673c0 1.745 0 5.234 0.176 10.18 3.701 141.177-21.276 197.247-42.89 219.416z" p-id="5602"></path></svg>