<?xml version="1.0" standalone="no"?><!DOCTYPE svg PUBLIC "-//W3C//DTD SVG 1.1//EN" "http://www.w3.org/Graphics/SVG/1.1/DTD/svg11.dtd"><svg class="icon" width="200px" height="200.00px" viewBox="0 0 1024 1024" version="1.1" xmlns="http://www.w3.org/2000/svg"><path d="M128 0h64v128c0 35.328 28.672 64 64 64h512c35.328 0 64-28.672 64-64V0h64A128 128 0 0 1 1024 128v768A128 128 0 0 1 896 1024H128A128 128 0 0 1 0 896V128A128 128 0 0 1 128 0z m641.137778 355.783111l-303.900445 303.957333L289.336889 454.542222 216.462222 517.006222l243.313778 283.875556 377.173333-377.173334-67.811555-67.925333zM768 0v64c0 35.328-28.672 64-64 64h-384A64 64 0 0 1 256 64V0h512z" fill="#ffffff" /></svg>