<svg t="1703576778399" class="icon" viewBox="0 0 1024 1024" version="1.1" xmlns="http://www.w3.org/2000/svg" p-id="30933" width="200" height="200"><path d="M784.756364 261.864727a276.759273 276.759273 0 0 0-64.186182-88.343272C664.715636 121.669818 590.568727 93.090909 512 93.090909c-78.568727 0-152.715636 28.578909-208.570182 80.337455a277.178182 277.178182 0 0 0-64.232727 88.436363 261.213091 261.213091 0 0 0-23.784727 109.195637V400.290909c0 6.702545 5.399273 12.101818 12.101818 12.101818h58.461091a12.101818 12.101818 0 0 0 12.101818-12.101818v-29.230545c0-107.706182 95.930182-195.258182 213.922909-195.258182s213.876364 87.552 213.876364 195.258182c0 44.171636-15.685818 85.736727-45.428364 120.366545a217.832727 217.832727 0 0 1-117.015273 69.306182 118.690909 118.690909 0 0 0-66.792727 41.984 119.994182 119.994182 0 0 0-25.879273 74.24v33.978182c0 6.749091 5.399273 12.101818 12.101818 12.101818h58.461091a12.101818 12.101818 0 0 0 12.101819-12.101818v-33.978182c0-16.989091 11.822545-31.930182 28.16-35.607273a301.986909 301.986909 0 0 0 161.605818-96.023273 272.756364 272.756364 0 0 0 47.941818-80.058181 262.144 262.144 0 0 0-6.376727-203.403637zM512 809.704727a60.648727 60.648727 0 1 0 0.093091 121.297455A60.648727 60.648727 0 0 0 512 809.658182z" p-id="30934"></path></svg>