<svg t="1678867361608" class="icon" viewBox="0 0 1024 1024" version="1.1" xmlns="http://www.w3.org/2000/svg" p-id="3520" width="200" height="200"><path d="M943.104 680.96H413.037714c-41.472 0-75.337143-33.645714-75.337143-75.337143V519.972571a40.886857 40.886857 0 1 1 81.846858 0V599.04h517.046857V81.92H419.547429v150.162286a40.886857 40.886857 0 1 1-81.846858 0v-156.525715c0-41.398857 33.792-75.337143 75.337143-75.337142h530.066286c41.472 0 75.337143 33.792 75.337143 75.337142v530.066286a75.337143 75.337143 0 0 1-75.337143 75.337143z" p-id="3521"></path><path d="M606.134857 1017.490286H76.141714c-41.472 0-75.337143-33.718857-75.337143-75.337143V412.013714c0-41.472 33.718857-75.337143 75.337143-75.337143h529.993143c41.472 0 75.337143 33.792 75.337143 75.337143v85.796572a40.886857 40.886857 0 1 1-81.846857 0V418.669714H82.651429v517.046857H599.771429v-150.235428a40.886857 40.886857 0 1 1 81.773714 0v156.525714c0 41.691429-33.718857 75.483429-75.337143 75.483429z" p-id="3522"></path></svg>