<?xml version="1.0" standalone="no"?><!DOCTYPE svg PUBLIC "-//W3C//DTD SVG 1.1//EN" "http://www.w3.org/Graphics/SVG/1.1/DTD/svg11.dtd"><svg class="icon" width="200px" height="200.00px" viewBox="0 0 1024 1024" version="1.1" xmlns="http://www.w3.org/2000/svg"><path d="M93.184 57.7536v945.288533H93.525333l419.84-183.7056 419.84 183.7056h0.477867V57.7536H93.252267zM854.698667 882.688l-309.930667-135.645867a78.6432 78.6432 0 0 0-63.146667 0L172.032 882.688V136.533333h682.666667v746.154667z"  /><path d="M387.618133 514.389333c-26.555733 98.304-19.8656 147.456 20.138667 147.456 24.098133 0 60.074667-17.8176 108.407467-53.4528 48.128 33.314133 84.241067 50.039467 108.202666 50.039467 41.506133 0 47.377067-49.3568 17.476267-148.138667 123.4944-101.512533 106.496-152.917333-50.7904-154.692266-27.170133-76.253867-53.8624-114.414933-80.008533-114.414934-26.2144 0-52.087467 38.912-77.277867 116.9408-157.0816 6.690133-172.578133 58.7776-46.148267 156.330667z m49.015467-90.794666a65.536 65.536 0 0 0 59.733333-45.329067c5.870933-18.295467 11.264-32.290133 15.906134-43.2128 4.9152 10.6496 10.786133 24.576 17.066666 42.3936a65.604267 65.604267 0 0 0 61.166934 43.6224c21.0944 0.273067 36.932267 1.365333 48.674133 2.935467a422.434133 422.434133 0 0 1-38.912 35.362133 66.013867 66.013867 0 0 0-21.162667 69.700267c6.212267 20.821333 10.103467 36.864 12.356267 49.152a456.226133 456.226133 0 0 1-38.024533-24.098134 65.672533 65.672533 0 0 0-76.3904 1.2288c-15.018667 11.195733-27.306667 19.319467-37.205334 25.053867a464.213333 464.213333 0 0 1 11.0592-49.3568 65.809067 65.809067 0 0 0-23.278933-69.0176 423.662933 423.662933 0 0 1-39.867733-34.269867c11.741867-1.501867 27.716267-3.208533 48.878933-4.096z"  /></svg>