<?xml version="1.0" standalone="no"?><!DOCTYPE svg PUBLIC "-//W3C//DTD SVG 1.1//EN" "http://www.w3.org/Graphics/SVG/1.1/DTD/svg11.dtd"><svg t="1666072650176" class="icon" viewBox="0 0 1024 1024" version="1.1" xmlns="http://www.w3.org/2000/svg" p-id="3151" xmlns:xlink="http://www.w3.org/1999/xlink" width="200" height="200"><path d="M736.123 169.979h-61.44v-43.433c0-30.956-25.185-56.146-56.146-56.146h-217.16c-30.955 0-56.146 25.185-56.146 56.146v43.433h-61.44v-43.433c0-64.84 52.747-117.586 117.586-117.586h217.165c64.835 0 117.586 52.746 117.586 117.586l-0.005 43.433z" p-id="3152"></path><path d="M987.72 191.693c0 16.967-14.67 30.72-32.763 30.72h-890c-18.094 0-32.762-13.753-32.762-30.72s14.668-30.72 32.762-30.72h890c18.094 0 32.763 13.757 32.763 30.72zM398.48 420.337c16.967 0 30.72 11.668 30.72 26.06v355.318c0 14.393-13.753 26.061-30.72 26.061s-30.72-11.668-30.72-26.06V446.391c0-14.392 13.757-26.055 30.72-26.055z m210.38 0c16.968 0 30.72 11.668 30.72 26.06v355.318c0 14.393-13.752 26.061-30.72 26.061s-30.72-11.668-30.72-26.06V446.391c0-14.392 13.752-26.055 30.72-26.055z" p-id="3153"></path><path d="M826.424 331.428l-37.683 565.284c-1.96 29.388-26.568 52.408-56.023 52.408H287.196c-29.455 0-54.062-23.02-56.018-52.408l-37.683-565.284h-61.583l37.96 569.37c4.1 61.547 55.633 109.762 117.324 109.762h445.522c61.686 0 113.224-48.21 117.325-109.757l37.96-569.375h-61.579z" p-id="3154"></path></svg>