<?xml version="1.0" standalone="no"?><!DOCTYPE svg PUBLIC "-//W3C//DTD SVG 1.1//EN" "http://www.w3.org/Graphics/SVG/1.1/DTD/svg11.dtd"><svg t="1672710643014" class="icon" viewBox="0 0 1024 1024" version="1.1" xmlns="http://www.w3.org/2000/svg" p-id="2089" xmlns:xlink="http://www.w3.org/1999/xlink" width="200" height="200"><path d="M217.738 208.794c165.151-158.377 429.256-158.086 594.125 0.588a427.802 427.802 0 0 1 85.176 115.047l0.005-165.642a15.636 15.636 0 0 1 15.642-15.642l29.271 0.005a15.647 15.647 0 0 1 15.637 15.642l-0.046 217.845c0 0.446-0.062 0.891-0.072 1.332h0.056c0 33.449-27.105 60.57-60.554 60.559l-219.029-0.005a15.647 15.647 0 0 1-15.641-15.642l0.005-29.24a15.631 15.631 0 0 1 15.636-15.637l177.065-0.02c-19.307-46.874-48.63-90.593-88.12-127.79-144.691-136.274-374.748-131.942-514.468 9.42-142.31 143.996-141.788 376.106 1.557 519.45 140.39 140.396 365.9 143.79 510.413 10.19a15.299 15.299 0 0 1 21.222 0.43l21.115 21.114a15.442 15.442 0 0 1 3.138 17.219 15.544 15.544 0 0 1-3.599 4.997c-168.233 156.308-431.386 152.591-595.108-11.131-169.677-169.672-167.49-446.157 6.574-613.084z" p-id="2090"></path></svg>