<?xml version="1.0" standalone="no"?><!DOCTYPE svg PUBLIC "-//W3C//DTD SVG 1.1//EN" "http://www.w3.org/Graphics/SVG/1.1/DTD/svg11.dtd"><svg t="1684461557835" class="icon" viewBox="0 0 1024 1024" version="1.1" xmlns="http://www.w3.org/2000/svg" p-id="6460" xmlns:xlink="http://www.w3.org/1999/xlink" width="200" height="200"><path d="M778.666667 138.666667H245.333333a26.624 26.624 0 0 0-26.666666 26.666666V352h586.666666V165.333333a26.624 26.624 0 0 0-26.666666-26.666666z m-313.344 126.677333c0 3.669333-2.986667 6.656-6.656 6.656H305.322667A6.698667 6.698667 0 0 1 298.666667 265.344V225.28c0-3.669333 2.986667-6.656 6.656-6.656h153.344c3.669333 0 6.656 2.986667 6.656 6.656v40.021333zM218.666667 858.666667c0 14.762667 11.946667 26.666667 26.666666 26.666666h533.333334c14.762667 0 26.666667-11.946667 26.666666-26.666666V672H218.666667v186.666667z m480-113.322667a33.322667 33.322667 0 1 1 0 66.645333 33.322667 33.322667 0 0 1 0-66.645333zM218.666667 618.666667h586.666666v-213.333334H218.666667v213.333334zM298.666667 491.989333c0-3.669333 2.986667-6.656 6.656-6.656h153.344c3.669333 0 6.656 2.986667 6.656 6.656v40.021334c0 3.669333-2.986667 6.656-6.656 6.656H305.322667A6.698667 6.698667 0 0 1 298.666667 532.010667v-40.021334z" p-id="6461"></path></svg>