<?xml version="1.0" standalone="no"?><!DOCTYPE svg PUBLIC "-//W3C//DTD SVG 1.1//EN" "http://www.w3.org/Graphics/SVG/1.1/DTD/svg11.dtd"><svg t="1693358012169" class="icon" viewBox="0 0 1024 1024" version="1.1" xmlns="http://www.w3.org/2000/svg" p-id="6341" xmlns:xlink="http://www.w3.org/1999/xlink" width="200" height="200"><path d="M685.2 96H127v832h768.8v-64H191V160h416v227h224v36l-0.1 444.4h64L895 423v-86.8L685.2 96zM671 177l127.5 146H671V177z" p-id="6342"></path><path d="M255 288h64v64h-64v-64z m0 128.8h64v64h-64v-64z m0 127.6h64v64h-64v-64z m0 127.5h64v64h-64v-64zM383.5 416.8H767v64H383.5v-64z m0 255.1h383.4v64H383.5v-64z m0-128h383.4v64H383.5v-64z m0-255.9h127.6v64H383.5v-64z" p-id="6343"></path></svg>