<?xml version="1.0" standalone="no"?><!DOCTYPE svg PUBLIC "-//W3C//DTD SVG 1.1//EN" "http://www.w3.org/Graphics/SVG/1.1/DTD/svg11.dtd"><svg t="1682404108911" class="icon" viewBox="0 0 1024 1024" version="1.1" xmlns="http://www.w3.org/2000/svg" p-id="5536" xmlns:xlink="http://www.w3.org/1999/xlink" width="200" height="200"><path d="M84.764 672c51.551 51.224 156.087 89.194 331.147 95.284C430.976 845.877 476.711 915.227 543 960h-74.463C213.285 960 64 899.104 64 825.672v-112.12c0.716-16.12 8.234-31.164 20.764-41.552z m-0.712-288c58.365 55.453 174.02 96.239 378.835 96.239H479C432.81 533.545 407.387 601.52 407.387 672 190.04 663.056 64 605.456 64 537.48V425.5c0.358-16.099 7.877-31.125 20.052-41.5zM450.207 64C695.975 64 864 124.875 864 199.357v81.286C864 355.483 694.184 416 450.207 416S64 355.483 64 280.643v-81.286C64 125.233 204.439 64 450.207 64zM704 448c141.246 0.335 255.665 114.754 256 256 0 141.625-114.734 256-256 256-141.266 0-256-114.734-256-256 0-141.266 114.734-256 256-256z m147 319H644c-11.598 0-21 9.402-21 21s9.402 21 21 21h207c11.598 0 21-9.402 21-21s-9.402-21-21-21z m-290 0c-11.598 0-21 9.402-21 21s9.402 21 21 21 21-9.402 21-21-9.402-21-21-21z m290-84H644c-11.598 0-21 9.402-21 21s9.402 21 21 21h207c11.598 0 21-9.402 21-21s-9.402-21-21-21z m-290 0c-11.598 0-21 9.402-21 21s9.402 21 21 21 21-9.402 21-21-9.402-21-21-21z m290-84H644c-11.598 0-21 9.402-21 21s9.402 21 21 21h207c11.598 0 21-9.402 21-21s-9.402-21-21-21z m-290 0c-11.598 0-21 9.402-21 21s9.402 21 21 21 21-9.402 21-21-9.402-21-21-21z" p-id="5537"></path></svg>