<?xml version="1.0" standalone="no"?><!DOCTYPE svg PUBLIC "-//W3C//DTD SVG 1.1//EN" "http://www.w3.org/Graphics/SVG/1.1/DTD/svg11.dtd"><svg t="1683540282691" class="icon" viewBox="0 0 1024 1024" version="1.1" xmlns="http://www.w3.org/2000/svg" p-id="7199" xmlns:xlink="http://www.w3.org/1999/xlink" width="200" height="200"><path d="M0 0m102.4 0l819.2 0q102.4 0 102.4 102.4l0 819.2q0 102.4-102.4 102.4l-819.2 0q-102.4 0-102.4-102.4l0-819.2q0-102.4 102.4-102.4Z" fill="#000000" fill-opacity=".2" p-id="7200"></path><path d="M699.4432 625.5616c-7.1936 19.1488-23.9616 21.5552-43.136 23.936H577.28s-2.4064 40.7296 0 69.4784c-2.4064 57.472-26.368 88.6272-74.24 86.2208-31.1552-2.3808-52.736-21.5552-57.4976-55.0912-2.4064-11.9808 0-23.9616 0-35.9168v-69.4784H376.064c-21.5552 0-43.1104 2.4064-55.0912-21.5552-9.5744-23.9616 7.168-38.3232 23.9616-52.6848 40.704-40.7296 79.0272-81.4592 119.7568-122.1632 28.7488-31.1552 57.4976-31.1552 91.0336 0 40.704 43.1104 83.8144 88.6272 126.9504 131.7376 14.3616 11.9808 26.3424 26.368 16.768 45.5168zM680.2688 393.216c-57.4976-4.7872-117.376-2.4064-172.4672-2.4064H335.36c-33.536 0-50.2784-11.9808-50.2784-47.8976 0-38.3232 19.1488-47.9232 52.6848-45.5168 114.9696 0 229.9392 2.4064 344.9344 0 35.9168 0 50.304 9.5744 50.304 47.8976 0 38.3232-16.768 47.9232-52.7104 47.9232z" fill="#FFFFFF" p-id="7201"></path></svg>