<?xml version="1.0" standalone="no"?><!DOCTYPE svg PUBLIC "-//W3C//DTD SVG 1.1//EN" "http://www.w3.org/Graphics/SVG/1.1/DTD/svg11.dtd"><svg t="1699324479063" class="icon" viewBox="0 0 1024 1024" version="1.1" xmlns="http://www.w3.org/2000/svg" p-id="7131" xmlns:xlink="http://www.w3.org/1999/xlink" width="200" height="200"><path d="M512 153.6a368.64 368.64 0 1 1-368.64 368.64 369.0496 369.0496 0 0 1 368.64-368.64m0-61.44c-237.52704 0-430.08 192.55296-430.08 430.08s192.55296 430.08 430.08 430.08 430.08-192.55296 430.08-430.08A430.08 430.08 0 0 0 512 92.16z" p-id="7132"></path><path d="M673.30048 494.10048h-337.92a30.72 30.72 0 0 0 0 61.44h337.92v-61.44z" p-id="7133"></path><path d="M534.56896 335.09376a29.85984 29.85984 0 0 0-20.48 8.06912 30.72 30.72 0 0 0-0.65536 44.07296l137.46176 137.58464-136.68352 136.64256a31.58016 31.58016 0 0 0-1.55648 43.66336 30.72 30.72 0 0 0 44.07296 0.69632l137.6256-137.50272a61.44 61.44 0 0 0 0-87.04l-136.68352-136.6016a32.768 32.768 0 0 0-23.10144-9.58464z" p-id="7134"></path></svg>