<?xml version="1.0" standalone="no"?><!DOCTYPE svg PUBLIC "-//W3C//DTD SVG 1.1//EN" "http://www.w3.org/Graphics/SVG/1.1/DTD/svg11.dtd"><svg t="1687656958664" class="icon" viewBox="0 0 1024 1024" version="1.1" xmlns="http://www.w3.org/2000/svg" p-id="4814" xmlns:xlink="http://www.w3.org/1999/xlink" width="200" height="200"><path d="M882.036364 272.104727V144.011636a31.976727 31.976727 0 0 0-32.023273-32.023272H173.986909a31.976727 31.976727 0 0 0-31.976727 32.023272v128.093091a31.976727 31.976727 0 0 0-30.021818 31.883637v131.723636c0 24.389818 4.794182 48.081455 14.429091 70.376727 4.282182 10.24 9.588364 19.828364 15.592727 28.904728v344.994909c0 17.594182 14.289455 32.023273 31.976727 32.023272h274.013091v-176.034909h128v176.034909h274.013091c17.687273 0 31.976727-14.289455 31.976727-32.023272v-344.994909a178.734545 178.734545 0 0 0 30.021818-99.281455V303.941818a31.976727 31.976727 0 0 0-30.021818-31.883636z m-72.052364 567.994182H640v-136.098909a31.976727 31.976727 0 0 0-32.023273-32.023273H416.069818a31.976727 31.976727 0 0 0-32.023273 32.023273v136.098909H214.016v-242.176a180.270545 180.270545 0 0 0 79.406545 18.106182 180.596364 180.596364 0 0 0 109.056-36.212364 0.651636 0.651636 0 0 1 0.605091 0c11.915636 8.843636 24.808727 16.290909 38.725819 22.062546 22.295273 9.402182 45.986909 14.103273 70.376727 14.103272a180.596364 180.596364 0 0 0 109.102545-36.165818 0.651636 0.651636 0 0 1 0.605091 0c11.915636 8.843636 24.808727 16.290909 38.725818 22.062546 22.295273 9.402182 45.986909 14.103273 70.376728 14.103272a180.596364 180.596364 0 0 0 70.423272-14.103272c2.978909-1.256727 5.957818-2.56 8.983273-3.956364v242.176h-0.418909z m0-568.087273H214.016v-87.970909h595.968v87.970909z" p-id="4815"></path></svg>