<svg t="1684574026284" class="icon" viewBox="0 0 1024 1024" version="1.1" xmlns="http://www.w3.org/2000/svg" p-id="23439" width="200" height="200"><path d="M224 194.9696h56.0128V250.88H224V194.9696z m96.256 0H376.32V250.88H320.256V194.9696z m95.488 0h56.0128V250.88H415.744V194.9696z m472.2688-130.9696H135.9872c-39.7312 0-71.9872 32.256-71.9872 71.9872v752.0256c0 39.7312 32.256 71.9872 71.9872 71.9872h752.0256c39.7312 0 71.9872-32.256 71.9872-71.9872V135.9872c0-39.7312-32.256-71.9872-71.9872-71.9872zM135.9872 135.9872h752.0256v169.8816H135.9872V135.9872z m752.0256 752.0256H135.9872V377.856h752.0256v510.1568z m-269.312-321.792l101.7856 101.7856-101.7856 101.888 39.5776 39.5776 101.8368-101.888 39.5776-39.5776-141.4144-141.4144-39.5776 39.6288z m-214.3232 0l-39.5776-39.6288-141.4144 141.4144 39.5776 39.6288 101.888 101.8368 39.5264-39.6288-101.7856-101.8368 101.7856-101.7856z m29.696 252.672l98.4064-367.104 54.0672 14.5408-98.304 367.0528-54.1184-14.4896z" p-id="23440"></path></svg>