<?xml version="1.0" standalone="no"?><!DOCTYPE svg PUBLIC "-//W3C//DTD SVG 1.1//EN" "http://www.w3.org/Graphics/SVG/1.1/DTD/svg11.dtd"><svg t="1684561923436" class="icon" viewBox="0 0 1024 1024" version="1.1" xmlns="http://www.w3.org/2000/svg" p-id="6462" xmlns:xlink="http://www.w3.org/1999/xlink" width="200" height="200"><path d="M778.704 898.176H249.6c-11.68 0-21.184-9.504-21.184-21.184V180.624c0-11.68 9.488-21.184 21.184-21.184h352.56c1.28 0 197.712 206.592 197.712 205.088v512.464c0 11.68-9.504 21.184-21.184 21.184z" fill="#FFFFFF" p-id="6463"></path><path d="M855.936 813.056H340.816a20.64 20.64 0 0 1-20.624-20.624V114.448c0-11.36 9.248-20.624 20.64-20.624h343.248c1.232 0 192.48 201.136 192.48 199.68v498.928a20.64 20.64 0 0 1-20.624 20.64z" fill="#D4E6FF" opacity=".523" p-id="6464"></path><path d="M774.384 898.176H245.28c-11.696 0-21.2-9.504-21.2-21.184V180.624c0-11.68 9.504-21.184 21.2-21.184h352.56a21.2 21.2 0 0 1 0 42.368H266.48v653.984h486.72V364.528a21.2 21.2 0 0 1 42.368 0v512.464c0 11.68-9.504 21.184-21.184 21.184z" fill="#1677FF" p-id="6465"></path><path d="M200.624 479.52h624.08v252.576H200.624z" fill="#1677FF" p-id="6466"></path><path d="M824.704 753.328H200.624c-11.68 0-21.2-9.504-21.2-21.2V479.552c0-11.696 9.504-21.2 21.2-21.2h624.08c11.68 0 21.184 9.504 21.184 21.2v252.576c0 11.68-9.504 21.2-21.184 21.2z m-602.896-42.384h581.696V500.736H221.808v210.208z" fill="#1677FF" p-id="6467"></path><path d="M778.688 374.576H605.552c-11.68 0-21.2-9.504-21.2-21.184V173.184a21.216 21.216 0 0 1 36.48-14.688L793.968 338.72a21.184 21.184 0 1 1-15.296 35.872z" fill="#8ABBFF" p-id="6468"></path><path d="M571.616 496.88l1.648 0.448a12.528 12.528 0 0 1 7.52 18.272c-7.504 13.12-15.088 26.176-22.656 39.232l-91.648 158.816a14.08 14.08 0 0 1-4.8 5.28 15.376 15.376 0 0 1-4.4 1.696 2.368 2.368 0 0 0-0.576 0.256h-3.232a11.312 11.312 0 0 0-1.216-0.4 12.56 12.56 0 0 1-8.16-18.464l67.792-117.408c15.536-26.96 31.12-53.888 46.64-80.848a12.928 12.928 0 0 1 6.256-5.824c0.928-0.384 1.92-0.576 2.896-0.864a2.72 2.72 0 0 0 0.48-0.192h3.456z m-235.424 111.68c0.16-0.336 0.352-0.64 0.432-0.96a12.72 12.72 0 0 1 3.52-6.304c21.824-21.84 43.664-43.696 65.52-65.504a11.936 11.936 0 0 1 12.8-3.072 11.888 11.888 0 0 1 8.544 10.064c0.656 4.144-0.544 7.84-3.568 10.848l-45.488 45.472-12.672 12.688-0.624 0.64a13.952 13.952 0 0 0 0.8 0.896l57.968 57.952a12.544 12.544 0 0 1-5.504 21.12 12.016 12.016 0 0 1-12.24-3.232c-4.096-4.048-8.144-8.144-12.208-12.208a52527.216 52527.216 0 0 0-52.912-52.912 13.28 13.28 0 0 1-4-6.976c-0.048-0.256-0.24-0.512-0.368-0.736v-7.792z m351.2 8.4l-0.384 1.312a12.432 12.432 0 0 1-3.136 5.232l-22.112 22.176-7.456 7.52-26.24 26.304c-3.2 3.232-6.368 6.528-9.664 9.712a12.048 12.048 0 0 1-12.864 2.976 11.92 11.92 0 0 1-8.464-10.24 12.032 12.032 0 0 1 3.68-10.688l28.64-28.768 24.608-24.72c1.744-1.744 3.488-3.424 5.328-5.232-0.32-0.352-0.544-0.608-0.8-0.848l-12.8-12.864-33.072-33.2c-4.048-4.032-8.16-8.064-12.112-12.176a11.968 11.968 0 0 1-3.04-12.464 12 12 0 0 1 9.44-8.672c4.48-0.96 8.416 0.32 11.664 3.552 8.8 8.8 17.584 17.664 26.384 26.48 9.76 9.824 19.568 19.648 29.344 29.44 3.2 3.248 6.448 6.464 9.664 9.728 1.664 1.696 2.832 3.68 3.2 6.096 0.016 0.112 0.112 0.176 0.16 0.256 0.032 3.04 0.032 6.08 0.032 9.088z" fill="#FFFFFF" p-id="6469"></path></svg>
