<?xml version="1.0" standalone="no"?><!DOCTYPE svg PUBLIC "-//W3C//DTD SVG 1.1//EN" "http://www.w3.org/Graphics/SVG/1.1/DTD/svg11.dtd"><svg class="icon" width="200px" height="200.00px" viewBox="0 0 1024 1024" version="1.1" xmlns="http://www.w3.org/2000/svg"><path d="M133.677 189.647v229.15c0 242.39 144.725 443.89 378.408 528.278 233.586-84.364 378.238-285.84 378.238-528.156V189.647L512.207 75.926l-378.53 113.721zM512.087 1024l-10.276-3.516C230.536 927.402 62 696.057 62 416.736V135.321L512.212 0 962 135.321v281.54c0 279.246-168.462 510.541-439.611 603.623L512.087 1024z"  /><path d="M516.09 548.587l43.647-46.806a8 8 0 0 1 11.307-0.395l164.554 153.45c14.137 13.182 14.91 35.33 1.728 49.467l-6.82 7.313c-13.183 14.137-35.33 14.91-49.467 1.728l-164.555-153.45a8 8 0 0 1-0.395-11.307z"  /><path d="M446 237c99.411 0 180 80.589 180 180s-80.589 180-180 180-180-80.589-180-180 80.589-180 180-180z m0.5 74C387.682 311 340 358.682 340 417.5S387.682 524 446.5 524 553 476.318 553 417.5 505.318 311 446.5 311z"  /></svg>