<svg t="1698135500217" class="icon" viewBox="0 0 1024 1024" version="1.1" xmlns="http://www.w3.org/2000/svg" p-id="13085" width="200" height="200"><path d="M204.4928 857.856l219.8528-235.52 2.048 213.0944c0 16.0256 12.2368 29.184 27.1872 29.184 15.0016 0 27.2384-13.1584 27.2384-29.184l-2.048-277.1968a30.208 30.208 0 0 0-8.8576-21.5552 26.4704 26.4704 0 0 0-20.1216-9.5744h-268.288c-14.9504 0-27.136 13.1584-27.136 29.184 0 16.0256 12.1856 29.184 27.136 29.184h200.2944L166.0416 816.64a30.6688 30.6688 0 0 0 0 41.216 26.112 26.112 0 0 0 38.4512 0zM778.24 162.9184l-219.904 235.5712-1.9968-213.0944c0-16.0256-12.2368-29.184-27.1872-29.184-15.0016 0-27.2384 13.1584-27.2384 29.184l1.9968 277.1968a30.208 30.208 0 0 0 8.9088 21.5552 26.4704 26.4704 0 0 0 20.1216 9.5232h268.2368c14.9504 0 27.2384-13.1072 27.2384-29.184 0-16.0256-12.288-29.184-27.2384-29.184h-200.2432l215.7568-231.168a30.6688 30.6688 0 0 0 0-41.216 25.9584 25.9584 0 0 0-38.4512 0z" p-id="13086"></path></svg>