<?xml version="1.0" standalone="no"?><!DOCTYPE svg PUBLIC "-//W3C//DTD SVG 1.1//EN" "http://www.w3.org/Graphics/SVG/1.1/DTD/svg11.dtd"><svg class="icon" width="200px" height="200.00px" viewBox="0 0 1024 1024" version="1.1" xmlns="http://www.w3.org/2000/svg"><path d="M864.574293 215.210667l-50.574222 41.528889a389.916444 389.916444 0 0 1-26.282667 523.776 389.404444 389.404444 0 0 1-274.944 114.517333c-47.502222 0-96.028444-9.102222-141.539555-27.363556h101.091555v-64.853333h-204.231111v203.662222H332.833849v-83.057778c26.282667 11.093333 53.532444 20.195556 81.863111 26.282667a454.769778 454.769778 0 0 0 98.076444 11.150222 472.746667 472.746667 0 0 0 195.128889-43.576889 443.733333 443.733333 0 0 0 126.293334-90.168888 455.054222 455.054222 0 0 0 132.494222-300.885334 460.174222 460.174222 0 0 0-102.115556-311.011555zM650.387627 137.671111H560.10496V202.524444h203.889778V0h-64.910222v88.120889a417.792 417.792 0 0 0-85.219556-27.363556 416.312889 416.312889 0 0 0-150.072889-9.102222 475.591111 475.591111 0 0 0-145.066667 40.504889 449.820444 449.820444 0 0 0-127.772444 90.112 457.728 457.728 0 0 0-133.859556 303.786667c-3.015111 114.403556 34.474667 224.824889 108.544 311.864889l49.664-41.528889C85.48096 602.567111 95.607182 370.688 237.601849 227.896889c110.592-109.340444 271.815111-142.791111 412.785778-90.112z" /></svg>