<?xml version="1.0" standalone="no"?><!DOCTYPE svg PUBLIC "-//W3C//DTD SVG 1.1//EN" "http://www.w3.org/Graphics/SVG/1.1/DTD/svg11.dtd"><svg t="1686625668016" class="icon" viewBox="0 0 1024 1024" version="1.1" xmlns="http://www.w3.org/2000/svg" p-id="4838" xmlns:xlink="http://www.w3.org/1999/xlink" width="200" height="200"><path d="M862.353 322.965V252.31c0-39.014-31.674-70.655-70.729-70.655H508.541c0-39.014-31.674-70.655-70.729-70.655h-212.27c-39.055 0-70.73 31.641-70.73 70.655v141.392C115.675 322.965 84 354.606 84 393.62v388.726C84 821.36 115.675 853 154.73 853h707.54c39.055 0 70.73-31.641 70.73-70.655V393.62c0.083-39.013-31.592-70.654-70.647-70.654zM208 180.759c0-9.838 7.943-17.759 17.623-17.759h211.803c9.763 0 17.623 8.004 17.623 17.76v53.36h335.328c9.763 0 17.623 8.005 17.623 17.76V323H208V180.76z m673 600.598c0 9.774-7.95 17.643-17.64 17.643H156.64c-9.773 0-17.64-7.952-17.64-17.643V392.643c0-9.774 7.95-17.643 17.64-17.643h706.638c9.772 0 17.64 7.952 17.64 17.643v388.714H881z" p-id="4839"></path></svg>