<svg t="1687331208580" class="icon" viewBox="0 0 1024 1024" version="1.1" xmlns="http://www.w3.org/2000/svg" p-id="8870" width="200" height="200"><path d="M510.56 972.373333a36.992 36.992 0 0 1-17.152-4.224L61.450667 742.442667A34.56 34.56 0 0 1 42.677333 711.850667V260.565333c0-19.2 16.128-34.730667 36.010667-34.730666 19.84 0 35.968 15.573333 35.968 34.730666V691.2l395.946667 206.933333 395.861333-206.933333V260.565333c0-19.2 16.128-34.730667 36.010667-34.730666 19.882667 0 36.010667 15.573333 36.010666 34.730666v451.328a34.56 34.56 0 0 1-18.858666 30.506667L527.797333 968.149333a36.992 36.992 0 0 1-17.194666 4.224z" p-id="8871"></path><path d="M942.432 295.253333a37.034667 37.034667 0 0 1-17.109333-4.181333l-414.72-216.746667-414.805334 216.789334a37.12 37.12 0 0 1-35.968-0.938667A34.432 34.432 0 0 1 42.677333 259.626667a34.602667 34.602667 0 0 1 18.858667-29.568L493.450667 4.352a37.12 37.12 0 0 1 34.261333 0l431.872 225.706667c14.549333 7.509333 21.930667 23.637333 17.834667 39.082666a35.754667 35.754667 0 0 1-34.986667 26.154667z" p-id="8872"></path><path d="M475.658667 493.781333a34.304 34.304 0 0 1 17.834666-39.082666l366.762667-190.848a36.693333 36.693333 0 0 1 47.573333 14.762666 34.133333 34.133333 0 0 1-13.397333 46.378667l-366.762667 190.848a37.12 37.12 0 0 1-17.066666 4.181333 35.797333 35.797333 0 0 1-34.986667-26.24z" p-id="8873"></path><path d="M493.493333 515.84L123.744 306.474667a34.133333 34.133333 0 0 1-13.397333-46.378667A36.693333 36.693333 0 0 1 157.877333 245.333333l369.749334 209.408c14.506667 7.552 21.845333 23.637333 17.792 39.04a35.797333 35.797333 0 0 1-34.901334 26.24 37.12 37.12 0 0 1-17.066666-4.181333zM195.850667 585.301333l48.469333 19.968c1.024 7.594667 3.157333 13.994667 6.4 19.242667 5.205333 8.533333 12.672 15.061333 22.4 19.626667 7.253333 3.370667 12.885333 4.437333 16.896 3.242666 3.925333-1.28 5.973333-3.882667 5.973333-7.978666 0-3.84-1.877333-8.106667-5.546666-13.013334-3.754667-4.821333-12.458667-11.776-26.112-20.864-22.314667-15.061333-38.272-28.501333-47.744-40.490666-9.6-12.074667-14.293333-23.893333-14.250667-35.498667a23.466667 23.466667 0 0 1 7.509333-18.261333c4.949333-4.522667 12.373333-6.4 22.272-5.674667 9.813333 0.725333 23.381333 5.077333 40.576 13.141333 21.12 9.813333 37.12 20.949333 48.170667 33.194667 11.050667 12.288 17.578667 26.666667 19.626667 43.050667l-48.085334-19.925334a38.058667 38.058667 0 0 0-8.021333-18.432 46.037333 46.037333 0 0 0-16.896-12.416c-5.973333-2.773333-10.410667-3.712-13.482667-2.901333-2.986667 0.853333-4.437333 2.986667-4.48 6.229333 0 2.346667 1.194667 5.077333 3.669334 8.106667 2.389333 3.072 8.106667 7.637333 17.066666 13.525333 22.314667 14.805333 38.272 26.624 47.872 35.541334 9.642667 9.002667 16.64 17.749333 20.992 26.453333 4.352 8.618667 6.485333 16.938667 6.4 25.130667 0 9.514667-2.986667 16.981333-8.917333 22.357333-5.845333 5.290667-14.08 7.68-24.618667 6.869333-10.538667-0.810667-23.765333-4.864-39.68-12.288-28.117333-13.141333-47.530667-27.093333-58.282666-41.898666-10.88-15.018667-16.896-30.378667-18.218667-46.037334zM693.258667 547.242667l45.824-24.832 2.304 112.341333 71.552-38.784 0.768 36.778667-117.461334 63.573333zM579.850667 742.186667c6.570667 4.010667 10.88 6.528 12.885333 7.552 3.968 1.92 8.021333 3.669333 12.16 5.162666l-14.592 25.856a176.213333 176.213333 0 0 1-21.76-11.178666 199.253333 199.253333 0 0 1-15.146667-9.685334c-11.52 4.437333-26.154667 6.613333-43.605333 6.613334-25.856 0-46.208-5.888-61.184-17.706667-17.621333-13.952-26.453333-33.621333-26.453333-58.88 0-24.576 7.722667-43.605333 23.210666-57.173333 15.445333-13.653333 36.992-20.394667 64.682667-20.394667 28.288 0 50.090667 6.570667 65.408 19.882667 15.36 13.312 23.125333 32.341333 23.125333 57.088-0.170667 22.016-6.314667 39.68-18.730666 52.906666z m-40.234667-23.594667c4.138667-6.570667 6.272-16.426667 6.272-29.525333 0-15.104-3.242667-25.813333-9.6-32.298667-6.4-6.442667-15.189333-9.6-26.410667-9.6a34.432 34.432 0 0 0-25.429333 9.813333c-6.485333 6.570667-9.770667 16.853333-9.770667 30.890667 0 16.256 3.2 27.690667 9.557334 34.218667 6.314667 6.570667 15.018667 9.856 26.112 9.856 3.584 0 6.912-0.298667 10.069333-0.896a68.778667 68.778667 0 0 0-20.864-10.581334l8.234667-16.64c4.693333 0.768 8.277333 1.706667 10.88 2.773334 2.56 1.066667 7.637333 3.925333 15.146666 8.533333 1.706667 1.237333 3.669333 2.304 5.802667 3.413333z" p-id="8874"></path></svg>