<svg t="1671592660891" class="icon" viewBox="0 0 1024 1024" version="1.1" xmlns="http://www.w3.org/2000/svg" p-id="1912" width="200" height="200"><path d="M896 992H128V140.8c0-28.608 10.496-55.68 29.056-75.904 16.128-17.664 37.568-29.12 63.104-32.32L230.4 32h563.2c28.16 0 54.336 12.096 73.344 32.896 15.808 17.216 25.856 39.488 28.544 65.28L896 140.8v851.2z m-64-640H192v576h640v-576z m-38.4-256l-561.216-0.064-6.144 0.32a36.096 36.096 0 0 0-22.016 11.84A48.256 48.256 0 0 0 192 140.8v147.2h640V142.464l-0.32-7.232a47.488 47.488 0 0 0-11.904-27.136 35.392 35.392 0 0 0-26.176-12.096z" p-id="1913"></path></svg>