<?xml version="1.0" standalone="no"?><!DOCTYPE svg PUBLIC "-//W3C//DTD SVG 1.1//EN" "http://www.w3.org/Graphics/SVG/1.1/DTD/svg11.dtd"><svg t="1682214123151" class="icon" viewBox="0 0 1024 1024" version="1.1" xmlns="http://www.w3.org/2000/svg" p-id="5612" xmlns:xlink="http://www.w3.org/1999/xlink" width="200" height="200"><path d="M462.293333 53.333333l3.157334 0.426667c6.314667 0 11.093333 4.693333 14.208 11.050667 30.037333 74.282667 235.562667 105.898667 311.466666 110.677333a23.552 23.552 0 0 1 18.944 18.944v328.704a234.88 234.88 0 0 0-37.973333-8.704V211.84c-63.189333-6.314667-251.306667-30.037333-312.96-109.098667-96.426667 93.269333-268.8 107.52-325.674667 110.677334v448.981333c17.365333 33.194667 150.186667 271.914667 328.832 271.914667 36.053333 0 69.546667-10.666667 100.138667-27.904 8.533333 9.472 17.92 18.346667 27.904 26.368l-6.656 3.925333c-36.437333 20.906667-77.013333 33.962667-121.386667 33.962667-213.418667 0-358.869333-284.586667-365.226666-297.216-1.152-1.194667-1.450667-3.242667-1.536-5.546667V194.432c0-11.093333 7.893333-18.944 18.944-18.944h1.450666c20.053333-0.213333 241.322667-4.906667 332.117334-115.413333a22.528 22.528 0 0 1 11.093333-6.442667l3.157333-0.298667zM356.352 319.317333v75.904h45.866667v42.666667H356.352v25.301333c18.986667 20.565333 39.509333 42.666667 60.074667 66.389334l-25.301334 37.973333c-14.208-22.186667-25.301333-41.130667-34.773333-53.76v199.168H312.106667v-186.538667c-12.672 33.194667-26.88 63.232-42.666667 90.112l-18.986667-48.981333c28.458667-37.973333 48.981333-82.218667 61.653334-129.664H264.661333v-42.666667h47.445334V319.317333h44.245333z m104.362667 390.485334l-9.514667-41.088c14.250667 1.578667 26.88 3.157333 37.973333 3.157333 11.050667 0 15.786667-6.314667 15.786667-17.365333v-169.173334H405.376v-42.666666h245.034667v42.666666h-101.162667l-0.042667 121.045334a235.178667 235.178667 0 0 0-44.245333 103.424h-44.245333z m-20.565334-196.010667l41.088 7.893333c-12.629333 61.653333-31.573333 112.213333-56.917333 156.501334l-39.509333-25.301334c26.88-42.666667 44.288-90.112 55.338666-139.093333z m169.173334-3.157333c3.712 10.922667 7.338667 21.888 10.794666 32.938666-13.226667 7.68-25.642667 16.512-37.12 26.453334a1464.832 1464.832 0 0 0-13.226666-45.184l39.552-14.208z m18.944-172.330667v42.666667H427.52v-42.666667h200.746667z" p-id="5613"></path><path d="M739.370667 951.466667a195.754667 195.754667 0 0 1-139.306667-57.728 195.754667 195.754667 0 0 1-57.728-139.264c0-52.608 20.48-102.101333 57.728-139.306667a195.754667 195.754667 0 0 1 139.306667-57.728c52.565333 0 102.058667 20.48 139.264 57.728a195.754667 195.754667 0 0 1 57.770666 139.306667 195.754667 195.754667 0 0 1-57.770666 139.264 195.754667 195.754667 0 0 1-139.264 57.770666z m0-361.429334a164.565333 164.565333 0 0 0-164.437334 164.437334 164.565333 164.565333 0 0 0 164.437334 164.437333 164.565333 164.565333 0 0 0 164.437333-164.437333 164.565333 164.565333 0 0 0-164.437333-164.437334z m102.570666 180.437334a13.312 13.312 0 0 0-13.312-13.354667H741.973333v-102.144a13.312 13.312 0 1 0-26.666666 0v115.498667c0 7.338667 5.973333 13.312 13.354666 13.312h100.010667c7.381333 0 13.312-5.973333 13.312-13.312z" p-id="5614"></path></svg>