<svg t="1678363758702" class="icon" viewBox="0 0 1024 1024" version="1.1" xmlns="http://www.w3.org/2000/svg" p-id="3288" width="200" height="200"><path d="M906.661647 151.431529L531.998118 2.529882a34.816 34.816 0 0 0-25.419294 0L113.242353 151.070118a35.659294 35.659294 0 0 0-22.829177 33.129411v414.358589c0 56.259765 22.829176 111.856941 67.764706 165.225411 33.912471 40.297412 80.715294 79.510588 138.902589 116.434824a1125.315765 1125.315765 0 0 0 197.210353 98.183529 33.551059 33.551059 0 0 0 11.986823 2.168471h0.843294c4.156235 0 8.252235-0.602353 12.16753-1.867294a1153.867294 1153.867294 0 0 0 199.920941-98.18353c59.030588-36.984471 106.435765-75.956706 141.071059-116.254117 45.658353-53.549176 68.848941-109.266824 68.848941-165.586824V184.500706a35.237647 35.237647 0 0 0-22.467765-33.069177z m-48.368941 447.126589c0 91.678118-95.593412 170.887529-175.887059 221.244235a1083.632941 1083.632941 0 0 1-175.706353 87.762823 1070.260706 1070.260706 0 0 1-171.851294-86.738823c-78.787765-50.356706-172.694588-129.566118-172.694588-222.268235V208.655059l356.592941-135.649883 339.606588 135.04753v390.505412z" p-id="3289"></path><path d="M402.612706 711.740235V480.918588c12.047059 17.347765 26.503529 39.032471 42.887529 65.054118l26.021647-39.032471c-23.130353-27.949176-46.260706-53.007059-68.909176-75.655529v-31.322353h52.043294v-43.851294h-52.043294V268.890353H357.797647v87.220706h-54.934588v43.851294h54.452706a438.392471 438.392471 0 0 1-70.354824 150.829176l19.757177 50.115765a571.211294 571.211294 0 0 0 51.079529-107.941647v218.774588h44.815059z m305.995294-375.868235v-43.369412H485.496471v43.369412h223.111529z m-137.336471 371.049412c31.804235 0 48.188235-16.384 48.188236-48.670118V452.487529h114.206117v-43.851294H460.438588v43.851294h113.242353v194.680471c0 13.010824-6.264471 19.757176-17.829647 19.757176-13.492706 0-27.949176-0.963765-42.405647-2.891294l9.155765 42.88753h48.670117z m121.916236-30.840471l41.923764-18.793412a1504.195765 1504.195765 0 0 0-49.633882-173.477647l-40.96 13.492706c17.347765 52.043294 33.731765 111.314824 48.670118 178.778353z m-216.365177-4.818823c27.949176-49.152 49.633882-106.977882 65.054118-174.441412L499.952941 487.664941a517.360941 517.360941 0 0 1-63.126588 158.057412l39.996235 25.539765z" p-id="3290"></path></svg>