<?xml version="1.0" standalone="no"?><!DOCTYPE svg PUBLIC "-//W3C//DTD SVG 1.1//EN" "http://www.w3.org/Graphics/SVG/1.1/DTD/svg11.dtd"><svg t="1686302971055" class="icon" viewBox="0 0 1024 1024" version="1.1" xmlns="http://www.w3.org/2000/svg" p-id="12271" xmlns:xlink="http://www.w3.org/1999/xlink" width="200" height="200"><path d="M388.49374 882.767712H601.590033a123.570253 123.570253 0 1 1 10.622818 70.584148H353.16967a35.196084 35.196084 0 0 1-35.260077-35.260078V388.486701c0-2.431729 0.191979-4.799466 0.639928-7.10321a194.218393 194.218393 0 1 1 69.944219 6.335295v142.000203H601.590033a123.570253 123.570253 0 1 1 10.622818 70.584147H388.49374v282.464576z m-17.662035-564.929152a123.570253 123.570253 0 1 0 0-247.140505 123.570253 123.570253 0 0 0 0 247.140505z" p-id="12272"></path></svg>