<?xml version="1.0" standalone="no"?><!DOCTYPE svg PUBLIC "-//W3C//DTD SVG 1.1//EN" "http://www.w3.org/Graphics/SVG/1.1/DTD/svg11.dtd"><svg class="icon" width="200px" height="200.00px" viewBox="0 0 1024 1024" version="1.1" xmlns="http://www.w3.org/2000/svg"><path d="M586.688 63.232c22.016 0 40.192 24.384 40.192 53.888v788.224c0 29.44-18.176 53.888-40.192 53.888H436.352c-22.016 0-40.192-23.104-40.192-52.608V117.12c0-29.44 18.176-53.888 40.192-53.888h150.336z m-63.552 258.56h-23.232c-32 0-56.768 23.424-56.768 53.76v466.368c0 30.272 24.768 53.632 56.768 53.632h23.232c32 0 56.768-23.36 56.768-53.632V375.488c0-30.272-24.768-53.632-56.768-53.632zM254.464 63.232c22.08 0 40.256 24.384 40.256 53.888v788.224c0 29.44-18.176 53.888-40.256 53.888H103.232c-22.016 0-39.232-23.104-39.232-52.608V117.12c0-29.44 18.176-53.888 40.192-53.888h150.272z m-63.488 258.56h-23.232c-32 0-56.768 23.424-56.768 53.76v466.368c0 30.272 24.768 53.632 56.768 53.632h23.232c32 0 56.704-23.36 56.704-53.632V375.488c0-30.272-24.704-53.632-56.704-53.632zM919.808 63.232c22.016 0 40.192 24.384 40.192 53.888v788.224c0 29.44-18.176 53.888-40.192 53.888h-151.232c-22.016 0-39.296-23.104-39.296-52.608V117.12c0-29.44 18.176-53.888 40.256-53.888h150.272z m-64.064 258.56h-22.144a53.056 53.056 0 0 0-54.016 53.76v466.368c0 30.272 23.552 53.632 54.016 53.632h22.144a53.056 53.056 0 0 0 53.952-53.632V375.488a53.056 53.056 0 0 0-53.952-53.632z" /></svg>