<?xml version="1.0" standalone="no"?><!DOCTYPE svg PUBLIC "-//W3C//DTD SVG 1.1//EN" "http://www.w3.org/Graphics/SVG/1.1/DTD/svg11.dtd"><svg class="icon" width="64px" height="64.00px" viewBox="0 0 1024 1024" version="1.1" xmlns="http://www.w3.org/2000/svg"><path d="M504.875223 635.329215c-104.959672 0-190.463405-84.095737-190.463405-187.455415 0-103.359677 85.375733-187.391414 190.463405-187.391414 104.959672 0 190.463405 84.031737 190.463404 187.391414 0 21.887932-3.839988 43.583864-11.391964 63.9998H610.730892c12.159962-19.07194 18.559942-41.279871 18.559942-63.9998 0-67.391789-55.807826-122.239618-124.415611-122.239618-68.479786 0-124.351611 54.847829-124.351612 122.239618 0 67.519789 55.743826 122.431617 124.351612 122.431618v65.023797zM512.1072 851.20054v30.143906c-0.128 8.575973-6.39998 14.527955-15.039953 14.527954H422.44348c-29.567908 0.383999-43.263865-30.143906-44.927859-59.647813l-15.231953-59.711814a366.014856 366.014856 0 0 1-76.60776-41.983868l-62.143806 25.087921a56.319824 56.319824 0 0 1-73.919769-21.375933L71.596577 605.761307A54.39983 54.39983 0 0 1 89.70852 532.097537l53.311833-40.639873a324.926985 324.926985 0 0 1 0-87.039728l-53.183833-40.575873a54.27183 54.27183 0 0 1-18.239943-73.343771l77.951756-132.735585a56.319824 56.319824 0 0 1 73.72777-21.439933l62.335805 25.023922a358.39888 358.39888 0 0 1 76.60776-43.327865L371.30764 52.355036A55.167828 55.167828 0 0 1 426.987466 0.0032h155.647514c29.887907 0 54.27183 22.847929 55.679826 52.223837l9.087971 65.791794c27.263915 11.263965 52.991834 25.855919 76.73576 43.327865l62.271806-24.959922a56.447824 56.447824 0 0 1 73.791769 21.375933l77.695757 132.607586a54.33583 54.33583 0 0 1-17.983943 73.663769c-16.12795 13.695957-32.639898 26.879916-49.471846 39.423877 0 19.19994 0.319999 54.079831 1.023997 104.575673h-75.775763l-0.831998-131.13559 81.279746-61.823807-69.439783-118.527629-94.079706 39.743876-15.359952-12.86396a295.871075 295.871075 0 0 0-91.199715-51.583839l-18.751941-6.719979-13.887957-100.095687H436.139437L422.315481 165.122684l-18.751942 6.719979a300.159062 300.159062 0 0 0-91.327714 51.647839l-15.295953 12.73596-94.783703-38.143881-68.671786 116.735635 81.279746 61.887807-3.647988 19.391939c-3.19999 17.023947-4.863985 34.367893-4.927985 51.711839 0.064 17.279946 1.727995 34.751891 4.863985 51.775838l3.455989 19.391939-81.151746 61.887807 69.695782 118.46363 85.439733-41.79187 133.887581 74.239768 15.039953 104.447674h59.647814c1.919994 0.191999 15.039953 7.423977 15.039953 14.975953zM732.714511 561.729445l148.351536 83.07174v167.679476l-148.351536 83.07174-148.287537-83.00774V646.40118l148.287537-83.07174m0-41.471871c-7.423977 0-14.719954 1.919994-21.119934 5.567983L563.115041 610.561292a41.343871 41.343871 0 0 0-21.119934 35.839888v166.143481c0 14.783954 8.063975 28.479911 21.119934 35.839888l148.351536 83.07174a43.135865 43.135865 0 0 0 42.431867 0l148.287537-83.00774a41.343871 41.343871 0 0 0 21.247934-35.903888V646.40118a41.343871 41.343871 0 0 0-21.247934-35.903888L754.026444 527.489552a43.071865 43.071865 0 0 0-21.247934-5.567983zM732.714511 708.736985c14.143956 0 21.247934 6.911978 21.247933 20.735935v166.079481c0 13.823957-7.039978 20.735935-21.247933 20.735936-14.079956 0-21.119934-6.911978-21.119934-20.735936v-166.079481c0-13.823957 7.039978-20.735935 21.119934-20.735935zM578.090994 636.417211c7.039978-11.967963 16.703948-14.527955 28.927909-7.615976l127.743601 72.255774c12.287962 6.911978 14.847954 16.383949 7.807976 28.351912-7.039978 11.967963-16.767948 14.527955-28.99191 7.615976l-127.7436-72.255774c-12.159962-6.911978-14.783954-16.383949-7.679976-28.351912zM730.666517 701.121009l134.52758-76.095762c12.223962-6.911978 21.887932-4.351986 28.927909 7.615976 7.039978 11.967963 4.479986 21.439933-7.679976 28.351911l-134.591579 76.095763c-12.159962 6.911978-21.887932 4.351986-28.92791-7.615977-7.039978-11.967963-4.479986-21.439933 7.743976-28.351911z" /></svg>