<?xml version="1.0" standalone="no"?><!DOCTYPE svg PUBLIC "-//W3C//DTD SVG 1.1//EN" "http://www.w3.org/Graphics/SVG/1.1/DTD/svg11.dtd"><svg class="icon" width="64px" height="64.00px" viewBox="0 0 1024 1024" version="1.1" xmlns="http://www.w3.org/2000/svg"><path d="M1010.602099 946.388128l-233.305883-233.013336A437.503384 437.503384 0 0 0 437.722794 0 437.503384 437.503384 0 0 0 0 437.35711a437.503384 437.503384 0 0 0 437.722794 437.357111 435.601831 435.601831 0 0 0 275.140041-97.198596l233.305884 233.086474a45.344717 45.344717 0 0 0 64.360243 0 45.417854 45.417854 0 0 0 0-64.287107z m-434.431645-181.378868a353.249974 353.249974 0 0 1-138.44766 27.86506 355.2978 355.2978 0 0 1-355.73662-355.444073 354.493297 354.493297 0 0 1 104.146576-251.44377 354.42016 354.42016 0 0 1 251.590044-104.07344 355.2978 355.2978 0 0 1 355.736619 355.444073 354.493297 354.493297 0 0 1-104.146576 251.44377 357.638172 357.638172 0 0 1-113.142383 76.20838z" /></svg>