<svg t="1713165886881" class="icon" viewBox="0 0 1024 1024" version="1.1" xmlns="http://www.w3.org/2000/svg" p-id="8483" width="200" height="200"><path d="M860 114c27.614 0 50 22.386 50 50v266c0 27.614-22.386 50-50 50H444c-27.614 0-50-22.386-50-50V164c0-27.614 22.386-50 50-50h416z m0 50H444v266h416V164zM264 114c27.614 0 50 22.386 50 50v266c0 27.614-22.386 50-50 50H164c-27.614 0-50-22.386-50-50V164c0-27.614 22.386-50 50-50h100z m0 50H164v266h100V164zM581 910c27.614 0 50-22.386 50-50V594c0-27.614-22.386-50-50-50H165c-27.614 0-50 22.386-50 50v266c0 27.614 22.386 50 50 50h416z m0-50H165V594h416v266zM861 910c27.614 0 50-22.386 50-50V594c0-27.614-22.386-50-50-50H761c-27.614 0-50 22.386-50 50v266c0 27.614 22.386 50 50 50h100z m0-50H761V594h100v266z" p-id="8484"></path></svg>