<?xml version="1.0" standalone="no"?><!DOCTYPE svg PUBLIC "-//W3C//DTD SVG 1.1//EN" "http://www.w3.org/Graphics/SVG/1.1/DTD/svg11.dtd"><svg t="1679896308560" class="icon" viewBox="0 0 1024 1024" version="1.1" xmlns="http://www.w3.org/2000/svg" p-id="4271" xmlns:xlink="http://www.w3.org/1999/xlink" width="200" height="200"><path d="M923.84 144.896h-188.032V73.28a8.96 8.96 0 0 0-8.96-8.96h-62.656a8.96 8.96 0 0 0-8.96 8.96v71.68H368.768v-71.68a8.96 8.96 0 0 0-8.96-8.96h-62.72a8.96 8.96 0 0 0-8.96 8.96v71.68H100.224c-19.84 0-35.84 16-35.84 35.776v743.104c0 19.84 16 35.84 35.84 35.84h823.68c19.84 0 35.84-16 35.84-35.84V180.736c0-19.84-16-35.84-35.84-35.84z m-44.8 734.208H145.024V225.472h143.232v53.76c0 4.928 4.032 8.96 8.96 8.96h62.656a8.96 8.96 0 0 0 8.96-8.96v-53.76h286.464v53.76c0 4.928 4.032 8.96 8.96 8.96h62.72a8.96 8.96 0 0 0 8.96-8.96v-53.76h143.232v653.632zM709.056 408.96h-61.824a18.176 18.176 0 0 0-14.528 7.424L463.744 648.96 391.36 549.376a18.048 18.048 0 0 0-14.528-7.36h-61.824c-7.232 0-11.52 8.256-7.232 14.208l141.44 194.688a18.048 18.048 0 0 0 29.12 0l237.888-327.552a9.024 9.024 0 0 0-7.232-14.336z" p-id="4272"></path></svg>