<?xml version="1.0" standalone="no"?><!DOCTYPE svg PUBLIC "-//W3C//DTD SVG 1.1//EN" "http://www.w3.org/Graphics/SVG/1.1/DTD/svg11.dtd"><svg t="1683596169401" class="icon" viewBox="0 0 1024 1024" version="1.1" xmlns="http://www.w3.org/2000/svg" p-id="6038" xmlns:xlink="http://www.w3.org/1999/xlink" width="200" height="200"><path d="M512 610c-9.6 0-16-3.2-22.4-9.6l-384-384c-12.8-12.8-12.8-32 0-44.8 12.8-12.8 32-12.8 44.8 0L512 533.2l361.6-361.6c12.8-12.8 32-12.8 44.8 0 12.8 12.8 12.8 32 0 44.8l-384 384c-6.4 6.4-12.8 9.6-22.4 9.6z" p-id="6039"></path><path d="M512 866c-9.6 0-16-3.2-22.4-9.6l-384-384c-12.8-12.8-12.8-32 0-44.8 12.8-12.8 32-12.8 44.8 0L512 789.2l361.6-361.6c12.8-12.8 32-12.8 44.8 0 12.8 12.8 12.8 32 0 44.8l-384 384c-6.4 6.4-12.8 9.6-22.4 9.6z" p-id="6040"></path></svg>