<?xml version="1.0" standalone="no"?><!DOCTYPE svg PUBLIC "-//W3C//DTD SVG 1.1//EN" "http://www.w3.org/Graphics/SVG/1.1/DTD/svg11.dtd"><svg t="1684461562148" class="icon" viewBox="0 0 1024 1024" version="1.1" xmlns="http://www.w3.org/2000/svg" p-id="6608" xmlns:xlink="http://www.w3.org/1999/xlink" width="200" height="200"><path d="M634.965333 294.741333c45.952 51.072 42.24 123.690667 38.997334 158.72 14.890667 26.88 13.269333 61.738667 3.626666 87.296a84.48 84.48 0 0 1-25.514666 36.608 249.088 249.088 0 0 1-39.722667 79.786667c37.546667 12.544 99.498667 40.021333 148.906667 79.232h193.706666c0-85.76-170.624-163.754667-216.362666-171.52-14.08-2.304-14.549333-42.794667-14.549334-42.794667s41.728-42.922667 50.773334-100.608c24.448 0 39.594667-61.013333 15.061333-82.688 1.066667-22.485333 31.488-177.706667-122.026667-177.706666-81.066667 0-111.104 43.349333-121.216 87.552 36.608 6.144 66.218667 21.589333 88.32 46.122666zM403.2 657.066667a248.277333 248.277333 0 0 1-39.594667-79.36 83.968 83.968 0 0 1-25.429333-36.608c-9.728-25.685333-11.264-60.586667 3.584-87.466667-3.114667-34.986667-6.4-107.946667 39.808-158.848 23.722667-26.197333 55.893333-41.941333 95.829333-47.146667-10.069333-43.904-40.021333-86.570667-120.277333-86.570666-153.514667 0-123.989333 155.221333-123.008 177.92-24.448 21.546667-9.386667 82.773333 15.061333 82.773333 8.874667 57.386667 50.645333 100.394667 50.645334 100.394667s-0.341333 40.448-14.506667 42.837333c-45.525333 7.466667-216.32 85.418667-216.32 171.221333h186.624A513.92 513.92 0 0 1 403.2 657.066667z m175.786667 34.389333c-14.08-2.346667-14.506667-42.837333-14.506667-42.837333s41.728-42.794667 50.816-100.437334c24.448 0 39.637333-61.013333 15.061333-82.773333 1.109333-22.357333 31.488-177.578667-122.026666-177.578667s-123.989333 155.178667-123.050667 177.834667c-24.448 21.589333-9.386667 82.773333 15.061333 82.773333 9.045333 57.6 50.816 100.437333 50.816 100.437334s-0.170667 40.448-14.250666 42.837333c-45.653333 7.466667-216.32 85.418667-216.32 171.178667h574.848c0-85.76-170.794667-163.712-216.405334-171.434667z" p-id="6609"></path></svg>