<svg t="1704272230376" class="icon" viewBox="0 0 1024 1024" version="1.1" xmlns="http://www.w3.org/2000/svg" p-id="7804" width="200" height="200"><path d="M383.977 638.04c-135.863-8.32-252.016-42.877-319.98-91.13v93.05c0 63.42 138.36 116.089 319.98 126.2v63.868c-135.863-8.32-252.016-42.813-319.98-91.13v93.05H0.001V223.986C0.001 100.282 200.565 0 447.973 0c247.409 0 447.972 100.282 447.972 223.986v202.1H831.95v-86.651c-78.395 65.02-221.042 108.537-383.976 108.537s-305.58-43.517-383.976-108.537v108.537c0 63.42 138.36 116.089 319.98 126.2v63.868z m63.996 385.896C200.565 1023.936 0.001 937.989 0.001 831.948h63.996c0 70.716 171.894 127.992 383.976 127.992v63.996z m0-639.96c212.083 0 383.976-71.676 383.976-159.99 0-88.314-171.893-159.99-383.976-159.99-212.082 0-383.976 71.676-383.976 159.99 0 88.314 171.894 159.99 383.976 159.99z" p-id="7805"></path><path d="M738 976.333c131.631 0 238.333-106.702 238.333-238.333S869.631 499.667 738 499.667 499.667 606.369 499.667 738 606.369 976.333 738 976.333z m0 47.667c-157.943 0-286-128.057-286-286s128.057-286 286-286 286 128.057 286 286-128.057 286-286 286z" p-id="7806"></path><path d="M743.007 583c-34.808 0-62.464 9.98-82.49 30.418C640.013 633.379 630 660.47 630 695.165h50.543c0-20.912 4.291-37.547 12.874-48.953 9.537-13.308 25.272-19.962 46.729-19.962 17.165 0 30.516 4.753 40.053 14.258 9.06 9.506 13.827 22.338 13.827 38.973 0 12.357-4.29 23.764-12.874 34.695l-8.106 9.03c-29.563 26.14-47.682 45.626-54.357 58.934-6.199 12.357-9.06 27.566-9.06 45.151v8.08h51.02v-8.08c0-11.882 2.384-22.338 7.63-31.843 4.29-8.555 10.966-16.635 19.549-24.24 22.887-19.485 36.238-31.843 40.53-37.07C839.8 718.927 846 699.441 846 676.153c0-28.517-9.536-51.33-28.132-67.964C798.795 591.08 774 583 743.007 583zM734.9 861.036c-10.014 0-18.12 2.851-24.318 9.505-7.153 6.179-10.49 14.258-10.49 24.24 0 9.505 3.337 17.584 10.49 24.238C716.78 925.673 724.887 929 734.9 929c9.536 0 18.119-3.327 25.271-9.505 6.676-6.654 10.013-14.734 10.013-24.715 0-9.98-3.337-18.06-10.013-24.239-6.675-6.654-15.258-9.505-25.271-9.505z" p-id="7807"></path></svg>