<svg t="1678867150362" class="icon" viewBox="0 0 1024 1024" version="1.1" xmlns="http://www.w3.org/2000/svg" p-id="3378" width="200" height="200"><path d="M874.057143 925.769143L98.230857 149.942857a36.644571 36.644571 0 0 1 0-51.712 36.644571 36.644571 0 0 1 51.712 0L925.769143 874.057143a36.644571 36.644571 0 0 1 0 51.712 36.644571 36.644571 0 0 1-51.712 0zM428.982857 282.697143l138.752-138.752a221.476571 221.476571 0 0 1 312.32 0 221.476571 221.476571 0 0 1 0 312.32l-138.752 138.752 52.004572 52.004571 144.822857-144.822857a295.277714 295.277714 0 0 0 0-416.329143 295.277714 295.277714 0 0 0-416.402286 0l-144.822857 144.822857 52.077714 52.004572z m166.034286 458.605714l-138.752 138.752a221.476571 221.476571 0 0 1-312.32 0 221.476571 221.476571 0 0 1 0-312.32l138.752-138.752-52.004572-52.004571-144.822857 144.749714a295.277714 295.277714 0 0 0 0 416.402286 295.277714 295.277714 0 0 0 416.402286 0l144.822857-144.822857-52.077714-52.004572z" p-id="3379"></path></svg>