<?xml version="1.0" standalone="no"?><!DOCTYPE svg PUBLIC "-//W3C//DTD SVG 1.1//EN" "http://www.w3.org/Graphics/SVG/1.1/DTD/svg11.dtd"><svg t="1666072403690" class="icon" viewBox="0 0 1024 1024" version="1.1" xmlns="http://www.w3.org/2000/svg" p-id="1390" xmlns:xlink="http://www.w3.org/1999/xlink" width="200" height="200"><path d="M554.642286 119.442286v627.2c0 25.6-17.042286 42.715429-42.642286 42.715428s-42.642286-17.115429-42.642286-42.715428v-614.4L307.2 294.4a41.252571 41.252571 0 0 1-59.757714 0 41.252571 41.252571 0 0 1 0-59.757714L456.557714 25.6a82.505143 82.505143 0 0 1 119.442286 0l209.042286 209.042286a41.252571 41.252571 0 0 1 0 59.757714 41.252571 41.252571 0 0 1-59.684572 0L554.642286 119.442286z m384 541.915428c0-25.6 17.115429-42.715429 42.715428-42.715428s42.642286 17.115429 42.642286 42.715428v213.284572c0 72.557714-55.442286 128-128 128H128c-72.557714 0-128-55.442286-128-128V661.357714c0-25.6 17.042286-42.715429 42.642286-42.715428s42.715429 17.115429 42.715428 42.715428v213.284572c0 25.6 17.042286 42.715429 42.642286 42.715428h768c25.6 0 42.642286-17.115429 42.642286-42.715428V661.357714z" p-id="1391"></path></svg>