<?xml version="1.0" standalone="no"?><!DOCTYPE svg PUBLIC "-//W3C//DTD SVG 1.1//EN" "http://www.w3.org/Graphics/SVG/1.1/DTD/svg11.dtd"><svg t="1699596038912" class="icon" viewBox="0 0 1024 1024" version="1.1" xmlns="http://www.w3.org/2000/svg" p-id="13563" xmlns:xlink="http://www.w3.org/1999/xlink" width="200" height="200"><path d="M177.34 460.51L32.95 316.12c-38.785-38.785-38.785-101.895 0-140.681L177.34 31.052c38.786-38.785 101.897-38.785 140.682 0L462.409 175.44c38.785 38.785 38.785 101.895 0 140.681L318.02 460.509c-38.786 38.785-101.897 38.785-140.682 0z m98.474-387.252c-15.514-15.514-40.754-15.513-56.268 0L75.158 217.647c-15.514 15.514-15.514 40.755 0 56.269l144.388 144.388c15.514 15.514 40.754 15.513 56.268 0l144.388-144.388c15.514-15.514 15.514-40.755 0-56.269L275.814 73.258z m599.22 374.097H670.838c-54.85 0-99.477-44.626-99.477-99.477V143.683c0-54.851 44.626-99.477 99.477-99.477h204.196c54.85 0 99.476 44.626 99.476 99.477v204.195c-0.005 54.851-44.626 99.477-99.476 99.477z m-204.196-343.46c-21.94 0-39.788 17.848-39.788 39.788v204.195c0 21.94 17.849 39.788 39.788 39.788h204.196c21.939 0 39.787-17.848 39.787-39.788V143.683c0-21.94-17.848-39.788-39.787-39.788H670.838z m-321.06 873.948H145.582c-54.85 0-99.476-44.626-99.476-99.476V674.166c0-54.85 44.626-99.477 99.476-99.477h204.196c54.85 0 99.476 44.626 99.476 99.477v204.2c0 54.856-44.626 99.477-99.476 99.477zM145.582 634.378c-21.94 0-39.787 17.849-39.787 39.788v204.2c0 21.94 17.848 39.788 39.787 39.788h204.196c21.94 0 39.787-17.848 39.787-39.787V674.166c0-21.94-17.848-39.788-39.787-39.788H145.582z m729.452 343.465H670.838c-54.85 0-99.477-44.626-99.477-99.476V674.166c0-54.85 44.626-99.477 99.477-99.477h204.196c54.85 0 99.476 44.626 99.476 99.477v204.2c-0.005 54.856-44.626 99.477-99.476 99.477zM670.838 634.378c-21.94 0-39.788 17.849-39.788 39.788v204.2c0 21.94 17.849 39.788 39.788 39.788h204.196c21.939 0 39.787-17.848 39.787-39.787V674.166c0-21.94-17.848-39.788-39.787-39.788H670.838z" p-id="13564"></path></svg>