<?xml version="1.0" standalone="no"?><!DOCTYPE svg PUBLIC "-//W3C//DTD SVG 1.1//EN" "http://www.w3.org/Graphics/SVG/1.1/DTD/svg11.dtd"><svg t="1708929932487" class="icon" viewBox="0 0 1024 1024" version="1.1" xmlns="http://www.w3.org/2000/svg" p-id="24682" xmlns:xlink="http://www.w3.org/1999/xlink" width="200" height="200"><path d="M781.32743 256.383918a36.782975 36.782975 0 0 0-36.709848-36.636721H277.115475a36.782975 36.782975 0 0 0-36.709848 36.636721c0 20.109976 16.453617 36.709848 36.636721 36.709848h467.575234a36.782975 36.782975 0 0 0 36.709848-36.709848zM277.042348 438.982504a36.782975 36.782975 0 0 0-36.636721 36.709848c0 20.109976 16.453617 36.636721 36.636721 36.63672h218.357781a36.636721 36.636721 0 1 0 0-73.346568H277.042348z m525.857602 375.65436a32.468471 32.468471 0 0 0-7.897736-5.850175c20.694994-29.543384 32.834107-65.302578 32.834107-103.913733 0-100.769264-82.779976-182.379204-184.792402-182.379205-102.012426 0-184.719274 81.609941-184.719274 182.379205 0 100.769264 82.633721 182.379204 184.719274 182.379204 37.367993 0 72.249661-10.969078 101.354281-29.835892a36.563594 36.563594 0 0 0 6.581447 9.140898l95.211598 95.138471a36.782975 36.782975 0 0 0 51.920303-51.847176l-95.211598-95.211597z m-159.856031 0.731271a111.226451 111.226451 0 0 1-111.957723-110.495179c0-60.988074 50.16525-110.49518 111.957723-110.49518 61.792473 0 111.957723 49.507106 111.957724 110.422053a111.153324 111.153324 0 0 1-111.884597 110.568306z" p-id="24683"></path><path d="M586.955367 950.141541H179.710062c-40.219953 0-73.127187-32.907234-73.127187-73.127187V147.497536c0-40.219953 32.907234-73.127187 73.127187-73.127187h625.383704c40.219953 0 73.127187 32.907234 73.127187 73.127187v363.734629h0.365636v0.146254a36.709848 36.709848 0 0 0 73.56595 0c0-1.389417-0.146254-2.632579-0.219382-4.021995V146.254374c0-80.439906-31.590945-146.254374-112.03085-146.254374H184.097693c-80.439906 0-146.254374 65.814468-146.254374 146.254374v731.052489c0 80.439906 65.814468 146.254374 146.254374 146.254374h402.418911a36.709848 36.709848 0 0 0 0.438763-73.346569z m291.484967-292.508748a36.709848 36.709848 0 1 0 73.492823-0.219382 36.709848 36.709848 0 0 0-73.492823 0.146255z" p-id="24684"></path></svg>