<?xml version="1.0" standalone="no"?><!DOCTYPE svg PUBLIC "-//W3C//DTD SVG 1.1//EN" "http://www.w3.org/Graphics/SVG/1.1/DTD/svg11.dtd"><svg t="1684561918780" class="icon" viewBox="0 0 1024 1024" version="1.1" xmlns="http://www.w3.org/2000/svg" p-id="6323" xmlns:xlink="http://www.w3.org/1999/xlink" width="200" height="200"><path d="M234.128 154m48 0l593.952 0q48 0 48 48l0 489.664q0 48-48 48l-593.952 0q-48 0-48-48l0-489.664q0-48 48-48Z" fill="#EEF5FF" p-id="6324"></path><path d="M794.928 226a51.008 51.008 0 0 1 50.992 50.992v510a51.008 51.008 0 0 1-51.008 50.992H182.928A51.008 51.008 0 0 1 131.92 786.992V276.992a51.008 51.008 0 0 1 51.008-51.008h612z m0 154.16H182.928v406.832h612V380.16z" fill="#1677FF" p-id="6325"></path><path d="M794.928 276.992H182.928v121.024h612z" fill="#8ABBFF" p-id="6326"></path><path d="M249.92 312a25.504 25.504 0 1 1 0 51.008 25.504 25.504 0 0 1 0-51.008zM339.168 312a25.504 25.504 0 1 1 0 51.008 25.504 25.504 0 0 1 0-51.008z" fill="#FFFFFF" p-id="6327"></path><path d="M416.016 486.992c-1.2-6.544 2.08-9.36 7.36-6.832l1.28 0.672 165.28 99.52c5.6 3.36 5.456 7.36-0.048 9.28l-14.192 3.856a455.2 455.2 0 0 0-38.928 12.704l-5.2 2.096 35.312 53.232a11.44 11.44 0 0 1-1.632 14.48l-1.248 1.04-11.856 8.288a10.736 10.736 0 0 1-14.112-1.664l-1.024-1.28-35.328-53.264-3.856 4.288c-17.536 19.952-37.008 48.176-37.008 48.176-3.744 5.44-7.744 4.976-9.344-0.736l-0.288-1.408-35.168-192.448z" fill="#1062FE" p-id="6328"></path></svg>