<svg t="1684569827703" class="icon" viewBox="0 0 1024 1024" version="1.1" xmlns="http://www.w3.org/2000/svg" p-id="6490" width="200" height="200"><path d="M224 194.9696h56.0128V250.88H224V194.9696z m96.256 0H376.32V250.88H320.256V194.9696z m95.488 0h56.0128V250.88H415.744V194.9696z m472.2688-130.9696H135.9872c-39.7312 0-71.9872 32.256-71.9872 71.9872v752.0256c0 39.7312 32.256 71.9872 71.9872 71.9872h752.0256c39.7312 0 71.9872-32.256 71.9872-71.9872V135.9872c0-39.7312-32.256-71.9872-71.9872-71.9872zM135.9872 135.9872h752.0256v169.8816H135.9872V135.9872z m752.0256 752.0256H135.9872V377.856h752.0256v510.1568z" p-id="6491"></path><path d="M663.5008 534.9376l-277.8624-19.6608a17.5616 17.5616 0 0 0-18.7904 18.7904l19.712 277.76a4.4032 4.4032 0 0 0 7.4752 2.816l31.488-31.488a8.9088 8.9088 0 0 0 2.56-6.8608l-12.9536-183.2448 218.9824 218.9824a4.4032 4.4032 0 0 0 6.2464 0l23.296-23.296a4.4032 4.4032 0 0 0 0-6.2464l-218.9824-218.9824 183.296 12.9536a8.704 8.704 0 0 0 6.8096-2.56l31.488-31.488a4.4032 4.4032 0 0 0-2.7648-7.4752z" p-id="6492"></path></svg>