<?xml version="1.0" standalone="no"?><!DOCTYPE svg PUBLIC "-//W3C//DTD SVG 1.1//EN" "http://www.w3.org/Graphics/SVG/1.1/DTD/svg11.dtd"><svg t="1693641609123" class="icon" viewBox="0 0 1024 1024" version="1.1" xmlns="http://www.w3.org/2000/svg" p-id="12543" xmlns:xlink="http://www.w3.org/1999/xlink" width="200" height="200"><path d="M368.64 30.72c45.24544 0 81.92 36.67456 81.92 81.92v256c0 45.24544-36.67456 81.92-81.92 81.92H112.64c-45.24544 0-81.92-36.67456-81.92-81.92V112.64c0-45.24544 36.67456-81.92 81.92-81.92h256z m0 61.44H112.64a20.48 20.48 0 0 0-20.4544 19.456L92.16 112.64v256a20.48 20.48 0 0 0 19.456 20.4544L112.64 389.12h256a20.48 20.48 0 0 0 20.4544-19.456L389.12 368.64V112.64a20.48 20.48 0 0 0-19.456-20.4544L368.64 92.16zM368.64 573.44c45.24544 0 81.92 36.67456 81.92 81.92v256c0 45.24544-36.67456 81.92-81.92 81.92H112.64c-45.24544 0-81.92-36.67456-81.92-81.92v-256c0-45.24544 36.67456-81.92 81.92-81.92h256z m0 61.44H112.64a20.48 20.48 0 0 0-20.4544 19.456L92.16 655.36v256a20.48 20.48 0 0 0 19.456 20.4544l1.024 0.0256h256a20.48 20.48 0 0 0 20.4544-19.456L389.12 911.36v-256a20.48 20.48 0 0 0-19.456-20.4544L368.64 634.88zM911.36 25.6c45.24544 0 81.92 36.67456 81.92 81.92v256c0 45.24544-36.67456 81.92-81.92 81.92h-256c-45.24544 0-81.92-36.67456-81.92-81.92V107.52c0-45.24544 36.67456-81.92 81.92-81.92h256z m0 61.44h-256a20.48 20.48 0 0 0-20.4544 19.456L634.88 107.52v256a20.48 20.48 0 0 0 19.456 20.4544l1.024 0.0256h256a20.48 20.48 0 0 0 20.4544-19.456L931.84 363.52V107.52a20.48 20.48 0 0 0-19.456-20.4544L911.36 87.04zM911.36 573.44c45.24544 0 81.92 36.67456 81.92 81.92v256c0 45.24544-36.67456 81.92-81.92 81.92h-256c-45.24544 0-81.92-36.67456-81.92-81.92v-256c0-45.24544 36.67456-81.92 81.92-81.92h256z m0 61.44h-256a20.48 20.48 0 0 0-20.4544 19.456l-0.0256 1.024v256a20.48 20.48 0 0 0 19.456 20.4544l1.024 0.0256h256a20.48 20.48 0 0 0 20.4544-19.456l0.0256-1.024v-256a20.48 20.48 0 0 0-19.456-20.4544L911.36 634.88z" p-id="12544"></path></svg>