<?xml version="1.0" standalone="no"?><!DOCTYPE svg PUBLIC "-//W3C//DTD SVG 1.1//EN" "http://www.w3.org/Graphics/SVG/1.1/DTD/svg11.dtd"><svg t="1685156480073" class="icon" viewBox="0 0 1024 1024" version="1.1" xmlns="http://www.w3.org/2000/svg" p-id="6934" xmlns:xlink="http://www.w3.org/1999/xlink" width="200" height="200"><path d="M822.057 959v-59.93a7.99 7.99 0 0 1-7.99 0h-602.16v-69.927h610.148c17.648 0 31.955-14.311 31.955-31.964V95.964C862 78.311 847.693 64 830.045 64h-639.09C173.307 64 159 78.311 159 95.964v795.112c0 37.138 29.797 67.315 66.78 67.914l1.123 0.01h595.154zM548.013 754.423h-329.28v-640h583.535v640H548.013z" p-id="6935"></path><path d="M698.134 64.692c10.867 0 19.583 8.335 19.583 18.486v421.961c0 7.373-4.641 14.105-11.773 16.99-7.13 2.992-15.507 1.602-21.167-3.42l-98.48-87.085-98.478 87.085c-3.62 3.106-8.3 4.808-13.014 4.911l-0.456 0.005c-2.604 0-5.32-0.535-7.81-1.496-7.132-2.885-11.773-9.617-11.773-16.99V83.178c0-10.258 8.83-18.486 19.583-18.486h223.785z m-29.576 34.216H504.026V439.51l61.674-57.709c11.71-10.997 29.474-10.997 41.183 0l61.675 57.709V98.908z" p-id="6936"></path></svg>