<?xml version="1.0" encoding="UTF-8"?>
<svg width="35px" height="18px" viewBox="0 0 35 18" version="1.1" xmlns="http://www.w3.org/2000/svg" xmlns:xlink="http://www.w3.org/1999/xlink">
    <title>AFlogo</title>
    <defs>
        <linearGradient x1="40.9238736%" y1="93.369776%" x2="56.6398279%" y2="37.5687391%" id="linearGradient-1">
            <stop stop-color="#FFAA00" offset="0%"></stop>
            <stop stop-color="#FFA700" offset="45.5555558%"></stop>
            <stop stop-color="#FF9C00" offset="83.3333373%"></stop>
            <stop stop-color="#FF9500" offset="100%"></stop>
        </linearGradient>
    </defs>
    <g id="逻辑视图、接口、指标授权" stroke="none" stroke-width="1" fill="none" fill-rule="evenodd">
        <g id="指标-授权" transform="translate(-184.000000, -16.000000)" fill-rule="nonzero">
            <g id="AFlogo" transform="translate(184.000000, 16.000000)">
                <path d="M7.40796614,0.803833008 L6.99648237,0.803833008 L0.0204061773,17.3923492 C-0.0502045974,17.5461617 0.0719634816,17.7187901 0.240501896,17.7033558 L4.11131525,17.7033558 C4.206604,17.7072086 4.29353285,17.6492558 4.3266263,17.5598145 L9.30748653,5.5980916 C9.32903004,5.54766464 9.32903004,5.49062443 9.30748653,5.44019699 L9.24528694,5.26316357 L7.40796614,0.803833008 Z" id="路径" fill="url(#linearGradient-1)"></path>
                <path d="M11.2165756,0.320581943 C11.1470399,0.154948622 10.9847312,0.0473715526 10.8050931,0.0478515625 L7.31227005,0.0478515625 C6.99609642,0.0466986652 6.78184777,0.369331986 6.90557128,0.66029489 L13.819447,17.4067078 C13.8734798,17.5255585 13.9737315,17.6171684 14.0969591,17.6602955 L17.848156,17.6602955 C18.2076015,17.6737843 18.4528389,17.3007107 18.2979164,16.9760838 L11.2165756,0.320581943 Z" id="路径" fill="#3E75FF"></path>
                <path d="M34.3409824,0 L18.4701672,0 C17.9590597,-0.00265734852 17.5440517,0.412351221 17.546722,0.923457861 L16.7237549,4.2009697 L31.1208849,4.2009697 C31.8980207,4.13172913 32.5707617,3.63271809 32.8625126,2.90910387 L34.3409824,0 Z" id="路径" fill="#3E75FF"></path>
                <path d="M30.7572479,6.47369385 L17.6184912,6.47369385 C17.1243419,6.47369385 16.7237549,6.87428179 16.7237549,7.36843067 L16.7237549,10.5263257 L27.6280622,10.5263257 C28.4018774,10.5255685 29.0839863,10.0183594 29.3074875,9.27752161 L30.7572479,6.47369385 Z" id="路径" fill="#3E75FF"></path>
                <path d="M16.7237966,7.17700195 L14.1544189,17.6506863 L17.7572894,17.6506863 C18.0500681,17.6503649 18.306582,17.4545527 18.3840842,17.1722174 L20.881691,7.17700195 L16.7237966,7.17700195 Z" id="路径" fill="#3E75FF"></path>
            </g>
        </g>
    </g>
</svg>