<svg xmlns="http://www.w3.org/2000/svg" width="32" height="32" class="icon" viewBox="0 0 1024 1024"><path d="M999.741 655.36v56.93a92.16 92.16 0 0 1-49.326 81.602L554.83 1001.518a92.16 92.16 0 0 1-85.658 0L73.585 793.892a92.16 92.16 0 0 1-49.332-81.603v-56.934h61.44v56.934a30.72 30.72 0 0 0 15.335 26.588l1.11.615 395.587 207.626a30.72 30.72 0 0 0 27.32.614l1.23-.614L921.86 739.492a30.72 30.72 0 0 0 16.42-25.938l.026-1.265-.006-56.934h61.44zM554.83 22.477l395.586 207.631a92.16 92.16 0 0 1 49.332 81.603l-.006 56.929h-61.44v-56.934a30.72 30.72 0 0 0-15.329-26.589l-1.11-.614L526.274 76.877a30.72 30.72 0 0 0-27.32-.615l-1.23.615L102.14 284.503a30.72 30.72 0 0 0-16.42 25.938l-.026 1.265v56.934h-61.44v-56.934a92.16 92.16 0 0 1 49.332-81.603L469.17 22.482a92.16 92.16 0 0 1 85.658 0z"/><path d="M752.64 348.16c45.245 0 81.92 36.675 81.92 81.92S797.885 512 752.64 512c-9.958 0-19.502-1.777-28.329-5.028l-58.624 58.624c3.256 8.822 5.033 18.366 5.033 28.324 0 45.245-36.675 81.92-81.92 81.92s-81.92-36.675-81.92-81.92c0-11.92 2.545-23.245 7.122-33.46l-46.607-53.042A81.7 81.7 0 0 1 440.32 512c-10.906 0-21.315-2.13-30.833-6l-56.586 58.357a81.7 81.7 0 0 1 5.499 29.563c0 45.245-36.675 81.92-81.92 81.92s-81.92-36.675-81.92-81.92S231.235 512 276.48 512c12.257 0 23.885 2.693 34.324 7.516l54.58-56.29a81.6 81.6 0 0 1-6.984-33.146c0-45.245 36.675-81.92 81.92-81.92s81.92 36.675 81.92 81.92c0 13.225-3.133 25.723-8.704 36.782l44.815 50.985A81.7 81.7 0 0 1 588.8 512c12.723 0 24.77 2.898 35.512 8.074l54.487-54.477a81.6 81.6 0 0 1-8.079-35.517c0-45.245 36.675-81.92 81.92-81.92"/></svg>