<?xml version="1.0" standalone="no"?>
<!DOCTYPE svg PUBLIC "-//W3C//DTD SVG 1.1//EN" "http://www.w3.org/Graphics/SVG/1.1/DTD/svg11.dtd" >
<svg xmlns="http://www.w3.org/2000/svg">
  <metadata>Created by iconfont</metadata>
  <defs>
  <font id="iconfont" horiz-adv-x="1024">
    <font-face
      font-family="iconfont"
      font-weight="400"
      font-stretch="normal"
      units-per-em="1024"
      ascent="896"
      descent="-128"
    />
      <missing-glyph />
      
      <glyph glyph-name="tancharenwu2" unicode="&#59279;" d="M61.44 220.16a30.72 30.72 0 0 0 30.72-30.72v-194.56a30.72 30.72 0 0 1 29.568-30.69952L122.88-35.84h194.55488a30.72 30.72 0 0 0 30.70464-29.568L348.16-66.56a30.72 30.72 0 0 0-30.72-30.72H122.88c-50.89792 0-92.16 41.26208-92.16 92.16v194.56l0.02048 1.152A30.72 30.72 0 0 0 61.44 220.16z m645.12-317.44a30.72 30.72 0 0 0 0 61.44h-0.00512H901.12a30.72 30.72 0 0 1 30.69952 29.568L931.84-5.12v194.56l0.02048 1.152A30.72 30.72 0 0 0 993.28 189.44v-194.56c0-50.89792-41.26208-92.16-92.16-92.16zM317.44 865.28a30.72 30.72 0 1 0 0-61.44H122.88a30.72 30.72 0 0 1-30.69952-29.568L92.16 773.12v-194.56a30.72 30.72 0 1 0-61.44 0V773.12c0 50.89792 41.26208 92.16 92.16 92.16z m583.68 0c50.89792 0 92.16-41.26208 92.16-92.16v-194.56a30.72 30.72 0 0 0-61.44 0V773.12a30.72 30.72 0 0 1-29.568 30.69952L901.12 803.84h-194.56a30.72 30.72 0 0 0 0 61.44h194.56zM471.04 634.88c118.76352 0 215.04-96.27648 215.04-215.04a214.07744 214.07744 0 0 0-41.72288-127.31392l95.68768-95.68768a30.72 30.72 0 0 0-43.4432-43.4432l-95.31904 95.31904A214.09792 214.09792 0 0 0 471.04 204.8c-118.76352 0-215.04 96.27648-215.04 215.04s96.27648 215.04 215.04 215.04z m0-61.44c-84.83328 0-153.6-68.76672-153.6-153.6 0-84.83328 68.76672-153.6 153.6-153.6 41.6768 0 79.47264 16.59904 107.14624 43.5456a29.8496 29.8496 0 0 0 4.96128 5.0688A152.99584 152.99584 0 0 1 624.64 419.84c0 84.83328-68.76672 153.6-153.6 153.6z"  horiz-adv-x="1024" />
      
      <glyph glyph-name="yanglishuju" unicode="&#59278;" d="M563.2 312.32m-40.96 0a40.96 40.96 0 1 1 81.92 0 40.96 40.96 0 1 1-81.92 0ZM563.2 128m-40.96 0a40.96 40.96 0 1 1 81.92 0 40.96 40.96 0 1 1-81.92 0ZM563.2-56.32m-40.96 0a40.96 40.96 0 1 1 81.92 0 40.96 40.96 0 1 1-81.92 0ZM706.56 343.04m30.72 0l225.28 0q30.72 0 30.72-30.72l0 0q0-30.72-30.72-30.72l-225.28 0q-30.72 0-30.72 30.72l0 0q0 30.72 30.72 30.72ZM706.56 158.72m30.72 0l225.28 0q30.72 0 30.72-30.72l0 0q0-30.72-30.72-30.72l-225.28 0q-30.72 0-30.72 30.72l0 0q0 30.72 30.72 30.72ZM706.56-25.6m30.72 0l225.28 0q30.72 0 30.72-30.72l0 0q0-30.72-30.72-30.72l-225.28 0q-30.72 0-30.72 30.72l0 0q0 30.72 30.72 30.72ZM993.28 476.16a30.72 30.72 0 0 0-61.44 0V773.12a30.72 30.72 0 0 1-29.568 30.69952L901.12 803.84H122.88a30.72 30.72 0 0 1-30.69952-29.568L92.16 773.12v-778.24a30.72 30.72 0 0 1 29.568-30.69952L122.88-35.84h266.24a30.72 30.72 0 0 0 0-61.44H122.88c-50.89792 0-92.16 41.26208-92.16 92.16V773.12c0 50.89792 41.26208 92.16 92.16 92.16h778.24c50.89792 0 92.16-41.26208 92.16-92.16v-296.96z"  horiz-adv-x="1024" />
      
      <glyph glyph-name="kubiaoshangxian" unicode="&#59277;" d="M901.12 865.28c50.89792 0 92.16-41.26208 92.16-92.16v-286.72h-61.44v30.72H92.16v-522.24a30.72 30.72 0 0 1 29.568-30.69952L122.88-35.84h271.36v-61.44H122.88c-50.89792 0-92.16 41.26208-92.16 92.16V773.12c0 50.89792 41.26208 92.16 92.16 92.16h778.24z m0-61.44H122.88a30.72 30.72 0 0 1-30.69952-29.568L92.16 773.12v-194.56h839.68V773.12a30.72 30.72 0 0 1-29.568 30.69952L901.12 803.84zM51.2 271.36m30.72 0l399.36 0q30.72 0 30.72-30.72l0 0q0-30.72-30.72-30.72l-399.36 0q-30.72 0-30.72 30.72l0 0q0 30.72 30.72 30.72ZM225.28-35.84m30.72 0l225.28 0q30.72 0 30.72-30.72l0 0q0-30.72-30.72-30.72l-225.28 0q-30.72 0-30.72 30.72l0 0q0 30.72 30.72 30.72ZM394.24 563.2m0-30.72l0-568.32q0-30.72-30.72-30.72l0 0q-30.72 0-30.72 30.72l0 568.32q0 30.72 30.72 30.72l0 0q30.72 0 30.72-30.72ZM691.2 552.96m0-30.72l0-71.68q0-30.72-30.72-30.72l0 0q-30.72 0-30.72 30.72l0 71.68q0 30.72 30.72 30.72l0 0q30.72 0 30.72-30.72ZM993.28 552.96m0-30.72l0-71.68q0-30.72-30.72-30.72l0 0q-30.72 0-30.72 30.72l0 71.68q0 30.72 30.72 30.72l0 0q30.72 0 30.72-30.72ZM801.30048 312.99584a30.6432 30.6432 0 0 0 23.53664-8.94464l144.81408-144.81408a30.72 30.72 0 1 0-43.44832-43.44832l-94.85824 94.86336v-274.00192a30.72 30.72 0 0 0-29.56288-30.6944l-1.152-0.0256a30.72 30.72 0 0 0-30.72 30.72l-0.00512 272.69632-93.54752-93.55776a30.72 30.72 0 1 0-43.44832 43.44832l144.81408 144.81408a30.6432 30.6432 0 0 0 23.53664 8.94464z"  horiz-adv-x="1024" />
      
      <glyph glyph-name="shujuyuyizhili" unicode="&#59276;" d="M999.74144 240.64v-56.92928a92.16 92.16 0 0 0-49.32608-81.60256l-395.58656-207.62624a92.16 92.16 0 0 0-85.6576 0l-395.58656 207.62624a92.16 92.16 0 0 0-49.3312 81.60256v56.9344h61.44v-56.9344a30.72 30.72 0 0 1 15.3344-26.58816l1.11104-0.6144 395.58656-207.62624a30.72 30.72 0 0 1 27.32032-0.6144l1.2288 0.6144 395.58656 207.62624a30.72 30.72 0 0 1 16.41984 25.93792l0.0256 1.26464-0.00512 56.9344h61.44zM554.8288 873.5232l395.58656-207.63136a92.16 92.16 0 0 0 49.3312-81.60256L999.74144 527.36h-61.44V584.2944a30.72 30.72 0 0 1-15.32928 26.58816l-1.11104 0.6144-395.58656 207.62624a30.72 30.72 0 0 1-27.32032 0.6144l-1.2288-0.6144-395.58656-207.62624a30.72 30.72 0 0 1-16.41984-25.93792l-0.0256-1.26464V527.36h-61.44V584.2944a92.16 92.16 0 0 0 49.3312 81.60256L469.1712 873.51808a92.16 92.16 0 0 0 85.6576 0zM752.64 547.84c45.24544 0 81.92-36.67456 81.92-81.92s-36.67456-81.92-81.92-81.92c-9.9584 0-19.50208 1.77664-28.32896 5.02784l-58.624-58.624c3.25632-8.82176 5.03296-18.36544 5.03296-28.32384 0-45.24544-36.67456-81.92-81.92-81.92s-81.92 36.67456-81.92 81.92c0 11.91936 2.54464 23.2448 7.12192 33.4592l-46.60736 53.0432c-8.47872-2.9696-17.5872-4.5824-27.07456-4.5824-10.9056 0-21.31456 2.12992-30.83264 6.00064l-56.58624-58.35776A81.7152 81.7152 0 0 0 358.4 302.08c0-45.24544-36.67456-81.92-81.92-81.92s-81.92 36.67456-81.92 81.92 36.67456 81.92 81.92 81.92c12.25728 0 23.8848-2.69312 34.32448-7.51616l54.5792 56.28928A81.63328 81.63328 0 0 0 358.4 465.92c0 45.24544 36.67456 81.92 81.92 81.92s81.92-36.67456 81.92-81.92c0-13.22496-3.13344-25.72288-8.704-36.78208l44.81536-50.98496A81.69472 81.69472 0 0 0 588.8 384c12.7232 0 24.77056-2.89792 35.51232-8.07424l54.48704 54.4768A81.59744 81.59744 0 0 0 670.72 465.92c0 45.24544 36.67456 81.92 81.92 81.92z"  horiz-adv-x="1024" />
      
      <glyph glyph-name="bingtu" unicode="&#59264;" d="M512 341.33504L244.48 787.15904 384 853.33504l213.33504 21.32992 186.19392-80.768zM512 896c282.752 0 512-229.248 512-512s-229.248-512-512-512S0 101.248 0 384 229.248 896 512 896z m0-42.66496C252.8 853.33504 42.66496 643.2 42.66496 384S252.8-85.33504 512-85.33504s469.33504 210.13504 469.33504 469.33504S771.2 853.33504 512 853.33504z"  horiz-adv-x="1024" />
      
      <glyph glyph-name="zhuxingtu" unicode="&#59273;" d="M180.38784 736.6144h170.66496v-682.67008H180.38784V736.6144zM479.0528 495.6672h170.66496v-441.728H479.0528V495.67232z m298.66496-160.64h170.67008v-281.088h-170.67008v281.088zM73.71776 864.6144v-917.33504h917.33504v-42.66496H31.0528V864.6144z"  horiz-adv-x="1024" />
      
      <glyph glyph-name="zhexiantu" unicode="&#59274;" d="M68.59776 864.6144v-917.33504h917.33504v-42.66496H25.9328V864.6144zM898.2528 701.24032l90.02496-57.25696-342.60992-538.40896-213.248 319.744-212.05504-335.83104-90.19904 56.91904 299.904 474.83392 213.46304-320.20992z"  horiz-adv-x="1024" />
      
      <glyph glyph-name="huanxingtu" unicode="&#59275;" d="M597.33504 874.66496l186.19392-80.768-121.472-202.46528A254.84288 254.84288 0 0 1 512 640a254.83264 254.83264 0 0 1-148.50048-47.44704L244.48 793.89696 384 853.33504l213.33504 21.32992zM512 896c282.752 0 512-229.248 512-512s-229.248-512-512-512S0 101.248 0 384 229.248 896 512 896z m0-42.66496C252.8 853.33504 42.66496 643.2 42.66496 384S252.8-85.33504 512-85.33504s469.33504 210.13504 469.33504 469.33504S771.2 853.33504 512 853.33504zM512 660.48c-152.69376 0-276.48-123.78624-276.48-276.48s123.78624-276.48 276.48-276.48 276.48 123.78624 276.48 276.48-123.78624 276.48-276.48 276.48z m0-40.96c130.0736 0 235.52-105.4464 235.52-235.52s-105.4464-235.52-235.52-235.52-235.52 105.4464-235.52 235.52 105.4464 235.52 235.52 235.52z"  horiz-adv-x="1024" />
      
      <glyph glyph-name="shujuyuanxinxi" unicode="&#59256;" d="M512 875.52c263.97184 0 479.34464-95.37536 491.02336-215.04H1003.52v-532.48l-0.81408-0.00512C987.86816-11.49952 771.87072-112.64 512-112.64c-259.87072 0-475.86816 101.14048-490.70592 240.63488L20.48 128V660.48h0.49664C32.65536 780.14464 248.02816 875.52 512 875.52z m0-721.92c-183.92064 0-345.86624 50.6624-430.08 129.72544V143.36c0-101.46816 190.4128-194.56 430.08-194.56 237.26592 0 426.2656 91.2384 430.02368 191.51872L942.08 143.36l0.01024 139.9808C857.88672 204.26752 695.93088 153.6 512 153.6z m0 271.36c-185.0624 0-346.24 46.87872-430.08512 116.13696L81.92 409.6c0-101.46816 190.4128-194.56 430.08-194.56 237.26592 0 426.2656 91.2384 430.02368 191.51872L942.08 409.6l0.01024 131.50208C858.24512 471.83872 697.06752 424.96 512 424.96z m0 389.12c-123.72992 0-238.8992-22.3232-321.95584-60.39552C117.92384 720.62976 81.92 681.61536 81.92 650.24s36.00384-70.38976 108.12416-103.44448C273.1008 508.72832 388.27008 486.4 512 486.4c123.72992 0 238.8992 22.3232 321.95584 60.39552C906.07616 579.85024 942.08 618.86464 942.08 650.24s-36.00384 70.38976-108.12416 103.44448C750.8992 791.75168 635.72992 814.08 512 814.08zM839.69024 418.77504v-68.54144c-36.51584-16.7424-77.91104-30.58688-122.88512-41.0368l0.00512 63.36c47.0016 11.93984 88.61184 27.74016 122.88 46.21824zM839.69024 148.48v-68.54656c-36.51584-16.73216-77.91104-30.58176-122.88512-41.03168l0.00512 63.36c47.0016 11.93984 88.61184 27.73504 122.88 46.21824z"  horiz-adv-x="1024" />
      
      <glyph glyph-name="zhiliangbaogao" unicode="&#59272;" d="M727.04 865.28c50.688 0 92.16-41.472 92.16-92.16v-153.6h81.92c50.688 0 92.16-41.472 92.16-92.16v-532.48c0-50.688-41.472-92.16-92.16-92.16H122.88c-50.688 0-92.16 41.472-92.16 92.16V773.12c0 50.688 41.472 92.16 92.16 92.16h604.16z m92.16-706.56c0-16.896-13.824-30.72-30.72-30.72s-30.72 13.824-30.72 30.72V773.12c0 16.384-12.288 29.696-28.672 30.72H122.88c-16.384 0-30.208-13.312-30.72-29.696V-5.12c0-16.384 13.312-30.208 29.696-30.72H901.12c16.384 0 30.208 13.312 30.72 29.696V527.36c0 16.384-13.312 30.208-29.696 30.72H819.2v-399.36zM0 896M271.36 107.52h307.2c16.896 0 30.72 13.824 30.72 30.72s-13.824 30.72-30.72 30.72H271.36c-16.896 0-30.72-13.824-30.72-30.72s13.824-30.72 30.72-30.72zM271.36 271.36h307.2c16.896 0 30.72 13.824 30.72 30.72s-13.824 30.72-30.72 30.72H271.36c-16.896 0-30.72-13.824-30.72-30.72s13.824-30.72 30.72-30.72zM354.304 648.192c12.8 17.408 38.912 15.872 50.176-1.536l0.512-1.024 73.728-123.904 32.768 44.544c5.632 7.68 14.336 12.288 23.552 12.288H645.12c16.896 0 30.72-13.824 30.72-30.72 0-16.384-13.312-30.208-29.696-30.72h-94.208l-50.688-69.12c-12.8-17.408-38.912-16.384-50.688 1.536l-0.512 1.024-74.24 123.904-33.792-45.056C336.384 522.24 327.68 517.632 318.976 517.12H204.8c-16.896 0-30.72 13.824-30.72 30.72 0 16.384 13.312 30.208 29.696 30.72H302.08l52.224 69.632z"  horiz-adv-x="1024" />
      
      <glyph glyph-name="zhilianggailan" unicode="&#59265;" d="M542.75584 675.19488l189.44-67.06176A92.16 92.16 0 0 0 793.6 521.25184v-161.41824c-3.59424-71.7312-78.4128-153.0368-224.4608-243.92704l-8.98048-5.55008a92.16 92.16 0 0 0-96.31744 0l-9.02656 5.57568C308.79744 206.81216 233.99424 288.11264 230.4 359.8336V521.25184a92.16 92.16 0 0 0 61.40416 86.88128l189.44 67.06176a92.16 92.16 0 0 0 61.51168 0z m-20.5056-57.92256a30.72 30.72 0 0 1-19.072 0.47104l-1.4336-0.47104-189.44-67.06176a30.72 30.72 0 0 1-20.43904-27.6992l-0.0256-1.25952v-159.58528l0.01024-0.1536c3.49184-45.48608 66.9184-113.51552 196.10624-193.8432l7.9872-4.93056a30.6944 30.6944 0 0 1 30.83776-0.7424l1.1776 0.6912 4.4544 2.73408 7.90016 4.9152c125.09696 78.39232 187.11552 144.896 191.71328 189.7984l0.13312 1.62304V521.25184a30.72 30.72 0 0 1-19.29216 28.5184l-1.1776 0.44032-189.44 67.06176zM61.44 220.16a30.72 30.72 0 0 0 30.72-30.72v-194.56a30.72 30.72 0 0 1 29.568-30.69952L122.88-35.84h194.55488a30.72 30.72 0 0 0 30.70464-29.568L348.16-66.56a30.72 30.72 0 0 0-30.72-30.72H122.88c-50.89792 0-92.16 41.26208-92.16 92.16v194.56l0.02048 1.152A30.72 30.72 0 0 0 61.44 220.16z m645.12-317.44a30.72 30.72 0 0 0 0 61.44h-0.00512H901.12a30.72 30.72 0 0 1 30.69952 29.568L931.84-5.12v194.56l0.02048 1.152A30.72 30.72 0 0 0 993.28 189.44v-194.56c0-50.89792-41.26208-92.16-92.16-92.16zM317.44 865.28a30.72 30.72 0 1 0 0-61.44H122.88a30.72 30.72 0 0 1-30.69952-29.568L92.16 773.12v-194.56a30.72 30.72 0 1 0-61.44 0V773.12c0 50.89792 41.26208 92.16 92.16 92.16z m583.68 0c50.89792 0 92.16-41.26208 92.16-92.16v-194.56a30.72 30.72 0 0 0-61.44 0V773.12a30.72 30.72 0 0 1-29.568 30.69952L901.12 803.84h-194.56a30.72 30.72 0 0 0 0 61.44h194.56z"  horiz-adv-x="1024" />
      
      <glyph glyph-name="yewubiaozhun" unicode="&#59266;" d="M931.84 199.68c50.89792 0 92.16-41.26208 92.16-92.16v-143.36c0-50.89792-41.26208-92.16-92.16-92.16h-143.36c-50.89792 0-92.16 41.26208-92.16 92.16v40.96H327.68v-40.96c0-50.89792-41.26208-92.16-92.16-92.16H92.16c-50.89792 0-92.16 41.26208-92.16 92.16v143.36c0 50.89792 41.26208 92.16 92.16 92.16h40.96V568.32h-40.96C41.26208 568.32 0 609.58208 0 660.48V803.84C0 854.73792 41.26208 896 92.16 896h143.36c50.89792 0 92.16-41.26208 92.16-92.16v-40.96h368.64v40.96c0 50.89792 41.26208 92.16 92.16 92.16h143.36c50.89792 0 92.16-41.26208 92.16-92.16v-143.36c0-50.89792-41.26208-92.16-92.16-92.16h-40.96v-368.64h40.96zM235.52 138.24H92.16a30.72 30.72 0 0 1-30.69952-29.568L61.44 107.52v-143.36a30.72 30.72 0 0 1 29.568-30.69952L92.16-66.56h143.36a30.72 30.72 0 0 1 30.69952 29.568L266.24-35.84v143.36a30.72 30.72 0 0 1-29.568 30.69952L235.52 138.24z m696.32 0h-143.36a30.72 30.72 0 0 1-30.69952-29.568L757.76 107.52v-143.36a30.72 30.72 0 0 1 29.568-30.69952L788.48-66.56h143.36a30.72 30.72 0 0 1 30.69952 29.568L962.56-35.84v143.36a30.72 30.72 0 0 1-29.568 30.69952L931.84 138.24zM235.52 834.56H92.16a30.72 30.72 0 0 1-30.69952-29.568L61.44 803.84v-143.36a30.72 30.72 0 0 1 29.568-30.69952L92.16 629.76h143.36a30.72 30.72 0 0 1 30.69952 29.568L266.24 660.48V803.84a30.72 30.72 0 0 1-29.568 30.69952L235.52 834.56z m696.32 0h-143.36a30.72 30.72 0 0 1-30.69952-29.568L757.76 803.84v-143.36a30.72 30.72 0 0 1 29.568-30.69952L788.48 629.76h143.36a30.72 30.72 0 0 1 30.69952 29.568L962.56 660.48V803.84a30.72 30.72 0 0 1-29.568 30.69952L931.84 834.56z m-102.4-266.24h-40.96c-50.89792 0-92.16 41.26208-92.16 92.16v40.96H327.68v-40.96c0-50.89792-41.26208-92.16-92.16-92.16h-40.96v-368.64h40.96c50.89792 0 92.16-41.26208 92.16-92.16v-40.96h368.64v40.96c0 50.89792 41.26208 92.16 92.16 92.16h40.96V568.32zM681.74848 484.03456a30.72 30.72 0 0 0 50.3296-35.22048l-0.70656-1.01376-117.76-161.28c-11.3664-15.56992-34.00704-16.87552-47.11424-3.01056l-0.83968 0.9216-117.22752 134.28736-112.60416-133.85728a30.72 30.72 0 0 0-42.29632-4.52608l-0.98304 0.7936a30.72 30.72 0 0 0-4.5312 42.30144l0.79872 0.98304 135.68 161.28c11.85792 14.09536 33.28 14.60224 45.80864 1.35168l0.83968-0.9216 115.51232-132.32128 95.09376 130.23232z"  horiz-adv-x="1024" />
      
      <glyph glyph-name="zhiliangzhenggai" unicode="&#59267;" d="M542.52544 885.28384l389.12-136.60672A92.16 92.16 0 0 0 993.28 661.71904V343.04c-6.48192-128.29184-148.52096-274.66752-426.11712-439.12704l-8.448-4.992a92.16 92.16 0 0 0-93.42464 0C182.1184 65.41312 37.26848 213.4528 30.72 343.04V661.71904a92.16 92.16 0 0 0 61.63456 86.95808l389.12 136.6016a92.16 92.16 0 0 0 61.05088 0z m-20.352-57.97376a30.72 30.72 0 0 1-18.92864 0.4608l-1.41824-0.4608-389.12-136.6016a30.72 30.72 0 0 1-20.52096-27.72992l-0.0256-1.25952v-316.86656l0.11264-1.78176c7.552-100.5568 137.6768-233.36448 396.20096-386.48832l7.95648-4.69504a30.6944 30.6944 0 0 1 29.8496-0.72192l1.2032 0.6656 8.36608 4.9408c258.41664 153.09824 388.36224 285.88032 395.8784 386.33472l0.11264 1.80736V661.71904a30.72 30.72 0 0 1-19.36384 28.544l-1.1776 0.44032-389.12 136.60672zM578.56 348.16c31.49312 0 58.55744-18.95424 70.41024-46.08H716.8a30.72 30.72 0 0 0 0-61.44h-67.83488c-11.84768-27.12576-38.912-46.08-70.40512-46.08-31.488 0-58.55744 18.95424-70.40512 46.08H307.2a30.72 30.72 0 0 0 0 61.44h200.94976c11.8528 27.12576 38.91712 46.08 70.41024 46.08zM440.32 573.44c28.5952 0 53.2736-16.7424 64.77824-40.96H716.8a30.72 30.72 0 0 0 0-61.44H505.10336c-11.50464-24.2176-36.18816-40.96-64.78336-40.96-28.5952 0-53.27872 16.7424-64.78336 40.96H307.2a30.72 30.72 0 1 0 0 61.44h68.34176c11.50464 24.2176 36.18304 40.96 64.77824 40.96z"  horiz-adv-x="1024" />
      
      <glyph glyph-name="shujubiaozhun" unicode="&#59268;" d="M931.84 199.68c50.89792 0 92.16-41.26208 92.16-92.16v-143.36c0-50.89792-41.26208-92.16-92.16-92.16h-143.36c-50.89792 0-92.16 41.26208-92.16 92.16v40.96H327.68v-40.96c0-50.89792-41.26208-92.16-92.16-92.16H92.16c-50.89792 0-92.16 41.26208-92.16 92.16v143.36c0 50.89792 41.26208 92.16 92.16 92.16h40.96V568.32h-40.96C41.26208 568.32 0 609.58208 0 660.48V803.84C0 854.73792 41.26208 896 92.16 896h143.36c50.89792 0 92.16-41.26208 92.16-92.16v-40.96h368.64v40.96c0 50.89792 41.26208 92.16 92.16 92.16h143.36c50.89792 0 92.16-41.26208 92.16-92.16v-143.36c0-50.89792-41.26208-92.16-92.16-92.16h-40.96v-368.64h40.96zM235.52 138.24H92.16a30.72 30.72 0 0 1-30.69952-29.568L61.44 107.52v-143.36a30.72 30.72 0 0 1 29.568-30.69952L92.16-66.56h143.36a30.72 30.72 0 0 1 30.69952 29.568L266.24-35.84v143.36a30.72 30.72 0 0 1-29.568 30.69952L235.52 138.24z m696.32 0h-143.36a30.72 30.72 0 0 1-30.69952-29.568L757.76 107.52v-143.36a30.72 30.72 0 0 1 29.568-30.69952L788.48-66.56h143.36a30.72 30.72 0 0 1 30.69952 29.568L962.56-35.84v143.36a30.72 30.72 0 0 1-29.568 30.69952L931.84 138.24zM235.52 834.56H92.16a30.72 30.72 0 0 1-30.69952-29.568L61.44 803.84v-143.36a30.72 30.72 0 0 1 29.568-30.69952L92.16 629.76h143.36a30.72 30.72 0 0 1 30.69952 29.568L266.24 660.48V803.84a30.72 30.72 0 0 1-29.568 30.69952L235.52 834.56z m696.32 0h-143.36a30.72 30.72 0 0 1-30.69952-29.568L757.76 803.84v-143.36a30.72 30.72 0 0 1 29.568-30.69952L788.48 629.76h143.36a30.72 30.72 0 0 1 30.69952 29.568L962.56 660.48V803.84a30.72 30.72 0 0 1-29.568 30.69952L931.84 834.56z m-102.4-266.24h-40.96c-50.89792 0-92.16 41.26208-92.16 92.16v40.96H327.68v-40.96c0-50.89792-41.26208-92.16-92.16-92.16h-40.96v-368.64h40.96c50.89792 0 92.16-41.26208 92.16-92.16v-40.96h368.64v40.96c0 50.89792 41.26208 92.16 92.16 92.16h40.96V568.32zM512 568.32c81.18272 0 147.1488-39.76704 148.45952-70.74304L660.48 496.64v-225.28c0-31.104-66.47808-71.68-148.48-71.68-81.18272 0-147.1488 39.76704-148.45952 70.74304L363.52 271.36V496.64l0.02048 0.93696C364.8512 528.55296 430.81728 568.32 512 568.32z m0-230.4c-31.31904 0-61.87008 7.20896-87.04 19.44576v-72.64256l0.95232-0.68096c2.35008-1.65376 5.23776-3.4304 8.58624-5.2224l1.46432-0.768C456.07936 267.68384 483.5328 261.12 512 261.12c28.73344 0 56.42752 6.68672 76.54912 17.19808a85.48352 85.48352 0 0 1 9.8816 5.95968l0.60928 0.45056v72.63744c-25.16992-12.2368-55.72096-19.44576-87.04-19.44576z m0 168.96c-28.4672 0-55.92064-6.56384-76.032-16.93184-3.98336-2.048-7.3728-4.10112-10.05568-5.9904l-0.95232-0.67584V435.2c0-0.256 0.6656-1.92512 2.82624-4.71552 3.49184-4.5056 9.22624-9.38496 16.7168-13.87008C462.37184 405.92384 486.64576 399.36 512 399.36s49.62816 6.56384 67.49696 17.2544c7.49056 4.48512 13.22496 9.35936 16.7168 13.87008 1.98144 2.56 2.70336 4.17792 2.816 4.62336L599.04 435.2v48.0768l-0.95232 0.68096a84.3264 84.3264 0 0 1-8.58624 5.2224l-1.46432 0.768C567.92064 500.31616 540.4672 506.88 512 506.88z"  horiz-adv-x="1024" />
      
      <glyph glyph-name="zhiliangguize" unicode="&#59269;" d="M675.84 865.28c33.93024 0 61.44-27.50976 61.44-61.44v-10.24h163.84c50.89792 0 92.16-41.26208 92.16-92.16v-706.56c0-50.89792-41.26208-92.16-92.16-92.16H122.88c-50.89792 0-92.16 41.26208-92.16 92.16V701.44c0 50.89792 41.26208 92.16 92.16 92.16h163.84v10.24c0 33.93024 27.50976 61.44 61.44 61.44h327.68z m61.44-143.36c0-33.93024-27.50976-61.44-61.44-61.44H348.16c-33.93024 0-61.44 27.50976-61.44 61.44v10.24H122.88a30.72 30.72 0 0 1-30.69952-29.568L92.16 701.44v-706.56a30.72 30.72 0 0 1 29.568-30.69952L122.88-35.84h778.24a30.72 30.72 0 0 1 30.69952 29.568L931.84-5.12V701.44a30.72 30.72 0 0 1-29.568 30.69952L901.12 732.16h-163.84v-10.24z m-61.44 81.92H348.16v-81.92h327.68V803.84zM542.63808 542.1568l133.12-46.91968A92.16 92.16 0 0 0 737.28 408.31488v-115.24608c-2.79552-55.51104-59.36128-118.2208-169.70752-188.13952l-6.78912-4.27008a92.16 92.16 0 0 0-97.56672 0C348.40064 172.29312 289.57184 236.43136 286.72 293.0688V408.32a92.16 92.16 0 0 0 61.52192 86.91712l133.12 46.9248a92.16 92.16 0 0 0 61.27616 0z m-20.4288-57.94304a30.72 30.72 0 0 1-18.9952 0.4608l-1.42848-0.4608-133.12-46.9248a30.72 30.72 0 0 1-20.48-27.71456l-0.0256-1.25952v-113.29024l0.06656-0.70656c3.24608-30.1568 49.47968-79.93344 144.55808-139.67872l2.95424-1.85344a30.6944 30.6944 0 0 1 31.2832-0.73728l1.14688 0.68096 3.33824 2.09408 5.75488 3.64032c91.0848 58.09664 135.35744 106.43968 138.51136 135.87968l0.06656 0.7424V408.31488a30.72 30.72 0 0 1-19.33312 28.53376l-1.1776 0.44032-133.12 46.9248z"  horiz-adv-x="1024" />
      
      <glyph glyph-name="kubiao" unicode="&#59270;" d="M993.28 450.56a30.72 30.72 0 0 0-61.44 0V517.12h-240.64v-66.56a30.72 30.72 0 0 0-61.44 0V517.12H394.24v-245.76h87.04a30.72 30.72 0 0 0 0-61.44H394.23488L394.24-35.84h87.04a30.72 30.72 0 0 0 0-61.44H122.88c-50.89792 0-92.16 41.26208-92.16 92.16V773.12c0 50.89792 41.26208 92.16 92.16 92.16h778.24c50.89792 0 92.16-41.26208 92.16-92.16v-322.56zM332.79488 209.92H92.16v-215.04a30.72 30.72 0 0 1 29.568-30.69952L122.88-35.84h209.92l-0.00512 245.76zM332.8 517.12H92.16v-245.76h240.64V517.12z m568.32 286.72H122.88a30.72 30.72 0 0 1-30.69952-29.568L92.16 773.12v-194.56h839.68V773.12a30.72 30.72 0 0 1-29.568 30.69952L901.12 803.84zM798.72 353.28c118.76352 0 215.04-49.47456 215.04-91.55584l-0.0256-1.20832H1013.76v-286.72c0-42.08128-96.27648-91.55584-215.04-91.55584-117.57568 0-213.10976 48.4864-215.00928 90.2912l-0.03072 1.26464v286.72l0.0256 0.00512-0.0256 1.2032c0 41.66144 94.3616 90.56768 211.4816 91.5456L798.72 353.28z m0-353.28c-58.1632 0-113.5872 9.6768-153.6 26.7264v-42.49088l0.52736-0.45056c5.54496-4.6592 14.16192-9.95328 25.1648-15.03232l2.09408-0.9472C706.26304-47.104 751.49824-56.32 798.72-56.32c47.6672 0 93.312 9.3952 126.70464 24.5248 11.33568 5.13536 20.21376 10.50624 25.92768 15.2064l0.96768 0.82432 0.01024 42.496C912.31744 9.6768 856.8832 0 798.72 0z m0 143.36c-58.1632 0-113.5872 9.6768-153.6 26.7264v-73.0624c0.6144-0.55808 1.39776-1.20832 2.35008-1.93024 6.55872-4.98688 17.35168-10.39872 31.1808-15.30368 32.19968-11.4176 75.264-18.35008 120.06912-18.35008 44.8 0 87.86944 6.9376 120.06912 18.35008 13.82912 4.90496 24.62208 10.3168 31.1808 15.30368l1.34144 1.05984c0.37888 0.3072 0.7168 0.60416 1.01376 0.8704v73.0624c-40.00768-17.0496-95.4368-26.7264-153.60512-26.7264z m0.256 148.48l-3.3024-0.01024c-47.02208-0.39424-91.86304-9.91232-124.53376-24.91392-10.96192-5.03296-19.54816-10.27072-25.09824-14.848l-0.6912-0.57856 0.24576-11.53024c0.52736-0.45568 1.152-0.95744 1.87392-1.50528 6.55872-4.98688 17.35168-10.39872 31.1808-15.30368 32.19968-11.4176 75.264-18.35008 120.06912-18.35008 44.8 0 87.86944 6.9376 120.06912 18.35008 13.82912 4.90496 24.62208 10.3168 31.1808 15.30368l1.3312 1.0496 0.5376 12.19072-0.4864 0.4096c-5.376 4.4288-13.56288 9.4464-23.95648 14.30528l-1.9712 0.90624c-32.512 14.73024-76.6464 24.02816-122.94656 24.50432l-3.50208 0.02048z"  horiz-adv-x="1024" />
      
      <glyph glyph-name="shujulijie" unicode="&#59271;" d="M931.84 302.08c45.24544 0 81.92-36.67456 81.92-81.92 0-34.3808-21.17632-63.81056-51.2-75.96544V-5.12c0-50.89792-41.26208-92.16-92.16-92.16H153.6c-50.89792 0-92.16 41.26208-92.16 92.16v149.31456C31.42656 156.34432 10.24 185.7792 10.24 220.16c0 45.24544 36.67456 81.92 81.92 81.92s81.92-36.67456 81.92-81.92c0-34.3808-21.17632-63.81056-51.2-75.96544V-5.12a30.72 30.72 0 0 1 29.568-30.69952L153.6-35.84h716.8a30.72 30.72 0 0 1 30.69952 29.568L901.12-5.12v149.31456c-30.01856 12.14976-51.2 41.58464-51.2 75.96544 0 45.24544 36.67456 81.92 81.92 81.92zM870.4 865.28c50.89792 0 92.16-41.26208 92.16-92.16v-149.31456c30.02368-12.15488 51.2-41.58464 51.2-75.96544 0-45.24544-36.67456-81.92-81.92-81.92s-81.92 36.67456-81.92 81.92c0 34.3808 21.18144 63.81568 51.2 75.96544V773.12a30.72 30.72 0 0 1-29.568 30.69952L870.4 803.84H153.6a30.72 30.72 0 0 1-30.69952-29.568L122.88 773.12v-149.31456C152.90368 611.65056 174.08 582.2208 174.08 547.84c0-45.24544-36.67456-81.92-81.92-81.92S10.24 502.59456 10.24 547.84c0 34.3808 21.18144 63.81568 51.2 75.96544V773.12c0 50.89792 41.26208 92.16 92.16 92.16h716.8zM512 619.52c118.76352 0 215.04-49.47456 215.04-91.55584l-0.0256-1.20832H727.04v-286.72c0-42.08128-96.27648-91.55584-215.04-91.55584-117.57568 0-213.10976 48.4864-215.00928 90.2912l-0.03072 1.26464v286.72l0.0256 0.00512-0.0256 1.2032c0 41.66144 94.3616 90.56768 211.4816 91.5456L512 619.52z m0-348.16c-58.1632 0-113.5872 9.6768-153.6 26.7264v-47.61088l0.52736-0.45056c5.54496-4.6592 14.16192-9.95328 25.1648-15.03232l2.09408-0.9472C419.54304 219.136 464.77824 209.92 512 209.92c47.6672 0 93.312 9.3952 126.70464 24.5248 11.33568 5.13536 20.21376 10.50624 25.92768 15.2064l0.96768 0.82432 0.01024 47.616C625.59744 281.0368 570.1632 271.36 512 271.36z m0 138.24c-58.1632 0-113.5872 9.6768-153.6 26.7264v-67.9424c0.6144-0.55808 1.39776-1.20832 2.35008-1.93024 6.55872-4.98688 17.35168-10.39872 31.1808-15.30368C424.13056 339.73248 467.19488 332.8 512 332.8c44.8 0 87.86944 6.9376 120.06912 18.35008 13.82912 4.90496 24.62208 10.3168 31.1808 15.30368l1.34144 1.05984c0.37888 0.3072 0.7168 0.60416 1.01376 0.8704V436.3264C625.60256 419.2768 570.17344 409.6 512 409.6z m0.256 148.48l-3.3024-0.01024c-47.02208-0.39424-91.86304-9.91232-124.53376-24.91392-10.96192-5.03296-19.54816-10.27072-25.09824-14.848l-0.6912-0.57856 0.24576-11.53024c0.52736-0.45568 1.152-0.95744 1.87392-1.50528 6.55872-4.98688 17.35168-10.39872 31.1808-15.30368C424.13056 477.97248 467.19488 471.04 512 471.04c44.8 0 87.86944 6.9376 120.06912 18.35008 13.82912 4.90496 24.62208 10.3168 31.1808 15.30368l1.3312 1.0496 0.5376 12.19072-0.4864 0.4096c-5.376 4.4288-13.56288 9.4464-23.95648 14.30528l-1.9712 0.90624c-32.512 14.73024-76.6464 24.02816-122.94656 24.50432L512.256 558.08z"  horiz-adv-x="1024" />
      
      <glyph glyph-name="suanfamoban" unicode="&#59263;" d="M225.28 865.28c50.89792 0 92.16-41.26208 92.16-92.16v-778.24c0-50.89792-41.26208-92.16-92.16-92.16H122.88c-50.89792 0-92.16 41.26208-92.16 92.16V773.12c0 50.89792 41.26208 92.16 92.16 92.16h102.4z m0-61.44H122.88a30.72 30.72 0 0 1-30.69952-29.568L92.16 773.12v-778.24a30.72 30.72 0 0 1 29.568-30.69952L122.88-35.84h102.4a30.72 30.72 0 0 1 30.69952 29.568L256-5.12V773.12a30.72 30.72 0 0 1-29.568 30.69952L225.28 803.84zM901.12 865.28c50.89792 0 92.16-41.26208 92.16-92.16v-102.4c0-50.89792-41.26208-92.16-92.16-92.16h-389.12c-50.89792 0-92.16 41.26208-92.16 92.16V773.12c0 50.89792 41.26208 92.16 92.16 92.16h389.12z m0-61.44h-389.12a30.72 30.72 0 0 1-30.69952-29.568L481.28 773.12v-102.4a30.72 30.72 0 0 1 29.568-30.69952L512 640h389.12a30.72 30.72 0 0 1 30.69952 29.568L931.84 670.72V773.12a30.72 30.72 0 0 1-29.568 30.69952L901.12 803.84zM901.12 476.16c50.89792 0 92.16-41.26208 92.16-92.16v-389.12c0-50.89792-41.26208-92.16-92.16-92.16h-389.12c-50.89792 0-92.16 41.26208-92.16 92.16v389.12c0 50.89792 41.26208 92.16 92.16 92.16h389.12z m0-61.44h-389.12a30.72 30.72 0 0 1-30.69952-29.568L481.28 384v-389.12a30.72 30.72 0 0 1 29.568-30.69952L512-35.84h389.12a30.72 30.72 0 0 1 30.69952 29.568L931.84-5.12v389.12a30.72 30.72 0 0 1-29.568 30.69952L901.12 414.72z"  horiz-adv-x="1024" />
      
      <glyph glyph-name="zidianguanli" unicode="&#59255;" d="M921.6-35.84a30.72 30.72 0 0 0 1.152-61.41952L921.6-97.28H148.48c-65.03936 0-117.76 52.72064-117.76 117.76V742.4C30.72 809.58464 84.63872 864.1792 151.56736 865.26464L153.6 865.28h716.8c67.18464 0 121.7792-53.91872 122.86464-120.84736L993.28 742.4v-542.72c0-67.18464-53.91872-121.7792-120.84736-122.86464L870.4 76.8h-10.24c-31.104 0-56.32-25.216-56.32-56.32 0-30.61248 24.4224-55.51616 54.84544-56.29952L860.16-35.84h61.44z m-164.88448 112.64H148.48c-31.104 0-56.32-25.216-56.32-56.32 0-30.61248 24.4224-55.51616 54.84544-56.29952L148.48-35.84l608.24064-0.00512A117.23264 117.23264 0 0 0 742.4 20.48c0 20.39808 5.18656 39.58784 14.31552 56.32zM870.4 803.84H153.6c-33.408 0-60.59008-26.67008-61.41952-59.8784L92.16 742.4v-618.47552a117.18144 117.18144 0 0 0 54.3744 14.30016L148.48 138.24h721.92c33.408 0 60.59008 26.67008 61.41952 59.8784L931.84 199.68V742.4c0 33.408-26.67008 60.59008-59.8784 61.41952L870.4 803.84zM469.3504 261.3248c123.904 0 196.5568 74.3424 196.5568 208.9472 0 135.168-72.6528 205.568-199.936 205.568H358.4v-414.5152h110.9504z m-7.8848 53.504h-37.7344V622.8992h37.7344c88.9856 0 136.8576-48.9984 136.8576-152.6272 0-103.0656-47.872-155.4432-136.8576-155.4432z"  horiz-adv-x="1024" />
      
      <glyph glyph-name="changshangminglu" unicode="&#59257;" d="M71.68 773.12c0 50.89792 41.26208 92.16 92.16 92.16h737.28c50.89792 0 92.16-41.26208 92.16-92.16v-778.24c0-50.89792-41.26208-92.16-92.16-92.16H163.84c-50.89792 0-92.16 41.26208-92.16 92.16v112.64h61.44v-112.64a30.72 30.72 0 0 1 29.568-30.69952L163.84-35.84h737.28a30.72 30.72 0 0 1 30.69952 29.568L931.84-5.12V773.12a30.72 30.72 0 0 1-29.568 30.69952L901.12 803.84H163.84a30.72 30.72 0 0 1-30.69952-29.568L133.12 773.12v-112.64H71.68V773.12zM609.28 588.8c76.34944 0 138.24-61.89056 138.24-138.24 0-40.43776-17.36192-76.82048-45.04064-102.10304 68.1984-31.37024 115.3792-96.09728 116.69504-171.1616L819.2 174.08H399.36c0 76.42624 47.54944 142.5664 116.72576 174.3872C488.3968 373.7344 471.04 410.11712 471.04 450.56c0 76.34944 61.89056 138.24 138.24 138.24z m0-281.6c-57.27232 0-106.19904-28.89216-131.03104-70.6048l-0.63488-1.0752h263.32672l-0.62976 1.0752c-24.4736 41.10848-72.3456 69.76512-128.54784 70.58432L609.28 307.2z m0 220.16c-42.41408 0-76.8-34.38592-76.8-76.8 0-42.41408 34.38592-76.8 76.8-76.8 42.41408 0 76.8 34.38592 76.8 76.8 0 42.41408-34.38592 76.8-76.8 76.8zM286.72 568.32m0-30.72l0 0q0-30.72-30.72-30.72l-194.56 0q-30.72 0-30.72 30.72l0 0q0 30.72 30.72 30.72l194.56 0q30.72 0 30.72-30.72ZM286.72 414.72m0-30.72l0 0q0-30.72-30.72-30.72l-194.56 0q-30.72 0-30.72 30.72l0 0q0 30.72 30.72 30.72l194.56 0q30.72 0 30.72-30.72ZM286.72 261.12m0-30.72l0 0q0-30.72-30.72-30.72l-194.56 0q-30.72 0-30.72 30.72l0 0q0 30.72 30.72 30.72l194.56 0q30.72 0 30.72-30.72Z"  horiz-adv-x="1024" />
      
      <glyph glyph-name="yinsishujubaohu" unicode="&#59258;" d="M384 257.97632c-135.90016 8.33536-252.05248 42.85952-320 91.136V256c0-63.41632 138.38848-116.07552 320-126.24384v-63.85664c-135.90016 8.34048-252.05248 42.79296-320 91.136V64H0V671.96416C0 795.71968 200.55552 896 448 896c247.36768 0 447.92832-100.28032 447.92832-224.03584v-202.01984h-64V556.544c-78.4128-64.95232-221.04064-108.544-384-108.544-162.8928 0-305.52064 43.59168-384 108.544v-108.544c0-63.41632 138.46016-116.07552 320-126.17216v-63.85152H384z m64-385.90464c-247.44448 0-448 85.94432-448 192h64c0-70.72768 171.88352-128 384-128v-64z m0 640c212.03968 0 384 71.68 384 159.89248 0 88.35584-171.88352 160.03584-384 160.03584s-384-71.68-384-160.03584C64 583.75168 235.88352 512 448 512v0.07168zM929.3312 5.0176l35.4816 25.9072-37.7344 64.2048 67.584 29.8496-13.5168 41.6768-72.0896-16.3328-6.7584 74.3424h-44.4928l-7.3216-74.3424-72.0896 16.3328-13.5168-41.6768 67.0208-29.8496-37.1712-64.2048 35.4816-25.9072 49.5616 56.32zM642.6112 5.0176l35.4816 25.9072-37.7344 64.2048 67.584 29.8496-13.5168 41.6768-72.0896-16.3328-6.7584 74.3424h-44.4928l-7.3216-74.3424-72.0896 16.3328-13.5168-41.6768 67.0208-29.8496-37.1712-64.2048 35.4816-25.9072 49.5616 56.32z"  horiz-adv-x="1024" />
      
      <glyph glyph-name="bianmashengchengguize" unicode="&#59259;" d="M189.44 512h71.68v-419.84H189.44zM424.96 512h71.68v-419.84H424.96zM660.48 512h71.68v-419.84h-71.68zM322.56 512h40.96v-419.84h-40.96zM558.08 512h40.96v-419.84h-40.96zM793.6 512h40.96v-419.84h-40.96zM901.12 865.28c50.89792 0 92.16-41.26208 92.16-92.16v-778.24c0-50.89792-41.26208-92.16-92.16-92.16H122.88c-50.89792 0-92.16 41.26208-92.16 92.16V773.12c0 50.89792 41.26208 92.16 92.16 92.16h778.24z m30.72-225.28H92.16v-645.12a30.72 30.72 0 0 1 29.568-30.69952L122.88-35.84h778.24a30.72 30.72 0 0 1 30.69952 29.568L931.84-5.12V640z m-30.72 163.84H122.88a30.72 30.72 0 0 1-30.69952-29.568L92.16 773.12v-71.68h839.68V773.12a30.72 30.72 0 0 1-29.568 30.69952L901.12 803.84z"  horiz-adv-x="1024" />
      
      <glyph glyph-name="tuominsuanfa" unicode="&#59260;" d="M901.12 865.28c50.89792 0 92.16-41.26208 92.16-92.16v-778.24c0-50.89792-41.26208-92.16-92.16-92.16H122.88c-50.89792 0-92.16 41.26208-92.16 92.16V773.12c0 50.89792 41.26208 92.16 92.16 92.16h778.24z m0-61.44H122.88a30.72 30.72 0 0 1-30.69952-29.568L92.16 773.12v-778.24a30.72 30.72 0 0 1 29.568-30.69952L122.88-35.84h778.24a30.72 30.72 0 0 1 30.69952 29.568L931.84-5.12V773.12a30.72 30.72 0 0 1-29.568 30.69952L901.12 803.84zM266.24 153.6m30.72 0l430.08 0q30.72 0 30.72-30.72l0 0q0-30.72-30.72-30.72l-430.08 0q-30.72 0-30.72 30.72l0 0q0 30.72 30.72 30.72ZM266.24 675.84m30.72 0l97.28 0q30.72 0 30.72-30.72l0 0q0-30.72-30.72-30.72l-97.28 0q-30.72 0-30.72 30.72l0 0q0 30.72 30.72 30.72ZM266.24 414.72m30.72 0l97.28 0q30.72 0 30.72-30.72l0 0q0-30.72-30.72-30.72l-97.28 0q-30.72 0-30.72 30.72l0 0q0 30.72 30.72 30.72ZM691.8144 384.512l35.4816 25.9072-37.7344 64.2048 67.584 29.8496-13.5168 41.6768-72.0896-16.3328L664.7808 604.16h-44.4928l-7.3216-74.3424-72.0896 16.3328-13.5168-41.6768 67.0208-29.8496-37.1712-64.2048 35.4816-25.9072 49.5616 56.32z"  horiz-adv-x="1024" />
      
      <glyph glyph-name="xiaoxi" unicode="&#59261;" d="M864.901 279.823V505.426a294.85 294.85 0 0 1-90.583 204.15 360.346 360.346 0 0 1-93.85 68.915 280.632 280.632 0 0 1-65.167 25.36C607.252 853.995 563.886 890.88 512.983 890.88c-50.908 0-94.275-36.884-102.323-87.03a356.055 356.055 0 0 1-166.835-93.624 294.82 294.82 0 0 1-85.376-204.8V270.72l-4.557-4.552c-8.474-9.103-19.559-19.507-31.283-29.906-45.62-42.91-102.974-95.575-73.646-155.392a123.853 123.853 0 0 1 91.238-57.86 793.011 793.011 0 0 1 162.929-13.006h25.415a154.696 154.696 0 0 1 55.399-87.121c74.619-56.239 177.592-56.239 252.21 0a154.69 154.69 0 0 1 55.4 87.772h72.985a450.698 450.698 0 0 1 130.345 14.305 117.289 117.289 0 0 1 78.203 56.56c32.583 70.872-44.97 141.087-97.106 187.9l-11.08 10.403zM422.4-30.956a101.443 101.443 0 0 0-30.633 40.96h238.525a104.694 104.694 0 0 0-30.627-40.96 152.796 152.796 0 0 0-177.265 0z m413.834 253.563c33.89-30.556 96.45-87.122 81.46-118.328-5.863-13.655-25.416-21.453-40.402-26.01a448.102 448.102 0 0 0-112.098-11.049H303.78a718.743 718.743 0 0 0-149.893 14.3c-27.372 5.853-45.62 14.956-50.832 25.36-5.212 10.404 31.284 57.861 60.61 85.821a434.391 434.391 0 0 1 34.54 29.906 72.14 72.14 0 0 1 19.554 31.207V505.426a234.414 234.414 0 0 0 66.473 163.195 299.366 299.366 0 0 0 157.711 82.57 29.271 29.271 0 0 1 23.465 29.25v6.503c0 24.422 19.84 44.211 44.314 44.211 24.473 0 44.318-19.794 44.318-44.211v-7.153a29.276 29.276 0 0 1 23.46-28.605 289.828 289.828 0 0 0 74.947-25.354 301.05 301.05 0 0 0 78.858-57.867 235.766 235.766 0 0 0 74.291-162.54V267.47a30.515 30.515 0 0 1 7.824-20.158"  horiz-adv-x="1024" />
      
      <glyph glyph-name="shujufenji" unicode="&#59262;" d="M706.66752 508.0832h0.00512l8.192-0.12288c16.37888-0.3584 32.73728-1.37216 49.03936-3.0464l8.15616-0.89088h0.03584l10.31168-1.30048 0.09216-0.01024 10.92608-1.6128 0.09216-0.01024 10.72128-1.82784 0.07168-0.01024 5.37088-1.00352 0.06144-0.00512 10.56256-2.1504 0.04608-0.01024 4.17792-0.9216c42.95168-9.68704 79.77472-24.5504 106.48064-43.74528 26.70592-19.2 43.66848-43.02848 45.84448-70.53824l0.16384-2.67264v-0.08192l0.08192-3.18464v-338.94912c0-29.48096-16.78336-54.99392-44.47744-75.392-27.67872-20.38784-66.65728-36.00384-112.27136-45.83936l-0.04608-0.01024-10.56256-2.1504-0.06144-0.01024-5.37088-1.00352-0.0768-0.01536v0.00512l-10.7264-1.81248-0.08192-0.01024-10.92608-1.6128-0.04608-0.00512c-25.91232-3.54816-53.41184-5.41184-81.8688-5.41184s-55.95648 1.86368-81.8688 5.41184l-0.04608 0.00512-10.92096 1.6128-0.08192 0.01024-10.73152 1.81248-0.04608 0.00512c-48.95744 8.83712-91.27424 24.01792-121.76896 44.40576-30.48448 20.38272-49.664 46.35136-50.9696 76.70272v0.07168l-0.0768 3.13856v339.0464l0.0768 3.1744v0.08704c1.2544 28.6464 18.44224 53.39648 46.01344 73.21088 27.56608 19.8144 65.90976 35.01568 110.64832 44.66688l0.0512 0.01024 10.56768 2.1504 0.06144 0.00512 5.37088 1.00352 0.07168 0.01024 10.73152 1.81248 0.08192 0.01024 10.92096 1.61792h0.05632l8.67328 1.11104c20.2752 2.43712 40.6528 3.83488 61.056 4.18816h0.03584l12.05248 0.11264h0.06144l6.06208-0.03072z m216.66816-376.3712c-30.26944-19.5072-71.53664-34.06336-119.05024-42.63936l-0.0512-0.00512-10.7264-1.8176-0.08192-0.01024-10.92608-1.6128-0.04608-0.00512c-25.91232-3.54304-53.41184-5.41184-81.8688-5.41184s-55.95648 1.8688-81.8688 5.41184l-0.04608 0.00512-10.92096 1.6128-0.04608 0.00512-0.03584 0.01024-10.73152 1.81248-0.04608 0.00512c-47.50336 8.576-88.77056 23.13216-119.05024 42.62912v-95.71328c0-6.35904 3.456-13.44 10.9568-20.87936 7.46496-7.40352 18.56-14.7712 32.81408-21.61664h-0.00512l6.84544-3.12832c10.44992-4.5824 22.272-8.84736 35.27168-12.65152l8.91392-2.48832h0.00512c9.43104-2.49856 18.944-4.66944 28.50816-6.51264h-0.00512l10.12736-1.8432 10.34752-1.64864h0.00512c7.13216-1.05984 14.28992-1.96096 21.45792-2.7136h0.00512l11.0848-1.05984h0.00512l11.3664-0.82944 11.54048-0.6144h-0.00512c15.66208-0.66048 31.34464-0.66048 47.00672 0l11.54048 0.6144 11.37152 0.82944 11.10528 1.05984a499.42016 499.42016 0 0 1 16.08704 1.95072l5.36064 0.76288 10.3424 1.64864 10.13248 1.8432 7.38304 1.4848c4.86912 1.024 9.62048 2.11456 14.25408 3.26144l6.8608 1.7664 8.92928 2.48832c13.0048 3.81952 24.81664 8.07424 35.26656 12.65152l6.84544 3.12832 2.5344 1.23904c12.49792 6.2208 22.42048 12.84608 29.40416 19.52256 7.4752 7.14752 11.2384 14.00832 11.76064 20.21888l0.07168 1.51552v95.72352z m-0.02048 161.34656c-28.65664-18.4576-67.12832-32.47616-111.43168-41.20064l-0.04096-0.00512-7.55712-1.41824-0.04608-0.01024-0.03584-0.00512-10.71104-1.80736-0.04096-0.01024-0.04096-0.00512-10.92608-1.6128-0.04096-0.00512c-25.91232-3.54304-53.41696-5.41184-81.87392-5.41184-24.39168 0-48.0768 1.36704-70.6816 3.99872l-0.04096 0.00512-11.10016 1.39776-0.04608 0.00512-0.04608 0.01024-10.92096 1.6128-0.04608 0.00512-0.04096 0.01024-10.7264 1.80736-0.04608 0.01024c-47.50336 8.57088-88.77056 23.13216-119.05024 42.624v-79.57504c0-6.35904 3.456-13.44 10.9568-20.87936 7.45472-7.39328 18.52416-14.7456 32.73728-21.5808l6.91712-3.15904c10.45504-4.5824 22.272-8.85248 35.27168-12.65664l8.91392-2.4832h0.00512c9.43616-2.49856 18.944-4.67456 28.50816-6.51776h-0.00512l10.12224-1.83808 10.39872-1.65888h-0.00512c7.12192-1.05472 14.2592-1.96096 21.41696-2.70848h0.00512l11.18208-1.06496h-0.00512l11.28448-0.82432 11.48928-0.6144h0.00512c13.73184-0.57856 27.47392-0.65024 41.20576-0.21504l5.888 0.21504 11.4944 0.6144 11.27936 0.82432 11.19232 1.06496a510.4896 510.4896 0 0 1 21.41184 2.70848l10.38848 1.65888 10.12736 1.83808 7.38304 1.48992a404.736 404.736 0 0 1 21.06368 5.01248l8.9088 2.48832c13.02016 3.81952 24.87296 8.07936 35.33824 12.66688l6.91712 3.15904c13.66528 6.57408 24.43264 13.6192 31.86688 20.73088 7.4752 7.14752 11.2384 14.0032 11.76064 20.21376l0.06656 1.51552v79.58016z m-228.64896 158.24384l0.00512-0.00512-8.86272-0.1536 0.00512-0.01024-8.80128-0.3072-0.00512 0.01024-11.46368-0.6144-11.3664-0.83456-0.00512 0.00512-11.10528-1.06496c-4.864-0.512-9.64608-1.08544-14.37184-1.72032h-0.00512l-7.00928-0.98816-10.41408-1.64864-10.12224-1.8432h0.00512a440.41216 440.41216 0 0 1-21.65248-4.74624h-0.00512l-6.81984-1.74592-8.94464-2.5088a310.272 310.272 0 0 1-29.98272-10.41408l-5.29408-2.24256-6.91712-3.16416c-14.21824-6.8352-25.28768-14.1824-32.73728-21.5808-7.5008-7.43936-10.9568-14.52032-10.9568-20.87936 0-6.08768 3.15904-12.83584 10.01472-19.93728 6.82496-7.06048 16.97792-14.12096 30.08-20.75648l3.65056-1.79712 6.8096-3.11296 3.31776-1.4336a287.0272 287.0272 0 0 1 25.63584-9.31328l6.38464-1.93536 8.9088-2.4832h0.00512c6.74816-1.80224 13.78816-3.47648 21.07904-5.02784l7.37792-1.4848 10.16832-1.8432 10.36288-1.65376 7.04512-1.00352c2.37056-0.31744 4.76672-0.6144 7.17824-0.91136h-0.00512l7.30624-0.80896 11.10528-1.05984h-0.00512l11.28448-0.82432 11.48928-0.60928h0.00512c11.4688-0.48128 22.94272-0.6144 34.41664-0.38912l4.9152 0.11776 7.79264 0.27136 11.46368 0.60928 11.27936 0.82432 11.19744 1.06496c4.85376 0.512 9.63584 1.09056 14.35136 1.72544l7.04512 0.99328 10.39872 1.65376 10.17344 1.8432a451.7888 451.7888 0 0 1 16.21504 3.44576l5.38624 1.29024 6.80448 1.74592 8.97024 2.51392a311.95136 311.95136 0 0 1 29.98272 10.41408l5.30432 2.2528 6.83008 3.11808 2.6368 1.28512c12.98944 6.4768 23.17824 13.38368 30.17728 20.3264 7.5008 7.43936 10.9568 14.53056 10.9568 20.8896 0 6.08768-3.16416 12.8256-10.01472 19.92704-6.82496 7.0656-16.98304 14.12608-30.08512 20.7616l-3.67616 1.80736-6.7584 3.09248-3.56864 1.52064a284.11392 284.11392 0 0 1-25.40544 9.23136l-6.4768 1.96096-8.87296 2.47296v0.00512a414.42304 414.42304 0 0 1-21.02784 5.01248v-0.00512l-7.38304 1.49504v-0.00512l-10.17344 1.8432-10.34752 1.65376a507.65824 507.65824 0 0 1-14.1824 1.90976l-7.28064 0.80384-11.0848 1.06496v-0.00512l-11.37152 0.83456-11.54048 0.60928c-5.13024 0.22528-10.32704 0.36352-15.57504 0.44544l-7.93088 0.0512-5.9136-0.03072zM773.12 865.28c67.18464 0 121.7792-53.91872 122.86464-120.84736L896 742.4v-195.8912h-61.44V742.4c0 33.408-26.67008 60.59008-59.8784 61.41952L773.12 803.84H184.32c-33.408 0-60.59008-26.67008-61.41952-59.8784L122.88 742.4v-194.56c0-33.408 26.67008-60.59008 59.8784-61.41952L184.32 486.4h160.39424v-61.44H184.32c-67.18464 0-121.7792 53.91872-122.86464 120.84736L61.44 547.84V742.4C61.44 809.58464 115.35872 864.1792 182.28736 865.26464L184.32 865.28h588.8zM345.6 343.04v-61.44H184.32c-33.408 0-60.59008-26.67008-61.41952-59.8784L122.88 220.16v-133.12c0-33.408 26.67008-60.59008 59.8784-61.41952L184.32 25.6h160.39424v-61.44H184.32c-67.18464 0-121.7792 53.91872-122.86464 120.84736L61.44 87.04v133.12c0 67.18464 53.91872 121.7792 120.84736 122.86464L184.32 343.04h161.28z"  horiz-adv-x="1024" />
      
      <glyph glyph-name="mingcheng" unicode="&#59254;" d="M478.144-51.328c-120.448 0-176.96-0.128-297.408 0.064-104.384 0.128-146.432 42.56-146.496 147.264 0 195.008-0.128 389.952 0 584.96 0.064 92.224 44.48 137.792 137.152 137.984 247.04 0.576 430.144 0.64 677.184-0.064 95.104-0.256 140.992-47.36 141.056-141.696 0.128-196.032 0.128-392 0-588.032-0.064-95.872-44.16-140.096-140.992-140.416-123.456-0.384-246.976-0.064-370.496-0.064z m375.296 51.52c62.016 0.128 84.224 22.72 84.288 85.248v596.992c0 62.528-22.208 85.312-84.16 85.312-248.96 0.128-433.984 0.128-682.944 0-62.016-0.064-84.224-22.72-84.288-85.248v-596.992c0-62.592 22.208-85.248 84.16-85.312 123.456-0.192 182.976-0.064 306.432-0.064 125.44 0 251.008-0.128 376.512 0.064zM594.176 537.088c0.576 26.24-2.432 50.88 8.768 74.048 27.264 56.576 77.952 56.896 130.624 57.024 49.024 0.128 94.272-7.232 114.304-57.6 19.776-49.664 20.864-103.296-0.576-152.256-25.984-59.456-82.368-58.048-136.64-57.28-46.912 0.704-86.464 13.632-108.224 59.584-11.968 25.216-6.912 52.032-8.256 76.48z m51.84-1.024c-0.384-76.544 6.144-82.944 83.328-82.944 7.104 0 14.208-0.128 21.312 0.064 32.832 1.024 53.44 14.656 56.128 44.096 5.12 56.512 6.208 99.84-26.752 114.048a58.112 58.112 0 0 1-20.736 3.84 1113.856 1113.856 0 0 1-67.008 0c-29.184-1.152-44.16-16.32-46.144-45.632-0.768-11.136-0.128-22.336-0.128-33.472z m-319.232-416.768c-58.176 0-52.288-0.064-110.464 0.064-9.152 0-18.496-0.256-27.456 1.28-13.12 2.24-23.488 9.6-23.872 23.808-0.384 15.744 10.24 25.6 24.896 25.664 135.68 0.576 207.296 0.576 342.976 0 13.312-0.064 23.104-8.768 23.424-23.488 0.384-16.32-10.112-24.832-24.576-25.92-23.36-1.664-46.848-1.28-70.336-1.344-44.8-0.192-89.728-0.064-134.592-0.064z m-121.792 109.376c-19.2 0-40.256 1.216-39.552 26.496 0.576 22.976 21.376 24.512 38.976 24.576 125.248 0.32 186.56 0.32 311.808 0.128 18.88-0.064 39.872-1.728 39.232-27.328-0.64-24.064-20.928-23.808-38.656-23.808-63.168-0.128-126.272-0.064-189.44-0.064h-122.368z"  horiz-adv-x="1024" />
      
      <glyph glyph-name="tuijianwenti" unicode="&#59253;" d="M541.31712 320.93184c-8.1408 77.06624 91.17696 86.8352 91.17696 168.78592 0 68.92544-49.38752 104.20224-117.22752 104.20224C465.33632 593.92 424.63232 571.12576 394.24 536.39168l44.50304-41.24672c20.62336 22.79424 41.78944 34.19136 67.84 34.19136 30.93504 0 49.38752-17.36704 49.38752-46.67392 0-54.272-96.60416-74.35264-84.66432-161.73056h70.01088z m-34.73408-144.36352c32.5632 0 56.44288 22.25152 56.44288 53.72928s-23.87968 53.18656-56.44288 53.18656c-32.5632 0-56.44288-21.7088-56.44288-53.18656s23.87968-53.72928 56.44288-53.72928zM512 814.08c265.8048 0 481.28-192.55296 481.28-430.08s-215.4752-430.08-481.28-430.08c-84.992 0-164.84352 19.6864-234.14784 54.24128l-134.8608-44.9536a40.96 40.96 0 0 0-51.8144 51.80928l36.6336 109.9008C66.8672 196.97664 30.72 286.71488 30.72 384c0 237.52704 215.4752 430.08 481.28 430.08z m0-61.44c-233.3184 0-419.84-166.6816-419.84-368.64 0-78.78656 28.23168-153.89696 80.14848-216.5248l2.41664-2.88256L197.0176 138.24l-34.60096-103.79264 120.1152 40.0384 22.7328-11.3408C367.744 32 438.40512 15.36 512 15.36c233.3184 0 419.84 166.6816 419.84 368.64s-186.5216 368.64-419.84 368.64z"  horiz-adv-x="1024" />
      
      <glyph glyph-name="mubiao-cuxian" unicode="&#59252;" d="M512 890.88c31.104 0 56.32-25.216 56.32-56.32s-25.216-56.32-56.32-56.32c-217.73312 0-394.24-176.50688-394.24-394.24s176.50688-394.24 394.24-394.24c215.552 0 390.7072 172.99456 394.1888 387.72224L906.24 384c0 31.104 25.216 56.32 56.32 56.32s56.32-25.216 56.32-56.32c0-279.94112-226.93888-506.88-506.88-506.88S5.12 104.05888 5.12 384 232.05888 890.88 512 890.88zM512 665.6c31.104 0 56.32-25.216 56.32-56.32 0-30.61248-24.4224-55.51616-54.84544-56.29952L512 552.96c-93.312 0-168.96-75.648-168.96-168.96s75.648-168.96 168.96-168.96c92.38016 0 167.44448 74.1376 168.93952 166.16448L680.96 384c0 31.104 25.216 56.32 56.32 56.32s56.32-25.216 56.32-56.32c0-155.52512-126.07488-281.6-281.6-281.6s-281.6 126.07488-281.6 281.6 126.07488 281.6 281.6 281.6zM1006.43328 690.17088L838.8096 522.55232l-99.64032 8.98048-149.08928-149.0944c-21.99552-21.99552-57.6512-21.99552-79.64672 0-21.99552 21.99552-21.99552 57.6512 0 79.64672l149.0944 149.10464-8.98048 99.62496L818.176 878.43328l15.55968-172.70272 172.6976-15.55968z"  horiz-adv-x="1024" />
      
      <glyph glyph-name="GBase-heise" unicode="&#59251;" d="M370.503 448.76H252.802v-34.288h117.7c7.677 11.77 7.677 23.029 0 34.287z m126.4-71.645h50.663l-26.099 73.18c-0.511 0-24.563-73.18-24.563-73.18z m-126.4-27.122H252.802v-34.287h117.7c7.677 11.77 7.677 23.028 0 34.287zM668.85 452.853c13.305 0.512 55.78 0.512 127.424 0l20.47 64.48H661.685c-22.005-3.582-32.751-17.4-32.751-41.451v-82.903c6.14-26.61 16.887-39.916 32.751-39.916h111.56c9.212-14.329 9.212-28.658 0-41.963-12.281-0.512-60.385-0.512-144.311 0l19.446-62.433h132.03c20.981 8.188 33.263 24.564 36.334 48.616v64.991c-6.141 35.31-18.423 52.71-36.334 52.71H668.85c-8.188 12.794-8.188 25.587 0 37.87z m332.122-100.302l22.516 64.992H872.012c-8.7 11.77-8.7 24.052 0 36.334h128.96l22.516 64.48h-155.57c-26.099-5.118-38.893-26.611-38.893-64.48v-144.312c0-39.405 25.588-60.386 43.499-60.386h128.96l22.516 64.48H878.153c-8.7 0-11.77 12.793-9.723 38.892h132.542zM49.127 454.388h127.936l22.517 64.48H37.87C5.63 518.868 0 473.835 0 454.388v-140.73c0-32.24 12.794-54.244 37.87-66.526h143.287c11.77 0 17.911 9.211 18.423 28.146V385.303c0 18.934-6.14 29.681-18.423 31.216H84.95v-67.55h74.714v-35.31H49.127c-7.164 0-10.746 6.14-11.258 17.91V437.502c0 11.258 3.582 16.887 11.258 16.887z m343.892-69.597c-0.511 1.535-1.023 3.07-2.046 4.606 27.634 55.268 22.516 98.255-15.353 129.471-2.559 0.512-57.827 0.512-164.781 0V246.62h168.363c38.893 33.264 43.499 79.32 13.817 138.171z m-22.516-69.085H252.802v34.287h117.7c7.677-11.259 7.677-22.517 0-34.287z m0 98.766H252.802V448.76h117.7c7.677-11.258 7.677-22.517 0-34.287z m129.471 102.86l-93.137-267.641h45.033l22.517 60.385H566.5l25.075-60.385h41.963l-95.184 267.642h-38.381z m-3.07-140.217l24.052 73.18 26.098-73.18h-50.15z"  horiz-adv-x="1024" />
      
      <glyph glyph-name="fangda1" unicode="&#59249;" d="M896 768v-288c0-19.2-12.8-32-32-32s-32 12.8-32 32V659.2L633.6 454.4c-6.4-6.4-19.2-6.4-25.6-6.4-6.4 0-19.2 0-25.6 6.4-6.4 12.8-6.4 38.4 0 51.2L787.2 704H608c-19.2 0-32 12.8-32 32s12.8 32 32 32H896zM441.6 313.6c-12.8 6.4-38.4 12.8-51.2 0L192 108.8V288c0 19.2-12.8 32-32 32s-32-12.8-32-32V0h288c19.2 0 32 12.8 32 32s-12.8 32-32 32H236.8l204.8 198.4c6.4 12.8 6.4 38.4 0 51.2zM448 736c0 19.2-12.8 32-32 32H128v-288c0-19.2 12.8-32 32-32s32 12.8 32 32V659.2l198.4-198.4c6.4-12.8 19.2-12.8 25.6-12.8 6.4 0 19.2 0 25.6 6.4 6.4 12.8 6.4 38.4 0 51.2L236.8 704h179.2c19.2 0 32 12.8 32 32zM864 320c-19.2 0-32-12.8-32-32v-179.2L633.6 307.2c-12.8 12.8-38.4 12.8-51.2 0-6.4-12.8-6.4-32 0-44.8l198.4-198.4H608c-19.2 0-32-12.8-32-32s12.8-32 32-32H896V288c0 19.2-12.8 32-32 32z"  horiz-adv-x="1024" />
      
      <glyph glyph-name="fenzu" unicode="&#59250;" d="M765.286-94.72H104.96a71.68 71.68 0 0 0-71.68 71.68V637.44a71.68 71.68 0 0 0 71.68 71.68h660.48a71.68 71.68 0 0 0 71.68-71.68v-660.48a71.68 71.68 0 0 0-71.834-71.68z m-660.48 742.4a10.24 10.24 0 0 1-10.24-10.24v-660.48a10.24 10.24 0 0 1 10.24-10.24h660.48a10.24 10.24 0 0 1 10.24 10.24V637.44a10.24 10.24 0 0 1-10.24 10.24zM960 187.7a30.72 30.72 0 0 0-30.72 30.72V789.605a11.674 11.674 0 0 1-11.674 11.674H329.78a30.72 30.72 0 0 0 0 61.44h587.827a73.216 73.216 0 0 0 73.114-73.114V218.42A30.72 30.72 0 0 0 960 187.7z"  horiz-adv-x="1024" />
      
      <glyph glyph-name="dameng-heise" unicode="&#59248;" d="M844.517 294.01c-13.179 65.445-51.37 108.883-115.408 127.755-26.357 7.869-53.546 14.074-80.799 19.32-64.1 12.73-101.845 49.132-114.512 113.68-11.451 57.513-3.519 113.682 14.01 168.507 2.175 6.589 9.212 14.522 15.354 16.249 106.644 31.603 213.735 42.159 320.89 3.966 108.371-38.64 157.567-128.138 134.28-241.435-21.942-106.644-86.044-188.274-162.428-269.456-4.35 24.565-7.869 42.99-11.387 61.414z m-682.98 213.8c0.895-17.593 1.727-28.98 1.727-40.432 1.343-69.73 32.498-121.102 97.495-147.906 36.85-15.354 76.32-24.118 114.513-35.953 22.39-7.038 45.23-12.283 66.276-22.391 31.155-14.97 47.852-42.159 50.923-76.832 5.31-57.065-10.491-111.506-22.838-166.331-0.832-4.414-7.037-9.66-11.388-11.451-121.165-37.297-241.82-46.061-357.739 14.97-77.664 40.814-111.442 119.374-96.6 212.391 14.522 88.667 58.856 162.876 116.816 229.6 11.387 14.075 24.118 26.742 40.815 44.334zM518.828 24.554c3.519 32.435 8.317 58.344 8.765 84.253a436.299 436.299 0 0 1-3.967 82.974c-9.212 60.518-44.781 95.64-104.916 108.818-31.539 7.037-63.142 12.795-93.913 21.943-95.64 28.532-131.21 86.045-124.173 195.759 1.28 20.663 8.317 36.017 25.462 47.404 19.704 13.627 38.192 28.532 60.135 44.782-1.791-31.155-5.758-58.344-4.862-85.597 2.175-104.468 60.135-169.85 163.26-188.274 28.148-4.862 56.233-10.555 82.526-21.495 56.232-23.67 71.138-74.209 74.657-129.098 2.175-35.505 0-71.522 0.448-107.475 0-15.354-6.206-24.63-20.664-29.876-19.768-6.59-39.024-14.906-62.758-24.118zM628.607 71.447c1.727 23.67 3.902 40.815 4.35 58.407 1.791 52.203-1.727 104.021-24.95 152.257-18.04 37.36-47.916 58.856-89.179 67.172-39.024 7.933-79.007 16.25-116.303 30.324-50.475 18.424-82.078 57.512-87.324 111.505-4.414 41.647-1.28 84.253-0.448 126.796 0 5.757 4.414 13.178 8.764 16.249 21.943 14.074 44.782 26.805 71.97 42.158-3.902-30.26-8.764-54.889-9.596-79.903-0.895-28.084-0.895-57.512 3.903-85.084 11.835-64.165 53.546-102.358 114.128-120.27 21.112-6.206 42.607-9.724 64.102-13.627 80.286-14.521 125.963-61.478 134.344-142.66 3.455-34.226 2.559-68.452 1.28-102.742a36.273 36.273 0 0 0-14.075-24.118c-17.528-13.178-36.848-22.838-60.966-36.464zM731.668 132.093c0 38.576 4.478 71.075-1.28 101.334a396.251 396.251 0 0 1-34.225 98.327c-17.593 35.186-51.371 52.267-90.011 59.688-33.33 6.589-67.556 13.626-99.607 25.461-55.337 20.664-90.458 61.03-92.633 121.166-1.727 45.677 3.966 91.738 7.037 137.415 0.448 4.798 3.07 11.387 6.59 13.114 23.222 11.451 46.956 21.56 71.97 32.946-2.624-40.815-8.765-76.384-5.758-111.505 3.134-35.57 11.515-72.418 24.182-105.748 18.424-47.405 57.512-72.418 107.091-85.149 36.465-9.212 74.657-18.872 106.708-37.744 68.9-40.815 80.286-116.368 73.697-186.994-0.448-3.519-1.727-7.933-3.966-9.66-21.943-16.634-43.886-32.947-69.731-52.65h-0.064z"  horiz-adv-x="1024" />
      
      <glyph glyph-name="daojishi" unicode="&#59247;" d="M196.032-16h-0.896a35.008 35.008 0 0 0-33.152 35.008v1.984a35.008 35.008 0 0 0 33.984 35.008h86.016v134.016A229.76 229.76 0 0 0 388.48 384a229.76 229.76 0 0 0-106.432 193.984V712h-87.04a35.008 35.008 0 0 0-34.944 35.008v1.984c0 19.328 15.68 35.008 35.008 35.008h633.984c19.328 0 35.008-15.68 35.008-35.008v-1.984a35.008 35.008 0 0 0-35.008-35.008h-87.04v-134.016A229.76 229.76 0 0 0 635.648 384a229.76 229.76 0 0 0 106.432-193.984v-134.016h88.96c19.328 0 35.008-15.68 35.008-35.008v-1.984a35.008 35.008 0 0 0-35.008-35.008H196.032zM512 348.032c-42.24 0-81.92-16.448-111.68-46.336a156.608 156.608 0 0 1-46.336-111.68v-134.016h316.032v134.016c0 42.24-16.384 81.92-46.336 111.68A156.608 156.608 0 0 1 512 347.968z m158.016 363.968H353.92v-134.016c0-42.24 16.384-81.92 46.336-111.68A156.608 156.608 0 0 1 512 420.032c42.24 0 81.92 16.384 111.68 46.272a156.608 156.608 0 0 1 46.336 111.68V712z"  horiz-adv-x="1024" />
      
      <glyph glyph-name="xuqiuzhongxin-xianxing" unicode="&#59246;" d="M49.664 863.04A147.2 147.2 0 0 0 141.44 895.68c66.24 0.128 132.48 0 198.72 0.064 0.704-9.088 1.024-18.24 1.728-27.328 1.728-19.456 13.248-37.952 30.592-48.768 11.904-7.68 26.496-11.328 40.96-11.136 66.624 0 133.312-0.128 200 0.064 27.2 0.256 52.992 17.28 62.848 41.024 6.656 14.592 4.928 30.72 6.72 46.144 65.856-0.128 131.648 0 197.504-0.064 26.24-0.128 52.48-6.912 74.816-20.096A133.76 133.76 0 0 0 1020.16 785.92c3.328-15.936 1.728-32.192 2.112-48.32v-723.072c0.64-39.232-18.816-77.952-50.816-102.912a145.024 145.024 0 0 0-61.824-28.16c-12.352-2.56-25.024-3.072-37.632-2.944H143.872c-20.288 0-40.704 3.776-59.2 11.648-36.928 15.36-66.112 46.272-77.76 82.688a132.16 132.16 0 0 0-6.336 44.16v723.2c0.128 13.76-0.64 27.648 1.92 41.344 5.12 30.656 22.208 59.264 47.168 79.488m27.392-49.92c-12.736-14.208-19.648-32.768-19.712-51.392v-747.136c0-17.792 6.336-35.584 18.112-49.6 13.44-16.512 34.112-27.648 56.064-30.272 9.408-1.216 18.88-0.768 28.288-0.832h684.096c15.104 0.256 30.272-0.64 45.312 0.576 31.68 2.816 60.288 23.872 71.104 51.968 4.608 11.136 5.76 23.168 5.248 35.008V760.576a77.44 77.44 0 0 1-26.624 59.584 88.896 88.896 0 0 1-58.496 22.144h-146.816c-2.304-7.296-5.12-14.528-8.832-21.312a124.864 124.864 0 0 0-84.608-62.784c-16.704-3.84-34.048-3.008-51.136-3.072H429.248c-12.224 0-24.576-0.384-36.736 1.28a129.792 129.792 0 0 0-50.048 17.792 120.384 120.384 0 0 0-53.12 68.096H142.72c-24.96-0.064-49.728-10.88-65.6-29.184zM430.848 895.616c54.72 0.192 109.44 0 164.224 0.128a28.608 28.608 0 0 0 24.128-11.52c5.76-7.744 6.464-18.368 2.304-26.88a28.608 28.608 0 0 0-25.024-15.296H434.176A28.992 28.992 0 0 0 412.416 851.2a25.856 25.856 0 0 0-4.352 29.056 28.288 28.288 0 0 0 22.784 15.36zM232.192 590.08c185.6 0.128 371.264 0 556.864 0a29.312 29.312 0 0 0 25.088-12.48 25.6 25.6 0 0 0 2.816-23.36 27.968 27.968 0 0 0-19.584-17.088c-5.12-1.28-10.432-0.96-15.68-0.96H234.112a30.528 30.528 0 0 0-21.376 7.936 26.24 26.24 0 0 0-6.272 29.056 28.544 28.544 0 0 0 25.728 16.896zM229.76 389.44c186.88 0.256 373.76 0 560.64 0.128a28.16 28.16 0 0 0 27.008-18.88 25.856 25.856 0 0 0-4.864-24.64 28.8 28.8 0 0 0-22.144-10.176H232.96a28.928 28.928 0 0 0-21.76 9.536 25.792 25.792 0 0 0-6.4 21.504 27.52 27.52 0 0 0 24.96 22.528z m-4.8-201.152a28.032 28.032 0 0 0 6.784 0.96h559.808c11.904-0.192 23.04-8.576 26.048-19.392 2.432-8.128 0.64-17.28-4.864-23.872a28.8 28.8 0 0 0-22.4-10.368H240.384c-5.76 0-11.648-0.448-17.024 1.536a26.88 26.88 0 0 0-18.752 25.408 26.944 26.944 0 0 0 20.352 25.728z"  horiz-adv-x="1024" />
      
      <glyph glyph-name="peizhizhongxin-xianxing" unicode="&#59245;" d="M269.376 196.672c73.856 0 138.688-47.552 158.784-116.416h591.808v-87.296H428.16c-20.096-68.928-84.992-116.48-158.784-116.48-73.856 0-138.688 47.552-158.784 116.48H0v87.232H110.72c20.16 68.864 84.928 116.352 158.72 116.352l-0.064 0.128z m0-87.296c-41.472 0-75.072-32.64-75.072-72.768 0-40.192 33.6-72.768 75.072-72.768 41.408 0 75.008 32.576 75.008 72.768s-33.6 72.768-75.008 72.768z m480 436.352c73.856 0 138.688-47.552 158.784-116.352h111.872v-87.36H908.16c-20.096-68.864-84.992-116.48-158.784-116.48-73.856 0-138.688 47.616-158.848 116.48H0.064V429.312H590.72c20.16 68.864 84.992 116.352 158.784 116.352l-0.128 0.064z m0-87.296a75.52 75.52 0 0 1-65.024-36.352c-13.44-22.528-13.44-50.24 0-72.768s38.208-36.352 65.024-36.352c41.408 0 75.008 32.576 75.008 72.768 0 40.128-33.6 72.704-75.008 72.704zM269.376 894.848c73.856 0 138.688-47.552 158.784-116.416h591.808V691.2H428.16c-20.096-68.928-84.992-116.48-158.784-116.48-73.856 0-138.688 47.552-158.784 116.48H0V778.368H110.72C130.88 847.232 195.648 894.72 269.44 894.72L269.376 894.848z m0-87.296a75.52 75.52 0 0 1-65.024-36.352c-13.44-22.528-13.44-50.304 0-72.768 13.44-22.528 38.208-36.416 65.024-36.416 41.408 0 75.008 32.64 75.008 72.768 0 40.192-33.6 72.768-75.008 72.768z"  horiz-adv-x="1024" />
      
      <glyph glyph-name="piliangxuanze" unicode="&#59244;" d="M983.04 209.92c0-67.18464-53.91872-121.7792-120.84736-122.86464L860.16 87.04h-41.984a30.72 30.72 0 0 0-1.152 61.41952l1.152 0.02048h41.984c33.408 0 60.59008 26.67008 61.41952 59.8784L921.6 209.92V732.16c0 33.408-26.67008 60.59008-59.8784 61.41952L860.16 793.6H337.92c-33.408 0-60.59008-26.67008-61.41952-59.8784L276.48 732.16v-24.32a30.72 30.72 0 0 0-61.41952-1.152L215.04 707.84V732.16C215.04 799.34464 268.95872 853.9392 335.88736 855.02464L337.92 855.04h522.24c67.18464 0 121.7792-53.91872 122.86464-120.84736L983.04 732.16v-522.24zM839.68 5.12c0-50.89792-41.26208-92.16-92.16-92.16H133.12c-50.89792 0-92.16 41.26208-92.16 92.16V619.52c0 50.89792 41.26208 92.16 92.16 92.16h614.4c50.89792 0 92.16-41.26208 92.16-92.16v-614.4z m-61.44 0V619.52a30.72 30.72 0 0 1-29.568 30.69952L747.52 650.24H133.12a30.72 30.72 0 0 1-30.69952-29.568L102.4 619.52v-614.4a30.72 30.72 0 0 1 29.568-30.69952L133.12-25.6h614.4a30.72 30.72 0 0 1 30.69952 29.568L778.24 5.12zM601.63072 455.552a30.72 30.72 0 0 0 46.86336-39.71072l-0.8448-0.99328-217.344-245.76a30.72 30.72 0 0 0-41.69728-4.03456l-1.01888 0.8192-151.29088 126.45376a30.72 30.72 0 0 0 38.41536 47.93344l0.98816-0.78848 128.36864-107.29984 197.56032 223.38048z"  horiz-adv-x="1024" />
      
      <glyph glyph-name="ziyuanshouquan-xian" unicode="&#59236;" d="M353.348267 815.035733L421.888 678.912l22.186667-44.2368h566.818133v-681.301333H80.554667V815.035733h272.7936M403.2512 895.1808H0v-1022.429867h1091.3792V714.820267h-597.333333L403.182933 895.1808zM667.921067 203.298133a70.314667 70.314667 0 0 1-46.421334-17.408L492.885333 278.186667a65.604267 65.604267 0 0 1 2.048 16.520533v2.730667l137.898667 88.8832a70.792533 70.792533 0 0 1 106.359467 61.166933c0 39.1168-31.812267 70.724267-70.997334 70.724267a70.792533 70.792533 0 0 1-68.539733-89.429334l-127.658667-82.193066a70.314667 70.314667 0 0 1-48.059733 18.773333c-39.253333 0-70.997333-31.607467-70.997333-70.656 0-39.048533 31.744-70.656 70.997333-70.656 13.789867 0 26.760533 3.822933 37.614933 10.581333l135.850667-97.4848c0-1.6384-0.2048-3.208533-0.2048-4.778666 0-39.048533 31.744-70.656 70.997333-70.656 39.185067 0 70.997333 31.607467 70.997334 70.656 0 39.048533-32.221867 70.929067-71.2704 70.929066z"  horiz-adv-x="1092" />
      
      <glyph glyph-name="yewumoxing-xian" unicode="&#59237;" d="M982.08 583.744a509.184 509.184 0 0 1-109.44 162.368A508.992 508.992 0 0 1 512.64 895.744h-1.28a509.184 509.184 0 0 1-361.216-149.632A508.992 508.992 0 0 1 0.512 384.896a509.184 509.184 0 0 1 149.632-361.216 508.992 508.992 0 0 1 361.216-149.632h1.28a509.184 509.184 0 0 1 359.936 149.632 508.992 508.992 0 0 1 149.632 361.216 507.52 507.52 0 0 1-40.128 198.848z m-469.952-636.544h-0.256c-42.88 0-87.296 42.88-121.856 117.696a556.672 556.672 0 0 0-27.84 74.624c47.68-7.04 97.92-10.624 149.184-10.624 51.776 0 102.4 3.712 150.528 10.88a556.8 556.8 0 0 0-27.904-74.88c-34.56-74.752-78.976-117.632-121.856-117.76z m-0.768 254.848c-58.432 0-115.008 4.992-167.488 14.528-9.664 52.736-14.72 109.568-14.72 168.32 0 58.688 5.056 115.584 14.72 168.32 52.48 9.536 109.056 14.528 167.488 14.528 58.88 0 115.968-5.12 168.832-14.784 9.6-52.608 14.72-109.44 14.72-168.064 0-58.624-5.12-115.392-14.72-168.064-52.864-9.728-109.888-14.784-168.832-14.784z m-244.544 32.768a556.8 556.8 0 0 0-75.52 28.096c-74.752 34.56-117.632 79.04-117.632 121.984 0 42.88 42.88 87.36 117.696 121.92a556.16 556.16 0 0 0 75.456 28.16C259.712 486.912 256 436.48 256 384.832c0-51.648 3.712-102.08 10.816-150.08z m245.12 587.776h0.256c42.88-0.128 87.232-43.008 121.792-117.696a556.8 556.8 0 0 0 27.904-74.88 1030.528 1030.528 0 0 1-150.528 10.88c-51.264 0-101.44-3.648-149.184-10.688 7.936 26.752 17.28 51.776 27.84 74.688 34.56 74.752 78.976 117.632 121.856 117.696z m245.312-288a556.16 556.16 0 0 0 74.112-27.712c74.816-34.624 117.76-79.104 117.76-121.984 0-42.88-42.944-87.36-117.76-121.984-22.784-10.496-47.616-19.776-74.112-27.648 7.04 47.808 10.752 98.176 10.752 149.632s-3.648 101.76-10.752 149.632z m163.008 6.592a443.52 443.52 0 0 1-58.176 32 664.576 664.576 0 0 1-120.32 41.28 664.576 664.576 0 0 1-41.408 121.152 443.456 443.456 0 0 1-31.872 57.792 440.128 440.128 0 0 0 251.776-252.224zM355.968 794.112c-11.52-17.408-22.4-36.928-32.32-58.496a665.6 665.6 0 0 1-41.344-120.832c-44.16-10.752-85.184-24.64-121.664-41.536a444.224 444.224 0 0 1-58.176-32.064 440.064 440.064 0 0 0 253.44 252.928z m-253.44-565.504c17.28-11.456 36.672-22.144 58.112-32.064 36.48-16.896 77.44-30.784 121.664-41.6 10.752-43.84 24.576-84.544 41.344-120.768 9.984-21.568 20.8-41.088 32.32-58.496a440.064 440.064 0 0 0-253.44 252.928z m565.952-252.288a444.8 444.8 0 0 1 31.872 57.856c16.832 36.288 30.72 77.12 41.408 121.152a664.832 664.832 0 0 1 120.32 41.216c21.44 9.92 40.832 20.608 58.24 32.064a440.192 440.192 0 0 0-251.84-252.288z"  horiz-adv-x="1024" />
      
      <glyph glyph-name="shujushibiesuanfa-xian" unicode="&#59238;" d="M78.912 166.464v-200.384c0-7.488 6.208-13.12 13.12-13.12h200.384v-78.08H68.928A68.224 68.224 0 0 0 0.832-56.96V166.4h78.08z m942.208 0v-223.488c0-37.504-30.592-68.096-68.096-68.096H729.6v78.08h199.808a13.184 13.184 0 0 1 13.056 13.12V166.4h78.72zM292.416 895.168v-78.08H92.032a13.184 13.184 0 0 1-13.12-13.12v-200.384H0.832V827.072C0.832 864.64 31.424 895.168 68.928 895.168h223.488z m728.704-68.096v-223.488h-78.72V803.968a13.184 13.184 0 0 1-13.056 13.12h-199.808V895.168h223.488c37.504 0 68.096-30.592 68.096-68.096zM710.208 490.176c9.216-13.696 3.072-30.08-9.216-38.336L538.56 361.6v-164.096c0-16.384-12.288-27.328-30.72-27.328-18.304 0-30.592 10.88-30.592 27.328V358.848l-168.576 90.24c-15.36 8.256-18.368 24.64-9.216 38.336 9.216 13.696 27.584 16.384 42.88 10.88L511.04 410.88l159.36 90.24c12.288 5.504 30.72 0 39.872-10.88zM799.104 563.968L541.632 695.36a61.376 61.376 0 0 1-61.312 0L222.848 564.032c-18.368-10.944-30.656-27.392-30.656-46.528v-265.28c0-19.2 12.288-38.336 30.656-46.528l257.472-131.264c18.368-10.944 42.88-10.944 61.312 0l257.472 131.264c18.368 10.944 30.656 27.392 30.656 46.528V514.752c0 21.888-12.288 38.336-30.72 49.28z m-30.72-311.744l-257.408-134.016-257.472 131.264V514.752l257.472 134.016 257.472-131.264v-265.28z"  horiz-adv-x="1024" />
      
      <glyph glyph-name="jichengyingyong-xian" unicode="&#59239;" d="M551.165552 886.08062l424.933442-217.330417c28.222236-14.3991 45.885132-42.87732 45.885132-73.979376v-421.349666c0-31.102056-17.662896-59.580276-45.885132-74.043372l-424.933442-217.330417c-24.95844-12.7992-54.71658-12.7992-79.739016 0l-424.933442 217.330417A83.322792 83.322792 0 0 0 0.671958 173.485157V594.770827c0 31.03806 17.726892 59.51628 45.949128 73.979376L471.490532 886.08062c24.95844 12.7992 54.71658 12.7992 79.67502 0z m-29.886132-55.484532a21.950628 21.950628 0 0 1-18.750828 0.575964l-1.151928-0.575964-424.933442-217.330417a20.862696 20.862696 0 0 1-11.51928-17.342916V173.421161c0-7.35954 3.967752-14.207112 10.495344-17.91888l1.023936-0.63996 424.933442-217.330417c5.75964-2.943816 12.735204-3.1998 18.750828-0.511968l1.151928 0.511968 424.933442 217.330417a20.862696 20.862696 0 0 1 11.455284 17.342916V594.770827a20.7987 20.7987 0 0 1-10.431348 17.91888l-1.023936 0.575964-424.933442 217.330417zM558.525092 546.261859c20.734704-5.375664 28.286232-18.174864 22.782576-38.397601l-72.187488-262.383601c-5.567652-20.15874-18.686832-27.51828-39.35754-22.142616-20.734704 5.375664-28.350228 18.174864-22.782576 38.397601l72.187488 262.383601c5.503656 20.15874 18.686832 27.51828 39.35754 22.142616zM685.813137 220.842197c15.167052-14.71908 30.334104-14.71908 45.501156 0l144.054996 140.407225c15.167052 14.71908 15.167052 29.502156 0 44.285232-15.167052 14.783076-30.334104 14.783076-45.43716 0l-144.118992-140.343228c-15.103056-14.783076-15.103056-29.566152 0-44.349229zM687.413037 548.757703c15.167052 14.783076 30.334104 14.783076 45.43716 0l144.118992-140.343229c15.167052-14.783076 15.167052-29.566152 0-44.349228-15.167052-14.71908-30.334104-14.71908-45.501156 0l-143.991 140.343228c-15.231048 14.783076-15.231048 29.566152 0 44.349229zM342.410599 220.842197c-15.167052-14.71908-30.334104-14.71908-45.43716 0L152.854447 361.249422c-15.167052 14.71908-15.167052 29.502156 0 44.285232 15.167052 14.783076 30.270108 14.783076 45.43716 0L342.410599 265.191426c15.167052-14.783076 15.167052-29.566152 0-44.349229zM340.874695 548.757703c-15.167052 14.783076-30.334104 14.783076-45.501156 0L151.318543 408.414474c-15.167052-14.783076-15.167052-29.566152 0-44.349228 15.167052-14.71908 30.334104-14.71908 45.43716 0l144.118992 140.343228c15.167052 14.783076 15.167052 29.566152 0 44.349229z"  horiz-adv-x="1024" />
      
      <glyph glyph-name="baimingdan-xian" unicode="&#59240;" d="M112.47297 92.594213v-110.841073c0-20.094744 17.022936-36.541716 37.821637-36.541716h419.109805c19.51878-28.030248 43.389288-52.732704 70.651585-73.211424L150.294607-127.936004c-62.588088 0-113.5929 49.27692-113.592901 109.689144v110.841073h75.771264zM512 128.047997v-1.087932H283.470283a37.181676 37.181676 0 0 0-37.885632 36.47772c0 20.286732 16.894944 36.605712 37.885632 36.605712l236.657209 0.063996A321.003937 321.003937 0 0 1 512 128.047997z m-360.489469 73.147428V128.047997H0.031998v73.147428h151.478533z m-37.885633 329.13143v-292.589714H37.91763V530.326855h75.707268z m485.473658-182.836573H283.534279A37.181676 37.181676 0 0 0 245.584651 384.031998c0 20.222736 16.894944 36.541716 37.885632 36.541716h418.72583a320.747953 320.747953 0 0 1-103.033561-73.083432zM907.68727 896c62.588088 0 113.5929-49.27692 113.5929-109.689144v-400.230986a319.340041 319.340041 0 0 1-75.707268 41.213424v359.017562a37.373664 37.373664 0 0 1-37.885632 36.541716H150.294607a37.373664 37.373664 0 0 1-37.821637-36.541716v-108.729205H36.701706V786.310856C36.701706 846.72308 87.706518 896 150.294607 896h757.392663zM151.510531 640.015999v-73.147428H0.031998V640.015999h151.478533z m662.102618 0c20.926692 0 37.821636-16.31898 37.821636-36.541716a37.181676 37.181676 0 0 0-37.821636-36.605712H283.470283a37.181676 37.181676 0 0 0-37.885632 36.605712c0 20.222736 16.894944 36.541716 37.885632 36.541716h530.142866zM712.307481-68.16374v28.670208h226.225861v-28.222236h56.444472V284.390226h-162.549841c8.95944 17.91888 17.406912 37.629648 25.91838 57.788388l-69.43566 8.95944a468.450722 468.450722 0 0 0-18.366852-66.747828h-112.440972v-352.617962h54.204612z m226.225861 218.610337H712.307481v79.739016h226.225861v-79.739016z m0-135.735516H712.307481v82.87482h226.225861v-82.87482z"  horiz-adv-x="1024" />
      
      <glyph glyph-name="weidujianmo-xian" unicode="&#59241;" d="M506.752 110.4l-266.304 145.92v291.84l266.368 145.92 266.304-145.792v-291.904l-266.304-145.92h-0.064z m0 65.92l206.208 113.024V515.072L506.816 628.032 300.608 515.072V289.28l206.208-112.96h-0.064z m-25.856 225.92h60.16v-258.752h-60.16V402.24z m15.104 24.768l236.288 129.344 30.08-49.472L526.08 377.408l-30.08 49.6zM259.712 506.88l30.08 49.536L526.08 427.008l-30.08-49.6L259.712 506.88z m327.296-562.048l-30.08 49.6 347.776 190.4V573.504h60.224v-405.12c0-10.24-5.76-19.712-15.104-24.832l-362.88-198.72z m-150.4 0.192l-362.496 198.528a28.352 28.352 0 0 0-15.104 24.768V573.504h60.16v-388.48l347.52-190.336-30.08-49.728zM150.72 640l-30.08 49.6L490.56 892.16a31.616 31.616 0 0 0 30.08 0l369.792-202.496-30.08-49.6L505.472 834.368 150.72 640.064zM931.904 552.96c-48.64 1.664-87.04 39.552-87.04 85.76 0 46.144 38.4 84.096 87.04 85.76 48.576-1.664 87.04-39.616 87.04-85.76 0-46.208-38.464-84.096-87.04-85.76z m0 114.368c-16.64 0-30.08-12.8-30.08-28.608s13.44-28.608 30.08-28.608 30.08 12.8 30.08 28.608a29.376 29.376 0 0 1-30.08 28.608zM0.448 638.208c1.792 46.08 41.728 82.688 90.304 82.688 48.64 0 88.512-36.544 90.304-82.688-1.792-46.144-41.664-82.688-90.24-82.688-48.64 0-88.576 36.48-90.368 82.688z m90.304 28.608c-16.64 0-30.08-12.8-30.08-28.608s13.44-28.608 30.08-28.608 30.08 12.8 30.08 28.608a29.376 29.376 0 0 1-30.08 28.608z m419.712-792.32c-48.576 1.664-87.04 39.552-87.04 85.76 0 46.144 38.464 84.032 87.04 85.76 48.64-1.728 87.04-39.616 87.04-85.76 0-46.208-38.4-84.096-87.04-85.76z m-30.08 85.76c0-15.808 13.44-28.608 30.08-28.608s30.08 12.8 30.08 28.544a29.376 29.376 0 0 1-30.08 28.608c-16.64 0-30.08-12.8-30.08-28.608z"  horiz-adv-x="1024" />
      
      <glyph glyph-name="shujuyingyong-xian" unicode="&#59242;" d="M1001.856 664L788.608 877.376a60.288 60.288 0 0 1-43.072 17.792 61.312 61.312 0 0 1-43.072-17.792L489.216 664a60.8 60.8 0 0 1 0-86.144l213.248-213.376a60.8 60.8 0 0 1 86.144 0l213.376 213.376a60.288 60.288 0 0 1 17.792 43.072 60.16 60.16 0 0 1-17.92 43.072z m-60.352-43.328l-195.584-195.584L550.4 620.672l195.52 195.456 195.584-195.456z m-70.72-308.608h-305.28c-36.48 0-65.984-29.696-66.112-65.984v-305.152c0-17.664 6.848-34.24 19.392-46.72 12.48-12.544 29.056-19.456 46.72-19.456h305.152c36.48 0 66.176 29.696 66.176 66.176v305.152c0 36.48-29.568 65.984-66.048 65.984z m-10.688-76.544v-284.032H576.192V235.52h283.904zM371.392 312.064h-305.28c-36.416 0-65.984-29.696-66.112-65.984v-305.152c0-17.664 6.848-34.24 19.392-46.72 12.48-12.544 29.056-19.456 46.72-19.456h305.152c36.48 0 66.176 29.696 66.176 66.176v305.152c0 36.48-29.696 65.984-66.048 65.984z m-10.624-76.544v-284.032H76.8V235.52h283.968z m10.624 576.064h-305.28c-17.664 0-34.24-6.848-46.72-19.392a65.6 65.6 0 0 1-19.392-46.72V440.32c0-17.664 6.848-34.24 19.392-46.72 12.48-12.544 29.056-19.456 46.72-19.456h305.152c36.48 0 66.048 29.696 66.176 66.048v305.28c0 36.416-29.696 65.984-66.048 66.112z m-10.624-76.672v-284.096H76.8V734.912h283.968z"  horiz-adv-x="1024" />
      
      <glyph glyph-name="biaozhunguanli-xian" unicode="&#59243;" d="M466.139429 226.230857c0 32.182857 2.486857 17.408-154.770286 361.325714-21.723429 47.250286-74.24 66.267429-117.394286 42.569143-16.822857-9.216-30.500571-24.137143-38.912-42.569143C-3.657143 240.64 0.146286 257.462857 0.146286 226.230857c0-87.990857 104.374857-159.232 233.033143-159.232 128.585143 0 232.96 71.241143 232.96 159.232zM233.179429 544.768l130.998857-286.72H102.107429l131.072 286.72z m931.84-318.537143c0 32.182857 2.486857 17.408-154.770286 361.325714-21.723429 47.250286-74.24 66.267429-117.394286 42.569143-16.822857-9.216-30.500571-24.137143-38.912-42.569143C695.369143 240.64 699.172571 257.462857 699.172571 226.230857c0-87.990857 104.301714-159.232 232.96-159.232 128.658286 0 232.96 71.314286 232.96 159.232z m-364.032 31.817143l131.072 286.646857 131.072-286.72H800.914286z m160.182857-254.829714H640.877714V590.043429c43.446857 20.772571 74.898286 63.268571 84.406857 113.956571h235.812572c16.091429 0 29.037714 14.262857 29.037714 31.817143v63.926857c0 17.554286-13.019429 31.817143-29.037714 31.817143H698.514286C650.971429 901.558857 560.493714 916.114286 496.64 864.109714a151.552 151.552 0 0 1-29.842286-32.548571H204.068571c-16.091429 0-29.110857-14.262857-29.110857-31.817143v-63.634286c0-17.554286 13.019429-31.744 29.110857-31.744h235.739429c9.508571-50.907429 41.033143-93.549714 84.553143-114.322285v-586.752H204.068571c-16.018286 0-29.037714-14.262857-29.037714-31.817143v-63.634286c0-17.554286 13.019429-31.744 29.110857-31.744h757.174857c16.091429 0 29.037714 14.262857 29.037715 31.817143v63.634286c0 17.481143-13.019429 31.670857-29.037715 31.670857z"  horiz-adv-x="1170" />
      
      <glyph glyph-name="luojishitu-xian" unicode="&#59227;" d="M893.952 895.341714c44.690286 0 81.261714-37.595429 81.261714-83.456v-377.709714h-81.261714v127.268571H690.761143v-208.676571h0.146286v-83.382857l-0.146286-0.146286v-208.676571h0.146286v-83.382857l-609.645715-0.073143c-41.691429 0-76.361143 32.694857-80.749714 74.386285L0 60.562286V811.885714C0 857.746286 36.571429 895.268571 81.261714 895.268571zM284.525714 269.238857H81.188571v-208.676571H284.525714V269.238857z m325.046857 0H365.714286v-208.676571h243.785143V269.238857zM284.525714 561.444571H81.188571v-208.676571H284.525714V561.444571z m325.046857 0H365.714286v-208.676571h243.785143V561.444571z m284.525715 250.441143H81.188571v-166.985143h812.690286V811.885714zM1103.286857-24.722286v109.275429c-41.910857-17.700571-101.083429-26.477714-166.765714-26.477714-65.389714 0-122.441143 8.777143-162.304 26.477714l0.146286-109.275429h3.803428s11.849143-8.338286 35.620572-16.603428c31.670857-12.434286 79.213714-16.530286 126.829714-16.530286 47.542857 0 95.085714 8.265143 126.756571 16.603429 23.771429 8.265143 35.693714 16.530286 35.693715 16.530285h0.219428z m-328.923428 288.914286v-106.788571h3.803428s11.849143-8.338286 35.620572-16.603429c31.670857-12.434286 79.213714-16.530286 126.829714-16.530286 47.542857 0 95.085714 8.265143 126.756571 16.530286 27.721143 8.338286 35.693714 16.530286 35.693715 16.530286l0.146285 0.073143 0.146286 104.886857c-41.618286-16.969143-99.035429-26.331429-162.377143-26.331429-65.536 0-124.781714 10.020571-166.619428 28.16z m166.692571 108.397714c-51.565714 0-95.085714-8.265143-126.829714-16.603428-21.577143-6.436571-33.572571-15.36-37.814857-17.115429l-0.804572-0.073143 1.243429-0.804571c4.388571-2.706286 15.579429-8.923429 33.426285-15.140572 31.670857-12.434286 79.213714-16.530286 126.756572-16.530285 47.616 0 99.108571 4.169143 130.706286 16.603428 23.405714 4.096 31.524571 12.141714 35.547428 16.310857v0.219429h0.219429c-4.022857 0-15.945143 8.338286-35.693715 16.603429a501.833143 501.833143 0 0 1-126.756571 16.530285z m-4.388571-496.64c-126.829714 0-225.865143 37.229714-225.865143 99.328h0.219428v364.251429h0.365715l0.292571 3.145143c7.753143 57.636571 107.593143 91.940571 229.376 91.940571 126.756571 0 229.741714-37.156571 229.741714-99.328l-0.292571-3.510857 0.073143-356.498286h-0.219429c0-66.267429-106.934857-99.328-233.691428-99.328z"  horiz-adv-x="1243" />
      
      <glyph glyph-name="renwuzhongxin-xian" unicode="&#59228;" d="M678.53824 456.92416a30.72 30.72 0 1 0 43.4432-43.44832L475.8016 167.29088a30.72 30.72 0 0 0-46.26432 3.23584l-128.69632 128.70656a30.72 30.72 0 1 0 43.44832 43.4432l109.99808-110.0032zM675.84 865.28c33.93024 0 61.44-27.50976 61.44-61.44v-10.24h163.84c50.89792 0 92.16-41.26208 92.16-92.16v-706.56c0-50.89792-41.26208-92.16-92.16-92.16H122.88c-50.89792 0-92.16 41.26208-92.16 92.16V701.44c0 50.89792 41.26208 92.16 92.16 92.16h163.84v10.24c0 33.93024 27.50976 61.44 61.44 61.44h327.68z m61.44-143.36c0-33.93024-27.50976-61.44-61.44-61.44H348.16c-33.93024 0-61.44 27.50976-61.44 61.44v10.24H122.88a30.72 30.72 0 0 1-30.69952-29.568L92.16 701.44v-706.56a30.72 30.72 0 0 1 29.568-30.69952L122.88-35.84h778.24a30.72 30.72 0 0 1 30.69952 29.568L931.84-5.12V701.44a30.72 30.72 0 0 1-29.568 30.69952L901.12 732.16h-163.84v-10.24z m-61.44 81.92H348.16v-81.92h327.68V803.84z"  horiz-adv-x="1024" />
      
      <glyph glyph-name="zhibiao-xian" unicode="&#59229;" d="M1166.921143 895.488v-347.136L1018.88 691.053714l-392.777143-339.382857L420.571429 538.038857 53.101714 250.806857l-52.955428 62.902857 424.667428 331.776 202.605715-183.881143 331.995428 286.793143L806.765714 895.488zM50.614857 114.468571h84.041143v-237.202285H50.614857v237.202285z m672.182857 0h84.041143v-237.202285H722.797714v237.202285z m336.091429 237.202286h84.041143v-474.404571h-84.114286V351.670857z m-672.182857-121.417143h84.041143v-352.987428H386.706286V230.180571z"  horiz-adv-x="1170" />
      
      <glyph glyph-name="yinsishuju-xian" unicode="&#59230;" d="M1117.866667 872.106667c26.453333-29.952 26.453333-78.250667 0-108.202667L355.242667-101.12a61.866667 61.866667 0 0 0-95.488 0 83.797333 83.797333 0 0 0 0 108.202667L1022.464 872.106667a61.866667 61.866667 0 0 0 95.402667 0zM157.866667 122.88A1145.002667 1145.002667 0 0 0 1.450667 354.218667C157.781333 663.04 389.717333 809.642667 681.813333 809.642667h74.837334L620.970667 655.616c-204.117333-15.786667-361.216-115.712-476.416-301.312 27.136-46.677333 60.928-92.416 95.402666-123.221333l-81.493333-108.288H157.866667z m503.466666-77.482667h13.994667c231.253333 0 401.578667 100.693333 530.773333 308.906667a1059.413333 1059.413333 0 0 1-135.850666 162.304l102.058666 100.693333c74.837333-69.12 135.765333-162.304 190.890667-262.229333-156.416-308.906667-388.352-455.338667-680.533333-455.338667-292.096 0-95.402667 0-143.104 7.509334l122.538666 139.008-0.682666-0.853334z"  horiz-adv-x="1365" />
      
      <glyph glyph-name="shujuziyuanmulu-xian" unicode="&#59231;" d="M921.6 880.64c39.58784 0 71.68-32.09216 71.68-71.68v-133.12c0-39.58784-32.09216-71.68-71.68-71.68H102.4c-39.58784 0-71.68 32.09216-71.68 71.68V808.96C30.72 848.54784 62.81216 880.64 102.4 880.64h819.2z m0-61.44H102.4a10.24 10.24 0 0 1-10.2144-9.472L92.16 808.96v-133.12a10.24 10.24 0 0 1 9.472-10.2144L102.4 665.6h819.2a10.24 10.24 0 0 1 10.2144 9.472L931.84 675.84V808.96a10.24 10.24 0 0 1-9.472 10.2144L921.6 819.2zM921.6 522.24c39.58784 0 71.68-32.09216 71.68-71.68v-133.12c0-39.58784-32.09216-71.68-71.68-71.68H102.4c-39.58784 0-71.68 32.09216-71.68 71.68V450.56c0 39.58784 32.09216 71.68 71.68 71.68h819.2z m0-61.44H102.4a10.24 10.24 0 0 1-10.2144-9.472L92.16 450.56v-133.12a10.24 10.24 0 0 1 9.472-10.2144L102.4 307.2h819.2a10.24 10.24 0 0 1 10.2144 9.472L931.84 317.44V450.56a10.24 10.24 0 0 1-9.472 10.2144L921.6 460.8zM921.6 163.84c39.58784 0 71.68-32.09216 71.68-71.68v-133.12c0-39.58784-32.09216-71.68-71.68-71.68H102.4c-39.58784 0-71.68 32.09216-71.68 71.68v133.12c0 39.58784 32.09216 71.68 71.68 71.68h819.2z m0-61.44H102.4a10.24 10.24 0 0 1-10.2144-9.472L92.16 92.16v-133.12a10.24 10.24 0 0 1 9.472-10.2144L102.4-51.2h819.2a10.24 10.24 0 0 1 10.2144 9.472L931.84-40.96v133.12a10.24 10.24 0 0 1-9.472 10.2144L921.6 102.4zM204.8 773.12m30.72 0l102.4 0q30.72 0 30.72-30.72l0 0q0-30.72-30.72-30.72l-102.4 0q-30.72 0-30.72 30.72l0 0q0 30.72 30.72 30.72ZM204.8 414.72m30.72 0l102.4 0q30.72 0 30.72-30.72l0 0q0-30.72-30.72-30.72l-102.4 0q-30.72 0-30.72 30.72l0 0q0 30.72 30.72 30.72ZM204.8 56.32m30.72 0l102.4 0q30.72 0 30.72-30.72l0 0q0-30.72-30.72-30.72l-102.4 0q-30.72 0-30.72 30.72l0 0q0 30.72 30.72 30.72Z"  horiz-adv-x="1024" />
      
      <glyph glyph-name="shujufenjibiaoqian-xian" unicode="&#59232;" d="M926.72 865.28a30.72 30.72 0 0 0 1.152-61.41952L926.72 803.84H184.32c-33.408 0-60.59008-26.67008-61.41952-59.8784L122.88 742.4v-808.96a30.72 30.72 0 0 0-61.41952-1.152L61.44-66.56V742.4C61.44 809.58464 115.35872 864.1792 182.28736 865.26464L184.32 865.28h742.4zM926.72 865.28a30.72 30.72 0 0 0 1.152-61.41952L926.72 803.84H184.32c-33.408 0-60.59008-26.67008-61.41952-59.8784L122.88 742.4v-808.96a30.72 30.72 0 0 0-61.41952-1.152L61.44-66.56V742.4C61.44 809.58464 115.35872 864.1792 182.28736 865.26464L184.32 865.28h742.4zM901.12 732.16c50.89792 0 92.16-41.26208 92.16-92.16v-636.75904c0-50.8928-41.26208-92.16-92.16-92.16a92.16 92.16 0 0 0-51.1232 15.47776l-204.9536 136.64256a92.16 92.16 0 0 1-102.2464 0l-204.9536-136.64256c-42.35264-28.23168-99.57376-16.78848-127.80544 25.56416A92.16 92.16 0 0 0 194.56 3.24096V640c0 50.89792 41.26208 92.16 92.16 92.16h614.4z m0-61.44H286.72a30.72 30.72 0 0 1-30.69952-29.568L256 640v-636.75904a30.72 30.72 0 0 1 46.72-26.22464l1.03936 0.6656 204.95872 136.63744a153.6 153.6 0 0 0 168.36096 1.34144l2.04288-1.34144 204.9536-136.63744a30.72 30.72 0 0 1 47.744 24.40704l0.02048 1.152V640a30.72 30.72 0 0 1-29.568 30.69952L901.12 670.72zM532.48 465.92c0-33.93024 27.50976-61.44 61.44-61.44s61.44 27.50976 61.44 61.44-27.50976 61.44-61.44 61.44-61.44-27.50976-61.44-61.44z"  horiz-adv-x="1024" />
      
      <glyph glyph-name="changjingfenxi-xian" unicode="&#59233;" d="M348.296533 702.190933c0-106.7008 87.927467-193.262933 196.334934-193.262933 108.407467 0 196.334933 86.562133 196.334933 193.262933S653.038933 895.3856 544.631467 895.3856c-108.407467 0-196.266667-86.493867-196.266667-193.194667h-0.068267z m17.954134-498.0736a196.8128 196.8128 0 0 1-170.052267 96.938667 197.4272 197.4272 0 0 1-169.847467-96.938667 191.146667 191.146667 0 0 1-0.2048-193.262933 196.8128 196.8128 0 0 1 169.984-96.8704c33.450667 0 66.901333 8.192 97.8944 25.873067a193.877333 193.877333 0 0 1 91.7504 117.418666c13.5168 49.5616 6.485333 102.4-19.524266 146.773334z m625.2544 71.0656a196.744533 196.744533 0 0 1-97.826134 25.873067 196.061867 196.061867 0 0 1-169.984-96.938667 190.600533 190.600533 0 0 1-19.6608-146.909866 193.7408 193.7408 0 0 1 91.818667-117.418667c29.696-16.9984 63.488-25.941333 97.826133-25.873067a196.061867 196.061867 0 0 1 169.984 96.938667 190.805333 190.805333 0 0 1 19.592534 146.909867 193.877333 193.877333 0 0 1-91.682134 117.418666h-0.068266z m-150.3232 83.968a260.9152 260.9152 0 0 0 141.994666-10.581333 430.762667 430.762667 0 0 1-180.770133 313.070933 254.5664 254.5664 0 0 0-60.8256-128 290.6112 290.6112 0 0 0 99.669333-174.4896z m-645.666134 5.256534c17.954133 0 35.2256-1.706667 52.565334-5.256534A296.7552 296.7552 0 0 0 347.682133 534.186667 255.317333 255.317333 0 0 0 286.72 661.640533a430.762667 430.762667 0 0 1-180.770133-313.070933c28.672 10.24 58.9824 15.633067 89.4976 15.837867z m448.7168-333.550934a308.224 308.224 0 0 0-99.669333-17.066666 293.205333 293.205333 0 0 0-99.669333 17.066666 254.020267 254.020267 0 0 0-77.482667-117.486933c55.773867-24.302933 116.1216-36.864 177.152-37.000533a443.733333 443.733333 0 0 1 177.220267 37.000533 254.020267 254.020267 0 0 0-77.550934 117.486933z"  horiz-adv-x="1092" />
      
      <glyph glyph-name="jiekou-xian" unicode="&#59234;" d="M768 870.4c67.8656 0 122.88-55.0144 122.88-122.88v-266.24h30.72c50.89792 0 92.16-41.26208 92.16-92.16v-146.10432a92.16 92.16 0 0 0-37.45792-74.16832L844.8 71.86432V25.6c0-67.18464-53.91872-121.7792-120.84736-122.86464L721.92-97.28H302.08c-67.8656 0-122.88 55.0144-122.88 122.88v46.2592L47.69792 168.84736A92.16 92.16 0 0 0 10.24 243.01568V389.12c0 50.89792 41.26208 92.16 92.16 92.16h30.72V747.52C133.12 815.3856 188.1344 870.4 256 870.4h512z m15.36-803.84H240.64v-40.96c0-33.408 26.67008-60.59008 59.8784-61.41952L302.08-35.84h419.84c33.93024 0 61.44 27.50976 61.44 61.44v40.96z m138.24 353.28H102.4a30.72 30.72 0 0 1-30.69952-29.568L71.68 389.12v-146.10432a30.72 30.72 0 0 1 11.43808-23.9104l1.0496-0.81408L206.592 128h610.80064l122.43456 90.2912a30.72 30.72 0 0 1 12.45696 23.3984l0.03072 1.3312V389.12a30.72 30.72 0 0 1-29.568 30.69952L921.6 419.84z m-153.6 389.12H256l-1.5616-0.02048C221.23008 808.11008 194.56 780.93312 194.56 747.52v-266.24h163.84V650.24a30.72 30.72 0 1 0 61.44 0v-168.96h184.32V650.24a30.72 30.72 0 0 0 61.44 0v-168.96h163.84V747.52c0 33.93024-27.50976 61.44-61.44 61.44z"  horiz-adv-x="1024" />
      
      <glyph glyph-name="tuominguize-xian" unicode="&#59235;" d="M294.336 661.12h428.032a38.016 38.016 0 1 0 0-75.904H294.336a38.016 38.016 0 0 0 0 75.968z m0-241.728h162.944a38.016 38.016 0 1 0 0-75.968H294.4a38.016 38.016 0 0 0 0 75.968z m0-234.816h162.944a38.016 38.016 0 0 0 0-75.968H294.4a38.016 38.016 0 0 0 0 75.968zM722.752 391.68v-76.544l80.832 23.168 21.312-59.712-80.384-23.04 49.536-62.656-55.872-36.992-50.56 62.08-49.536-62.08-55.872 36.992 49.472 62.592-79.872 23.04 20.8 59.776 80.384-23.04V391.68h69.76zM1012.288 778.56C1012.288 840.768 958.848 896 882.56 896H134.144C57.792 896 4.352 840.768 4.352 778.56v-787.392c0-62.144 53.44-117.376 129.792-117.376h755.968c68.736 0 129.856 55.232 129.856 117.376l-7.68 787.392z m-122.176-828.8H134.144c-22.912 0-45.824 20.672-45.824 41.408V778.56c0 20.736 15.36 41.472 45.824 41.472h755.968c22.912 0 45.824-20.736 45.824-41.472v-787.392c-7.616-27.584-22.912-41.408-45.824-41.408z"  horiz-adv-x="1024" />
      
      <glyph glyph-name="liuchengshezhi" unicode="&#59226;" d="M516 890c279.456 0 506-226.544 506-506s-226.544-506-506-506S10 104.544 10 384 236.544 890 516 890z m0-60C269.681 830 70 630.319 70 384s199.681-446 446-446 446 199.681 446 446S762.319 830 516 830zM646 347c0-22.091-17.909-40-40-40H418c-22.091 0-40 17.909-40 40v9h-46c-37.18 0-67.39 29.839-67.99 66.875L264 424V562c0 37.18 29.839 67.39 66.875 67.99L332 630h46v9c0 22.091 17.909 40 40 40h188c22.091 0 40-17.909 40-40v-74c0-22.091-17.909-40-40-40H418c-22.091 0-40 17.909-40 40v9h-46c-6.525 0-11.834-5.209-11.996-11.695L320 562v-138c0-6.525 5.209-11.834 11.695-11.996L332 412h46v9c0 22.091 17.909 40 40 40h188c22.091 0 40-17.909 40-40v-9h46l1.125-0.01c36.666-0.594 66.278-30.209 66.866-66.877L760 344v-138l-0.01-1.125c-0.594-36.666-30.209-66.278-66.877-66.866L692 138h-46v-9c0-22.091-17.909-40-40-40H418c-22.091 0-40 17.909-40 40v74c0 22.091 17.909 40 40 40h188c22.091 0 40-17.909 40-40v-9h46l0.305 0.004c6.387 0.16 11.534 5.308 11.691 11.696l0.004 0.3V344l-0.004 0.305c-0.16 6.387-5.308 11.534-11.696 11.691L692 356h-46v-9z"  horiz-adv-x="1024" />
      
      <glyph glyph-name="jiebang1" unicode="&#59225;" d="M512 789.48352c111.9744 111.9744 293.51424 111.9744 405.48352 0 111.9744-111.9744 111.9744-293.51424 0-405.48352l-115.85024-115.85024-43.44832 43.4432 115.85536 115.85024c87.0912 87.10144 87.96672 227.76832 2.6112 315.93984l-2.6112 2.65728c-87.97696 87.97696-230.62016 87.97696-318.59712 0L439.59296 630.18496l-43.4432 43.44832zM222.36672 499.85024l43.4432-43.43808-115.85024-115.85536c-87.0912-87.10144-87.96672-227.76832-2.6112-315.93984l2.6112-2.65728c87.97696-87.97696 230.62016-87.97696 318.59712 0l115.84512 115.85536 43.44832-43.4432L512-21.48352c-110.848-110.848-289.88928-111.95904-402.10432-3.328l-3.3792 3.328c-111.9744 111.9744-111.9744 293.51424 0 405.48352l115.85024 115.85024zM362.250758 885.251933m10.506858-28.867357l336.219482-923.755434q10.506859-28.867357-18.360498-39.374216l0 0q-28.867357-10.506859-39.374216 18.360498l-336.219482 923.755434q-10.506859 28.867357 18.360498 39.374216l0 0q28.867357 10.506859 39.374216-18.360498Z"  horiz-adv-x="1024" />
      
      <glyph glyph-name="cebianlan" unicode="&#59224;" d="M901.12 865.28c50.89792 0 92.16-41.26208 92.16-92.16v-778.24c0-50.89792-41.26208-92.16-92.16-92.16H122.88c-50.89792 0-92.16 41.26208-92.16 92.16V773.12c0 50.89792 41.26208 92.16 92.16 92.16h778.24zM92.16 558.08512V-5.12a30.72 30.72 0 0 1 29.568-30.69952L122.88-35.84h563.2V558.08l-593.92 0.00512zM747.52 558.08v-593.92h153.6a30.72 30.72 0 0 1 30.69952 29.568L931.84-5.12V558.08h-184.32z m153.6 245.76H122.88a30.72 30.72 0 0 1-30.69952-29.568L92.16 773.12v-153.59488L931.84 619.52V773.12a30.72 30.72 0 0 1-29.568 30.69952L901.12 803.84z"  horiz-adv-x="1024" />
      
      <glyph glyph-name="gengxinshijian" unicode="&#59223;" d="M512 768c-69.952 0-134.656-17.344-193.984-52.032a380.48 380.48 0 0 1-138.048-137.984A381.376 381.376 0 0 1 128 384H0l166.016-166.016 3.008-6.016 171.968 171.968h-128c0 54.016 13.696 104.32 40.96 151.04A294.08 294.08 0 0 0 361.088 641.92 293.76 293.76 0 0 0 512 682.88c53.952 0 103.936-13.632 149.952-40.96 45.312-26.624 81.344-62.336 108.032-107.008 26.624-46.656 40-96.96 40-150.976 0-54.016-13.376-104.32-40-151.04a302.016 302.016 0 0 0-108.032-106.944c-45.952-27.328-96-40.96-150.016-40.96a288.64 288.64 0 0 0-115.456 23.424 303.36 303.36 0 0 0-95.488 64.512l-60.992-59.968a370.24 370.24 0 0 1 124.48-84.032A384 384 0 0 1 512.064 0c69.312 0 133.632 17.344 192.96 52.032a380.48 380.48 0 0 1 138.048 137.984A375.872 375.872 0 0 1 896 384a375.872 375.872 0 0 1-52.992 193.92 380.48 380.48 0 0 1-138.048 138.048A375.872 375.872 0 0 1 512.064 768z m-43.008-212.992v-214.016l183.04-107.968 30.016 51.968-148.992 88V555.008h-64z"  horiz-adv-x="1024" />
      
      <glyph glyph-name="shujubiao-xianxing" unicode="&#59222;" d="M292.571429-49.225143v236.251429H73.142857v-236.251429h219.428572z m73.142857 0h585.142857v236.251429H365.714286v-236.251429zM292.571429 265.874286v236.251428H73.142857v-236.251428h219.428572z m73.142857 0h585.142857v236.251428H365.714286v-236.251428z m0 315.026285h585.142857V817.225143H73.142857v-236.251429h292.571429z m-365.714286-630.125714V817.225143C0 860.745143 32.768 896 73.142857 896h877.714286c40.374857 0 73.142857-35.254857 73.142857-78.774857v-866.450286c0-43.52-32.768-78.774857-73.142857-78.774857H73.142857c-40.374857 0-73.142857 35.254857-73.142857 78.774857z"  horiz-adv-x="1024" />
      
      <glyph glyph-name="xianshishuxing" unicode="&#59221;" d="M20.606 153.382a41.148 41.148 0 0 0 61.69-35.645V-45.64l163.505-0.128a41.148 41.148 0 0 0 0-82.232H68.666C30.78-128 0.064-97.283 0.064-59.398V117.737c0 14.719 7.807 28.285 20.542 35.645z m962.214 5.503c22.718 0 41.148-18.43 41.148-41.148v-177.071c0-37.885-30.717-68.602-68.602-68.602H778.231a41.148 41.148 0 1 0 0 82.296h163.377l0.128 163.377c0 22.718 18.366 41.148 41.084 41.148zM512.08 604.731a387.676 387.676 0 0 0 329.697-183.726 58.682 58.682 0 0 0 0-74.234 424.536 424.536 0 0 0-329.761-183.214 423.768 423.768 0 0 0-329.633 183.278 58.235 58.235 0 0 0 0 74.17 387.676 387.676 0 0 0 329.633 183.662z m-0.064-71.033c-107.702 0-207.34-56.827-262.247-149.49a339.744 339.744 0 0 1 262.247-149.874 339.744 339.744 0 0 1 262.247 149.874 304.675 304.675 0 0 1-262.247 149.49z m0.256-35.645a114.101 114.101 0 1 0-0.192-228.202 114.101 114.101 0 0 0 0.192 228.202z m-0.256-82.104a31.997 31.997 0 1 1 0-63.994 31.997 31.997 0 0 1 0 63.994zM245.737 895.904a41.148 41.148 0 1 0 0-82.232H82.297v-163.505a41.148 41.148 0 1 0-82.233 0V827.302A68.602 68.602 0 0 0 68.666 895.904z m709.693 0c37.757 0 68.474-30.717 68.474-68.602v-177.071a41.148 41.148 0 1 0-82.296 0V813.671H778.23a41.148 41.148 0 1 0 0 82.233z"  horiz-adv-x="1024" />
      
      <glyph glyph-name="zhuantimoxing" unicode="&#59217;" d="M498.816-33.28l-415.68 195.712V602.432l415.68 191.296 415.68-191.104v-257.728h83.136V659.264L498.24 894.72 0 659.328v-549.632l498.816-235.264M498.816 423.36L166.272 580.672V502.4l332.544-157.44zM498.816 344.96l332.544 157.44-0.192 78.272-332.352-157.312zM692.48 289.28l1.472-1.408 121.088-121.088c30.208-30.208 30.656-78.784 1.472-109.568l-1.472-1.472-12.16-12.16-50.432 50.496 12.16 12.16a7.104 7.104 0 0 1 0.512 9.472l-0.512 0.64-121.088 121.024a7.104 7.104 0 0 1-9.472 0.64l-0.64-0.64-121.088-121.088a7.104 7.104 0 0 1-0.576-9.472l0.576-0.64 121.088-121.024c2.56-2.56 6.656-2.816 9.472-0.64l0.64 0.64 11.584 11.52 50.432-50.432-11.584-11.584a78.528 78.528 0 0 0-109.504-1.408l-1.472 1.408-121.152 121.088a78.528 78.528 0 0 0-1.408 109.568l1.408 1.472 121.088 121.088a78.528 78.528 0 0 0 109.568 1.408zM874.112 289.28l1.472-1.408 121.088-121.088c30.208-30.208 30.72-78.784 1.472-109.568l-1.408-1.472-121.152-121.088a78.528 78.528 0 0 0-109.504-1.408l-1.472 1.408-121.088 121.088a78.528 78.528 0 0 0-1.472 109.568l1.472 1.472 11.328 11.328 50.432-50.432-11.328-11.392a7.104 7.104 0 0 1-0.576-9.472l0.576-0.64 121.088-121.024c2.56-2.56 6.656-2.816 9.472-0.64l0.64 0.64 121.088 121.088a7.104 7.104 0 0 1 0.576 9.472l-0.576 0.64-121.088 121.024a7.104 7.104 0 0 1-9.472 0.64l-0.64-0.64-11.904-11.904-50.432 50.496 11.904 11.904a78.528 78.528 0 0 0 109.504 1.408z"  horiz-adv-x="1024" />
      
      <glyph glyph-name="shouqimoxing" unicode="&#59220;" d="M1117.468441 779.851716H538.262409a47.523848 47.523848 0 0 0 0 94.901468h579.206032a47.523848 47.523848 0 1 0 0-94.901468z m0-403.587136H538.262409a47.523848 47.523848 0 0 0 0 95.047695h579.206032a47.523848 47.523848 0 1 0 0-95.047695z m0-403.440909H538.262409a47.523848 47.523848 0 0 0 0 94.901468h579.206032a47.523848 47.523848 0 1 0 0-94.901468z m-1036.092991-16.304336a44.306849 44.306849 0 1 0-63.097047 62.14657l153.684812 156.097561a44.306849 44.306849 0 0 0 63.17016 0l153.684812-156.097561a44.306849 44.306849 0 1 0-63.097047-62.14657l-122.099731 123.927572-122.245959-123.854458zM320.968755 881.55275a44.306849 44.306849 0 1 0 63.097047-62.14657L230.38099 663.308619a44.306849 44.306849 0 0 0-63.097046 0L13.526018 819.40618a44.306849 44.306849 0 0 0 63.097047 62.14657l122.099732-124.000685L320.968755 881.55275z"  horiz-adv-x="1169" />
      
      <glyph glyph-name="zhutimoxing" unicode="&#59218;" d="M498.816-33.28l-415.68 195.712V602.432l415.68 191.296 415.68-191.104v-257.728h83.136V659.264L498.24 894.72 0 659.328v-549.632l498.816-235.264M498.816 423.36L166.272 580.672V502.4l332.544-157.44zM498.816 344.96l332.544 157.44-0.192 78.272-332.352-157.312zM995.008-112.064v57.344h-188.288v94.656h140.8v56.32h-140.8V181.12h164.288v56.896h-155.456l25.984 19.136c-20.608 22.528-62.72 53.952-94.08 74.048l-48.128-33.344c23.552-17.152 52.992-39.68 73.6-59.84H576.768v-56.896h165.76v-84.8H602.752v-56.384h139.776v-94.656H556.16v-57.344h438.848z"  horiz-adv-x="1024" />
      
      <glyph glyph-name="yuanmoxing" unicode="&#59219;" d="M491.690667-127.061333L21.717333 116.821333V605.738667L475.52 896l484.352-289.536v-460.373333l-468.181333-273.152zM93.013333 158.464l396.586667-206.506667 398.634667 233.6V569.344L475.52 815.36 93.056 570.026667v-411.562667zM688.384 545.877333V606.592H286.592v-60.714667h401.792zM265.088 151.466667c135.253333 51.2 161.28 141.482667 171.477333 251.306666h84.906667v-161.536c0-61.781333 16.384-81.834667 80.341333-81.834666h67.882667c57.728 0 74.709333 27.434667 81.493333 121.941333-18.645333 4.224-47.530667 15.317333-62.250666 26.410667-2.816-76.032-6.229333-89.770667-24.874667-89.770667H613.12c-18.688 0-22.058667 3.157333-22.058667 23.253333V402.773333h149.376v61.269334H235.690667v-61.269334H363.52c-6.826667-87.637333-22.613333-158.933333-140.373333-200.106666 15.274667-12.117333 33.962667-35.370667 41.898666-51.2z"  horiz-adv-x="1024" />
      
      <glyph glyph-name="zhishiwangluo" unicode="&#59214;" d="M899.2-67.072c-25.6 0-49.216 13.632-61.952 35.712-12.8 22.016-12.736 49.152 0.064 71.168a71.616 71.616 0 0 0 133.504-35.776c-0.064-39.296-32.128-71.104-71.68-71.04m-387.712 294.144a155.648 155.648 0 0 0-155.968 155.136 155.648 155.648 0 0 0 155.968 155.2 155.776 155.776 0 0 0 155.904-155.2 155.776 155.776 0 0 0-155.904-155.136M447.104 773.12a71.04 71.04 0 0 0 35.712 61.824c22.144 12.8 49.472 12.8 71.68 0a71.04 71.04 0 0 0-35.904-132.736A71.36 71.36 0 0 0 447.104 773.12M123.52-74.496c-25.6 0-49.216 13.568-61.952 35.584-12.8 22.08-12.8 49.216 0 71.232a71.616 71.616 0 0 0 133.504-35.712c0-39.296-32-71.168-71.552-71.104m0 634.048c-25.6 0-49.216 13.568-61.952 35.584-12.8 22.08-12.8 49.216 0 71.232a71.616 71.616 0 0 0 133.504-35.648c0-39.36-32-71.168-71.552-71.168m775.616-43.904c37.888-2.112 67.584-33.28 67.584-71.104 0-37.76-29.696-68.992-67.584-71.104a71.36 71.36 0 0 0-67.584 71.104c0 37.76 29.632 68.992 67.584 71.104m0-388.608c-21.248 0-40.96-5.888-58.56-15.36L684.16 267.392c22.208 32.896 35.2 72.448 35.2 114.88 0 3.136-0.32 6.144-0.512 9.28l63.872 13.888a123.264 123.264 0 0 1 240 39.04c0 67.712-55.36 122.88-123.52 122.88a122.88 122.88 0 0 1-122.112-110.144l-66.816-14.656a208.128 208.128 0 0 1-175.36 145.216V652.032a122.752 122.752 0 0 1 107.2 121.152A123.328 123.328 0 0 1 518.528 896a123.264 123.264 0 0 1-123.392-122.88c0-55.232 37.12-101.568 87.616-116.928V586.88A207.936 207.936 0 0 1 346.752 508.16L235.648 579.712a120.32 120.32 0 0 1 11.392 50.88 123.328 123.328 0 0 1-123.52 122.816c-67.968 0-123.456-55.104-123.456-122.816s55.424-122.88 123.52-122.88c30.848 0 58.88 11.84 80.576 30.656l115.968-74.816a204.8 204.8 0 0 1 23.872-203.584l-158.592-157.76a122.688 122.688 0 0 1-61.888 17.152c-68.096 0-123.52-55.04-123.52-122.816 0-67.712 55.424-122.88 123.52-122.88a123.328 123.328 0 0 1 123.392 122.88c-0.064 25.472-8.128 50.24-23.04 70.848l155.968 154.816a207.808 207.808 0 0 1 270.08 6.144l151.232-150.592c-16.32-21.12-25.216-47.04-25.344-73.728 0-67.776 55.424-122.88 123.456-122.88 68.096 0 123.52 55.104 123.52 122.88a123.328 123.328 0 0 1-123.52 122.816"  horiz-adv-x="1024" />
      
      </font>
</defs>
</svg>
