<?xml version="1.0" encoding="UTF-8"?>
<svg width="54px" height="14px" viewBox="0 0 54 14" version="1.1" xmlns="http://www.w3.org/2000/svg" xmlns:xlink="http://www.w3.org/1999/xlink">
    <title>编组 3</title>
    <defs>
        <filter id="filter-1">
            <feColorMatrix in="SourceGraphic" type="matrix" values="0 0 0 0 0.654902 0 0 0 0 0.819608 0 0 0 0 0.917647 0 0 0 1.000000 0"></feColorMatrix>
        </filter>
        <filter id="filter-2">
            <feColorMatrix in="SourceGraphic" type="matrix" values="0 0 0 0 0.878431 0 0 0 0 0.823529 0 0 0 0 0.937255 0 0 0 1.000000 0"></feColorMatrix>
        </filter>
    </defs>
    <g id="控件" stroke="none" stroke-width="1" fill="none" fill-rule="evenodd">
        <g id="标注" transform="translate(0.000000, -58.000000)">
            <g id="1" transform="translate(0.000000, 55.000000)">
                <g id="编组-3" transform="translate(0.000000, 3.000000)">
                    <g id="编组">
                        <g filter="url(#filter-1)" id="24gf-table">
                            <g>
                                <path d="M5.08378623,8.80503145 L0.0113224694,8.80503145 L0.0113224694,5.13626835 L5.08378623,5.13626835 L5.08378623,8.80503145 Z M10.8808877,9.53878407 L10.8808877,13.9412998 L15.0475543,13.9412998 C15.5475795,13.9407312 15.9527899,13.5304238 15.9533514,13.024109 L15.9533514,9.53878407 L10.8808877,9.53878407 Z M10.8808877,8.80503145 L15.9533514,8.80503145 L15.9533514,5.13626835 L10.8808877,5.13626835 L10.8808877,8.80503145 Z M15.9533514,4.40251572 L15.9533514,0.91719077 C15.9527899,0.410876023 15.5475795,0.000568645045 15.0475543,4.88777432e-16 L0.917119565,4.88777432e-16 C0.417094442,0.000568645045 0.0118840506,0.410876023 0.0113224694,0.91719077 L0.0113224694,4.40251572 L15.9533514,4.40251572 Z M5.08378623,9.53878407 L0.0113224694,9.53878407 L0.0113224694,13.024109 C0.0118840412,13.5304238 0.417094435,13.9407312 0.917119565,13.9412998 L5.08378623,13.9412998 L5.08378623,9.53878407 Z M5.80842391,13.9412998 L10.15625,13.9412998 L10.15625,9.53878407 L5.80842391,9.53878407 L5.80842391,13.9412998 Z M5.80842391,8.80503145 L10.15625,8.80503145 L10.15625,5.13626835 L5.80842391,5.13626835 L5.80842391,8.80503145 Z" id="形状" fill="#5C5C66" fill-rule="nonzero"></path>
                            </g>
                        </g>
                        <text id="A" font-family="PingFangSC-Medium, PingFang SC" font-size="8" font-weight="400" fill="#000000" fill-opacity="0.65">
                            <tspan x="5" y="10">A</tspan>
                        </text>
                    </g>
                    <path d="M33.5040549,5.80681996 L35.5040549,7.30681996 L33.5040549,8.80681996 L33.504133,7.99998327 L18.5,8 C18.2238576,8 18,7.77614237 18,7.5 C18,7.22385763 18.2238576,7 18.5,7 L33.504,6.99981996 L33.5040549,5.80681996 Z" id="形状结合" fill-opacity="0.25" fill="#000000" fill-rule="nonzero"></path>
                    <g id="编组-2" transform="translate(38.000000, 0.000000)">
                        <g filter="url(#filter-2)" id="24gf-table">
                            <g>
                                <path d="M5.08378623,8.80503145 L0.0113224694,8.80503145 L0.0113224694,5.13626835 L5.08378623,5.13626835 L5.08378623,8.80503145 Z M10.8808877,9.53878407 L10.8808877,13.9412998 L15.0475543,13.9412998 C15.5475795,13.9407312 15.9527899,13.5304238 15.9533514,13.024109 L15.9533514,9.53878407 L10.8808877,9.53878407 Z M10.8808877,8.80503145 L15.9533514,8.80503145 L15.9533514,5.13626835 L10.8808877,5.13626835 L10.8808877,8.80503145 Z M15.9533514,4.40251572 L15.9533514,0.91719077 C15.9527899,0.410876023 15.5475795,0.000568645045 15.0475543,4.88777432e-16 L0.917119565,4.88777432e-16 C0.417094442,0.000568645045 0.0118840506,0.410876023 0.0113224694,0.91719077 L0.0113224694,4.40251572 L15.9533514,4.40251572 Z M5.08378623,9.53878407 L0.0113224694,9.53878407 L0.0113224694,13.024109 C0.0118840412,13.5304238 0.417094435,13.9407312 0.917119565,13.9412998 L5.08378623,13.9412998 L5.08378623,9.53878407 Z M5.80842391,13.9412998 L10.15625,13.9412998 L10.15625,9.53878407 L5.80842391,9.53878407 L5.80842391,13.9412998 Z M5.80842391,8.80503145 L10.15625,8.80503145 L10.15625,5.13626835 L5.80842391,5.13626835 L5.80842391,8.80503145 Z" id="形状" fill="#5C5C66" fill-rule="nonzero"></path>
                            </g>
                        </g>
                        <text id="B" font-family="PingFangSC-Medium, PingFang SC" font-size="8" font-weight="400" fill="#000000" fill-opacity="0.65">
                            <tspan x="5" y="10">B</tspan>
                        </text>
                    </g>
                </g>
            </g>
        </g>
    </g>
</svg>