<?xml version="1.0" encoding="UTF-8"?>
<svg width="102px" height="10px" viewBox="0 0 102 10" version="1.1" xmlns="http://www.w3.org/2000/svg" xmlns:xlink="http://www.w3.org/1999/xlink">
    <title>直线 </title>
    <g id="数据同步任务" stroke="none" stroke-width="1" fill="none" fill-rule="evenodd">
        <g id="首次同步画布" transform="translate(-909.000000, -438.000000)" fill="#BFBFBF" fill-rule="nonzero">
            <g id="表" transform="translate(594.000000, 292.000000)">
                <path id="直线-" d="M407.557565,146.5 L416.557565,151 L407.557565,155.5 L407.557,151.5 L403.5,151.5 L403.5,150.5 L407.557,150.5 L407.557565,146.5 Z M320.5,150.5 L320.5,151.5 L315.5,151.5 L315.5,150.5 L320.5,150.5 Z M328.5,150.5 L328.5,151.5 L323.5,151.5 L323.5,150.5 L328.5,150.5 Z M336.5,150.5 L336.5,151.5 L331.5,151.5 L331.5,150.5 L336.5,150.5 Z M344.5,150.5 L344.5,151.5 L339.5,151.5 L339.5,150.5 L344.5,150.5 Z M352.5,150.5 L352.5,151.5 L347.5,151.5 L347.5,150.5 L352.5,150.5 Z M360.5,150.5 L360.5,151.5 L355.5,151.5 L355.5,150.5 L360.5,150.5 Z M368.5,150.5 L368.5,151.5 L363.5,151.5 L363.5,150.5 L368.5,150.5 Z M376.5,150.5 L376.5,151.5 L371.5,151.5 L371.5,150.5 L376.5,150.5 Z M384.5,150.5 L384.5,151.5 L379.5,151.5 L379.5,150.5 L384.5,150.5 Z M392.5,150.5 L392.5,151.5 L387.5,151.5 L387.5,150.5 L392.5,150.5 Z M400.5,150.5 L400.5,151.5 L395.5,151.5 L395.5,150.5 L400.5,150.5 Z"></path>
            </g>
        </g>
    </g>
</svg>