<?xml version="1.0" encoding="UTF-8"?>
<svg width="144px" height="144px" viewBox="0 0 144 144" version="1.1" xmlns="http://www.w3.org/2000/svg" xmlns:xlink="http://www.w3.org/1999/xlink">
    <!-- Generator: Sketch 64 (93537) - https://sketch.com -->
    <title>公告备份 4</title>
    <desc>Created with Sketch.</desc>
    <defs>
        <linearGradient x1="50%" y1="3.85205925%" x2="50%" y2="121.56033%" id="linearGradient-1">
            <stop stop-color="#779EEA" stop-opacity="0.4" offset="0%"></stop>
            <stop stop-color="#FFFFFF" stop-opacity="0" offset="100%"></stop>
        </linearGradient>
    </defs>
    <g id="公告备份-4" stroke="none" stroke-width="1" fill="none" fill-rule="evenodd">
        <g id="Group-3">
            <rect id="Rectangle-3" x="0" y="0" width="144" height="144"></rect>
        </g>
        <g id="Group-13">
            <rect id="Rectangle-25" x="0" y="0" width="144" height="144"></rect>
            <g id="Group-14" transform="translate(0.000000, 17.000000)"></g>
            <g id="Group-6" transform="translate(0.000000, 97.000000)" fill="url(#linearGradient-1)">
                <g id="Group">
                    <path d="M72,3 C106.372614,3 135.319819,18.9978546 143.9999,38.9997707 L9.95177594e-05,38.9997707 C8.68018075,18.9978546 37.6273857,3 72,3 Z" id="Combined-Shape"></path>
                </g>
            </g>
        </g>
        <g id="编组" transform="translate(39.000000, 47.000000)">
            <rect id="Rectangle-22" fill="#FFFFFF" x="0" y="19" width="67" height="46" rx="6"></rect>
            <path d="M33,2 C23.1602463,2 15.1831358,9.45133222 15.0031084,18.681038 L15,19 L13,19 C13,8.49413733 21.9660339,0 33,0 C43.9165835,0 52.8089993,8.31437232 52.9969642,18.6653973 L53,19 L61,19 C64.3137085,19 67,21.6862915 67,25 L67,59 C67,62.3137085 64.3137085,65 61,65 L6,65 C2.6862915,65 0,62.3137085 0,59 L0,25 C0,21.6862915 2.6862915,19 6,19 L51,19 C51,9.62361167 42.9528543,2 33,2 Z M61,21 L6,21 C3.85780461,21 2.10892112,22.6839685 2.00489531,24.8003597 L2,25 L2,59 C2,61.1421954 3.68396847,62.8910789 5.80035966,62.9951047 L6,63 L61,63 C63.1421954,63 64.8910789,61.3160315 64.9951047,59.1996403 L65,59 L65,25 C65,22.8578046 63.3160315,21.1089211 61.1996403,21.0048953 L61,21 Z" id="形状结合" fill="#779EEA" fill-rule="nonzero"></path>
            <path d="M34,30 C37.8659932,30 41,33.1340068 41,37 C41,39.4565165 39.7346312,41.6174904 37.8201372,42.8666778 L40.2715879,51.4505577 C40.5750365,52.5126278 39.9600523,53.6195993 38.8979823,53.9230479 C38.7192994,53.9741002 38.5343731,54 38.34854,54 L29.65146,54 C28.5468905,54 27.65146,53.1045695 27.65146,52 C27.65146,51.8141669 27.6773598,51.6292407 27.7284121,51.4505577 L30.1798628,42.8666778 C28.2653688,41.6174904 27,39.4565165 27,37 C27,33.1340068 30.1340068,30 34,30 Z" id="Combined-Shape" fill="#F8FAFE"></path>
            <path d="M34,30 C37.8659932,30 41,33.1340068 41,37 C41,39.4565165 39.7346312,41.6174904 37.8201372,42.8666778 L40.2715879,51.4505577 C40.5750365,52.5126278 39.9600523,53.6195993 38.8979823,53.9230479 C38.7192994,53.9741002 38.5343731,54 38.34854,54 L29.65146,54 C28.5468905,54 27.65146,53.1045695 27.65146,52 C27.65146,51.8141669 27.6773598,51.6292407 27.7284121,51.4505577 L30.1798628,42.8666778 C28.2653688,41.6174904 27,39.4565165 27,37 C27,33.1340068 30.1340068,30 34,30 Z M34,32 C31.2385763,32 29,34.2385763 29,37 C29,38.6300504 29.7841761,40.1238169 31.0753288,41.0561176 L31.2727693,41.1916986 L32.5080013,41.9976746 L29.65146,52 L38.348532,52 L35.4919987,41.9976746 L36.7272307,41.1916986 C38.1354458,40.2728528 39,38.7115529 39,37 C39,34.2385763 36.7614237,32 34,32 Z" id="Combined-Shape" fill="#779EEA" fill-rule="nonzero"></path>
        </g>
    </g>
</svg>