<?xml version="1.0" encoding="UTF-8"?>
<svg width="156px" height="156px" viewBox="0 0 156 156" version="1.1" xmlns="http://www.w3.org/2000/svg" xmlns:xlink="http://www.w3.org/1999/xlink">
    <title>诊断失败图</title>
    <defs>
        <linearGradient x1="50%" y1="3.85205925%" x2="50%" y2="121.56033%" id="linearGradient-1">
            <stop stop-color="#779EEA" stop-opacity="0.4" offset="0%"></stop>
            <stop stop-color="#FFFFFF" stop-opacity="0" offset="100%"></stop>
        </linearGradient>
    </defs>
    <g id="设计稿4" stroke="none" stroke-width="1" fill="none" fill-rule="evenodd">
        <g id="选择诊断业务流程" transform="translate(-2154.000000, -2602.000000)">
            <g id="编组-37备份" transform="translate(1996.500000, 2602.000000)">
                <g id="诊断失败图" transform="translate(157.500000, 0.000000)">
                    <rect id="Rectangle-25" x="0" y="0" width="156" height="156"></rect>
                    <path d="M78.0000005,108.333333 C115.236999,108.333333 146.596471,125.664343 155.999892,147.333085 L0.000108333334,147.333085 C9.40352967,125.664343 40.7630017,108.333333 78.0000005,108.333333 Z" id="Combined-Shape" fill="url(#linearGradient-1)" fill-rule="nonzero"></path>
                    <g id="Group-2" transform="translate(42.250000, 40.083333)">
                        <path d="M52.9745414,0 L45.5,7.02572121 L59.3125,15.9971396 L59.3125,30.3333333 L70.1458333,11.9687715 L65.5801628,6.16675354 L71.5,0.298850576 L81.25,0.298850576 L81.25,72.5833333 C81.25,74.0791046 80.5045724,75.4332712 79.2993792,76.4134951 C78.0941859,77.3937189 76.4292269,78 74.5901639,78 L6.65983607,78 C4.82077312,78 3.15581411,77.3937189 1.95062082,76.4134951 C0.745427539,75.4332712 0,74.0791046 0,72.5833333 L0,5.41666667 C0,3.92089547 0.745427539,2.56672881 1.95062082,1.58650493 C3.15581411,0.606281065 4.82077312,0 6.65983607,0 L52.9745414,0 Z" id="Rectangle-4" stroke="#779EEA" stroke-width="2" fill="#FFFFFF" fill-rule="nonzero"></path>
                        <g id="编组-3" transform="translate(26.379625, 34.666667)" fill="#779EEA">
                            <path d="M14.625,20.6666667 C21.0885079,20.6666667 26.4583333,23.888562 26.4583333,28.1666667 L24.4583333,28.1666667 C24.4583333,25.2650696 20.1276617,22.6666667 14.625,22.6666667 C9.12233827,22.6666667 4.79166667,25.2650696 4.79166667,28.1666667 L2.79166667,28.1666667 C2.79166667,23.888562 8.16149214,20.6666667 14.625,20.6666667 Z" id="Oval-11" fill-rule="nonzero"></path>
                            <rect id="矩形" x="0" y="0" width="3.79166667" height="9.14261794"></rect>
                            <rect id="矩形备份-4" x="24.6990827" y="0" width="3.79166667" height="9.14261794"></rect>
                        </g>
                    </g>
                    <g id="点缀" transform="translate(17.333335, 10.937543)">
                        <path d="M21.7708761,2.25162939 C22.2327488,2.25162939 22.6071705,2.62605118 22.6071705,3.08792388 L22.6063785,6.85037939 L26.3704958,6.8512491 C26.8323685,6.8512491 27.2067902,7.22567089 27.2067902,7.68754359 C27.2067902,8.14941628 26.8323685,8.52383808 26.3704958,8.52383808 L22.6063785,8.52304605 L22.6071705,12.2871633 C22.6071705,12.749036 22.2327488,13.1234578 21.7708761,13.1234578 C21.3090034,13.1234578 20.9345815,12.749036 20.9345815,12.2871633 L20.9337118,8.52304605 L17.1712564,8.52383808 C16.7093836,8.52383808 16.3349618,8.14941628 16.3349618,7.68754359 C16.3349618,7.22567089 16.7093836,6.8512491 17.1712564,6.8512491 L20.9337118,6.85037939 L20.9345815,3.08792388 C20.9345815,2.62605118 21.3090034,2.25162939 21.7708761,2.25162939 Z" id="Combined-Shape" fill="#779EEA" fill-rule="nonzero" transform="translate(21.770876, 7.687544) rotate(45.000000) translate(-21.770876, -7.687544) "></path>
                        <path d="M110.155479,42.8653539 C110.455961,42.8653539 110.699551,43.1089435 110.699551,43.4094265 L110.698481,46.6732706 L113.963987,46.6738621 C114.26447,46.6738621 114.508059,46.9174518 114.508059,47.2179347 C114.508059,47.5184177 114.26447,47.7620074 113.963987,47.7620074 L110.698481,47.7609373 L110.699551,51.026443 C110.699551,51.326926 110.455961,51.5705156 110.155479,51.5705156 C109.854996,51.5705156 109.611406,51.326926 109.611406,51.026443 L109.610815,47.7609373 L106.34697,47.7620074 C106.046487,47.7620074 105.802898,47.5184177 105.802898,47.2179347 C105.802898,46.9174518 106.046487,46.6738621 106.34697,46.6738621 L109.610815,46.6732706 L109.611406,43.4094265 C109.611406,43.1089435 109.854996,42.8653539 110.155479,42.8653539 Z" id="Combined-Shape-Copy" fill="#779EEA" fill-rule="nonzero" opacity="0.3" transform="translate(110.155478, 47.217935) rotate(45.000000) translate(-110.155478, -47.217935) "></path>
                        <path d="M46.2388117,13.5496396 C46.5200472,13.5496396 46.7480336,13.777626 46.7480336,14.0588614 L46.7475368,17.1138063 L49.8033648,17.1141927 C50.0846003,17.1141927 50.3125867,17.3421791 50.3125867,17.6234145 C50.3125867,17.90465 50.0846003,18.1326364 49.8033648,18.1326364 L46.7475368,18.1321396 L46.7480336,21.1879676 C46.7480336,21.4692031 46.5200472,21.6971895 46.2388117,21.6971895 C45.9575762,21.6971895 45.7295899,21.4692031 45.7295899,21.1879676 L45.7292034,18.1321396 L42.6742586,18.1326364 C42.3930232,18.1326364 42.1650368,17.90465 42.1650368,17.6234145 C42.1650368,17.3421791 42.3930232,17.1141927 42.6742586,17.1141927 L45.7292034,17.1138063 L45.7295899,14.0588614 C45.7295899,13.777626 45.9575762,13.5496396 46.2388117,13.5496396 Z" id="Combined-Shape-Copy-2" fill="#779EEA" fill-rule="nonzero" opacity="0.3" transform="translate(46.238812, 17.623415) rotate(45.000000) translate(-46.238812, -17.623415) "></path>
                        <circle id="Oval-7-Copy-3" stroke="#779EEA" cx="72.5833325" cy="15.0624567" r="2.16666667"></circle>
                        <circle id="Oval-7-Copy-4" stroke="#779EEA" cx="9.20833251" cy="80.6041234" r="1.625"></circle>
                        <circle id="Oval-7-Copy-5" stroke="#779EEA" cx="117.541666" cy="79.52079" r="1.625"></circle>
                        <path d="M120.551355,21.9839678 C121.059536,21.9839678 121.4715,22.3959313 121.4715,22.9041139 L121.470894,26.5838011 L125.152085,26.5846985 C125.660268,26.5846985 126.072231,26.996662 126.072231,27.5048447 C126.072231,28.0130274 125.660268,28.4249909 125.152085,28.4249909 L121.470894,28.4243844 L121.4715,32.1055755 C121.4715,32.6137581 121.059536,33.0257216 120.551355,33.0257216 C120.043172,33.0257216 119.631208,32.6137581 119.631208,32.1055755 L119.630311,28.4243844 L115.950623,28.4249909 C115.44244,28.4249909 115.030478,28.0130274 115.030478,27.5048447 C115.030478,26.996662 115.44244,26.5846985 115.950623,26.5846985 L119.630311,26.5838011 L119.631208,22.9041139 C119.631208,22.3959313 120.043172,21.9839678 120.551355,21.9839678 Z" id="Combined-Shape-Copy-3" fill="#779EEA" fill-rule="nonzero" transform="translate(120.551355, 27.504845) rotate(45.000000) translate(-120.551355, -27.504845) "></path>
                        <path d="M90.4968279,18.3509516 C90.7959822,18.3509516 91.0384946,18.593464 91.0384946,18.8926182 L91.0384946,20.5176182 L92.6634946,20.5176182 C92.9626489,20.5176182 93.2051613,20.7601306 93.2051613,21.0592849 C93.2051613,21.3584392 92.9626489,21.6009516 92.6634946,21.6009516 L91.0384946,21.6009516 L91.0384946,23.2259516 C91.0384946,23.5251058 90.7959822,23.7676182 90.4968279,23.7676182 C90.1976737,23.7676182 89.9551613,23.5251058 89.9551613,23.2259516 L89.9551613,21.5998682 L88.3301613,21.6009516 C88.031007,21.6009516 87.7884946,21.3584392 87.7884946,21.0592849 C87.7884946,20.7601306 88.031007,20.5176182 88.3301613,20.5176182 L89.9551613,20.5165349 L89.9551613,18.8926182 C89.9551613,18.593464 90.1976737,18.3509516 90.4968279,18.3509516 Z" id="Combined-Shape-Copy-5" fill="#779EEA" fill-rule="nonzero" transform="translate(90.496828, 21.059285) rotate(45.000000) translate(-90.496828, -21.059285) "></path>
                        <path d="M4.59619408,28.3253173 C4.89534831,28.3253173 5.13786074,28.5678297 5.13786074,28.8669839 L5.13786074,31.0336506 L7.30452741,31.0336506 C7.60368165,31.0336506 7.84619408,31.276163 7.84619408,31.5753173 C7.84619408,31.8744715 7.60368165,32.1169839 7.30452741,32.1169839 L5.13786074,32.1169839 L5.13786074,34.2836506 C5.13786074,34.5828049 4.89534831,34.8253173 4.59619408,34.8253173 C4.29703983,34.8253173 4.05452741,34.5828049 4.05452741,34.2836506 L4.05452741,32.1159006 L1.88786074,32.1169839 C1.5887065,32.1169839 1.34619408,31.8744715 1.34619408,31.5753173 C1.34619408,31.276163 1.5887065,31.0336506 1.88786074,31.0336506 L4.05452741,31.0325673 L4.05452741,28.8669839 C4.05452741,28.5678297 4.29703983,28.3253173 4.59619408,28.3253173 Z" id="Combined-Shape-Copy-7" fill="#779EEA" fill-rule="nonzero" transform="translate(4.596194, 31.575317) rotate(45.000000) translate(-4.596194, -31.575317) "></path>
                    </g>
                    <g id="编组-5" transform="translate(61.400809, 58.849191) rotate(45.000000) translate(-61.400809, -58.849191) translate(47.859142, 45.307525)" fill="#779EEA" fill-rule="nonzero">
                        <path d="M13.5416667,0 C15.9349006,0 17.875,1.94009942 17.875,4.33333333 L17.875,22.75 C17.875,25.1432339 15.9349006,27.0833333 13.5416667,27.0833333 C11.1484328,27.0833333 9.20833333,25.1432339 9.20833333,22.75 L9.20833333,4.33333333 C9.20833333,1.94009942 11.1484328,0 13.5416667,0 Z M13.5416667,2 C12.2530023,2 11.2083333,3.04466892 11.2083333,4.33333333 L11.2083333,22.75 C11.2083333,24.0386644 12.2530023,25.0833333 13.5416667,25.0833333 C14.8303311,25.0833333 15.875,24.0386644 15.875,22.75 L15.875,4.33333333 C15.875,3.04466892 14.8303311,2 13.5416667,2 Z" id="矩形"></path>
                        <path d="M13.5416667,3.63797881e-12 C15.9349006,3.63797881e-12 17.875,1.94009942 17.875,4.33333333 L17.875,22.75 C17.875,25.1432339 15.9349006,27.0833333 13.5416667,27.0833333 C11.1484328,27.0833333 9.20833333,25.1432339 9.20833333,22.75 L9.20833333,4.33333333 C9.20833333,1.94009942 11.1484328,3.63797881e-12 13.5416667,3.63797881e-12 Z M13.5416667,2 C12.2530023,2 11.2083333,3.04466892 11.2083333,4.33333333 L11.2083333,22.75 C11.2083333,24.0386644 12.2530023,25.0833333 13.5416667,25.0833333 C14.8303311,25.0833333 15.875,24.0386644 15.875,22.75 L15.875,4.33333333 C15.875,3.04466892 14.8303311,2 13.5416667,2 Z" id="矩形备份-5" transform="translate(13.541667, 13.541667) rotate(90.000000) translate(-13.541667, -13.541667) "></path>
                    </g>
                    <g id="编组-20" transform="translate(19.583335, 70.500000)" fill-rule="nonzero">
                        <path d="M37.092823,2.11979167 C38.9193264,2.11979167 40.4,3.33010284 40.4,4.82309734 L40.4,33.916486 C40.4,35.4094805 38.9193264,36.6197917 37.092823,36.6197917 L5.30717703,36.6197917 C3.48067359,36.6197917 2,35.4094805 2,33.916486 L2,4.82309734 C2,3.33010284 3.48067359,2.11979167 5.30717703,2.11979167 L37.092823,2.11979167 Z" id="路径" fill="#FFFFFF"></path>
                        <path d="M35.5598958,-1.7265625 L6.7265625,-1.7265625 C3.96513875,-1.7265625 1.7265625,0.512013751 1.7265625,3.2734375 L1.7265625,35.5598958 C1.7265625,38.3213196 3.96513875,40.5598958 6.7265625,40.5598958 L35.5598958,40.5598958 C38.3213196,40.5598958 40.5598958,38.3213196 40.5598958,35.5598958 L40.5598958,3.2734375 C40.5598958,0.512013751 38.3213196,-1.7265625 35.5598958,-1.7265625 Z M35.5598958,0.2734375 C37.2167501,0.2734375 38.5598958,1.61658325 38.5598958,3.2734375 L38.5598958,35.5598958 C38.5598958,37.2167501 37.2167501,38.5598958 35.5598958,38.5598958 L6.7265625,38.5598958 C5.06970825,38.5598958 3.7265625,37.2167501 3.7265625,35.5598958 L3.7265625,3.2734375 C3.7265625,1.61658325 5.06970825,0.2734375 6.7265625,0.2734375 L35.5598958,0.2734375 Z" id="矩形" fill="#E8EDF6" transform="translate(21.143229, 19.416667) rotate(-90.000000) translate(-21.143229, -19.416667) "></path>
                        <g id="个人诊断" transform="translate(7.360496, 6.693826)" fill="#B0C6F3">
                            <path d="M23.2571997,18.5427801 L23.2587908,19.6336349 C24.5356853,20.0168524 25.4054952,21.1554167 25.4102686,22.4450155 C25.4102686,24.0733295 24.0300242,25.391569 22.3285423,25.391569 C20.6270853,25.391569 19.2500232,24.0717384 19.2500232,22.4450155 C19.2500232,21.1426875 20.1325622,20.0407196 21.3537915,19.6511126 L21.3537915,18.5427801 C21.3537915,17.3247331 20.3201931,16.3324796 19.0448897,16.3324796 L18.7729778,16.3324796 C17.4992655,16.3324796 16.464076,17.3247082 16.464076,18.5427801 L16.464076,21.4050525 C16.452938,23.6392202 14.5670324,25.4440519 12.2501749,25.4361224 L11.9798541,25.4361224 C9.65822319,25.4361224 7.76754415,23.626491 7.76754415,21.4050525 L7.76754415,16.0446563 L7.68803658,16.0446563 C7.24691362,16.0437787 6.88977773,15.685931 6.88977861,15.2448071 C2.0016543,14.9347326 1.0380166,11.4491287 0.314492758,7.32428207 L0.1491379,6.37971326 C-0.184803832,4.54467461 0.0378074145,2.50930075 0.859932577,1.54088961 C1.41966785,0.876213303 2.24333443,0.464380011 3.13064685,0.402350185 L4.59994572,0.402350185 C4.85589906,0.143266899 5.20576692,-0.00126791171 5.569948,0.0016300513 C6.30460986,1.92507647e-05 6.90409892,0.572478481 6.90725635,1.28011573 C6.90197515,1.79763963 6.58670093,2.2614713 6.10743209,2.4568178 C5.62233962,2.66120183 5.0630561,2.56973998 4.66834013,2.22147738 L3.19267668,2.22147738 C2.85039196,2.2689946 2.53863515,2.44389946 2.31968457,2.71125196 C1.88236808,3.24871119 1.79652079,4.81024679 2.02390548,6.06645643 L2.19246749,7.02054725 C3.00663692,11.6796957 3.85735299,13.1267434 6.88977861,13.4193154 C6.88977861,13.0027086 7.22846891,12.6640183 7.64507564,12.6640183 L9.72025301,12.6640183 C10.1273129,12.6640183 10.4564812,12.9931617 10.4564812,13.4002465 C13.3617146,12.9963192 14.3110319,11.5922324 15.1108562,7.02213839 L15.2794182,6.06804757 C15.5099852,4.79274419 15.3032854,3.22168657 14.8484912,2.68897592 C14.6311309,2.43413016 14.3278904,2.26780473 13.9961591,2.22147738 L12.5173134,2.22147738 C12.1232565,2.56964148 11.5647602,2.66169388 11.0798125,2.45840894 C10.6005437,2.26306245 10.2852695,1.79923077 10.2799883,1.28170687 C10.2799883,0.941400559 10.423092,0.613823411 10.6727527,0.375300706 C10.9271575,0.132667055 11.2657439,-0.00185134543 11.6172966,1.92507647e-05 C11.9830116,1.92507647e-05 12.3328647,0.146324876 12.5841166,0.402350185 L14.0518243,0.402350185 C14.9323778,0.459448851 15.7524604,0.870063995 16.3257209,1.54088961 C17.1478461,2.51089189 17.4865364,4.54467461 17.1526195,6.37971326 L16.9872398,7.32269092 C16.2732628,11.4029855 15.2062752,14.8122889 10.4580723,15.2336691 L10.4580723,15.2575363 C10.4580723,15.6922506 10.1056667,16.0446563 9.67095235,16.0446563 L9.67095235,21.4034614 C9.67095235,22.6231244 10.7061419,23.6137867 11.9798541,23.6137867 L12.251766,23.6137867 C13.5254783,23.6137867 14.5606678,22.6231244 14.5606678,21.4034614 L14.5606678,18.5412138 C14.5718058,16.3086373 16.4577114,14.5054216 18.7745689,14.5117861 L19.0448897,14.5117861 C21.3681118,14.5117861 23.2571997,16.3213665 23.2571997,18.5428049 L23.2571997,18.5427801 Z M22.3301335,24.036758 C23.2083498,24.036758 23.9202848,23.324823 23.9202848,22.4466067 C23.9202848,21.5683903 23.2083498,20.8564553 22.3301335,20.8564553 C21.4519171,20.8564553 20.7399821,21.5683903 20.7399821,22.4466067 C20.7399821,23.324823 21.4519171,24.036758 22.3301335,24.036758 Z" id="形状"></path>
                        </g>
                    </g>
                </g>
            </g>
        </g>
    </g>
</svg>