<?xml version="1.0" encoding="UTF-8"?>
<svg width="144px" height="144px" viewBox="0 0 144 144" version="1.1" xmlns="http://www.w3.org/2000/svg" xmlns:xlink="http://www.w3.org/1999/xlink">
    <title>认知引擎_配置</title>
    <defs>
        <linearGradient x1="50%" y1="3.85205925%" x2="50%" y2="121.56033%" id="linearGradient-1">
            <stop stop-color="#779EEA" stop-opacity="0.4" offset="0%"></stop>
            <stop stop-color="#FFFFFF" stop-opacity="0" offset="100%"></stop>
        </linearGradient>
    </defs>
    <g id="横版" stroke="none" stroke-width="1" fill="none" fill-rule="evenodd">
        <g id="画布为空缺醒" transform="translate(-569.000000, -172.000000)">
            <g id="认知引擎_配置" transform="translate(569.000000, 172.000000)">
                <g id="Group-3">
                    <rect id="Rectangle-3" x="0" y="0" width="144" height="144"></rect>
                </g>
                <g id="编组-4" transform="translate(0.000000, 24.000000)">
                    <path d="M72,76 C106.372614,76 135.319819,91.9978546 143.9999,111.999771 L9.9517759e-05,111.999771 C8.68018075,91.9978546 37.6273857,76 72,76 Z" id="Combined-Shape" fill="url(#linearGradient-1)" fill-rule="nonzero"></path>
                    <g id="编组-10" transform="translate(18.000000, 0.000000)">
                        <g id="undraw_complete_task_re_44tb-2" transform="translate(0.000000, 32.000000)">
                            <rect id="矩形" stroke="#779EEA" stroke-width="1.5" fill="#FFFFFF" fill-rule="nonzero" x="0.75" y="0.75" width="114.5" height="26.5" rx="4"></rect>
                            <g id="编组-6" transform="translate(24.000000, 8.000000)" fill="#779EEA" fill-opacity="0.85">
                                <rect id="矩形" x="0" y="0" width="12" height="12" rx="2"></rect>
                            </g>
                            <g id="编组-6" transform="translate(80.000000, 8.000000)" fill="#779EEA" fill-opacity="0.85">
                                <rect id="矩形" x="0" y="0" width="12" height="12" rx="2"></rect>
                            </g>
                            <g id="编组-6" transform="translate(51.000000, 7.000000)" fill="#779EEA">
                                <rect id="矩形" x="0" y="0" width="14" height="14"></rect>
                            </g>
                        </g>
                        <g id="undraw_complete_task_re_44tb-2" transform="translate(10.000000, 68.000000)">
                            <rect id="矩形" stroke="#E8EDF6" stroke-width="1.5" fill="#FFFFFF" fill-rule="nonzero" x="0.75" y="0.75" width="94.5" height="22.5" rx="4"></rect>
                            <g id="编组-6" opacity="0.593800136" transform="translate(10.000000, 7.000000)" fill="#779EEA">
                                <rect id="矩形" fill-opacity="0.85" x="0" y="0" width="10" height="10" rx="2"></rect>
                                <path d="M15.7491126,2 C15.3362617,1.99912981 15.0008741,2.33420742 15,2.74842018 C14.9991327,3.16263294 15.3331086,3.49912691 15.7459595,3.5 L50.2511321,3.5 C50.518518,3.50047987 50.7657974,3.35763588 50.8996284,3.12538863 C51.0334595,2.89314138 51.0334595,2.60686251 50.8996284,2.37461526 C50.7657974,2.14236801 50.518518,1.99952403 50.2511321,2 L15.7491126,2 Z" id="路径" fill-rule="nonzero"></path>
                                <path d="M15.499409,6.5 C15.2241751,6.49912981 15.0005833,6.83420742 15.0000006,7.24842014 C14.9994224,7.66263294 15.222073,7.99912694 15.4973069,8 L38.5007553,8 C38.6790125,8.00047984 38.8438655,7.85763584 38.9330862,7.62538864 C39.0223069,7.39314134 39.0223069,7.10686254 38.9330862,6.87461526 C38.8438655,6.64236801 38.6790125,6.49952403 38.5007553,6.5 L15.499409,6.5 Z" id="路径" fill-rule="nonzero"></path>
                            </g>
                        </g>
                        <g id="undraw_complete_task_re_44tb-2" transform="translate(10.000000, 0.000000)">
                            <rect id="矩形" stroke="#E8EDF6" stroke-width="1.5" fill="#FFFFFF" fill-rule="nonzero" x="0.75" y="0.75" width="94.5" height="22.5" rx="4"></rect>
                            <g id="编组-6" opacity="0.593800136" transform="translate(10.000000, 7.000000)" fill="#779EEA">
                                <rect id="矩形" fill-opacity="0.85" x="0" y="0" width="10" height="10" rx="2"></rect>
                                <path d="M15.7491126,2 C15.3362617,1.99912981 15.0008741,2.33420742 15,2.74842018 C14.9991327,3.16263294 15.3331086,3.49912691 15.7459595,3.5 L50.2511321,3.5 C50.518518,3.50047987 50.7657974,3.35763588 50.8996284,3.12538863 C51.0334595,2.89314138 51.0334595,2.60686251 50.8996284,2.37461526 C50.7657974,2.14236801 50.518518,1.99952403 50.2511321,2 L15.7491126,2 Z" id="路径" fill-rule="nonzero"></path>
                                <path d="M15.499409,6.5 C15.2241751,6.49912981 15.0005833,6.83420742 15.0000006,7.24842014 C14.9994224,7.66263294 15.222073,7.99912694 15.4973069,8 L38.5007553,8 C38.6790125,8.00047984 38.8438655,7.85763584 38.9330862,7.62538864 C39.0223069,7.39314134 39.0223069,7.10686254 38.9330862,6.87461526 C38.8438655,6.64236801 38.6790125,6.49952403 38.5007553,6.5 L15.499409,6.5 Z" id="路径" fill-rule="nonzero"></path>
                            </g>
                        </g>
                    </g>
                </g>
                <g id="手" transform="translate(103.000000, 87.000000)" stroke="#779EEA">
                    <path d="M18.038603,8 C18.038603,3.581722 14.6807386,0 10.538603,0 C6.3964674,0 3.038603,3.581722 3.038603,8" id="Oval-15" stroke-width="2"></path>
                    <g id="Group" transform="translate(0.000000, 6.000000)" fill="#F8FAFE" fill-rule="nonzero">
                        <path d="M10.7430059,0 C11.6304129,0 12.4338091,0.35969274 13.0153536,0.94123722 C13.596898,1.52278169 13.9565908,2.32617791 13.9565908,3.21354795 L13.9565908,3.21354795 L13.9563154,10.672037 C14.3278292,10.5871041 14.6992519,10.5240238 15.0692401,10.4819905 C15.444176,10.4393951 15.8253958,10.4175322 16.2117253,10.4175322 L16.2117253,10.4175322 L20.9876849,10.4175322 C23.4869368,10.4175322 25.7495848,11.4305542 27.3874198,13.0683891 C29.0252548,14.7062241 30.0382768,16.9688721 30.0382768,19.468124 C30.0382768,19.8415962 30.0151598,20.2147104 29.9690585,20.5853264 L29.9690585,20.5853264 L29.7639289,22.234397 C29.4525203,24.737862 28.2330195,26.9292627 26.4606812,28.4947972 C24.6883428,30.0603317 22.3631669,31 19.8404082,31 L19.8404082,31 L16.2117253,31 C14.1038275,31 12.1481309,30.3480514 10.5357181,29.2342659 C8.80717336,28.0402616 7.47256349,26.3163117 6.76763137,24.2968272 L6.76763137,24.2968272 L1.14800715,19.5812975 C0.468213981,19.0108833 0.0839828108,18.2189295 0.0123034808,17.399631 C-0.0593758492,16.5803325 0.181496661,15.7336893 0.751910861,15.0538961 C1.32232506,14.3741029 2.11427881,13.9898718 2.93357731,13.9181924 C3.75287581,13.8465131 4.59951906,14.0873856 5.28004311,14.6584125 L5.28004311,14.6584125 L7.52889165,16.5417685 L7.52942101,3.21358487 C7.52942101,2.32617791 7.88911375,1.52278169 8.47065826,0.94123722 C9.05220266,0.35969274 9.85559896,0 10.7430059,0 Z" id="Combined-Shape" stroke-width="2"></path>
                        <path d="M9.03860346,29 L28.0386035,29 C29.6954577,29 31.0386035,30.3431458 31.0386035,32 C31.0386035,33.6568542 29.6954577,35 28.0386035,35 L9.03860346,35 C7.38174921,35 6.03860346,33.6568542 6.03860346,32 C6.03860346,30.3431458 7.38174921,29 9.03860346,29 Z" id="Rectangle-19" stroke-width="2.21"></path>
                    </g>
                </g>
            </g>
        </g>
    </g>
</svg>