<?xml version="1.0" encoding="UTF-8"?>
<svg width="144px" height="144px" viewBox="0 0 144 144" version="1.1" xmlns="http://www.w3.org/2000/svg" xmlns:xlink="http://www.w3.org/1999/xlink">
    <title>Group 6</title>
    <defs>
        <rect id="path-1" x="0" y="0" width="144" height="144"></rect>
        <linearGradient x1="50%" y1="3.85205925%" x2="50%" y2="121.56033%" id="linearGradient-3">
            <stop stop-color="#779EEA" stop-opacity="0.4" offset="0%"></stop>
            <stop stop-color="#FFFFFF" stop-opacity="0" offset="100%"></stop>
        </linearGradient>
    </defs>
    <g id="工作流" stroke="none" stroke-width="1" fill="none" fill-rule="evenodd">
        <g id="工作流_空" transform="translate(-1358.000000, -173.000000)">
            <g id="编组-7" transform="translate(1258.000000, 173.000000)">
                <g id="Group-6" transform="translate(100.000000, 0.000000)">
                    <mask id="mask-2" fill="white">
                        <use xlink:href="#path-1"></use>
                    </mask>
                    <g id="为空可新增" fill-rule="nonzero"></g>
                    <path d="M72,96.0232488 C106.372614,96.0232488 135.319819,112.010772 143.9999,131.999771 L9.95177594e-05,131.999771 C8.68018075,112.010772 37.6273857,96.0232488 72,96.0232488 Z" id="Combined-Shape" fill="url(#linearGradient-3)" mask="url(#mask-2)"></path>
                    <g id="Group" mask="url(#mask-2)">
                        <g transform="translate(37.000000, 56.049081)">
                            <path d="M0.461367861,20.0208456 L15.5879295,1.80565818 C16.537859,0.661766753 17.9476159,-3.27957569e-15 19.4345099,0 L51.4404888,0 C52.9164357,6.17051378e-16 54.3169756,0.652098999 55.2669999,1.78164442 L70.5306044,19.9295311 C70.8337726,20.2899873 71,20.7458749 71,21.2168734 L71,38.5005867 L71,38.5005867 L0,38.9748138 L0,21.2985823 C-4.88297666e-15,20.8318856 0.163210094,20.3798829 0.461367861,20.0208456 Z" id="Path-2" stroke="none" fill="#FFFFFF" fill-rule="evenodd"></path>
                            <path d="M0.49785511,20.0100533 L16.5940192,1.69890101 C17.5433052,0.618984051 18.9115481,-2.40040957e-15 20.3493814,0 L51.4404888,0 C52.9164357,5.74324435e-16 54.3169756,0.652098999 55.2669999,1.78164442 L70.5306044,19.9295311 C70.8337726,20.2899873 71,20.7458749 71,21.2168734 L71,38.5005867 L71,38.5005867 L0,38.9748138 L0,21.3304929 C-1.86071462e-15,20.8444753 0.176976693,20.3750877 0.49785511,20.0100533 Z" id="Path-2" stroke="#779EEA" stroke-width="2" fill="none"></path>
                            <path d="M0,20.987084 L0,46.9657726 C-1.06576994e-15,50.2794811 2.6862915,52.9657726 6,52.9657726 L65,52.9657726 C68.3137085,52.9657726 71,50.2794811 71,46.9657726 L71,20.987084 C71,20.4347992 70.5522847,19.987084 70,19.987084 L55.2035967,19.987084 C53.5467425,19.987084 52.2035967,21.3302297 52.2035967,22.987084 L52.2035967,27.335462 C52.2035967,28.4400315 51.3081662,29.335462 50.2035967,29.335462 L23.103271,29.335462 C21.9987015,29.335462 21.103271,28.4400315 21.103271,27.335462 L21.103271,22.987084 C21.103271,21.3302297 19.7601252,19.987084 18.103271,19.987084 L1,19.987084 C0.44771525,19.987084 -6.76353751e-17,20.4347992 0,20.987084 Z" id="Path" stroke="none" fill="#F8FAFE" fill-rule="evenodd"></path>
                            <path d="M0,20.987084 L0,46.9657726 C-1.06576994e-15,50.2794811 2.6862915,52.9657726 6,52.9657726 L65,52.9657726 C68.3137085,52.9657726 71,50.2794811 71,46.9657726 L71,20.987084 C71,20.4347992 70.5522847,19.987084 70,19.987084 L56.2035967,19.987084 C53.9944577,19.987084 52.2035967,21.777945 52.2035967,23.987084 L52.2035967,25.335462 C52.2035967,27.544601 50.4127357,29.335462 48.2035967,29.335462 L25.103271,29.335462 C22.894132,29.335462 21.103271,27.544601 21.103271,25.335462 L21.103271,23.987084 C21.103271,21.777945 19.31241,19.987084 17.103271,19.987084 L1,19.987084 C0.44771525,19.987084 -6.76353751e-17,20.4347992 0,20.987084 Z" id="Path" stroke="#779EEA" stroke-width="2" fill="none"></path>
                        </g>
                    </g>
                    <g id="系统导入" mask="url(#mask-2)" fill-rule="nonzero">
                        <g transform="translate(54.500000, 46.000000)">
                            <path d="M18.671442,27.1917033 C20.4838999,25.222999 22.3315133,23.2308577 24.1439713,21.2621534 C25.9603354,19.2621997 27.8040427,17.2114661 29.6243129,15.3326034 L29.6243129,15.3013541 C29.8157147,15.1333893 29.9250872,14.8912074 29.9250872,14.6334008 L29.9250872,14.4537175 C29.9250872,13.9107613 29.4094741,13.4224914 28.7415209,13.4224914 L23.6596075,13.4224914 C23.6596075,13.1803095 23.6283582,12.9693769 23.6010151,12.7311012 L23.2025868,11.0123911 C22.9877481,10.3834994 22.7338477,9.76632621 22.4526043,9.16477766 C22.0502698,8.31323492 21.5541876,7.51247223 20.9682637,6.77420812 C20.3706213,6.03594398 19.6870434,5.36408457 18.940967,4.77425449 C15.9488489,2.33290488 11.7731645,0.90715668 7.6287293,0.391543672 C6.47250613,0.274358906 5.31628293,0.176704922 4.15615359,0.090769375 C4.03506266,0.090769375 3.87881629,0.06342625 3.87881629,0.06342625 C3.72256992,0.0243646484 3.55851121,0.000927695312 3.39445254,0.000927695312 L2.60931449,0.000927695312 C1.91401812,0.000927695312 1.21872172,-0.0264153906 0.613267031,0.215766484 C-0.355460508,0.579039297 -0.109372461,1.87588422 0.886698203,2.05556758 C0.914041328,2.05556758 0.945290586,2.05556758 0.945290586,2.08681684 L1.21481559,2.18056465 C1.39840508,2.23915703 1.5780884,2.33681102 1.78902102,2.42274652 C2.18354312,2.60242984 2.60540832,2.78601934 2.99993043,2.96960887 C3.78897465,3.32897555 4.5428634,3.72740379 5.26940902,4.14926898 C6.02720395,4.57113422 6.5115677,4.87190848 7.23811336,5.3914277 C7.90216047,5.87579145 8.53886445,6.38749836 9.14041301,6.90311137 C9.28884707,7.05154543 9.41384418,7.17263637 9.5622782,7.2937273 C9.62477676,7.35231969 9.65602602,7.41481824 9.71461844,7.47341066 C9.71461844,7.47341066 9.86695867,7.5945016 9.86695863,7.62575086 C10.1364836,7.89527586 10.3825717,8.19995629 10.5895981,8.50073059 C10.83178,8.77416176 11.0114634,9.07493602 11.1950529,9.37571027 C11.4372347,9.73898309 11.5270764,9.9499157 11.6794166,10.25069 C11.8005075,10.4928719 11.8590999,10.7350537 11.9489416,11.0084849 C11.9489416,11.0084849 12.007534,11.3405085 12.1012818,12.039711 L12.1012818,12.7350074 L12.1950296,12.7350074 C12.1950296,12.9146907 12.1950296,13.0943741 12.1637804,13.2740574 L12.1637804,13.4537407 L8.23027785,13.3678052 L8.08574996,13.3678052 L6.2068873,13.1568726 C5.42174926,13.094374 4.78504527,13.4576468 4.72645289,13.9459168 L4.69910977,14.1256001 C4.67567281,14.367782 4.77723297,14.6060577 4.96863477,14.7583979 L4.96863477,14.7857411 C5.54674637,15.3599465 6.45297535,16.1177414 7.12092859,16.7505392 C7.48420141,17.0825628 7.7849757,17.3872432 7.90997277,17.5942696 L7.90997277,17.6216128 C7.9373159,17.6606744 7.96856516,17.6880175 7.9685652,17.6880175 C10.8395923,20.8637251 13.6832764,24.0355265 16.5269604,27.183891 C17.1324152,27.8557504 18.0659872,27.8284073 18.671442,27.1917033 L18.671442,27.1917033 Z" id="形状" fill="#779EEA"></path>
                            <path d="M8.96463582,15.4263512 C10.3864779,15.4576005 11.7770706,15.4849436 13.1950064,15.4849436 C13.7106195,15.5161929 14.2848249,15.1841693 14.3785728,14.7583979 C14.5738807,13.9693537 14.6637224,13.1529664 14.6520039,12.3404853 C14.6168485,11.4772241 14.433259,10.6295875 14.1090478,9.82882477 C13.4723438,8.25464254 12.3512761,6.86795594 11.0544311,5.62579727 C9.75368,4.41488785 8.21074703,3.38756793 6.63656484,2.45008965 C6.54672316,2.39149727 6.45688152,2.36024797 6.3592275,2.29774945 C6.45297531,2.29774945 6.54281699,2.29774945 6.63265867,2.32899871 C7.48420141,2.38759109 8.69120469,2.60242988 9.72243074,2.84461176 C10.2067945,2.93054727 10.6911583,3.05554437 11.1755221,3.20397844 C11.3864547,3.26647699 11.6286366,3.32506937 11.8395691,3.41491102 C11.9606601,3.44225414 12.081751,3.47740957 12.1715927,3.50865887 C12.2301851,3.53600199 12.2926836,3.53600199 12.351276,3.56725125 C12.3825253,3.56725125 12.4098684,3.59850051 12.4450239,3.59850051 C13.3512529,3.93052406 14.2262325,4.32114 15.0426198,4.74691141 C15.8941626,5.20393207 16.4371187,5.59454801 17.2222568,6.2000027 C17.5542804,6.47343387 17.8863039,6.77420812 18.1909843,7.04373312 C18.2495767,7.13748094 18.3394184,7.19607336 18.401917,7.285915 C18.4292601,7.285915 18.4292601,7.31716426 18.4292601,7.31716426 C18.4566032,7.31716426 18.4566032,7.34450738 18.4878525,7.37575668 C18.6675358,7.55544 18.819876,7.73512336 18.9722162,7.94996211 C19.2143981,8.28198566 19.45658,8.61400922 19.6675126,8.94603273 C19.9409437,9.43039648 20.0620347,9.64523527 20.2729673,10.0944436 C20.6362401,10.938174 20.9682637,11.7897168 21.1518532,12.6686027 L21.1518532,12.727195 C21.1518532,12.7857874 21.1791963,12.8756291 21.1791963,12.9381277 C21.1791963,13.117811 21.2065394,13.3014005 21.2065394,13.4810838 L21.3002872,14.4498113 C21.394035,14.9927675 21.8159003,15.4497881 22.5463521,15.4497882 L26.3861068,15.4497882 C24.9330155,17.0317827 23.5424227,18.5747157 22.1205807,20.1176486 C20.6049909,21.7465171 19.1245564,23.3831979 17.6167789,25.0159725 C14.7379394,21.8090157 11.835663,18.6333081 8.96463582,15.4263512 Z" id="路径" fill="#FFFFFF"></path>
                        </g>
                    </g>
                </g>
            </g>
        </g>
    </g>
</svg>