<svg xmlns="http://www.w3.org/2000/svg" xmlns:xlink="http://www.w3.org/1999/xlink" viewBox="0 0 256.02 41.8"><defs><style>.cls-1{fill:url(#未命名的渐变_14);}.cls-2{fill:#3e75ff;}.cls-3{fill:#1b1464;}</style><linearGradient id="未命名的渐变_14" x1="3.89" y1="34.66" x2="15.07" y2="12.76" gradientUnits="userSpaceOnUse"><stop offset="0" stop-color="#fa0"/><stop offset="0.41" stop-color="#ffa700"/><stop offset="0.75" stop-color="#ff9c00"/><stop offset="0.9" stop-color="#ff9500"/></linearGradient></defs><g id="图层_2" data-name="图层 2"><g id="图层_1-2" data-name="图层 1"><path class="cls-1" d="M15.44,1.68h-.86L0,36.35A.46.46,0,0,0,.46,37H8.55A.46.46,0,0,0,9,36.7l10.41-25a.42.42,0,0,0,0-.33L19.28,11Z"/><path class="cls-2" d="M23.4.67A.93.93,0,0,0,22.54.1h-7.3a.92.92,0,0,0-.85,1.28l14.45,35a1,1,0,0,0,.58.53l0,0h7.84a1,1,0,0,0,.94-1.43Z"/><path class="cls-2" d="M71.73,0H38.56a1.92,1.92,0,0,0-1.93,1.93L34.91,8.78H65a4.34,4.34,0,0,0,3.64-2.7Z"/><path class="cls-2" d="M64.24,13.53H36.78a1.87,1.87,0,0,0-1.87,1.87V22H57.7a3.67,3.67,0,0,0,3.51-2.61Z"/><path class="cls-2" d="M34.91,15,29.54,36.89l7.53,0a1.36,1.36,0,0,0,1.31-1L43.6,15Z"/><path class="cls-3" d="M88.75,4.41H83c-.07.16-9.68,24.2-11.58,28.94h5.79s7.38-18.45,8.69-21.71c.65,1.64,2.78,7,4.77,11.94a15.69,15.69,0,0,0-9.46,0,16.35,16.35,0,0,1,5.93,2.44,22.47,22.47,0,0,1,7.21,6.71l.23.58h5.79C98.31,28.32,89,5.07,88.75,4.41Z"/><path class="cls-3" d="M120.46,33.88h-5.17v-10a15.43,15.43,0,0,0-.33-4.09,2.94,2.94,0,0,0-1.07-1.45,3.12,3.12,0,0,0-1.8-.51,4.15,4.15,0,0,0-2.41.73,3.69,3.69,0,0,0-1.46,1.95,17.12,17.12,0,0,0-.39,4.49v8.85h-5.17V14.35h4.8v2.86a7.83,7.83,0,0,1,6.43-3.31,7.74,7.74,0,0,1,3.13.62,5.13,5.13,0,0,1,2.14,1.57,5.64,5.64,0,0,1,1,2.17,16.24,16.24,0,0,1,.28,3.48Z"/><path class="cls-3" d="M123.26,14.35h5.5l4.67,13.86L138,14.35h5.35l-6.9,18.79-1.23,3.4a13.49,13.49,0,0,1-1.3,2.62,5.78,5.78,0,0,1-1.41,1.46,6.28,6.28,0,0,1-2,.87,10.18,10.18,0,0,1-2.64.31,13.53,13.53,0,0,1-2.92-.31l-.46-4.05a11.41,11.41,0,0,0,2.19.24,3.23,3.23,0,0,0,2.66-1,7.42,7.42,0,0,0,1.33-2.7Z"/><path class="cls-3" d="M146.72,33.88v-27h18.49v4.56h-13v6.38h11.25v4.56H152.17V33.88Z"/><path class="cls-3" d="M173.52,20.3l-4.69-.84a7.32,7.32,0,0,1,2.72-4.2,10,10,0,0,1,5.74-1.36,12.48,12.48,0,0,1,5.15.82,5.15,5.15,0,0,1,2.38,2.08,10.66,10.66,0,0,1,.69,4.63l0,6a21.69,21.69,0,0,0,.24,3.8,11.52,11.52,0,0,0,.93,2.62h-5.11c-.14-.35-.3-.86-.5-1.53a6,6,0,0,0-.18-.61A9.14,9.14,0,0,1,178,33.67a8.13,8.13,0,0,1-3.22.65A6.68,6.68,0,0,1,170,32.68a5.46,5.46,0,0,1-1.73-4.14,5.55,5.55,0,0,1,.79-2.95,5.13,5.13,0,0,1,2.21-2,17.12,17.12,0,0,1,4.11-1.21,27.85,27.85,0,0,0,5-1.27v-.51a2.69,2.69,0,0,0-.73-2.13,4.44,4.44,0,0,0-2.78-.63,3.69,3.69,0,0,0-2.15.54A3.82,3.82,0,0,0,173.52,20.3Zm6.91,4.2c-.66.22-1.71.48-3.14.79a9,9,0,0,0-2.81.9,2.15,2.15,0,0,0-1,1.82,2.55,2.55,0,0,0,.81,1.88,2.86,2.86,0,0,0,2.06.79,4.5,4.5,0,0,0,2.67-.92,3.21,3.21,0,0,0,1.23-1.71,10,10,0,0,0,.2-2.52Z"/><path class="cls-3" d="M190.38,33.88v-27h5.17v9.71a7.31,7.31,0,0,1,5.67-2.73,7.62,7.62,0,0,1,5.9,2.59q2.34,2.58,2.34,7.42,0,5-2.39,7.7a7.39,7.39,0,0,1-5.78,2.71,7.13,7.13,0,0,1-3.3-.84A7.93,7.93,0,0,1,195.18,31v2.87Zm5.14-10.19a8.31,8.31,0,0,0,.95,4.49A4.11,4.11,0,0,0,200,30.24,3.64,3.64,0,0,0,203,28.77a7.13,7.13,0,0,0,1.21-4.6c0-2.24-.4-3.84-1.21-4.83a3.84,3.84,0,0,0-3.11-1.48,3.89,3.89,0,0,0-3.09,1.44A6.65,6.65,0,0,0,195.52,23.69Z"/><path class="cls-3" d="M218.56,33.88h-5.17V14.35h4.8v2.77a8.32,8.32,0,0,1,2.22-2.59,4,4,0,0,1,2.23-.63,6.55,6.55,0,0,1,3.4,1l-1.6,4.5a4.53,4.53,0,0,0-2.42-.84,2.85,2.85,0,0,0-1.84.6A4.09,4.09,0,0,0,219,21.3a30.54,30.54,0,0,0-.43,6.54Z"/><path class="cls-3" d="M228.27,11.7V6.92h5.17V11.7Zm0,22.18V14.35h5.17V33.88Z"/><path class="cls-3" d="M255.77,20.12l-5.1.92a3.69,3.69,0,0,0-1.17-2.3,3.53,3.53,0,0,0-2.36-.77,3.86,3.86,0,0,0-3.08,1.33c-.77.89-1.15,2.38-1.15,4.46q0,3.48,1.17,4.91a3.82,3.82,0,0,0,3.13,1.44,3.47,3.47,0,0,0,2.41-.84A5,5,0,0,0,251,26.39l5.07.87a8.94,8.94,0,0,1-3,5.27,9.4,9.4,0,0,1-6,1.79,8.93,8.93,0,0,1-6.83-2.71c-1.7-1.8-2.54-4.29-2.54-7.48s.85-5.74,2.55-7.53a9.07,9.07,0,0,1,6.92-2.7,9.46,9.46,0,0,1,5.67,1.54A8.54,8.54,0,0,1,255.77,20.12Z"/></g></g></svg>