<?xml version="1.0" encoding="UTF-8"?>
<svg width="144px" height="144px" viewBox="0 0 144 144" version="1.1" xmlns="http://www.w3.org/2000/svg" xmlns:xlink="http://www.w3.org/1999/xlink">
    <!-- Generator: Sketch 64 (93537) - https://sketch.com -->
    <title>svg@2x</title>
    <desc>Created with Sketch.</desc>
    <defs>
        <linearGradient x1="50%" y1="3.85205925%" x2="50%" y2="121.56033%" id="linearGradient-1">
            <stop stop-color="#779EEA" stop-opacity="0.4" offset="0%"></stop>
            <stop stop-color="#FFFFFF" stop-opacity="0" offset="100%"></stop>
        </linearGradient>
    </defs>
    <g id="svg" stroke="none" stroke-width="1" fill="none" fill-rule="evenodd">
        <g id="Group-4">
            <rect id="Rectangle-25" x="0" y="0" width="144" height="144"></rect>
            <path d="M72,100 C106.372614,100 135.319819,115.997855 143.9999,135.999771 L9.95177594e-05,135.999771 C8.68018075,115.997855 37.6273857,100 72,100 Z" id="Combined-Shape" fill="url(#linearGradient-1)"></path>
            <g id="Group-12" transform="translate(36.000000, 50.000000)">
                <g id="Group-14-Copy">
                    <polygon id="Clip-2" points="1.63636364 4.86237374 35.9673154 4.86237374 35.9673154 18.565875 1.63636364 18.565875"></polygon>
                    <path d="M39.3425662,0 C41.2366196,0 42.9680771,1.07022783 43.8149419,2.7644115 L60.1161273,35.3755226 C61.3508088,37.8455475 60.349365,40.8488053 57.8793402,42.0834868 C57.1851878,42.4304699 56.419796,42.6111111 55.6437517,42.6111111 L5,42.6111111 C2.23857625,42.6111111 0,40.3725349 0,37.6111111 L0,5 C0,2.23857625 2.23857625,0 5,0 L39.3425662,0 Z M39.3425662,2 L5,2 C3.40231912,2 2.09633912,3.24891996 2.00509269,4.82372721 L2,5 L2,37.6111111 C2,39.208792 3.24891996,40.514772 4.82372721,40.6060184 L5,40.6111111 L55.6437517,40.6111111 C56.1093783,40.6111111 56.5686133,40.5027264 56.9851048,40.2945365 C58.4122302,39.581165 59.0222686,37.8837954 58.4039912,36.4356728 L58.3271771,36.269758 L42.0259916,3.6586469 C41.5477621,2.70193142 40.5993822,2.0768409 39.5420122,2.00661128 L39.3425662,2 Z" id="Rectangle-3-Copy-7" fill="#779EEA" fill-rule="nonzero"></path>
                    <polygon id="Clip-5" points="22.4056237 10.6243295 56.958202 10.6243295 56.958202 50.2601124 22.4056237 50.2601124"></polygon>
                    <path d="M15,7 L59,7 C61.209139,7 63,8.790861 63,11 L63,30.8611111 C63,33.0702501 61.209139,34.8611111 59,34.8611111 L15,34.8611111 C12.790861,34.8611111 11,33.0702501 11,30.8611111 L11,11 C11,8.790861 12.790861,7 15,7 Z" id="Rectangle-3-Copy-8" fill="#F8FAFE"></path>
                    <path d="M59,8 L15,8 C14.1715729,8 13.4215729,8.33578644 12.8786797,8.87867966 C12.3357864,9.42157288 12,10.1715729 12,11 L12,30.8611111 C12,31.6895382 12.3357864,32.4395382 12.8786797,32.9824315 C13.4215729,33.5253247 14.1715729,33.8611111 15,33.8611111 L59,33.8611111 C59.8284271,33.8611111 60.5784271,33.5253247 61.1213203,32.9824315 C61.6642136,32.4395382 62,31.6895382 62,30.8611111 L62,11 C62,10.1715729 61.6642136,9.42157288 61.1213203,8.87867966 C60.5784271,8.33578644 59.8284271,8 59,8 Z" id="Rectangle-3-Copy-8" stroke="#779EEA" stroke-width="2"></path>
                    <polygon id="Clip-8" points="1.63641057 15.0353649 56.9205357 15.0353649 56.9205357 52.6165265 1.63641057 52.6165265"></polygon>
                    <path d="M0,15 L68,15 C71.3137085,15 74,17.6862915 74,21 L74,53.25 C74,56.5637085 71.3137085,59.25 68,59.25 L6,59.25 C2.6862915,59.25 4.05812251e-16,56.5637085 0,53.25 L0,15 L0,15 Z" id="Rectangle-3" fill="#FFFFFF"></path>
                    <path d="M68,15 C71.3137085,15 74,17.6862915 74,21 L74,53.25 C74,56.5637085 71.3137085,59.25 68,59.25 L6,59.25 C2.6862915,59.25 0,56.5637085 0,53.25 L0,15 L68,15 Z M2,53.25 C2,55.3921954 3.68396847,57.1410789 5.80035966,57.2451047 L6,57.25 L68,57.25 C70.1421954,57.25 71.8910789,55.5660315 71.9951047,53.4496403 L72,53.25 L72,21 C72,18.8578046 70.3160315,17.1089211 68.1996403,17.0048953 L68,17 L2,17 L2,53.25 Z" id="Rectangle-3" fill="#779EEA" fill-rule="nonzero"></path>
                </g>
            </g>
        </g>
        <path d="M99,87 C99,82.581722 95.6421356,79 91.5,79 C87.3578644,79 84,82.581722 84,87" id="Oval-15" stroke="#779EEA" stroke-width="2"></path>
        <g id="Group" transform="translate(79.000000, 84.000000)">
            <path d="M12.7044024,0 C15.0315011,-4.2748109e-16 16.9179873,1.8864862 16.9179873,4.21358487 L16.9177556,10.488382 C17.3297363,10.441578 17.7486209,10.4175322 18.1731218,10.4175322 L22.9490814,10.4175322 C28.49987,10.4175322 32.9996733,14.9173354 32.9996733,20.468124 C32.9996733,20.8828612 32.9740021,21.2972008 32.9228071,21.7087661 L32.7176775,23.3578367 C32.0325786,28.8654596 27.351874,33 21.8018047,33 L18.1731218,33 C13.4677606,33 9.45243613,30.0456018 7.88096011,25.8906173 L2.46661608,21.3473419 C0.683955082,19.8515117 0.451432766,17.1937695 1.94726296,15.4111085 C3.44309314,13.6284475 6.10083538,13.3959252 7.88349638,14.8917554 L8.49037326,15.4 L8.49081755,4.21358487 C8.49081755,1.8864862 10.3773038,4.2748109e-16 12.7044024,0 Z" id="Combined-Shape" fill="#F8FAFE"></path>
            <path d="M12.7044024,0 C15.0315011,0 16.9179873,1.8864862 16.9179873,4.21358487 L16.9177556,10.488382 C17.3297363,10.441578 17.7486209,10.4175322 18.1731218,10.4175322 L22.9490814,10.4175322 C28.49987,10.4175322 32.9996733,14.9173354 32.9996733,20.468124 C32.9996733,20.8828612 32.9740021,21.2972008 32.9228071,21.7087661 L32.7176775,23.3578367 C32.0325786,28.8654596 27.351874,33 21.8018047,33 L18.1731218,33 C13.4677606,33 9.45243613,30.0456018 7.88096011,25.8906173 L2.46661608,21.3473419 C0.683955082,19.8515117 0.451432766,17.1937695 1.94726296,15.4111085 C3.44309314,13.6284475 6.10083538,13.3959252 7.88349638,14.8917554 L8.49037326,15.4 L8.49081755,4.21358487 C8.49081755,1.8864862 10.3773038,0 12.7044024,0 Z M12.7044024,2 C11.5350267,2 10.5774339,2.9067504 10.4963755,4.05556919 L10.4908175,4.2136643 L10.4902031,19.683537 L6.59792116,16.4238442 C5.66140948,15.6380176 4.26517844,15.760172 3.47935184,16.6966837 C2.73094556,17.5885996 2.80610479,18.8974945 3.62396841,19.6989674 L3.75220813,19.8152671 L9.56679894,24.694397 L9.75163398,25.183101 C11.0310864,28.5659748 14.2289634,30.8790026 17.8836699,30.9953953 L18.1731218,31 L21.8018047,31 C26.2537319,31 30.0219813,27.7485527 30.6962493,23.3747173 L30.7329733,23.1109573 L30.9381029,21.4618867 C30.9791105,21.1322201 30.9996733,20.8003313 30.9996733,20.468124 C30.9996733,16.1042423 27.5275597,12.5513162 23.1952099,12.4212228 L22.9490814,12.4175322 L18.1731218,12.4175322 C17.9422229,12.4175322 17.7125801,12.4261858 17.4844785,12.4433908 L17.1435176,12.475599 L14.9176729,12.7284708 L14.9179873,4.21358487 C14.9179873,2.9910557 13.9269316,2 12.7044024,2 Z" id="Combined-Shape" fill="#779EEA" fill-rule="nonzero"></path>
            <path d="M11,30 L30,30 C31.6568542,30 33,31.3431458 33,33 C33,34.6568542 31.6568542,36 30,36 L11,36 C9.34314575,36 8,34.6568542 8,33 C8,31.3431458 9.34314575,30 11,30 Z" id="Rectangle-19" fill="#F8FAFE"></path>
            <path d="M30,28.895 L11,28.895 C8.7328711,28.895 6.895,30.7328711 6.895,33 C6.895,35.2671289 8.7328711,37.105 11,37.105 L30,37.105 C32.2671289,37.105 34.105,35.2671289 34.105,33 C34.105,30.7328711 32.2671289,28.895 30,28.895 Z M11,31.105 L30,31.105 C31.0465796,31.105 31.895,31.9534204 31.895,33 C31.895,34.0465796 31.0465796,34.895 30,34.895 L11,34.895 C9.9534204,34.895 9.105,34.0465796 9.105,33 C9.105,31.9534204 9.9534204,31.105 11,31.105 Z" id="Rectangle-19" fill="#779EEA" fill-rule="nonzero"></path>
        </g>
    </g>
</svg>