<?xml version="1.0" encoding="UTF-8"?>
<svg width="144px" height="144px" viewBox="0 0 144 144" version="1.1" xmlns="http://www.w3.org/2000/svg" xmlns:xlink="http://www.w3.org/1999/xlink">
    <title>编组</title>
    <defs>
        <linearGradient x1="50%" y1="3.85205925%" x2="50%" y2="121.56033%" id="linearGradient-1">
            <stop stop-color="#779EEA" stop-opacity="0.4" offset="0%"></stop>
            <stop stop-color="#FFFFFF" stop-opacity="0" offset="100%"></stop>
        </linearGradient>
    </defs>
    <g id="页面-1" stroke="none" stroke-width="1" fill="none" fill-rule="evenodd">
        <g id="超市-指标预览-无权限" transform="translate(-589.000000, -384.000000)">
            <g id="编组" transform="translate(589.000000, 384.000000)">
                <rect id="Rectangle-3" x="0" y="0" width="144" height="144"></rect>
                <rect id="Rectangle-25" x="0" y="0" width="144" height="144"></rect>
                <path d="M72,100 C106.372614,100 135.319819,115.997855 143.9999,135.999771 L9.95177594e-05,135.999771 C8.68018075,115.997855 37.6273857,100 72,100 Z" id="Combined-Shape" fill="url(#linearGradient-1)"></path>
                <path d="M36.1724138,33.2758621 L78.2931817,33.2758621 L78.2931817,33.2758621 L92.9137931,44.7578139 L92.9137931,100.448276 C92.9137931,102.10513 91.5706474,103.448276 89.9137931,103.448276 L36.1724138,103.448276 C34.5155595,103.448276 33.1724138,102.10513 33.1724138,100.448276 L33.1724138,36.2758621 C33.1724138,34.6190078 34.5155595,33.2758621 36.1724138,33.2758621 Z" id="Rectangle" fill="#FFFFFF"></path>
                <path d="M77.7823789,33 L93,44.7295866 L93,100 C93,101.380712 92.4403559,102.630712 91.5355339,103.535534 C90.6307119,104.440356 89.3807119,105 88,105 L88,105 L37,105 C35.6192881,105 34.3692881,104.440356 33.4644661,103.535534 C32.5596441,102.630712 32,101.380712 32,100 L32,100 L32,38 C32,36.6192881 32.5596441,35.3692881 33.4644661,34.4644661 C34.3692881,33.5596441 35.6192881,33 37,33 L37,33 L77.7823789,33 Z" id="Rectangle-4" stroke="#779EEA" stroke-width="2" fill="#FFFFFF"></path>
                <polyline id="Path-4" stroke="#779EEA" stroke-width="2" points="77 33 77 45 92.2026367 45"></polyline>
                <path d="M35.5,4 C36.0522847,4 36.5,4.44771525 36.5,5 L36.5,9.5 L41,9.5 C41.5522847,9.5 42,9.94771525 42,10.5 C42,11.0522847 41.5522847,11.5 41,11.5 L36.5,11.5 L36.5,16 C36.5,16.5522847 36.0522847,17 35.5,17 C34.9477153,17 34.5,16.5522847 34.5,16 L34.5,11.499 L30,11.5 C29.4477153,11.5 29,11.0522847 29,10.5 C29,9.94771525 29.4477153,9.5 30,9.5 L34.5,9.499 L34.5,5 C34.5,4.44771525 34.9477153,4 35.5,4 Z" id="Combined-Shape" fill="#8DA5E6" transform="translate(35.500000, 10.500000) rotate(-315.000000) translate(-35.500000, -10.500000) "></path>
                <path d="M111.681981,38.6642136 C111.959349,38.6642136 112.184201,38.8890655 112.184201,39.1664344 L112.183214,42.1792136 L115.197527,42.1797596 C115.474896,42.1797596 115.699747,42.4046116 115.699747,42.6819805 C115.699747,42.9593494 115.474896,43.1842014 115.197527,43.1842014 L112.183214,43.1832136 L112.184201,46.1975266 C112.184201,46.4748955 111.959349,46.6997475 111.681981,46.6997475 C111.404612,46.6997475 111.17976,46.4748955 111.17976,46.1975266 L111.179214,43.1832136 L108.166434,43.1842014 C107.889066,43.1842014 107.664214,42.9593494 107.664214,42.6819805 C107.664214,42.4046116 107.889066,42.1797596 108.166434,42.1797596 L111.179214,42.1792136 L111.17976,39.1664344 C111.17976,38.8890655 111.404612,38.6642136 111.681981,38.6642136 Z" id="Combined-Shape-Copy" fill="#8DA5E6" opacity="0.3" transform="translate(111.681981, 42.681981) rotate(-315.000000) translate(-111.681981, -42.681981) "></path>
                <path d="M24.6819805,61.6642136 C24.9593494,61.6642136 25.1842014,61.8890655 25.1842014,62.1664344 L25.1832136,65.1792136 L28.1975266,65.1797596 C28.4748955,65.1797596 28.6997475,65.4046116 28.6997475,65.6819805 C28.6997475,65.9593494 28.4748955,66.1842014 28.1975266,66.1842014 L25.1832136,66.1832136 L25.1842014,69.1975266 C25.1842014,69.4748955 24.9593494,69.6997475 24.6819805,69.6997475 C24.4046116,69.6997475 24.1797596,69.4748955 24.1797596,69.1975266 L24.1792136,66.1832136 L21.1664344,66.1842014 C20.8890655,66.1842014 20.6642136,65.9593494 20.6642136,65.6819805 C20.6642136,65.4046116 20.8890655,65.1797596 21.1664344,65.1797596 L24.1792136,65.1792136 L24.1797596,62.1664344 C24.1797596,61.8890655 24.4046116,61.6642136 24.6819805,61.6642136 Z" id="Combined-Shape-Copy-4" fill="#8DA5E6" opacity="0.3" transform="translate(24.681981, 65.681981) rotate(-315.000000) translate(-24.681981, -65.681981) "></path>
                <path d="M49.5,20 C49.8106602,20 50.0625,20.2518398 50.0625,20.5625 L50.062,23.937 L53.4375,23.9375 C53.7481602,23.9375 54,24.1893398 54,24.5 C54,24.8106602 53.7481602,25.0625 53.4375,25.0625 L50.062,25.062 L50.0625,28.4375 C50.0625,28.7481602 49.8106602,29 49.5,29 C49.1893398,29 48.9375,28.7481602 48.9375,28.4375 L48.937,25.062 L45.5625,25.0625 C45.2518398,25.0625 45,24.8106602 45,24.5 C45,24.1893398 45.2518398,23.9375 45.5625,23.9375 L48.937,23.937 L48.9375,20.5625 C48.9375,20.2518398 49.1893398,20 49.5,20 Z" id="Combined-Shape-Copy-2" fill="#8DA5E6" opacity="0.3" transform="translate(49.500000, 24.500000) rotate(-315.000000) translate(-49.500000, -24.500000) "></path>
                <circle id="Oval-7-Copy-3" stroke="#8DA5E6" cx="69" cy="18" r="2"></circle>
                <circle id="Oval-7-Copy-4" stroke="#8DA5E6" cx="18.5" cy="84.5" r="1.5"></circle>
                <circle id="Oval-7-Copy-5" stroke="#8DA5E6" cx="133.5" cy="80.5" r="1.5"></circle>
                <path d="M133,30 C133.552285,30 134,30.4477153 134,31 L134,35 L138,35 C138.552285,35 139,35.4477153 139,36 C139,36.5522847 138.552285,37 138,37 L134,37 L134,41 C134,41.5522847 133.552285,42 133,42 C132.447715,42 132,41.5522847 132,41 L132,36.999 L128,37 C127.447715,37 127,36.5522847 127,36 C127,35.4477153 127.447715,35 128,35 L132,34.999 L132,31 C132,30.4477153 132.447715,30 133,30 Z" id="Combined-Shape-Copy-3" fill="#8DA5E6" transform="translate(133.000000, 36.000000) rotate(-315.000000) translate(-133.000000, -36.000000) "></path>
                <path d="M131.242641,61.2426407 C131.518783,61.2426407 131.742641,61.4664983 131.742641,61.7426407 L131.742641,63.7426407 L133.742641,63.7426407 C134.018783,63.7426407 134.242641,63.9664983 134.242641,64.2426407 C134.242641,64.5187831 134.018783,64.7426407 133.742641,64.7426407 L131.742641,64.7426407 L131.742641,66.7426407 C131.742641,67.0187831 131.518783,67.2426407 131.242641,67.2426407 C130.966498,67.2426407 130.742641,67.0187831 130.742641,66.7426407 L130.742641,64.7416407 L128.742641,64.7426407 C128.466498,64.7426407 128.242641,64.5187831 128.242641,64.2426407 C128.242641,63.9664983 128.466498,63.7426407 128.742641,63.7426407 L130.742641,63.7416407 L130.742641,61.7426407 C130.742641,61.4664983 130.966498,61.2426407 131.242641,61.2426407 Z" id="Combined-Shape-Copy-8" fill="#8DA5E6" opacity="0.3" transform="translate(131.242641, 64.242641) rotate(-315.000000) translate(-131.242641, -64.242641) "></path>
                <path d="M35.7810889,82.2810889 L36.7810889,84.0131397 C36.9191601,84.252286 36.8372225,84.5580812 36.5980762,84.6961524 C36.3589299,84.8342236 36.0531347,84.752286 35.9150635,84.5131397 L34.9150635,82.7810889 L33.1830127,83.7810889 C32.9438664,83.9191601 32.6380712,83.8372225 32.5,83.5980762 C32.3619288,83.3589299 32.4438664,83.0531347 32.6830127,82.9150635 L34.4150635,81.9150635 L33.4150635,80.1830127 C33.2769923,79.9438664 33.3589299,79.6380712 33.5980762,79.5 C33.8372225,79.3619288 34.1430177,79.4438664 34.2810889,79.6830127 L35.2810889,81.4150635 L37.0131397,80.4150635 C37.252286,80.2769923 37.5580812,80.3589299 37.6961524,80.5980762 C37.8342236,80.8372225 37.752286,81.1430177 37.5131397,81.2810889 L35.7810889,82.2810889 Z" id="Combined-Shape-Copy-9" fill="#8DA5E6" transform="translate(35.098076, 82.098076) rotate(-15.000000) translate(-35.098076, -82.098076) "></path>
                <path d="M95.5355339,22.0355339 C95.8116763,22.0355339 96.0355339,22.2593915 96.0355339,22.5355339 L96.0355339,24.0355339 L97.5355339,24.0355339 C97.8116763,24.0355339 98.0355339,24.2593915 98.0355339,24.5355339 C98.0355339,24.8116763 97.8116763,25.0355339 97.5355339,25.0355339 L96.0355339,25.0355339 L96.0355339,26.5355339 C96.0355339,26.8116763 95.8116763,27.0355339 95.5355339,27.0355339 C95.2593915,27.0355339 95.0355339,26.8116763 95.0355339,26.5355339 L95.0355339,25.0345339 L93.5355339,25.0355339 C93.2593915,25.0355339 93.0355339,24.8116763 93.0355339,24.5355339 C93.0355339,24.2593915 93.2593915,24.0355339 93.5355339,24.0355339 L95.0355339,24.0345339 L95.0355339,22.5355339 C95.0355339,22.2593915 95.2593915,22.0355339 95.5355339,22.0355339 Z" id="Combined-Shape-Copy-5" fill="#8DA5E6" transform="translate(95.535534, 24.535534) rotate(-315.000000) translate(-95.535534, -24.535534) "></path>
                <path d="M13.5,48 C13.7761424,48 14,48.2238576 14,48.5 L14,50.5 L16,50.5 C16.2761424,50.5 16.5,50.7238576 16.5,51 C16.5,51.2761424 16.2761424,51.5 16,51.5 L14,51.5 L14,53.5 C14,53.7761424 13.7761424,54 13.5,54 C13.2238576,54 13,53.7761424 13,53.5 L13,51.499 L11,51.5 C10.7238576,51.5 10.5,51.2761424 10.5,51 C10.5,50.7238576 10.7238576,50.5 11,50.5 L13,50.499 L13,48.5 C13,48.2238576 13.2238576,48 13.5,48 Z" id="Combined-Shape-Copy-7" fill="#8DA5E6" transform="translate(13.500000, 51.000000) rotate(-315.000000) translate(-13.500000, -51.000000) "></path>
                <path d="M111.949747,89.4497475 C112.22589,89.4497475 112.449747,89.6736051 112.449747,89.9497475 L112.449747,92.4497475 L114.949747,92.4497475 C115.22589,92.4497475 115.449747,92.6736051 115.449747,92.9497475 C115.449747,93.2258898 115.22589,93.4497475 114.949747,93.4497475 L112.449747,93.4497475 L112.449747,95.9497475 C112.449747,96.2258898 112.22589,96.4497475 111.949747,96.4497475 C111.673605,96.4497475 111.449747,96.2258898 111.449747,95.9497475 L111.449747,93.4487475 L108.949747,93.4497475 C108.673605,93.4497475 108.449747,93.2258898 108.449747,92.9497475 C108.449747,92.6736051 108.673605,92.4497475 108.949747,92.4497475 L111.449747,92.4487475 L111.449747,89.9497475 C111.449747,89.6736051 111.673605,89.4497475 111.949747,89.4497475 Z" id="Combined-Shape-Copy-6" fill="#8DA5E6" transform="translate(111.949747, 92.949747) rotate(-315.000000) translate(-111.949747, -92.949747) "></path>
                <path d="M100.274049,27.7225875 C100.590917,27.7225875 100.847789,27.97946 100.847789,28.2963283 L100.847733,30.8775875 L103.429623,30.8781621 C103.746491,30.8781621 104.003364,31.1350346 104.003364,31.451903 C104.003364,31.7687713 103.746491,32.0256438 103.429623,32.0256438 L100.847733,32.0255875 L100.847789,34.6074776 C100.847789,34.9243459 100.590917,35.1812184 100.274049,35.1812184 C99.9571802,35.1812184 99.7003077,34.9243459 99.7003077,34.6074776 L99.699733,32.0255875 L97.1184739,32.0256438 C96.8016056,32.0256438 96.544733,31.7687713 96.544733,31.451903 C96.544733,31.1350346 96.8016056,30.8781621 97.1184739,30.8781621 L99.699733,30.8775875 L99.7003077,28.2963283 C99.7003077,27.97946 99.9571802,27.7225875 100.274049,27.7225875 Z" id="Combined-Shape" fill="#779EEA" transform="translate(100.274049, 31.451903) rotate(-315.000000) translate(-100.274049, -31.451903) "></path>
                <path d="M108.451903,48.3039322 C108.719376,48.3039322 108.936206,48.5207621 108.936206,48.7882354 L108.935932,50.9669322 L111.115571,50.9675998 C111.383044,50.9675998 111.599874,51.1844297 111.599874,51.451903 C111.599874,51.7193762 111.383044,51.9362062 111.115571,51.9362062 L108.935932,51.9359322 L108.936206,54.1155705 C108.936206,54.3830438 108.719376,54.5998737 108.451903,54.5998737 C108.18443,54.5998737 107.9676,54.3830438 107.9676,54.1155705 L107.966932,51.9359322 L105.788235,51.9362062 C105.520762,51.9362062 105.303932,51.7193762 105.303932,51.451903 C105.303932,51.1844297 105.520762,50.9675998 105.788235,50.9675998 L107.966932,50.9669322 L107.9676,48.7882354 C107.9676,48.5207621 108.18443,48.3039322 108.451903,48.3039322 Z" id="Combined-Shape-Copy-10" fill="#779EEA" opacity="0.3" transform="translate(108.451903, 51.451903) rotate(-315.000000) translate(-108.451903, -51.451903) "></path>
                <path d="M104,86 C104,79.9248678 98.8512746,75 92.5,75 C86.1487254,75 81,79.9248678 81,86" id="Oval-19" stroke="#779EEA" stroke-width="2" fill="#FFFFFF"></path>
                <rect id="Rectangle-22" stroke="#779EEA" stroke-width="2" fill="#F8FAFE" x="73" y="86" width="39" height="29" rx="6"></rect>
                <path d="M93,94 C94.1007144,94 95.0955261,94.4647082 95.8162733,95.2108935 C96.5493571,95.9698509 97,97.0190967 97,98.1764706 C97,99.6382157 96.2809657,100.928015 95.1821497,101.677297 L95.1821497,101.677297 L95.1818182,105.818182 C95.1818182,106.420674 94.9376099,106.966129 94.5427784,107.36096 C94.147947,107.755792 93.6024925,108 93,108 C92.3975075,108 91.852053,107.755792 91.4572216,107.36096 C91.0623901,106.966129 90.8181818,106.420674 90.8181818,105.818102 L90.8181818,105.818102 L90.8178503,101.677297 C89.7190343,100.928015 89,99.6382157 89,98.1764706 C89,97.0190967 89.4506429,95.9698509 90.1837267,95.2108935 C90.9044739,94.4647082 91.8992856,94 93,94 Z" id="Combined-Shape" stroke="#779EEA" stroke-width="2" fill="#F8FAFE"></path>
                <rect id="Rectangle-23" fill="#779EEA" x="45.3046332" y="53" width="20" height="2"></rect>
                <rect id="Rectangle-23-Copy" fill="#779EEA" x="45.3046332" y="61.5" width="32" height="2"></rect>
                <rect id="Rectangle-23-Copy-2" fill="#779EEA" x="45.3046332" y="70" width="32" height="2"></rect>
                <circle id="Oval-7-Copy-3" stroke="#779EEA" cx="112.5" cy="37.5" r="1.5"></circle>
            </g>
        </g>
    </g>
</svg>