<?xml version="1.0" encoding="UTF-8"?>
<svg width="144px" height="144px" viewBox="0 0 144 144" version="1.1" xmlns="http://www.w3.org/2000/svg" xmlns:xlink="http://www.w3.org/1999/xlink">
    <title>搜索引导</title>
    <defs>
        <linearGradient x1="50%" y1="3.85205925%" x2="50%" y2="121.56033%" id="linearGradient-1">
            <stop stop-color="#779EEA" stop-opacity="0.4" offset="0%"></stop>
            <stop stop-color="#FFFFFF" stop-opacity="0" offset="100%"></stop>
        </linearGradient>
    </defs>
    <g id="页面-1" stroke="none" stroke-width="1" fill="none" fill-rule="evenodd">
        <g id="搜索引导">
            <rect id="Rectangle-25" x="0" y="0" width="144" height="144"></rect>
            <g id="Group-10" transform="translate(0.000100, 1.096194)">
                <path d="M71.9999005,98.9038059 C106.372514,98.9038059 135.319719,114.901661 143.9998,134.903577 L0,134.903577 C8.68008123,114.901661 37.6272862,98.9038059 71.9999005,98.9038059 Z" id="Combined-Shape" fill="url(#linearGradient-1)" fill-rule="nonzero"></path>
                <g id="Group-2" transform="translate(38.562254, 31.924178)" fill-rule="nonzero">
                    <path d="M4.61006002,4.25548951 L46.7308279,4.25548951 L46.7308279,4.25548951 L61.3514393,15.7374413 L61.3514393,71.4279033 C61.3514393,73.0847575 60.0082936,74.4279033 58.3514393,74.4279033 L4.61006002,74.4279033 C2.95320577,74.4279033 1.61006002,73.0847575 1.61006002,71.4279033 L1.61006002,7.25548951 C1.61006002,5.59863526 2.95320577,4.25548951 4.61006002,4.25548951 Z" id="Rectangle" fill="#FFFFFF"></path>
                    <path d="M56.7895308,0 L6.43901266,0 C2.88449699,0.00416913321 0.00399345757,3.0047012 0,6.70732151 L0,68.2926853 C0.00399427503,71.9953044 2.88449847,74.9958338 6.43901266,75 L56.7895308,75 C60.344045,74.9958338 63.2245492,71.9953044 63.2285435,68.2926853 L63.2285435,6.70732151 C63.2245498,3.0047012 60.3440463,0.00416913321 56.7895308,0 L56.7895308,0 Z" id="路径" fill="#779EEA"></path>
                    <path d="M56.7896016,1.93089406 L6.43901266,1.93089406 C3.90775714,1.93386587 1.8564753,4.0823148 1.85363283,6.73347871 L1.85363283,68.6561018 C1.85647825,71.3072633 3.90775943,73.4557085 6.43901266,73.4586794 L56.7896016,73.4586794 C59.3208326,73.455679 61.3720786,71.30724 61.3749159,68.6561018 L61.3749159,6.73347871 C61.3720816,4.08233796 59.3208349,1.93389517 56.7896016,1.93089406 Z" id="路径" fill="#FFFFFF"></path>
                </g>
                <g id="点缀" transform="translate(15.999901, -0.000000)">
                    <path d="M20.0961937,2.07842712 C20.5225377,2.07842712 20.8681578,2.42404724 20.8681578,2.85039127 L20.8674267,6.32342712 L24.3419965,6.32422993 C24.7683405,6.32422993 25.1139606,6.66985005 25.1139606,7.09619408 C25.1139606,7.5225381 24.7683405,7.86815822 24.3419965,7.86815822 L20.8674267,7.86742712 L20.8681578,11.3419969 C20.8681578,11.7683409 20.5225377,12.113961 20.0961937,12.113961 C19.6698497,12.113961 19.3242295,11.7683409 19.3242295,11.3419969 L19.3234267,7.86742712 L15.8503909,7.86815822 C15.4240468,7.86815822 15.0784267,7.5225381 15.0784267,7.09619408 C15.0784267,6.66985005 15.4240468,6.32422993 15.8503909,6.32422993 L19.3234267,6.32342712 L19.3242295,2.85039127 C19.3242295,2.42404724 19.6698497,2.07842712 20.0961937,2.07842712 Z" id="Combined-Shape" fill="#779EEA" fill-rule="nonzero" transform="translate(20.096194, 7.096194) rotate(45.000000) translate(-20.096194, -7.096194) "></path>
                    <path d="M101.681981,39.5680192 C101.959349,39.5680192 102.184201,39.7928711 102.184201,40.07024 L102.183214,43.0830192 L105.197527,43.0835652 C105.474896,43.0835652 105.699747,43.3084172 105.699747,43.5857861 C105.699747,43.863155 105.474896,44.088007 105.197527,44.088007 L102.183214,44.0870192 L102.184201,47.1013322 C102.184201,47.3787011 101.959349,47.6035531 101.681981,47.6035531 C101.404612,47.6035531 101.17976,47.3787011 101.17976,47.1013322 L101.179214,44.0870192 L98.1664346,44.088007 C97.8890657,44.088007 97.6642138,43.863155 97.6642138,43.5857861 C97.6642138,43.3084172 97.8890657,43.0835652 98.1664346,43.0835652 L101.179214,43.0830192 L101.17976,40.07024 C101.17976,39.7928711 101.404612,39.5680192 101.681981,39.5680192 Z" id="Combined-Shape-Copy" fill="#779EEA" fill-rule="nonzero" opacity="0.3" transform="translate(101.681981, 43.585786) rotate(45.000000) translate(-101.681981, -43.585786) "></path>
                    <path d="M12.6819804,51.3253785 C12.9593493,51.3253785 13.1842013,51.5502304 13.1842013,51.8275993 L13.1832135,54.8403785 L16.1975265,54.8409246 C16.4748954,54.8409246 16.6997474,55.0657765 16.6997474,55.3431454 C16.6997474,55.6205144 16.4748954,55.8453663 16.1975265,55.8453663 L13.1832135,55.8443785 L13.1842013,58.8586915 C13.1842013,59.1360604 12.9593493,59.3609124 12.6819804,59.3609124 C12.4046115,59.3609124 12.1797595,59.1360604 12.1797595,58.8586915 L12.1792135,55.8443785 L9.16643437,55.8453663 C8.88906544,55.8453663 8.6642135,55.6205144 8.6642135,55.3431454 C8.6642135,55.0657765 8.88906544,54.8409246 9.16643437,54.8409246 L12.1792135,54.8403785 L12.1797595,51.8275993 C12.1797595,51.5502304 12.4046115,51.3253785 12.6819804,51.3253785 Z" id="Combined-Shape-Copy-4" fill="#779EEA" fill-rule="nonzero" opacity="0.3" transform="translate(12.681980, 55.343145) rotate(45.000000) translate(-12.681980, -55.343145) "></path>
                    <path d="M42.6819803,12.507359 C42.9415823,12.507359 43.1520313,12.717808 43.1520313,12.9774099 L43.1515727,15.797359 L45.972337,15.7977157 C46.231939,15.7977157 46.442388,16.0081647 46.442388,16.2677666 C46.442388,16.5273686 46.231939,16.7378176 45.972337,16.7378176 L43.1515727,16.737359 L43.1520313,19.5581233 C43.1520313,19.8177253 42.9415823,20.0281743 42.6819803,20.0281743 C42.4223783,20.0281743 42.2119294,19.8177253 42.2119294,19.5581233 L42.2115727,16.737359 L39.3916236,16.7378176 C39.1320217,16.7378176 38.9215727,16.5273686 38.9215727,16.2677666 C38.9215727,16.0081647 39.1320217,15.7977157 39.3916236,15.7977157 L42.2115727,15.797359 L42.2119294,12.9774099 C42.2119294,12.717808 42.4223783,12.507359 42.6819803,12.507359 Z" id="Combined-Shape-Copy-2" fill="#779EEA" fill-rule="nonzero" opacity="0.3" transform="translate(42.681980, 16.267767) rotate(45.000000) translate(-42.681980, -16.267767) "></path>
                    <circle id="Oval-7-Copy-3" stroke="#779EEA" cx="66.9999997" cy="13.9038059" r="2"></circle>
                    <circle id="Oval-7-Copy-4" stroke="#779EEA" cx="8.49999969" cy="74.4038059" r="1.5"></circle>
                    <circle id="Oval-7-Copy-5" stroke="#779EEA" cx="108.5" cy="73.4038059" r="1.5"></circle>
                    <path d="M111.278174,20.2928931 C111.747265,20.2928931 112.127539,20.6731671 112.127539,21.1422588 L112.12698,24.5388931 L115.525002,24.5397215 C115.994094,24.5397215 116.374368,24.9199955 116.374368,25.3890872 C116.374368,25.8581789 115.994094,26.2384529 115.525002,26.2384529 L112.12698,26.2378931 L112.127539,29.6359156 C112.127539,30.1050073 111.747265,30.4852813 111.278174,30.4852813 C110.809082,30.4852813 110.428808,30.1050073 110.428808,29.6359156 L110.42798,26.2378931 L107.031345,26.2384529 C106.562253,26.2384529 106.18198,25.8581789 106.18198,25.3890872 C106.18198,24.9199955 106.562253,24.5397215 107.031345,24.5397215 L110.42798,24.5388931 L110.428808,21.1422588 C110.428808,20.6731671 110.809082,20.2928931 111.278174,20.2928931 Z" id="Combined-Shape-Copy-3" fill="#779EEA" fill-rule="nonzero" transform="translate(111.278174, 25.389087) rotate(45.000000) translate(-111.278174, -25.389087) "></path>
                    <path d="M83.5355337,16.9393398 C83.8116761,16.9393398 84.0355337,17.1631974 84.0355337,17.4393398 L84.0355337,18.9393398 L85.5355337,18.9393398 C85.8116761,18.9393398 86.0355337,19.1631974 86.0355337,19.4393398 C86.0355337,19.7154822 85.8116761,19.9393398 85.5355337,19.9393398 L84.0355337,19.9393398 L84.0355337,21.4393398 C84.0355337,21.7154822 83.8116761,21.9393398 83.5355337,21.9393398 C83.2593913,21.9393398 83.0355337,21.7154822 83.0355337,21.4393398 L83.0355337,19.9383398 L81.5355337,19.9393398 C81.2593913,19.9393398 81.0355337,19.7154822 81.0355337,19.4393398 C81.0355337,19.1631974 81.2593913,18.9393398 81.5355337,18.9393398 L83.0355337,18.9383398 L83.0355337,17.4393398 C83.0355337,17.1631974 83.2593913,16.9393398 83.5355337,16.9393398 Z" id="Combined-Shape-Copy-5" fill="#779EEA" fill-rule="nonzero" transform="translate(83.535534, 19.439340) rotate(45.000000) translate(-83.535534, -19.439340) "></path>
                    <path d="M4.24264069,26.1464465 C4.51878306,26.1464465 4.74264069,26.3703041 4.74264069,26.6464465 L4.74264069,28.6464465 L6.74264069,28.6464465 C7.01878306,28.6464465 7.24264069,28.8703041 7.24264069,29.1464465 C7.24264069,29.4225889 7.01878306,29.6464465 6.74264069,29.6464465 L4.74264069,29.6464465 L4.74264069,31.6464465 C4.74264069,31.9225889 4.51878306,32.1464465 4.24264069,32.1464465 C3.96649831,32.1464465 3.74264069,31.9225889 3.74264069,31.6464465 L3.74264069,29.6454465 L1.74264069,29.6464465 C1.46649831,29.6464465 1.24264069,29.4225889 1.24264069,29.1464465 C1.24264069,28.8703041 1.46649831,28.6464465 1.74264069,28.6464465 L3.74264069,28.6454465 L3.74264069,26.6464465 C3.74264069,26.3703041 3.96649831,26.1464465 4.24264069,26.1464465 Z" id="Combined-Shape-Copy-7" fill="#779EEA" fill-rule="nonzero" transform="translate(4.242641, 29.146447) rotate(45.000000) translate(-4.242641, -29.146447) "></path>
                </g>
                <g id="Group-4" transform="translate(106.113744, 88.936609) rotate(-45.000000) translate(-106.113744, -88.936609) translate(92.467297, 68.550444)" fill-rule="nonzero">
                    <circle id="Oval-6" stroke="#779EEA" stroke-width="2" fill="#F8FAFE" cx="13.6464466" cy="13.6464466" r="13.6464466"></circle>
                    <path d="M14.0619444,26.7723301 C14.8903715,26.7723301 15.5619444,27.443903 15.5619444,28.2723301 L15.5619444,39.2723301 C15.5619444,40.1007572 14.8903715,40.7723301 14.0619444,40.7723301 C13.2335173,40.7723301 12.5619444,40.1007572 12.5619444,39.2723301 L12.5619444,28.2723301 C12.5619444,27.443903 13.2335173,26.7723301 14.0619444,26.7723301 Z" id="Rectangle-2" fill="#779EEA"></path>
                </g>
            </g>
            <path d="M85.7497112,69.6062835 L60.3231487,69.6062835 C59.9403108,69.6067097 59.5863706,69.4027137 59.3948281,69.0712373 C59.2032855,68.7397609 59.2032855,68.3312417 59.3948281,67.9997654 C59.5863706,67.6682888 59.9403108,67.4642928 60.3231487,67.4647192 L85.7497112,67.4647192 C86.3406202,67.4653806 86.8192968,67.9445921 86.8192968,68.5355013 C86.8192968,69.1264106 86.3406202,69.6056221 85.7497112,69.6062835 L85.7497112,69.6062835 Z" id="路径" fill="#779EEA" fill-rule="nonzero" opacity="0.203825451"></path>
            <path d="M90.1666803,73.2201678 L60.3231487,73.2201678 C59.9403108,73.2205941 59.5863706,73.016598 59.3948281,72.6851216 C59.2032855,72.3536453 59.2032855,71.9451259 59.3948281,71.6136496 C59.5863706,71.2821732 59.9403108,71.0781771 60.3231487,71.0786034 L90.1666803,71.0786034 C90.7580564,71.0786034 91.2374613,71.5580097 91.2374613,72.1493857 C91.2374613,72.7407616 90.7580564,73.2201678 90.1666803,73.2201678 L90.1666803,73.2201678 Z" id="路径" fill="#779EEA" fill-rule="nonzero" opacity="0.203825451"></path>
            <path d="M85.7497112,86.8018441 L60.3231487,86.8018441 C59.9403108,86.8022703 59.5863706,86.5982742 59.3948281,86.2667979 C59.2032855,85.9353215 59.2032855,85.5268022 59.3948281,85.1953258 C59.5863706,84.8638494 59.9403108,84.6598533 60.3231487,84.6602796 L85.7497112,84.6602796 C86.3410873,84.6602796 86.8204922,85.1396859 86.8204922,85.7310619 C86.8204922,86.3224378 86.3410873,86.8018441 85.7497112,86.8018441 Z" id="路径" fill="#779EEA" fill-rule="nonzero" opacity="0.203825451"></path>
            <path d="M90.1666803,90.4157256 L60.3231487,90.4157256 C59.9403108,90.4161521 59.5863706,90.2121558 59.3948281,89.8806795 C59.2032855,89.5492031 59.2032855,89.1406839 59.3948281,88.8092075 C59.5863706,88.4777312 59.9403108,88.2737349 60.3231487,88.2741614 L90.1666803,88.2741614 C90.5495184,88.2737349 90.9034586,88.4777312 91.0950011,88.8092075 C91.2865437,89.1406839 91.2865437,89.5492031 91.0950011,89.8806795 C90.9034586,90.2121558 90.5495184,90.4161521 90.1666803,90.4157256 L90.1666803,90.4157256 Z" id="路径" fill="#779EEA" fill-rule="nonzero" opacity="0.203825451"></path>
            <path d="M54.627446,74.860717 L45.6292293,74.860717 C45.3457924,74.8604063 45.1160991,74.630713 45.1157884,74.3472761 L45.1157884,66.3376108 C45.1160991,66.054174 45.3457924,65.8244805 45.6292293,65.8241698 L54.627446,65.8241698 C54.9108828,65.8244805 55.1405763,66.054174 55.140887,66.3376108 L55.140887,74.3472761 C55.1405763,74.630713 54.9108828,74.8604063 54.627446,74.860717 Z" id="路径" fill="#779EEA" fill-rule="nonzero" opacity="0.203825451"></path>
            <path d="M54.627446,92.056275 L45.6292293,92.056275 C45.3457924,92.0559641 45.1160991,91.8262708 45.1157884,91.542834 L45.1157884,83.5331688 C45.1160991,83.2497318 45.3457924,83.0200385 45.6292293,83.0197276 L54.627446,83.0197276 C54.9108828,83.0200385 55.1405763,83.2497318 55.140887,83.5331688 L55.140887,91.542834 C55.1405763,91.8262708 54.9108828,92.0559641 54.627446,92.056275 Z" id="路径" fill="#779EEA" fill-rule="nonzero" opacity="0.203825451"></path>
            <path d="M85.777926,50.5774305 L67.031957,50.5774305 C66.4405809,50.5774305 65.961176,50.0980257 65.961176,49.5066496 C65.961176,48.9152738 66.4405809,48.4358688 67.031957,48.4358688 L85.777926,48.4358688 C86.3693066,48.4358688 86.848707,48.9152738 86.848707,49.5066496 C86.848707,50.0980257 86.3693066,50.5774305 85.777926,50.5774305 Z" id="路径" fill="#779EEA" fill-rule="nonzero"></path>
            <path d="M90.1948966,54.1913135 L67.031957,54.1913135 C66.6494039,54.1913135 66.2959105,53.987224 66.104634,53.6559235 C65.9133574,53.3246228 65.9133574,52.9164437 66.104634,52.5851432 C66.2959105,52.2538426 66.6494039,52.0497532 67.031957,52.0497532 L90.1948966,52.0497532 C90.7862722,52.0497532 91.2656766,52.5291578 91.2656766,53.1205333 C91.2656766,53.7119089 90.7862722,54.1913135 90.1948966,54.1913135 L90.1948966,54.1913135 Z" id="路径" fill="#779EEA" fill-rule="nonzero"></path>
            <path d="M45.6010131,58.5709073 C45.3175774,58.5705958 45.0878849,58.3409035 45.0875734,58.0574677 L45.0875734,44.5697147 C45.0878849,44.2862789 45.3175774,44.0565865 45.6010131,44.056275 L62.8831668,44.056275 C63.1666026,44.0565865 63.396295,44.2862789 63.3966065,44.5697147 L63.3966065,58.0574677 C63.396295,58.3409035 63.1666026,58.5705958 62.8831668,58.5709073 L45.6010131,58.5709073 Z" id="路径" fill="#779EEA" fill-rule="nonzero"></path>
        </g>
    </g>
</svg>