<?xml version="1.0" encoding="UTF-8"?>
<svg width="40px" height="36px" viewBox="0 0 40 36" version="1.1" xmlns="http://www.w3.org/2000/svg" xmlns:xlink="http://www.w3.org/1999/xlink">
    <title>24gf-table</title>
    <defs>
        <filter id="filter-1">
            <feColorMatrix in="SourceGraphic" type="matrix" values="0 0 0 0 0.682353 0 0 0 0 0.858824 0 0 0 0 0.690196 0 0 0 0.650000 0"></feColorMatrix>
        </filter>
    </defs>
    <g id="数据加工任务" stroke="none" stroke-width="1" fill="none" fill-rule="evenodd">
        <g id="首次加工画布" transform="translate(-717.000000, -372.000000)">
            <g id="24gf-table" transform="translate(595.000000, 292.000000)" filter="url(#filter-1)">
                <g transform="translate(122.000000, 80.000000)">
                    <path d="M12.7094656,22.6415094 L0.0283061736,22.6415094 L0.0283061736,13.2075472 L12.7094656,13.2075472 L12.7094656,22.6415094 Z M27.2022192,24.5283019 L27.2022192,35.8490566 L37.6188859,35.8490566 C38.8689487,35.8475944 39.8819747,34.7925182 39.8833786,33.490566 L39.8833786,24.5283019 L27.2022192,24.5283019 Z M27.2022192,22.6415094 L39.8833786,22.6415094 L39.8833786,13.2075472 L27.2022192,13.2075472 L27.2022192,22.6415094 Z M39.8833786,11.3207547 L39.8833786,2.35849055 C39.8819747,1.05653834 38.8689487,0.00146223011 37.6188859,1.25685625e-15 L2.29279891,1.25685625e-15 C1.04273611,0.00146223011 0.0297101264,1.05653834 0.0283061736,2.35849055 L0.0283061736,11.3207547 L39.8833786,11.3207547 Z M12.7094656,24.5283019 L0.0283061736,24.5283019 L0.0283061736,33.490566 C0.029710103,34.7925182 1.04273609,35.8475944 2.29279891,35.8490566 L12.7094656,35.8490566 L12.7094656,24.5283019 Z M14.5210598,35.8490566 L25.390625,35.8490566 L25.390625,24.5283019 L14.5210598,24.5283019 L14.5210598,35.8490566 Z M14.5210598,22.6415094 L25.390625,22.6415094 L25.390625,13.2075472 L14.5210598,13.2075472 L14.5210598,22.6415094 Z" id="形状" fill="#5C5C66" fill-rule="nonzero"></path>
                </g>
            </g>
        </g>
    </g>
</svg>