<?xml version="1.0" encoding="UTF-8"?>
<svg width="46px" height="41px" viewBox="0 0 46 41" version="1.1" xmlns="http://www.w3.org/2000/svg" xmlns:xlink="http://www.w3.org/1999/xlink">
    <title>输出icon</title>
    <g id="数据同步任务" stroke="none" stroke-width="1" fill="none" fill-rule="evenodd">
        <g id="首次同步画布" transform="translate(-1164.000000, -372.000000)" fill="#E0D2EF">
            <g id="表" transform="translate(594.000000, 292.000000)">
                <g id="贴源表" transform="translate(448.000000, 0.000000)">
                    <g id="输出icon" transform="translate(122.000000, 80.000000)">
                        <path d="M12.6811594,22.813036 L-6.88338275e-14,22.813036 L-6.88338275e-14,13.3076044 L12.6811594,13.3076044 L12.6811594,22.813036 Z M27.173913,22.813036 L39.8550724,22.813036 L39.8550724,13.3076044 L27.173913,13.3076044 L27.173913,22.813036 Z M39.8550724,11.406518 L39.8550724,2.3763579 C39.8536685,1.06454242 38.8406425,0.00147330762 37.5905797,-2.11504888e-13 L2.26449274,-2.11504888e-13 C1.01442993,0.00147330762 0.00140395283,1.06454242 -6.88338275e-14,2.3763579 L-6.88338275e-14,11.406518 L39.8550724,11.406518 Z M12.6811594,24.7141224 L-6.88338275e-14,24.7141224 L-6.88338275e-14,33.7442824 C0.00140392943,35.0560979 1.01442991,36.1191671 2.26449274,36.1206404 L12.6811594,36.1206404 L12.6811594,24.7141224 Z M14.4927536,36.1206404 L25.3623188,36.1206404 L25.3623188,24.7141224 L14.4927536,24.7141224 L14.4927536,36.1206404 Z M14.4927536,22.813036 L25.3623188,22.813036 L25.3623188,13.3076044 L14.4927536,13.3076044 L14.4927536,22.813036 Z" id="形状" fill-rule="nonzero"></path>
                        <path d="M30.6733546,27.5188718 L31.6439702,27.4955688 C31.6327275,30.1249185 31.3778941,33.2863521 26.9220565,36.0166812 L26.8695908,36.0477518 L26.8283677,36.0904739 C26.6484853,36.2807813 26.5885245,36.5409976 26.6822132,36.7740271 C26.7796495,37.0109404 27.0232403,37.1662935 27.2855689,37.1625495 L27.3230444,37.1625495 L27.3605199,37.154642 C29.5603321,36.7584918 31.4528451,36.0710548 33.0005835,35.1000985 C34.3009835,34.2844952 35.3652879,33.266933 36.1597686,32.0745987 C37.4039554,30.2142464 37.7112545,28.3849648 37.7749629,27.3635188 L38.8842379,27.3402159 C39.300216,27.3324482 39.6637284,27.1110702 39.851106,26.7498744 C40.0309884,26.4003302 40.0085031,25.9808771 39.7911451,25.6546357 L39.7799025,25.6352166 L36.0136142,20.4192395 C35.740043,20.0580437 35.3240648,19.8560848 34.8668637,19.8638525 C34.5670596,19.8716201 34.2859933,19.9648319 34.0498977,20.1357202 C33.9262285,20.2250482 33.8100544,20.3376791 33.7126181,20.4697292 L29.8976116,25.8527108 L29.8901165,25.87213 C29.669011,26.2177904 29.6465257,26.6527788 29.8376508,27.0062069 C30.0100381,27.3285644 30.3285799,27.5266395 30.6733546,27.5188718 Z" id="路径" stroke="#F6F9FB" stroke-width="2" transform="translate(33.305027, 28.513093) scale(1, -1) rotate(-45.000000) translate(-33.305027, -28.513093) "></path>
                    </g>
                </g>
            </g>
        </g>
    </g>
</svg>