<?xml version="1.0" encoding="UTF-8"?>
<svg width="64px" height="64px" viewBox="0 0 64 64" version="1.1" xmlns="http://www.w3.org/2000/svg" xmlns:xlink="http://www.w3.org/1999/xlink">
    <title>图</title>
    <g id="页面-1" stroke="none" stroke-width="1" fill="none" fill-rule="evenodd">
        <g id="新建任务" transform="translate(-800.000000, -312.000000)">
            <g id="编组" transform="translate(720.000000, 100.000000)">
                <g id="编组-4" transform="translate(24.000000, 193.000000)">
                    <g id="图" transform="translate(56.000000, 19.000000)">
                        <g id="编组-2" transform="translate(0.360217, 17.631295)">
                            <path d="M9.27150002,5.65109451 L29.7159445,5.65109451 C31.9250835,5.65109451 33.7159445,7.44195551 33.7159445,9.65109451 L33.7159445,37.9177612 C33.7159445,40.1269002 31.9250835,41.9177612 29.7159445,41.9177612 L9.27150002,41.9177612 C7.06236102,41.9177612 5.27150002,40.1269002 5.27150002,37.9177612 L5.27150002,9.65109451 C5.27150002,7.44195551 7.06236102,5.65109451 9.27150002,5.65109451 Z" id="矩形" fill-opacity="0.45" fill="#E2EBFF" fill-rule="nonzero" transform="translate(19.493722, 23.784428) rotate(-18.777800) translate(-19.493722, -23.784428) "></path>
                            <path d="M9.74621859,14.4507862 L24.5239964,14.4507862 C25.3524235,14.4507862 26.0239964,15.122359 26.0239964,15.9507862 L26.0239964,16.5063417 C26.0239964,17.3347689 25.3524235,18.0063417 24.5239964,18.0063417 L9.74621859,18.0063417 C8.91779147,18.0063417 8.24621859,17.3347689 8.24621859,16.5063417 L8.24621859,15.9507862 C8.24621859,15.122359 8.91779147,14.4507862 9.74621859,14.4507862 Z" id="矩形" fill-opacity="0.45" fill="#B2C8F5" fill-rule="nonzero" transform="translate(17.135107, 16.228564) rotate(-19.952500) translate(-17.135107, -16.228564) "></path>
                            <path d="M11.8064493,20.0575935 L26.5842271,20.0575935 C27.4126542,20.0575935 28.0842271,20.7291664 28.0842271,21.5575935 L28.0842271,22.113149 C28.0842271,22.9415762 27.4126542,23.613149 26.5842271,23.613149 L11.8064493,23.613149 C10.9780222,23.613149 10.3064493,22.9415762 10.3064493,22.113149 L10.3064493,21.5575935 C10.3064493,20.7291664 10.9780222,20.0575935 11.8064493,20.0575935 Z" id="矩形" fill-opacity="0.45" fill="#B2C8F5" fill-rule="nonzero" transform="translate(19.195338, 21.835371) rotate(-19.952500) translate(-19.195338, -21.835371) "></path>
                            <path d="M14.6508938,26.4575935 L29.4286716,26.4575935 C30.2570987,26.4575935 30.9286716,27.1291664 30.9286716,27.9575935 L30.9286716,28.513149 C30.9286716,29.3415762 30.2570987,30.013149 29.4286716,30.013149 L14.6508938,30.013149 C13.8224667,30.013149 13.1508938,29.3415762 13.1508938,28.513149 L13.1508938,27.9575935 C13.1508938,27.1291664 13.8224667,26.4575935 14.6508938,26.4575935 Z" id="矩形" fill-opacity="0.45" fill="#B2C8F5" fill-rule="nonzero" transform="translate(22.039783, 28.235371) rotate(-19.952500) translate(-22.039783, -28.235371) "></path>
                            <path d="M5.32618267,7.02840237 L8.09105378,6.08838459 C8.09240489,5.97986904 8.09660044,5.87135348 8.10364044,5.76283793 C8.15619156,4.95522904 8.36724933,4.16582459 8.72486711,3.43978015 C9.08248489,2.7137357 9.57962267,2.06527348 10.187836,1.53137126 C10.7960493,0.997397927 11.5034627,0.588509038 12.269756,0.328029038 C13.0359782,0.0674779266 13.846076,-0.0395442956 14.6536849,0.0130068155 C15.4612938,0.0655579266 16.2506982,0.276615704 16.9767427,0.634233482 C17.7027871,0.99185126 18.3512493,1.48891793 18.8851516,2.09720237 C18.9569027,2.17890904 19.0263782,2.26239348 19.0935071,2.34758459 L21.8584493,1.4074957 C22.127036,1.31618904 22.4187338,1.45990459 22.5100404,1.72842015 L23.9978982,6.10466904 L6.493116,12.0561713 L5.00525822,7.67999348 C4.91395156,7.41140682 5.057596,7.11970904 5.32618267,7.02840237 Z M14.914876,8.10794015 C15.7204938,7.83402015 16.1515693,6.9588557 15.8776493,6.15323793 C15.6037293,5.34754904 14.7285649,4.91654459 13.9229471,5.19046459 C13.1173293,5.46438459 12.6862538,6.33947793 12.9601738,7.14516682 C13.2340938,7.95078459 14.1092582,8.38186015 14.914876,8.10794015 Z" id="形状" fill="#CFDAF8"></path>
                        </g>
                        <path d="M26.6608317,9.08803055 L56.4830539,9.08803055 C59.2444777,9.08803055 61.4830539,11.3266068 61.4830539,14.0880306 L61.4830539,55.3558706 C61.4830539,58.1172943 59.2444777,60.3558706 56.4830539,60.3558706 L26.6608317,60.3558706 C23.899408,60.3558706 21.6608317,58.1172943 21.6608317,55.3558706 L21.6608317,14.0880306 C21.6608317,11.3266068 23.899408,9.08803055 26.6608317,9.08803055 Z" id="矩形" fill="#779EEA" fill-rule="nonzero" transform="translate(41.571943, 34.721951) rotate(4.464640) translate(-41.571943, -34.721951) "></path>
                        <rect id="矩形" fill="#E2EBFF" fill-rule="nonzero" x="23.4666667" y="7.82222222" width="39.8222222" height="49.7777778" rx="4"></rect>
                        <path d="M32,5.05679012 L36.0435911,5.05679012 C36.0936533,4.9309203 36.1474844,4.80609343 36.2050844,4.68246756 C36.6339556,3.76218864 37.2625067,2.92600415 38.0548978,2.22164385 C38.8472889,1.51730252 39.7880178,0.958584099 40.8233244,0.577391881 C41.8586311,0.196199664 42.9682489,0 44.0888889,0 C45.2095289,0 46.3191467,0.196199664 47.3544533,0.577391881 C48.38976,0.958584099 49.3304889,1.51730252 50.12288,2.22164385 C50.9152711,2.92600415 51.5438222,3.76218864 51.9726222,4.68246756 C52.0302933,4.80609343 52.0841244,4.9309203 52.1341867,5.05679012 L56.1777778,5.05679012 C56.5705244,5.05679012 56.8888889,5.33979338 56.8888889,5.68888889 L56.8888889,11.3777778 L31.2888889,11.3777778 L31.2888889,5.68888889 C31.2888889,5.33979338 31.6072533,5.05679012 32,5.05679012 Z M44.0888889,9.95555556 C45.2671289,9.95555556 46.2222222,9.00046222 46.2222222,7.82222222 C46.2222222,6.64398222 45.2671289,5.68888889 44.0888889,5.68888889 C42.9106489,5.68888889 41.9555556,6.64398222 41.9555556,7.82222222 C41.9555556,9.00046222 42.9106489,9.95555556 44.0888889,9.95555556 Z" id="形状" fill="#779EEA"></path>
                        <rect id="矩形" fill-opacity="0.45" fill="#779EEA" fill-rule="nonzero" x="39.8222222" y="21.3333333" width="19.9111111" height="2.84444444" rx="1.42222222"></rect>
                        <rect id="矩形" fill-opacity="0.45" fill="#779EEA" fill-rule="nonzero" x="39.8222222" y="32.7111111" width="14.9333333" height="2.84444444" rx="1.42222222"></rect>
                        <rect id="矩形" fill-opacity="0.45" fill="#779EEA" fill-rule="nonzero" x="39.8222222" y="43.3777778" width="11.3777778" height="2.84444444" rx="1.42222222"></rect>
                        <path d="M33.4221293,25.6008678 C32.8599148,25.6008678 32.3094132,25.433542 31.8425744,25.1206429 C31.3740623,24.8077438 31.0092922,24.3643306 30.7934421,23.8439476 C30.5792651,23.3235646 30.5223744,22.7529839 30.6328094,22.2008089 C30.7415711,21.648634 31.0126388,21.1416371 31.410874,20.7434018 C31.8091092,20.3468399 32.3161062,20.0757722 32.8666078,19.9653372 C33.4187827,19.8565755 33.9910367,19.911793 34.5114198,20.1276432 C35.0301295,20.3434934 35.475216,20.7065902 35.7864418,21.1751022 C36.0993409,21.6436143 36.2666667,22.1924427 36.2666667,22.7563304 C36.2666667,23.5092962 35.9671536,24.2338166 35.4333845,24.7675856 C34.8996155,25.2996815 34.1767683,25.6008678 33.4221293,25.6008678 Z M35.2710786,21.752376 C35.2008018,21.6854457 35.1070994,21.648634 35.0100504,21.6503073 C34.9130015,21.6536538 34.8209724,21.693812 34.7540421,21.7624155 L32.9954487,23.3202181 L32.1220083,22.4668569 C32.0567513,22.4200057 31.976435,22.3999266 31.8961186,22.4066196 C31.8158023,22.4149859 31.7421789,22.4501243 31.6852882,22.507015 C31.6300707,22.565579 31.5949323,22.6408756 31.5899125,22.7195187 C31.5832195,22.7998351 31.6066451,22.8801514 31.6534963,22.9454084 L32.665817,23.9343035 C32.7160147,23.9794815 32.7762519,24.0129466 32.841509,24.0330257 C32.8833404,24.054778 32.9301916,24.0681641 32.9787161,24.0715106 C33.0255673,24.0748571 33.0740917,24.0681641 33.1192697,24.0531048 C33.1360023,24.048085 33.1527348,24.041392 33.1677942,24.0330257 C33.2096256,24.0162931 33.2464372,23.9911943 33.2799024,23.9610756 L35.1991285,22.2627195 C35.2760983,22.2041555 35.3262961,22.1188193 35.3396821,22.0217704 C35.3530682,21.9263948 35.3296426,21.8293458 35.2710786,21.752376 Z" id="形状" fill-opacity="0.45" fill="#779EEA"></path>
                        <path d="M33.4221293,36.9786456 C32.8599148,36.9786456 32.3094132,36.8113198 31.8425744,36.4984207 C31.3740623,36.1855216 31.0092922,35.7421084 30.7934421,35.2217254 C30.5792651,34.7013424 30.5223744,34.1307616 30.6328094,33.5785867 C30.7415711,33.0264118 31.0126388,32.5194149 31.410874,32.1211796 C31.8091092,31.7246176 32.3161062,31.45355 32.8666078,31.343115 C33.4187827,31.2343533 33.9910367,31.2895707 34.5114198,31.5054209 C35.0301295,31.7212711 35.475216,32.084368 35.7864418,32.55288 C36.0993409,33.021392 36.2666667,33.5702204 36.2666667,34.1341081 C36.2666667,34.8870739 35.9671536,35.6115943 35.4333845,36.1453634 C34.8996155,36.6774592 34.1767683,36.9786456 33.4221293,36.9786456 Z M35.2710786,33.1301538 C35.2008018,33.0632235 35.1070994,33.0264118 35.0100504,33.0280851 C34.9130015,33.0314316 34.8209724,33.0715898 34.7540421,33.1401933 L32.9954487,34.6979959 L32.1220083,33.8446346 C32.0567513,33.7977834 31.976435,33.7777043 31.8961186,33.7843974 C31.8158023,33.7927637 31.7421789,33.8279021 31.6852882,33.8847928 C31.6300707,33.9433568 31.5949323,34.0186534 31.5899125,34.0972965 C31.5832195,34.1776128 31.6066451,34.2579292 31.6534963,34.3231862 L32.665817,35.3120813 C32.7160147,35.3572592 32.7762519,35.3907244 32.841509,35.4108035 C32.8833404,35.4325558 32.9301916,35.4459419 32.9787161,35.4492884 C33.0255673,35.4526349 33.0740917,35.4459419 33.1192697,35.4308826 C33.1360023,35.4258628 33.1527348,35.4191698 33.1677942,35.4108035 C33.2096256,35.3940709 33.2464372,35.368972 33.2799024,35.3388534 L35.1991285,33.6404972 C35.2760983,33.5819332 35.3262961,33.4965971 35.3396821,33.3995482 C35.3530682,33.3041725 35.3296426,33.2071236 35.2710786,33.1301538 Z" id="形状" fill-opacity="0.45" fill="#779EEA"></path>
                        <path d="M33.4221293,48.3564233 C32.8599148,48.3564233 32.3094132,48.1890976 31.8425744,47.8761985 C31.3740623,47.5632994 31.0092922,47.1198862 30.7934421,46.5995032 C30.5792651,46.0791201 30.5223744,45.5085394 30.6328094,44.9563645 C30.7415711,44.4041896 31.0126388,43.8971926 31.410874,43.4989574 C31.8091092,43.1023954 32.3161062,42.8313277 32.8666078,42.7208928 C33.4187827,42.612131 33.9910367,42.6673485 34.5114198,42.8831987 C35.0301295,43.0990489 35.475216,43.4621457 35.7864418,43.9306578 C36.0993409,44.3991698 36.2666667,44.9479982 36.2666667,45.5118859 C36.2666667,46.2648517 35.9671536,46.9893721 35.4333845,47.5231412 C34.8996155,48.055237 34.1767683,48.3564233 33.4221293,48.3564233 Z M35.2710786,44.5079315 C35.2008018,44.4410013 35.1070994,44.4041896 35.0100504,44.4058629 C34.9130015,44.4092094 34.8209724,44.4493675 34.7540421,44.5179711 L32.9954487,46.0757736 L32.1220083,45.2224124 C32.0567513,45.1755612 31.976435,45.1554821 31.8961186,45.1621752 C31.8158023,45.1705414 31.7421789,45.2056798 31.6852882,45.2625706 C31.6300707,45.3211346 31.5949323,45.3964312 31.5899125,45.4750743 C31.5832195,45.5553906 31.6066451,45.635707 31.6534963,45.700964 L32.665817,46.6898591 C32.7160147,46.735037 32.7762519,46.7685022 32.841509,46.7885812 C32.8833404,46.8103336 32.9301916,46.8237196 32.9787161,46.8270662 C33.0255673,46.8304127 33.0740917,46.8237196 33.1192697,46.8086603 C33.1360023,46.8036406 33.1527348,46.7969475 33.1677942,46.7885812 C33.2096256,46.7718487 33.2464372,46.7467498 33.2799024,46.7166312 L35.1991285,45.018275 C35.2760983,44.959711 35.3262961,44.8743749 35.3396821,44.777326 C35.3530682,44.6819503 35.3296426,44.5849014 35.2710786,44.5079315 Z" id="形状" fill-opacity="0.45" fill="#779EEA"></path>
                    </g>
                </g>
            </g>
        </g>
    </g>
</svg>