<?xml version="1.0" encoding="UTF-8"?>
<svg width="63px" height="58px" viewBox="0 0 63 58" version="1.1" xmlns="http://www.w3.org/2000/svg" xmlns:xlink="http://www.w3.org/1999/xlink">
    <title>图</title>
    <g id="页面-1" stroke="none" stroke-width="1" fill="none" fill-rule="evenodd">
        <g id="新建任务" transform="translate(-800.000000, -199.000000)">
            <g id="编组" transform="translate(720.000000, 100.000000)">
                <g id="编组-4" transform="translate(24.000000, 79.000000)">
                    <g id="文件夹" transform="translate(56.000000, 20.000000)">
                        <path d="M5.42273683,0.010231583 L19.9707587,0.010231583 C20.3710753,0.010231583 20.7434247,0.215523027 20.9571015,0.554042805 L22.9878149,3.77122187 C23.2018854,4.11036534 23.5751791,4.31574469 23.9762326,4.31503125 L50.4101548,4.26800748 L50.4101548,4.26800748 C53.8458024,4.26189574 56.6358994,7.04208384 56.642021,10.4777314 C56.642021,10.4814201 56.642021,10.4851089 56.642021,10.4887976 L56.642021,47.8121683 L4.25633683,47.8121683 L4.25633683,1.17663158 C4.25633683,0.532446651 4.7785519,0.010231583 5.42273683,0.010231583 Z" id="矩形" fill-opacity="0.85" fill="#779EEA" fill-rule="nonzero"></path>
                        <g id="1" transform="translate(8.748000, 7.776000)">
                            <rect id="矩形" fill="#F2F6FF" x="0" y="0" width="39.852" height="24.1056"></rect>
                            <path d="M5.44312376,7.776 C4.98203764,7.776 4.53055747,7.63879292 4.14769131,7.38221567 C3.76345287,7.12563842 3.4642958,6.76203964 3.28727166,6.33532561 C3.1116198,5.90861158 3.06496228,5.44073542 3.15553277,4.98795204 C3.24473098,4.53516866 3.46704036,4.11943119 3.79364303,3.79287833 C4.12024571,3.46769754 4.53604659,3.24542207 4.98752676,3.15486539 C5.4403792,3.06568078 5.90969901,3.11095912 6.33647813,3.28795626 C6.76188498,3.4649534 7.12691149,3.76269277 7.3821556,4.14687261 C7.63877199,4.53105245 7.776,4.98109169 7.776,5.44347956 C7.776,6.06091144 7.53036185,6.65501812 7.09260449,7.09270872 C6.65484713,7.52902725 6.06202211,7.776 5.44312376,7.776 Z M6.93853373,4.55316506 C6.88031406,4.49944624 6.80268783,4.46990089 6.72228923,4.47124386 C6.64189064,4.4739298 6.56565059,4.50616109 6.51020329,4.56122288 L5.05332531,5.81152841 L4.32973796,5.12661346 C4.27567683,5.08901029 4.20914007,5.07289464 4.1426033,5.07826652 C4.07606653,5.08498138 4.01507449,5.11318376 3.96794428,5.15884475 C3.92220026,5.20584872 3.89309042,5.26628239 3.88893187,5.32940201 C3.88338714,5.39386459 3.9027937,5.45832717 3.94160681,5.51070302 L4.78024732,6.30439858 C4.8218328,6.34065879 4.87173538,6.3675182 4.9257965,6.38363384 C4.96045107,6.40109246 4.99926418,6.41183622 5.03946348,6.41452216 C5.0782766,6.41720811 5.11847589,6.41183622 5.15590283,6.39974949 C5.16976465,6.39572058 5.18362648,6.3903487 5.19610212,6.38363384 C5.23075669,6.37020414 5.26125271,6.35005958 5.28897636,6.32588611 L6.87892787,4.96277106 C6.94269228,4.91576709 6.98427776,4.8472756 6.99536722,4.76938331 C7.00645668,4.69283399 6.98705012,4.6149417 6.93853373,4.55316506 Z" id="形状" fill="#D5E1FA"></path>
                            <rect id="矩形" fill="#D5E1FA" fill-rule="nonzero" x="9.252" y="4.224" width="13.2192" height="2.29187369" rx="1.14593684"></rect>
                        </g>
                        <g id="1" transform="translate(16.000000, 15.000000)">
                            <rect id="矩形" fill="#B2C8F5" transform="translate(17.847574, 8.373641) rotate(4.000000) translate(-17.847574, -8.373641) " x="0.448773696" y="1.37524098" width="34.7976" height="13.9968"></rect>
                            <rect id="矩形" fill="#FFFFFF" x="2.1384" y="0.3888" width="34.7976" height="13.9968"></rect>
                            <path d="M7.58152376,8.1648 C7.12043764,8.1648 6.66895747,8.02759292 6.28609131,7.77101567 C5.90185287,7.51443842 5.6026958,7.15083964 5.42567166,6.72412561 C5.2500198,6.29741158 5.20336228,5.82953542 5.29393277,5.37675204 C5.38313098,4.92396866 5.60544036,4.50823119 5.93204303,4.18167833 C6.25864571,3.85649754 6.67444659,3.63422207 7.12592676,3.54366539 C7.5787792,3.45448078 8.04809901,3.49975912 8.47487813,3.67675626 C8.90028498,3.8537534 9.26531149,4.15149277 9.5205556,4.53567261 C9.77717199,4.91985245 9.9144,5.36989169 9.9144,5.83227956 C9.9144,6.44971144 9.66876185,7.04381812 9.23100449,7.48150872 C8.79324713,7.91782725 8.20042211,8.1648 7.58152376,8.1648 Z M9.07693373,4.94196506 C9.01871406,4.88824624 8.94108783,4.85870089 8.86068923,4.86004386 C8.78029064,4.8627298 8.70405059,4.89496109 8.64860329,4.95002288 L7.19172531,6.20032841 L6.46813796,5.51541346 C6.41407683,5.47781029 6.34754007,5.46169464 6.2810033,5.46706652 C6.21446653,5.47378138 6.15347449,5.50198376 6.10634428,5.54764475 C6.06060026,5.59464872 6.03149042,5.65508239 6.02733187,5.71820201 C6.02178714,5.78266459 6.0411937,5.84712717 6.08000681,5.89950302 L6.91864732,6.69319858 C6.9602328,6.72945879 7.01013538,6.7563182 7.0641965,6.77243384 C7.09885107,6.78989246 7.13766418,6.80063622 7.17786348,6.80332216 C7.2166766,6.80600811 7.25687589,6.80063622 7.29430283,6.78854949 C7.30816465,6.78452058 7.32202648,6.7791487 7.33450212,6.77243384 C7.36915669,6.75900414 7.39965271,6.73885958 7.42737636,6.71468611 L9.01732787,5.35157106 C9.08109228,5.30456709 9.12267776,5.2360756 9.13376722,5.15818331 C9.14485668,5.08163399 9.12545012,5.0037417 9.07693373,4.94196506 Z" id="形状" fill="#B2C8F5"></path>
                            <rect id="矩形" fill="#B2C8F5" fill-rule="nonzero" x="11.5821473" y="3.4992" width="13.2192" height="2.29187369" rx="1.14593684"></rect>
                            <rect id="矩形" fill="#B2C8F5" fill-rule="nonzero" x="11.664" y="6.9984" width="21.1896" height="2.29187369" rx="1.14593684"></rect>
                        </g>
                        <path d="M1.39843426,26.6344842 L60.8095657,26.6344842 C61.4537507,26.6344842 61.9759657,27.1566992 61.9759657,27.8008842 C61.9759657,27.8710884 61.9696275,27.9411492 61.9570282,28.0102136 L56.7273239,56.6774136 C56.6262045,57.2317109 56.1433067,57.6344842 55.5798614,57.6344842 L6.6281386,57.6344842 C6.06469332,57.6344842 5.58179554,57.2317109 5.48067612,56.6774136 L0.250971784,28.0102136 C0.135362315,27.3764876 0.555378774,26.7690312 1.1891048,26.6534217 C1.25816919,26.6408224 1.32823005,26.6344842 1.39843426,26.6344842 Z" id="矩形" fill="#BDD0F6" fill-rule="nonzero"></path>
                    </g>
                </g>
            </g>
        </g>
    </g>
</svg>