<svg width="16" height="16" viewBox="0 0 16 16" fill="none" xmlns="http://www.w3.org/2000/svg">
<g clip-path="url(#clip0_12_167)">
<path d="M8.26273 5.25098L8.48734 5.32031L8.71098 5.43262L8.89262 5.54492L9.04691 5.6709L9.22855 5.85254L9.3682 6.0625L9.48051 6.28613L9.56449 6.53809L9.60648 6.76172L9.62016 6.90137V7.08398L9.59184 7.33496L9.53617 7.54492L9.43852 7.7832L9.32621 7.99316L9.17289 8.18848L8.99027 8.37109L8.75297 8.53906L8.52934 8.65039L8.27738 8.73438L8.02543 8.77637H7.67582L7.14359 8.70605H7.01762L6.68266 8.74805L6.38871 8.83203L6.12211 8.94434L5.91313 9.05664L5.73051 9.18262L5.56254 9.30859L5.26957 9.53223L5.08695 9.67188L4.90531 9.81152L4.65336 10.0078L4.47172 10.1475L4.33207 10.2734L4.19145 10.4131L4.06547 10.5957L3.95414 10.8193L3.88383 11.085L3.87016 11.1973V11.3926L3.92582 11.5742L4.0098 11.7422L4.13578 11.8828L4.27543 12.0088L4.51371 12.1621L4.69535 12.2744L5.04496 12.4844L5.43656 12.7217L5.74516 12.9033L5.96879 13.0293L6.10844 13.0996L6.36039 13.1836L6.51469 13.2119H6.80766L7.00395 13.1699L7.15824 13.1279L7.2559 13.1133H7.54984L7.70316 13.1416L7.92777 13.2256L8.09574 13.3232L8.24906 13.4492L8.37504 13.5889L8.48734 13.7715L8.57133 14.0088L8.59867 14.1211V14.4844L8.52934 14.751L8.4307 14.9463L8.30473 15.1143L8.1934 15.2266L7.99711 15.3662L7.77348 15.4639L7.60551 15.5059L7.45121 15.5195H7.31156L7.1016 15.4922L6.8643 15.4082L6.66801 15.2822L6.52836 15.1562L6.4307 15.0586L6.3184 14.8906L6.23441 14.6807L6.1641 14.373L6.09477 14.1904L5.98246 13.9951L5.87113 13.8555L5.71684 13.7012L5.4932 13.5332L5.15727 13.3232L4.89164 13.1553L4.5977 12.9736L4.33207 12.8057L4.03813 12.624L3.79984 12.4844L3.56254 12.3721L3.39457 12.3164L3.24027 12.2881H2.96098L2.77836 12.3164H2.52738L2.30277 12.2744L2.09281 12.1904L1.93949 12.0918L1.7852 11.9668L1.64555 11.7842L1.53324 11.5742L1.47758 11.3789L1.44926 11.1973V11.0293L1.5059 10.7773L1.57523 10.5957L1.70121 10.3994L1.85551 10.2314L2.02348 10.1055L2.19145 10.0215L2.42875 9.95215L2.51273 9.9375H2.82035L3.14262 9.99414H3.26859L3.47855 9.95215L3.68852 9.86816L3.91215 9.74219L4.08012 9.62988L4.34574 9.43359L4.54203 9.29395L4.76566 9.12598L5.03129 8.93066L5.21293 8.77637L5.36723 8.65039L5.47855 8.53906L5.61918 8.35645L5.74516 8.14648L5.85648 7.9375L5.95512 7.6709L6.01078 7.3916L6.0391 7.11133L6.05277 6.74805L6.12211 6.44043L6.19242 6.25781L6.3184 6.03418L6.4307 5.88086L6.55668 5.74023L6.66801 5.62891L6.8643 5.48828L7.00395 5.4043L7.20023 5.32031L7.42387 5.25098L7.74516 5.20898H7.96977L8.26273 5.25098ZM8.20707 0.507812L8.38871 0.578125L8.54301 0.662109L8.68266 0.788086L8.75297 0.857422L8.85063 0.998047L8.94828 1.19336L8.99027 1.36133L9.01859 1.59961L9.15824 1.68359L9.31254 1.76758L9.70414 1.99121L10.0401 2.18652L10.4034 2.39648L10.7676 2.60645L11.1309 2.81641L11.3975 2.9707L11.7325 3.16602L12.0967 3.37598L12.502 3.61426L12.8379 3.80957L13.1319 3.97754L13.3135 4.08984L13.3702 4.0752L13.5098 3.97754L13.6914 3.89355L13.8594 3.85156L14.1114 3.83789L14.3067 3.86621L14.5313 3.94922L14.6846 4.04785L14.8252 4.17383L14.9649 4.35547L15.0625 4.5791L15.1045 4.77539V5.06934L15.0342 5.32031L14.9229 5.53027L14.7686 5.69824L14.6289 5.81055L14.4746 5.89453H14.4473L14.461 10.4834L14.4746 10.623L14.6426 10.707L14.8106 10.8613L14.9229 10.9873L15.0342 11.1973L15.0909 11.4062L15.1045 11.4766V11.7148L15.0342 11.9805L14.9229 12.1904L14.7686 12.3584L14.6426 12.4697L14.419 12.582L14.2793 12.624L14.1114 12.6523L13.8877 12.6377L13.7198 12.5957L13.5518 12.5264L13.4258 12.4424L13.3418 12.4697L13.1036 12.624L12.8379 12.792L12.4883 13.0156L12.1944 13.1973L11.8868 13.3936L11.5928 13.5752L11.3555 13.7295L11.0889 13.8975L10.7813 14.0928L10.4873 14.2744L10.25 14.4287L10.0401 14.5547L9.94242 14.5967H9.81645L9.67582 14.541L9.57816 14.457L9.5225 14.3447L9.50785 14.3027V14.1348L9.57816 13.9951L9.67582 13.8975L9.98441 13.7148L10.2217 13.5615L10.5293 13.3652L11.2012 12.9453L11.4668 12.7773L11.6905 12.6377L11.8868 12.5117L12.1524 12.3438L12.376 12.2041L12.6426 12.0361L12.9082 11.8682L12.9922 11.8125V11.4902L13.0342 11.2949L13.1182 11.085L13.1455 11.043L13.1319 10.959L12.8936 10.5537L12.6563 10.1611L12.4746 9.85352L12.334 9.62988L12.0684 9.18262L11.9991 9.07031H11.9707L11.7325 9.47559L11.6065 9.68555L11.4395 9.96582L11.2012 10.3574L10.9629 10.7627L10.7393 11.127L10.5713 11.4209L10.334 11.8125L10.1514 12.1201L9.94242 12.4697L9.78813 12.7217L9.66215 12.9316L9.48051 13.2393L9.38285 13.3379L9.25688 13.3936H9.10258L8.99027 13.3516L8.90629 13.2959L8.8223 13.1699L8.79496 13.0439L8.80863 12.918L8.89262 12.75L9.01859 12.54L9.20023 12.2461L9.34086 12.0088L9.57816 11.6162L9.69047 11.4209L9.87211 11.127L10.1104 10.7207L10.3477 10.3291L10.5157 10.0498L10.7256 9.7002L10.9629 9.30859L11.2012 8.90234L11.3692 8.62305L11.4952 8.41309L11.5225 8.35645L11.5088 8.27246L11.2989 7.92285L11.0332 7.47559L10.7959 7.08398L10.6836 6.90137L10.46 6.52441L10.25 6.17383L10.0118 5.78223L9.74613 5.33496L9.57816 5.05469L9.42484 4.80273L9.31254 4.62109L9.18656 4.39746L8.9766 4.04785L8.75297 3.68359L8.54301 3.32031L8.33305 2.9707L8.15141 2.66211L8.09574 2.60645H7.81547L7.60551 2.56445L7.4102 2.48047L7.2559 2.36914L7.21391 2.35449L7.05961 2.43848L6.73832 2.62012L6.4307 2.80273L6.13676 2.9707L5.82914 3.15234L5.4932 3.34766L5.18559 3.53027L4.82133 3.74023L4.45805 3.94922L4.14945 4.13184L3.85648 4.2998L3.54789 4.48145L3.24027 4.66309L3.10063 4.74707V5.04102L3.05863 5.2373L2.98832 5.4043L2.91898 5.53027L2.93266 5.60059L3.05863 5.82422L3.17094 6.00586L3.29691 6.21582L3.43656 6.4541L3.64652 6.80371L3.91215 7.25195L4.09379 7.54492L4.33207 7.9375L4.51371 8.24512L4.63969 8.45508L4.66801 8.55273V8.66504L4.61137 8.81836L4.54203 8.90234L4.42973 8.97266L4.37406 8.98633H4.20609L4.09379 8.93066L3.98246 8.83203L3.74418 8.42676L3.53422 8.07715L3.26859 7.62891L2.84867 6.92969L2.58305 6.48242L2.40141 6.18848L2.38676 9.1543L2.33109 9.30859L2.26078 9.3916L2.12113 9.46191H1.91117L1.77152 9.3916L1.68754 9.28027L1.64555 9.14062L1.63188 5.9082L1.46391 5.82422L1.33793 5.72656L1.25395 5.65625L1.14164 5.5166L1.05766 5.37695L0.98832 5.16699L0.96 4.99902V4.84473L0.98832 4.66309L1.04398 4.48145L1.15629 4.28516L1.3516 4.0752L1.57523 3.93555L1.77152 3.86621L2.02348 3.83789L2.21879 3.85156L2.41508 3.9082L2.61137 4.00586L2.7227 4.08984L2.79301 4.06152L3.04496 3.92188L3.35258 3.74023L3.71586 3.53027L4.09379 3.30566L4.45805 3.09668L4.65336 2.98438L4.9473 2.81641L5.28324 2.62012L5.52055 2.48047L5.85648 2.28516L6.12211 2.13086L6.52836 1.89258L6.8643 1.69727L6.87797 1.36133L6.93363 1.16602L7.04594 0.941406L7.15824 0.801758L7.32621 0.662109L7.5352 0.549805L7.73148 0.494141L7.85746 0.480469H8.0391L8.20707 0.507812ZM8.24906 9.19629L8.34672 9.30859L8.38871 9.40625V12.6377L8.33305 12.75L8.27738 12.8193L8.1934 12.876L8.09574 12.9033H7.94145L7.8018 12.834L7.68949 12.708L7.66117 12.6377V9.40625L7.73148 9.2666L7.82914 9.18262L7.92777 9.14062H8.12309L8.24906 9.19629ZM5.46488 10.1055L5.60453 10.1895L5.70316 10.3291L5.94047 10.7207L6.10844 11.001L6.29008 11.2949L6.52836 11.6865L6.69633 11.9668L6.87797 12.2598L6.91996 12.3301L6.93363 12.4004V12.5537L6.87797 12.6943L6.75199 12.8057L6.62602 12.8477H6.48637L6.34672 12.792L6.23441 12.6797L6.10844 12.4697L6.02445 12.3301L5.8848 12.0918L5.67484 11.7422L5.47855 11.4209L5.24125 11.0293L5.01762 10.665L4.97563 10.5537V10.3711L5.05961 10.2178L5.17094 10.1338L5.29691 10.0918L5.46488 10.1055ZM13.6075 6.2998L13.4678 6.53809L13.2295 6.92969L13.0342 7.26562L12.7686 7.71289L12.586 8.02051L12.418 8.30078L12.4327 8.35645L12.5586 8.56641L12.8243 9.01465L13.0616 9.40625L13.2715 9.75586L13.4395 10.0361L13.6211 10.3291L13.6778 10.4131H13.7051V6.17383H13.6914L13.6075 6.2998ZM8.87895 2.43848L9.11625 2.84473L9.28422 3.12402L9.54984 3.57227L9.7598 3.92188L9.9141 4.17383L10.1514 4.5791L10.3477 4.90137L10.46 5.08301L10.628 5.37695L10.8653 5.76855L11.0049 6.00586L11.1455 6.23047L11.2715 6.4541L11.3975 6.64941L11.5791 6.95801L11.7471 7.2373L11.9424 7.55957L11.9991 7.58691L12.1387 7.34961L12.3204 7.05566L12.544 6.67773L12.6563 6.48242L12.8243 6.20215L12.9776 5.9502L13.1739 5.61426L13.1875 5.55859L13.0616 5.34863L12.9922 5.11133L12.9776 5.02734V4.76074L12.8379 4.66309L12.5303 4.48145L12.167 4.27148L11.8584 4.08984L11.4952 3.87988L11.2295 3.72559L10.8936 3.53027L10.5996 3.3623L10.25 3.15234L9.92777 2.9707L9.59184 2.77441L9.25688 2.57812L8.87895 2.36914L8.85063 2.35449L8.87895 2.43848Z" fill="black"/>
</g>
<defs>
<clipPath id="clip0_12_167">
<rect width="16" height="16" fill="white"/>
</clipPath>
</defs>
</svg>
