<?xml version="1.0" standalone="no"?><!DOCTYPE svg PUBLIC "-//W3C//DTD SVG 1.1//EN" "http://www.w3.org/Graphics/SVG/1.1/DTD/svg11.dtd"><svg t="1726299355879" class="icon" viewBox="0 0 1024 1024" version="1.1" xmlns="http://www.w3.org/2000/svg" p-id="33399" xmlns:xlink="http://www.w3.org/1999/xlink" width="200" height="200"><path d="M0 0m64 0l896 0q64 0 64 64l0 896q0 64-64 64l-896 0q-64 0-64-64l0-896q0-64 64-64Z" fill="#FFBA30" p-id="33400"></path><path d="M767.31 468.611V255.55c0-22.133-27.734-44.572-56.479-43.164H312.2c-32.755 0-57.735 19.715-56.419 43.164l6.551 214.316h-49.745l0.551 169.286 127.898 85.255v85.255h341.02v-85.255l127.899-85.255 0.55-169.347h-49.897l6.735-1.194h-0.031z m-85.254 0h-42.612V340.744h-85.256v127.898h-85.285V340.744h-85.255v127.898h-42.613v-170.51l344.847-11.052v157.837l-3.826 23.725v-0.031z" fill="#FFFFFF" p-id="33401"></path></svg>