<?xml version="1.0" standalone="no"?><!DOCTYPE svg PUBLIC "-//W3C//DTD SVG 1.1//EN" "http://www.w3.org/Graphics/SVG/1.1/DTD/svg11.dtd"><svg t="1721205031912" class="icon" viewBox="0 0 1024 1024" version="1.1" xmlns="http://www.w3.org/2000/svg" p-id="32125" xmlns:xlink="http://www.w3.org/1999/xlink" width="200" height="200"><path d="M102.4 0h819.2c68.2496 0 102.4 34.1504 102.4 102.4v819.2c0 68.2496-34.1504 102.4-102.4 102.4H102.4c-68.2496 0-102.4-34.1504-102.4-102.4V102.4C0 34.1504 34.1504 0 102.4 0z" fill="#3AC4FF" p-id="32126"></path><path d="M512 204.8l142.6432 82.2784v167.3216L512 536.6784 369.3568 454.4V287.0784L512 204.8zM347.4432 487.3216l142.592 82.2784v167.3216L347.4432 819.2 204.8 736.9216v-167.3216l142.6432-82.2784z m329.1136 0L819.2 569.6v167.3216L676.5568 819.2l-142.592-82.2784v-167.3216l142.592-82.2784z" fill="#FFFFFF" p-id="32127"></path></svg>