<?xml version="1.0" standalone="no"?><!DOCTYPE svg PUBLIC "-//W3C//DTD SVG 1.1//EN" "http://www.w3.org/Graphics/SVG/1.1/DTD/svg11.dtd"><svg t="1687953817875" class="icon" viewBox="0 0 1024 1024" version="1.1" xmlns="http://www.w3.org/2000/svg" p-id="22838" width="200" height="200"><path d="M891.120941 435.079529a26.684235 26.684235 0 0 1-26.202353-25.901176V290.032941a42.827294 42.827294 0 0 0-22.708706-38.00847L507.000471 58.548706a43.008 43.008 0 0 0-45.417412 0L124.687059 250.277647c-13.974588 8.613647-22.708706 22.467765-22.708706 37.948235v65.656471c0 13.854118-12.167529 25.901176-26.142118 25.901176a26.684235 26.684235 0 0 1-26.202353-25.901176v-65.656471a96.376471 96.376471 0 0 1 48.911059-82.883764L435.440941 13.673412a98.725647 98.725647 0 0 1 97.761883 0l336.956235 191.668706a96.376471 96.376471 0 0 1 48.911059 82.944v119.145411c-1.807059 15.540706-12.227765 27.708235-27.949177 27.708236zM484.291765 963.584c-17.468235 0-33.129412-3.433412-48.850824-12.047059l-336.956235-193.475765a96.376471 96.376471 0 0 1-48.911059-82.883764V564.645647c0-13.854118 12.227765-25.901176 26.202353-25.901176 13.974588 0 26.142118 12.047059 26.142118 25.901176v110.531765c0 15.540706 8.734118 31.081412 22.708706 37.948235l336.956235 191.728941a43.008 43.008 0 0 0 45.417412 0l336.956235-191.668706c13.974588-8.673882 22.708706-22.467765 22.708706-38.00847v-72.58353c0-13.793882 12.227765-25.901176 26.202353-25.901176 13.974588 0 24.455529 10.360471 24.455529 25.901176v72.58353a96.376471 96.376471 0 0 1-48.911059 82.883764l-335.209411 191.728942c-15.721412 8.613647-33.129412 13.854118-48.911059 13.854117z" p-id="22839"></path><path d="M0.662588 514.529882c0 39.152941 32.045176 70.836706 71.619765 70.836706 39.514353 0 71.559529-31.744 71.559529-70.836706 0-39.152941-32.045176-70.836706-71.559529-70.836706-39.574588 0-71.619765 31.744-71.619765 70.836706zM817.814588 436.826353c0 39.152941 32.045176 70.776471 71.55953 70.776471 39.514353 0 71.559529-31.683765 71.559529-70.776471 0-39.152941-32.045176-70.836706-71.559529-70.836706-39.514353 0-71.559529 31.744-71.55953 70.836706zM789.865412 618.194824v-272.865883c0-24.214588-13.974588-46.682353-34.936471-60.53647L515.734588 148.359529c-20.961882-12.047059-48.911059-12.047059-69.872941 0l-239.134118 136.432942c-20.961882 12.107294-34.936471 34.575059-34.93647 60.476235v274.672941c0 24.094118 13.974588 46.561882 34.93647 60.416l239.134118 134.686118c20.961882 12.107294 48.911059 12.107294 69.872941 0l239.194353-136.432941c22.708706-12.047059 34.936471-34.514824 34.936471-60.416z" p-id="22840"></path><path d="M568.139294 616.448H493.025882L468.630588 543.924706H351.593412l-24.395294 72.523294H252.084706l116.976941-317.801412h80.353882l118.66353 317.801412zM454.656 490.315294l-36.743529-110.531765a268.468706 268.468706 0 0 1-5.180236-27.708235h-1.807059c0 8.673882-3.433412 19.034353-5.180235 27.708235L369.061647 490.315294h85.534118z m223.472941-193.475765v317.801412h-68.065882V296.96h68.065882z" p-id="22841" data-spm-anchor-id="a313x.7781069.0.i8" class="selected" fill="#72ADFF"></path></svg>