<?xml version="1.0" standalone="no"?><!DOCTYPE svg PUBLIC "-//W3C//DTD SVG 1.1//EN" "http://www.w3.org/Graphics/SVG/1.1/DTD/svg11.dtd"><svg t="1684464383800" class="icon" viewBox="0 0 1024 1024" version="1.1" xmlns="http://www.w3.org/2000/svg" p-id="6525" xmlns:xlink="http://www.w3.org/1999/xlink" width="200" height="200"><path d="M938.666667 192v640H85.333333v-640h853.333334z m-42.666667 42.666667H128v554.666666h768v-554.666666z" fill="#FFC106" p-id="6526"></path><path d="M332.586667 369.066667L234.666667 654.933333h50.773333l23.552-71.850666H407.466667l23.253333 71.808h50.773333L384.426667 369.109333H332.586667z m-8.746667 168.789333l34.389333-110.933333 34.133334 110.933333H323.84z m346.368-146.56c-17.322667-13.866667-44.928-21.632-82.090667-21.632h-66.261333v285.226667h46.592v-101.632h27.733333c65.578667 0 100.266667-31.914667 100.266667-92.074667 0.512-31.744-8.490667-55.338667-26.24-69.888z m-20.906667 70.698667c0 18.474667-5.845333 42.88-55.466666 42.88h-25.386667V417.493333h27.733333c36.181333 0.128 53.077333 14.293333 53.077334 44.501334z m93.44-92.330667H789.333333v285.226667h-46.592V369.664z" fill="#FFC106" p-id="6527"></path></svg>