<?xml version="1.0" standalone="no"?><!DOCTYPE svg PUBLIC "-//W3C//DTD SVG 1.1//EN" "http://www.w3.org/Graphics/SVG/1.1/DTD/svg11.dtd"><svg t="1693635759437" class="icon" viewBox="0 0 1024 1024" version="1.1" xmlns="http://www.w3.org/2000/svg" p-id="6742" xmlns:xlink="http://www.w3.org/1999/xlink" width="200" height="200"><path d="M0 0m64 0l896 0q64 0 64 64l0 896q0 64-64 64l-896 0q-64 0-64-64l0-896q0-64 64-64Z" fill="#59A3FF" p-id="6743"></path><path d="M780 212c17.673 0 32 14.327 32 32v88c0 17.673-14.327 32-32 32H244c-17.673 0-32-14.327-32-32v-88c0-17.673 14.327-32 32-32h536z m-452 40c-19.882 0-36 16.118-36 36s16.118 36 36 36 36-16.118 36-36-16.118-36-36-36zM780 660c17.673 0 32 14.327 32 32v88c0 17.673-14.327 32-32 32H244c-17.673 0-32-14.327-32-32v-88c0-17.673 14.327-32 32-32h536z m-452 40c-19.882 0-36 16.118-36 36s16.118 36 36 36 36-16.118 36-36-16.118-36-36-36zM780 436c17.673 0 32 14.327 32 32v88c0 17.673-14.327 32-32 32H244c-17.673 0-32-14.327-32-32v-88c0-17.673 14.327-32 32-32h536z m-452 40c-19.882 0-36 16.118-36 36s16.118 36 36 36 36-16.118 36-36-16.118-36-36-36z" fill="#FFFFFF" p-id="6744"></path></svg>