<?xml version="1.0" standalone="no"?><!DOCTYPE svg PUBLIC "-//W3C//DTD SVG 1.1//EN" "http://www.w3.org/Graphics/SVG/1.1/DTD/svg11.dtd"><svg t="1693876649309" class="icon" viewBox="0 0 1024 1024" version="1.1" xmlns="http://www.w3.org/2000/svg" p-id="12388" xmlns:xlink="http://www.w3.org/1999/xlink" width="200" height="200"><path d="M0 0m64 0l896 0q64 0 64 64l0 896q0 64-64 64l-896 0q-64 0-64-64l0-896q0-64 64-64Z" fill="#14CEAA" p-id="12389"></path><path d="M748 212c35.346 0 64 28.654 64 64l0.002 225.798C781.263 486.564 746.632 478 710 478c-127.025 0-230 102.975-230 230 0 37.43 8.94 72.77 24.803 104.004L276 812c-35.346 0-64-28.654-64-64V276c0-35.346 28.654-64 64-64h472zM484 442H380c-15.464 0-28 12.536-28 28 0 15.31 12.287 27.749 27.537 27.996L380 498h104c15.464 0 28-12.536 28-28s-12.536-28-28-28z m160-116H380c-15.464 0-28 12.536-28 28 0 15.31 12.287 27.749 27.537 27.996L380 382h264c15.464 0 28-12.536 28-28s-12.536-28-28-28z" fill="#FFFFFF" p-id="12390"></path><path d="M710 535c95.545 0 173 77.455 173 173s-77.455 173-173 173-173-77.455-173-173 77.455-173 173-173z m12.866 73h-25.732c-8.837 0-16 7.163-16 16v55.134H626c-8.837 0-16 7.163-16 16v25.732c0 8.837 7.163 16 16 16l55.134-0.001V792c0 8.837 7.163 16 16 16h25.732c8.837 0 16-7.163 16-16l-0.001-55.135 55.135 0.001c8.837 0 16-7.163 16-16v-25.732c0-8.837-7.163-16-16-16h-55.135l0.001-55.134c0-8.837-7.163-16-16-16z" fill="#FFFFFF" p-id="12391"></path></svg>