<?xml version="1.0" standalone="no"?><!DOCTYPE svg PUBLIC "-//W3C//DTD SVG 1.1//EN" "http://www.w3.org/Graphics/SVG/1.1/DTD/svg11.dtd"><svg t="1713171587841" class="icon" viewBox="0 0 1024 1024" version="1.1" xmlns="http://www.w3.org/2000/svg" p-id="36553" xmlns:xlink="http://www.w3.org/1999/xlink" width="200" height="200"><path d="M194.413714 709.924571a456.704 456.704 0 0 1-47.396571-56.685714L2.925714 800.182857c-4.242286 4.242286-1.024 12.726857 5.558857 14.701714l126.683429 40.228572a29.257143 29.257143 0 0 1 18.285714 18.139428l47.250286 138.532572c2.194286 6.509714 10.24 9.508571 14.409143 5.339428l184.246857-187.611428a449.609143 449.609143 0 0 1-204.8-119.588572z m823.588572 90.331429L876.982857 656.603429a449.097143 449.097143 0 0 1-254.171428 174.226285l182.930285 186.368c4.096 4.169143 12.214857 1.170286 14.482286-5.339428l47.250286-138.532572a29.257143 29.257143 0 0 1 18.285714-18.139428l126.683429-40.082286c6.582857-2.194286 9.874286-10.605714 5.632-14.848zM893.44 387.657143c0-214.016-170.422857-387.510857-380.342857-387.510857-209.993143 0-380.342857 173.641143-380.342857 387.584 0 213.942857 170.349714 387.510857 380.342857 387.510857 209.92 0 380.342857-173.568 380.342857-387.510857z m-166.985143-30.354286l-60.562286 84.772572a31.232 31.232 0 0 0-5.632 19.236571l4.169143 104.813714a30.134857 30.134857 0 0 1-39.277714 30.281143L527.36 564.004571a29.257143 29.257143 0 0 0-19.602286 0.365715l-96.548571 36.571428a29.988571 29.988571 0 0 1-40.374857-28.745143V467.382857a30.866286 30.866286 0 0 0-6.436572-19.017143l-63.853714-82.285714a30.72 30.72 0 0 1 14.189714-47.908571l97.938286-32.329143a30.208 30.208 0 0 0 15.652571-12.068572l57.051429-87.259428a29.696 29.696 0 0 1 49.298286-1.024l60.489143 84.845714c3.949714 5.558857 9.581714 9.581714 16.091428 11.483429l99.181714 28.306285a30.646857 30.646857 0 0 1 16.091429 47.323429z" p-id="36554"></path></svg>