<?xml version="1.0" standalone="no"?><!DOCTYPE svg PUBLIC "-//W3C//DTD SVG 1.1//EN" "http://www.w3.org/Graphics/SVG/1.1/DTD/svg11.dtd"><svg t="1683540262335" class="icon" viewBox="0 0 1024 1024" version="1.1" xmlns="http://www.w3.org/2000/svg" p-id="6487" xmlns:xlink="http://www.w3.org/1999/xlink" width="200" height="200"><path d="M178.761143 468.845714L31.378286 322.340571a102.546286 102.546286 0 0 1 0-145.700571l147.382857-146.285714c40.521143-40.228571 106.057143-40.228571 146.578286 0l147.382857 146.432c40.521143 40.228571 40.521143 105.472 0 145.700571l-147.382857 146.285714c-40.448 40.228571-106.057143 40.228571-146.578286 0z m732.452571 3.364572H684.032c-61.001143 0-110.445714-49.078857-110.445714-109.714286V136.630857c0-60.635429 49.444571-109.714286 110.445714-109.714286h227.181714c61.001143 0 110.445714 49.078857 110.445715 109.714286v225.865143c0 60.489143-49.444571 109.714286-110.445715 109.714286zM365.714286 1021.366857H138.532571c-61.001143 0-110.445714-49.005714-110.445714-109.714286V685.860571c0-60.708571 49.444571-109.714286 110.445714-109.714285H365.714286c61.001143 0 110.445714 49.005714 110.445714 109.714285v225.792c0 60.708571-49.517714 109.714286-110.445714 109.714286z m545.499428 0H684.032c-61.001143 0-110.445714-49.005714-110.445714-109.714286V685.860571c0-60.708571 49.444571-109.714286 110.445714-109.714285h227.181714c61.001143 0 110.445714 49.005714 110.445715 109.714285v225.792c0 60.708571-49.444571 109.714286-110.445715 109.714286z" p-id="6488"></path></svg>