<?xml version="1.0" standalone="no"?><!DOCTYPE svg PUBLIC "-//W3C//DTD SVG 1.1//EN" "http://www.w3.org/Graphics/SVG/1.1/DTD/svg11.dtd"><svg class="icon" width="200px" height="200.00px" viewBox="0 0 1024 1024" version="1.1" xmlns="http://www.w3.org/2000/svg"><path d="M759.389867 63.5904L892.142933 196.352a34.133333 34.133333 0 0 1 0 48.264533L802.176 334.574933 621.1584 153.557333 711.125333 63.5904a34.133333 34.133333 0 0 1 48.264534 0zM575.522133 199.1936l181.0176 181.0176-361.301333 361.301333a34.133333 34.133333 0 0 1-22.954667 9.984l-100.949333 3.4816a68.266667 68.266667 0 0 1-70.570667-70.5792l3.4816-100.949333a34.133333 34.133333 0 0 1 9.975467-22.954667l361.301333-361.301333z"  /><path d="M59.733333 836.266667m68.266667 0l768 0q68.266667 0 68.266667 68.266666l0 0q0 68.266667-68.266667 68.266667l-768 0q-68.266667 0-68.266667-68.266667l0 0q0-68.266667 68.266667-68.266666Z"  /></svg>