<?xml version="1.0" encoding="UTF-8"?>
<svg width="32px" height="33px" viewBox="0 0 32 33" version="1.1" xmlns="http://www.w3.org/2000/svg" xmlns:xlink="http://www.w3.org/1999/xlink">
    <title>形状结合</title>
    <defs>
        <linearGradient x1="13.8777165%" y1="7.15307972%" x2="69.8152157%" y2="75.2500763%" id="linearGradient-1">
            <stop stop-color="#C0B6F5" offset="0%"></stop>
            <stop stop-color="#827BF2" offset="100%"></stop>
        </linearGradient>
    </defs>
    <g id="页面-1" stroke="none" stroke-width="1" fill="none" fill-rule="evenodd">
        <g id="业务领域维度-" transform="translate(-261.000000, -613.000000)" fill="url(#linearGradient-1)">
            <path d="M277,645.496813 C285.836556,645.496813 293,638.333369 293,629.496813 C293,620.660257 285.836556,613.496813 277,613.496813 C268.163444,613.496813 261,620.660257 261,629.496813 C261,638.333369 268.163444,645.496813 277,645.496813 Z M276.99978,620.536813 L285.46964,625.395831 L285.46964,635.158177 L279.719151,638.456813 L277.936106,637.431341 L283.686615,634.132706 L283.686615,626.420861 L276.999759,622.587314 L270.313364,626.42084 L270.313364,634.132706 L276.019101,637.431341 L274.280849,638.456813 L268.53036,635.157736 L268.53036,625.395831 L276.99978,620.536813 Z M282.661165,631.547314 L282.661165,633.597794 L276.99978,636.852078 L271.338856,633.597794 L271.338856,631.547314 L276.99978,634.801577 L282.661165,631.547314 Z M282.661165,628.248679 L282.661165,630.29918 L276.99978,633.597794 L271.338856,630.29918 L271.338856,628.248679 L276.99978,631.547314 L282.661165,628.248679 Z M276.99978,623.746282 L282.661165,627.044918 L276.99978,630.29918 L271.338856,627.044918 L276.99978,623.746282 Z" id="形状结合"></path>
        </g>
    </g>
</svg>