<svg t="1687229704626" class="icon" viewBox="0 0 1059 1024" version="1.1" xmlns="http://www.w3.org/2000/svg" p-id="8585" width="200" height="200"><path d="M0 717.894621a83.367724 83.367724 0 0 0 83.367724 83.403034H493.991724v131.990069H227.29269a35.451586 35.451586 0 0 0 0 70.938483H831.558621a35.451586 35.451586 0 1 0 0-70.973793h-266.663724v-131.954759h410.588689a83.367724 83.367724 0 0 0 83.367724-83.403034v-45.02069H0v45.02069zM975.483586 0H83.332414A83.367724 83.367724 0 0 0 0 83.367724v518.567724h1058.85131V83.367724A83.367724 83.367724 0 0 0 975.483586 0z" p-id="8586"></path></svg>