<svg t="1699861812804" class="icon" viewBox="0 0 1024 1024" version="1.1" xmlns="http://www.w3.org/2000/svg" p-id="8008" width="200" height="200"><path d="M54.4 706.688c0 43.776 23.296 84.288 61.056 106.176l335.424 194.688c37.76 21.952 84.416 21.952 122.176 0l335.488-194.688c37.76-22.016 61.056-62.464 60.992-106.24V317.376c0-43.712-23.168-84.16-60.992-106.176L572.992 16.448a121.664 121.664 0 0 0-122.112 0L115.52 211.2c-37.824 21.952-61.12 62.4-61.056 106.112v389.376z m95.872-449.152L473.792 69.76a76.16 76.16 0 0 1 76.48 0l323.456 187.776c23.68 13.696 38.272 39.168 38.272 66.752v375.424c0 27.52-14.592 53.056-38.272 66.752L550.208 954.24a76.16 76.16 0 0 1-76.48 0l-323.392-187.776a77.12 77.12 0 0 1-38.4-66.752V324.288c0-27.52 14.656-53.056 38.336-66.752z" fill="#FFBA30" p-id="8009"></path><path d="M539.712 678.4h-166.4a27.712 27.712 0 0 1-27.776-27.712v-83.2a27.712 27.712 0 0 1 55.488 0v55.488h138.688v-55.488c0-15.36 12.48-27.776 27.776-27.776h166.4c15.36 0 27.776 12.48 27.776 27.776v166.4c0 15.36-12.416 27.776-27.712 27.776H567.488a27.712 27.712 0 0 1-27.776-27.712V678.4z m-55.424-277.376v55.488c0 15.36-12.48 27.776-27.776 27.776h-166.4a27.712 27.712 0 0 1-27.776-27.776v-166.4c0-15.36 12.416-27.776 27.712-27.776h166.464c15.36 0 27.776 12.416 27.776 27.712V345.6h166.4c15.36 0 27.776 12.416 27.776 27.776v83.2a27.712 27.712 0 1 1-55.488 0v-55.488H484.288zM317.824 428.8H428.8V317.824H317.824V428.8zM595.2 706.176h110.976V595.2H595.2v110.976z" fill="#FFBA30" p-id="8010"></path></svg>