<svg t="1703579006813" class="icon" viewBox="0 0 1024 1024" version="1.1" xmlns="http://www.w3.org/2000/svg" p-id="15848" width="200" height="200"><path d="M0 0h1024v1024H0z" fill="#FFFFFF" p-id="15849"></path><path d="M126.9 86.1H213v609.8h-86.1zM298.9 86.1h88v682h-88zM465.9 86.1h88v682h-88zM637.9 86.1h88v682h-88zM807.9 363.1h88v131h-88z" fill="#FFCC01" p-id="15850"></path><path d="M126.9 695.9H213v72.2h-86.1z" fill="#F70603" p-id="15851"></path><path d="M273.6 932.7c-6.5 3.4-14.7 5.1-24.5 5.1-12.7 0-22.8-4-30.3-12.1-7.6-8-11.3-18.7-11.3-31.9 0-14.2 4.3-25.7 12.8-34.3 8.5-8.7 19.3-13 32.4-13 8.4 0 15.4 1.2 20.9 3.6V862c-6.3-3.5-13.2-5.2-20.8-5.2-9.8 0-17.9 3.3-24.1 9.8-6.2 6.6-9.3 15.4-9.3 26.5 0 10.6 2.9 19 8.7 25.2 5.8 6.2 13.3 9.3 22.7 9.3 8.7 0 16.3-2 22.8-5.9v11z m16.2 3.7V843H301v93.3h-11.2v0.1z m29.7-85.3c0-2 0.7-3.6 2-5 1.3-1.3 3-2 5-2s3.7 0.7 5.1 2c1.4 1.3 2.1 3 2.1 5s-0.7 3.6-2.1 4.9c-1.4 1.3-3.1 2-5.1 2-2 0-3.7-0.7-5-2-1.3-1.3-2-2.9-2-4.9z m1.3 85.3v-63.1H332v63.1h-11.2z m74.7-2.9c-4.8 2.9-10.6 4.3-17.4 4.3-9.1 0-16.5-2.9-22-8.8-5.6-5.9-8.3-13.4-8.3-22.7 0-10.3 3-18.7 9-25 6-6.3 14-9.5 24-9.5 5.8 0 10.7 1 14.8 3.1V886c-4.4-3.3-9.4-4.9-14.8-4.9-6.4 0-11.6 2.2-15.6 6.6-4 4.4-6 10.3-6 17.7 0 7.3 1.9 12.9 5.7 17 3.8 4.1 8.9 6.2 15.3 6.2 5.4 0 10.6-1.8 15.4-5.4v10.3h-0.1z m68.6 2.9h-15.2l-27-30.4h-0.2v30.4h-11.2V843h11.2v59.2h0.2l25.6-28.9h14.4l-28.5 30.3 30.7 32.8z m78.9 0h-11.4v-39.8h-44.7v39.8h-11.4v-88.3h11.4v38.4h44.7v-38.4H543v88.3z m17.2-30.9c0-10.4 2.9-18.6 8.7-24.7 5.8-6 13.7-9 23.7-9 9.5 0 16.9 2.9 22.3 8.7 5.4 5.8 8.1 13.8 8.1 24 0 10-2.9 18-8.6 24.1-5.7 6.1-13.4 9.2-23.1 9.2-9.4 0-17-3-22.6-8.9-5.7-5.9-8.5-13.7-8.5-23.4z m11.4-0.3c0 7.3 1.8 13 5.5 17.2 3.7 4.2 8.6 6.3 14.8 6.3 6.4 0 11.3-2 14.6-6.1 3.3-4.1 5-9.9 5-17.6 0-7.7-1.7-13.6-5-17.7s-8.2-6.2-14.6-6.2c-6.3 0-11.2 2.1-14.9 6.4-3.6 4.3-5.4 10.2-5.4 17.7z m119.1 31.2h-11.2v-9.9h-0.2c-4.2 7.6-10.7 11.4-19.4 11.4-14.9 0-22.4-8.9-22.4-26.8v-37.7h11.1v36.1c0 12.8 4.9 19.2 14.7 19.2 4.9 0 8.8-1.8 11.8-5.4 3-3.6 4.5-8.1 4.5-13.6v-36.3h11.2l-0.1 63z m16.4-13.6c5.6 4.1 11.7 6.1 18.2 6.1 8.7 0 13.1-2.9 13.1-8.6 0-2.4-0.9-4.4-2.9-6-1.9-1.6-5.8-3.4-11.6-5.6-7-2.8-11.5-5.6-13.6-8.4-2.1-2.8-3.1-6.1-3.1-10 0-5.6 2.4-10.1 7.1-13.4 4.7-3.4 10.6-5 17.5-5 5.4 0 10.3 0.9 14.9 2.8v10.8c-4.7-3-10.1-4.6-16-4.6-3.6 0-6.5 0.8-8.7 2.3-2.2 1.6-3.4 3.6-3.4 6.2 0 2.5 0.8 4.5 2.4 5.9 1.6 1.4 5.2 3.2 10.7 5.4 7 2.6 11.8 5.3 14.3 8.2 2.5 2.8 3.7 6.3 3.7 10.4 0 5.8-2.4 10.3-7.1 13.7-4.7 3.3-10.9 5-18.4 5-6.5 0-12.2-1.2-17.1-3.7v-11.5zM816 907.7h-44.1c0.2 6.7 2 11.9 5.5 15.6 3.5 3.7 8.4 5.5 14.7 5.5 7.1 0 13.5-2.3 19.4-6.8v10c-5.6 3.9-12.9 5.9-22.1 5.9-9.1 0-16.2-2.9-21.4-8.7-5.1-5.8-7.7-13.8-7.7-24.1 0-9.7 2.8-17.6 8.4-23.9 5.6-6.3 12.6-9.4 20.9-9.4 8.2 0 14.7 2.7 19.3 8 4.6 5.3 7 12.7 7 22.3l0.1 5.6z m-11.2-8.9c0-5.7-1.4-10.1-4-13.2-2.7-3.1-6.4-4.7-11.2-4.7-4.4 0-8.3 1.7-11.5 5-3.2 3.3-5.3 7.6-6.1 12.9h32.8z" fill="#000000" p-id="15852"></path></svg>