<?xml version="1.0" standalone="no"?><!DOCTYPE svg PUBLIC "-//W3C//DTD SVG 1.1//EN" "http://www.w3.org/Graphics/SVG/1.1/DTD/svg11.dtd"><svg t="1704182764962" class="icon" viewBox="0 0 1024 1024" version="1.1" xmlns="http://www.w3.org/2000/svg" p-id="23777" xmlns:xlink="http://www.w3.org/1999/xlink" width="200" height="200"><path d="M512 512m-512 0a512 512 0 1 0 1024 0 512 512 0 1 0-1024 0Z" fill="#FFFFFF" p-id="23778"></path><path d="M512 512m-426.666667 0a426.666667 426.666667 0 1 0 853.333334 0 426.666667 426.666667 0 1 0-853.333334 0Z" fill="#1890FF" p-id="23779"></path><path d="M426.666667 192a64 64 0 0 1 63.402666 55.296L490.666667 256v277.333333H768a64 64 0 0 1 63.402667 55.296L832 597.333333a64 64 0 0 1-55.296 63.402667L768 661.333333H426.666667a64 64 0 0 1-63.402667-55.296L362.666667 597.333333V256A64 64 0 0 1 426.666667 192z" fill="#FFFFFF" p-id="23780"></path></svg>