<?xml version="1.0" standalone="no"?><!DOCTYPE svg PUBLIC "-//W3C//DTD SVG 1.1//EN" "http://www.w3.org/Graphics/SVG/1.1/DTD/svg11.dtd"><svg t="1685249534246" class="icon" viewBox="0 0 1052 1024" version="1.1" xmlns="http://www.w3.org/2000/svg" p-id="7181" xmlns:xlink="http://www.w3.org/1999/xlink" width="205.46875" height="200"><path d="M1047.019919 374.54005c6.341866 11.151115 7.1346 23.834847 3.065235 35.250206l-98.246078 431.141206a42.807597 42.807597 0 0 1-9.671346 20.505367 47.035508 47.035508 0 0 1-36.782824 17.281586H159.264345q-2.3782 0.634187-4.7564 1.004128a46.612717 46.612717 0 0 1-54.434352-43.441783L1.933213 407.834847a41.22213 41.22213 0 0 1-1.056977-20.928158 45.02725 45.02725 0 0 1 37.839801-35.672998 47.775392 47.775392 0 0 1 41.222131 13.106524l181.483072 123.190751 231.478117-246.857143a47.722543 47.722543 0 0 1 65.162676-3.540875l0.264244 0.211396c1.691164 1.374071 3.276631 2.906689 4.862097 4.492155l229.417011 244.637489 179.157721-121.710982a47.563997 47.563997 0 0 1 74.781173 8.772915v0.105697c0.105698 0.369942 0.369942 0.528489 0.47564 0.898432zM152.658234 935.900908c-25.631709 0-46.242775 19.765483-46.242775 44.023122 0 24.310487 20.716763 44.07597 46.242775 44.07597h746.543353c25.631709 0 46.242775-19.765483 46.242774-44.07597 0-24.363336-20.716763-44.023121-46.242774-44.023122H152.605385z" fill="#FAAD14" p-id="7182"></path><path d="M525.877061 0C447.924956 0 384.876236 60.142031 384.876236 134.289017s63.154418 134.289017 141.000825 134.289018 141.000826-60.142031 141.000826-134.236169C666.877887 60.089182 603.829167 0 525.92991 0z" fill="#FAAD14" p-id="7183"></path></svg>