<?xml version="1.0" standalone="no"?><!DOCTYPE svg PUBLIC "-//W3C//DTD SVG 1.1//EN" "http://www.w3.org/Graphics/SVG/1.1/DTD/svg11.dtd"><svg class="icon" width="200px" height="200.00px" viewBox="160 160 704 704" version="1.1" xmlns="http://www.w3.org/2000/svg"><path d="M218 218m32 0l160 0q32 0 32 32l0 160q0 32-32 32l-160 0q-32 0-32-32l0-160q0-32 32-32Z" /><path d="M218 582m32 0l160 0q32 0 32 32l0 160q0 32-32 32l-160 0q-32 0-32-32l0-160q0-32 32-32Z" /><path d="M582 218m32 0l160 0q32 0 32 32l0 160q0 32-32 32l-160 0q-32 0-32-32l0-160q0-32 32-32Z" /><path d="M697 528c72.902 0 132 59.098 132 132 0 23.452-6.116 45.475-16.84 64.562l59.12 59.12c10.934 10.934 10.934 28.663 0 39.597-10.935 10.935-28.664 10.935-39.599 0l-56.737-56.737C753.1 782.548 726.154 792 697 792c-72.902 0-132-59.098-132-132s59.098-132 132-132z m0 64c-37.555 0-68 30.445-68 68s30.445 68 68 68 68-30.445 68-68-30.445-68-68-68z" /></svg>
