<?xml version="1.0" standalone="no"?><!DOCTYPE svg PUBLIC "-//W3C//DTD SVG 1.1//EN" "http://www.w3.org/Graphics/SVG/1.1/DTD/svg11.dtd"><svg t="1698313262268" class="icon" viewBox="0 0 1024 1024" version="1.1" xmlns="http://www.w3.org/2000/svg" p-id="6807" xmlns:xlink="http://www.w3.org/1999/xlink" width="64" height="64"><path d="M0 0m64 0l896 0q64 0 64 64l0 896q0 64-64 64l-896 0q-64 0-64-64l0-896q0-64 64-64Z" fill="#F36D6D" p-id="6808"></path><path d="M568.895 853.316l-22.157-38.42 256.041-147.608v-301.24h44.314v314.046a22.156 22.156 0 0 1-11.123 19.189L568.894 853.316z m-110.695-0.134l-266.854-153.9a22.156 22.156 0 0 1-11.123-19.187V366.047h44.314V667.2l255.82 147.474-22.157 38.553v-0.045zM247.757 314.467l-22.156-38.42L497.906 119.09a22.245 22.245 0 0 1 22.156 0l272.172 156.957-22.157 38.42L508.939 163.89 247.757 314.467z m575.009 67.532c-35.766-1.307-64.085-30.68-64.085-66.47 0-35.788 28.32-65.161 64.085-66.469 35.765 1.308 64.084 30.68 64.084 66.47 0 35.789-28.32 65.162-64.084 66.47z m0-88.625a22.156 22.156 0 1 0 0 44.312c12.236 0 22.156-9.92 22.156-22.156 0-12.237-9.92-22.156-22.156-22.156zM137.15 315.929c1.302-35.77 30.677-64.095 66.47-64.095 35.794 0 65.168 28.325 66.47 64.095-1.302 35.77-30.676 64.094-66.47 64.094-35.793 0-65.168-28.325-66.47-64.094z m66.47-22.157c-12.236 0-22.155 9.92-22.155 22.157 0 12.236 9.92 22.156 22.156 22.156 12.236 0 22.156-9.92 22.156-22.156 0-12.237-9.92-22.157-22.156-22.157z m308.953 614.093c-35.77-1.302-64.095-30.677-64.095-66.47s28.326-65.168 64.095-66.47c35.77 1.302 64.095 30.677 64.095 66.47s-28.325 65.168-64.095 66.47z m-22.158-66.47c0 12.236 9.92 22.156 22.157 22.156s22.157-9.92 22.157-22.156c0-12.237-9.92-22.157-22.157-22.157s-22.158 9.92-22.158 22.157h0.001z" fill="#FFFFFF" p-id="6809"></path><path d="M512 228.684L304.07 348.713l209.28 120.818 207.916-120.028-209.268-120.819zM283.936 623.68l208.607 120.436V502.453L283.937 382.017v241.662zM531.45 504.02v240.095L740.063 623.68V383.585L531.45 504.021z" fill="#FFFFFF" p-id="6810"></path></svg>