<?xml version="1.0" standalone="no"?><!DOCTYPE svg PUBLIC "-//W3C//DTD SVG 1.1//EN" "http://www.w3.org/Graphics/SVG/1.1/DTD/svg11.dtd"><svg class="icon" width="200px" height="200.00px" viewBox="0 0 1024 1024" version="1.1" xmlns="http://www.w3.org/2000/svg"><path d="M47.908571 66.121143c0-36.498286 29.549714-66.048 66.048-66.048h359.643429c36.571429 0 66.048 29.549714 66.048 66.048v263.241143a66.048 66.048 0 0 1-66.048 66.048h-150.674286v38.546285h67.291429a28.891429 28.891429 0 1 1 0 57.856H197.339429a28.891429 28.891429 0 1 1 0-57.782857h67.584v-38.619428H113.956571a66.048 66.048 0 0 1-66.048-66.048V66.121143z m245.979429 271.433143h179.785143c4.461714 0 8.118857-3.657143 8.118857-8.192V66.121143a8.192 8.192 0 0 0-8.192-8.192H113.956571a8.192 8.192 0 0 0-8.192 8.192v263.241143c0 4.534857 3.657143 8.192 8.192 8.192h179.931429z m679.643429 555.52a66.048 66.048 0 0 1-66.048 66.048H547.84a66.048 66.048 0 0 1-66.048-66.048V596.48c0-36.498286 29.549714-66.048 66.048-66.048h359.643429c36.571429 0 66.048 29.549714 66.048 66.048v296.594286z m-57.782858-234.569143v-62.171429a8.192 8.192 0 0 0-8.265142-8.045714H547.84a8.192 8.192 0 0 0-8.192 8.192v62.025143h376.027429z m-376.100571 57.782857h376.027429v176.786286a8.192 8.192 0 0 1-8.192 8.192H547.84a8.192 8.192 0 0 1-8.192-8.192V716.361143z m399.945143-301.568l-81.188572-101.522286h52.224A255.268571 255.268571 0 0 0 655.36 57.929143a28.891429 28.891429 0 1 1 0-57.856 313.124571 313.124571 0 0 1 313.124571 313.124571h52.297143l-81.188571 101.522286zM81.92 559.323429l81.188571 101.449142h-52.297142a255.268571 255.268571 0 0 0 255.268571 255.268572 28.891429 28.891429 0 1 1 0 57.929143 313.124571 313.124571 0 0 1-313.051429-313.197715H0.731429l81.188571-101.449142z" /></svg>