<?xml version="1.0" standalone="no"?><!DOCTYPE svg PUBLIC "-//W3C//DTD SVG 1.1//EN" "http://www.w3.org/Graphics/SVG/1.1/DTD/svg11.dtd"><svg class="icon" width="200px" height="188.93px" viewBox="0 0 1084 1024" version="1.1" xmlns="http://www.w3.org/2000/svg"><path d="M976.173176 0.361412H106.435765A107.218824 107.218824 0 0 0 0.180706 106.676706v606.870588a107.218824 107.218824 0 0 0 106.255059 106.315294h869.737411a107.218824 107.218824 0 0 0 106.255059-106.315294V106.616471A107.218824 107.218824 0 0 0 976.173176 0.361412zM340.329412 549.345882a37.345882 37.345882 0 0 1 0 54.091294 38.128941 38.128941 0 0 1-27.105883 11.565177 38.128941 38.128941 0 0 1-27.045647-11.565177L143.179294 460.378353a37.345882 37.345882 0 0 1 0-54.151529L286.117647 263.228235a37.345882 37.345882 0 0 1 54.151529 0 37.345882 37.345882 0 0 1 0 54.091294L224.316235 433.272471 340.329412 549.345882z m284.069647-270.576941L533.564235 587.896471a38.791529 38.791529 0 0 1-36.743529 27.105882c-3.855059 0-7.710118 0-11.565177-1.987765a38.671059 38.671059 0 0 1-27.105882-48.308706l90.895059-309.187764a38.671059 38.671059 0 0 1 48.308706-27.105883c21.263059 7.770353 32.828235 30.960941 27.105882 50.296471z m315.030588 181.669647l-142.998588 142.998588a38.128941 38.128941 0 0 1-27.105883 11.565177 38.128941 38.128941 0 0 1-27.045647-11.565177 37.345882 37.345882 0 0 1 0-54.091294l115.952942-116.013176-115.952942-115.952941a37.345882 37.345882 0 0 1 0-54.091294 37.345882 37.345882 0 0 1 54.15153 0l142.998588 142.998588c15.480471 13.552941 15.480471 38.671059 0 54.151529z m-92.762353 515.97553H235.881412a38.791529 38.791529 0 0 1-38.550588-38.610824c0-21.263059 17.347765-38.671059 38.550588-38.671059h610.785882c21.263059 0 38.671059 17.408 38.671059 38.671059a38.791529 38.791529 0 0 1-38.671059 38.610824z" /></svg>