<?xml version="1.0" standalone="no"?><!DOCTYPE svg PUBLIC "-//W3C//DTD SVG 1.1//EN" "http://www.w3.org/Graphics/SVG/1.1/DTD/svg11.dtd"><svg t="1709533332435" class="icon" viewBox="0 0 1024 1024" version="1.1" xmlns="http://www.w3.org/2000/svg" p-id="9622" xmlns:xlink="http://www.w3.org/1999/xlink" width="64" height="64"><path d="M64 0h896c42.666667 0 64 21.333333 64 64v896c0 42.666667-21.333333 64-64 64h-896c-42.666667 0-64-21.333333-64-64v-896C0 21.333333 21.333333 0 64 0z" fill="#8894FF" p-id="9623"></path><path d="M322.005333 212.010667v77.994666c0 22.101333 17.92 39.978667 39.978667 39.978667h300.032c22.058667 0 39.978667-17.92 39.978667-39.978667V212.010667h45.994666a64 64 0 0 1 64 64V747.946667a64 64 0 0 1-64 64H276.053333a64 64 0 0 1-64-64V276.053333a64 64 0 0 1 64-64h45.994667z m322.005334 443.989333H379.989333a27.989333 27.989333 0 1 0 0 56.021333h264.021334a27.989333 27.989333 0 1 0 0-56.021333z m0-116.010667H379.989333a27.989333 27.989333 0 1 0 0 56.021334h264.021334a27.989333 27.989333 0 1 0 0-56.021334z m0-116.010666H379.989333a27.989333 27.989333 0 1 0 0 56.021333h264.021334a27.989333 27.989333 0 1 0 0-56.021333z" fill="#FFFFFF" p-id="9624"></path><path d="M363.989333 212.010667h296.021334V256a32 32 0 0 1-32 32H395.946667a32 32 0 0 1-32-32V212.010667z" fill="#FFFFFF" p-id="9625"></path></svg>