<?xml version="1.0" standalone="no"?><!DOCTYPE svg PUBLIC "-//W3C//DTD SVG 1.1//EN" "http://www.w3.org/Graphics/SVG/1.1/DTD/svg11.dtd"><svg t="1681117629683" class="icon" viewBox="0 0 1026 1024" version="1.1" xmlns="http://www.w3.org/2000/svg" p-id="4777" xmlns:xlink="http://www.w3.org/1999/xlink" width="200.390625" height="200"><path d="M485.517241 592.436966c-86.863448 0-174.256552-9.18069-219.347862-27.047725l173.232552 230.964966V1024h91.948138v-227.645793l173.126621-230.823724c-45.232552 17.725793-132.343172 26.906483-218.959449 26.906483" p-id="4778"></path><path d="M245.583448 464.013241H317.793103v-72.209655H245.583448z" p-id="4779"></path><path d="M483.29269 391.273931h60.627862V330.681379h-60.627862z" p-id="4780"></path><path d="M658.220138 440.072828h60.627862v-60.627862h-60.627862z" p-id="4781"></path><path d="M301.585655 360.977655h99.928276v-99.928276h-99.928276z" p-id="4782"></path><path d="M463.660138 286.931862h99.928276v-99.928276h-99.928276z" p-id="4783"></path><path d="M396.111448 481.986207h78.600828v-78.600828h-78.600828z" p-id="4784"></path><path d="M592.613517 342.828138h70.58538V272.242759h-70.58538z" p-id="4785"></path><path d="M546.215724 521.392552h82.873379v-82.87338h-82.873379z" p-id="4786"></path><path d="M646.17931 480.150069v58.297379h-117.018482v-80.048551a580.113655 580.113655 0 0 0-37.358345-1.730207v42.372413h-112.745931v-32.485517c-77.612138 14.689103-131.001379 42.619586-131.00138 61.687173 0 0.847448 0.353103 1.694897 0.635587 2.507034 7.768276 17.478621 96.150069 40.006621 236.826482 40.006621 138.169379 0 225.880276-21.715862 236.367449-39.088552a9.710345 9.710345 0 0 0 0.812138-3.425103c0-14.124138-29.554759-33.191724-76.517518-48.09269" p-id="4787"></path></svg>