<?xml version="1.0" standalone="no"?><!DOCTYPE svg PUBLIC "-//W3C//DTD SVG 1.1//EN" "http://www.w3.org/Graphics/SVG/1.1/DTD/svg11.dtd"><svg t="1681117639903" class="icon" viewBox="0 0 1024 1024" version="1.1" xmlns="http://www.w3.org/2000/svg" p-id="4934" xmlns:xlink="http://www.w3.org/1999/xlink" width="200" height="200"><path d="M488.838095 47.152762l16.091429 0.243809 15.993905 0.633905V186.758095h29.45219v194.169905a62.610286 62.610286 0 0 1-125.318095 0V186.758095H453.485714V48.274286c11.702857-0.682667 23.503238-1.072762 35.352381-1.072762z" p-id="4935"></path><path d="M671.012571 854.162286l-162.035809 94.110476v-188.464762l162.035809-94.208v188.562286z m-202.459428 94.110476l-162.084572-94.110476V665.6l162.084572 94.208v188.464762z m213.820952-647.363048H571.587048v37.351619c0 1.950476-0.146286 3.900952-0.24381 5.900191h86.016l169.691429 294.229333-81.92 142.140953h-33.645715V630.491429a20.284952 20.284952 0 0 0-10.093714-17.456762L498.93181 495.420952a20.48 20.48 0 0 0-20.333715 0l-202.459428 117.613715a20.333714 20.333714 0 0 0-10.044953 17.456762v150.040381H230.15619l-81.92-142.140953 169.691429-294.229333h85.040762a70.41219 70.41219 0 0 1-0.292571-5.851429V300.860952h-109.714286l-194.706286 337.432381 100.010667 173.446096h67.827809v53.979428c0 7.216762 3.900952 13.848381 10.044953 17.505524l202.459428 117.51619a20.041143 20.041143 0 0 0 20.333715 0l202.459428-117.51619a20.23619 20.23619 0 0 0 10.044952-17.505524v-53.979428h65.584762l100.010667-173.397334-194.657524-337.481143z" p-id="4936"></path><path d="M519.119238 317.342476a29.549714 29.549714 0 0 1-59.196952 0 29.647238 29.647238 0 1 1 59.196952 0z" p-id="4937"></path></svg>