<?xml version="1.0" standalone="no"?><!DOCTYPE svg PUBLIC "-//W3C//DTD SVG 1.1//EN" "http://www.w3.org/Graphics/SVG/1.1/DTD/svg11.dtd"><svg t="1693643422943" class="icon" viewBox="0 0 1024 1024" version="1.1" xmlns="http://www.w3.org/2000/svg" p-id="13112" xmlns:xlink="http://www.w3.org/1999/xlink" width="200" height="200"><path d="M898.59072 293.13536a81.92 81.92 0 0 1-36.54144 35.9424l-314.11712 155.2384a81.92 81.92 0 0 1-72.58624 0L161.2288 329.07264c-40.56064-20.0448-57.1904-69.1712-37.15072-109.73184a81.92 81.92 0 0 1 35.9424-36.54144L474.14784 21.08928a81.92 81.92 0 0 1 74.99264 0l314.11712 161.7152c40.22272 20.7104 56.04864 70.10816 35.33824 110.336zM87.04 437.73952a81.92 81.92 0 0 1 35.62496 8.15104l286.72 138.4704A81.92 81.92 0 0 1 455.68 658.12992v276.29056c0 45.24544-36.67456 81.92-81.92 81.92a81.92 81.92 0 0 1-35.62496-8.15104l-286.72-138.4704A81.92 81.92 0 0 1 5.12 795.95008v-276.29056c0-45.24544 36.67456-81.92 81.92-81.92zM936.96 437.73952a81.92 81.92 0 0 0-35.62496 8.15104l-286.72 138.4704A81.92 81.92 0 0 0 568.32 658.12992v276.29056c0 45.24544 36.67456 81.92 81.92 81.92a81.92 81.92 0 0 0 35.62496-8.15104l286.72-138.4704A81.92 81.92 0 0 0 1018.88 795.95008v-276.29056c0-45.24544-36.67456-81.92-81.92-81.92z" p-id="13113"></path></svg>