<?xml version="1.0" standalone="no"?><!DOCTYPE svg PUBLIC "-//W3C//DTD SVG 1.1//EN" "http://www.w3.org/Graphics/SVG/1.1/DTD/svg11.dtd"><svg t="1684464380244" class="icon" viewBox="0 0 1024 1024" version="1.1" xmlns="http://www.w3.org/2000/svg" p-id="6375" xmlns:xlink="http://www.w3.org/1999/xlink" width="200" height="200"><path d="M665.6 128l204.8 204.8h-204.8z" fill="#00BDD4" p-id="6376"></path><path d="M153.6 128v768h716.8V384h-51.2v460.8H204.8V179.2h409.6V128z" fill="#00BDD4" p-id="6377"></path><path d="M658.602667 617.813333c-21.589333 28.501333-90.453333 49.365333-172.202667 49.365334-81.664 0-150.613333-20.821333-172.202667-49.365334-4.565333-6.016-6.997333-2.816-6.997333 0.170667v41.856c0 40.533333 80.213333 82.56 179.2 82.56 98.986667 0 179.2-42.026667 179.2-82.56v-41.813333c0-2.986667-2.474667-6.272-6.997333-0.213334z m0.256-128.256c-21.205333 27.178667-90.410667 47.061333-172.458667 47.061334-82.048 0-151.253333-19.882667-172.458667-47.061334-4.394667-5.546667-6.741333-2.56-6.741333 0v53.034667c0 39.68 80.213333 71.808 179.2 71.808 98.986667 0 179.2-32.128 179.2-71.808v-53.034667c0-2.56-2.346667-5.589333-6.741333 0zM486.4 332.8c-98.986667 0-179.2 27.093333-179.2 60.501333v28.928c0 35.413333 80.213333 64.170667 179.2 64.170667 98.986667 0 179.2-28.714667 179.2-64.170667v-28.928c0-33.408-80.213333-60.501333-179.2-60.501333z" fill="#00BDD4" p-id="6378"></path></svg>