<?xml version="1.0" standalone="no"?><!DOCTYPE svg PUBLIC "-//W3C//DTD SVG 1.1//EN" "http://www.w3.org/Graphics/SVG/1.1/DTD/svg11.dtd"><svg t="1666072644982" class="icon" viewBox="0 0 1024 1024" version="1.1" xmlns="http://www.w3.org/2000/svg" p-id="2880" xmlns:xlink="http://www.w3.org/1999/xlink" width="200" height="200"><path d="M512 32A480 480 0 0 0 32 512a480 480 0 0 0 480 480 480 480 0 0 0 480-480A480 480 0 0 0 512 32z m225.943 659.314a30.171 30.171 0 0 1 0.48 42.515 30.171 30.171 0 0 1-42.514 0.48L512 553.966 328.091 734.17a29.966 29.966 0 1 1-41.965-42.925L469.143 512 286.057 332.686a30.171 30.171 0 0 1-0.548-42.515 30.171 30.171 0 0 1 42.514-0.48L512 470.034 695.909 289.83a29.966 29.966 0 1 1 41.965 42.925L554.857 512l183.086 179.314z" p-id="2881"></path></svg>