<?xml version="1.0" standalone="no"?><!DOCTYPE svg PUBLIC "-//W3C//DTD SVG 1.1//EN" "http://www.w3.org/Graphics/SVG/1.1/DTD/svg11.dtd"><svg class="icon" width="64px" height="64.00px" viewBox="0 0 1024 1024" version="1.1" xmlns="http://www.w3.org/2000/svg"><path d="M0 0m128 0l768 0q128 0 128 128l0 768q0 128-128 128l-768 0q-128 0-128-128l0-768q0-128 128-128Z" fill="#3184FE" /><path d="M247.04 679.04c57.6-9.6 119.04-27.52 183.04-53.76V569.6c-38.4 16.64-75.52 30.08-112 40.32 33.28-47.36 73.6-122.24 122.24-224l-53.12-19.84c-12.16 26.24-23.68 51.2-33.92 74.24-20.48 3.84-40.96 6.4-61.44 8.96 29.44-48 57.6-110.08 85.76-186.24l-58.24-23.04c-21.12 70.4-45.44 134.4-72.96 192-7.68 10.88-16 18.56-25.6 22.4l15.36 55.68c31.36-5.12 61.44-9.6 90.24-14.08-26.88 52.48-49.92 88.96-67.84 110.72-7.68 7.04-16.64 12.8-27.52 17.28l16 55.04z m295.68 153.6v-33.28h266.24v-56.32h-108.16v-81.92h84.48v-55.68h-84.48V533.76h84.48v-55.68h-84.48V405.12h95.36v-57.6H704c-7.68-32-19.2-67.2-33.28-106.24l-58.88 16c12.8 28.8 24.32 58.88 34.56 90.24H547.2c11.52-29.44 21.12-59.52 28.8-90.88l-57.6-11.52c-19.84 86.4-53.76 166.4-101.76 239.36l18.56 61.44c17.92-23.04 33.92-46.72 49.28-71.04v357.76h58.24z m99.84-354.56H542.72V405.12h99.84v72.96z m0 127.36H542.72V533.76h99.84v71.68z m0 137.6H542.72v-81.92h99.84v81.92zM229.12 812.8c80.64-14.72 152.32-33.92 215.04-57.6v-58.24c-63.36 23.04-137.6 41.6-222.72 55.04l7.68 60.8z" fill="#FFFFFF" /></svg>