<?xml version="1.0" standalone="no"?><!DOCTYPE svg PUBLIC "-//W3C//DTD SVG 1.1//EN" "http://www.w3.org/Graphics/SVG/1.1/DTD/svg11.dtd"><svg t="1701999587602" class="icon" viewBox="0 0 1024 1024" version="1.1" xmlns="http://www.w3.org/2000/svg" p-id="20650" xmlns:xlink="http://www.w3.org/1999/xlink" width="200" height="200"><path d="M963.072 633.429333s6.395733 4.795733 15.982933 9.591467l43.268267-165.312c6.395733-24.0896-7.991467-48.1792-30.481067-54.570667l-129.809066-35.281066c14.3872 7.991467 43.272533 22.493867 75.349333 25.685333-7.9872 3.2-22.3744 6.4-35.2768 7.995733l83.345067 22.4896c11.1872 3.2 19.178667 16.098133 15.982933 27.285334l-81.745067 306.538666c3.2 12.7872 4.795733 28.885333 1.6 43.383467 6.391467-6.391467 12.7872-14.498133 15.982934-24.0896l35.2768-131.6352c-11.072-7.991467-9.472-32.081067-9.472-32.081067z m-54.455467 171.707734c-4.795733 3.2-11.191467 4.795733-17.582933 3.2l-275.5968-73.8688c-25.685333-4.795733-65.646933-9.591467-107.319467-6.391467l378.120534 101.149867c3.2 1.6 7.991467 1.6 11.1872 1.6 1.4848-6.395733 6.395733-16.098133 11.191466-25.685334zM38.549333 495.402667l70.442667-263.266134c3.2-11.191467 15.982933-19.293867 27.285333-16.098133l724.2752 194.197333c-4.795733-7.991467-4.795733-19.293867-4.795733-24.0896L169.8432 203.2512c4.795733 6.391467 11.1872 12.7872 17.578667 17.693867-12.782933-4.791467-36.872533-12.782933-49.664-27.285334-22.3744-3.195733-44.864 9.591467-49.659734 32.085334l-70.442666 263.150933c6.4 3.2 12.791467 4.795733 20.893866 6.506667z m286.788267 162.116266c-9.591467 3.2-19.178667 6.395733-27.285333 4.795734-6.395733-1.6-11.1872-7.991467-12.7872-16.098134l-15.982934-4.795733-14.3872 19.293867 227.421867 60.970666c7.991467-4.8 17.578667-11.191467 27.285333-16.1024l-184.264533-48.064z m-59.2512-16.098133L38.549333 580.458667c-11.1872-3.2-19.178667-16.098133-15.982933-27.285334l12.7872-46.583466c-7.991467 1.6-15.982933 1.6-24.0896 1.6l-9.5872 38.472533c-6.395733 24.0896 7.991467 48.1792 30.481067 54.570667l189.056 51.3792c12.791467-1.6 31.970133-4.795733 44.872533-11.191467z" fill="#FAAD14" opacity=".85" p-id="20651"></path><path d="M380.416 484.253867l21.205333-79.1296-146.389333-39.223467-3.712 13.845333 131.946667 35.357867-13.832534 51.626667-109.789866-29.4144 7.842133-29.277867-14.242133-3.818667-27.8272 103.8592c-4.347733 16.221867 1.339733 26.6496 17.365333 30.941867l107.217067 28.731733c8.413867 1.8304 15.5264 1.403733 20.992-1.5872 6.126933-3.869867 13.410133-17.608533 21.960533-41.608533l-12.680533-8.064c-7.018667 21.444267-12.983467 33.416533-17.890134 35.9168-3.605333 1.578667-7.880533 1.706667-12.629333 0.4352l-99.306667-26.6112c-9.096533-2.436267-12.4288-8.2048-10.094933-16.913067l15.637333-58.3552 124.228267 33.288534zM485.009067 415.172267c-16.669867 28.1856-37.632 51.8272-62.592 70.583466l0.725333 16.3072a246.656 246.656 0 0 0 24.610133-19.063466l-29.418666 109.794133 14.442666 3.869867 36.0448-134.519467c10.026667-11.306667 19.328-23.867733 27.8016-37.290667l-11.613866-9.685333z m73.591466 19.716266l-15.0784-1.493333c0.955733 5.1328 1.608533 10.606933 2.013867 16.226133l-51.831467-13.888-3.392 12.663467 122.453334 32.810667 3.392-12.663467-56.379734-15.104c-0.2816-6.8608-0.5248-13.073067-1.1776-18.551467z m-58.304 28.48l-10.018133 37.3888 94.165333 25.2288 10.013867-37.3888-94.165333-25.2288z m73.211734 48.029867l-66.4704-17.813333 4.189866-15.624534 66.466134 17.809067-4.1856 15.6288z m23.483733 30.250667l-124.629333-33.3952-9.0624 33.826133 13.256533 3.554133-2.389333 8.900267 43.328 11.605333-7.637334 28.488534c-1.1648 4.352-4.373333 6.037333-9.514666 4.6592-6.528-1.749333-13.149867-3.946667-20.164267-6.250667l-0.7424 14.6432 22.357333 5.9904c11.4688 3.072 18.888533-0.874667 21.751467-11.5584l8.5888-32.042667 42.7264 11.447467 2.389333-8.904533 10.679467 2.862933 9.0624-33.826133z m-118.941867 0.7808l4.821334-18.005334 97.134933 26.026667-4.8256 18.005333-97.130667-26.026666zM658.530133 536.721067l50.244267 13.4656-9.275733 34.619733-50.244267-13.4656 9.275733-34.619733z m-13.568 47.4624l51.037867 13.678933-15.530667 57.9584 14.638934 3.925333 15.530666-57.962666 53.806934 14.421333-9.220267 34.414933c-2.2272 8.311467-7.099733 11.456-14.2208 9.5488-6.724267-1.800533-13.9392-4.16-21.7472-6.673066l-0.004267 15.0528 22.749867 6.0928c13.845333 3.712 22.626133-1.3568 26.338133-15.2064l39.701334-148.164267-147.3792-39.492267-25.442134 94.954667c-7.658667 26.9952-20.177067 47.598933-37.5552 61.815467l8.285867 12.608c17.109333-13.226667 30.050133-32.234667 39.010133-56.9728z m122.9824 18.961066l-53.802666-14.421333 9.271466-34.615467 53.806934 14.421334-9.275734 34.615466z m12.829867-47.872l-53.806933-14.421333 9.1136-34.0224 53.806933 14.421333-9.1136 34.0224z m-59.332267-52.3648l-9.1136 34.0224-50.248533-13.461333 9.117867-34.026667 50.244266 13.4656z" fill="#FAAD14" fill-opacity=".45" opacity=".85" p-id="20652"></path></svg>