<svg t="1703579055559" class="icon" viewBox="0 0 1024 1024" version="1.1" xmlns="http://www.w3.org/2000/svg" p-id="15994" width="200" height="200"><path d="M0 0h1024v1024H0z" fill="#FFFFFF" p-id="15995"></path><path d="M398.513 107.498c31.04-30.987 81.866-31.502 112.896-0.504l62.318 62.232A79.293 79.293 0 0 1 597 225.334a79.293 79.293 0 0 1-23.273 56.108l-45.97 45.907a15.903 15.903 0 0 1-11.24 4.651c-4.217 0-8.26-1.673-11.24-4.651l-107.26-107.11c-31.03-30.998-30.514-81.753 0.506-112.74h-0.01z" fill="#4FA7C7" p-id="15996"></path><path d="M323 227.5c0-12.885 15.495-19.357 24.575-10.225L482.788 353.27c5.616 5.649 5.616 14.81 0 20.47L347.575 509.733c-9.08 9.113-24.575 2.66-24.575-10.244V227.5z" fill="#5568A7" p-id="15997"></path><path d="M401.49 615.506c-30.981-30.98-31.486-81.724-0.505-112.705L601.409 302.37c21.94-21.92 31.624-41.812 34.69-70.369l74.454 74.454c31.263 31.265 31.263 81.953 0 113.219L514.204 616.02c-30.98 30.98-81.724 30.466-112.705-0.514h-0.01z" fill="#75C6A7" p-id="15998"></path><path d="M211.799 894c9.525 0 17.957-0.895 25.298-2.686 7.34-1.79 13.606-4.422 18.799-7.895 5.192-3.473 9.972-8.236 14.34-14.287 4.369-6.052 7.95-13.696 10.743-22.935 2.792-9.238 4.189-19.837 4.189-31.797 0-14.036-2.059-26.515-6.177-37.436-4.118-10.921-10.33-19.891-18.637-26.91-6.374-5.442-14.073-9.202-23.096-11.279-6.446-1.504-15.791-2.255-28.037-2.255h-54.248V894h56.826z m-2.363-18.584h-33.624V755.104h33.086c12.39 0 21.377 1.074 26.963 3.222 7.735 3.008 14.305 8.934 19.712 17.778 5.407 8.845 8.11 21.503 8.11 37.974 0 11.888-1.378 22.004-4.135 30.347-2.757 8.343-6.607 14.985-11.548 19.927-3.51 3.509-8.218 6.23-14.126 8.164-5.908 1.933-14.054 2.9-24.438 2.9z m183.378 21.27c13.679 0 26.426-3.241 38.243-9.722 11.816-6.481 20.947-16.024 27.392-28.628 6.446-12.604 9.668-26.891 9.668-42.861 0-15.756-3.061-29.846-9.184-42.27-6.123-12.426-15.022-22.112-26.695-29.059-11.673-6.946-24.778-10.42-39.316-10.42-22.2 0-40.32 7.395-54.356 22.183-14.036 14.789-21.054 35.252-21.054 61.392 0 13.821 3.008 26.927 9.023 39.316 6.016 12.39 14.86 22.165 26.533 29.326 11.674 7.162 24.922 10.743 39.746 10.743z m-0.107-17.832c-15.397 0-28.198-5.461-38.403-16.382-10.205-10.922-15.308-25.871-15.308-44.849 0-23.704 5.317-40.623 15.952-50.757 10.635-10.133 23.329-15.2 38.081-15.2 10.384 0 19.748 2.632 28.091 7.896 8.343 5.263 14.681 12.675 19.014 22.236 4.332 9.56 6.499 20.75 6.499 33.57 0 20.266-5.067 35.914-15.2 46.943-10.134 11.028-23.042 16.543-38.726 16.543zM526.135 894v-69.932h24.17c5.37 0 9.238 0.251 11.601 0.752 3.223 0.788 6.392 2.185 9.507 4.19 3.115 2.005 6.642 5.514 10.581 10.527 3.939 5.013 8.952 12.246 15.04 21.7L617.872 894h26.211l-27.393-42.861c-5.442-8.38-11.207-15.362-17.295-20.948-2.864-2.578-7.054-5.192-12.568-7.841 15.11-2.077 26.283-6.947 33.516-14.61 7.233-7.663 10.85-17.08 10.85-28.252 0-8.665-2.185-16.578-6.553-23.74-4.369-7.161-10.205-12.157-17.51-14.985-7.305-2.83-17.975-4.243-32.012-4.243h-69.824V894h20.84z m44.795-87.979h-44.795v-52.1h49.844c11.673 0 20.213 2.4 25.62 7.198s8.11 10.921 8.11 18.37c0 5.084-1.396 9.793-4.19 14.125-2.792 4.333-6.874 7.484-12.246 9.453-5.37 1.97-12.819 2.954-22.343 2.954zM698.234 894V736.52h-20.84V894h20.84z m106.787 2.686c11.244 0 21.36-2.06 30.347-6.177 8.988-4.118 15.88-9.883 20.679-17.295 4.798-7.412 7.197-15.308 7.197-23.687 0-8.45-2.184-15.916-6.553-22.397-4.368-6.481-11.136-11.834-20.302-16.06-6.302-2.864-17.922-6.212-34.859-10.044-16.937-3.831-27.41-7.573-31.42-11.225-4.083-3.653-6.124-8.308-6.124-13.965 0-6.517 2.883-12.085 8.648-16.704 5.765-4.62 14.95-6.929 27.553-6.929 12.103 0 21.252 2.542 27.447 7.627 6.194 5.085 9.829 12.604 10.903 22.559l19.98-1.504c-0.357-9.239-2.936-17.51-7.734-24.815-4.798-7.304-11.655-12.837-20.571-16.596-8.916-3.76-19.21-5.64-30.884-5.64-10.599 0-20.231 1.79-28.896 5.371-8.666 3.58-15.254 8.827-19.766 15.737-4.512 6.911-6.768 14.341-6.768 22.29 0 7.233 1.845 13.768 5.533 19.605 3.688 5.837 9.292 10.724 16.811 14.663 5.801 3.08 15.934 6.356 30.4 9.83 2.526 0.606 4.896 1.184 7.11 1.735l1.192 0.298c9.804 2.457 16.382 4.34 19.736 5.647 6.588 2.506 11.315 5.604 14.18 9.292 2.864 3.688 4.296 8.003 4.296 12.944 0 4.87-1.486 9.364-4.458 13.482-2.972 4.117-7.501 7.358-13.589 9.721-6.087 2.364-13.105 3.545-21.054 3.545-8.952 0-17.009-1.557-24.17-4.673-7.162-3.115-12.443-7.197-15.845-12.246-3.402-5.049-5.568-11.512-6.499-19.39l-19.658 1.72c0.286 10.527 3.169 19.962 8.647 28.305 5.479 8.343 13.034 14.591 22.666 18.745 9.632 4.154 21.574 6.23 35.825 6.23z" fill="#000000" p-id="15999"></path></svg>