<?xml version="1.0" standalone="no"?><!DOCTYPE svg PUBLIC "-//W3C//DTD SVG 1.1//EN" "http://www.w3.org/Graphics/SVG/1.1/DTD/svg11.dtd"><svg t="1688379074716" class="icon" viewBox="0 0 1024 1024" version="1.1" xmlns="http://www.w3.org/2000/svg" p-id="22290" xmlns:xlink="http://www.w3.org/1999/xlink" width="200" height="200"><path d="M511.7952 460.0832c194.2016 0 351.8464-58.0608 351.8464-130.0992V226.0992c0-72.0384-157.6448-130.0992-351.8464-130.0992-194.1504 0-351.7952 58.0608-351.7952 130.0992v103.8848c0 71.6288 157.2864 130.0992 351.7952 130.0992z" fill="#FF8600" fill-opacity=".85" p-id="22291"></path><path d="M511.7952 694.016c194.2016 0 351.8464-58.0608 351.8464-130.0992V407.9616c0 72.0384-157.6448 130.0992-351.8464 130.0992-194.1504 0-351.7952-58.0608-351.7952-130.0992v155.9552c0 71.68 157.2864 130.0992 351.7952 130.0992z" fill="#FF8600" fill-opacity=".85" p-id="22292"></path><path d="M511.7952 772.0448c-194.1504 0-351.4368-58.0608-351.4368-130.1504v156.0064c0 71.6288 157.2864 130.0992 351.8464 130.0992 194.1504 0 351.7952-58.0608 351.7952-130.0992v-156.0064c-0.3584 72.0896-158.0032 130.1504-352.2048 130.1504z" fill="#FF8600" fill-opacity=".85" p-id="22293"></path></svg>