<?xml version="1.0" standalone="no"?><!DOCTYPE svg PUBLIC "-//W3C//DTD SVG 1.1//EN" "http://www.w3.org/Graphics/SVG/1.1/DTD/svg11.dtd"><svg class="icon" width="200px" height="200.00px" viewBox="0 0 1024 1024" version="1.1" xmlns="http://www.w3.org/2000/svg"><path d="M207.36 512c0 50.688-41.472 92.16-92.16 92.16s-92.16-41.472-92.16-92.16 41.472-92.16 92.16-92.16 92.16 41.472 92.16 92.16z m793.6 0c0 50.688-41.472 92.16-92.16 92.16s-92.16-41.472-92.16-92.16 41.472-92.16 92.16-92.16c51.2 0 92.16 41.472 92.16 92.16z m-396.8 0c0 50.688-41.472 92.16-92.16 92.16s-92.16-41.472-92.16-92.16 41.472-92.16 92.16-92.16 92.16 41.472 92.16 92.16z" fill="#126ee3" /></svg>