<?xml version="1.0" encoding="UTF-8"?>
<svg width="16px" height="14px" viewBox="0 0 16 14" version="1.1" xmlns="http://www.w3.org/2000/svg" xmlns:xlink="http://www.w3.org/1999/xlink">
    <title>fact-table</title>
   
    <g id="控件" stroke="none" stroke-width="1" fill="none" fill-rule="evenodd">
        <g id="fact-table" transform="translate(0.000000, -3.000000)" >
            <g transform="translate(0.000000, 3.000000)">
                <path d="M5.08378623,8.80503145 L0.0113224694,8.80503145 L0.0113224694,5.13626835 L5.08378623,5.13626835 L5.08378623,8.80503145 Z M10.8808877,9.53878407 L10.8808877,13.9412998 L15.0475543,13.9412998 C15.5475795,13.9407312 15.9527899,13.5304238 15.9533514,13.024109 L15.9533514,9.53878407 L10.8808877,9.53878407 Z M10.8808877,8.80503145 L15.9533514,8.80503145 L15.9533514,5.13626835 L10.8808877,5.13626835 L10.8808877,8.80503145 Z M15.9533514,4.40251572 L15.9533514,0.91719077 C15.9527899,0.410876023 15.5475795,0.000568645045 15.0475543,4.88777432e-16 L0.917119565,4.88777432e-16 C0.417094442,0.000568645045 0.0118840506,0.410876023 0.0113224694,0.91719077 L0.0113224694,4.40251572 L15.9533514,4.40251572 Z M5.08378623,9.53878407 L0.0113224694,9.53878407 L0.0113224694,13.024109 C0.0118840412,13.5304238 0.417094435,13.9407312 0.917119565,13.9412998 L5.08378623,13.9412998 L5.08378623,9.53878407 Z M5.80842391,13.9412998 L10.15625,13.9412998 L10.15625,9.53878407 L5.80842391,9.53878407 L5.80842391,13.9412998 Z M5.80842391,8.80503145 L10.15625,8.80503145 L10.15625,5.13626835 L5.80842391,5.13626835 L5.80842391,8.80503145 Z" id="形状" fill="#14CEAA" fill-rule="nonzero"></path>
            </g>
        </g>
    </g>
</svg>