<?xml version="1.0" encoding="UTF-8"?>
<svg width="54px" height="14px" viewBox="0 0 54 14" version="1.1" xmlns="http://www.w3.org/2000/svg" xmlns:xlink="http://www.w3.org/1999/xlink">
    <title>编组 3</title>
    
    <g id="控件" stroke="none" stroke-width="1" fill="none" fill-rule="evenodd">
        <g id="标注" transform="translate(0.000000, -58.000000)">
            <g id="1" transform="translate(0.000000, 55.000000)">
                <g id="编组-3" transform="translate(0.000000, 3.000000)">
                    <g id="编组">
                        <g   id="24gf-table">
                            <g>
                                <path d="M5.08378623,8.80503145 L0.0113224694,8.80503145 L0.0113224694,5.13626835 L5.08378623,5.13626835 L5.08378623,8.80503145 Z M10.8808877,9.53878407 L10.8808877,13.9412998 L15.0475543,13.9412998 C15.5475795,13.9407312 15.9527899,13.5304238 15.9533514,13.024109 L15.9533514,9.53878407 L10.8808877,9.53878407 Z M10.8808877,8.80503145 L15.9533514,8.80503145 L15.9533514,5.13626835 L10.8808877,5.13626835 L10.8808877,8.80503145 Z M15.9533514,4.40251572 L15.9533514,0.91719077 C15.9527899,0.410876023 15.5475795,0.000568645045 15.0475543,4.88777432e-16 L0.917119565,4.88777432e-16 C0.417094442,0.000568645045 0.0118840506,0.410876023 0.0113224694,0.91719077 L0.0113224694,4.40251572 L15.9533514,4.40251572 Z M5.08378623,9.53878407 L0.0113224694,9.53878407 L0.0113224694,13.024109 C0.0118840412,13.5304238 0.417094435,13.9407312 0.917119565,13.9412998 L5.08378623,13.9412998 L5.08378623,9.53878407 Z M5.80842391,13.9412998 L10.15625,13.9412998 L10.15625,9.53878407 L5.80842391,9.53878407 L5.80842391,13.9412998 Z M5.80842391,8.80503145 L10.15625,8.80503145 L10.15625,5.13626835 L5.80842391,5.13626835 L5.80842391,8.80503145 Z" id="形状" fill="#14CEAA" fill-rule="nonzero"></path>
                            </g>
                        </g>
                        <path d="M5.928,10 L6.464,8.528 L8.92,8.528 L9.456,10 L10.392,10 L8.192,4.288 L7.2,4.288 L5,10 L5.928,10 Z M8.656,7.808 L6.728,7.808 L7.68,5.224 L7.712,5.224 L8.656,7.808 Z" id="A" fill-opacity="0.65" fill="#000000" fill-rule="nonzero"></path>
                    </g>
                    <path d="M33.5,7 C33.7761424,7 34,7.22385763 34,7.5 C34,7.77614237 33.7761424,8 33.5,8 L18.5,8 C18.2238576,8 18,7.77614237 18,7.5 C18,7.22385763 18.2238576,7 18.5,7 L33.5,7 Z" id="矩形" fill-opacity="0.25" fill="#000000" fill-rule="nonzero"></path>
                    <g id="编组-2" transform="translate(38.000000, 0.000000)">
                        <g   id="24gf-table">
                            <g>
                                <path d="M5.08378623,8.80503145 L0.0113224694,8.80503145 L0.0113224694,5.13626835 L5.08378623,5.13626835 L5.08378623,8.80503145 Z M10.8808877,9.53878407 L10.8808877,13.9412998 L15.0475543,13.9412998 C15.5475795,13.9407312 15.9527899,13.5304238 15.9533514,13.024109 L15.9533514,9.53878407 L10.8808877,9.53878407 Z M10.8808877,8.80503145 L15.9533514,8.80503145 L15.9533514,5.13626835 L10.8808877,5.13626835 L10.8808877,8.80503145 Z M15.9533514,4.40251572 L15.9533514,0.91719077 C15.9527899,0.410876023 15.5475795,0.000568645045 15.0475543,4.88777432e-16 L0.917119565,4.88777432e-16 C0.417094442,0.000568645045 0.0118840506,0.410876023 0.0113224694,0.91719077 L0.0113224694,4.40251572 L15.9533514,4.40251572 Z M5.08378623,9.53878407 L0.0113224694,9.53878407 L0.0113224694,13.024109 C0.0118840412,13.5304238 0.417094435,13.9407312 0.917119565,13.9412998 L5.08378623,13.9412998 L5.08378623,9.53878407 Z M5.80842391,13.9412998 L10.15625,13.9412998 L10.15625,9.53878407 L5.80842391,9.53878407 L5.80842391,13.9412998 Z M5.80842391,8.80503145 L10.15625,8.80503145 L10.15625,5.13626835 L5.80842391,5.13626835 L5.80842391,8.80503145 Z" id="形状" fill-opacity="0.8" fill="#3184FE" fill-rule="nonzero"></path>
                            </g>
                        </g>
                        <path d="M8.168,10 C8.776,10 9.248,9.888 9.584,9.664 C9.976,9.392 10.176,8.976 10.176,8.4 C10.176,8.016 10.08,7.704 9.888,7.472 C9.696,7.24 9.408,7.088 9.032,7.016 C9.32,6.912 9.536,6.752 9.696,6.544 C9.856,6.32 9.936,6.048 9.936,5.728 C9.936,5.288 9.784,4.944 9.48,4.688 C9.16,4.416 8.728,4.288 8.168,4.288 L5.56,4.288 L5.56,10 L8.168,10 Z M7.936,6.712 L6.432,6.712 L6.432,5.008 L7.952,5.008 C8.336,5.008 8.624,5.072 8.8,5.208 C8.976,5.336 9.064,5.544 9.064,5.832 C9.064,6.136 8.976,6.36 8.8,6.504 C8.624,6.64 8.336,6.712 7.936,6.712 Z M8.048,9.28 L6.432,9.28 L6.432,7.424 L8.072,7.424 C8.488,7.424 8.8,7.496 9,7.648 C9.2,7.8 9.304,8.048 9.304,8.384 C9.304,8.712 9.168,8.952 8.912,9.104 C8.704,9.216 8.416,9.28 8.048,9.28 Z" id="B" fill-opacity="0.65" fill="#000000" fill-rule="nonzero"></path>
                    </g>
                </g>
            </g>
        </g>
    </g>
</svg>