<?xml version="1.0" standalone="no"?><!DOCTYPE svg PUBLIC "-//W3C//DTD SVG 1.1//EN" "http://www.w3.org/Graphics/SVG/1.1/DTD/svg11.dtd"><svg t="1703485408886" class="icon" viewBox="0 0 1024 1024" version="1.1" xmlns="http://www.w3.org/2000/svg" p-id="15981" xmlns:xlink="http://www.w3.org/1999/xlink" width="200" height="200"><path d="M901.12 40.96c45.24544 0 81.92 36.67456 81.92 81.92v778.24c0 45.24544-36.67456 81.92-81.92 81.92H122.88c-45.24544 0-81.92-36.67456-81.92-81.92V122.88c0-45.24544 36.67456-81.92 81.92-81.92h778.24z m-115.2 706.56h-547.84a33.28 33.28 0 0 0-33.28 33.28v5.12a33.28 33.28 0 0 0 33.28 33.28h547.84a33.28 33.28 0 0 0 33.28-33.28v-5.12a33.28 33.28 0 0 0-33.28-33.28z m-47.0016-474.3168c-64.3072 0-107.7248 51.6096-107.7248 156.4672 0 104.8576 43.4176 159.744 107.7248 159.744 64.3072 0 108.1344-54.8864 108.1344-159.744 0-104.0384-43.8272-156.4672-108.1344-156.4672zM468.48 204.8h-261.12a33.28 33.28 0 0 0-33.28 33.28v5.12a33.28 33.28 0 0 0 33.28 33.28H302.08v279.04a33.28 33.28 0 0 0 32.08704 33.25952l1.19296 0.02048h5.12a33.28 33.28 0 0 0 33.28-33.28V276.48h94.72a33.28 33.28 0 0 0 33.25952-32.08704L501.76 243.2v-5.12a33.28 33.28 0 0 0-33.28-33.28z m270.4384 124.5184c21.7088 0 39.3216 17.2032 39.3216 100.352 0 83.5584-17.6128 103.2192-39.3216 103.2192s-38.912-19.6608-38.912-103.2192c0-83.1488 17.2032-100.352 38.912-100.352z" p-id="15982"></path></svg>