<?xml version="1.0" standalone="no"?><!DOCTYPE svg PUBLIC "-//W3C//DTD SVG 1.1//EN" "http://www.w3.org/Graphics/SVG/1.1/DTD/svg11.dtd"><svg t="1703485414098" class="icon" viewBox="0 0 1024 1024" version="1.1" xmlns="http://www.w3.org/2000/svg" p-id="16118" xmlns:xlink="http://www.w3.org/1999/xlink" width="200" height="200"><path d="M901.12 40.96c45.24544 0 81.92 36.67456 81.92 81.92v778.24c0 45.24544-36.67456 81.92-81.92 81.92H122.88c-45.24544 0-81.92-36.67456-81.92-81.92V122.88c0-45.24544 36.67456-81.92 81.92-81.92h778.24z m-115.2 706.56h-547.84a33.28 33.28 0 0 0-33.28 33.28v5.12a33.28 33.28 0 0 0 33.28 33.28h547.84a33.28 33.28 0 0 0 33.28-33.28v-5.12a33.28 33.28 0 0 0-33.28-33.28z m-81.3568-416.768h-146.0736c-63.5904 0-123.4944 42.8544-123.4944 131.7888 0 85.7088 54.3744 132.7104 120.2688 132.7104 67.7376 0 117.0432-46.08 117.0432-122.112 0-41.9328-16.128-74.1888-43.776-89.3952v-2.304c27.648 0.9216 47.4624 2.304 76.032 5.5296V330.752zM468.48 204.8h-261.12a33.28 33.28 0 0 0-33.28 33.28v5.12a33.28 33.28 0 0 0 33.28 33.28H302.08v279.04a33.28 33.28 0 0 0 32.08704 33.25952l1.19296 0.02048h5.12a33.28 33.28 0 0 0 33.28-33.28V276.48h94.72a33.28 33.28 0 0 0 33.25952-32.08704L501.76 243.2v-5.12a33.28 33.28 0 0 0-33.28-33.28z m87.7056 181.248c33.1776 0 51.6096 36.864 51.6096 80.64 0 46.08-20.2752 73.2672-51.6096 73.2672s-52.0704-28.5696-52.0704-77.4144c0-53.4528 21.1968-76.4928 52.0704-76.4928z m228.4032-140.10368c-31.47776 0-51.67104 11.28448-73.34912 34.1504l28.80512 28.50816c10.3936-11.28448 22.272-21.38112 37.41696-21.38112 17.52064 0 28.80512 10.98752 28.80512 31.1808 0 32.07168-37.12 72.16128-92.35456 122.34752V471.04h153.23136v-44.544h-40.68352c-9.79968 0-24.94464 1.4848-35.93216 2.9696 33.85344-34.1504 66.51904-76.02176 66.51904-114.03264 0-42.16832-29.696-69.48864-72.45824-69.48864z" p-id="16119"></path></svg>