<?xml version="1.0" standalone="no"?><!DOCTYPE svg PUBLIC "-//W3C//DTD SVG 1.1//EN" "http://www.w3.org/Graphics/SVG/1.1/DTD/svg11.dtd"><svg t="1703485437073" class="icon" viewBox="0 0 1024 1024" version="1.1" xmlns="http://www.w3.org/2000/svg" p-id="16803" xmlns:xlink="http://www.w3.org/1999/xlink" width="200" height="200"><path d="M901.12 40.96c45.24544 0 81.92 36.67456 81.92 81.92v778.24c0 45.24544-36.67456 81.92-81.92 81.92H122.88c-45.24544 0-81.92-36.67456-81.92-81.92V122.88c0-45.24544 36.67456-81.92 81.92-81.92h778.24z m-115.2 706.56h-547.84a33.28 33.28 0 0 0-33.28 33.28v5.12a33.28 33.28 0 0 0 33.28 33.28h547.84a33.28 33.28 0 0 0 33.28-33.28v-5.12a33.28 33.28 0 0 0-33.28-33.28z m-317.44-542.72h-261.12a33.28 33.28 0 0 0-33.28 33.28v5.12a33.28 33.28 0 0 0 33.28 33.28H302.08v279.04a33.28 33.28 0 0 0 33.28 33.28h5.12a33.28 33.28 0 0 0 33.28-33.28V276.48h94.72a33.28 33.28 0 0 0 33.28-33.28v-5.12a33.28 33.28 0 0 0-33.28-33.28z m365.6448 128.08192a35.84 35.84 0 0 0-50.68288 0.35328l-164.95616 167.25504-79.65696-89.92768-0.91136-0.98816A35.84 35.84 0 0 0 485.1712 458.0864l105.07776 118.6304 0.91136 0.99328a35.84 35.84 0 0 0 51.43552 0.4096l191.88224-194.56 0.9216-0.9728a35.84 35.84 0 0 0-1.27488-49.71008z" p-id="16804"></path></svg>