<?xml version="1.0" standalone="no"?><!DOCTYPE svg PUBLIC "-//W3C//DTD SVG 1.1//EN" "http://www.w3.org/Graphics/SVG/1.1/DTD/svg11.dtd"><svg t="1703485366973" class="icon" viewBox="0 0 1024 1024" version="1.1" xmlns="http://www.w3.org/2000/svg" p-id="15844" xmlns:xlink="http://www.w3.org/1999/xlink" width="200" height="200"><path d="M901.12 40.96c45.24544 0 81.92 36.67456 81.92 81.92v778.24c0 45.24544-36.67456 81.92-81.92 81.92H122.88c-45.24544 0-81.92-36.67456-81.92-81.92V122.88c0-45.24544 36.67456-81.92 81.92-81.92h778.24z m-115.2 706.56h-547.84a33.28 33.28 0 0 0-33.28 33.28v5.12a33.28 33.28 0 0 0 33.28 33.28h547.84a33.28 33.28 0 0 0 33.28-33.28v-5.12a33.28 33.28 0 0 0-33.28-33.28z m-199.4752-286.6176c-27.3408 0-52.224 9.216-75.264 23.04l19.0464 35.9424c17.5104-9.8304 31.9488-15.36 45.7728-15.36 17.8176 0 25.1904 8.2944 26.4192 22.4256-68.1984 7.3728-97.0752 27.3408-97.0752 64.2048 0 29.184 19.6608 53.1456 51.9168 53.1456 19.3536 0 35.6352-8.9088 50.0736-21.8112h1.2288l3.9936 17.5104h44.544v-99.2256c0-54.6816-25.4976-79.872-70.656-79.872z m157.2864 4.3008H685.056l50.3808 83.8656L681.984 640h56.832l11.9808-27.3408c4.3008-10.4448 8.6016-20.5824 12.9024-30.1056h1.536c5.5296 9.5232 10.752 19.968 15.9744 30.1056l15.9744 27.3408h58.6752l-53.4528-84.7872 50.3808-90.0096h-56.5248l-10.752 27.0336c-3.6864 9.8304-7.9872 19.968-11.3664 29.7984h-1.536c-4.9152-9.8304-9.8304-19.968-14.4384-29.7984l-14.4384-27.0336z m-141.312 94.9248v27.9552c-7.9872 8.6016-15.36 13.824-26.4192 13.824-11.3664 0-18.7392-4.9152-18.7392-15.0528 0-12.288 11.0592-22.1184 45.1584-26.7264z m-351.7952-332.8H175.0528V568.32h61.2864V425.9328c0-32.256-5.5296-79.7184-8.7552-111.9744h1.8432l27.1872 80.1792 52.992 143.3088h39.168l52.5312-143.3088 27.648-80.1792h1.8432c-3.2256 32.256-8.2944 79.7184-8.2944 111.9744V568.32h62.208V227.328H409.1392L352.4608 386.7648c-7.3728 21.1968-13.3632 43.776-20.736 65.8944h-2.304c-6.912-22.1184-13.3632-44.6976-20.736-65.8944L250.624 227.328z" p-id="15845"></path></svg>