<?xml version="1.0" standalone="no"?><!DOCTYPE svg PUBLIC "-//W3C//DTD SVG 1.1//EN" "http://www.w3.org/Graphics/SVG/1.1/DTD/svg11.dtd"><svg t="1703485432837" class="icon" viewBox="0 0 1024 1024" version="1.1" xmlns="http://www.w3.org/2000/svg" p-id="16666" xmlns:xlink="http://www.w3.org/1999/xlink" width="200" height="200"><path d="M901.12 40.96c45.24544 0 81.92 36.67456 81.92 81.92v778.24c0 45.24544-36.67456 81.92-81.92 81.92H122.88c-45.24544 0-81.92-36.67456-81.92-81.92V122.88c0-45.24544 36.67456-81.92 81.92-81.92h778.24z m-115.2 706.56h-547.84a33.28 33.28 0 0 0-33.28 33.28v5.12a33.28 33.28 0 0 0 33.28 33.28h547.84a33.28 33.28 0 0 0 33.28-33.28v-5.12a33.28 33.28 0 0 0-33.28-33.28z m57.04704-439.7056h-159.05792c-69.24288 0-134.47168 46.66368-134.47168 143.50336 0 93.32736 59.20768 144.50688 130.95936 144.50688 73.75872 0 127.44704-50.176 127.44704-132.9664 0-45.66016-17.5616-80.78336-47.6672-97.34144v-2.5088c30.1056 1.00352 51.68128 2.5088 82.7904 6.02112V307.8144zM468.48 204.8h-261.12a33.28 33.28 0 0 0-33.28 33.28v5.12a33.28 33.28 0 0 0 33.28 33.28H302.08v279.04a33.28 33.28 0 0 0 32.08704 33.25952l1.19296 0.02048h5.12a33.28 33.28 0 0 0 33.28-33.28V276.48h94.72a33.28 33.28 0 0 0 33.25952-32.08704L501.76 243.2v-5.12a33.28 33.28 0 0 0-33.28-33.28z m212.92032 163.2256c36.12672 0 56.19712 40.1408 56.19712 87.808 0 50.176-22.07744 79.77984-56.19712 79.77984-34.11968 0-56.69888-31.10912-56.69888-84.29568 0-58.20416 23.08096-83.29216 56.69888-83.29216z" p-id="16667"></path></svg>