<?xml version="1.0" standalone="no"?><!DOCTYPE svg PUBLIC "-//W3C//DTD SVG 1.1//EN" "http://www.w3.org/Graphics/SVG/1.1/DTD/svg11.dtd"><svg t="1703485425430" class="icon" viewBox="0 0 1024 1024" version="1.1" xmlns="http://www.w3.org/2000/svg" p-id="16529" xmlns:xlink="http://www.w3.org/1999/xlink" width="200" height="200"><path d="M901.12 40.96c45.24544 0 81.92 36.67456 81.92 81.92v778.24c0 45.24544-36.67456 81.92-81.92 81.92H122.88c-45.24544 0-81.92-36.67456-81.92-81.92V122.88c0-45.24544 36.67456-81.92 81.92-81.92h778.24z m-115.2 706.56h-547.84a33.28 33.28 0 0 0-33.28 33.28v5.12a33.28 33.28 0 0 0 33.28 33.28h547.84a33.28 33.28 0 0 0 33.28-33.28v-5.12a33.28 33.28 0 0 0-33.28-33.28zM296.96 604.16H189.44a25.6 25.6 0 1 0 0 51.2h107.52a25.6 25.6 0 1 0 0-51.2z m271.36 0H460.8a25.6 25.6 0 1 0 0 51.2h107.52a25.6 25.6 0 1 0 0-51.2z m271.36 0h-107.52a25.6 25.6 0 1 0 0 51.2h107.52a25.6 25.6 0 1 0 0-51.2z m-460.8 0a25.6 25.6 0 1 0 0 51.2 25.6 25.6 0 0 0 0-51.2z m271.36 0a25.6 25.6 0 1 0 0 51.2 25.6 25.6 0 0 0 0-51.2z m-7.68-399.36h-261.12a33.28 33.28 0 0 0-33.28 33.28v5.12a33.28 33.28 0 0 0 33.28 33.28H476.16v202.24a33.28 33.28 0 0 0 32.08704 33.25952l1.19296 0.02048h5.12a33.28 33.28 0 0 0 33.28-33.28V276.48h94.72a33.28 33.28 0 0 0 33.25952-32.08704L675.84 243.2v-5.12a33.28 33.28 0 0 0-33.28-33.28z" p-id="16530"></path></svg>