<?xml version="1.0" standalone="no"?><!DOCTYPE svg PUBLIC "-//W3C//DTD SVG 1.1//EN" "http://www.w3.org/Graphics/SVG/1.1/DTD/svg11.dtd"><svg t="1703485421323" class="icon" viewBox="0 0 1024 1024" version="1.1" xmlns="http://www.w3.org/2000/svg" p-id="16392" xmlns:xlink="http://www.w3.org/1999/xlink" width="200" height="200"><path d="M901.12 40.96c45.24544 0 81.92 36.67456 81.92 81.92v778.24c0 45.24544-36.67456 81.92-81.92 81.92H122.88c-45.24544 0-81.92-36.67456-81.92-81.92V122.88c0-45.24544 36.67456-81.92 81.92-81.92h778.24z m-115.2 706.56h-547.84a33.28 33.28 0 0 0-33.28 33.28v5.12a33.28 33.28 0 0 0 33.28 33.28h547.84a33.28 33.28 0 0 0 33.28-33.28v-5.12a33.28 33.28 0 0 0-33.28-33.28z m-168.6016-282.3168h-54.3744V640h54.3744V465.2032z m149.6064-4.3008c-23.6544 0-41.472 11.9808-55.9104 26.112h-1.2288l-3.6864-21.8112h-44.544V640h54.3744v-116.736c10.752-10.1376 18.1248-15.6672 30.4128-15.6672 13.824 0 20.2752 7.0656 20.2752 31.0272V640h54.6816v-108.1344c0-43.6224-16.2816-70.9632-54.3744-70.9632zM271.104 227.328H195.5328V568.32h61.2864V425.9328c0-32.256-5.5296-79.7184-8.7552-111.9744h1.8432l27.1872 80.1792 52.992 143.3088h39.168l52.5312-143.3088 27.648-80.1792h1.8432c-3.2256 32.256-8.2944 79.7184-8.2944 111.9744V568.32h62.208V227.328H429.6192L372.9408 386.7648c-7.3728 21.1968-13.3632 43.776-20.736 65.8944h-2.304c-6.912-22.1184-13.3632-44.6976-20.736-65.8944L271.104 227.328z m319.1808 157.3888c-18.432 0-31.3344 11.6736-31.3344 28.2624 0 16.2816 12.9024 27.9552 31.3344 27.9552 18.1248 0 31.0272-11.6736 31.0272-27.9552 0-16.5888-12.9024-28.2624-31.0272-28.2624z" p-id="16393"></path></svg>