<?xml version="1.0" standalone="no"?><!DOCTYPE svg PUBLIC "-//W3C//DTD SVG 1.1//EN" "http://www.w3.org/Graphics/SVG/1.1/DTD/svg11.dtd"><svg t="1703485447566" class="icon" viewBox="0 0 1024 1024" version="1.1" xmlns="http://www.w3.org/2000/svg" p-id="17078" xmlns:xlink="http://www.w3.org/1999/xlink" width="200" height="200"><path d="M901.12 40.96c45.24544 0 81.92 36.67456 81.92 81.92v778.24c0 45.24544-36.67456 81.92-81.92 81.92H122.88c-45.24544 0-81.92-36.67456-81.92-81.92V122.88c0-45.24544 36.67456-81.92 81.92-81.92h778.24zM250.88 614.4H179.2v112.64l0.01536 1.9456c1.02912 63.49824 52.31616 114.78016 115.8144 115.79904L296.96 844.8h112.63488v-71.68H296.96l-1.3568-0.02048a46.08 46.08 0 0 1-44.70272-44.6976L250.88 727.04v-112.64z m593.92 0h-71.68v112.64l-0.02048 1.3568a46.08 46.08 0 0 1-44.6976 44.70272L727.04 773.12h-112.64512v71.68H727.04l1.9456-0.01536c63.49824-1.02912 114.78016-52.31616 115.79904-115.8144L844.8 727.04v-112.64z m-159.1552-225.19808a35.84 35.84 0 0 0-50.68288 0.35328l-164.95616 167.25504L390.3488 466.88256l-0.91136-0.98816a35.84 35.84 0 0 0-52.74624 48.51712l105.07776 118.6304 0.91136 0.99328a35.84 35.84 0 0 0 51.43552 0.4096l191.88224-194.56 0.9216-0.9728a35.84 35.84 0 0 0-1.27488-49.71008zM727.04 179.2h-112.64v71.68h112.64l1.3568 0.02048a46.08 46.08 0 0 1 44.70272 44.6976L773.12 296.96v112.64h71.68V296.96l-0.01536-1.9456C843.74528 230.87616 791.42912 179.2 727.04 179.2z m-317.44 0H296.96l-1.9456 0.01536c-63.49824 1.02912-114.78016 52.31616-115.79904 115.8144L179.2 296.96v112.64h71.68V296.96l0.02048-1.3568a46.08 46.08 0 0 1 44.6976-44.70272L296.96 250.88h112.64V179.2z" p-id="17079"></path></svg>