<?xml version="1.0" standalone="no"?><!DOCTYPE svg PUBLIC "-//W3C//DTD SVG 1.1//EN" "http://www.w3.org/Graphics/SVG/1.1/DTD/svg11.dtd"><svg t="1703485417737" class="icon" viewBox="0 0 1024 1024" version="1.1" xmlns="http://www.w3.org/2000/svg" p-id="16255" xmlns:xlink="http://www.w3.org/1999/xlink" width="200" height="200"><path d="M901.12 40.96c45.24544 0 81.92 36.67456 81.92 81.92v778.24c0 45.24544-36.67456 81.92-81.92 81.92H122.88c-45.24544 0-81.92-36.67456-81.92-81.92V122.88c0-45.24544 36.67456-81.92 81.92-81.92h778.24z m-115.2 706.56h-547.84a33.28 33.28 0 0 0-33.28 33.28v5.12a33.28 33.28 0 0 0 33.28 33.28h547.84a33.28 33.28 0 0 0 33.28-33.28v-5.12a33.28 33.28 0 0 0-33.28-33.28z m33.62304-517.248a33.28 33.28 0 0 0-45.4656 12.1856l-176.64 305.9456a33.28 33.28 0 0 0 12.1856 45.4656l4.43392 2.56a33.28 33.28 0 0 0 45.4656-12.1856l176.64-305.95072a33.28 33.28 0 0 0-12.1856-45.46048zM468.48 204.8h-261.12a33.28 33.28 0 0 0-33.28 33.28v5.12a33.28 33.28 0 0 0 33.28 33.28H302.08v279.04a33.28 33.28 0 0 0 32.08704 33.25952l1.19296 0.02048h5.12a33.28 33.28 0 0 0 33.28-33.28V276.48h94.72a33.28 33.28 0 0 0 33.25952-32.08704L501.76 243.2v-5.12a33.28 33.28 0 0 0-33.28-33.28z" p-id="16256"></path></svg>