<?xml version="1.0" standalone="no"?><!DOCTYPE svg PUBLIC "-//W3C//DTD SVG 1.1//EN" "http://www.w3.org/Graphics/SVG/1.1/DTD/svg11.dtd"><svg t="1703485454111" class="icon" viewBox="0 0 1024 1024" version="1.1" xmlns="http://www.w3.org/2000/svg" p-id="17215" xmlns:xlink="http://www.w3.org/1999/xlink" width="200" height="200"><path d="M901.12 40.96c45.24544 0 81.92 36.67456 81.92 81.92v778.24c0 45.24544-36.67456 81.92-81.92 81.92H122.88c-45.24544 0-81.92-36.67456-81.92-81.92V122.88c0-45.24544 36.67456-81.92 81.92-81.92h778.24z m-115.2 706.56h-547.84a33.28 33.28 0 0 0-33.28 33.28v5.12a33.28 33.28 0 0 0 33.28 33.28h547.84a33.28 33.28 0 0 0 33.28-33.28v-5.12a33.28 33.28 0 0 0-33.28-33.28z m-177.01376-368.64c-8.0896 0-14.83264 0.7424-20.3264 2.32448-6.27712 1.81248-11.9552 5.44768-16.9728 10.72128-4.6336 4.86912-9.08288 11.78624-13.53216 20.8128l-1.59744 3.31776c-3.80416 8.05376-8.15104 18.35008-13.056 30.91456l-2.93888 7.53152 22.528 15.63136 8.53504-11.80672a402.6368 402.6368 0 0 1 9.09824-12.032l0.96256-1.21344c3.31776-4.13184 6.17984-7.31136 8.52992-9.50272 1.792-1.664 3.1744-2.5856 3.98336-2.86208 1.22368-0.42496 2.57536-0.64512 3.96288-0.64512 9.7536 0 20.7872 7.43936 32.8192 23.552l1.3568 1.8432c11.32032 15.63648 22.5792 37.08928 33.67424 64.32256l2.0224 5.0432 3.0464-4.43392a1105.8176 1105.8176 0 0 1-50.70848 68.63872l-4.20864 5.22752a782.30016 782.30016 0 0 1-46.99136 53.0432l-4.11136 4.17792 0.2304-0.2048-0.86016 0.768c-4.4544 4.06528-7.0144 7.99232-7.0144 13.1328 0 7.43424 5.0432 12.01152 12.04736 14.1312 4.33152 1.31072 9.99424 1.87904 17.26976 1.87904 15.0528 0 26.51136-2.50368 34.49344-8.1152 4.23936-3.2 8.4992-7.2192 13.12768-12.30336 4.53632-4.98176 9.6512-11.45856 15.38048-19.456a4279.1936 4279.1936 0 0 1 25.92768-34.93888l6.64576-8.9088 6.5792-8.9344 2.688-3.70176 1.6384 3.42528c4.15744 8.6528 8.24832 16.7424 12.27776 24.2688 6.92224 12.93312 13.86496 24.66816 20.82816 35.20512 16.256 23.8848 35.968 36.34688 58.76224 36.34688 16.96768 0 30.74048-6.02624 40.3968-18.00704 8.23808-10.2144 15.85152-26.14784 23.1424-47.98976l3.24096-9.92256-21.54496-14.8224-5.85728 8.12544c-4.94592 6.8608-9.23136 12.42112-12.8512 16.67584-3.36384 3.96288-6.3488 6.90688-8.86272 8.8064-2.19136 1.65888-4.10624 2.6624-5.71392 3.09248-2.0992 0.56832-4.1728 0.84992-6.22592 0.84992-9.57952 0-21.58592-7.48544-35.51744-23.43424l-1.76128-2.05824c-12.83072-15.2576-23.74656-34.56-32.69632-57.92768l-0.5632-1.50016 4.68992-6.528c36.39296-50.45248 71.64928-93.9264 105.7536-130.41664 3.71712-3.93216 5.9392-8.30464 5.9392-13.24544 0-7.64416-5.25312-12.11392-12.53376-14.1824-4.48-1.26976-10.40896-1.82784-18.05312-1.82784l-2.07872 0.01536c-12.32384 0.17408-21.67808 1.92512-28.35968 5.71904l-0.53248 0.31744 0.67584-0.32768c-3.67104 1.66912-7.23456 4.89472-11.50464 9.94816l-3.0976 3.7632c-3.49696 4.28544-7.72608 9.50784-12.672 15.65696l-29.16864 38.84544c-3.6352 4.85888-7.5264 10.0864-11.67872 15.6928l-10.6752 14.44864-0.76288-1.89952a566.3744 566.3744 0 0 0-8.91904-20.87424 479.26784 479.26784 0 0 0-15.9232-32.2048c-5.376-9.49248-10.5984-17.56672-15.7696-24.3712-5.20192-6.85056-9.92256-12.25216-14.2336-16.23552l-0.768-0.65024c-9.40032-7.10656-20.03968-10.73152-31.61088-10.73152zM468.48 204.8h-261.12a33.28 33.28 0 0 0-33.28 33.28v5.12a33.28 33.28 0 0 0 33.28 33.28H302.08v279.04a33.28 33.28 0 0 0 32.08704 33.25952l1.19296 0.02048h5.12a33.28 33.28 0 0 0 33.28-33.28V276.48h94.72a33.28 33.28 0 0 0 33.25952-32.08704L501.76 243.2v-5.12a33.28 33.28 0 0 0-33.28-33.28zM824.32 276.48h-256a25.6 25.6 0 1 0 0 51.2h256a25.6 25.6 0 1 0 0-51.2z" p-id="17216"></path></svg>