<?xml version="1.0" standalone="no"?><!DOCTYPE svg PUBLIC "-//W3C//DTD SVG 1.1//EN" "http://www.w3.org/Graphics/SVG/1.1/DTD/svg11.dtd"><svg t="1703485459159" class="icon" viewBox="0 0 1024 1024" version="1.1" xmlns="http://www.w3.org/2000/svg" p-id="17352" xmlns:xlink="http://www.w3.org/1999/xlink" width="200" height="200"><path d="M901.12 40.96c45.24544 0 81.92 36.67456 81.92 81.92v778.24c0 45.24544-36.67456 81.92-81.92 81.92H122.88c-45.24544 0-81.92-36.67456-81.92-81.92V122.88c0-45.24544 36.67456-81.92 81.92-81.92h778.24z m-115.2 706.56h-547.84a33.28 33.28 0 0 0-33.28 33.28v5.12a33.28 33.28 0 0 0 33.28 33.28h547.84a33.28 33.28 0 0 0 33.28-33.28v-5.12a33.28 33.28 0 0 0-33.28-33.28z m23.04-174.08a40.96 40.96 0 1 0 0 81.92 40.96 40.96 0 0 0 0-81.92z m-264.2944-154.3168H499.2l-6.144 46.08-26.7264 2.1504v40.5504h23.6544v67.2768c0 41.472 17.8176 69.12 61.7472 69.12 17.8176 0 30.4128-3.6864 39.6288-6.4512l-8.6016-39.3216c-4.3008 1.2288-10.4448 3.072-15.9744 3.072-12.9024 0-22.1184-7.68-22.1184-27.0336V507.904h41.1648v-42.7008h-41.1648v-46.08z m174.1824 41.7792c-17.5104 0-36.864 11.3664-49.7664 34.7136h-1.2288l-3.6864-30.4128h-44.544V640h54.3744v-99.84c9.216-23.04 24.8832-31.3344 37.7856-31.3344 7.68 0 12.9024 1.2288 19.0464 2.7648l9.216-47.0016c-4.9152-2.1504-10.752-3.6864-21.1968-3.6864zM284.7232 220.8768c-69.12 0-117.9648 42.8544-117.9648 98.6112 0 49.7664 34.56 77.4144 69.12 91.6992l45.6192 19.3536c30.4128 12.9024 51.1488 20.736 51.1488 46.08 0 23.9616-18.8928 39.168-54.3744 39.168-29.952 0-62.208-15.2064-86.6304-37.7856l-39.168 47.0016c33.1776 31.7952 78.7968 49.7664 124.416 49.7664 78.7968 0 125.3376-47.4624 125.3376-103.2192 0-49.3056-27.1872-75.5712-68.6592-92.6208l-44.6976-18.8928c-29.0304-11.52-53.4528-20.2752-53.4528-44.6976 0-22.5792 19.3536-35.9424 49.3056-35.9424 28.1088 0 50.688 10.1376 72.3456 28.1088l34.56-42.8544c-27.648-28.1088-67.2768-43.776-106.9056-43.776z" p-id="17353"></path></svg>