<?xml version="1.0" standalone="no"?><!DOCTYPE svg PUBLIC "-//W3C//DTD SVG 1.1//EN" "http://www.w3.org/Graphics/SVG/1.1/DTD/svg11.dtd"><svg t="1703485361259" class="icon" viewBox="0 0 1024 1024" version="1.1" xmlns="http://www.w3.org/2000/svg" p-id="15707" xmlns:xlink="http://www.w3.org/1999/xlink" width="200" height="200"><path d="M901.12 40.96c45.24544 0 81.92 36.67456 81.92 81.92v778.24c0 45.24544-36.67456 81.92-81.92 81.92H122.88c-45.24544 0-81.92-36.67456-81.92-81.92V122.88c0-45.24544 36.67456-81.92 81.92-81.92h778.24z m-115.2 706.56h-547.84a33.28 33.28 0 0 0-33.28 33.28v5.12a33.28 33.28 0 0 0 33.28 33.28h547.84a33.28 33.28 0 0 0 33.28-33.28v-5.12a33.28 33.28 0 0 0-33.28-33.28z m-317.44-542.72h-261.12a33.28 33.28 0 0 0-33.28 33.28v5.12a33.28 33.28 0 0 0 33.28 33.28H302.08v279.04a33.28 33.28 0 0 0 33.28 33.28h5.12a33.28 33.28 0 0 0 33.28-33.28V276.48h94.72a33.28 33.28 0 0 0 33.28-33.28v-5.12a33.28 33.28 0 0 0-33.28-33.28z m168.98048 120.8576a33.28 33.28 0 0 0-47.06304 0l-3.61984 3.61984a33.28 33.28 0 0 0 0 47.06304L660.992 450.56l-74.2144 74.22464a33.28 33.28 0 0 0 0 47.06304l3.61984 3.61984a33.28 33.28 0 0 0 47.06304 0L711.68 501.248l74.22464 74.21952a33.28 33.28 0 0 0 47.06304 0l3.61984-3.61984a33.28 33.28 0 0 0 0-47.06304L762.368 450.56l74.21952-74.21952a33.28 33.28 0 0 0 0-47.06304l-3.61984-3.61984a33.28 33.28 0 0 0-47.06304 0L711.68 399.872z" p-id="15708"></path></svg>