<?xml version="1.0" encoding="UTF-8"?>
<svg width="22px" height="22px" viewBox="0 0 22 22" version="1.1" xmlns="http://www.w3.org/2000/svg" xmlns:xlink="http://www.w3.org/1999/xlink">
    <g id="标准文件" stroke="none" stroke-width="1" fill="none" fill-rule="evenodd">
        <g id="标准文件（设计图）" transform="translate(-576.000000, -299.000000)" fill-rule="nonzero">
            <g id="编组-20" transform="translate(524.000000, 124.000000)">
                <g id="列1" transform="translate(52.000000, 17.000000)">
                    <g id="共享给任意用户" transform="translate(0.000000, 158.000000)">
                        <rect id="矩形" fill="#000000" opacity="0" x="0" y="0" width="22" height="22"></rect>
                        <path d="M19.3259,0.44 L2.6741,0.44 C1.98506,0.44 1.43,1.05248 1.43,1.8128 L1.43,20.1872 C1.43,20.94752 1.98506,21.56 2.6741,21.56 L19.3259,21.56 C20.01494,21.56 20.57,20.94752 20.57,20.1872 L20.57,1.8128 C20.57,1.05248 20.01494,0.44 19.3259,0.44 Z" id="路径" fill="#FFBF33"></path>
                        <g id="编组-26" transform="translate(5.205490, 5.188442)" fill="#FFFFFF">
                            <path d="M11.5748255,2.99255357 C11.4341098,1.25706012 9.99880984,0 8.16012489,0 C7.50345169,0 6.8280164,0.253288233 6.30267784,0.694197381 C6.01186543,0.938104568 5.7398151,1.21015489 5.47714582,1.48220522 C5.40209746,1.55725358 5.32704909,1.64168299 5.24261968,1.71673136 C5.09252295,1.86682809 5.02685563,2.08259214 5.06437981,2.30773724 C5.11128504,2.58916861 5.28014387,2.79555161 5.54281314,2.87998102 C5.81486347,2.97379148 6.07753275,2.90812416 6.28391575,2.7111222 C6.3964883,2.6079307 6.4996798,2.49535815 6.60287131,2.39216665 C6.73420595,2.26083201 6.86554059,2.12011632 7.00625627,1.98878169 C7.43778437,1.56663463 7.94436084,1.39777581 8.51660463,1.47282417 C9.24832619,1.56663463 9.75490266,1.97001959 10.0081909,2.65483593 C10.2708602,3.34903331 10.1489066,3.97756337 9.65171115,4.51228297 C9.19203992,5.0094784 8.6760824,5.52543591 8.08507652,6.0789176 C7.4846896,6.64178034 6.60287131,6.72620976 5.88053079,6.27591956 C5.79610138,6.22901433 5.72105301,6.16334701 5.6366236,6.08829865 L5.49590792,5.9757261 C5.21447655,5.750581 4.82985367,5.75996205 4.55780335,6.00386924 C4.29513407,6.23839538 4.23884779,6.6323993 4.42646871,6.92321171 C4.48275498,7.00764113 4.55780335,7.08268949 4.61408962,7.13897577 C5.24261968,7.7206006 6.04000857,8.01141301 6.83739745,8.01141301 C7.65354842,8.01141301 8.46031835,7.71121955 9.08884841,7.12021367 C9.62356802,6.60425616 10.1582876,6.0789176 10.6648641,5.544198 C11.3684425,4.82185748 11.6592549,3.96818232 11.5748255,2.99255357 L11.5748255,2.99255357 Z" id="路径"></path>
                            <path d="M5.99310334,8.72437249 C5.7398151,8.64932412 5.47714582,8.72437249 5.28014387,8.9119934 C5.15667305,9.02608316 5.03775389,9.14500232 4.92366413,9.26847314 C4.80171054,9.39042673 4.67975694,9.52176137 4.5484223,9.64371496 C4.04184583,10.1221483 3.460221,10.2816261 2.81292885,10.1127672 C2.1656367,9.94390843 1.66844128,9.47485614 1.49958245,8.84632608 C1.32134259,8.20841497 1.49958245,7.53297968 1.97801578,7.04516531 C2.39078179,6.61363721 2.85045303,6.16334701 3.41331577,5.60986532 C3.87298701,5.15957513 4.43584975,4.9907163 5.07376086,5.10328885 C5.42085955,5.16895617 5.72105301,5.32843395 5.99310334,5.58172218 C6.27453471,5.84439146 6.54658503,5.83501042 6.73420595,5.77872414 C6.98749418,5.70367578 7.16573405,5.51605486 7.23140137,5.27214767 C7.29706869,5.01885944 7.21263928,4.75619016 7.01563732,4.5591882 C6.3964883,3.95880128 5.62724256,3.63984573 4.73604322,3.62108363 C3.82608178,3.63984573 3.04745499,3.95880128 2.40954389,4.58733134 C1.95925369,5.02824049 1.46205827,5.52543591 0.96486285,6.03201237 C0.20499815,6.82002021 -0.113957403,7.75812478 0.0361393277,8.82756399 C0.186236059,9.90638424 0.871052394,10.8351078 1.87482428,11.30416 C2.32511447,11.5199241 2.81292885,11.6231156 3.29136218,11.6231156 C3.87298701,11.6231156 4.45461184,11.4636378 4.96118831,11.1540633 C5.39271641,10.891394 5.7398151,10.5349143 6.0681517,10.1878156 C6.16196216,10.0846241 6.25577262,9.99081365 6.34958307,9.8970032 C6.50906085,9.73752542 6.56534712,9.51238032 6.4996798,9.25909209 C6.42463144,8.99642281 6.23701052,8.79942085 5.99310334,8.72437249 L5.99310334,8.72437249 Z" id="路径"></path>
                        </g>
                    </g>
                </g>
            </g>
        </g>
    </g>
</svg>