<?xml version="1.0" standalone="no"?><!DOCTYPE svg PUBLIC "-//W3C//DTD SVG 1.1//EN" "http://www.w3.org/Graphics/SVG/1.1/DTD/svg11.dtd"><svg t="1713170838656" class="icon" viewBox="0 0 1024 1024" version="1.1" xmlns="http://www.w3.org/2000/svg" p-id="36127" xmlns:xlink="http://www.w3.org/1999/xlink" width="200" height="200"><path d="M264.405 896L153.472 661.333a37.376 37.376 0 0 1 29.867-55.466l247.466-64a42.667 42.667 0 0 1 51.2 59.733l-34.133 72.533a489.216 489.216 0 0 0 136.533 34.134 463.147 463.147 0 0 0 110.934 0 287.317 287.317 0 0 0 85.333-29.867 535.552 535.552 0 0 0 64-42.667 215.467 215.467 0 0 0 42.667-46.933 225.621 225.621 0 0 0 25.6-34.133 40.619 40.619 0 0 0 7.765-9.43 629.717 629.717 0 0 1-54.57 145.835 332.075 332.075 0 0 1-320 174.933A491.99 491.99 0 0 1 371.2 831.872l-29.867 64a38.656 38.656 0 0 1-36.906 25.6A44.757 44.757 0 0 1 264.405 896z m657.067-354.133a7.765 7.765 0 0 1-0.896 3.413 9.216 9.216 0 0 0 0.896-3.413zM541.739 422.4l34.133-72.533a502.272 502.272 0 0 0-136.533-34.134 488.49 488.49 0 0 0-110.934 0 298.667 298.667 0 0 0-85.333 29.867 570.837 570.837 0 0 0-64 42.667 228.864 228.864 0 0 0-42.667 46.933 245.461 245.461 0 0 0-25.6 34.133 36.779 36.779 0 0 0-7.68 9.003 619.136 619.136 0 0 1 54.571-145.408 331.861 331.861 0 0 1 320-175.147 487.381 487.381 0 0 1 174.933 34.134l29.867-64a41.6 41.6 0 0 1 76.8 0L870.229 362.58a35.84 35.84 0 0 1-29.866 55.467l-247.467 64a52.395 52.395 0 0 1-11.733 1.323 41.728 41.728 0 0 1-39.424-60.971z m-438.4 55.85c-0.342 1.323-0.683 2.603-0.896 3.84a9.216 9.216 0 0 1 0.853-3.754z" p-id="36128"></path></svg>