<?xml version="1.0" standalone="no"?><!DOCTYPE svg PUBLIC "-//W3C//DTD SVG 1.1//EN" "http://www.w3.org/Graphics/SVG/1.1/DTD/svg11.dtd"><svg t="1704879582258" class="icon" viewBox="0 0 1024 1024" version="1.1" xmlns="http://www.w3.org/2000/svg" p-id="8952" xmlns:xlink="http://www.w3.org/1999/xlink" width="200" height="200"><path d="M589.4912 714.1632v152.25856h37.17632V796.416h7.87968v70.00576h37.632v-152.25856h-37.61664v56.43776H626.688v-56.43776h-37.2224 0.0256z m129.51552 0h-36.31616v152.25856h36.31616v-152.25856z m5.68832 0l28.87168 152.25856h43.32032l28.89216-152.25856h-38.51776l-9.63072 65.1776c-0.8704 2.64192-3.48672 2.64192-3.9424 0l-9.60512-65.1776h-39.38816z m181.15072 0h-72.192v152.25856h72.192v-39.81824l-40.24832-0.43008v-17.0752h19.23584v-39.81824h-19.23584v-15.29856h40.24832v-39.81824z" fill="#000000" p-id="8953"></path><path d="M515.54304 252.0832C509.41952 235.45856 299.81696 154.07104 297.19552 162.816c-38.51776 10.0608-54.272 54.272-80.52224 82.2784l-58.624-3.5072c-25.81504 33.25952-39.38304 67.38432-30.18752 102.4 33.23904 45.48608 71.7568 84.00384 95.3856 140.4416 1.7408 26.70592 115.06688 2.62144 139.58144-2.61632-33.25952 23.6288-62.12608 60.37504-49.44384 166.71232 11.38176 49.88416 19.25632 105.45664 119.4496 161.4592 13.13792 7.44448 40.68864 16.18944 57.30816 22.31296 16.2048 7.44448 35.01056 10.496 88.41728-5.69344 31.0528-13.11232 64.31744-21.42208 94.50496-34.56l-36.31616 1.75104c-49.89952 0.8704-88.832 4.80768-100.64384-9.19552l-45.94176-80.06656 26.68032-52.0704c37.20192 3.9424 49.44896 34.12992 82.2784 45.4912l38.49728-28.416c112.01024 66.08896 156.65152-42.00448 169.35424-126.0288-1.32096-34.10944-74.39872 10.94656-69.59616-5.23776 1.77152-36.74624-28.43648-84.87424-47.6928-122.50624l22.31296-87.08096c10.0608-9.19552-47.26272-105.8816-94.07488-117.69856-40.68352-10.95168-102.4 41.1136-102.4 41.1136l0.02048-0.01536z" fill="#FDEE21" p-id="8954"></path><path d="M699.7504 436.736c0.45056 9.19552 0.45056 20.5568 1.31584 27.5712 0 5.25824-4.37248 5.68832-7.44448 6.5536l21.87776 7.87968c4.37248 7.44448 7.87968 14.45376 11.38176 21.87776 3.9424 17.94048 0.8704 18.39104-1.75104 19.69152-7.87968 0-15.75424 0-23.1936-1.30048 3.50208 1.73568 3.93216 3.05152 4.38784 5.23776 0.43008 3.9424-2.18624 9.63072-6.5792 15.32416 6.5792 3.50208 18.39616 6.9888 27.136 10.496l10.06592-22.31296c-4.80768-32.37376-18.37568-62.1312-37.20192-91.01824z m40.704 109.3888c12.24704 5.25824 28.86656 3.5072 52.06016-8.30976 3.5072-2.61632 6.55872-0.86528 0.4352 3.072-30.6176 27.11552-45.056 13.54752-52.50048 5.23776z" fill="#C8C037" p-id="8955"></path><path d="M794.7008 534.31296c3.5072 7.00928 1.32096 12.24704 0 18.37056-3.93728 29.75744-13.1328 52.97152-31.07328 77.45024-58.624 94.52544-118.13376 35.44576-165.39648-3.05152l-19.69152 49.01376c-0.8704 4.37248-5.23776 7.424 25.40544 20.992l31.0528-21.8624c119.01952 90.112 203.02848-126.91456 159.70304-140.91264z m-182.03136 84.45952c-7.87968 0.43008-31.94368 8.74496-32.80896 13.568l10.92608-16.20992 21.88288 2.64192z m-15.75424-100.21376c1.31584 0 8.33024 1.77152 7.87456 1.31584-0.8704-0.43008 0 10.06592 2.2016 15.32416l-8.7552 18.80576c16.64-18.80576 42.45504-17.92 66.51904-20.1216l-11.38176-6.99392c2.18112-6.5792-0.4352-11.81696-1.32096-17.52576l-55.1424 9.19552z m40.704-56.43776c-17.5104 5.25824-34.56 14.43328-45.94176 33.25952 8.73984-31.0784 10.496-29.75744 13.1328-31.50848 12.24704-5.7088 22.31296-2.18624 32.80896-1.77152v0.02048z" fill="#C8C037" p-id="8956"></path><path d="M543.11424 826.60352c-21.46304 23.63392-69.14048-1.75104-108.52352-14.86848-100.62848-63.88224-120.32-124.25728-121.64096-183.33184-5.25824-84.89472 20.992-133.90848 53.82144-145.72544-21.87776 42.00448-31.94368 117.26848-21.87776 173.29152 8.30976 31.05792 8.30976 83.5584 60.37504 112.01024 25.38496 14.4384 18.82624 25.38496 35.88096 38.93248 18.82112 14.88896 71.7568 28.88704 101.94432 19.69152h0.02048z m31.93856-391.18848c-36.33152-51.2-87.07584-70.43584-144.39936-72.62208 11.38176-3.9424 23.1936-5.69344 34.56-11.38176 2.6368-3.05664 1.77152-8.30976 0.88576-13.568-55.1424-14.4384-90.15296-32.37376-134.34368-48.9984l119.01952 28.87168c80.52224 3.072 73.51296 23.1936 124.2624 117.69856h0.01536z" fill="#FCF6A0" p-id="8957"></path><path d="M614.00576 410.48576c-26.7008-38.0672-52.52096-84.45952-87.9616-114.21696-84.87936-38.06208-169.35936-66.49856-267.8016-92.3136l31.50848-40.25344c104.56576 24.064 202.5984 63.88224 290.53952 129.51552 15.32416 37.61152 24.95488 75.264 33.69472 117.26848h0.02048z m53.80096-67.38432s-14.86848-33.69472-22.31296-46.37696c-17.0752-18.82624-25.38496-53.82144-60.37504-70.46144 10.92608 3.072 18.37056-0.43008 40.68352 19.69152l35.44576 66.95424 6.5536 30.19264z" fill="#FCF6A0" p-id="8958"></path><path d="M686.63296 401.29024c3.4816-29.30176 10.04032-75.6992 2.61632-94.52544-21.01248-27.9808-42.00448-57.30304-63.01184-84.00384-3.48672-3.05152-6.10816-7.87968-8.74496-10.9312 29.73696 7.87968 60.8256 28.43648 102.4 109.824l-33.28 79.63648h0.02048z" fill="#FCF6A0" p-id="8959"></path><path d="M561.4848 404.79744c-11.81184-9.20064-22.32832-42.00448-40.2688-49.01888-16.61952-1.29536-22.74304-6.5536-44.6208-2.16576 7.87456-3.93728 15.31904-9.19552 23.6288-11.81184 5.69344-1.32096 10.9312 0 16.61952 0.86528 1.32096-0.4352 2.18624-1.32096 1.77152-2.6368-21.89824-13.55264-66.95424-13.55264-97.59232-21.4272 35.44576 1.30048 74.37824-0.88576 101.07904 7.87456 21.44768 18.80576 28.43648 54.68672 39.38304 78.32064z m64.73216-158.84288c4.82304 0.4352 31.07328 42.00448 32.39424 49.01888 2.16576 15.31904 7.424 31.93856 9.17504 48.128a551.89504 551.89504 0 0 0-14.86848-45.4912c-1.77152-4.39296-6.12352-13.58848-18.39104-27.15648-5.67296-9.61024-6.99392-17.0496-8.30976-24.4992z m89.26208 227.09248h-11.38176l12.26752 5.12-0.88576-5.12z m-76.99456-10.92608c-11.38176-1.32096-22.76352-1.75616-34.1504 0.86528-4.80256 6.12352-4.80256 12.6976-6.9888 18.39104 13.568-15.31904 19.24096-16.2048 41.11872-19.25632h0.02048z m154.88 78.31552c-6.10304 4.82304-6.99392 9.64608-25.79968 15.31904-13.58336 3.072-21.46304-2.18624-27.56608-9.6256 9.61024 2.6112 11.36128 10.0608 37.17632 1.77152l16.18944-7.46496z m-56.43776 3.072c-4.37248 12.68224-9.63072 24.9344-14.4384 36.74624-11.81184 13.99808-6.57408 6.12352-24.51456 27.136 5.7088-8.74496 13.1328-17.0752 16.64-26.25024 2.62144-6.12352 6.10304-12.24704 7.44448-17.5104-4.82304-2.18112-14.02368-2.6112-15.31904-1.75104-15.75424 9.19552-18.37568 18.82624-27.5712 28.43648 6.5536-10.496 12.24704-22.31296 20.1216-31.93856 0.89088-1.30048 6.56384-1.30048 10.06592-2.16576-5.68832-0.88576-15.75424-3.072-16.61952-2.64192-10.0608 2.62144-15.75424 11.38176-23.6288 17.0752 5.68832-7.87968 10.496-16.20992 17.50528-23.1936 0.8704-0.89088 19.69152 0.86016 29.30176 4.80256v3.93728l5.7088 2.18624 4.352-10.496 10.95168-4.37248z m-123.8272 75.264c-2.6368-0.88576-24.94976-3.9424-24.94976-3.072-8.74496 6.12352-9.6256 11.81696-9.6256 17.07008 13.99808-13.99808 13.58336-13.99808 34.57536-13.99808z m-17.07008-100.62848s16.18432-2.2016 15.74912-0.88576c-1.31584 5.68832 2.18624 19.24096 2.18624 17.0496l-9.17504 7.4496c18.80576-9.63072 38.93248-7.44448 59.07968-9.20064 0 0-17.0752-4.80256-15.75424-4.80256 3.93728-0.4352-0.88576-17.5104-2.20672-17.94048 3.072-0.88576 6.57408-1.75104 9.64608-2.61632-24.51456-6.12864-38.51776-2.64192-59.52512 10.92608v0.02048z" fill="#000000" p-id="8960"></path><path d="M734.76096 530.37056l-3.5072 1.77664c-0.4352-10.51648-11.81696-9.6512-20.992-9.6512l-7.87456-1.75104c2.16576 2.18624 9.61024 2.18624 6.5536 6.57408-2.61632 1.30048-3.50208 6.99392-4.80256 11.81696h-4.39296c7.44448 3.05152 14.45376 5.23776 22.33344 8.74496l4.80256 0.86528 11.38176-6.10304-3.50208-12.27264z" fill="#000000" p-id="8961"></path><path d="M628.41856 526.6688c-1.73056-8.56576-10.92608-7.5008-12.67712-2.14528-1.75616 4.29568 0 34.304 1.75104 28.94848 3.05152-6.44096 6.9888-8.58624 11.38176-8.58624 0.8704-5.35552 0.4352-11.79648-0.45568-18.21696z m87.08096 43.93472c0.88576-1.06496 2.64192-16.06656 2.18624-20.36224-1.30048-10.71104-9.6256-8.56576-9.6256-8.56576-2.17088 3.21024-3.9424 19.3024-3.05664 24.63744 0.4352 5.376 9.19552 6.43584 10.496 4.29056z" fill="#FFFFFF" p-id="8962"></path><path d="M354.51904 749.60896l5.23776 0.43008c31.50848 15.30368 83.57376 38.5024 159.27296 26.25024l11.81696 18.80576c-33.24416 16.20992-69.12 12.26752-102.4 13.58848l-73.92768-59.07456z m-45.50656-122.96192l15.75424 66.50368c42.43456 26.7008 115.08224 56.88832 175.45728 54.25152l-13.568-30.6176c-126.0288-26.25536-136.5248-60.38016-177.64352-90.1376z m39.38304-136.07424c7.87968 51.61472 17.92 90.56768 63.01696 123.37664 27.56608 19.69152 54.6816 39.38304 87.92576 55.56736 0 0-3.05152 15.32416-5.23776 14.88896-98.89792-10.94656-171.08992-92.7488-179.85024-130.4064 8.30976-28.43136 20.5824-46.37184 34.1248-63.44192l0.02048 0.01536z m47.2576-29.3376c13.11744 57.32352 44.62592 115.08224 75.68384 167.5776 11.38176 14.45376 14.45376 21.01248 31.93856 29.77792 23.63392 7.44448 40.704 5.68832 57.7792 4.37248-4.82816-8.74496-8.76544-17.94048-14.45376-26.25024-38.5024-30.6432-20.992-58.64448-10.496-76.14976-21.44768-5.23776-49.88416-17.05472-53.82144-32.37376-6.12352-49.01888-2.61632-64.31744 3.5072-89.7024-28.89216 6.12352-58.64448 12.25216-90.15296 22.74816h0.02048z" fill="#000000" p-id="8963"></path><path d="M288.88576 157.57824c-9.6512 6.10304-18.82624 15.29856-28.88704 25.36448-16.61952 17.07008-27.5712 33.6896-44.19072 45.96224-3.5072 3.05152-12.6976 7.424-24.51456 8.30976-5.67296 0.43008-9.18016 1.30048-19.24096 0-9.19552-4.82816-17.5104-1.77152-25.81504 8.30976-9.20064 13.1328-21.01248 38.06208-25.82016 54.25152-10.0608 39.81824 15.30368 73.07776 39.81824 98.4576 21.8624 20.992 34.12992 34.56 42.86976 53.82144 6.5792 12.68224 11.81696 29.73696 17.0752 42.00448 1.75104 3.9424 1.75104 3.9424 6.9888 4.80768 11.38176 2.6368 27.136 2.6368 41.15968 3.50208 6.10304 0 14.4128 0 22.29248-0.86528 10.94656-2.18624 23.6288-3.9424 34.14528-7.87456 10.496-2.64192 19.69152-6.12864 28.00128-9.20064-0.88576 3.5072-9.19552 7.0144-12.24704 11.81696-28.45696 40.704-36.33152 76.99968-31.0784 133.90848 2.62144 25.36448 8.74496 46.37696 17.5104 70.44096 3.93728 10.92608 12.68224 28.43136 20.5568 39.81824 24.4992 34.56 78.7712 78.31552 154.4704 95.3856a109.1584 109.1584 0 0 0 42.43456-3.072c37.1968-11.36128 113.76128-38.06208 113.76128-38.06208s-67.81952 5.7088-98.4576 2.6368c-6.99392-1.32096-14.8736-1.32096-20.11136-6.5792-0.88576-0.86528-3.93728-6.9888-1.77152-7.424 2.64192 0 10.51648-3.072 22.33344-4.38784-25.38496-2.62144-24.9344-2.62144-26.68544-7.424a267.4432 267.4432 0 0 0-11.81696-25.40544c10.9312 0.88576 35.88096 2.20672 44.19072-6.10304 0 0-14.43328 1.75104-27.56608 0-4.37248-0.45568-11.81696-3.072-14.0032-3.9424-5.69344-2.18112-10.496-3.072-11.81696-4.36736-2.18624-5.25824-3.50208-7.0144-5.68832-13.58848-3.5072-9.17504-3.5072-19.24096-4.37248-28.43648 8.30976 10.51648 19.25632 19.26144 33.25952 23.63392 0-0.4352 18.37568 7.87456 31.94368 3.50208l2.61632-0.8704c0 0.44032-8.74496 0.8704-12.24704-0.88064-27.136-11.38176-31.0784-21.44768-35.44576-26.68544l-11.81696-17.52576c3.5072-6.9888 5.7088-7.424 10.0608-7.424 14.0032 1.77152 20.5824 2.64192 28.89216 0.88576 5.68832 12.25216 7.44448 24.064 20.5568 32.80896 44.1856 13.1328 53.82144-3.9424 64.768-18.80576 31.94368 23.6288 84.00896 30.6176 119.8848 0.4352 45.94688-52.95616 60.38016-136.52992 56.44288-141.33248-5.67296-9.6512-13.11744-19.69152-19.69664-18.37568-23.17824 6.10816-31.50336 17.92-54.25152 15.30368 2.64192 0 7.44448 0 7.44448-0.4352 1.75104-19.25632 0-28.43648-0.8704-30.18752-7.00416-15.31904-16.2048-31.50848-22.3232-43.32544-1.75616-2.61632-6.55872-21.44256-14.4384-28.88704-3.5072-3.05152-11.81696-10.496-11.81696-10.496l-0.86528 8.30976s3.4816 0.45568 4.37248 5.71392c4.80256 19.23584 28.86656 65.1776 30.6176 67.36384 8.76544 14.0032 0.89088 31.0784 7.4496 40.704 0.43008 1.30048 13.1328 0 23.1936 0.4352 16.18944-3.5072 15.30368-10.496 29.30176-11.81696 9.6512-0.88576 10.51648 17.0752 10.0864 18.37568-1.77152 19.69152-7.87968 41.99936-16.64 63.01184-18.80576 36.31616-39.81824 69.12-70.00576 73.51296-36.76672 6.5536-55.57248-9.6256-75.264-19.69152l-7.44448 6.5536c-25.79968 25.82016-56.43776 23.19872-68.68992-10.0352-6.12352-13.13792-14.45376-21.0176-21.46304-31.96416l-36.74624 26.7008c-3.05152 6.10304-6.9888 16.18944-11.3664 27.11552a99.13344 99.13344 0 0 0-5.70368 31.94368c-4.80768 7.87456 16.2048 40.704 29.7728 60.39552 3.9424 5.68832 11.38176 16.18432 11.38176 16.61952 2.62144 7.0144 8.30976 13.1328 8.74496 13.568 24.94976 32.37376-31.0784 24.9344-42.89024 22.74304-22.74816-3.4816-45.056-13.11232-66.06848-25.79456-1.32096-0.88576-2.62144-1.32096-3.5072-2.2016-24.92928-15.75936-47.6928-35.88608-67.38432-55.5776-11.81696-13.11232-22.74816-40.24832-31.05792-59.07456-12.24704-45.94176-29.75232-125.57824 17.92-185.9584 3.072-3.50208 6.144-9.19552 9.20064-10.496a129.49504 129.49504 0 0 1 45.95712-19.69152l-1.77152-10.51136c-8.28928 1.77152-35.86048 12.26752-43.73504 16.2048-17.94048 5.23776-32.82944 10.496-55.57248 16.18944-7.2704 0.8704-14.61248 0.8704-21.87776 0-16.18432-2.18624-44.2112-0.4352-45.94176-1.77664-10.94656-15.29856-14.0032-43.29984-24.064-58.16832a180.16256 180.16256 0 0 0-19.69152-21.01248c-24.08448-24.064-45.09696-47.2576-50.76992-72.192-1.31584-7.44448-5.25312-14.88896-3.072-36.33152 5.71392-20.1216 15.32416-36.74624 31.50848-52.93568 16.64 0.4352 33.28 0.4352 46.39744 3.05664 6.10304 0.88576 18.37056 2.6368 31.0528 7.43936 32.39424 11.81696 74.83392 31.94368 74.83392 31.94368-31.94368-17.5104-67.82464-40.25344-90.13248-45.07648-3.5072-0.4352-5.25824-2.16576-6.5792-4.80256 34.12992-20.12672 40.27392-43.32544 62.58176-64.31744 10.04544-4.39296 13.98272-6.5792 22.74816-7.44448 80.08704 12.68224 130.83136 44.62592 170.6496 66.06848 16.18944 8.76544 31.0784 15.31904 45.07648 23.6288 12.24704 3.9424 49.42848 31.94368 60.37504 47.26272 10.95168 23.17824 19.26144 48.5632 26.70592 73.0624 5.23776 24.94464 10.04032 35.01056 10.04032 35.01056s-4.36736-20.56192-3.93728-24.4992c4.82304 1.75616 15.75424 5.25824 20.1472 4.80768 0 0-20.5824-10.496-23.19872-19.69152-8.74496-29.73696-17.0496-76.56448-19.69152-78.7712-6.5536-8.2944-33.67424-28.87168-50.31424-38.5024-6.12352-3.4816-9.6256-6.10304-10.0608-7.424 5.25312-5.25312 11.81184-12.6976 17.92-17.07008 5.7088-4.37248 10.94656-9.19552 18.82112-12.24704 34.58048-15.75424 54.7072 6.12352 59.07968 1.75104 0 0-7.44448-8.76032-3.9424-7.0144 3.5072 1.77664 14.4384 3.9424 15.75936 5.26336 12.68224 10.0608 45.94176 45.94176 65.63328 84.43904 4.80256 9.19552 6.5536 15.31904 4.37248 26.7008-2.16576 11.38688-3.9424 17.5104-6.55872 24.9344-2.18624 4.82304-14.4384 39.38304-14.4384 44.20608-2.6368 18.80576 8.31488 42.43968 8.31488 42.43968 0-6.55872-0.4352-10.06592 0-14.4384l0.86528-8.30976s-0.4352-2.2016-0.4352-3.072c0.4352-5.68832 1.75616-10.496 2.18624-13.568 3.9424-24.49408 10.95168-42.43456 18.82624-64.31232 2.16576-5.25824 5.23776-8.30976 5.23776-12.6976 0-7.424-6.5536-17.05984-11.36128-27.12064a336.128 336.128 0 0 0-17.94048-32.39424c-17.07008-24.9344-31.95904-44.1856-58.64448-56.43776-7.43936-3.5072-37.1968-6.5536-47.2576-4.80256-12.25216 2.61632-23.17824 5.23776-31.50848 10.496-13.54752 8.73984-24.064 21.85728-36.31616 29.73184-27.11552-13.54752-40.24832-24.04352-42.86976-25.36448a1119.4112 1119.4112 0 0 0-56.45824-28.43136c-10.92608-10.95168-73.05728-33.69472-130.3808-38.0672z m349.14304 509.32224c-16.61952-13.13792-31.0528-26.68544-40.24832-40.704-3.072 16.2048-14.0032 28.02176-22.74304 39.38304-1.77664 2.64192-3.072 6.5792 5.23776 17.94048 2.18624 3.072 10.496 3.5072 15.75424 3.5072-5.69344-4.37248-13.98272-8.74496-15.32416-12.68224 10.06592 6.5536 18.82624 8.73984 27.136 7.424 1.75616 0 4.37248-2.16576 6.12352-5.23776 3.5072-7.87968 6.55872-9.6512 9.63072-11.81696l6.5536 8.30976 7.8848-6.12352z" fill="#000000" p-id="8964"></path></svg>