<?xml version="1.0" standalone="no"?><!DOCTYPE svg PUBLIC "-//W3C//DTD SVG 1.1//EN" "http://www.w3.org/Graphics/SVG/1.1/DTD/svg11.dtd"><svg t="1693639789559" class="icon" viewBox="0 0 1024 1024" version="1.1" xmlns="http://www.w3.org/2000/svg" p-id="31198" xmlns:xlink="http://www.w3.org/1999/xlink" width="200" height="200"><path d="M492.032 33.28L14.848 503.808c-12.8 12.8-13.312 33.28-0.512 46.08 6.144 6.144 14.336 9.728 23.552 9.728h78.848v396.8c0 25.6 20.992 46.592 46.592 46.592h246.784v-200.192c0-12.8 10.24-23.552 23.552-23.552h150.528c12.8 0 23.552 10.24 23.552 23.552V1003.52h246.272c25.6 0 46.592-20.992 46.592-46.592v-369.664h85.504c17.92 0 32.768-14.848 32.768-32.768 0-8.192-3.072-15.872-8.704-22.016L559.104 35.84c-17.408-18.944-47.104-20.48-66.048-3.072-0.512-0.512-1.024 0-1.024 0.512z" p-id="31199"></path></svg>