<?xml version="1.0" standalone="no"?><!DOCTYPE svg PUBLIC "-//W3C//DTD SVG 1.1//EN" "http://www.w3.org/Graphics/SVG/1.1/DTD/svg11.dtd"><svg t="1704766407980" class="icon" viewBox="0 0 1024 1024" version="1.1" xmlns="http://www.w3.org/2000/svg" p-id="8826" xmlns:xlink="http://www.w3.org/1999/xlink" width="200" height="200"><path d="M0 0m64 0l896 0q64 0 64 64l0 896q0 64-64 64l-896 0q-64 0-64-64l0-896q0-64 64-64Z" fill="#3AC4FF" p-id="8827"></path><path d="M322.963 662.4v131.2h-96V662.4h96z m320 0v131.2h-96V662.4h96z m160-131.2v262.4h-96V531.2h96z m-320 67.2v195.2h-96V598.4h96z m339.2-368v224l-86.732-86.73-201.85 180.922-109.945-103.478-187.303 151.83L192 542.256l235.091-190.57 107.655 101.322 150.828-135.194-87.41-87.414h224z" fill="#FFFFFF" p-id="8828"></path></svg>