<?xml version="1.0" standalone="no"?><!DOCTYPE svg PUBLIC "-//W3C//DTD SVG 1.1//EN" "http://www.w3.org/Graphics/SVG/1.1/DTD/svg11.dtd"><svg t="1713171301092" class="icon" viewBox="0 0 1059 1024" version="1.1" xmlns="http://www.w3.org/2000/svg" p-id="36411" xmlns:xlink="http://www.w3.org/1999/xlink" width="206.8359375" height="200"><path d="M43.136 792.7296a77.45536 77.45536 0 0 0 54.74304 22.65088h381.22496v122.368h-247.6032a32.90624 32.90624 0 0 0-32.93184 32.88576A32.90624 32.90624 0 0 0 231.5008 1003.52h560.9984a32.9216 32.9216 0 0 0 32.9472-32.90112 32.9216 32.9216 0 0 0-32.9472-32.90112h-247.56736v-122.33728h381.18912c20.5312 0 40.22272-8.1408 54.74304-22.64576A77.27104 77.27104 0 0 0 1003.52 738.05824V696.32H20.48v41.73824c0 20.5056 8.1408 40.17152 22.656 54.67648zM926.12096 20.48H97.84832C55.11168 20.50048 20.48 56.68864 20.48 101.31968V604.16h983.04V101.31968C1003.52 56.67328 968.86784 20.48 926.12096 20.48z" fill="#000000" p-id="36412"></path></svg>