<?xml version="1.0" standalone="no"?><!DOCTYPE svg PUBLIC "-//W3C//DTD SVG 1.1//EN" "http://www.w3.org/Graphics/SVG/1.1/DTD/svg11.dtd"><svg t="1685433996668" class="icon" viewBox="0 0 1024 1024" version="1.1" xmlns="http://www.w3.org/2000/svg" p-id="7368" xmlns:xlink="http://www.w3.org/1999/xlink" width="200" height="200"><path d="M149.317818 64h213.364364c47.104 0 85.317818 38.167273 85.317818 85.317818v213.364364a85.317818 85.317818 0 0 1-85.317818 85.317818H149.317818a85.317818 85.317818 0 0 1-85.317818-85.317818V149.317818c0-47.104 38.167273-85.317818 85.317818-85.317818z m512 512h213.364364a85.317818 85.317818 0 0 1 85.317818 85.317818v213.364364a85.317818 85.317818 0 0 1-85.317818 85.317818h-213.364364a85.317818 85.317818 0 0 1-85.317818-85.317818v-213.364364c0-47.104 38.167273-85.317818 85.317818-85.317818z m225.931637-245.201455a31.976727 31.976727 0 0 1 60.183272 21.643637l-42.682182 118.597818a31.976727 31.976727 0 0 1-38.49309 20.014545l-124.83491-33.978181a32.023273 32.023273 0 0 1 16.849455-61.765819l64.884364 17.687273c-73.402182-144.197818-177.245091-220.578909-313.762909-231.796363a32.023273 32.023273 0 1 1 5.21309-63.767273c154.996364 12.706909 275.176727 97.838545 358.4 252.834909l14.24291-39.470546zM136.750545 693.201455a32.023273 32.023273 0 1 1-60.183272-21.643637l42.682182-118.597818a32.023273 32.023273 0 0 1 38.539636-20.014545l124.788364 34.024727a31.976727 31.976727 0 0 1-16.80291 61.765818l-64.930909-17.687273c31.464727 61.765818 68.514909 111.057455 111.197091 148.061091 57.018182 49.477818 124.276364 77.265455 202.612364 83.688727a32.023273 32.023273 0 0 1-5.259636 63.767273c-90.530909-7.447273-169.425455-39.563636-235.985455-96.209454-47.104-40.122182-87.970909-92.392727-122.414545-156.578909l-14.196364 39.470545h-0.046546z" fill="#FF6033" p-id="7369"></path></svg>