<?xml version="1.0" standalone="no"?><!DOCTYPE svg PUBLIC "-//W3C//DTD SVG 1.1//EN" "http://www.w3.org/Graphics/SVG/1.1/DTD/svg11.dtd"><svg t="1710127421018" class="icon" viewBox="0 0 1024 1024" version="1.1" xmlns="http://www.w3.org/2000/svg" p-id="26635" xmlns:xlink="http://www.w3.org/1999/xlink" width="200" height="200"><path d="M485.4272 30.1056c33.0752-26.27584 104.67328-40.576 147.7888 2.2272 49.08032 48.61952 49.4848 141.30176 49.7408 191.1296v1.97632c0.1536 34.8672-14.52544 106.83392-24.71424 151.61344h242.9952a112.50176 112.50176 0 0 1 86.12352 39.92576 110.52032 110.52032 0 0 1 24.66816 91.11552l-84.44928 456.9088c-5.77024 31.28832-33.31072 53.98016-65.3824 53.87776H76.4928C39.90016 1018.88 10.24 989.4656 10.24 953.18016V442.752c0-36.28544 29.66016-65.69984 66.2528-65.69984L199.68 377.04704V1018.88h71.68V368.64c44.73856-13.09696 115.59936-45.02016 149.18656-120.00768 17.32608-38.656 21.0944-76.61056 24.41216-110.12096 4.17792-42.7008 7.38816-82.1248 40.46336-108.40064z" p-id="26636"></path></svg>