<svg t="1702534997757" class="icon" viewBox="0 0 1049 1024" version="1.1" xmlns="http://www.w3.org/2000/svg" p-id="34604" width="200" height="200"><path d="M845.824 448c17.664 0 32 14.336 32 32v400c0 17.664-14.336 32-32 32H204.8c-17.664 0-32-14.336-32-32V480c0-17.664 14.336-32 32-32h641.024z m-320 154.0096a55.9872 55.9872 0 0 0-32 101.9648v46.0288c0 4.4032 3.5584 7.9872 7.9872 7.9872h48c4.4032 0 7.9872-3.584 7.9872-7.9872v-46.0544a55.9872 55.9872 0 0 0-32-101.9648z" p-id="34605"></path><path d="M674.816 112a99.9936 99.9936 0 0 1 99.9936 99.9936V512H274.7904V211.9936a99.9936 99.9936 0 0 1 100.0192-99.9936h299.9808z m0 64H374.784c-19.6608 0-35.6608 15.7952-35.968 35.4048V448h371.968V211.9936c0-19.6864-15.7696-35.6608-35.3792-35.9936h-0.6144z" p-id="34606"></path></svg>