<svg t="1694143341213" class="icon" viewBox="0 0 1024 1024" version="1.1" xmlns="http://www.w3.org/2000/svg" p-id="36148" width="200" height="200"><path d="M872.773818 685.661091a106.449455 106.449455 0 0 0-123.857454 12.288l-50.827637-29.463273v-145.408a42.170182 42.170182 0 0 0-21.085091-36.538182L546.629818 411.461818V347.136a107.426909 107.426909 0 1 0-69.026909 0V411.461818l-130.420364 75.077818a42.170182 42.170182 0 0 0-21.08509 36.538182v145.314909l-50.781091 29.463273a106.449455 106.449455 0 0 0-123.904-12.288 107.52 107.52 0 0 0-39.284364 146.618182 106.589091 106.589091 0 0 0 145.92 39.284363 107.380364 107.380364 0 0 0 51.386182-113.896727l46.685091-27.136 134.795636 77.684364a42.449455 42.449455 0 0 0 42.170182 0l134.702545-77.591273 46.731637 27.136c-8.750545 43.799273 10.705455 90.298182 51.386182 113.896727a106.496 106.496 0 0 0 145.92-39.284363 107.52 107.52 0 0 0-39.051637-146.618182zM227.607273 818.362182a45.614545 45.614545 0 0 1-62.510546-16.896 46.033455 46.033455 0 0 1 16.756364-62.789818 45.614545 45.614545 0 0 1 62.510545 16.896 46.033455 46.033455 0 0 1-16.756363 62.789818z m238.452363-572.974546a46.033455 46.033455 0 1 1 92.020364 0.046546 46.033455 46.033455 0 0 1-92.020364 0z m162.955637 427.799273L512 740.584727l-116.968727-67.397818v-134.609454L512 471.179636l116.968727 67.397819v134.609454z m230.027636 128.418909a45.754182 45.754182 0 0 1-62.510545 16.849455 46.08 46.08 0 0 1-16.756364-62.836364 45.754182 45.754182 0 0 1 62.464-16.849454 45.986909 45.986909 0 0 1 16.756364 62.836363z" p-id="36149"></path></svg>