<?xml version="1.0" standalone="no"?><!DOCTYPE svg PUBLIC "-//W3C//DTD SVG 1.1//EN" "http://www.w3.org/Graphics/SVG/1.1/DTD/svg11.dtd"><svg t="1704879595507" class="icon" viewBox="0 0 1024 1024" version="1.1" xmlns="http://www.w3.org/2000/svg" p-id="9381" xmlns:xlink="http://www.w3.org/1999/xlink" width="200" height="200"><path d="M664.1408 679.0656v117.88288h-14.848v-20.18304c-13.52704 16.10752-28.84608 24.19712-46.21824 24.19712-17.36704 0-31.97952-6.12352-43.90912-18.39104a61.67552 61.67552 0 0 1-17.78688-44.17024c0-17.20832 5.9904-31.8208 18.00192-43.91424 11.95008-12.26752 26.32704-18.39104 43.06432-18.39104 19.26144 0 34.816 8.25344 46.848 24.6784v-21.54496l14.848-0.15872m-13.9776 59.48928c0-13.50656-4.57216-24.81152-13.53216-33.9456a44.4416 44.4416 0 0 0-33.31584-13.98784c-13.04064 0-24.04864 4.7872-33.08544 14.45888a47.31904 47.31904 0 0 0-13.50656 33.792c0 13.056 4.62336 24.35584 13.74208 33.9456 9.19552 9.51296 20.12672 14.21824 32.84992 14.21824 12.89728 0 23.8848-4.62848 33.08032-13.74208 9.19552-9.25696 13.7472-20.81792 13.7472-34.7392m44.01152 58.38848v-159.37024h33.08032c22.65088 0 39.22944 1.73056 49.74592 5.12a68.864 68.864 0 0 1 27.50976 15.7184c7.70048 7.0656 13.58848 15.79008 17.7664 26.1632 4.1472 10.36288 6.1952 22.4768 6.1952 36.3776 0 13.76256-3.20512 26.79808-9.74336 39.0656-6.35904 12.09344-15.08352 21.28896-26.17344 27.4944-10.9056 6.2208-26.7776 9.34912-47.45728 9.34912l-50.92352 0.08192z m15.31904-15.08352h18.39616c19.25632 0 33.15712-0.9472 41.74336-2.9184 8.704-1.96608 16.34816-5.7088 22.84544-11.29984a56.64256 56.64256 0 0 0 14.86848-20.9152c3.36384-8.17152 5.12-17.44896 5.12-27.96032 0-10.53696-1.9712-20.20864-5.9904-29.08672a56.71424 56.71424 0 0 0-16.65536-21.99552 57.30304 57.30304 0 0 0-25.79968-11.56096c-9.728-2.048-24.18176-3.072-43.28448-3.072h-11.32032v128.80896h0.0768z m-213.18656-135.64416a12.60544 12.60544 0 0 1 3.54304-8.8576 12.2112 12.2112 0 0 1 8.8576-3.78368c3.54816 0 6.54336 1.25952 8.8832 3.7632 2.52416 2.36032 3.78368 5.35552 3.78368 8.87808a12.2112 12.2112 0 0 1-3.78368 8.8832 12.09344 12.09344 0 0 1-8.8576 3.54304 12.2112 12.2112 0 0 1-8.90368-3.77856 12.32896 12.32896 0 0 1-3.54304-8.64768m4.88448 32.84992h15.31904v117.87776h-15.31904V679.0656zM81.664 796.94848l22.64576-159.37024h2.42176l64.768 130.69824 64.3584-130.75968h2.43712l22.86592 159.34976h-15.7184l-15.47776-114.01728-56.35584 114.0992h-3.99872L112.5632 681.984l-15.55968 114.96448H81.664m317.71648-117.87776v117.87776h-14.848v-20.18304c-13.51168 16.10752-28.8256 24.19712-46.19776 24.19712s-31.97952-6.12352-43.93472-18.39104a61.67552 61.67552 0 0 1-17.7664-44.17024c0-17.20832 5.96992-31.8208 18.00192-43.91424 11.9552-12.26752 26.32704-18.39104 43.06944-18.39104 19.25632 0 34.816 8.25344 46.82752 24.6784v-21.54496l14.848-0.15872m-13.90592 59.48928c0-13.50656-4.54656-24.81152-13.50656-33.9456a44.4416 44.4416 0 0 0-33.32096-13.98784c-13.056 0-24.04352 4.7872-33.08032 14.45888a47.31904 47.31904 0 0 0-13.53216 33.792c0 13.056 4.57216 24.35584 13.76768 33.9456 9.19552 9.51296 20.10624 14.21824 32.8448 14.21824 12.88192 0 23.88992-4.62848 33.08544-13.74208 9.1136-9.25696 13.74208-20.81792 13.74208-34.7392m39.7824-59.4688h15.55456v17.13152c4.15744-6.93248 8.17152-12.032 11.9296-15.33952 4.02432-3.21024 8.33536-4.864 13.13792-4.864 4.864 0 9.728 1.33632 14.61248 3.9936l-8.0128 12.9024a13.1584 13.1584 0 0 0-6.8352-1.9712c-4.56704 0-8.96 2.36544-13.1328 7.0912-3.99872 4.70528-6.912 10.8288-8.86272 18.37056-1.9712 7.38304-2.9184 20.97152-2.9184 40.6272v39.91552h-15.49312V679.0656l0.02048 0.02048z m421.43232-41.51296h31.50848c16.7424 0 29.39904 3.38432 37.9648 10.24 8.72448 6.656 13.11744 16.24576 13.11744 28.8256a37.12 37.12 0 0 1-20.41856 33.32096c10.9056 3.54816 19.23584 8.86272 24.81152 15.95392 5.82656 7.0656 8.66304 15.55456 8.66304 25.30304 0 13.19424-4.80256 24.12544-14.47424 32.8448-9.6512 8.57088-22.07232 12.88192-37.31456 12.88192h-43.93472v-159.37024h0.0768z m15.7184 15.55456v51.08224h9.1136c13.90592 0 24.28416-2.18624 31.03744-6.67648 6.77376-4.46976 10.24-11.39712 10.24-20.8896 0-15.65696-10.63424-23.51616-32-23.51616h-18.39616z m0 67.03616v61.24032h19.72736c11.38176 0 19.712-1.12128 25.06752-3.30752a31.54944 31.54944 0 0 0 13.35296-10.63424c3.38944-4.864 5.12-9.8048 5.12-14.82752 0-5.0432-0.94208-9.51296-2.9184-13.37344a30.22848 30.22848 0 0 0-8.64256-10.21952 38.89152 38.89152 0 0 0-13.50656-6.67648c-5.1968-1.49504-14.9504-2.2016-29.32224-2.2016H862.40256zM816.68096 137.84576c-9.76896 0.29696-6.93248 4.7104-28.12416 10.00448-21.42208 5.2992-47.29856 2.00704-70.28224 11.6992-60.19584 25.22112-69.98528 122.79808-141.66528 160.54784-47.0016 26.58816-94.976 32.6912-137.8816 46.12096-34.38592 13.78304-55.79264 22.97856-81.01888 44.68224-19.55328 16.85504-24.32 33.28-44.83584 54.46656-20.736 28.20096-99.44576 3.13344-119.66976 38.55872 10.67008 6.95296 16.87552 8.8064 35.59936 6.34368-3.87584 7.3216-28.51328 17.01376-24.02304 27.82208 0 0 59.60704 10.9056 109.88544-19.456 23.43424-9.5488 45.42976-29.696 81.83808-34.53952 47.14496-6.28224 100.352 9.9072 157.34272 14.47424-11.776 23.27552-23.94624 37.05856-36.92032 56.2432-4.03968 4.33152 3.42528 8.20736 17.3056 5.50912 24.832-6.17984 42.89024-12.81536 60.78976-25.20576 23.35744-16.10752 33.36192-30.81728 53.05344-54.15424 17.09056 27.45344 77.36832 33.41824 89.7536 9.76896-22.97856-9.78432-27.904-60.5184-20.08064-82.37056 9.33376-20.87424 16.04608-50.3552 23.58784-77.80352 6.77376-24.69888 10.97216-62.36672 19.10272-81.70496 9.68704-23.94624 28.4928-31.46752 42.5984-44.14976 14.09536-12.76416 28.19584-23.35744 27.76064-52.45952-0.31232-9.45664-5.23776-14.6944-14.11584-14.39744z" fill="#1F305F" p-id="9382"></path><path d="M210.90304 533.10976c36.92544 1.1008 46.98624 0.13824 76.14976-12.544 24.85248-10.8288 58.05568-39.8336 87.43424-49.2288 43.12576-13.80352 89.30816-11.79648 135.13216-6.34368 15.36 1.85344 30.72 4.39296 41.76384 3.21024 17.152-10.53696 17.98144-39.18848 28.65152-41.41056-2.91328 55.35232-26.63936 90.7776-50.35008 122.88 49.97632-8.8064 83.39456-40.07424 103.61856-78.70976 6.10816-11.71968 16.34816-30.8992 20.95616-44.11392 3.6608 8.74496-4.76672 14.336-0.80896 23.88992 32.1536-26.56768 47.36-56.85248 60.416-101.08416 15.16032-51.25632 30.67904-95.34976 40.3712-110.4896 9.472-14.7712 24.32-23.94624 37.80608-33.41824 15.38048-10.83392 29.1072-22.016 31.43168-42.53696-16.18944-1.49504-19.93216-5.2224-22.31296-13.42976-8.13568 4.54656-15.59552 5.51424-23.94624 5.82656-7.30624 0.22016-15.36-0.0768-25.14944 0.88576-81.09056 8.27392-84.8896 87.59296-143.83104 145.86368a180.36224 180.36224 0 0 1-14.63296 12.3904c-18.19136 13.58336-37.66784 21.02784-58.24512 28.86656-33.28 12.67712-64.84992 16.39936-96.02048 27.37152-22.90176 8.07424-44.17024 17.2288-63.05792 30.12608-4.6848 3.23072-11.02848 8.96-15.13984 12.32896-11.02848 9.02144-18.2784 19.0208-25.28768 29.39904-7.22432 10.57792-14.1824 21.54496-24.85248 32-17.2288 16.93696-81.60256 4.92544-104.28928 20.67968a18.31424 18.31424 0 0 0-5.90848 6.31808c12.40576 5.59616 20.67968 2.16576 34.85696 3.74272 1.792 13.27104-29.39904 21.32992-24.77568 27.53024h0.02048z" fill="#C0765A" p-id="9383"></path><path d="M727.08096 189.91104c11.47904 10.00448 35.584 1.95072 31.25248-17.8176-17.90464-1.57696-28.20096 4.46976-31.25248 17.8176zM805.94944 166.71744c-3.072 6.41536-8.8832 14.70976-8.8832 30.95552 0 2.75456-2.08896 4.72576-2.16576 0.39424 0.13824-15.9744 4.39296-22.84544 8.8576-31.86176 2.03264-3.66592 3.29216-2.17088 2.17088 0.512h0.02048z m-3.584-2.38592c-3.66592 6.10304-12.30848 17.23392-13.72672 33.49504-0.23552 2.75968-2.56 4.55168-2.16576 0.22016 1.57184-15.81568 8.50432-25.73824 13.7216-34.38592 2.38592-3.584 3.5072-1.9456 2.17088 0.67072z m-3.584-3.21024c-4.11648 5.74976-17.46944 19.17952-20.224 35.21024-0.512 2.75968-2.9184 4.2496-2.17088 0 2.9184-15.65696 14.39744-27.96032 20.38272-36.096 2.52416-3.28704 3.56352-1.57696 2.01216 0.88576z" fill="#1F305F" p-id="9384"></path><path d="M798.78144 157.5424c-4.84864 5.15584-20.81792 22.2464-25.82016 37.74464-0.88576 2.69824-3.50208 3.80416-2.16576-0.29184 5.07904-15.14496 19.02592-31.4112 26.0352-38.5792 3.072-2.9696 3.81952-1.1008 1.9456 1.1264z" fill="#1F305F" p-id="9385"></path></svg>