<svg t="1708917991038" class="icon" viewBox="0 0 1170 1024" version="1.1" xmlns="http://www.w3.org/2000/svg" p-id="9491" width="200" height="200"><path d="M371.858286 644.022857H0.731429V375.661714h371.053714v268.361143z m424.009143 53.686857v321.974857h304.786285c36.571429 0 66.194286-29.988571 66.194286-67.072V697.782857h-370.980571z m0-53.686857h370.980571V375.661714h-370.980571v268.361143z m370.980571-321.974857V67.072A66.779429 66.779429 0 0 0 1100.653714 0H67.145143C30.500571 0 0.804571 29.988571 0.731429 67.072v254.976h1166.043428zM371.785143 697.709714H0.877714v254.902857c0 37.010286 29.696 67.072 66.267429 67.072h304.786286V697.782857z m53.028571 321.974857h318.025143V697.782857H424.813714v321.974857z m0-375.661714h318.025143V375.661714H424.813714v268.361143z" fill="#AEDBB0" p-id="9492"></path><path d="M406.674286 313.636571V731.428571h190.756571c44.470857 0 78.994286-8.192 103.570286-24.576 28.672-19.894857 43.300571-50.322286 43.300571-92.452571 0-28.086857-7.021714-50.907429-21.065143-67.876571-14.043429-16.969143-35.108571-28.086857-62.610285-33.353143a103.862857 103.862857 0 0 0 48.566857-34.523429c11.702857-16.384 17.554286-36.278857 17.554286-59.684571 0-32.182857-11.117714-57.344-33.353143-76.068572-23.405714-19.894857-55.003429-29.257143-95.963429-29.257143H406.674286z m63.780571 52.662858h111.177143c28.086857 0 49.152 4.681143 62.025143 14.628571 12.873143 9.362286 19.309714 24.576 19.309714 45.641143 0 22.235429-6.436571 38.619429-19.309714 49.152-12.873143 9.947429-33.938286 15.213714-63.195429 15.213714H470.454857V366.299429z m0 176.713142h119.954286c30.427429 0 53.248 5.266286 67.876571 16.384 14.628571 11.117714 22.235429 29.257143 22.235429 53.833143 0 23.990857-9.947429 41.545143-28.672 52.662857-15.213714 8.192-36.278857 12.873143-63.195429 12.873143H470.454857V543.012571z" fill="#000000" fill-opacity=".65" p-id="9493"></path></svg>