<svg t="1708918031811" class="icon" viewBox="0 0 1170 1024" version="1.1" xmlns="http://www.w3.org/2000/svg" p-id="9639" width="200" height="200"><path d="M371.858286 644.022857H0.731429V375.661714h371.053714v268.361143z m424.009143 53.686857v321.974857h304.786285c36.571429 0 66.194286-29.988571 66.194286-67.072V697.782857h-370.980571z m0-53.686857h370.980571V375.661714h-370.980571v268.361143z m370.980571-321.974857V67.072A66.779429 66.779429 0 0 0 1100.653714 0H67.145143C30.500571 0 0.804571 29.988571 0.731429 67.072v254.976h1166.043428zM371.785143 697.709714H0.877714v254.902857c0 37.010286 29.696 67.072 66.267429 67.072h304.786286V697.782857z m53.028571 321.974857h318.025143V697.782857H424.813714v321.974857z m0-375.661714h318.025143V375.661714H424.813714v268.361143z" fill="#AEDBB0" p-id="9640"></path><path d="M526.628571 313.636571L365.714286 731.428571h67.876571l39.204572-107.666285H652.434286L691.638857 731.428571h68.461714l-160.914285-417.792H526.628571z m-34.523428 257.462858l69.632-189.001143h2.340571l69.046857 189.001143H492.105143z" fill="#000000" fill-opacity=".65" p-id="9641"></path></svg>