<?xml version="1.0" standalone="no"?><!DOCTYPE svg PUBLIC "-//W3C//DTD SVG 1.1//EN" "http://www.w3.org/Graphics/SVG/1.1/DTD/svg11.dtd"><svg t="1704879590381" class="icon" viewBox="0 0 1024 1024" version="1.1" xmlns="http://www.w3.org/2000/svg" p-id="9242" xmlns:xlink="http://www.w3.org/1999/xlink" width="200" height="200"><path d="M584.46848 680.0384c0 17.60256-6.44096 32.0512-19.3024 43.35616-12.89728 11.264-30.16704 16.896-51.80928 16.896-20.28032 0-39.91552-6.45632-58.88-19.39456l8.8832-17.8176c16.36352 8.20736 31.19104 12.30336 44.4672 12.30336 12.46208 0 22.23104-2.75456 29.30176-8.30976 7.05024-5.51424 11.24352-13.2352 11.24352-23.04 0-12.30848-8.5504-22.8608-24.29952-31.70304a4143.64672 4143.64672 0 0 1-43.56096-24.6784c-15.7184-11.52-23.61344-23.82336-23.61344-44.16512 0-16.8192 5.888-30.40768 17.62816-40.76544 11.75552-10.35776 26.93632-15.5392 45.54752-15.55456 19.24096 0 36.7104 5.12 52.43904 15.37536l-8.0128 17.82272a101.31456 101.31456 0 0 0-39.8336-8.58624c-10.63936 0-18.83136 2.56-24.54016 7.68-5.74976 5.12-9.29792 11.6992-9.29792 19.69152 0 12.288 8.76544 22.9632 24.9344 31.96416 14.68928 7.99232 44.42624 25.00608 44.42624 25.00608 16.14336 11.48416 24.2176 23.71072 24.2176 43.8784l0.06144 0.03584z m61.97248 16.00512c-8.39168-13.52704-12.58496-35.24608-12.56448-65.19808 0-52.26496 15.83104-78.39744 47.53408-78.41792 16.54272 0 28.73344 6.2464 36.51072 18.74944 8.3712 13.50656 12.544 35.05152 12.56448 64.5888 0 52.6592-15.83104 79.0272-47.5392 79.04768-16.5376 0-28.70784-6.26688-36.48512-18.76992h-0.02048z m123.27424 46.53568l-38.04672-18.80576a70.5024 70.5024 0 0 0 9.51296-9.25696c16.16384-19.0464 24.25856-47.24224 24.25856-84.56192 0-68.66432-26.88-103.00928-80.66048-103.02976-26.38848 0-46.9248 8.72448-61.63456 26.15296-16.18944 19.06176-24.26368 47.14496-24.22272 84.26496 0 36.49024 7.14752 63.232 21.46304 80.26624 13.03552 15.36 32.768 23.06048 59.15648 23.06048 9.84576 0 18.88768-1.2032 27.11552-3.64544l49.54624 28.90752 13.51168-23.31648v-0.03584z m124.2368-4.98176h-98.4576v-207.616h33.11616v182.05184h65.32096v25.54368l0.02048 0.02048z m23.6288-0.04096h5.51424v-21.1456h7.168v-4.33664h-20.1216v4.33152h7.48032v21.13024h-0.02048l-0.02048 0.02048z m41.74848 0h5.18144v-25.40544h-7.7824l-6.33856 17.3312-6.912-17.3312h-7.48032v25.40544h4.87936v-19.3536h0.27648l7.20896 19.3536h3.7376l7.20896-19.3536v19.3536h0.02048z" fill="#E1902D" p-id="9243"></path><path d="M282.38848 737.57696h-34.6624a1921.23904 1921.23904 0 0 0-10.1376-165.45792h-0.31744l-52.75648 165.45792h-26.368l-52.39808-165.45792h-0.31744c-3.89632 49.62816-6.35904 104.76544-7.36256 165.45792h-31.62624c2.048-73.80992 7.168-143.00672 15.31904-207.59552h42.9312l50.0224 152.53504h0.29184l50.29376-152.53504h41.07776c9.01632 75.61728 14.336 144.83456 15.9488 207.59552h0.06144z m150.31296-153.14944c-14.12096 76.75904-32.73216 132.5312-55.82848 167.3472-17.98144 26.79808-37.71392 40.21248-59.19744 40.21248-5.7088 0-12.75904-1.73568-21.1456-5.16096v-18.49344c4.7616 0.65024 9.58464 0.96768 14.4128 0.92672 10.01984 0 18.09408-2.75456 24.2176-8.2944 7.36768-6.76864 11.02848-14.35136 11.02848-22.7584 0-5.77024-2.85184-17.54624-8.58624-35.36896l-38.00576-118.41024h34.03264l27.2896 88.53504c6.10816 20.09088 8.66816 34.1504 7.68 42.14272 14.92992-39.97184 25.344-83.55328 31.27296-130.67776h32.82944z m491.1616-93.696c-18.19648-0.45056-32.29184 1.36192-44.1088 6.37952-3.4048 1.3824-8.84224 1.3824-9.3184 5.69344 1.83296 1.81248 2.03264 4.7616 3.64544 7.28576 2.71872 4.56704 7.46496 10.71104 11.81696 13.9008 4.74624 3.64544 9.52832 7.28576 14.55104 10.47552 8.84224 5.49888 18.90816 8.66816 27.4944 14.16192 5.0176 3.18976 9.99936 7.28576 15.02208 10.71104 2.4832 1.81248 4.07552 4.7872 7.2704 5.90848v-0.6912c-1.61792-2.02752-2.048-5.00224-3.62496-7.28576-2.28864-2.26304-4.5312-4.33152-6.8352-6.59456a108.1088 108.1088 0 0 0-23.6544-23.01952c-7.26016-5.02272-23.1936-11.85792-26.12736-20.28544l-0.47104-0.45056c5.00224-0.45568 10.92608-2.304 15.67232-3.6864 7.72096-2.048 14.7456-1.57184 22.72768-3.61984 3.64032-0.92672 7.26528-2.06848 10.94656-3.18976v-2.06848c-4.13696-4.096-7.0912-9.55392-11.38176-13.42976a303.22176 303.22176 0 0 0-37.51424-28.02176c-7.0656-4.57216-16.14848-7.50592-23.6288-11.42272-2.71872-1.3824-7.28576-2.02752-8.86272-4.33152-4.096-5.02272-6.37952-11.60192-9.33376-17.52576a574.5152 574.5152 0 0 1-18.63168-39.65952c-4.07552-8.8832-6.59456-17.78688-11.61728-25.99424-23.43424-38.77376-48.83456-62.22848-87.94624-85.23264-8.42752-4.78208-18.45248-6.83008-29.10208-9.34912-5.69344-0.24064-11.38176-0.6912-17.05472-0.90624-3.64544-1.59744-7.28576-5.92896-10.45504-7.97696-12.95872-8.21248-46.35648-25.99424-55.93088-2.50368-6.144 14.83264 9.09824 29.40416 14.336 36.92544 3.84 5.23776 8.86272 11.1872 11.58144 17.09056 1.57696 3.88096 2.02752 7.97696 3.64544 12.09344 3.61984 10.02496 7.02976 21.18656 11.81184 30.5664 2.52416 4.78208 5.23776 9.8048 8.41216 14.11584 1.82784 2.51904 4.99712 3.64032 5.68832 7.7568-3.1488 4.57216-3.4304 11.40224-5.23776 17.0752-8.17152 25.7536-5.00224 57.6768 6.61504 76.60032 3.62496 5.67296 12.26752 18.21696 23.86944 13.43488 10.24-4.11648 7.95648-17.09568 10.9056-28.49792 0.6912-2.75456 0.24064-4.56704 1.57696-6.35904v0.45056c3.21024 6.37952 6.37952 12.52352 9.33376 18.92352 7.0912 11.14624 19.33824 22.784 29.55776 30.52544 5.43744 4.13696 9.76896 11.1616 16.60416 13.70624v-0.6912h-0.4352c-1.3824-2.048-3.4304-2.95424-5.2224-4.52608a116.5824 116.5824 0 0 1-11.8272-13.68576 292.03456 292.03456 0 0 1-25.46688-41.472c-3.64032-7.0912-6.83008-14.81216-9.78432-21.87776-1.36192-2.7392-1.36192-6.8352-3.64544-8.21248-3.42528 5.00224-8.42752 9.33376-10.92608 15.47776-4.31616 9.82528-4.76672 21.87776-6.36416 34.42176-0.90624 0.23552-0.43008 0-0.90624 0.47104-7.26528-1.81248-9.76384-9.33376-12.48256-15.7184-6.8096-16.1792-7.97696-42.17856-2.048-60.86656 1.57696-4.78208 8.40704-19.82976 5.68832-24.37632-1.37728-4.37248-5.90336-6.8352-8.42752-10.28096a89.10848 89.10848 0 0 1-8.15104-14.57152c-5.4528-12.75904-8.21248-26.92096-14.10048-39.68-2.73408-5.92896-7.5264-12.07296-11.38176-17.52576-4.33152-6.16448-9.09824-10.496-12.52352-17.78176-1.1264-2.51904-2.7136-6.63552-0.90624-9.33376 0.4352-1.85344 1.3824-2.51904 3.1744-2.95424 2.94912-2.50368 11.35616 0.6912 14.29504 2.02752 8.40704 3.4304 15.45728 6.63552 22.48704 11.4176 3.18976 2.28864 6.61504 6.6048 10.69056 7.74144h4.7872c7.28576 1.57696 15.4624 0.4352 22.29248 2.50368 11.52512 3.84512 22.528 9.13408 32.72704 15.73376a202.00448 202.00448 0 0 1 70.89152 77.96224c2.7392 5.2224 3.88096 10.02496 6.37952 15.47776 4.76672 11.1872 10.6752 22.58432 15.4624 33.51552 4.7616 10.69568 9.33376 21.6576 16.128 30.5408 3.38432 4.76672 17.0496 7.29088 23.17824 9.80992 4.52608 2.02752 11.61728 3.86048 15.65184 6.35904 7.74144 4.7616 15.44192 10.24 22.72768 15.5136 3.61984 2.72384 15.0016 8.41216 15.67232 12.98432l0.11776-0.08192z" fill="#2B6B86" p-id="9244"></path><path d="M691.98848 292.62848a35.64544 35.64544 0 0 0-9.29792 1.14176v0.45056h0.4352c1.85344 3.64544 5.0176 6.18496 7.28576 9.35424 1.83296 3.66592 3.40992 7.28576 5.23776 10.95168 0.1536-0.14848 0.29184-0.29696 0.4352-0.45568 3.2256-2.28352 4.78208-5.90848 4.78208-11.4176-1.37728-1.59744-1.57184-3.1744-2.7136-4.7872-1.36192-2.26304-4.33152-3.4048-6.144-5.2224v-0.03584l-0.02048 0.02048z" fill="#2B6B86" p-id="9245"></path></svg>