<?xml version="1.0" standalone="no"?><!DOCTYPE svg PUBLIC "-//W3C//DTD SVG 1.1//EN" "http://www.w3.org/Graphics/SVG/1.1/DTD/svg11.dtd"><svg class="icon" width="200px" height="200.00px" viewBox="0 0 1024 1024" version="1.1" xmlns="http://www.w3.org/2000/svg"><path d="M940.032 644.864H779.093333c0 59.306667-48.042667 107.349333-107.349333 107.349333H349.696a106.410667 106.410667 0 0 1-91.818667-52.565333 175.36 175.36 0 0 1-8.021333-15.872c-0.853333-1.877333-1.109333-3.413333-1.621333-5.376-1.365333-4.266667-2.901333-8.533333-3.754667-12.8a108.032 108.032 0 0 1-2.133333-20.736H0.853333v268.373333c0 59.306667 48.042667 107.349333 107.349334 107.349334h805.034666c59.306667 0 107.349333-48.042667 107.349334-107.349334V644.864h-80.554667z"  /><path d="M698.538667 644.864v-80.469333h241.493333V108.202667c0-59.306667-48.042667-107.349333-107.349333-107.349334H457.045333c-59.306667 0-107.349333 48.042667-107.349333 107.349334V671.573333H671.573333a26.88 26.88 0 0 0 26.88-26.794666z m-201.301334-482.986667h295.253334a40.192 40.192 0 1 1 0 80.469334h-295.253334a40.192 40.192 0 1 1 0-80.469334z m-40.192 201.216c0-22.186667 17.92-40.277333 40.192-40.277333h295.253334a40.192 40.192 0 1 1 0 80.554667h-295.253334a40.192 40.192 0 0 1-40.192-40.277334zM269.141333 564.394667V161.877333h-80.469333c-59.306667 0-107.349333 48.042667-107.349333 107.264v295.253334h187.818666z"  /></svg>