<?xml version="1.0" standalone="no"?><!DOCTYPE svg PUBLIC "-//W3C//DTD SVG 1.1//EN" "http://www.w3.org/Graphics/SVG/1.1/DTD/svg11.dtd"><svg t="1685433989592" class="icon" viewBox="0 0 1024 1024" version="1.1" xmlns="http://www.w3.org/2000/svg" p-id="7219" xmlns:xlink="http://www.w3.org/1999/xlink" width="200" height="200"><path d="M0 256m256 0l512 0q256 0 256 256l0 0q0 256-256 256l-512 0q-256 0-256-256l0 0q0-256 256-256Z" fill="#52C41A" p-id="7220"></path><path d="M205.730909 405.690182V605.090909h32.674909V459.310545h1.117091L339.223273 605.090909h31.837091V405.690182h-32.954182v143.825454h-1.117091l-98.583273-143.825454zM410.158545 405.690182V605.090909h148.573091v-27.927273h-115.898181v-60.322909h104.448v-27.927272h-104.448V433.617455h111.150545v-27.927273zM571.298909 405.690182L628.549818 605.090909h34.909091l39.098182-149.969454h1.117091L742.493091 605.090909h34.629818l57.530182-199.400727H797.789091l-37.422546 151.645091h-1.11709l-39.377455-151.645091H686.08l-39.377455 151.645091h-1.11709l-37.422546-151.645091z" fill="#FFFFFF" p-id="7221"></path></svg>