<?xml version="1.0" encoding="UTF-8"?>
<svg width="14px" height="17px" viewBox="0 0 14 17" version="1.1" xmlns="http://www.w3.org/2000/svg" xmlns:xlink="http://www.w3.org/1999/xlink">
    <title>右边</title>
    <g id="横版" stroke="none" stroke-width="1" fill="none" fill-rule="evenodd">
        <g id="关联算子2" transform="translate(-22.000000, -471.000000)" fill-rule="nonzero">
            <g id="输出数据" transform="translate(0.000000, 272.000000)">
                <g id="1" transform="translate(20.000000, 112.000000)">
                    <g id="左右" transform="translate(2.000000, 41.000000)">
                        <g id="右边" transform="translate(0.000000, 46.000000)">
                            <path d="M11.9070983,2.06892113 C9.17467328,-0.663503902 4.81330256,-0.663503902 2.08087754,2.01637449 C-0.651547484,4.74879952 -0.704094117,9.16271688 2.02833091,11.8951419 L6.91516798,16.8345256 L11.8545517,11.9476885 C14.5869767,9.21526351 14.6395233,4.80134615 11.9070983,2.06892113 Z" id="形状" fill="#67D4C8"></path>
                            <path d="M6.06877993,10.4680998 L6.06877993,8.10809982 L7.61277993,8.10809982 C7.94077993,8.10809982 8.18877993,8.17209982 8.36477993,8.31609982 C8.53277993,8.46009982 8.63677993,8.68409982 8.66877993,9.00409982 L8.74077993,9.71609982 C8.77277993,10.0360998 8.85277993,10.2920998 8.98877993,10.4680998 L9.93277993,10.4680998 C9.74077993,10.2600998 9.62877993,9.98009982 9.59677993,9.62809982 L9.50077993,8.71609982 C9.43677993,8.15609982 9.15677993,7.82009982 8.64477993,7.70809982 L8.64477993,7.69209982 C8.95677993,7.61209982 9.20477993,7.44409982 9.38877993,7.18809982 C9.54877993,6.95609982 9.62877993,6.69209982 9.62877993,6.38809982 C9.62877993,5.84409982 9.45277993,5.43609982 9.10077993,5.14809982 C8.76477993,4.88409982 8.30077993,4.75609982 7.72477993,4.75609982 L5.19677993,4.75609982 L5.19677993,10.4680998 L6.06877993,10.4680998 Z M7.61277993,7.36409982 L6.06877993,7.36409982 L6.06877993,5.50009982 L7.60477993,5.50009982 C8.00477993,5.50009982 8.29277993,5.57209982 8.48477993,5.72409982 C8.66077993,5.86809982 8.75677993,6.10009982 8.75677993,6.42009982 C8.75677993,6.72409982 8.66077993,6.95609982 8.47677993,7.11609982 C8.28477993,7.27609982 7.99677993,7.36409982 7.61277993,7.36409982 Z" id="R" fill="#FFFFFF"></path>
                        </g>
                    </g>
                </g>
            </g>
        </g>
    </g>
</svg>