<svg t="1675501776556" class="icon" viewBox="0 0 1024 1024" version="1.1" xmlns="http://www.w3.org/2000/svg" p-id="2161" width="200" height="200"><path d="M739.556 938.667H284.444A170.667 170.667 0 0 1 113.778 768V142.222c0-31.43 53.93-56.889 85.333-56.889h85.333v142.223A28.444 28.444 0 0 0 312.89 256H711.11a28.444 28.444 0 0 0 28.445-28.444V85.333h113.777a56.889 56.889 0 0 1 56.89 56.89V768a170.667 170.667 0 0 1-170.667 170.667zM711.11 483.556H312.89a28.444 28.444 0 0 0 0 56.888H711.11a28.444 28.444 0 0 0 0-56.888z m0 170.666H312.89a28.444 28.444 0 0 0 0 56.89H711.11a28.444 28.444 0 0 0 0-56.89z m-56.889-455.11H369.778a28.444 28.444 0 0 1-28.445-28.445V85.333h63.175C419.584 35.897 461.738 0 512 0s92.416 35.897 107.492 85.333h63.175v85.334a28.444 28.444 0 0 1-28.445 28.444z" p-id="2162"></path><path d="M739.556 938.667H284.444A170.667 170.667 0 0 1 113.778 768V142.222c0-31.43 53.93-56.889 85.333-56.889h85.333v142.223A28.444 28.444 0 0 0 312.89 256H711.11a28.444 28.444 0 0 0 28.445-28.444V85.333h113.777a56.889 56.889 0 0 1 56.89 56.89V768a170.667 170.667 0 0 1-170.667 170.667zM711.11 483.556H312.89a28.444 28.444 0 0 0 0 56.888H711.11a28.444 28.444 0 0 0 0-56.888z m0 170.666H312.89a28.444 28.444 0 0 0 0 56.89H711.11a28.444 28.444 0 0 0 0-56.89z m-56.889-455.11H369.778a28.444 28.444 0 0 1-28.445-28.445V85.333h63.175C419.584 35.897 461.738 0 512 0s92.416 35.897 107.492 85.333h63.175v85.334a28.444 28.444 0 0 1-28.445 28.444z" p-id="2163"></path></svg>