<?xml version="1.0" standalone="no"?><!DOCTYPE svg PUBLIC "-//W3C//DTD SVG 1.1//EN" "http://www.w3.org/Graphics/SVG/1.1/DTD/svg11.dtd"><svg t="1713170595268" class="icon" viewBox="0 0 1024 1024" version="1.1" xmlns="http://www.w3.org/2000/svg" p-id="35982" xmlns:xlink="http://www.w3.org/1999/xlink" width="200" height="200"><path d="M928.256 93.476571c51.2 0 92.745143 41.545143 92.745143 92.745143v742.034286a92.745143 92.745143 0 0 1-92.745143 92.745143H93.476571A92.745143 92.745143 0 0 1 0.731429 928.256V186.221714c0-51.2 41.545143-92.745143 92.745142-92.745143h834.779429z" fill="#000000" fill-opacity=".65" p-id="35983"></path><path d="M0.731429 278.966857h1020.342857v92.745143H0.731429z" fill="#FFFFFF" p-id="35984"></path><path d="M278.966857 0.731429c30.939429 0 46.372571 15.433143 46.372572 46.372571v139.117714c0 30.939429-15.433143 46.372571-46.372572 46.372572-30.866286 0-46.372571-15.433143-46.372571-46.372572V47.104c0-30.939429 15.506286-46.372571 46.372571-46.372571zM742.765714 0.731429c30.939429 0 46.372571 15.433143 46.372572 46.372571v139.117714c0 30.939429-15.433143 46.372571-46.372572 46.372572-30.939429 0-46.372571-15.433143-46.372571-46.372572V47.104c0-30.939429 15.433143-46.372571 46.372571-46.372571z" fill="#595959" p-id="35985"></path><path d="M716.726857 647.241143H606.72S582.656 923.062857 351.085714 923.062857c0 0 95.085714-34.889143 113.078857-168.301714 2.925714-21.869714 5.851429-55.003429 5.851429-107.593143H351.012571l182.857143-211.821714 182.857143 211.894857z" fill="#FFFFFF" p-id="35986"></path></svg>