<?xml version="1.0" standalone="no"?><!DOCTYPE svg PUBLIC "-//W3C//DTD SVG 1.1//EN" "http://www.w3.org/Graphics/SVG/1.1/DTD/svg11.dtd"><svg t="1703037368567" class="icon" viewBox="0 0 1024 1024" version="1.1" xmlns="http://www.w3.org/2000/svg" p-id="37286" xmlns:xlink="http://www.w3.org/1999/xlink" width="200" height="200"><path d="M557.60384 14.34624l427.80672 286.68928c37.5808 25.1904 47.63648 76.07296 22.4512 113.65888a81.92 81.92 0 0 1-22.03648 22.1696l-105.6512 71.7312 105.23648 70.528c37.5808 25.1904 47.63648 76.07296 22.4512 113.65376a81.92 81.92 0 0 1-22.03648 22.1696l-427.80672 290.50368a81.92 81.92 0 0 1-92.03712 0L38.17472 714.94656c-37.4272-25.41568-47.17056-76.3648-21.75488-113.792a81.92 81.92 0 0 1 22.1696-22.03136l105.22624-70.52288L38.17472 436.85888C0.74752 411.4432-8.99584 360.4992 16.41984 323.072a81.92 81.92 0 0 1 22.1696-22.03136L466.39616 14.34624a81.92 81.92 0 0 1 91.20768 0z m11.40224 285.72672a102.4 102.4 0 0 0-114.01216 0L143.82592 508.60032l310.65088 210.94912a102.4 102.4 0 0 0 115.0464 0l310.65088-210.94912z" p-id="37287"></path><path d="M534.40512 369.62816a36.09088 36.09088 0 0 0-39.02976-0.73728l-1.152 0.73728L286.72 508.67712l207.31904 140.78976a36.09088 36.09088 0 0 0 39.38816 0.75264l1.15712-0.75264 207.31904-140.78976-207.49824-139.04896z" p-id="37288"></path></svg>