<?xml version="1.0" standalone="no"?><!DOCTYPE svg PUBLIC "-//W3C//DTD SVG 1.1//EN" "http://www.w3.org/Graphics/SVG/1.1/DTD/svg11.dtd"><svg t="1704879599566" class="icon" viewBox="0 0 1024 1024" version="1.1" xmlns="http://www.w3.org/2000/svg" p-id="9521" xmlns:xlink="http://www.w3.org/1999/xlink" width="200" height="200"><path d="M423.22944 421.4784h60.02176l-31.70816-51.10784-58.20928 92.35968-26.5216 0.04096L437.6576 351.84128a16.54784 16.54784 0 0 1 13.84448-7.22944 16.54784 16.54784 0 0 1 13.7216 7.03488l71.0912 111.12448-26.5472-0.02048-12.4416-20.6592H436.50048l-13.25568-20.61824h-0.01536z m275.39456 20.6336V345.79456h-22.50752v105.74848c0 2.95424 1.1776 5.7344 3.26656 7.83872a11.6224 11.6224 0 0 0 8.27392 3.38944h102.5536l13.2352-20.61824H698.624v-0.04096z m-372.1472-17.2288a39.56224 39.56224 0 0 0 0-79.104h-98.4576V462.7456h22.50752V366.37696h74.3936a18.90304 18.90304 0 0 1 13.39392 32.3328 18.90304 18.90304 0 0 1-13.3888 5.5552l-63.39072-0.02048 67.12832 58.48576h32.6912l-45.17376-37.86752h10.29632v0.02048zM89.57952 462.7456a58.48576 58.48576 0 1 1 0-116.97152h67.9936c32.3072 0 58.50112 26.1888 58.50112 58.496 0 32.3072-26.1888 58.496-58.496 58.496L89.6 462.7456h-0.02048z m66.4832-20.61824a37.86752 37.86752 0 0 0 0-75.73504H91.09504a37.86752 37.86752 0 0 0 0 75.73504h64.98816-0.02048z m427.18208 20.6336c-32.29696 0-58.48576-26.18368-58.48576-58.48064 0-32.3072 26.1888-58.49088 58.48576-58.49088H664.064l-13.25056 20.61824h-66.03264a37.86752 37.86752 0 1 0 0 75.74016h81.09568l-13.2096 20.61824h-69.42208z m275.16416-20.61312a37.8368 37.8368 0 0 1-36.41344-27.50976h96.1536l13.24032-20.63872h-109.4144a37.86752 37.86752 0 0 1 36.43392-27.60704h66.00704l13.27104-20.60288h-80.81408c-32.3072 0-58.48576 26.1888-58.48576 58.49088 0 32.29696 26.18368 58.48576 58.48576 58.48576h69.41184l13.21472-20.61824h-81.09056z m91.31008-83.8912a10.3424 10.3424 0 1 1 20.67968-0.00512 10.3424 10.3424 0 0 1-20.67968 0.00512z m9.09824-7.7824c2.02752 0 2.85696 0.0256 3.86048 0.39936 2.60096 0.86528 2.85696 3.26656 2.85696 4.13184a5.02784 5.02784 0 0 1-0.15872 1.2032 4.0192 4.0192 0 0 1-1.83296 2.53952 1.55136 1.55136 0 0 1-0.65024 0.33792l3.40992 6.12352h-3.30752l-2.9952-5.632h-1.98656v5.632h-2.89792v-14.73024h3.70176z m1.536 8.31488c1.1264 0 2.38592-0.1024 3.11296-1.28a3.26656 3.26656 0 0 0 0.4352-1.77152 2.75456 2.75456 0 0 0-1.41824-2.46272c-0.84992-0.37376-1.7152-0.37376-3.44576-0.37376h-1.024v5.90848h2.33984v-0.02048z" fill="#FF0000" p-id="9522"></path><path d="M38.9888 622.7712v125.8496H84.992c20.43904 0 35.77856-5.632 46.35648-16.93184 10.04032-10.73152 15.16032-26.07616 15.16032-45.98272 0-20.08576-5.12-35.44576-15.16032-46.0032-10.57792-11.28448-25.91744-16.93184-46.35648-16.93184H38.9888z m20.61824 17.62304h21.52448c15.69792 0 27.15648 3.54304 34.38592 10.752 7.04512 7.05024 10.5728 18.70848 10.5728 34.56 0 15.49824-3.54304 26.9824-10.5728 34.36032-7.22944 7.22944-18.70848 10.9312-34.38592 10.9312h-21.52448v-90.60352z m142.08-17.62304l-48.128 125.8496h22.03648l11.46368-31.54432h52.69504l11.45856 31.54432h22.03648l-48.128-125.83424h-23.43424v-0.01536z m-8.46848 77.3888l19.91168-55.17824h0.70656l19.75296 55.17824h-40.3712z m82.67264-77.3888v17.62304h41.23136v108.22656h20.63872v-108.22656h41.23648v-17.62304H275.8912z m153.87136 0l-48.128 125.8496h22.05696l11.4176-31.54432h52.72064l11.46368 31.54432h22.03136l-48.128-125.83424h-23.43424v-0.01536z m-8.46336 77.3888l19.92704-55.17824h0.6912l19.74784 55.17824h-40.36608z m92.35456-77.3888v125.8496h57.81504c13.39392 0 23.9872-2.4576 31.37024-7.40352 8.66816-5.98528 13.056-15.31904 13.056-28.02176 0-8.46848-2.1248-15.33952-6.16448-20.28032-4.22912-5.10464-10.41408-8.448-18.70336-10.04544 6.35904-2.4576 11.12576-5.8112 14.47424-10.3936 3.34336-4.92544 5.12-10.9312 5.12-17.98144 0-9.51296-3.34848-17.09568-9.88672-22.72768-7.05024-6.00576-16.93696-8.99584-29.44-8.99584h-57.64096z m20.6336 16.93184h31.90784c8.46336 0 14.45376 1.39776 18.31424 4.21376 3.54304 2.6624 5.47328 7.05024 5.47328 13.056 0 6.5024-1.93024 11.28448-5.45792 14.27968-3.70176 2.816-9.8816 4.40832-18.70336 4.40832h-31.52896v-35.95776z m0 52.87424h34.72384c9.15456 0 15.872 1.57696 20.08576 4.74624 4.05504 3.18976 6.17984 8.2944 6.17984 15.5136 0 7.05536-2.83136 11.99616-8.46336 15.16544-4.41344 2.46272-10.57792 3.70688-18.31424 3.70688h-34.20672v-39.13216z m136.76544-69.80608l-48.10752 125.8496h22.03648l11.46368-31.54432h52.69504l11.45856 31.54432h22.016l-48.10752-125.83424h-23.43424l-0.02048-0.01536z m-8.46336 77.3888l19.92704-55.17824h0.70656l19.75296 55.17824h-40.38656z m136.80128-79.85152c-13.58848 0-24.69376 2.99008-33.50016 9.15456-9.50784 6.36416-14.09536 15.16544-14.09536 26.27072 0 11.1104 4.7616 19.57376 14.45376 25.38496 3.70176 2.10432 13.3888 5.632 28.90752 10.5728 13.9264 4.23424 22.03648 7.05024 24.49408 8.27392 7.76192 3.89632 11.81696 9.17504 11.81696 15.872 0 5.29408-2.83648 9.34912-8.11008 12.52352-5.2992 2.99008-12.70272 4.58752-21.8624 4.58752-10.3936 0-17.97632-1.9456-22.92224-5.4784-5.4528-4.05504-8.80128-10.92608-10.21952-20.43904h-20.43904c0.88576 16.03072 6.69696 27.66848 17.26976 35.072 8.64256 5.9904 20.79744 8.98048 36.31104 8.98048 16.0512 0 28.55424-3.34848 37.376-9.68704 8.8064-6.51776 13.19424-15.49824 13.19424-26.7776 0-11.64288-5.4528-20.64384-16.384-27.1616-4.92032-2.816-15.85152-7.05024-32.94208-12.32384-11.63776-3.70688-18.8672-6.36416-21.504-7.76192-6.00576-3.1744-8.82176-7.5776-8.82176-12.8768 0-5.9904 2.4576-10.39872 7.7568-13.03552 4.23424-2.28864 10.24-3.34848 18.15552-3.34848 9.15968 0 16.2048 1.57184 20.79744 5.12 4.58752 3.34848 7.936 8.98048 9.68704 16.73728h20.45952c-1.23904-13.7472-6.35904-23.9616-15.16032-30.50496-8.27392-6.16448-19.93216-9.15456-34.71872-9.15456z m70.31808 2.4576v125.85472h93.77792v-17.62304h-73.15968v-38.0672h65.93024v-17.62304h-65.93024v-34.9184h70.16448v-17.61792h-90.7776z" fill="#000000" p-id="9523"></path></svg>