<?xml version="1.0" encoding="UTF-8"?>
<svg width="33px" height="33px" viewBox="0 0 33 33" version="1.1" xmlns="http://www.w3.org/2000/svg" xmlns:xlink="http://www.w3.org/1999/xlink">
    <title>组织架构-公司</title>
    <defs>
        <linearGradient x1="21.8841728%" y1="13.2744431%" x2="85.9185915%" y2="80.9314036%" id="linearGradient-1">
            <stop stop-color="#FFC65E" offset="0%"></stop>
            <stop stop-color="#FF8E12" offset="100%"></stop>
        </linearGradient>
    </defs>
    <g id="页面-1" stroke="none" stroke-width="1" fill="none" fill-rule="evenodd">
        <g id="组织机构维度-效果2" transform="translate(-133.000000, -597.000000)" fill-rule="nonzero">
            <g id="组织架构-公司" transform="translate(133.000000, 597.496813)">
                <path d="M0,16.1005715 C0,21.8527518 3.06875147,27.1679856 8.05028565,30.0440757 C13.0318198,32.9201659 19.169323,32.9201659 24.1508572,30.0440757 C29.1323914,27.1679856 32.2011429,21.8527518 32.2011429,16.1005715 C32.2011429,7.20847142 24.9926715,0 16.1005714,0 C7.20847137,0 0,7.20847142 0,16.1005715 Z" id="路径" fill="url(#linearGradient-1)"></path>
                <g id="组织架构" transform="translate(7.181124, 7.154746)" fill="#FFFFFF">
                    <rect id="矩形" opacity="0" x="0" y="0" width="17.8750016" height="17.8750017"></rect>
                    <path d="M16.7310015,11.7617511 L15.3010014,11.7617511 L15.3010014,10.010001 C15.3010014,9.12518838 14.6217513,8.40125081 13.7905637,8.40125081 L9.58993836,8.40125081 L9.58993836,6.14006309 L10.939501,6.14006309 C11.4310635,6.14006309 11.8332511,5.73787555 11.8332511,5.24631301 L11.8332511,1.13506261 C11.8332511,0.643500062 11.4310635,0.241312523 10.939501,0.241312523 L6.82825061,0.241312523 C6.33668807,0.241312523 5.93450053,0.643500062 5.93450053,1.13506261 L5.93450053,5.24631301 C5.93450053,5.73787555 6.33668807,6.14006309 6.82825061,6.14006309 L8.15993823,6.14006309 L8.15993823,8.40125081 L4.08443786,8.40125081 C3.25325029,8.40125081 2.57400023,9.12518838 2.57400023,10.010001 L2.57400023,11.7617511 L1.1440001,11.7617511 C0.652437558,11.7617511 0.250250022,12.1639387 0.250250022,12.6555012 L0.250250022,16.7667516 C0.250250022,17.2583142 0.652437558,17.6605017 1.1440001,17.6605017 L5.25525047,17.6605017 C5.74681301,17.6605017 6.14900055,17.2583142 6.14900055,16.7667516 L6.14900055,12.6555012 C6.14900055,12.1639387 5.74681301,11.7617511 5.25525047,11.7617511 L4.00400036,11.7617511 L4.00400036,10.010001 C4.00400036,9.89381346 4.07550036,9.83125095 4.08443786,9.83125095 L13.7905637,9.83125095 C13.8084387,9.83125095 13.8710012,9.89381346 13.8710012,10.010001 L13.8710012,11.7617511 L12.6197511,11.7617511 C12.1281886,11.7617511 11.726001,12.1639387 11.726001,12.6555012 L11.726001,16.7667516 C11.726001,17.2583142 12.1281886,17.6605017 12.6197511,17.6605017 L16.7310015,17.6605017 C17.222564,17.6605017 17.6247516,17.2583142 17.6247516,16.7667516 L17.6247516,12.6555012 C17.6247516,12.1639387 17.222564,11.7617511 16.7310015,11.7617511 Z" id="路径"></path>
                </g>
            </g>
        </g>
    </g>
</svg>