<?xml version="1.0" standalone="no"?><!DOCTYPE svg PUBLIC "-//W3C//DTD SVG 1.1//EN" "http://www.w3.org/Graphics/SVG/1.1/DTD/svg11.dtd"><svg t="1713172379720" class="icon" viewBox="0 0 1024 1024" version="1.1" xmlns="http://www.w3.org/2000/svg" p-id="10134" xmlns:xlink="http://www.w3.org/1999/xlink" width="200" height="200"><path d="M512 0c282.77 0 512 229.23 512 512s-229.23 512-512 512S0 794.77 0 512 229.23 0 512 0z m0 64C264.576 64 64 264.536 64 511.91 64 627.83 108.043 733.463 180.312 813c21.851-106.332 98.461-193.931 200.658-234.973l3.635-1.437-1.872-1.247C320.761 533.589 280 462.773 280 382.436c0-128.38 104.094-232.453 232.5-232.453S745 254.056 745 382.436c0 80.495-40.923 151.435-103.103 193.156l-1.878 1.245 3.659 1.455C745.548 619.445 821.879 706.902 843.68 813 915.953 733.472 960 627.834 960 511.91 960 264.536 759.424 64 512 64z" p-id="10135"></path></svg>