<?xml version="1.0" encoding="UTF-8"?>
<svg width="22px" height="22px" viewBox="0 0 22 22" version="1.1" xmlns="http://www.w3.org/2000/svg" xmlns:xlink="http://www.w3.org/1999/xlink">
    <g id="标准文件" stroke="none" stroke-width="1" fill="none" fill-rule="evenodd">
        <g id="标准文件（设计图）" transform="translate(-576.000000, -246.000000)" fill-rule="nonzero">
            <g id="编组-20" transform="translate(524.000000, 124.000000)">
                <g id="列1" transform="translate(52.000000, 17.000000)">
                    <g id="pdf" transform="translate(0.000000, 105.000000)">
                        <rect id="矩形" fill="#000000" opacity="0" x="0" y="0" width="22" height="22"></rect>
                        <path d="M2.31,0.44 L15.444,0.44 C15.664,0.44 15.884,0.528 16.038,0.671 L20.284,4.609 C20.46,4.774 20.57,5.005 20.57,5.258 L20.57,20.68 C20.57,21.164 20.174,21.56 19.69,21.56 L2.31,21.56 C1.826,21.56 1.43,21.164 1.43,20.68 L1.43,1.32 C1.43,0.836 1.826,0.44 2.31,0.44 Z" id="路径" fill="#FF4A80"></path>
                        <path d="M4.092,5.434 L6.05,5.434 C7.282,5.434 8.283,5.863 8.283,7.249 C8.283,8.569 7.26,9.152 6.083,9.152 L5.434,9.152 L5.434,11 L4.092,11 L4.092,5.434 L4.092,5.434 Z M6.017,8.096 C6.666,8.096 6.985,7.788 6.985,7.238 C6.985,6.677 6.622,6.479 5.984,6.479 L5.434,6.479 L5.434,8.085 L6.017,8.085 L6.017,8.096 Z M9.24,5.434 L10.835,5.434 C12.529,5.434 13.651,6.248 13.651,8.184 C13.651,10.12 12.529,11 10.901,11 L9.24,11 L9.24,5.434 Z M10.758,9.922 C11.66,9.922 12.287,9.515 12.287,8.184 C12.287,6.853 11.649,6.49 10.758,6.49 L10.582,6.49 L10.582,9.911 L10.758,9.911 L10.758,9.922 L10.758,9.922 Z M14.685,5.434 L18.238,5.434 L18.238,6.545 L16.027,6.545 L16.027,7.766 L17.93,7.766 L17.93,8.877 L16.027,8.877 L16.027,11 L14.685,11 L14.685,5.434 Z M15.224,16.863 C15.037,16.665 14.795,16.555 14.476,16.5 C13.959,16.423 13.409,16.445 12.815,16.566 C12.76,16.577 12.694,16.555 12.672,16.544 L12.661,16.533 C12.166,16.137 11.737,15.719 11.396,15.301 C11.341,15.213 11.319,15.136 11.319,15.048 C11.396,14.41 11.462,13.728 11.385,13.013 C11.363,12.859 11.264,12.749 11.143,12.716 C10.945,12.573 10.714,12.529 10.505,12.606 C10.296,12.683 10.131,12.859 10.076,13.079 C10.043,13.211 10.043,13.354 10.054,13.53 C10.087,14.19 10.373,14.773 10.648,15.268 C10.692,15.345 10.714,15.466 10.692,15.532 C10.593,15.895 10.494,16.247 10.395,16.599 C10.329,16.841 10.252,17.072 10.197,17.314 C10.087,17.666 9.922,17.864 9.636,17.985 C9.625,17.985 9.592,17.996 9.57,18.029 C9.196,18.282 8.778,18.59 8.481,19.03 C8.36,19.217 8.217,19.492 8.294,19.822 C8.327,19.954 8.393,20.053 8.492,20.108 C8.558,20.141 8.624,20.163 8.712,20.163 C8.767,20.163 8.833,20.152 8.899,20.13 C9.196,20.031 9.438,19.822 9.647,19.503 C9.823,19.228 9.988,18.931 10.142,18.656 C10.219,18.513 10.296,18.37 10.384,18.227 L10.395,18.216 C10.428,18.139 10.483,18.084 10.527,18.062 C11.099,17.743 11.737,17.468 12.474,17.237 C12.54,17.215 12.606,17.226 12.683,17.281 C13.035,17.556 13.475,17.875 14.014,18.073 C14.234,18.15 14.465,18.194 14.674,18.216 C14.993,18.238 15.323,18.04 15.444,17.754 C15.554,17.457 15.466,17.083 15.224,16.863 L15.224,16.863 Z M14.916,17.468 C14.872,17.6 14.729,17.611 14.652,17.622 C14.564,17.633 14.454,17.622 14.377,17.589 C13.992,17.468 13.629,17.237 13.299,17.006 C13.431,16.984 13.552,16.962 13.673,16.929 C13.915,16.918 14.146,16.918 14.355,16.962 C14.52,17.006 14.707,17.105 14.817,17.182 C14.971,17.303 14.927,17.424 14.916,17.468 L14.916,17.468 Z M12.067,16.742 C11.913,16.797 11.77,16.863 11.627,16.918 C11.341,17.028 11.055,17.149 10.769,17.259 C10.868,16.929 10.967,16.61 11.066,16.291 C11.11,16.148 11.154,16.016 11.187,15.873 C11.495,16.203 11.803,16.5 12.067,16.742 L12.067,16.742 Z M10.593,13.244 C10.604,13.156 10.637,13.101 10.714,13.079 C10.725,13.079 10.736,13.068 10.747,13.068 C10.769,13.068 10.78,13.068 10.791,13.079 C10.802,13.079 10.802,13.09 10.802,13.112 L10.802,13.266 C10.813,13.607 10.813,13.97 10.813,14.311 C10.67,13.937 10.593,13.574 10.593,13.244 Z M9.537,18.634 C9.35,18.975 9.152,19.316 8.822,19.525 C8.844,19.448 8.855,19.371 8.899,19.305 C9.042,19.052 9.251,18.843 9.537,18.634 L9.537,18.634 Z" id="形状" fill="#FFFFFF"></path>
                    </g>
                </g>
            </g>
        </g>
    </g>
</svg>