<?xml version="1.0" standalone="no"?><!DOCTYPE svg PUBLIC "-//W3C//DTD SVG 1.1//EN" "http://www.w3.org/Graphics/SVG/1.1/DTD/svg11.dtd"><svg t="1704879586335" class="icon" viewBox="0 0 1024 1024" version="1.1" xmlns="http://www.w3.org/2000/svg" p-id="9100" xmlns:xlink="http://www.w3.org/1999/xlink" width="200" height="200"><path d="M693.9136 391.5264c-6.8864-5.9136-15.74912-6.89664-24.59136-3.9424a81.9712 81.9712 0 0 1-21.64224 2.95424c19.69152-32.45568 34.44224-67.88096 44.26752-105.25696 4.92544-16.73728 7.87968-34.42176 7.87968-53.13024a56.2944 56.2944 0 0 0-10.83392-41.31328 126.26944 126.26944 0 0 0-102.2976-48.2048h-2.95424c-16.7424 0-33.43872 2.95424-49.19296 6.89152h-0.98304a160.03584 160.03584 0 0 0-30.48448-2.95424c-18.70848-0.98304-38.37952 3.9424-55.10144 13.78304-23.60832-8.8576-50.176-12.8-75.75552-11.81184A91.76576 91.76576 0 0 0 308.28544 175.104c-17.70496 18.688-26.56768 47.22176-25.58464 87.552 1.9712 17.72544 4.92544 35.4048 8.86272 52.1472 5.90848 25.57952 12.8 50.15552 21.6576 74.752A167.3216 167.3216 0 0 0 347.648 451.54304c7.87456 7.87968 18.688 12.77952 30.48448 13.76768 8.8576 0 16.7424-3.9424 23.6288-9.84576 5.888 6.89152 13.76768 10.8288 22.60992 12.8 11.81184 2.95424 23.6288 3.93728 35.42528 1.96608 5.90848-0.98304 10.8288-2.95424 15.73376-4.92032 0 5.90848 0 11.81184 0.98304 17.72032-0.98304 17.68448 1.9712 34.42176 6.89152 51.14368 1.9712 9.84576 6.89664 18.70848 13.76768 26.56256 13.78304 12.8 32.45056 17.70496 50.176 13.78816 18.688-2.95424 36.39296-12.8 47.22176-27.5712 12.77952-17.70496 18.688-44.26752 19.67104-86.56896 0-1.96608 0.98816-3.93728 0.98816-5.90848h2.94912c16.72192 0.98816 33.43872-1.96608 48.18944-7.87456 11.81696-4.90496 22.64576-12.77952 30.52544-23.59296 1.9456-3.93728 3.9168-7.87456 4.89984-11.81184 0.98816-7.87968-1.96608-14.75072-7.87456-19.67616z m-5.90336 22.64064c-6.89152 8.84224-14.7456 14.75072-25.55904 18.66752-11.81696 4.92544-24.61696 6.89664-37.39648 6.89664-5.90848 0-11.81696-0.98816-17.70496-1.9712-2.95424 24.61696-4.92032 49.19296-9.84576 73.78944-0.98304 11.81184-6.89152 23.60832-14.7456 33.4336-9.85088 8.86272-21.64736 14.7712-34.42688 15.75424-14.76608 3.9424-29.5168 0.98816-41.33376-7.87456-6.89152-5.90848-11.79648-14.7712-15.73376-23.61344-1.9712-5.90848-2.95424-10.8288-3.9424-16.73728-0.98304-8.84224-1.96608-17.68448-1.96608-25.55904-0.98304-15.75424-0.98304-30.50496-0.98304-45.25568-7.87968 6.89152-17.70496 11.81696-27.53024 13.78816-9.84576 1.96608-20.67968 0.98304-30.50496-1.9712-2.95424-0.98304-5.90848-1.9712-8.8576-3.9424-3.9424-0.98304-5.90848-3.93728-7.87968-6.8864-0.98304-1.9712-1.9712-4.92544-0.98304-6.89664 0.98304-1.96608 1.96608-4.92032 3.93728-5.90336 4.92032-2.95424 9.84576-4.92544 15.75424-5.90848a81.67424 81.67424 0 0 0 20.67456-5.888c3.92192-2.95424 6.87616-6.89152 9.8304-10.83392v-0.98304c-8.86272 0-16.7424-2.95424-24.61696-5.90848-2.95424 2.95424-15.73376 16.7424-33.4336 37.41696-5.9136 7.85408-13.78816 12.77952-23.61344 13.76256-8.86272 0-16.72192-3.93728-22.6304-9.84576-14.76608-16.73728-24.59648-36.38784-31.46752-57.04704-7.87456-25.6-14.76608-50.176-19.69152-74.77248-3.9424-16.7424-6.89152-32.47104-8.8576-49.19296-1.95584-37.376 6.8864-61.96736 21.6576-77.70624 14.7712-14.76608 34.42176-22.64576 56.064-23.6288 26.58304-0.98304 53.13024 3.9424 77.7216 13.78304 15.75936-9.84576 33.4592-14.76608 52.1472-14.76608 9.84576 0 20.6592 1.96608 30.48448 3.93728 3.9424-1.9712 8.86272-2.95424 13.78816-3.9424 12.8-2.94912 24.59136-3.93216 37.376-4.9152 37.376-0.98816 72.80128 14.76608 96.4096 44.288 5.90848 9.84064 8.86272 22.62016 7.87968 34.41664-0.98816 16.7424-3.9424 33.4592-7.87968 50.176a402.62656 402.62656 0 0 1-52.14208 117.07392c0.98304 0.98304 1.96608 0.98304 2.95424 1.96608 13.78304 2.95424 27.5456 2.95424 41.31328-0.98304 4.92032-1.9712 10.8288-0.98304 15.75424 0.98304 1.96608 1.9712 3.93728 4.92544 3.93728 7.87968-2.95424 0-2.95424 2.95424-3.9424 4.92032h-0.01536z" fill="#000000" p-id="9101"></path><path d="M584.72448 166.2464h-2.95424c-9.84576 0-20.6592 0.98304-30.48448 3.93216 19.67104 8.86272 37.376 23.61344 51.14368 40.33024 7.87456 10.83392 14.76608 21.66272 20.67456 34.44224 1.9712 4.92544 3.9424 8.86272 4.92544 11.81696 0 1.9712 0.98304 2.95424 0.98304 4.90496v2.95424c0.96256 15.75424-3.9424 25.57952-3.9424 41.31328 0 10.8288 2.95936 23.60832 2.95936 37.376 1.9456 14.76608-1.9712 29.5424-9.85088 41.33376 0.98816 0.98304 1.9712 1.9712 1.9712 2.95424 20.6592-33.47968 37.376-69.84704 47.2064-108.23168 3.93728-15.75424 6.8864-31.46752 6.8864-47.22176 0.98816-8.8576-0.98304-17.69984-4.92032-26.56256-19.67104-26.5472-51.14368-40.33024-84.59776-39.3472z" fill="#306092" p-id="9102"></path><path d="M500.1216 170.17856a67.05664 67.05664 0 0 0-47.21664 15.75424c-11.81696 9.8304-19.69152 23.59296-25.57952 37.376-4.92544 13.78816-7.87968 28.5184-8.86272 43.28448 7.87456-3.93728 15.75424-6.89152 24.61184-8.8576 8.84224-1.9712 18.67264-1.9712 27.53024 0.98304 9.84576 3.93728 16.7424 12.8 18.70848 23.6288 12.77952 58.0352-3.93728 79.67744-9.84576 97.3824-2.95424 5.90336-4.92032 11.81184-5.90848 17.69984 0.98816 0 1.9712 0 2.95424-0.98304 2.95424 0 6.89152 0.98304 9.84576 1.96608 5.90848 2.95424 10.81344 7.87968 12.77952 14.7712 0.98816 1.9712 0.98816 3.9424 0.98816 4.92544v2.93376c-0.98304 22.61504-0.98304 45.2608 0 67.87584 0 8.86272 0.98304 16.7424 1.96608 25.57952 0 4.92544 0.98816 8.86272 2.95424 13.78816 1.9712 6.87104 5.90848 12.77952 11.79648 17.68448 5.90848 4.92032 14.7712 7.87456 30.50496 4.92032 9.84576-0.98304 19.67104-5.90848 27.53024-12.8 5.90848-7.85408 9.84576-16.69632 10.8288-26.54208 3.9424-18.70848 9.84576-73.78944 10.83392-83.61472 0-5.90848 0.98304-12.8 3.93728-17.72544 1.96608-3.93728 5.90848-6.89152 9.82528-8.8576 1.9712-0.98816 2.95424-0.98816 4.92544-1.9712-1.9712-1.9456-2.95424-3.92192-4.92544-5.888-4.92544-5.90848-8.8576-12.8-11.81696-19.67104-1.96608-2.95424-2.95424-5.90848-4.92032-8.86272-2.95424-4.92544-4.92544-9.84576-8.84224-15.73376a191.29344 191.29344 0 0 1-16.7424-41.3184c-3.9168-14.76608-4.89984-28.53376 4.92544-39.34208 7.87968-8.8576 22.64576-13.78304 44.288-10.83392-0.98304-1.96608-0.98304-3.93728-1.96608-5.90336-3.9424-11.79648-10.83392-22.6304-18.70848-31.47264-21.64224-29.5168-56.064-46.2336-92.45696-47.22176l-3.9424-2.95424z" fill="#306092" p-id="9103"></path><path d="M380.09856 171.1616h-6.89152c-17.69984 0-35.4048 6.89664-47.22176 19.69664-12.77952 12.77952-21.64224 34.42176-19.67104 70.8096 1.9712 15.75936 4.92032 31.488 7.87456 47.22688 4.92544 24.59648 11.81696 48.2048 20.67968 71.81824 5.888 19.67104 15.7184 37.376 28.5184 53.10976 2.94912 3.93728 7.87456 5.90848 13.77792 5.90848 5.888-0.98816 10.81344-3.9424 14.75072-8.86272 10.83392-12.77952 21.64224-25.55904 32.45568-36.39296a59.66848 59.66848 0 0 1-20.6592-57.04704c0.98304-11.81696 1.9712-23.63392 1.9712-36.41344 0-9.84576-0.98816-15.73376-0.98816-19.67104v-0.98304c0-20.6592 3.9424-41.3184 10.83392-60.98944a100.38784 100.38784 0 0 1 23.58784-37.376c-16.7168-5.90848-34.42176-8.8576-52.1216-9.84576-2.95424-0.98304-4.92544-0.98304-6.89664-0.98304z m232.17664 133.79584c0.98304-15.75424 3.93728-25.58464 3.93728-36.39296-4.92544-0.98304-8.8576-0.98304-13.78304-0.98304-7.87968-0.98816-15.73888 1.96608-22.6304 6.89152-4.92032 4.92032-4.92032 15.73376-2.95424 28.51328 3.9424 13.78304 8.86272 26.56256 15.75424 38.35904 2.95424 5.90848 5.90848 10.83392 7.87968 15.75424 1.96608 2.95424 3.93728 6.89152 4.92032 9.84576 0.98816 1.9712 1.95072 4.92544 3.92192 5.90848 3.93728-9.84576 5.90848-19.69152 4.92032-29.5424 0.98816-11.81184-1.96608-25.55392-1.96608-38.35392z m-6.89664-29.52192c0 0.98304 0 1.9712-0.98304 2.95424-0.98304 0.98304-0.98304 1.9712-1.96608 2.95424-1.9712 1.9712-4.92544 2.95424-6.89664 3.9424-2.95424 0-4.92032 0-6.89152-1.9712-0.98304-0.98816-1.9456-0.98816-2.93376-1.9712-0.98304 0-0.98304-0.98304-0.98304-1.9712 0-0.98304 0-1.96608 0.98304-2.95424l1.9712-1.96608c2.95424-1.9712 6.89152-2.95424 9.84576-2.95424h4.92032c0.98816 0 1.9712 0.98304 2.95424 0.98304v2.95424h-0.02048z" fill="#306092" p-id="9104"></path><path d="M476.5184 284.29824a19.5328 19.5328 0 0 0-11.81696-15.75424c-2.95424-0.98304-5.90848-0.98304-8.86272-0.98304-3.9424 0-6.87616 0.98304-10.81344 0.98304a177.2288 177.2288 0 0 0-20.65408 7.87456c-1.9712 0.98816-3.9424 2.95424-5.90848 4.92544 0 2.95424 0.98304 8.8576 0.98304 17.72544 0 12.77952 0 25.55904-1.9712 37.376-4.92032 26.56256 12.8 51.13856 39.36768 56.064 1.9712 0 2.95424 0 4.92032 0.98304 1.9712-5.90848 4.92544-12.8 5.90848-19.67104 5.888-17.72544 20.63872-32.45568 8.84224-89.5232z m-6.89664 0.98304l-2.95424 2.95424c-1.96608 1.9712-4.92032 2.95424-7.87456 1.9712-2.95424-0.98816-4.92544-1.9712-6.89152-4.92544-0.96768-0.98304-1.95072-1.96608-1.95072-2.95424-1.9712-1.96608-1.9712-2.95424-1.9712-3.93728 0-1.9712 1.9712-2.95424 3.9424-3.9424 1.96608-0.97792 3.93728-0.97792 4.9152-0.97792h2.95936c2.95424 0 4.92032 0.98304 6.89152 2.94912 0.98304 0.98816 1.9712 0.98816 2.95424 1.9712 0.98304 0.98304 0.98304 1.9712 0.98304 3.9424-0.98304 0.98304-0.98304 1.96608-0.98304 2.94912h-0.02048z m150.50752 121.99424c-1.96608 0.98304-3.93728 0.98304-5.90848 0.98304-1.96608 0.98816-2.95424 1.9712-4.89984 3.9424-0.98816 3.93728-1.9712 7.85408-1.9712 11.79648 0.98304 0.98304 1.9712 0.98304 2.95424 0.98304 3.9424 0.98304 8.8576 1.96608 13.78304 1.96608 11.79648 0 22.60992-1.96608 33.43872-5.90336 5.90848-2.95424 11.81696-5.90848 16.7424-10.83392-25.6 4.92544-38.4 3.9424-47.24736 0a48 48 0 0 1-6.89152-2.95424v0.02048z m-144.59904 1.9712c-0.98304 0-2.95424 0-4.92544 3.93728-5.90336 6.87104-7.87456 11.79648-13.78304 15.73376-7.8592 4.92544-15.73376 7.87968-25.55904 8.8576-2.95424 0-5.90848 0.98816-7.87968 2.95936l0.98816 0.98304c1.96608 0.96768 4.92032 1.9456 5.90336 2.93376 7.87968 1.9712 16.7424 2.95424 25.58464 1.9712 11.81184-1.9712 22.62528-8.86272 28.53376-18.70848 1.96608-2.95424 1.96608-5.90848 0-8.84224-0.98816-2.95424-3.9424-5.90848-5.90848-6.89152 0-2.95424-1.9712-2.95424-2.95424-2.95424v0.02048z" fill="#306092" p-id="9105"></path><path d="M16.66048 658.8672v124.7488h19.0464v-48.57856h32.32768c29.8752 0 44.9024-12.74368 44.9024-38.26688 0-25.32352-14.848-37.90336-44.56448-37.90336h-51.712z m19.0464 16.24576h31.10912c9.25696 0 16.06656 1.75104 20.43904 5.23776 4.352 3.1488 6.63552 8.73984 6.63552 16.41984 0 7.68-2.28352 13.27616-6.4768 16.77824-4.352 3.48672-11.1616 5.23776-20.59776 5.23776H35.70176v-43.6736z m679.68-18.688c-13.27616 0-24.28416 2.95424-33.024 8.89856-9.26208 6.2976-13.78816 14.848-13.78816 25.856 0 10.83392 4.70528 19.22048 14.31552 24.9856 3.84 2.09408 13.27104 5.42208 28.65152 10.30144 13.78304 4.1984 22.016 6.99392 24.81152 8.39168 7.8592 4.0192 11.8784 9.45152 11.8784 16.42496 0 5.59104-2.80064 9.96352-8.39168 13.11232-5.59104 3.15392-13.09696 4.88448-22.528 4.88448-10.496 0-18.176-1.90976-23.23456-5.77024-5.59616-4.1728-9.09824-11.3408-10.496-21.13024h-18.8672c1.04448 15.7184 6.63552 27.25376 16.93696 34.60096 8.56576 5.92896 20.45952 9.07776 35.64032 9.07776 15.75424 0 27.96544-3.1488 36.7104-9.45152 8.71936-6.44096 13.09184-15.18592 13.09184-26.368 0-11.52-5.41696-20.44416-16.06656-26.90048-4.90496-2.9696-15.89248-6.9888-32.6912-12.23168-11.6992-3.50208-18.8416-6.10304-21.6576-7.68-6.28736-3.34336-9.25696-7.69536-9.25696-13.29152 0-6.2976 2.61632-10.8288 8.03328-13.62432 4.37248-2.44224 10.67008-3.66592 18.88256-3.66592 9.43616 0 16.42496 1.73568 21.30944 5.41696 4.89984 3.4816 8.03328 9.43104 9.78432 17.46944h18.8672c-1.22368-13.62944-6.10304-23.59296-14.848-30.0544-8.21248-6.2976-19.57376-9.25184-34.06848-9.25184z m124.5696 0c-19.0464 0-34.06848 6.10304-44.9024 18.688-10.496 11.87328-15.55456 27.25376-15.55456 46.29504 0 18.8672 5.06368 34.26304 15.55968 46.14144 10.8288 12.20608 25.856 18.5088 44.89728 18.5088 12.93824 0 23.94624-2.79552 33.19808-8.39168a708.79232 708.79232 0 0 1 13.78816 19.39968l12.24704-10.8288c-4.5312-6.64064-9.25696-12.93824-13.80352-19.0464 10.12224-11.89376 15.2064-27.07456 15.2064-45.78304 0-19.22048-5.24288-34.75456-15.73888-46.47424-11.008-12.40576-26.0352-18.5088-44.9024-18.5088z m0 16.75776c13.27104 0 23.59296 4.19328 30.76096 12.93824 6.96832 8.56576 10.62912 20.28032 10.62912 35.28704 0 12.75904-2.59584 23.06048-7.8336 31.11424a585.73824 585.73824 0 0 0-18.88768-21.1456l-11.008 10.8288a351.28832 351.28832 0 0 1 18.70848 21.48352c-6.10304 3.68128-13.62432 5.59104-22.3744 5.59104-13.26592 0-23.58784-4.5312-30.91456-13.27104-6.9888-8.56576-10.496-20.08576-10.496-34.60096 0-14.6688 3.5072-26.1888 10.496-34.75456 7.32672-9.09824 17.64864-13.47072 30.91968-13.47072z m79.85152-14.31552v124.7488h87.53152v-16.24576h-68.66432v-108.50304h-18.8672zM168.56576 690.82624c-13.62432 0-24.61696 4.54656-32.8448 13.6448-8.21248 8.90368-12.23168 20.26496-12.23168 34.06848 0 13.62944 4.0192 24.97024 12.05248 33.7152 8.39168 9.07776 19.39968 13.80352 33.024 13.80352 13.62944 0 24.63744-4.72576 33.024-13.78304 8.0384-8.76544 12.05248-20.10624 12.05248-33.73568 0-13.80352-4.1984-25.1648-12.2112-34.06848-8.22784-9.09824-19.23584-13.6448-32.86528-13.6448z m0 15.2064c8.56576 0 15.2064 3.328 20.08576 10.1376 4.1984 5.77024 6.2976 13.27104 6.2976 22.3744 0 8.89856-2.0992 16.24064-6.2976 22.1696a23.69024 23.69024 0 0 1-20.08576 10.1376c-8.56576 0-15.2064-3.4816-19.90656-10.1376-4.1984-5.74976-6.10816-13.09696-6.10816-22.1696 0-9.10336 1.90976-16.60416 6.10816-22.3744 4.72576-6.8096 11.3408-10.1376 19.90656-10.1376z m96.45568-15.2064c-10.83392 0-19.75296 2.28352-26.56768 6.9888-6.8096 4.55168-10.12224 11.02848-10.12224 19.22048 0 7.68 3.4816 13.80352 10.47552 18.176 4.1984 2.79552 11.6992 5.41696 22.3744 7.87968 9.25184 2.08384 15.36 3.84 18.15552 5.23776 5.23776 2.44224 8.03328 5.92384 8.03328 10.29632 0 8.0384-7.3216 12.23168-21.6576 12.23168-6.99392 0-11.8784-1.22368-15.0272-3.48672-3.15392-2.4576-5.41696-6.8096-6.46144-12.93824h-18.176c2.10944 20.97152 15.38048 31.62624 40.17152 31.62624 26.74176 0 40.21248-9.61024 40.21248-28.65152 0-8.0384-3.6864-14.336-10.8288-18.8672-4.90496-3.1488-12.60544-6.10304-22.90176-8.56576-9.08288-2.26304-15.0272-4.0192-18.176-5.41696-4.88448-2.26304-7.32672-4.89984-7.32672-8.03328 0-3.50208 1.57184-6.2976 4.88448-8.0384 2.79552-1.7664 6.9888-2.4576 12.57984-2.4576 6.30272 0 11.1872 1.06496 14.336 3.15392 2.95424 1.92512 5.06368 5.23776 6.46144 10.1376h17.9968c-2.10432-19.04128-15.02208-28.4928-38.43584-28.4928z m84.5568-26.7264l-18.5088 7.68v21.504h-16.77824v15.36h16.77824v52.4288c0 7.168 1.57184 12.5952 5.05856 16.41984 3.4816 4.01408 9.25696 6.10304 16.93696 6.10304h14.86848v-15.36h-11.89888a6.61504 6.61504 0 0 1-4.87936-1.75104c-1.04448-1.22368-1.57696-2.95424-1.57696-5.41696v-52.41856h20.61824v-15.36h-20.61824v-29.184z m73.01632 26.7264c-12.20608 0-22.1696 4.1984-29.696 12.75904-7.68 8.39168-11.3408 19.22048-11.3408 32.84992 0 13.62432 3.6608 24.45824 11.3408 32.68608 7.5264 8.192 17.48992 12.40576 29.71648 12.40576 11.8784 0 20.95616-5.07904 27.61216-15.04256v13.9776c0 16.93696-7.87968 25.50272-23.59296 25.50272-7.3472 0-12.75904-1.21856-16.07168-3.30752-3.50208-2.26304-5.59104-6.10304-6.656-11.36128h-18.5088c1.75104 9.96352 5.77024 17.3056 12.40576 22.1952 6.63552 4.72576 16.24576 7.168 28.8256 7.168 27.96544 0 42.10688-14.336 42.10688-42.99264v-84.3776h-18.5088v12.05248c-6.656-9.78944-15.73376-14.5152-27.61216-14.5152h-0.02048z m2.816 15.04256c7.8592 0 13.98272 2.62144 18.51392 8.21248 4.1984 5.41696 6.45632 12.91776 6.45632 22.35392 0 9.25184-2.26304 16.59904-6.45632 22.016-4.5312 5.23776-10.6496 7.87456-18.51392 7.87456-9.09312 0-15.55456-3.1488-19.57376-9.09824-3.4816-5.05856-5.23776-12.05248-5.23776-20.79232 0-9.61024 2.08896-17.13664 6.63552-22.35392 4.1984-5.59104 10.30144-8.21248 18.176-8.21248z m106.22464-15.04256c-5.59616 0-10.48064 1.57696-14.67392 5.07904-3.50208 2.44224-6.45632 6.10816-8.73984 11.008v-13.62432h-18.51392v90.32704h18.51392v-47.872c0-7.87456 2.28352-14.336 6.9888-19.22048 4.37248-4.52608 9.45152-6.8096 15.0272-6.8096 4.19328 0 8.56576 0.512 13.11232 1.90464v-18.5088a26.40896 26.40896 0 0 0-11.71456-2.28352z m61.32224 0c-13.27616 0-23.93088 4.54656-31.61088 13.80352-8.05376 9.09824-11.89376 20.28544-11.89376 33.73568 0 14.848 4.1984 26.54208 12.58496 35.28704 7.68 8.21248 18.3552 12.40576 31.62624 12.40576 12.05248 0 22.016-3.4816 29.8752-10.30144a40.76544 40.76544 0 0 0 12.40576-21.1456h-18.51392c-2.4576 5.23776-5.07904 9.25184-8.21248 11.69408-4.01408 2.97472-9.25184 4.55168-15.73376 4.55168-7.34208 0-13.09184-2.44224-17.29024-6.99392-4.19328-4.72576-6.4768-11.52-7.168-20.25984h68.49024c-0.17408-16.07168-3.84-28.65664-10.8288-37.7344-7.68-10.1376-19.0464-15.04256-33.73056-15.04256z m0.52736 15.2064c14.67392 0 22.8864 7.87456 24.63744 23.58784h-48.7424c1.0496-7.68 3.66592-13.45024 7.50592-17.46944 4.1984-4.19328 9.61024-6.10304 16.59904-6.10304v-0.02048z" fill="#42668D" p-id="9106"></path></svg>