<?xml version="1.0" standalone="no"?><!DOCTYPE svg PUBLIC "-//W3C//DTD SVG 1.1//EN" "http://www.w3.org/Graphics/SVG/1.1/DTD/svg11.dtd"><svg t="1691653633777" class="icon" viewBox="0 0 1024 1024" version="1.1" xmlns="http://www.w3.org/2000/svg" p-id="11070" xmlns:xlink="http://www.w3.org/1999/xlink" width="200" height="200"><path d="M512 56.32c-59.38176 0-113.14176 24.06912-152.05376 62.98624C321.024 158.21824 296.96 211.97824 296.96 271.36c0 78.41792 41.984 147.02592 104.67328 184.6016L385.8176 537.6H148.48c-25.4464 0-48.4864 10.3168-65.16736 26.99264A91.87328 91.87328 0 0 0 56.32 629.76c0 25.4464 10.3168 48.4864 26.99264 65.16736A91.87328 91.87328 0 0 0 148.48 721.92h727.04c25.4464 0 48.4864-10.3168 65.16736-26.99264A91.87328 91.87328 0 0 0 967.68 629.76c0-25.4464-10.3168-48.4864-26.99264-65.16736A91.87328 91.87328 0 0 0 875.52 537.6h-237.34272l-15.80032-81.64352C685.06624 418.37568 727.04 349.7728 727.04 271.36c0-59.38176-24.06912-113.14176-62.98624-152.05376C625.14176 80.384 571.38176 56.32 512 56.32z" fill="#126ee3" p-id="11071"></path><path d="M40.96 880.64m46.08 0l849.92 0q46.08 0 46.08 46.08l0 30.72q0 46.08-46.08 46.08l-849.92 0q-46.08 0-46.08-46.08l0-30.72q0-46.08 46.08-46.08Z" fill="#126ee3" p-id="11072"></path></svg>