<?xml version="1.0" standalone="no"?><!DOCTYPE svg PUBLIC "-//W3C//DTD SVG 1.1//EN" "http://www.w3.org/Graphics/SVG/1.1/DTD/svg11.dtd"><svg t="1666072568156" class="icon" viewBox="0 0 1080 1024" version="1.1" xmlns="http://www.w3.org/2000/svg" p-id="2339" xmlns:xlink="http://www.w3.org/1999/xlink" width="210.9375" height="200"><path d="M690.460444 153.6h307.2a51.2 51.2 0 0 1 51.2 51.2v768a51.2 51.2 0 0 1-51.2 51.2h-921.6a51.2 51.2 0 0 1-51.2-51.2V204.8a51.2 51.2 0 0 1 51.2-51.2h307.2V51.2a51.2 51.2 0 0 1 51.2-51.2h204.8a51.2 51.2 0 0 1 51.2 51.2v102.4z m-102.4 0v-51.2h-102.4v51.2h102.4z m-256 216.576a102.4 102.4 0 1 0 0 204.8 102.4 102.4 0 0 0 0-204.8z m-179.2 442.88h358.4c0-98.986667-3.413333-204.8-179.2-204.8s-179.2 105.813333-179.2 204.8z m768.512 0v-102.4h-307.2v102.4h307.2z m0-212.48v-102.4h-307.2v102.4h307.2z" p-id="2340"></path></svg>