<?xml version="1.0" standalone="no"?><!DOCTYPE svg PUBLIC "-//W3C//DTD SVG 1.1//EN" "http://www.w3.org/Graphics/SVG/1.1/DTD/svg11.dtd"><svg t="1689218976606" class="icon" viewBox="0 0 1077 1024" version="1.1" xmlns="http://www.w3.org/2000/svg" p-id="10212" xmlns:xlink="http://www.w3.org/1999/xlink" width="210.3515625" height="200"><path d="M343.848421 193.805474a193.212632 193.212632 0 1 0 386.533053 0 193.212632 193.212632 0 0 0-386.479158 0zM361.525895 691.900632a193.158737 193.158737 0 0 0-167.397053-96.902737 193.751579 193.751579 0 0 0-167.397053 290.169263 193.158737 193.158737 0 0 0 167.397053 96.848842c32.875789 0 65.751579-8.192 96.309895-25.869474a193.428211 193.428211 0 0 0 71.087158-264.245894z m615.477894-71.087158a191.326316 191.326316 0 0 0-96.256-25.869474 192.458105 192.458105 0 0 0-167.397052 96.956632 193.266526 193.266526 0 0 0 71.033263 264.299789 191.326316 191.326316 0 0 0 96.363789 25.869474 192.458105 192.458105 0 0 0 167.343158-96.956632 193.428211 193.428211 0 0 0-71.033263-264.299789z m-147.941052-83.968a253.035789 253.035789 0 0 1 139.749052 10.563368 432.235789 432.235789 0 0 0-177.960421-313.074526 256.269474 256.269474 0 0 1-59.877052 128.053895 291.732211 291.732211 0 0 1 98.088421 174.457263zM193.482105 531.563789c17.623579 0 34.654316 1.724632 51.685053 5.281685a297.930105 297.930105 0 0 1 98.088421-175.050106 256.970105 256.970105 0 0 1-59.930947-127.461052 432.235789 432.235789 0 0 0-177.960421 313.074526 265.323789 265.323789 0 0 1 88.117894-15.845053z m441.667369 333.608422a299.115789 299.115789 0 0 1-98.088421 17.030736 284.564211 284.564211 0 0 1-98.088421-17.030736 254.383158 254.383158 0 0 1-76.314948 117.490526 433.852632 433.852632 0 0 0 174.403369 36.971789c62.248421 0 120.993684-13.473684 174.457263-37.025684a254.383158 254.383158 0 0 1-76.368842-117.490526z" p-id="10213"></path></svg>