<svg t="1705382738726" class="icon" viewBox="0 0 1024 1024" version="1.1" xmlns="http://www.w3.org/2000/svg" p-id="61010" width="200" height="200"><path d="M488 722h421c27.614 0 50 22.386 50 50v80c0 27.614-22.386 50-50 50H488c-27.614 0-50-22.386-50-50v-10H157c-16.569 0-30-13.431-30-30V302h-12c-27.614 0-50-22.386-50-50v-80c0-27.614 22.386-50 50-50h83c27.614 0 50 22.386 50 50v80c0 27.614-22.386 50-50 50h-11v180h251v-10c0-27.614 22.386-50 50-50h421c27.614 0 50 22.386 50 50v80c0 27.614-22.386 50-50 50H488c-27.614 0-50-22.386-50-50v-10H187v240h251v-10c0-27.614 22.386-50 50-50z m421-420H358c-27.614 0-50-22.386-50-50v-80c0-27.614 22.386-50 50-50h551c27.614 0 50 22.386 50 50v80c0 27.614-22.386 50-50 50z" p-id="61011"></path></svg>