<?xml version="1.0" standalone="no"?><!DOCTYPE svg PUBLIC "-//W3C//DTD SVG 1.1//EN" "http://www.w3.org/Graphics/SVG/1.1/DTD/svg11.dtd"><svg t="1713171044167" class="icon" viewBox="0 0 1024 1024" version="1.1" xmlns="http://www.w3.org/2000/svg" p-id="36269" xmlns:xlink="http://www.w3.org/1999/xlink" width="200" height="200"><path d="M1023.341714 816.274286c0 111.250286-88.722286 204.068571-200.850285 204.068571s-205.531429-88.137143-205.531429-199.460571c0-13.897143 0-32.475429 4.681143-46.372572L360.009143 644.608c-74.752 83.529143-205.531429 92.818286-289.645714 18.578286-84.114286-74.166857-93.403429-204.068571-18.651429-287.524572 74.678857-83.456 205.531429-92.745143 289.645714-18.578285 9.289143 4.681143 13.970286 13.897143 18.651429 18.578285L621.641143 245.76c-4.681143-13.897143-4.681143-27.794286-4.681143-41.764571C612.205714 92.745143 701.074286 0 817.737143 0c112.128 0 205.531429 88.137143 205.531428 204.068571a203.629714 203.629714 0 0 1-205.531428 204.068572c-60.708571 0-116.809143-23.186286-154.185143-69.558857L406.747429 468.406857c4.608 27.794286 4.608 55.588571 0 83.456l256.877714 129.901714c74.752-83.529143 205.531429-92.745143 289.645714-18.578285 46.738286 37.083429 70.070857 92.745143 70.070857 153.014857z" fill="#000000" fill-opacity=".65" p-id="36270"></path></svg>