<?xml version="1.0" standalone="no"?><!DOCTYPE svg PUBLIC "-//W3C//DTD SVG 1.1//EN" "http://www.w3.org/Graphics/SVG/1.1/DTD/svg11.dtd"><svg class="icon" width="200px" height="200.00px" viewBox="0 0 1024 1024" version="1.1" xmlns="http://www.w3.org/2000/svg"><path d="M512.212 0L962 135.321v281.54c0 279.246-168.462 510.541-439.611 603.623L512.087 1024l-10.276-3.516C230.536 927.402 62 696.057 62 416.736V135.321L512.212 0zM446 237c-99.411 0-180 80.589-180 180s80.589 180 180 180c31.368 0 60.861-8.024 86.54-22.13L681.04 713.344c14.137 13.183 36.284 12.41 49.467-1.728l6.82-7.313c13.183-14.137 12.41-36.285-1.728-49.468L592.592 521.48C613.625 492.02 626 455.956 626 417c0-99.411-80.589-180-180-180z m0.5 74c58.818 0 106.5 47.682 106.5 106.5S505.318 524 446.5 524 340 476.318 340 417.5 387.682 311 446.5 311z" /></svg>