<svg t="1706112256480" class="icon" viewBox="0 0 1024 1024" version="1.1" xmlns="http://www.w3.org/2000/svg" p-id="25430" width="200" height="200"><path d="M129.8688 733.48096c-10.15808-4.39296-16.4608-7.90016-19.06176-10.5984a11.73504 11.73504 0 0 1-3.87584-8.54528c0-3.87584 1.80736-6.93248 5.59104-9.17504 3.7632-2.34496 8.704-3.4304 15.104-3.4304a49.62304 49.62304 0 0 1 28.21632 8.192v-23.92064c-7.89504-3.05664-17.79712-4.59264-29.47584-4.59264-14.04416 0-25.1904 3.072-33.73568 9.18016-8.5248 6.10304-12.57984 14.76608-12.57984 25.89184 0 15.2064 9.35424 26.70592 28.0576 34.62144 11.8784 4.9408 19.24096 8.82176 22.03648 11.776 2.78016 2.8928 4.13696 6.02624 4.13696 9.17504a10.55744 10.55744 0 0 1-5.2224 9.18016c-3.50208 2.42176-8.71936 3.59936-15.65184 3.59936-12.2112 0-23.1936-3.95776-32.80896-11.97056v25.64096c8.704 4.38784 19.94752 6.656 33.7152 6.656 15.0016 0 26.60352-3.072 34.69824-9.00096 8.0896-6.10304 12.22656-14.82752 12.22656-26.34752 0-7.81824-2.24256-14.57152-6.7328-20.224-4.58752-5.77024-12.75904-11.06944-24.63744-16.10752z m144.32768 54.30784c10.86976-11.6736 16.26624-26.7776 16.26624-45.48608 0-17.89952-5.2224-32.47616-15.63648-43.8784-10.43968-11.4176-24.20224-17.09056-41.35424-17.09056-17.9968 0-32.49152 5.92896-43.4432 17.72544-10.96704 11.776-16.36352 27.05408-16.36352 45.83936 0 17.80224 5.2992 32.19968 16.09216 43.4432 10.69056 11.22304 24.63232 16.896 41.8048 16.896 6.20032 0 11.97056-0.70656 17.26976-2.24256l15.91296 16.18432h37.86752l-30.48448-29.39904c0.62976-0.62976 1.4336-1.25952 2.06848-1.9712v-0.02048z m-18.80576-15.36c-5.4784 7.0912-13.312 10.5984-23.37792 10.5984-9.70752 0-17.44384-3.6864-23.09632-11.14624-5.59104-7.36768-8.46848-16.896-8.46848-28.49792 0-11.79648 2.87744-21.4016 8.64256-28.78976 5.65248-7.45984 13.58848-11.14624 23.63392-11.14624 9.90208 0 17.44896 3.60448 22.9376 10.89024 5.4784 7.28576 8.07936 17.0752 8.07936 29.57824 0 11.8784-2.85696 21.30944-8.35072 28.49792v0.01536z m80.83456-89.12384h-25.53856v119.58784h70.31808v-20.67456H336.2304V683.30496z m152.064 50.176c-10.15808-4.39296-16.4608-7.90016-19.06176-10.5984a11.73504 11.73504 0 0 1-3.88096-8.54528c0-3.87584 1.81248-6.93248 5.57568-9.17504 3.77856-2.34496 8.72448-3.4304 15.12448-3.4304a49.62304 49.62304 0 0 1 28.21632 8.192v-23.92064c-7.89504-3.05664-17.80224-4.59264-29.47584-4.59264-14.04416 0-25.1904 3.072-33.73568 9.18016-8.448 6.20032-12.68224 14.848-12.68224 25.99424 0 15.20128 9.35424 26.7008 28.06272 34.61632 11.8784 4.94592 19.24096 8.8064 22.03648 11.776 2.77504 2.87744 4.13696 6.02624 4.13696 9.18016a10.55744 10.55744 0 0 1-5.2224 9.17504c-3.50208 2.42176-8.72448 3.584-15.63648 3.584-12.22656 0-23.21408-3.9424-32.82432-11.9552v25.62048c8.72448 4.41344 19.968 6.656 33.7152 6.656 15.02208 0 26.624-3.05152 34.7136-8.98048 8.07424-6.12352 12.2112-14.848 12.2112-26.34752 0-7.8336-2.2272-14.57152-6.7328-20.24448-4.39296-5.84704-12.48768-11.14624-24.54016-16.18432z m86.23616-17.98144c-12.15488 0-22.31296 4.23424-30.33088 12.75904-7.97184 8.5504-12.032 19.61472-12.032 33.3824 0 13.74208 3.78368 24.35584 11.32544 32.09728 7.56224 7.63904 18.176 11.49952 31.744 11.49952 12.60544 0 22.84544-2.24256 30.65856-6.5536v-18.3552c-7.18336 4.58752-15.55456 7.00928-24.9088 7.00928-15.104 0-23.09632-6.63552-23.9104-19.8656h56.20736v-10.5216c0-12.75904-3.4304-22.92224-10.24-30.30528-7.02976-7.46496-16.46592-11.14624-28.5184-11.14624z m-17.72544 36.15744c0.80896-5.77024 2.87744-10.43968 6.20544-13.94176a15.2064 15.2064 0 0 1 11.3408-5.2224c10.43456 0 15.55456 6.38464 15.55456 19.16416h-33.1008z m97.83296-18.07872h-0.256v-16.08704h-24.91392v85.504h24.91392v-41.18016c0-7.56224 1.6128-13.48608 4.92032-17.89952a16.2048 16.2048 0 0 1 13.51168-6.5536c4.31104 0 7.99232 0.88064 11.04384 2.69312v-23.1168a18.39104 18.39104 0 0 0-6.7328-0.98304c-10.89024 0-18.3552 6.02624-22.48704 17.62304z m86.32832 38.12352c-1.536 5.39648-2.61632 10.24-3.05152 14.29504h-0.37376c-0.1792-3.93728-1.1776-8.89856-2.87744-14.7456l-15.63136-53.8624H692.224l30.5664 85.504h28.2368l32.09728-85.504h-26.15296l-16.01024 54.31296z m89.20576-56.20224c-12.14976 0-22.30784 4.23424-30.32576 12.75904-7.99232 8.5504-12.032 19.61472-12.032 33.3824 0 13.74208 3.78368 24.35584 11.32544 32.09728 7.56224 7.63904 18.15552 11.49952 31.744 11.49952 12.60032 0 22.84032-2.24256 30.65856-6.5536v-18.3552c-7.18848 4.58752-15.55456 7.00928-24.9088 7.00928-15.104 0-23.10144-6.63552-23.9104-19.8656h56.18688v-10.5216c0-12.75904-3.40992-22.92224-10.24-30.30528-6.8352-7.46496-16.36352-11.14624-28.5184-11.14624h0.02048z m-17.72032 36.15744c0.80384-5.77024 2.87232-10.43968 6.20032-13.94176a15.2064 15.2064 0 0 1 11.32544-5.2224c10.43456 0 15.55456 6.38464 15.55456 19.16416h-33.08032z m120.32-35.70176c-10.89024 0-18.45248 5.92384-22.49216 17.52576h-0.27136v-16.09216h-24.91392v85.504h24.91392v-41.15456c0-7.56224 1.6128-13.51168 4.9408-17.92a16.2048 16.2048 0 0 1 13.4912-6.5536c4.33152 0 8.0128 0.90112 11.06432 2.69312v-23.09632a23.33696 23.33696 0 0 0-6.7328-0.90624zM338.90304 478.04928c31.17568-20.57728 61.83424-42.69056 95.37024-59.07456 34.87744-15.16544 69.27872-27.61216 105.23648-40.41216 35.09248-12.89728 70.8352-23.41376 107.12576-32.64512a1012.26496 1012.26496 0 0 1 110.336-21.56544l-5.632 11.52a153.79456 153.79456 0 0 0-32.49152-37.12c-12.7232-10.71104-26.92096-19.69152-41.78944-27.4688a347.25376 347.25376 0 0 0-34.53952-15.55968 505.55904 505.55904 0 0 0-60.70784-18.98496 510.76096 510.76096 0 0 0-50.16064-9.70752c-2.06848-0.29184-4.1472-0.55296-6.2208-0.78848l-6.5024-0.70656a904.7808 904.7808 0 0 1-38.9632-5.2224c-17.27488-2.7136-34.5088-5.90336-51.53792-10.25536a341.54496 341.54496 0 0 1-12.68224-3.54304 188.0576 188.0576 0 0 1-12.544-4.21376c-4.16768-1.536-8.2432-3.30752-12.2112-5.2992-1.96608-1.024-3.89632-2.1504-5.77024-3.4048a28.0832 28.0832 0 0 1-2.69312-2.08896 15.9744 15.9744 0 0 1-2.10944-2.36544l-0.13824-0.19456-0.1536-0.33792a0.93696 0.93696 0 0 1 1.71008-0.74752c0-0.03584 0 0 0.04096 0.04096l0.09728 0.11776a4.88448 4.88448 0 0 0 0.78848 0.71168c0.37376 0.31232 0.78848 0.60928 1.19808 0.88576 0.8704 0.54784 1.77152 1.03936 2.71872 1.51552 1.8688 0.9216 3.84 1.6896 5.84704 2.40128 3.99872 1.41824 8.1152 2.56 12.27264 3.54304 8.32512 1.9712 16.7936 3.52768 25.30304 4.74624 17.03424 2.52416 34.18624 4.21376 51.39456 5.57568 8.58624 0.72704 17.21344 1.28 25.82016 1.84832l12.93824 0.74752 6.45632 0.3584c11.07456 0.75776 22.10816 1.9712 33.08544 3.64032 8.76032 1.30048 17.44384 2.93376 26.112 4.72576 17.3056 3.66592 34.4576 8.30976 51.21536 14.21824 12.5952 4.5056 24.9344 9.69728 36.9664 15.55968 4.01408 2.00704 7.97184 4.096 11.89376 6.28224a245.03296 245.03296 0 0 1 22.84032 14.31552 219.88352 219.88352 0 0 1 21.19168 16.87552 175.91296 175.91296 0 0 1 34.47808 42.0608l5.92896 10.21952-11.54048 1.30048c-36.70528 4.096-73.19552 10.43968-109.27104 18.688-36.07552 8.192-71.79776 18.944-106.9312 30.76096-35.16928 11.776-69.80608 24.4736-103.71584 39.63904a1052.0576 1052.0576 0 0 0-74.91072 37.02272c-8.13568 4.49024-16.2304 9.07776-24.10496 13.96224h-0.02048a0.9472 0.9472 0 0 1-1.00352-1.57696h-0.02048z m-3.38432 3.46624c11.9296-9.45152 23.552-19.33824 34.56-29.7984a396.47744 396.47744 0 0 0 31.3088-33.024 312.76544 312.76544 0 0 0 13.9264-17.87392 201.0368 201.0368 0 0 0 12.16512-18.96448c0.90624-1.61792 1.77152-3.2512 2.56-4.92544l0.31744-0.5888 0.31232-0.71168 0.59392-1.29536 1.05984-2.58048c1.44384-3.45088 2.77504-6.94272 3.99872-10.47552 2.46272-6.98368 4.43904-14.1312 5.90848-21.38624 2.21184-10.71616 3.072-21.66272 2.56-32.59392a119.41376 119.41376 0 0 0-14.82752-51.3536 138.69056 138.69056 0 0 0-30.44352-37.61664l-0.98816-0.8448-0.90112-0.71168-0.31744-0.256-0.0768-0.05632-0.11776-0.11776-0.27648-0.23552-0.55296-0.49152-1.08544-1.024-2.14528-2.048c-0.69632-0.7168-1.3824-1.43872-2.06848-2.17088-1.37728-1.4336-2.65728-2.99008-3.93728-4.56704a48.93696 48.93696 0 0 1-6.5024-10.5728 21.46304 21.46304 0 0 1-1.73056-6.3232 9.49248 9.49248 0 0 1 0.24064-3.44576c0.15872-0.5632 0.4096-1.09568 0.74752-1.57696a2.6368 2.6368 0 0 1 1.25952-1.024 3.18976 3.18976 0 0 0 0.1024 2.60096c0.34304 0.77312 0.7936 1.49504 1.3312 2.1504 1.06496 1.31584 2.36544 2.51904 3.70688 3.6608 2.69824 2.304 5.632 4.4288 8.6016 6.53824 1.4592 1.08032 2.97472 2.08384 4.4544 3.16928l2.26304 1.57696 2.24768 1.59232 2.02752 1.41824 0.72704 0.53248 0.62976 0.49152 1.22368 0.96256a138.00448 138.00448 0 0 1 21.00736 21.48864 137.73312 137.73312 0 0 1 13.1584 20.08576 127.13984 127.13984 0 0 1 9.33376 22.21056c2.40128 7.68 3.97824 15.63648 4.80256 23.63392 1.57696 16.0256-0.19456 32.21504-4.66432 47.33952a144.95744 144.95744 0 0 1-11.04896 27.17184c-0.90624 1.72544-1.83808 3.4304-2.79552 5.12l-1.4592 2.52416-0.72704 1.23904-0.31744 0.5888-0.3328 0.67072c-0.9216 1.75104-1.90976 3.4304-2.9184 5.09952a202.8544 202.8544 0 0 1-13.16864 19.02592 282.23488 282.23488 0 0 1-14.79168 17.62304c-20.61824 22.7072-44.1088 42.51648-68.92032 60.13952h-0.02048z m277.42208-123.92448c-6.4768-5.7856-13.78304-11.43808-20.51584-16.93184a337.92 337.92 0 0 0-20.87424-15.7952 294.2208 294.2208 0 0 0-22.25152-13.9776 369.2288 369.2288 0 0 0-47.67744-22.60992 414.72 414.72 0 0 0-50.5344-16.384c-17.2032-4.46976-15.5904-13.78304 2.3296-10.51648a425.15456 425.15456 0 0 1 53.04832 13.3888 385.23904 385.23904 0 0 1 63.21152 27.21792c4.08064 2.16576 8.1152 4.40832 12.11392 6.7328a331.6224 331.6224 0 0 1 23.47008 14.86848 239.36 239.36 0 0 1 32.04096 26.8032m-131.9936-138.496a166.02112 166.02112 0 0 1 9.41056 36.1728c2.2528 15.6416 2.2528 31.52384 0 47.16544a123.5456 123.5456 0 0 1-16.09216 44.81536 182.15424 182.15424 0 0 1-10.55232 15.81568 295.22944 295.22944 0 0 1-11.75552 14.6944 441.23136 441.23136 0 0 1-12.36992 14.0544 329.95328 329.95328 0 0 1-26.88 26.13248 376.29952 376.29952 0 0 1-29.47584 23.01952 411.66848 411.66848 0 0 1-23.37792 15.33952c-2.65728 1.59744-5.31456 3.18976-8.0128 4.72576l7.20896-5.888c2.40128-1.9456 4.80256-3.89632 7.18336-5.888a1163.3152 1163.3152 0 0 0 14.21824-11.87328 617.3184 617.3184 0 0 0 27.43296-24.71424 448.8192 448.8192 0 0 0 31.50848-33.4336c2.00704-2.32448 4.0192-4.66944 5.9904-7.0144a327.04 327.04 0 0 0 11.39712-14.31552 172.86144 172.86144 0 0 0 10.12224-15.02208 118.90176 118.90176 0 0 0 15.75424-41.78944c2.72896-14.96064 3.71712-30.1824 2.95424-45.37344-0.59392-12.20608-2.26304-24.41728-4.66944-36.62336z m86.40512 16.04608c0.29696 1.18272 0.512 2.38592 0.73216 3.584 0.19456 1.2032 0.35328 2.42176 0.512 3.62496 0.29184 2.42176 0.43008 4.864 0.49152 7.30624a92.20096 92.20096 0 0 1-1.4592 18.29376l-0.3328 1.81248-0.08192 0.45056-0.02048 0.1024-0.03584 0.13312-0.04096 0.19968-0.19456 0.88576a181.504 181.504 0 0 1-6.4 21.01248 162.93376 162.93376 0 0 1-12.8 26.38848 210.31424 210.31424 0 0 1-16.77824 23.8848c-3.03616 3.7632-6.144 7.46496-9.33376 11.0848l-4.72576 5.36064-4.73088 5.35552c-3.1488 3.56352-6.24128 7.18848-9.48736 10.752l-4.88448 5.31456a187.2128 187.2128 0 0 1-27.136 24.02304 220.78976 220.78976 0 0 1-18.05824 11.89888 196.4544 196.4544 0 0 1-6.2464 3.584l5.49888-4.64896a458.94656 458.94656 0 0 0 16.128-14.12096 262.3232 262.3232 0 0 0 19.7888-20.20352c6.20544-7.0912 12.07296-14.5152 18.15552-21.9136 1.50016-1.85344 3.05152-3.6864 4.608-5.51936 1.536-1.84832 3.11296-3.68128 4.64896-5.47328 3.09248-3.584 6.10304-7.18848 9.0624-10.86976 5.82656-7.36256 11.3152-14.96576 16.14336-22.92224a162.24256 162.24256 0 0 0 17.01376-38.144c0.6912-2.24256 1.32096-4.49024 1.90976-6.7584l0.23552-0.86016 0.06144-0.19968 0.05632-0.19456 0.11776-0.4352 0.512-1.67424 0.9472-3.34848c2.2016-7.96672 4.0192-16.03584 5.4528-24.18176l0.67072-3.584z m97.43872 30.09024a136.93952 136.93952 0 0 1-11.02848 32.4352 155.8272 155.8272 0 0 1-18.5088 29.14304c-7.18848 9.00096-15.12448 17.3056-23.37792 25.1648a229.48352 229.48352 0 0 1-12.8 11.08992c-2.23232 1.792-4.52096 3.50208-6.87104 5.14048-2.36032 1.65376-4.7872 3.2256-7.38304 4.608a141.52704 141.52704 0 0 1 9.82528-14.16192 154.90048 154.90048 0 0 1 11.30496-12.8c7.95648-7.87456 15.71328-15.872 22.95808-24.29952a226.9184 226.9184 0 0 0 19.87072-26.66496c2.9696-4.72576 5.7856-9.56928 8.40704-14.4896a388.864 388.864 0 0 0 7.6032-15.16544zM413.99296 406.6304a461.52704 461.52704 0 0 1 62.14656-50.41152 561.7664 561.7664 0 0 1 69.31968-40.3712c24.02304-11.81184 48.896-21.9136 74.33728-30.16704a480 480 0 0 1 77.86496-18.5088c-25.40544 8.07424-50.49344 16.57856-75.13088 26.1888a926.95552 926.95552 0 0 0-141.99808 69.71392 1097.41056 1097.41056 0 0 0-66.56 43.55584h0.02048z m27.5456-59.7248a224.89088 224.89088 0 0 1 8.39168-9.9072 336.60416 336.60416 0 0 1 8.8576-9.49248 366.55104 366.55104 0 0 1 18.7904-17.92 452.92544 452.92544 0 0 1 40.704-32.23552 482.6624 482.6624 0 0 1 43.9552-27.53024 441.02656 441.02656 0 0 1 34.85184-17.26976c3.9424-1.75104 7.95648-3.38432 12.01152-4.92032-3.52256 2.51904-7.05024 5.00224-10.63424 7.44448l-10.62912 7.28576-21.32992 14.4128a2912.22528 2912.22528 0 0 0-42.26048 29.0816 1916.29824 1916.29824 0 0 0-62.09024 45.45536l-10.27584 7.79776c-3.4304 2.62144-6.87616 5.2224-10.3424 7.79776z m0.55296-72.46848c1.06496-1.73056 2.2016-3.38944 3.38944-5.00224a169.07776 169.07776 0 0 1 11.4176-13.78304 210.11456 210.11456 0 0 1 46.10048-37.2224c1.73568-0.98304 3.48672-1.9456 5.27872-2.85184 1.77152-0.9216 3.584-1.81248 5.4528-2.60096-1.23904 1.61792-2.56 3.13344-3.87584 4.62848a271.2576 271.2576 0 0 1-12.36992 12.82048 411.2384 411.2384 0 0 1-35.70176 30.58176 286.6176 286.6176 0 0 1-14.55104 10.28096c-1.67424 1.08032-3.34848 2.16576-5.14048 3.1488z m-9.984-69.39648c4.23424 6.00576 7.54176 12.52352 10.496 19.2a156.672 156.672 0 0 1 4.92544 12.75904l0.86528 2.62144c2.87232 8.87808 4.1216 18.20672 3.6864 27.53024a71.936 71.936 0 0 1-1.44384 11.02848c-0.73728 3.6352-1.8432 7.18336-3.30752 10.59328-0.5888-3.6864-0.96256-7.28576-1.37728-10.8288a863.0784 863.0784 0 0 0-1.2032-10.55744 319.01696 319.01696 0 0 0-3.1488-20.59776l-1.024-5.09952a110.9248 110.9248 0 0 0-0.53248-2.58048l-0.5888-2.60096c-0.80896-3.44576-1.61792-6.93248-2.46272-10.3936-1.6128-6.95296-3.36896-13.90592-4.88448-21.07392z m13.312 127.09376c2.00704 0.11776 3.95776 0.45568 5.90848 0.90624 1.93024 0.4352 3.84 1.00352 5.7344 1.67424 3.75808 1.34144 7.38304 3.1488 10.8288 5.2992a58.37824 58.37824 0 0 1 17.36704 17.01376 61.22496 61.22496 0 0 1 9.984 40.2688c-0.23552 1.9712-0.55296 3.9424-1.04448 5.86752-0.78848-1.84832-1.47456-3.68128-2.16576-5.47328l-2.02752-5.31456a227.2512 227.2512 0 0 0-4.21376-10.24 124.90752 124.90752 0 0 0-10.12224-18.70848 109.2352 109.2352 0 0 0-13.39392-16.34816 148.1216 148.1216 0 0 0-8.03328-7.48032c-1.41824-1.23904-2.85184-2.4576-4.33152-3.6864-1.47456-1.23904-2.9696-2.4576-4.49024-3.77856zM337.8432 479.78496s-58.82368 39.91552-30.42816 81.80224c0 0 20.48 36.13184 93.30176 55.72608 0 0 83.24096 19.24096 126.91968 17.09568 0 0 5.2224-1.08544-9.35424-3.95776 0 0-42.04544-6.2464-84.48-14.92992-29.696-6.06208-57.89696-17.9968-70.656-26.05056 0 0-74.5984-41.00096-39.72096-86.1184 0 0 12.05248-18.48832 30.03392-31.70304m169.58976 162.44224s28.18048-62.42304 43.28448-145.13152c0 0 10.19904-60.09856 0-111.08352l11.49952-4.07552s11.52 47.92832-1.77152 132.78208c0 0-11.99616 68.98176-47.58016 127.4112m-0.8448 2.26304s-0.78848 0.49152-2.1504 0.49152c-2.14528 0-2.16064-3.70176-2.16064-3.70176m-213.56544-105.984s130.16576-36.31104 168.25344-52.14208c0 0 73.70752-28.39552 95.6416-50.688v7.54176s-63.01184 48.18432-128.23552 64.72704c0 0-75.97056 22.99904-135.68 34.1504v-3.584h0.02048z m34.1504 52.85376s74.4704-96.72704 95.10912-153.89184l14.55104-6.8352s-17.152 63.29344-64 109.6704c0 0-33.4336 41.7024-42.78784 54.99904l-2.87744-3.9424z m159.6416-181.93408s8.38656 52.14208-33.73056 124.76928c0 0-36.74624 70.10304-59.03872 93.48096h6.83008s36.66944-31.29344 76.58496-118.29248c0 0 25.79968-64.72704 19.00544-102.8352l-9.6512 2.87744z m-81.98144 218.25024s113.35168-33.18272 124.40064-37.74976v3.584s-86.29248 34.51904-124.40064 34.16576z m128.3584-39.56224s-78.73024-10.43968-122.25024-51.0464c0 0-48.16896-36.31104-28.94848-82.70336l-15.98976 3.60448s-11.85792 44.22656 22.64576 74.78784c0 0 50.3296 56.79616 144.5376 55.35744z m-96.3584-158.91968s16.54272 66.52416 115.0464 83.77344l5.03808-2.16576S462.57152 462.336 462.57152 412.96896l-9.00096 4.78208z m-103.54176 166.10816s115.31776-38.10816 141.29664-49.96096c0 0 47.45728-15.4624 82.3296-38.12352l-2.87232 5.74976s-32.3584 22.29248-87.00416 43.52c0 0-57.89184 24.08448-136.62208 42.0608l2.87232-3.24608z m164.31616-187.3152s57.1648 34.51904 64 34.87744v-2.52416s-55.6544-33.4336-60.7744-37.0176l-3.2256 4.66432z m16.87552-179.39456s-31.97952-45.69088-40.6016-87.04c0 0-119.02464 39.5776-112.18944 60.78976l14.86336 7.22432 2.38592-1.1264s-11.49952-10.78784 28.0576-32.34816c0 0 38.10816-20.87424 64.71168-29.48096 0 0 8.98048 62.5408 30.5664 80.16896l12.20608 1.792v0.02048z m-120.04352-48.93696L440.32 207.04256l14.37696 1.43872-43.52-44.22656v3.95776z m92.39552 15.83104s-92.39552-6.4768-88.45824-19.7888h4.6848s78.88896 15.55456 83.77344 14.7456v5.0432z m-25.64096 25.5232s27.78624-21.89824 28.87168-22.272l-1.792-3.2512s-35.4304 20.08576-41.984 21.71904c-6.55872 1.6384 14.90432 3.80416 14.90432 3.80416zM338.90304 478.04928c31.1552-20.57728 61.83424-42.69056 95.34976-59.07456 34.87744-15.16544 69.27872-27.61216 105.23648-40.41216 35.09248-12.89728 70.8352-23.41376 107.12576-32.64512a1012.26496 1012.26496 0 0 1 110.336-21.56544l-5.632 11.52a153.79456 153.79456 0 0 0-32.49152-37.12c-12.71808-10.71104-26.92096-19.69152-41.78432-27.4688a347.25376 347.25376 0 0 0-34.54464-15.55968 505.55904 505.55904 0 0 0-60.70784-18.98496 510.76096 510.76096 0 0 0-50.15552-9.70752c-2.0736-0.29184-4.1472-0.55296-6.22592-0.78848l-6.49728-0.70656a904.7808 904.7808 0 0 1-38.97344-5.2224c-17.26976-2.7136-34.49856-5.90336-51.5328-10.25536a341.53984 341.53984 0 0 1-12.68224-3.54304 188.0576 188.0576 0 0 1-12.544-4.21376c-4.16256-1.536-8.2432-3.30752-12.20608-5.2992-1.9712-1.024-3.90144-2.1504-5.77024-3.4048a28.0832 28.0832 0 0 1-2.69824-2.08896 15.9744 15.9744 0 0 1-2.10944-2.36544l-0.13824-0.19456-0.1536-0.33792a0.93696 0.93696 0 1 1 1.71008-0.74752c0-0.03584 0 0 0.04096 0.04096l0.09728 0.11776a4.88448 4.88448 0 0 0 0.78848 0.71168c0.37376 0.31232 0.78848 0.60928 1.19808 0.88576 0.8704 0.54784 1.77664 1.03936 2.71872 1.51552 1.87392 0.9216 3.84 1.6896 5.85216 2.40128 3.9936 1.41824 8.11008 2.56 12.26752 3.54304 8.33024 1.9712 16.7936 3.52768 25.30304 4.74624 17.03424 2.52416 34.18624 4.21376 51.39456 5.57568 8.58624 0.72704 17.21344 1.28 25.82016 1.84832l12.93824 0.74752 6.45632 0.3584c11.07456 0.75776 22.11328 1.9712 33.08544 3.64032 8.76032 1.30048 17.44384 2.93376 26.112 4.72576 17.3056 3.66592 34.4576 8.30976 51.22048 14.21824 12.5952 4.5056 24.9344 9.69728 36.96128 15.55968 4.01408 2.00704 7.97696 4.096 11.89376 6.28224a245.03296 245.03296 0 0 1 22.84032 14.31552 219.88352 219.88352 0 0 1 21.19168 16.87552 175.91296 175.91296 0 0 1 34.4832 42.0608l5.92384 10.21952-11.54048 1.30048c-36.70528 4.096-73.19552 10.43968-109.27104 18.688-36.07552 8.192-71.79776 18.944-106.9312 30.76096-35.16928 11.776-69.80608 24.4736-103.71584 39.63904A1052.0576 1052.0576 0 0 0 364.032 465.664c-8.13056 4.49024-16.2304 9.07776-24.10496 13.96224h-0.02048a0.9472 0.9472 0 0 1-1.00352-1.57696z m-3.4048 3.46624c23.74656-19.08224 46.12096-39.89504 65.47456-63.15008a303.32928 303.32928 0 0 0 13.824-17.92 198.12352 198.12352 0 0 0 12.05248-18.944c0.88576-1.59744 1.73568-3.23072 2.53952-4.88448l0.59392-1.32096 0.56832-1.32096 1.04448-2.58048c1.3824-3.456 2.6624-6.95808 3.81952-10.496a163.584 163.584 0 0 0 5.59616-21.3248c0.68608-3.54304 1.23904-7.14752 1.6128-10.752 0.8192-7.13216 1.024-14.32064 0.6144-21.48352a119.1424 119.1424 0 0 0-14.848-50.54976 139.06944 139.06944 0 0 0-29.9776-37.14048l-0.98304-0.82944-0.8448-0.6656-0.3584-0.29696-0.0768-0.06144-0.13824-0.11776-0.256-0.23552-0.55296-0.512-1.08032-1.05984-2.1248-2.10944-2.03264-2.2272c-1.37728-1.49504-2.61632-3.10784-3.87584-4.72576a47.73376 47.73376 0 0 1-6.2464-11.0848 21.95456 21.95456 0 0 1-1.49504-6.656 9.96352 9.96352 0 0 1 0.4352-3.60448c0.19456-0.58368 0.4864-1.1264 0.86528-1.6128a2.75456 2.75456 0 0 1 1.39776-0.98816c-0.3328 1.00864 0 1.87392 0.37376 2.60096 0.41984 0.7168 0.92672 1.3824 1.51552 1.9712 1.18272 1.21856 2.52416 2.304 3.9424 3.34848 2.83136 2.10432 5.82656 4.07552 8.8576 6.0416 1.47968 1.024 3.03616 1.9712 4.5312 2.9952l2.28352 1.49504 2.24768 1.55648 1.98656 1.32096 0.768 0.54784 0.65024 0.49664 1.23904 0.98304a137.84576 137.84576 0 0 1 21.30944 21.71904 137.9584 137.9584 0 0 1 13.312 20.34176 121.73824 121.73824 0 0 1 14.19776 46.49472 124.37504 124.37504 0 0 1-5.06368 47.85152 141.7216 141.7216 0 0 1-11.43808 27.2384c-0.94208 1.70496-1.90464 3.39968-2.89792 5.07904l-1.49504 2.53952-0.74752 1.21856-0.65024 1.24416c-0.9472 1.77152-1.93024 3.46624-2.95424 5.12-4.07552 6.69184-8.56576 12.9536-13.29152 19.04128a283.65312 283.65312 0 0 1-14.90944 17.60256 379.0592 379.0592 0 0 1-33.08032 31.8464 462.37696 462.37696 0 0 1-36.23424 27.96032z m277.4272-123.92448c-6.48192-5.7856-13.78816-11.43808-20.52096-16.93184a337.92 337.92 0 0 0-20.87424-15.7952 294.2208 294.2208 0 0 0-22.25152-13.9776 369.2288 369.2288 0 0 0-47.67744-22.60992 414.72 414.72 0 0 0-50.52928-16.384c-17.21344-4.46976-15.59552-13.78304 2.32448-10.51648a425.15456 425.15456 0 0 1 53.04832 13.3888 385.23904 385.23904 0 0 1 63.21664 27.21792c4.07552 2.16576 8.11008 4.40832 12.1088 6.7328a331.6224 331.6224 0 0 1 23.4752 14.86848 239.36 239.36 0 0 1 32.03584 26.8032m-131.97824-138.496a162.53952 162.53952 0 0 1 10.35776 83.49184 118.3744 118.3744 0 0 1-1.77152 9.45152 119.3728 119.3728 0 0 1-5.80608 18.45248 134.54336 134.54336 0 0 1-8.5504 17.31072 185.85088 185.85088 0 0 1-10.61376 15.89248 278.54336 278.54336 0 0 1-11.81184 14.7456 378.5216 378.5216 0 0 1-12.3904 14.06464 313.2928 313.2928 0 0 1-27.05408 26.09152 348.92288 348.92288 0 0 1-29.73696 22.80448 381.5168 381.5168 0 0 1-23.59296 15.04256c-2.69824 1.55648-5.39136 3.11296-8.13056 4.58752l14.19776-12.01152c4.72576-4.01408 9.41056-8.03328 14.08-12.08832a666.02496 666.02496 0 0 0 27.17696-24.89344 479.98464 479.98464 0 0 0 25.28256-26.54208c2.02752-2.28864 4.0192-4.608 6.02624-6.95296 2.00704-2.32448 3.9936-4.64896 5.9648-6.9888 3.92192-4.66944 7.68-9.41568 11.34592-14.27968a172.46208 172.46208 0 0 0 10.0864-14.9248c3.072-5.12 5.80608-10.37824 8.11008-15.83616a118.84544 118.84544 0 0 0 7.61856-25.55904c2.78528-14.87872 3.8912-30.0288 3.30752-45.1584-0.45056-12.20608-1.9456-24.43264-4.096-36.70016z m86.41024 16.04608c1.3824 4.74624 2.048 9.6512 2.28352 14.57152a86.29248 86.29248 0 0 1-1.1008 18.432l-0.31744 1.83296-0.0768 0.45568-0.02048 0.11776-0.02048 0.13824-0.05632 0.19456-0.19968 0.88576a179.3024 179.3024 0 0 1-6.37952 21.13024 163.09248 163.09248 0 0 1-12.82048 26.58304 208.7936 208.7936 0 0 1-16.87552 23.9872 358.9632 358.9632 0 0 1-9.35424 11.14624l-4.7616 5.31456-4.7104 5.34016c-6.2976 7.10656-12.64128 14.37184-19.6096 21.18656a181.56544 181.56544 0 0 1-22.35392 18.66752 215.4496 215.4496 0 0 1-24.61696 15.06816c7.168-6.4 14.37696-12.6464 21.26848-19.18464a263.82336 263.82336 0 0 0 19.49696-20.36224c6.12352-7.10656 11.9552-14.57152 18.0224-21.99552 1.49504-1.8688 3.0464-3.70176 4.5824-5.55008l4.64896-5.4784c3.072-3.56352 6.10304-7.168 9.00096-10.8288 5.82656-7.36256 11.29984-14.90432 16.08704-22.82496a166.95296 166.95296 0 0 0 18.90304-44.57984l0.24064-0.84992 0.05632-0.21504v-0.06144l0.02048-0.03584 0.04096-0.1024 0.11776-0.4096 0.53248-1.65376 0.98304-3.34848c1.30048-4.4544 2.56-8.93952 3.6864-13.52704 1.13664-4.57216 2.16064-9.23648 3.3024-14.04416z m97.43872 30.09024a129.2032 129.2032 0 0 1-10.4192 32.768 150.64576 150.64576 0 0 1-18.35008 29.44c-7.168 9.09824-15.12448 17.42848-23.43424 25.28768a164.77184 164.77184 0 0 1-12.9792 10.86976c-2.28864 1.7408-4.64384 3.38944-7.0656 4.9408-2.46784 1.60768-5.04832 3.03616-7.72096 4.2752 1.31584-2.62144 2.77504-5.16608 4.37248-7.62368A127.0784 127.0784 0 0 1 629.56544 337.92c7.936-7.87456 15.67232-15.872 22.91712-24.2176a239.93856 239.93856 0 0 0 20.04992-26.35264c6.10304-9.2928 11.40224-19.15904 16.61952-29.3376v0.01536zM413.99296 406.6304a309.66272 309.66272 0 0 1 14.4128-13.9008c4.9408-4.5056 10.02496-8.8576 15.16544-13.13792a485.4528 485.4528 0 0 1 32.01536-24.2176 538.0352 538.0352 0 0 1 69.31968-40.68352c24.064-11.81696 49.03424-21.8624 74.55232-29.952a491.9552 491.9552 0 0 1 38.73792-10.53696 423.5264 423.5264 0 0 1 19.65056-3.9936 338.67264 338.67264 0 0 1 19.8144-3.0208l-18.90816 6.5024c-6.26176 2.16576-12.544 4.352-18.7648 6.61504-12.4672 4.49024-24.85248 9.1136-37.09952 14.02368a1005.09696 1005.09696 0 0 0-141.80352 69.59104 1029.05856 1029.05856 0 0 0-33.77664 20.79232c-11.18208 7.11168-22.21056 14.49472-33.31584 21.91872z m27.5456-59.7248c5.20192-6.99392 10.9312-13.52704 16.83968-19.8656a352.11776 352.11776 0 0 1 18.54976-18.23744 415.50848 415.50848 0 0 1 40.6016-32.49664c14.1824-9.984 28.928-19.0976 44.17536-27.35104 7.63904-4.096 15.36-7.97696 23.25504-11.56096a290.56 290.56 0 0 1 11.9296-5.15584c4.0448-1.65376 8.09984-3.18976 12.2112-4.608-6.89152 5.31456-13.96224 10.29632-20.97152 15.27808-7.02976 4.9664-14.08 9.84576-21.10976 14.73024-14.05952 9.74848-28.07808 19.456-42.04032 29.26592a3629.55776 3629.55776 0 0 0-41.63072 29.73184L462.57152 331.776l-10.43456 7.5776c-3.5072 2.56-7.05024 5.0688-10.5984 7.54688z m0.55296-72.46848c0.98304-1.81248 2.048-3.54304 3.1744-5.23776a146.54976 146.54976 0 0 1 11.04384-14.21824 180.89984 180.89984 0 0 1 17.01376-16.64 176.0512 176.0512 0 0 1 19.02592-14.2592c3.34336-2.16576 6.78912-4.19328 10.3168-6.08256 1.78176-0.94208 3.584-1.83296 5.41696-2.67776 1.82784-0.84992 3.70176-1.65376 5.64736-2.36544-1.1776 1.73568-2.42176 3.328-3.68128 4.88448-1.25952 1.57696-2.56 3.09248-3.87584 4.608a210.0992 210.0992 0 0 1-8.1152 8.66304 286.00832 286.00832 0 0 1-17.2544 15.9744 287.9232 287.9232 0 0 1-18.432 14.57152c-3.18464 2.304-6.43584 4.56704-9.7792 6.71232-1.6896 1.08544-3.39968 2.13504-5.12 3.15392a76.9536 76.9536 0 0 1-5.376 2.91328z m-9.984-69.39648c4.55168 5.86752 8.07424 12.32896 11.1872 18.96448a142.2336 142.2336 0 0 1 5.12 12.73856c0.3328 0.92672 0.62976 1.67424 0.9216 2.62144a71.936 71.936 0 0 1 3.62496 27.7504c-0.256 3.7376-0.8448 7.43936-1.73056 11.0848a48.10752 48.10752 0 0 1-3.90144 10.5728c-0.86528-3.7376-1.37728-7.3216-1.9456-10.86976l-1.536-10.47552c-0.98816-6.89152-2.048-13.62944-3.29216-20.4032l-0.9216-5.07904c-0.1536-0.86016-0.32256-1.72032-0.49664-2.58048l-0.56832-2.60096-2.26816-10.41408c-1.45408-6.99392-3.01056-13.98272-4.19328-21.30944z m13.312 127.09376c2.06848-0.02048 4.07552 0.19968 6.08768 0.55296 1.98656 0.3328 3.93728 0.82432 5.90336 1.41824 3.90144 1.23904 7.64416 2.9184 11.14624 5.0176a56.18176 56.18176 0 0 1 17.88416 17.11616 58.8032 58.8032 0 0 1 9.82528 34.9952c-0.09728 2.01216-0.3072 4.01408-0.62976 6.00576a38.5536 38.5536 0 0 1-1.4336 5.90336c-0.95232-1.80736-1.75616-3.61984-2.56-5.41184l-2.3296-5.25824a508.416 508.416 0 0 0-4.608-10.02496 148.9152 148.9152 0 0 0-10.21952-18.23232 128.04096 128.04096 0 0 0-12.91776-16.24576 198.37952 198.37952 0 0 0-7.68-7.7824l-4.13696-3.93728c-1.41824-1.32096-2.87232-2.6624-4.33152-4.13696v0.02048zM337.8432 479.78496s-58.82368 39.91552-30.42816 81.80224c0 0 20.48 36.13184 93.30176 55.72608 0 0 83.24096 19.24096 126.91968 17.09568 0 0 5.2224-1.08544-9.35424-3.95776 0 0-42.04544-6.2464-84.48-14.92992-29.696-6.06208-57.89696-17.9968-70.656-26.05056 0 0-74.5984-41.00096-39.72096-86.1184 0 0 12.05248-18.48832 30.03392-31.70304m169.58976 162.44224s28.18048-62.42304 43.28448-145.13152c0 0 10.19904-60.09856 0-111.08352l11.49952-4.07552s11.52 47.92832-1.77152 132.78208c0 0-11.99616 68.98176-47.58016 127.4112m-0.8448 2.26304s-0.78848 0.49152-2.1504 0.49152c-2.14528 0-2.16064-3.70176-2.16064-3.70176m-213.56544-105.984s130.16576-36.31104 168.25344-52.14208c0 0 73.70752-28.39552 95.6416-50.688v7.54176s-63.01184 48.18432-128.23552 64.72704c0 0-75.97056 22.99904-135.68 34.1504v-3.584h0.02048z m34.1504 52.85376s74.4704-96.72704 95.10912-153.89184l14.55104-6.8352s-17.152 63.29344-64 109.6704c0 0-33.4336 41.7024-42.78784 54.99904l-2.87744-3.9424z m159.6416-181.93408s8.38656 52.14208-33.73056 124.76928c0 0-36.74624 70.10304-59.03872 93.48096h6.83008s36.66944-31.29344 76.58496-118.29248c0 0 25.79968-64.72704 19.00544-102.8352l-9.6512 2.87744z m-81.98144 218.25024s113.35168-33.18272 124.40064-37.74976v3.584s-86.29248 34.51904-124.40064 34.16576z m128.3584-39.56224s-78.73024-10.43968-122.25024-51.0464c0 0-48.16896-36.31104-28.94848-82.70336l-15.98976 3.60448s-11.85792 44.22656 22.64576 74.78784c0 0 50.3296 56.79616 144.5376 55.35744z m-96.3584-158.91968s16.54272 66.52416 115.0464 83.77344l5.03808-2.16576S462.57152 462.336 462.57152 412.96896l-9.00096 4.78208z m-103.54176 166.10816s115.31776-38.10816 141.29664-49.96096c0 0 47.45728-15.4624 82.3296-38.12352l-2.87232 5.74976s-32.3584 22.29248-87.00416 43.52c0 0-57.89184 24.08448-136.62208 42.0608l2.87232-3.24608z m164.31616-187.3152s57.1648 34.51904 64 34.87744v-2.52416s-55.6544-33.4336-60.7744-37.0176l-3.2256 4.66432z m16.87552-179.39456s-31.97952-45.69088-40.6016-87.04c0 0-119.02464 39.5776-112.18944 60.78976l14.86336 7.22432 2.38592-1.1264s-11.49952-10.78784 28.0576-32.34816c0 0 38.10816-20.87424 64.71168-29.48096 0 0 8.98048 62.5408 30.5664 80.16896l12.20608 1.792v0.02048z m-120.04352-48.93696L440.32 207.04256l14.37696 1.43872-43.52-44.22656v3.95776z m92.39552 15.83104s-92.39552-6.4768-88.45824-19.7888h4.6848s78.88896 15.55456 83.77344 14.7456v5.0432z m-25.64096 25.5232s27.78624-21.89824 28.87168-22.272l-1.792-3.2512s-35.4304 20.08576-41.984 21.71904c-6.55872 1.6384 14.90432 3.80416 14.90432 3.80416z" fill="#000000" p-id="25431"></path></svg>