<svg t="1675498543857" class="icon" viewBox="0 0 1024 1024" version="1.1" xmlns="http://www.w3.org/2000/svg" p-id="2273" width="200" height="200"><path d="M417.450667 630.385778c0-23.893333 1.991111-12.913778-125.724445-268.231111a70.997333 70.997333 0 0 0-126.862222 0C35.953778 619.633778 39.025778 607.232 39.025778 630.328889c0 65.308444 84.707556 118.215111 189.155555 118.215111s189.212444-52.906667 189.212445-118.215111zM228.238222 393.898667l106.382222 212.821333h-212.764444l106.382222-212.764444z m756.622222 236.487111c0-23.893333 2.048-12.913778-125.724444-268.231111a70.997333 70.997333 0 0 0-126.862222 0c-128.739556 257.479111-125.667556 245.077333-125.667556 268.231111 0 65.308444 84.764444 118.215111 189.155556 118.215111 104.448 0 189.155556-52.906667 189.155555-118.215111z m-295.537777-23.608889l106.382222-212.764445 106.382222 212.764445h-212.764444z m130.048 189.155555H559.274667V360.277333a118.328889 118.328889 0 0 0 68.551111-84.593777h191.488c13.027556 0 23.608889-10.581333 23.608889-23.608889v-47.445334a23.608889 23.608889 0 0 0-23.608889-23.608889h-213.276445a117.191111 117.191111 0 0 0-188.074666 0h-213.333334a23.608889 23.608889 0 0 0-23.608889 23.608889v47.217778c0 13.027556 10.524444 23.552 23.608889 23.552h191.431111a118.328889 118.328889 0 0 0 68.664889 84.878222v435.598223H204.629333a23.608889 23.608889 0 0 0-23.608889 23.608888v47.217778c0 13.027556 10.524444 23.608889 23.608889 23.608889h614.798223c13.027556 0 23.552-10.581333 23.552-23.608889v-47.217778a23.608889 23.608889 0 0 0-23.552-23.552z" p-id="2274"></path></svg>