<?xml version="1.0" standalone="no"?><!DOCTYPE svg PUBLIC "-//W3C//DTD SVG 1.1//EN" "http://www.w3.org/Graphics/SVG/1.1/DTD/svg11.dtd"><svg t="1709607620396" class="icon" viewBox="0 0 1024 1024" version="1.1" xmlns="http://www.w3.org/2000/svg" p-id="9785" xmlns:xlink="http://www.w3.org/1999/xlink" width="200" height="200"><path d="M512 0c282.752 0 512 229.248 512 512s-229.248 512-512 512S0 794.752 0 512 229.248 0 512 0z m0 42.666667C252.8 42.666667 42.666667 252.8 42.666667 512s210.133333 469.333333 469.333333 469.333333 469.333333-210.133333 469.333333-469.333333S771.2 42.666667 512 42.666667z" fill="#126EE3" fill-opacity=".298" p-id="9786"></path><path d="M298.666667 298.666667m85.333333 0l256 0q85.333333 0 85.333333 85.333333l0 284.458667q0 85.333333-85.333333 85.333333l-256 0q-85.333333 0-85.333333-85.333333l0-284.458667q0-85.333333 85.333333-85.333333Z" fill="#126EE3" p-id="9787"></path></svg>