<?xml version="1.0" standalone="no"?><!DOCTYPE svg PUBLIC "-//W3C//DTD SVG 1.1//EN" "http://www.w3.org/Graphics/SVG/1.1/DTD/svg11.dtd"><svg class="icon" width="200px" height="200.00px" viewBox="0 0 1024 1024" version="1.1" xmlns="http://www.w3.org/2000/svg"><path d="M953.636571 605.330286h-129.462857V583.68a97.060571 97.060571 0 0 0-96.036571-96.402286c-36.059429-0.365714-72.192 0-108.251429 0H538.258286V417.645714h114.688a68.461714 68.461714 0 0 0 68.608-68.534857V69.339429a68.461714 68.461714 0 0 0-68.608-68.388572H372.955429a68.388571 68.388571 0 0 0-68.461715 68.388572v279.917714a68.388571 68.388571 0 0 0 68.461715 68.461714h110.226285v69.266286H294.107429a100.644571 100.644571 0 0 0-33.353143 4.827428c-28.525714 9.874286-51.053714 32.329143-60.928 60.928-4.242286 14.921143-5.851429 30.500571-4.900572 46.006858v4.681142H69.558857a68.461714 68.461714 0 0 0-68.534857 68.461715v279.844571a68.461714 68.461714 0 0 0 68.534857 68.461714h279.844572a68.461714 68.461714 0 0 0 68.461714-68.461714V671.890286a68.461714 68.461714 0 0 0-68.461714-68.461715H249.782857V576.365714v-1.682285 0.950857a66.633143 66.633143 0 0 1 3.072-10.313143 69.924571 69.924571 0 0 1 3.803429-6.509714c0.731429-1.243429 1.755429-2.340571 2.486857-3.657143l-0.658286 1.170285c1.901714-2.048 3.949714-3.876571 5.705143-5.632l1.974857-1.462857a68.754286 68.754286 0 0 1 7.168-3.657143H272.091429c1.170286-0.292571 2.413714-0.950857 3.510857-1.316571 2.779429-0.877714 5.558857-1.609143 8.411428-2.194286 1.097143 0 2.194286-0.292571 3.145143-0.365714h447.780572a68.608 68.608 0 0 1 7.314285 1.974857c1.462857 0.438857 2.925714 1.243429 4.315429 1.536h-1.170286c2.194286 1.170286 4.388571 2.413714 6.509714 3.730286l1.609143 1.170286 1.024 1.097142a65.828571 65.828571 0 0 1 5.193143 5.266286l-0.658286-1.170286c0.658286 1.097143 1.462857 2.048 2.194286 2.998858 1.462857 2.340571 2.925714 4.681143 4.096 7.094857 0 0.512 0.512 1.170286 0.804572 1.828571a67.657143 67.657143 0 0 1 2.413714 8.777143V574.756571c0 1.024 0 2.121143 0.292571 3.145143v27.355429h-95.085714a68.461714 68.461714 0 0 0-68.534857 68.461714v279.844572a68.461714 68.461714 0 0 0 68.534857 68.534857h279.771429a68.461714 68.461714 0 0 0 68.534857-68.388572V673.865143a68.388571 68.388571 0 0 0-68.534857-68.461714z" /></svg>