<svg t="1704702576532" class="icon" viewBox="0 0 1024 1024" version="1.1" xmlns="http://www.w3.org/2000/svg" p-id="24407" width="200" height="200"><path d="M170.81 973.593a129.288 129.288 0 0 1-37.69-93.35V368.806c0-76.304 37.723-145.342 101.97-185.905L460.735 18.102c30.497-22.727 72.3-22.727 102.796 0l225.677 164.83c64.247 40.564 101.97 109.569 101.97 185.873v511.439c0 73.067-58.599 132.327-130.08 131.534H263.167c-36.137 0.793-68.245-13.807-92.358-38.185z m244.967-512.231a133.226 133.226 0 0 0 96.355 40.598c75.479 0 136.522-61.706 136.522-138.01 0-76.305-61.043-138.01-136.522-138.01-75.479 0-136.522 61.672-136.522 138.01 0.793 38.152 15.26 72.241 40.167 97.412z" p-id="24408"></path></svg>