<?xml version="1.0" standalone="no"?><!DOCTYPE svg PUBLIC "-//W3C//DTD SVG 1.1//EN" "http://www.w3.org/Graphics/SVG/1.1/DTD/svg11.dtd"><svg t="1713169657681" class="icon" viewBox="0 0 1024 1024" version="1.1" xmlns="http://www.w3.org/2000/svg" p-id="35411" xmlns:xlink="http://www.w3.org/1999/xlink" width="200" height="200"><path d="M580 545c27.614 0 50 22.386 50 50v266c0 27.614-22.386 50-50 50H164c-27.614 0-50-22.386-50-50V595c0-27.614 22.386-50 50-50z m280 0c27.614 0 50 22.386 50 50v266c0 27.614-22.386 50-50 50H760c-27.614 0-50-22.386-50-50V595c0-27.614 22.386-50 50-50z m0-432c27.614 0 50 22.386 50 50v266c0 27.614-22.386 50-50 50H444c-27.614 0-50-22.386-50-50V163c0-27.614 22.386-50 50-50h416z m-596 0c27.614 0 50 22.386 50 50v266c0 27.614-22.386 50-50 50H164c-27.614 0-50-22.386-50-50V163c0-27.614 22.386-50 50-50h100z" p-id="35412"></path></svg>