<svg t="1694410947213" class="icon" viewBox="0 0 3503 1024" version="1.1" xmlns="http://www.w3.org/2000/svg" p-id="6554" width="200" height="200"><path d="M3069.952 21.234526H89.896421a53.894737 53.894737 0 0 0-53.894737 53.894737v862.31579a53.894737 53.894737 0 0 0 53.894737 53.894736h3285.962105a53.894737 53.894737 0 0 0 50.822737-71.895578l-305.906526-862.31579a53.894737 53.894737 0 0 0-50.822737-35.893895z" fill="#FFF3DC" p-id="6555"></path><path d="M686.295579 508.227368h117.706105v87.956211h-117.706105V508.227368z m0 130.640843h117.706105v96.363789h-117.706105v-96.363789z m0 139.695157h285.210947v-43.331368h-122.88v-96.363789h97.010527v-42.684632h-97.010527V508.227368h97.010527v-43.331368h-97.010527V374.999579h111.238737v-43.978105h-120.293052l17.461894-6.467369c-8.407579-32.336842-20.048842-67.260632-35.570526-106.064842l-45.271579 12.288c14.874947 32.336842 27.809684 65.967158 38.157474 100.244211h-118.999579c12.934737-33.630316 24.576-67.907368 33.630316-104.124632l-44.624843-9.054316a752.047158 752.047158 0 0 1-108.005052 252.874106l14.22821 47.211789c18.108632-24.576 35.570526-49.798737 51.092211-76.314947v368.64h44.624842v-31.690106z m117.706105-403.563789v89.896421h-117.706105V374.999579h117.706105z m-352.471579 331.776H529.785263v40.744421h43.331369V274.108632H407.552v488.933052h43.978105v-56.266105z m78.255158-43.978105H451.530105v-346.004211H529.785263v346.004211zM1032.299789 488.178526v46.565053h581.416422v-46.565053zM1770.226526 222.369684v122.233263h-78.901894v44.624842h78.901894c-20.048842 81.488842-53.032421 154.570105-99.597473 217.950316l20.048842 50.445474c32.336842-50.445474 58.853053-106.064842 79.548631-166.858105v322.074947h45.918316V488.825263c19.402105 24.576 42.037895 56.912842 68.554105 97.657263l26.516211-39.450947a1467.930947 1467.930947 0 0 0-95.070316-108.005053v-49.798737h75.021474v-44.624842h-75.021474V222.369684h-45.918316z m190.787369 292.325053a712.919579 712.919579 0 0 1-87.309474 217.950316l40.097684 25.869473c38.804211-65.967158 69.200842-143.575579 89.896421-234.118737l-42.684631-9.701052z m234.118737-3.233684l-42.037895 13.581473c25.222737 69.847579 48.505263 149.396211 69.847579 239.292632l42.037895-18.755369A1949.696 1949.696 0 0 0 2195.132632 511.461053z m-144.869053 294.912c37.510737 0 56.912842-19.402105 56.912842-57.559579v-287.797895h158.450526v-44.624842h-362.819368v44.624842h157.803789v276.156632c0 18.755368-9.054316 28.456421-26.51621 28.456421-18.755368 0-38.157474-1.293474-58.853053-2.586948l9.054316 43.331369h65.967158z m-113.178947-547.139369v43.978105h294.912V259.233684h-294.912zM2575.413895 259.233684v302.026105h297.498947V259.233684h-297.498947z m250.933894 256.754527H2621.978947V303.858526h204.368842v212.129685z m-426.846315-289.091369l-32.336842 31.690105c45.918316 34.923789 82.135579 67.907368 108.651789 98.950737l31.690105-32.336842a774.090105 774.090105 0 0 0-108.005052-98.304z m-77.608421 191.434105v44.624842h93.776842v257.401264c0 10.347789-4.527158 19.402105-13.581474 27.162947l18.108632 41.391158c42.037895-29.103158 81.488842-62.086737 118.999579-99.597474l-12.288-49.152c-23.929263 23.929263-45.918316 45.271579-66.613895 63.380211V418.330947h-138.401684z m322.721684 181.733053c-31.043368 72.434526-69.200842 135.168-113.825684 186.906947l40.744421 29.749895c43.978105-55.619368 82.135579-120.939789 114.472421-196.608l-41.391158-20.048842z m155.216842-1.940211l-37.510737 23.929264c48.505263 69.847579 86.662737 133.874526 115.119158 192.080842l40.097684-27.809684c-27.162947-53.679158-66.613895-116.412632-117.706105-188.200422z" fill="#FF8600" p-id="6556"></path></svg>