<?xml version="1.0" standalone="no"?><!DOCTYPE svg PUBLIC "-//W3C//DTD SVG 1.1//EN" "http://www.w3.org/Graphics/SVG/1.1/DTD/svg11.dtd"><svg t="1685946920826" class="icon" viewBox="0 0 1024 1024" version="1.1" xmlns="http://www.w3.org/2000/svg" p-id="4360" xmlns:xlink="http://www.w3.org/1999/xlink" width="200" height="200"><path d="M948.8 1003.2h-872v-984H744l204.8 224z" fill="#FFFFFF" p-id="4361"></path><path d="M750.4 4.8H108.8c-25.6 0-46.4 20.8-46.4 46.4v920c0 25.6 20.8 46.4 46.4 46.4h808c25.6 0 46.4-20.8 46.4-46.4V237.6L750.4 4.8z m0 41.6l172 188H768c-9.6 0-17.6-8-17.6-17.6V46.4z m166.4 943.2h-808c-9.6 0-17.6-8-17.6-17.6V51.2c0-9.6 8-17.6 17.6-17.6h612.8V216c0 25.6 20.8 46.4 46.4 46.4h167.2V972c0 8.8-8 17.6-18.4 17.6z" fill="#C0C0C0" p-id="4362"></path></svg>