<?xml version="1.0" standalone="no"?><!DOCTYPE svg PUBLIC "-//W3C//DTD SVG 1.1//EN" "http://www.w3.org/Graphics/SVG/1.1/DTD/svg11.dtd"><svg class="icon" width="200px" height="200.00px" viewBox="0 0 1024 1024" version="1.1" xmlns="http://www.w3.org/2000/svg"><path d="M916.48 1009.265778H185.173333a32.312889 32.312889 0 0 1-32.142222-32.312889V47.672889c0-17.749333 14.506667-32.312889 32.142222-32.312889h557.681778l205.653333 226.247111v735.345778a31.857778 31.857778 0 0 1-32.142222 32.312889z" fill="#FFFFFF" /><path d="M749.340444 0.796444H185.230222c-25.713778 0-46.592 21.048889-46.592 46.876445v929.28c0 25.884444 20.878222 46.876444 46.648889 46.876444h731.136c25.713778 0 46.648889-21.048889 46.648889-46.876444V235.975111L749.340444 0.796444z m-8.078222 33.166223l180.792889 198.769777h-163.100444a17.863111 17.863111 0 0 1-17.635556-17.806222V33.962667zM916.48 995.555556H185.173333a17.863111 17.863111 0 0 1-17.635555-17.806223V47.672889c0-9.671111 7.964444-17.749333 17.635555-17.749333h527.132445v184.206222c0 25.884444 20.878222 46.876444 46.648889 46.876444h175.900444v716.8a18.602667 18.602667 0 0 1-18.488889 17.749334z" fill="#C0C0C0" /><path d="M574.976 221.411556l-487.765333 50.915555a32.426667 32.426667 0 0 0-29.696 32.312889v467.057778c0 16.156444 12.003556 30.72 28.899555 32.369778l487.765334 47.672888a31.744 31.744 0 0 0 35.328-32.369777V253.724444a32.426667 32.426667 0 0 0-34.531556-32.312888z m-274.375111 368.64c7.623111 21.731556 12.060444 35.441778 13.482667 41.130666h0.910222c1.365333-5.688889 6.257778-20.366222 14.563555-44.088889l60.017778-169.927111h55.182222L343.04 678.343111H283.875556l-100.352-261.12h56.832l60.188444 172.771556z" fill="#3955A3" /></svg>