<?xml version="1.0" encoding="UTF-8"?>
<svg width="22px" height="22px" viewBox="0 0 22 22" version="1.1" xmlns="http://www.w3.org/2000/svg" xmlns:xlink="http://www.w3.org/1999/xlink">
    <g id="标准文件" stroke="none" stroke-width="1" fill="none" fill-rule="evenodd">
        <g id="标准文件（设计图）" transform="translate(-576.000000, -193.000000)" fill-rule="nonzero">
            <g id="编组-20" transform="translate(524.000000, 124.000000)">
                <g id="列1" transform="translate(52.000000, 17.000000)">
                    <g id="word" transform="translate(0.000000, 52.000000)">
                        <rect id="矩形" fill="#000000" opacity="0" x="0" y="0" width="22" height="22"></rect>
                        <path d="M2.31,0.44 L15.444,0.44 C15.664,0.44 15.884,0.528 16.038,0.671 L20.284,4.609 C20.46,4.774 20.57,5.005 20.57,5.258 L20.57,20.68 C20.57,21.164 20.174,21.56 19.69,21.56 L2.31,21.56 C1.826,21.56 1.43,21.164 1.43,20.68 L1.43,1.32 C1.43,0.836 1.826,0.44 2.31,0.44 Z" id="路径" fill="#2A92FF"></path>
                        <path d="M16.94,7.81 L13.75,7.81 L13.75,6.27 C13.728,6.094 13.574,5.962 13.387,5.973 L5.027,6.842 C4.862,6.864 4.73,6.996 4.73,7.172 L4.73,15.928 C4.73,16.093 4.862,16.236 5.027,16.258 L13.387,17.127 L13.42,17.127 C13.607,17.127 13.75,16.984 13.75,16.797 L13.75,15.29 L16.94,15.29 C17.127,15.29 17.27,15.147 17.27,14.96 L17.27,8.14 C17.27,7.953 17.127,7.81 16.94,7.81 Z M11.517,14.146 L9.933,14.146 L9.46,11.869 C9.372,11.473 9.306,11.044 9.251,10.648 L9.218,10.648 C9.152,11.044 9.086,11.462 9.009,11.869 L8.547,14.146 L7.007,14.146 L6.05,8.91 L7.337,8.91 L7.667,11.297 L7.876,12.958 L7.909,12.958 C8.008,12.397 8.118,11.836 8.217,11.297 L8.756,8.91 L9.812,8.91 L10.362,11.297 C10.472,11.836 10.56,12.397 10.67,12.958 L10.703,12.958 C10.769,12.397 10.835,11.836 10.901,11.297 L11.242,8.91 L12.43,8.91 L11.517,14.146 L11.517,14.146 Z M16.61,14.63 L13.75,14.63 L13.75,12.98 L15.51,12.98 L15.51,12.21 L13.75,12.21 L13.75,10.78 L15.51,10.78 L15.51,10.01 L13.75,10.01 L13.75,8.47 L16.61,8.47 L16.61,14.63 Z" id="形状" fill="#FFFFFF"></path>
                    </g>
                </g>
            </g>
        </g>
    </g>
</svg>