<?xml version="1.0" standalone="no"?><!DOCTYPE svg PUBLIC "-//W3C//DTD SVG 1.1//EN" "http://www.w3.org/Graphics/SVG/1.1/DTD/svg11.dtd"><svg t="1685946910926" class="icon" viewBox="0 0 1024 1024" version="1.1" xmlns="http://www.w3.org/2000/svg" p-id="4059" xmlns:xlink="http://www.w3.org/1999/xlink" width="200" height="200"><path d="M916.8 1003.2h-728c-17.6 0-32-14.4-32-32v-920c0-17.6 14.4-32 32-32H744l204.8 224v728c0 17.6-13.6 32-32 32z" fill="#FFFFFF" p-id="4060"></path><path d="M750.4 4.8H188.8c-25.6 0-46.4 20.8-46.4 46.4v920c0 25.6 20.8 46.4 46.4 46.4h728c25.6 0 46.4-20.8 46.4-46.4V237.6L750.4 4.8z m-8 32.8l180 196.8H760c-9.6 0-17.6-8-17.6-17.6V37.6z m174.4 952h-728c-9.6 0-17.6-8-17.6-17.6V51.2c0-9.6 8-17.6 17.6-17.6h524.8V216c0 25.6 20.8 46.4 46.4 46.4h175.2V972c0 8.8-8 17.6-18.4 17.6z" fill="#C0C0C0" p-id="4061"></path><path d="M576.8 223.2L91.2 273.6c-16.8 1.6-29.6 15.2-29.6 32V768c0 16 12 30.4 28.8 32L576 847.2c19.2 2.4 35.2-12.8 35.2-32v-560c0-18.4-16-33.6-34.4-32z m-135.2 444h-78.4L340 554.4c-4-20-8-40.8-10.4-60H328c-3.2 19.2-6.4 40-10.4 60l-22.4 112.8h-76.8L171.2 408h64l16 118.4 10.4 82.4h1.6c4.8-27.2 10.4-55.2 15.2-82.4L304.8 408h52L384 526.4c5.6 26.4 9.6 54.4 15.2 82.4h1.6c3.2-28 6.4-55.2 9.6-82.4L427.2 408h59.2l-44.8 259.2z" fill="#3091F2" p-id="4062"></path></svg>