<?xml version="1.0" standalone="no"?><!DOCTYPE svg PUBLIC "-//W3C//DTD SVG 1.1//EN" "http://www.w3.org/Graphics/SVG/1.1/DTD/svg11.dtd"><svg t="1693641524120" class="icon" viewBox="0 0 1024 1024" version="1.1" xmlns="http://www.w3.org/2000/svg" p-id="6501" xmlns:xlink="http://www.w3.org/1999/xlink" width="200" height="200"><path d="M368.64 30.72c45.24544 0 81.92 36.67456 81.92 81.92v256c0 45.24544-36.67456 81.92-81.92 81.92H112.64c-45.24544 0-81.92-36.67456-81.92-81.92V112.64c0-45.24544 36.67456-81.92 81.92-81.92h256zM368.64 573.44c45.24544 0 81.92 36.67456 81.92 81.92v256c0 45.24544-36.67456 81.92-81.92 81.92H112.64c-45.24544 0-81.92-36.67456-81.92-81.92v-256c0-45.24544 36.67456-81.92 81.92-81.92h256zM911.36 25.6c45.24544 0 81.92 36.67456 81.92 81.92v256c0 45.24544-36.67456 81.92-81.92 81.92h-256c-45.24544 0-81.92-36.67456-81.92-81.92V107.52c0-45.24544 36.67456-81.92 81.92-81.92h256zM911.36 573.44c45.24544 0 81.92 36.67456 81.92 81.92v256c0 45.24544-36.67456 81.92-81.92 81.92h-256c-45.24544 0-81.92-36.67456-81.92-81.92v-256c0-45.24544 36.67456-81.92 81.92-81.92h256z" p-id="6502"></path></svg>