<?xml version="1.0" standalone="no"?><!DOCTYPE svg PUBLIC "-//W3C//DTD SVG 1.1//EN" "http://www.w3.org/Graphics/SVG/1.1/DTD/svg11.dtd"><svg t="1689143629524" class="icon" viewBox="0 0 1024 1024" version="1.1" xmlns="http://www.w3.org/2000/svg" p-id="15699" xmlns:xlink="http://www.w3.org/1999/xlink" width="200" height="200"><path d="M0 0m64 0l896 0q64 0 64 64l0 896q0 64-64 64l-896 0q-64 0-64-64l0-896q0-64 64-64Z" fill="#F2F6FE" p-id="15700"></path><path d="M720 272c17.673 0 32 14.327 32 32v416.626c0 17.674-14.327 32-32 32a32 32 0 0 1-15.078-3.774l-172.214-91.995a32 32 0 0 0-29.574-0.303l-184.638 93.82c-15.756 8.006-35.018 1.723-43.024-14.032A32 32 0 0 1 272 721.846V304c0-17.673 14.327-32 32-32h416zM608 488H416c-13.255 0-24 10.745-24 24s10.745 24 24 24h192c13.255 0 24-10.745 24-24s-10.745-24-24-24z m0-120H416c-13.255 0-24 10.745-24 24s10.745 24 24 24h192c13.255 0 24-10.745 24-24s-10.745-24-24-24z" fill="#3E75FF" p-id="15701"></path></svg>