<?xml version="1.0" standalone="no"?><!DOCTYPE svg PUBLIC "-//W3C//DTD SVG 1.1//EN" "http://www.w3.org/Graphics/SVG/1.1/DTD/svg11.dtd"><svg t="1689143485234" class="icon" viewBox="0 0 1024 1024" version="1.1" xmlns="http://www.w3.org/2000/svg" p-id="15123" xmlns:xlink="http://www.w3.org/1999/xlink" width="200" height="200"><path d="M0 0m64 0l896 0q64 0 64 64l0 896q0 64-64 64l-896 0q-64 0-64-64l0-896q0-64 64-64Z" fill="#F2F6FE" p-id="15124"></path><path d="M720 271c17.673 0 32 14.327 32 32v416c0 17.673-14.327 32-32 32H304c-17.673 0-32-14.327-32-32V303c0-17.673 14.327-32 32-32h416zM608.533 615H415.467C402.507 615 392 625.506 392 638.467v1.066c0 12.96 10.506 23.467 23.467 23.467h193.066c12.96 0 23.467-10.506 23.467-23.467v-1.066c0-12.96-10.506-23.467-23.467-23.467zM672 335H558c-8.837 0-16 7.163-16 16v110.148a10 10 0 0 0 1.964 5.952c3.288 4.438 9.55 5.37 13.988 2.083l56.434-41.803a10 10 0 0 1 12.514 0.49l44.538 38.728a10 10 0 0 0 6.562 2.454c5.523 0 10-4.477 10-10V351c0-8.837-7.163-16-16-16z" fill="#3E75FF" p-id="15125"></path></svg>