<?xml version="1.0" standalone="no"?><!DOCTYPE svg PUBLIC "-//W3C//DTD SVG 1.1//EN" "http://www.w3.org/Graphics/SVG/1.1/DTD/svg11.dtd"><svg t="1689143618834" class="icon" viewBox="0 0 1024 1024" version="1.1" xmlns="http://www.w3.org/2000/svg" p-id="15556" xmlns:xlink="http://www.w3.org/1999/xlink" width="200" height="200"><path d="M0 0m64 0l896 0q64 0 64 64l0 896q0 64-64 64l-896 0q-64 0-64-64l0-896q0-64 64-64Z" fill="#F2F6FE" p-id="15557"></path><path d="M720 482c17.673 0 32 14.327 32 32v206c0 17.673-14.327 32-32 32H304c-17.673 0-32-14.327-32-32V514c0-17.673 14.327-32 32-32h416zM608 593H416c-13.255 0-24 10.745-24 24s10.745 24 24 24h192c13.255 0 24-10.745 24-24s-10.745-24-24-24zM400.043 272h223.914a32 32 0 0 1 25.641 12.855l64.214 86c10.573 14.16 7.665 34.212-6.496 44.786A32 32 0 0 1 688.17 422H335.829c-17.673 0-32-14.327-32-32a32 32 0 0 1 6.36-19.145l64.213-86A32 32 0 0 1 400.042 272z" fill="#3E75FF" p-id="15558"></path></svg>