<?xml version="1.0" standalone="no"?><!DOCTYPE svg PUBLIC "-//W3C//DTD SVG 1.1//EN" "http://www.w3.org/Graphics/SVG/1.1/DTD/svg11.dtd"><svg t="1689143586933" class="icon" viewBox="0 0 1024 1024" version="1.1" xmlns="http://www.w3.org/2000/svg" p-id="15412" xmlns:xlink="http://www.w3.org/1999/xlink" width="200" height="200"><path d="M0 0m64 0l896 0q64 0 64 64l0 896q0 64-64 64l-896 0q-64 0-64-64l0-896q0-64 64-64Z" fill="#F2F6FE" p-id="15413"></path><path d="M272 271m30 0l420 0q30 0 30 30l0 0q0 30-30 30l-420 0q-30 0-30-30l0 0q0-30 30-30Z" fill="#3E75FF" p-id="15414"></path><path d="M719.184 391.094c17.673 0 32 14.326 32 32v295.234c0 17.673-14.327 32-32 32H304.565c-17.673 0-32-14.327-32-32V423.094c0-17.674 14.327-32 32-32h414.62zM559.081 507.54a20 20 0 0 0-19.855 2.379l-102.214 76.535a20 20 0 0 0-8.012 16.01V647c0 11.046 8.954 20 20 20h184c11.046 0 20-8.954 20-20v-86.076a20 20 0 0 0-12.132-18.388zM435 460h-60l-0.338 0.003C364.325 460.183 356 468.619 356 479v60h30v-49h49v-30z" fill="#3E75FF" p-id="15415"></path></svg>