<?xml version="1.0" standalone="no"?><!DOCTYPE svg PUBLIC "-//W3C//DTD SVG 1.1//EN" "http://www.w3.org/Graphics/SVG/1.1/DTD/svg11.dtd"><svg t="1689143499121" class="icon" viewBox="0 0 1024 1024" version="1.1" xmlns="http://www.w3.org/2000/svg" p-id="15266" xmlns:xlink="http://www.w3.org/1999/xlink" width="200" height="200"><path d="M0 0m64 0l896 0q64 0 64 64l0 896q0 64-64 64l-896 0q-64 0-64-64l0-896q0-64 64-64Z" fill="#F2F6FE" p-id="15267"></path><path d="M272 272m32 0l126 0q32 0 32 32l0 126q0 32-32 32l-126 0q-32 0-32-32l0-126q0-32 32-32Z" fill="#3E75FF" p-id="15268"></path><path d="M272 562m32 0l126 0q32 0 32 32l0 126q0 32-32 32l-126 0q-32 0-32-32l0-126q0-32 32-32Z" fill="#3E75FF" p-id="15269"></path><path d="M545.277 344.373l89.096-89.096c12.496-12.497 32.758-12.497 45.254 0l89.096 89.096c12.497 12.496 12.497 32.758 0 45.254l-89.096 89.096c-12.496 12.497-32.758 12.497-45.254 0l-89.096-89.096c-12.497-12.496-12.497-32.758 0-45.254z" fill="#3E75FF" p-id="15270"></path><path d="M562 562m32 0l126 0q32 0 32 32l0 126q0 32-32 32l-126 0q-32 0-32-32l0-126q0-32 32-32Z" fill="#3E75FF" p-id="15271"></path></svg>