<?xml version="1.0" standalone="no"?><!DOCTYPE svg PUBLIC "-//W3C//DTD SVG 1.1//EN" "http://www.w3.org/Graphics/SVG/1.1/DTD/svg11.dtd"><svg t="1684807456329" class="icon" viewBox="0 0 1024 1024" version="1.1" xmlns="http://www.w3.org/2000/svg" p-id="6803" xmlns:xlink="http://www.w3.org/1999/xlink" width="200" height="200"><path d="M255.517 320.41c0 96.296 78.117 174.41 174.416 174.41 96.299 0 174.541-78.114 174.541-174.41 0-96.295-78.117-174.41-174.541-174.41-96.424 0-174.416 77.99-174.416 174.41z m258.05 184.316h-137.05C217.65 504.726 89 633.371 89 792.108c0 47.897 38.87 86.767 86.895 86.892h521.869c37.617 0 68.212-30.469 68.212-68.21V757c-0.126-139.177-113.101-252.274-252.409-252.274z m113.227-185.695c0.125 44.261-15.8 87.143-44.639 120.871-3.26 3.762-3.135 9.404 0.376 13.04 51.034 52.787 135.044 54.166 187.833 3.26 26.206-25.328 40.752-60.185 40.5-96.546-0.5-72.096-59.183-131.153-131.282-131.905-19.686-0.25-39.12 3.887-56.926 12.162-6.144 2.759-9.154 9.78-6.897 16.175a178.905 178.905 0 0 1 11.035 62.943z m75.108 195.977h-38.37c-4.263 0-7.648 3.385-7.773 7.648 0 2.759 1.379 5.266 3.761 6.646 79.246 46.894 127.646 132.03 127.646 224.062v55.42c0 14.42-4.388 28.463-12.664 40.249-2.382 3.385-1.63 8.15 1.755 10.658a7.601 7.601 0 0 0 4.39 1.379h91.408c34.732 0 62.945-28.212 62.945-62.943v-49.653c0-129.02-104.45-233.466-233.098-233.466z" p-id="6804"></path></svg>