<?xml version="1.0" standalone="no"?><!DOCTYPE svg PUBLIC "-//W3C//DTD SVG 1.1//EN" "http://www.w3.org/Graphics/SVG/1.1/DTD/svg11.dtd"><svg t="1684484772774" class="icon" viewBox="0 0 1026 1024" version="1.1" xmlns="http://www.w3.org/2000/svg" p-id="6645" xmlns:xlink="http://www.w3.org/1999/xlink" width="200.390625" height="200"><path d="M1024.002924 0v1024H0.002924V0h1024z m-49.902534 49.902534h-924.194932v924.194932h924.194932V49.902534z" p-id="6646"></path><path d="M251.012671 152.701754v649.231969h162.183235v66.869396H251.012671v0.499025h-76.849903V152.701754h76.849903z" p-id="6647"></path><path d="M851.068686 865.384795v-71.857653H530.266253c11.121279-47.247719 55.606394-101.386979 133.454347-161.431703 63.304359-49.216873 105.222487-87.605895 126.609716-113.198909 39.351142-49.216873 59.883041-104.340211 59.883041-165.369013 0-61.029801-18.820242-111.230752-54.750067-148.635696-36.785154-37.404943-82.980928-56.107415-139.442651-56.107416-61.5937 0-112.066121 23.62386-149.707602 70.871579-37.640483 46.264639-57.316055 109.262596-57.316055 188.009794h70.148991c0.855329-62.013879 13.687267-109.261598 37.640483-140.761076 22.242558-33.467634 54.750066-49.216873 96.668195-49.216874 39.35214 0 71.00432 11.81193 93.246877 35.436788 22.241559 23.62386 33.362838 56.107415 33.362838 99.417825 0 45.279563-16.254253 87.606893-47.051103 125.995914-16.253255 19.68655-47.906433 48.232795-95.812865 87.605895-65.016016 51.186027-108.644803 93.513357-132.59802 125.011836-41.062799 52.170105-60.73837 110.246674-60.73837 174.228709h407.204678z" p-id="6648"></path></svg>