<?xml version="1.0" standalone="no"?><!DOCTYPE svg PUBLIC "-//W3C//DTD SVG 1.1//EN" "http://www.w3.org/Graphics/SVG/1.1/DTD/svg11.dtd"><svg t="1684484766541" class="icon" viewBox="0 0 1026 1024" version="1.1" xmlns="http://www.w3.org/2000/svg" p-id="6361" xmlns:xlink="http://www.w3.org/1999/xlink" width="200.390625" height="200"><path d="M1024.002924 0v1024H0.002924V0h1024z m-49.902534 49.902534h-924.194932v924.194932h924.194932V49.902534z" p-id="6362"></path><path d="M639.853216 870.012756c60.366097 0 110.295579-21.287423 149.787447-63.862269 39.492865-42.574846 59.239298-94.478472 59.239298-155.709879 0-45.285552-10.155166-82.997895-30.465497-113.135033-20.310331-30.137138-48.801684-49.989365-85.47306-59.556678 28.208904-14.670347 49.507306-34.442729 63.893208-59.318145 14.386901-24.875415 21.579852-52.461536 21.579852-82.758362 0-31.891712-7.545263-62.02885-22.637786-90.412413-15.090526-28.383563-36.882963-50.786807-65.373317-67.210729-28.491353-16.42492-59.661474-24.636881-93.512359-24.636882-49.084133 0-90.126971 15.866012-123.131509 47.598036-33.004538 31.732023-54.161216 76.460663-63.470035 134.183922l76.164242 15.307103c5.641981-42.09678 18.335189-73.669115 38.081622-94.717006 19.746433-21.048889 44.429224-31.572335 74.048374-31.572335 29.901598 0 54.301942 10.364756 73.202027 31.094269 18.899088 20.729513 28.34963 46.879439 28.34963 78.452772 0 39.86414-12.976655 69.363524-38.927969 88.498152-25.952312 19.134628-55.148288 28.70294-87.588928 28.702939-3.10294 0-7.192951-0.319376-12.271033-0.958128l-8.462472 75.583376c21.438129-6.377544 39.351142-9.567314 53.738043-9.567314 35.261131 0 64.316382 12.836928 87.164756 38.508788 22.849372 25.672858 34.274058 58.282168 34.274059 97.826931 0 41.459025-12.340897 76.221131-37.023688 104.285318-24.682791 28.065185-54.936702 42.09678-90.762729 42.09678-30.183049 0-55.782051-10.763977-76.798004-32.289934-21.014955-21.527953-35.895891-56.687283-44.639813-105.480982l-76.164242 11.480577c5.078082 58.361014 25.6 105.879205 61.565755 142.554573s81.171462 55.012554 135.614128 55.012553z" p-id="6363"></path><path d="M251.012671 152.701754v649.231969h162.183235v66.869396H251.012671v0.499025h-76.849903V152.701754h76.849903z" p-id="6364"></path></svg>