<?xml version="1.0" standalone="no"?><!DOCTYPE svg PUBLIC "-//W3C//DTD SVG 1.1//EN" "http://www.w3.org/Graphics/SVG/1.1/DTD/svg11.dtd"><svg t="1684807453196" class="icon" viewBox="0 0 1024 1024" version="1.1" xmlns="http://www.w3.org/2000/svg" p-id="6663" xmlns:xlink="http://www.w3.org/1999/xlink" width="200" height="200"><path d="M768 64c70.692 0 128 57.308 128 128v640c0 70.692-57.308 128-128 128H256c-70.692 0-128-57.308-128-128V192c0-70.692 57.308-128 128-128h512zM512 448c-82.94-0.01-156.512 53.239-182.418 132.03-25.907 78.79 1.71 165.31 68.473 214.522 66.764 49.211 157.58 49.989 225.177 1.928l71.424 71.424c12.556 12.127 32.515 11.954 44.858-0.39 12.344-12.343 12.517-32.302 0.39-44.858l-71.424-71.424c41.618-58.554 47.067-135.441 14.124-199.28C649.66 488.114 583.837 448.007 512 448z m0 64c70.692 0 128 57.308 128 128 0 70.692-57.308 128-128 128-70.692 0-128-57.308-128-128 0-70.692 57.308-128 128-128z m-32-256H288c-16.575-0.03-30.43 12.601-31.928 29.109-1.498 16.507 9.858 31.426 26.168 34.379L288 320h192c17.673 0 32-14.327 32-32 0-17.673-14.327-32-32-32z" p-id="6664"></path></svg>